<svg id="Layer_5" enable-background="new 0 0 64 64" height="512" viewBox="0 0 64 64" width="512" xmlns="http://www.w3.org/2000/svg">
    <path d="m43 9c.552 0 1 .449 1 1h2c0-1.654-1.346-3-3-3v-2h-2v2h-3v3c0 1.654 1.346 3 3 3h2c.552 0 1 .449 1 1v1h-3c-.552 0-1-.449-1-1h-2c0 1.654 1.346 3 3 3v2h2v-2h3v-3c0-1.654-1.346-3-3-3h-2c-.552 0-1-.449-1-1v-1z"/>
    <path d="m60 19h-3.84c1.39-.855 2.711-1.838 3.941-2.946l1.824-1.642c.683-.615 1.075-1.494 1.075-2.412s-.392-1.797-1.074-2.412l-1.824-1.642c-4.977-4.479-11.406-6.946-18.102-6.946s-13.125 2.467-18.102 6.946l-1.824 1.642c-.682.615-1.074 1.494-1.074 2.412s.392 1.797 1.074 2.412l1.824 1.642c1.231 1.108 2.551 2.092 3.941 2.946h-3.839c-1.654 0-3 1.346-3 3v2c0 1.428 1.005 2.621 2.343 2.922l1.163 2.325c-.812-.159-1.648-.247-2.506-.247-7.168 0-13 5.832-13 13 0 2.095.51 4.069 1.394 5.824l-7.965 7.411c-.908.845-1.429 2.041-1.429 3.282 0 2.472 2.012 4.483 4.483 4.483 1.24 0 2.437-.521 3.282-1.429l7.411-7.965c1.755.884 3.729 1.394 5.824 1.394 5.148 0 9.594-3.016 11.698-7.367l1.302 2.603v9.764c0 1.654 1.346 3 3 3h8c1.654 0 3-1.346 3-3v-9.764l11.657-23.313c1.338-.302 2.343-1.495 2.343-2.923v-2c0-1.654-1.346-3-3-3zm.588-7.926c.262.236.412.573.412.926s-.15.69-.412.926l-1.824 1.642c-2.613 2.351-5.666 4.079-8.943 5.157 1.963-1.989 3.179-4.717 3.179-7.725s-1.216-5.736-3.18-7.724c3.277 1.077 6.33 2.805 8.943 5.157zm-27.588.926c0-4.962 4.037-9 9-9s9 4.038 9 9-4.037 9-9 9-9-4.038-9-9zm-9.588.926c-.262-.236-.412-.573-.412-.926s.15-.69.412-.926l1.824-1.642c2.613-2.351 5.666-4.079 8.943-5.157-1.963 1.989-3.179 4.717-3.179 7.725s1.216 5.736 3.18 7.724c-3.277-1.077-6.33-2.805-8.943-5.157zm-16.11 47.282c-.469.503-1.132.792-1.819.792-1.369 0-2.483-1.114-2.483-2.483 0-.687.288-1.35.792-1.818l7.661-7.128c.825 1.146 1.83 2.151 2.977 2.976zm14.698-7.208c-6.065 0-11-4.935-11-11s4.935-11 11-11 11 4.935 11 11-4.935 11-11 11zm24 8h-8c-.552 0-1-.449-1-1v-9h10v9c0 .551-.448 1-1 1zm1.382-12h-10.764l-1.988-3.975c.233-.973.37-1.982.37-3.025 0-5.337-3.236-9.929-7.846-11.929l-1.536-3.071h32.764zm13.618-25c0 .551-.448 1-1 1h-36c-.552 0-1-.449-1-1v-2c0-.551.448-1 1-1h7.8c3.21 1.307 6.666 2 10.2 2s6.989-.693 10.2-2h7.8c.552 0 1 .449 1 1z"/>
    <path d="m22 33c-4.963 0-9 4.038-9 9s4.037 9 9 9 9-4.038 9-9-4.037-9-9-9zm0 16c-3.859 0-7-3.14-7-7s3.141-7 7-7 7 3.14 7 7-3.141 7-7 7z"/>
    <path d="m19 42h-2c0 2.757 2.243 5 5 5v-2c-1.654 0-3-1.346-3-3z"/>
    <path d="m33 31h2v2h-2z"/>
    <path d="m37 31h2v2h-2z"/>
    <path d="m45 31h2v2h-2z"/>
    <path d="m49 31h2v2h-2z"/>
    <path d="m41 31h2v2h-2z"/>
</svg>
