<svg xmlns="http://www.w3.org/2000/svg" width="32.166" height="25.13" viewBox="0 0 32.166 25.13">
    <defs>
        <style>
            .a{fill:#fff}
        </style>
    </defs>
    <g transform="translate(0 0)">
        <path class="a" d="M146.659,277.256a.628.628,0,0,0,0-1.255h-.031a.628.628,0,0,0,0,1.257Z" transform="translate(-136.828 -262.179)"/>
        <path class="a" d="M165.008,177.757h0a6.838,6.838,0,0,0-4.094-1.741,6.925,6.925,0,0,0-6.868,4.185.628.628,0,1,0,1.158.488,5.668,5.668,0,0,1,5.613-3.421,5.6,5.6,0,0,1,4.842,7.672,5.489,5.489,0,0,1-5.371,3.62h-.057a5.662,5.662,0,0,1-5.028-3.435.628.628,0,1,0-1.156.493,6.936,6.936,0,0,0,6.414,4.2,6.921,6.921,0,0,0,4.546-12.062Z" transform="translate(-144.323 -168.459)"/>
        <path class="a" d="M228.285,221.572a1.137,1.137,0,0,1-.816-.475.628.628,0,0,0-.962.808,2.6,2.6,0,0,0,1.149.818v.733a.628.628,0,0,0,1.257,0v-.736a1.885,1.885,0,0,0-.628-3.661.628.628,0,1,1,0-1.256,1.009,1.009,0,0,1,.679.328.628.628,0,1,0,.874-.9,2.427,2.427,0,0,0-.925-.578v-.732a.628.628,0,0,0-1.257,0v.736a1.885,1.885,0,0,0,.628,3.661.628.628,0,0,1,0,1.256Z" transform="translate(-212.139 -205.283)"/>
        <path class="a" d="M1.088,64.9c1.671-1.792,7.691-7.641,15-7.641s13.324,5.848,15,7.641A.628.628,0,1,0,32,64.04C27.926,59.673,22.086,56,16.083,56S4.243,59.671.169,64.04a.628.628,0,1,0,.919.857Z" transform="translate(0 -56)"/>
        <path class="a" d="M27.351,121.185C24.22,118.4,20.273,116,16.083,116s-8.139,2.4-11.268,5.185a33.881,33.881,0,0,0-4.7,5.132.628.628,0,0,0,0,.727,33.883,33.883,0,0,0,4.7,5.132c3.131,2.787,7.078,5.185,11.268,5.185s8.139-2.4,11.268-5.185a33.882,33.882,0,0,0,4.7-5.132.628.628,0,0,0,0-.727A33.877,33.877,0,0,0,27.351,121.185ZM26.5,131.254c-2.489,2.212-6.317,4.85-10.413,4.85s-7.923-2.637-10.413-4.85a34.213,34.213,0,0,1-4.258-4.574,34.208,34.208,0,0,1,4.258-4.574c2.489-2.212,6.317-4.85,10.413-4.85s7.923,2.637,10.413,4.85a34.2,34.2,0,0,1,4.258,4.574A34.208,34.208,0,0,1,26.5,131.254Z" transform="translate(0 -112.231)"/>
    </g>
</svg>
