<svg xmlns="http://www.w3.org/2000/svg" width="19.1" height="30.81" viewBox="0 0 19.1 30.81">
    <g transform="translate(-20.006 -3.028)" style="fill:none">
        <path d="M31.278,5.236a7.533,7.533,0,0,0-2.8-.135c-4.69.862-7.764,5.634-5.931,9.947,2.076,4.853,4.69,9.489,7.009,14.234,2.319-4.745,4.934-9.354,7.009-14.207,1.752-4.125-.944-8.627-5.284-9.84Zm-1.725,11.7a4.138,4.138,0,1,1,4.1-4.125A4.125,4.125,0,0,1,29.553,16.936Z" style="stroke:none"/>
        <path d="M 29.48179626464844 5.028003692626953 C 29.11343765258789 5.027996063232422 28.76133346557617 5.05207633972168 28.4746036529541 5.10154914855957 C 23.78434371948242 5.964010238647461 20.71025466918945 10.73535919189453 22.54370498657227 15.04874992370605 C 24.61930465698242 19.90129852294922 27.23397445678711 24.53791809082031 29.55295372009277 29.28318977355957 C 31.87183380126953 24.53792953491211 34.48666381835938 19.92879867553711 36.56220245361328 15.07625007629395 C 38.31451416015625 10.9512996673584 35.61865234375 6.449480056762695 31.27777481079102 5.236339569091797 L 31.27776527404785 5.236339569091797 C 30.80048561096191 5.099687576293945 30.11713027954102 5.028017044067383 29.48179626464844 5.028003692626953 M 29.5528450012207 16.93585014343262 C 27.28875350952148 16.93585014343262 25.45539474487305 15.07613945007324 25.45539474487305 12.78475952148438 C 25.45539474487305 10.49337959289551 27.28880500793457 8.659818649291992 29.5528450012207 8.659818649291992 C 31.81688499450684 8.659818649291992 33.65029525756836 10.51952934265137 33.65029525756836 12.81090927124023 C 33.65029525756836 15.1022891998291 31.81688499450684 16.93585014343262 29.5528450012207 16.93585014343262 M 29.4817943572998 3.027999877929688 L 29.48185348510742 3.027999877929688 C 30.33700752258301 3.02802848815918 31.1900806427002 3.131595611572266 31.82341575622559 3.312204360961914 C 34.65069580078125 4.104503631591797 36.97835540771484 6.027669906616211 38.21050262451172 8.589599609375 C 39.33370208740234 10.92502021789551 39.40206527709961 13.50639915466309 38.40299224853516 15.85822868347168 C 37.03422546386719 19.05838966369629 35.42841339111328 22.1699390411377 33.87546539306641 25.17905044555664 C 33.03397369384766 26.80959892272949 32.16382598876953 28.49567031860352 31.34987449645996 30.16130065917969 L 29.55299377441406 33.83837127685547 L 27.75604438781738 30.16132926940918 C 26.95127487182617 28.51453018188477 26.09137344360352 26.8438606262207 25.25979614257812 25.22819900512695 C 23.69649505615234 22.19088935852051 22.07997512817383 19.0501708984375 20.70485305786133 15.83528900146484 C 20.16379547119141 14.5623893737793 19.93557357788086 13.23052978515625 20.02476501464844 11.87254905700684 C 20.10866546630859 10.59510040283203 20.46819305419922 9.358058929443359 21.0933837890625 8.195810317993164 C 22.50276565551758 5.57567024230957 25.12688446044922 3.683609008789062 28.1129035949707 3.134529113769531 L 28.12372398376465 3.132539749145508 L 28.13456535339355 3.130668640136719 C 28.5294246673584 3.062540054321289 28.98269462585449 3.027999877929688 29.4817943572998 3.027999877929688 Z M 29.5528450012207 14.93585014343262 C 30.70938491821289 14.93585014343262 31.65029525756836 13.98260879516602 31.65029525756836 12.81090927124023 C 31.65029525756836 11.62479019165039 30.70938491821289 10.65981864929199 29.5528450012207 10.65981864929199 C 28.39630508422852 10.65981864929199 27.45539474487305 11.61305999755859 27.45539474487305 12.78475952148438 C 27.45539474487305 13.97087860107422 28.39630508422852 14.93585014343262 29.5528450012207 14.93585014343262 Z" style="fill:#fff;stroke:none"/>
    </g>
</svg>
