<svg xmlns="http://www.w3.org/2000/svg" width="40" height="40" viewBox="0 0 40 40">
    <defs>
        <style>
            .b{fill:#ff8d04}
        </style>
    </defs>
    <circle cx="20" cy="20" r="20" style="fill:#fff;opacity:0"/>
    <g transform="translate(0 2.385)">
        <path class="b" d="M9.375,49.365h39.25V31.25H9.375ZM24.913,36.22,27.932,33.2a1.51,1.51,0,0,1,2.134,0l3.019,3.019a1.51,1.51,0,0,1-2.134,2.136l-.442-.443V42.7l.442-.442A1.509,1.509,0,0,1,33.085,44.4l-3.019,3.019a1.51,1.51,0,0,1-2.134,0L24.913,44.4a1.509,1.509,0,1,1,2.134-2.134l.443.442V37.913l-.442.442a1.51,1.51,0,0,1-2.136-2.134Z" transform="translate(-9.375 -22.192)"/>
        <path class="b" d="M48.625,18.538V14.01a1.509,1.509,0,0,0-1.51-1.51H10.885a1.509,1.509,0,0,0-1.51,1.51v4.529Z" transform="translate(-9.375 -12.5)"/>
        <path class="b" d="M9.375,75v4.529a1.509,1.509,0,0,0,1.51,1.51H47.115a1.509,1.509,0,0,0,1.51-1.51V75Z" transform="translate(-9.375 -44.808)"/>
    </g>
</svg>
