<svg xmlns="http://www.w3.org/2000/svg" width="34.371" height="32.697" viewBox="0 0 34.371 32.697">
  <g id="Path_252" data-name="Path 252" transform="translate(-532.27 120.631)" fill="none" stroke-linejoin="round">
    <path d="M549.647-89.934c-.078,0-.155,0-.232-.006h0c-.049,0-.1.006-.151.006a6.62,6.62,0,0,1-4.071-1.617,5.925,5.925,0,0,0-2.356-1.21,7.566,7.566,0,0,0-1.237-.105,8.4,8.4,0,0,0-1.714.195,3.738,3.738,0,0,1-.639.093.4.4,0,0,1-.444-.319c-.071-.244-.123-.48-.172-.709-.128-.588-.218-.95-.463-.988-2.854-.444-3.671-1.049-3.853-1.478a.559.559,0,0,1-.044-.184.323.323,0,0,1,.269-.337c4.387-.727,6.354-5.241,6.436-5.432l.007-.016a1.692,1.692,0,0,0,.157-1.413c-.3-.714-1.283-1.028-1.933-1.236-.159-.051-.31-.1-.429-.146-1.3-.516-1.4-1.046-1.354-1.316a1.225,1.225,0,0,1,1.192-.781.83.83,0,0,1,.355.071,3.759,3.759,0,0,0,1.563.415,1.283,1.283,0,0,0,.934-.3c-.016-.3-.036-.611-.056-.933-.131-2.088-.293-4.682.364-6.163a7.928,7.928,0,0,1,7.368-4.784l.54-.005h.073a7.942,7.942,0,0,1,7.381,4.787c.656,1.482.494,4.078.363,6.164l-.005.091c-.018.291-.036.573-.05.843a1.245,1.245,0,0,0,.851.3h0a3.89,3.89,0,0,0,1.473-.412,1.105,1.105,0,0,1,.458-.091,1.39,1.39,0,0,1,.526.1l.009,0a.972.972,0,0,1,.735.793c.006.306-.226.766-1.364,1.218-.118.047-.269.095-.428.146-.651.208-1.632.521-1.933,1.235a1.691,1.691,0,0,0,.157,1.413l.007.016c.082.191,2.047,4.7,6.436,5.432a.324.324,0,0,1,.269.337.546.546,0,0,1-.045.185c-.181.426-1,1.03-3.852,1.475-.233.036-.324.342-.463.983-.051.233-.1.463-.172.7a.382.382,0,0,1-.408.307h-.035a3.552,3.552,0,0,1-.639-.081,8.47,8.47,0,0,0-1.714-.183,7.574,7.574,0,0,0-1.238.105,5.916,5.916,0,0,0-2.353,1.208A6.623,6.623,0,0,1,549.647-89.934Z" />
    <path d="M 549.647216796875 -89.93381500244141 C 551.4470825195312 -89.93381500244141 552.6017456054688 -90.75563049316406 553.7206420898438 -91.55220031738281 C 554.490234375 -92.09986877441406 555.2174072265625 -92.61666107177734 556.0738525390625 -92.76044464111328 C 556.4924926757812 -92.83008575439453 556.9091186523438 -92.86555480957031 557.3117065429688 -92.86555480957031 C 558.0010986328125 -92.86555480957031 558.54296875 -92.77787780761719 559.0261840820312 -92.6827392578125 C 559.2987060546875 -92.62889099121094 559.513916015625 -92.60165405273438 559.6650390625 -92.60165405273438 L 559.7005004882812 -92.60165405273438 C 559.91845703125 -92.60165405273438 560.0480346679688 -92.69956970214844 560.1087646484375 -92.90883636474609 C 560.1793212890625 -93.15001678466797 560.2305908203125 -93.37931823730469 560.2811889648438 -93.61277770996094 C 560.42041015625 -94.25419616699219 560.5108032226562 -94.56016540527344 560.7439575195312 -94.59622955322266 C 563.5986328125 -95.04027557373047 564.4146728515625 -95.64457702636719 564.5957641601562 -96.07073974609375 C 564.6219482421875 -96.13135528564453 564.636962890625 -96.19371032714844 564.6405639648438 -96.25555419921875 C 564.6495361328125 -96.42060089111328 564.53369140625 -96.56610870361328 564.3717041015625 -96.59299468994141 C 559.9830932617188 -97.321044921875 558.0176391601562 -101.8332672119141 557.93603515625 -102.0247573852539 C 557.9339599609375 -102.030387878418 557.9312133789062 -102.0355072021484 557.9288940429688 -102.0407943725586 C 557.6604614257812 -102.5888061523438 557.6077880859375 -103.0638809204102 557.772216796875 -103.4534606933594 C 558.072998046875 -104.1675491333008 559.0545654296875 -104.4811477661133 559.7052001953125 -104.6889343261719 C 559.8648071289062 -104.7399368286133 560.0155029296875 -104.7881546020508 560.133544921875 -104.8348083496094 C 561.2714233398438 -105.2873458862305 561.5034790039062 -105.7472610473633 561.4976806640625 -106.0531311035156 C 561.4915161132812 -106.3780059814453 561.202880859375 -106.6888275146484 560.7623291015625 -106.8460540771484 L 560.7529296875 -106.8498687744141 C 560.5977172851562 -106.9150848388672 560.4107666015625 -106.9509887695312 560.2264404296875 -106.9509887695312 C 560.1058349609375 -106.9509887695312 559.928466796875 -106.9351043701172 559.7688598632812 -106.8601837158203 C 559.22412109375 -106.6032257080078 558.7278442382812 -106.4646377563477 558.2958984375 -106.4479904174805 L 558.2952880859375 -106.4479904174805 C 557.7269287109375 -106.4699249267578 557.4752807617188 -106.7138900756836 557.4439086914062 -106.7460479736328 C 557.4585571289062 -107.0163803100586 557.4761962890625 -107.2987594604492 557.4942016601562 -107.5892868041992 L 557.4996948242188 -107.6800003051758 C 557.6305541992188 -109.7661743164062 557.7929077148438 -112.3627090454102 557.1365966796875 -113.8443145751953 C 555.1688232421875 -118.2855072021484 550.9896240234375 -118.6310043334961 549.75537109375 -118.6310043334961 L 549.6824951171875 -118.6306686401367 C 549.6824951171875 -118.6306686401367 549.1741943359375 -118.6252899169922 549.1426391601562 -118.6252899169922 C 547.9114379882812 -118.6252899169922 543.7410278320312 -118.2803802490234 541.7745971679688 -113.8416442871094 C 541.118408203125 -112.3608093261719 541.2803344726562 -109.7665100097656 541.4110107421875 -107.6787109375 C 541.4312133789062 -107.3565979003906 541.4510498046875 -107.0443954467773 541.4669189453125 -106.7455444335938 C 541.4334716796875 -106.7107543945312 541.1597900390625 -106.4455490112305 540.532958984375 -106.4455490112305 C 540.079345703125 -106.4455490112305 539.5535278320312 -106.5850143432617 538.9700927734375 -106.8601837158203 C 538.869873046875 -106.9072647094727 538.7506713867188 -106.9314804077148 538.6151123046875 -106.9314804077148 C 538.1212158203125 -106.9314804077148 537.5104370117188 -106.6107788085938 537.4235229492188 -106.150764465332 C 537.37255859375 -105.8807144165039 537.4804077148438 -105.3509063720703 538.77734375 -104.8348083496094 C 538.896240234375 -104.7875442504883 539.0469970703125 -104.7395935058594 539.2060546875 -104.6889343261719 C 539.85595703125 -104.4814987182617 540.8377685546875 -104.1675491333008 541.1387939453125 -103.453369140625 C 541.3031005859375 -103.0636291503906 541.25048828125 -102.5881042480469 540.98193359375 -102.0404510498047 C 540.9796142578125 -102.03515625 540.977294921875 -102.0300369262695 540.9749755859375 -102.0247573852539 C 540.8933715820312 -101.8330841064453 538.9262084960938 -97.319580078125 534.5393676757812 -96.59238433837891 C 534.3775024414062 -96.56576538085938 534.261474609375 -96.42015075683594 534.2706298828125 -96.25519561767578 C 534.274169921875 -96.19432067871094 534.2888793945312 -96.13282775878906 534.3145751953125 -96.07142639160156 C 534.4967041015625 -95.64215087890625 535.3134765625 -95.03706359863281 538.167236328125 -94.59328460693359 C 538.4119873046875 -94.55548095703125 538.5025634765625 -94.19384002685547 538.630126953125 -93.60575866699219 C 538.6796264648438 -93.37722778320312 538.73095703125 -93.14098358154297 538.8021850585938 -92.89712524414062 C 538.884033203125 -92.61552429199219 539.0723266601562 -92.57772064208984 539.2461547851562 -92.57772064208984 C 539.4124755859375 -92.57772064208984 539.6312255859375 -92.62073516845703 539.8851928710938 -92.67068481445312 C 540.3026123046875 -92.75289916992188 540.8745727539062 -92.86555480957031 541.5994873046875 -92.86555480957031 C 542.0018920898438 -92.86555480957031 542.4183349609375 -92.83008575439453 542.8367309570312 -92.76044464111328 C 543.6940307617188 -92.61666107177734 544.421630859375 -92.09890747070312 545.1927490234375 -91.55046081542969 C 546.3093872070312 -90.75563049316406 547.4642944335938 -89.93381500244141 549.2636108398438 -89.93381500244141 C 549.3148193359375 -89.93381500244141 549.3660888671875 -89.93589782714844 549.4149780273438 -89.93980407714844 L 549.4152221679688 -89.93980407714844 C 549.4921264648438 -89.93608093261719 549.5689697265625 -89.93381500244141 549.647216796875 -89.93381500244141 M 549.647216796875 -87.93381500244141 C 549.5771484375 -87.93381500244141 549.5061645507812 -87.93502044677734 549.4326171875 -87.93746948242188 C 549.3763427734375 -87.93504333496094 549.31982421875 -87.93381500244141 549.2636108398438 -87.93381500244141 C 546.8248291015625 -87.93381500244141 545.2767944335938 -89.03569793701172 544.032958984375 -89.92107391357422 C 543.4547119140625 -90.33233642578125 542.9091796875 -90.72035980224609 542.5059204101562 -90.78799438476562 C 542.197509765625 -90.83932495117188 541.8917236328125 -90.86555480957031 541.5994873046875 -90.86555480957031 C 541.0697021484375 -90.86555480957031 540.6458129882812 -90.78206634521484 540.2717895507812 -90.70840454101562 C 539.9447631835938 -90.64408874511719 539.6072998046875 -90.57772064208984 539.2461547851562 -90.57772064208984 C 538.1034545898438 -90.57772064208984 537.1974487304688 -91.25257110595703 536.8816528320312 -92.33890533447266 C 536.83349609375 -92.50380706787109 536.7929077148438 -92.66405487060547 536.7578125 -92.81352996826172 C 534.2893676757812 -93.31800079345703 532.9862060546875 -94.08167266845703 532.4734497070312 -95.29029083251953 C 532.47216796875 -95.29325866699219 532.4708862304688 -95.29623413085938 532.4696655273438 -95.29920959472656 C 532.3565063476562 -95.56951904296875 532.2907104492188 -95.85209655761719 532.2739868164062 -96.13909912109375 C 532.27392578125 -96.14083862304688 532.2738037109375 -96.14257049560547 532.2737426757812 -96.14430999755859 C 532.207763671875 -97.33198547363281 533.042236328125 -98.37303924560547 534.2147827148438 -98.56587982177734 C 537.0932006835938 -99.04301452636719 538.6810913085938 -101.8865966796875 539.05078125 -102.6308135986328 C 538.885986328125 -102.6916961669922 538.711669921875 -102.7473297119141 538.597900390625 -102.7836380004883 C 538.4119873046875 -102.8428573608398 538.2218017578125 -102.9034271240234 538.0386352539062 -102.9762344360352 C 537.125732421875 -103.3395080566406 536.468017578125 -103.78662109375 536.0270385742188 -104.3434295654297 C 535.5167236328125 -104.9878387451172 535.314697265625 -105.7614288330078 535.458251953125 -106.5217056274414 C 535.6047973632812 -107.2975158691406 536.0897827148438 -107.9716262817383 536.8238525390625 -108.4202041625977 C 537.3633422851562 -108.7499084472656 537.99951171875 -108.9314804077148 538.6151123046875 -108.9314804077148 C 538.8659057617188 -108.9314804077148 539.1080932617188 -108.901741027832 539.3394165039062 -108.8427429199219 C 539.2345581054688 -110.9083709716797 539.2401733398438 -113.0589294433594 539.946044921875 -114.6518936157227 C 540.9789428710938 -116.9832763671875 542.6995849609375 -118.7377853393555 544.9219970703125 -119.7255935668945 C 546.6796875 -120.5068283081055 548.3157348632812 -120.6248168945312 549.1376953125 -120.6252822875977 C 549.2007446289062 -120.6256637573242 549.6611328125 -120.6305541992188 549.6613159179688 -120.6305541992188 C 549.665283203125 -120.6305999755859 549.669189453125 -120.6306304931641 549.6731567382812 -120.6306457519531 L 549.7460327148438 -120.630989074707 C 549.7491455078125 -120.6309967041016 549.7522583007812 -120.6310043334961 549.75537109375 -120.6310043334961 C 550.5769653320312 -120.6310043334961 552.2186279296875 -120.5140838623047 553.982421875 -119.7310638427734 C 556.20849609375 -118.742805480957 557.9315185546875 -116.9873580932617 558.9651489257812 -114.6544952392578 C 559.6614379882812 -113.082649230957 559.6713256835938 -110.8894424438477 559.572998046875 -108.8853607177734 C 559.78466796875 -108.9287872314453 560.0040893554688 -108.9509887695312 560.2264404296875 -108.9509887695312 C 560.6611328125 -108.9509887695312 561.0950927734375 -108.8682403564453 561.4847412109375 -108.7113647460938 C 562.6875 -108.2620544433594 563.4755249023438 -107.2387619018555 563.497314453125 -106.0911102294922 C 563.5108032226562 -105.3794097900391 563.2254028320312 -104.6796569824219 562.6936645507812 -104.1206207275391 C 562.2613525390625 -103.6660537719727 561.6656494140625 -103.2917785644531 560.8726196289062 -102.9763870239258 C 560.6873168945312 -102.9031448364258 560.49755859375 -102.8424987792969 560.31396484375 -102.7838363647461 C 560.1998901367188 -102.7474060058594 560.0253295898438 -102.6916427612305 559.8602905273438 -102.6306915283203 C 560.2299194335938 -101.886360168457 561.8171997070312 -99.04410552978516 564.6990356445312 -98.56602478027344 C 565.8687133789062 -98.37186431884766 566.7020263671875 -97.33193969726562 566.6376342773438 -96.14701843261719 C 566.637451171875 -96.14445495605469 566.6373291015625 -96.14189910888672 566.63720703125 -96.13935089111328 C 566.6201171875 -95.84642791748047 566.5523681640625 -95.55960083007812 566.4356689453125 -95.28670501708984 C 565.922607421875 -94.08155059814453 564.6193237304688 -93.31981658935547 562.1517944335938 -92.81607055664062 C 562.1162719726562 -92.66679382324219 562.076171875 -92.51087188720703 562.0283203125 -92.34725952148438 C 561.7210693359375 -91.28849029541016 560.806884765625 -90.60165405273438 559.7005004882812 -90.60165405273438 L 559.6650390625 -90.60165405273438 C 559.3756103515625 -90.60165405273438 559.0493774414062 -90.63948059082031 558.6384887695312 -90.72068023681641 C 558.1973266601562 -90.80754089355469 557.8021240234375 -90.86555480957031 557.3117065429688 -90.86555480957031 C 557.0192260742188 -90.86555480957031 556.7131958007812 -90.83931732177734 556.4020385742188 -90.78755950927734 C 556.0009155273438 -90.72021484375 555.4566040039062 -90.33282470703125 554.8802490234375 -89.92269897460938 C 553.6358032226562 -89.03672027587891 552.0866088867188 -87.93381500244141 549.647216796875 -87.93381500244141 Z" fill="#75647C"  />
  </g>
</svg>
