<svg xmlns="http://www.w3.org/2000/svg" width="29.837" height="24.245" viewBox="0 0 29.837 24.245">
  <path id="Path_301" data-name="Path 301" d="M84.383,122.695c11.259,0,17.418-9.328,17.418-17.418,0-.265,0-.529-.018-.791a12.456,12.456,0,0,0,3.054-3.169,12.219,12.219,0,0,1-3.516.963,6.143,6.143,0,0,0,2.691-3.386,12.269,12.269,0,0,1-3.887,1.486,6.127,6.127,0,0,0-10.432,5.583,17.38,17.38,0,0,1-12.616-6.4,6.126,6.126,0,0,0,1.9,8.172,6.075,6.075,0,0,1-2.778-.766v.078a6.124,6.124,0,0,0,4.911,6,6.112,6.112,0,0,1-2.764.105,6.129,6.129,0,0,0,5.719,4.251,12.283,12.283,0,0,1-7.6,2.626A12.457,12.457,0,0,1,75,119.945a17.331,17.331,0,0,0,9.383,2.745" transform="translate(-75 -98.45)" />
</svg>
