<svg xmlns="http://www.w3.org/2000/svg" width="34.151" height="23.985" viewBox="0 0 34.151 23.985">
  <g id="Youtube-2" transform="translate(-5.368 -13.434)">
    <path id="Path_1976" data-name="Path 1976" d="M19.512,37.389c-6.5-.12-8.725-.227-10.091-.509a4.435,4.435,0,0,1-2.315-1.2,4.873,4.873,0,0,1-1.1-2.115,13.832,13.832,0,0,1-.468-3.1,73.746,73.746,0,0,1,0-10.064c.209-1.859.31-4.066,1.7-5.353a4.556,4.556,0,0,1,2.275-1.151,125.64,125.64,0,0,1,12.941-.455,125.871,125.871,0,0,1,12.942.455,4.452,4.452,0,0,1,2.663,1.579c1.267,1.993,1.289,4.472,1.418,6.411.053.924.053,6.169,0,7.093-.2,3.064-.361,4.148-.816,5.272a3.887,3.887,0,0,1-.937,1.5,4.489,4.489,0,0,1-2.382,1.218c-5.628.423-10.408.515-15.832.428Zm8.619-12.312C25,23.4,22,21.852,18.937,20.246v9.609c3.225-1.753,6.625-3.359,9.207-4.791Z" fill="#fff"/>
  </g>
</svg>
