<svg xmlns="http://www.w3.org/2000/svg" width="32.134" height="32.1" viewBox="0 0 32.134 32.1"><defs><style>.a{fill:#fff;}</style></defs><g transform="translate(0 0)"><path class="a" d="M29.3,22.074a6.5,6.5,0,1,0-11.017,5.593,6.515,6.515,0,0,0,3.8,1.864L21.365,27.5a4.588,4.588,0,0,1-1.8-1.119,4.674,4.674,0,0,1,6.61-6.61,4.848,4.848,0,0,1,1.051,1.593Z" transform="translate(-11.715 -11.845)"/><path class="a" d="M14.652,25.021l-.61-1.8A9.222,9.222,0,0,1,7.2,20.478a9.4,9.4,0,1,1,16.033-6.61l1.8.643A11.213,11.213,0,1,0,5.907,21.767a11.068,11.068,0,0,0,8.746,3.255Z" transform="translate(-2.627 -2.623)"/><path class="a" d="M33.118,31.8A.88.88,0,0,0,32,32.923l6.169,17.761a1,1,0,0,0,1.83.135l2.068-4.1L49.05,53.7a1,1,0,0,0,1.39,0l3.424-3.424a1,1,0,0,0,0-1.39L46.881,41.9l4.1-2.068A.994.994,0,0,0,50.848,38Z" transform="translate(-22.01 -21.881)"/></g></svg>