<svg xmlns="http://www.w3.org/2000/svg" width="37.608" height="35.848" viewBox="0 0 37.608 35.848"><defs><style>.a{fill:#fff;}</style></defs><path class="a" d="M22.731,42.578a18.078,18.078,0,0,0,9.2-2.56h.08a.766.766,0,0,0,.8-.241l1.12-1.12,3.681,3.681a.774.774,0,0,0,1.122,0L42.177,38.9a.773.773,0,0,0,0-1.12L38.5,34.1l1.12-1.12a.767.767,0,0,0,.241-.8.777.777,0,0,0-.64-.561,16.938,16.938,0,0,0,1.44-6.961A17.923,17.923,0,1,0,22.731,42.578ZM40.5,38.417l-2.321,2.321-3.681-3.681a.729.729,0,0,0-.561-.241c-.479,0-.64.4-1.2.881,0-.08-1.12-5.841-1.12-5.841.08,0,5.841,1.12,5.841,1.12l-.64.64a.773.773,0,0,0,0,1.12c.08.081,3.441,3.522,3.681,3.681ZM29.774,30.976l.241,1.2a10.468,10.468,0,1,1,3.2-7.44,10.128,10.128,0,0,1-1.6,5.521l-.881-.159a.645.645,0,0,0-.72.241.5.5,0,0,0-.239.639ZM22.731,8.412A16.34,16.34,0,0,1,39.054,24.735a15.226,15.226,0,0,1-1.44,6.641l-4.32-.881a11.976,11.976,0,0,0,1.52-5.841A12.083,12.083,0,1,0,22.731,36.736a12.472,12.472,0,0,0,7.681-2.721l.881,4.561A16.3,16.3,0,1,1,22.731,8.412Z" transform="translate(-4.809 -6.731)"/><path class="a" d="M43.019,40.315l-.08-2.8a4.318,4.318,0,0,1,2.08.881l.961-1.36a6.421,6.421,0,0,0-3.041-1.12V35.2h-.961v.72a3.571,3.571,0,0,0-2.321.881,2.772,2.772,0,0,0-.881,2.08,2.18,2.18,0,0,0,.8,1.921,6.055,6.055,0,0,0,2.48,1.04v2.88a5.168,5.168,0,0,1-2.56-1.281l-1.04,1.281a6.4,6.4,0,0,0,3.6,1.6v1.04h.961v-1.04a3.626,3.626,0,0,0,2.4-.881,2.619,2.619,0,0,0,.881-2.08,2.437,2.437,0,0,0-.8-2,7.337,7.337,0,0,0-2.48-1.042Zm-.959-.241a2.789,2.789,0,0,1-1.12-.561,1.223,1.223,0,0,1-.32-.8.981.981,0,0,1,.4-.8,1.778,1.778,0,0,1,1.04-.4Zm2.08,4.322a1.582,1.582,0,0,1-1.12.4l0-2.641a4.153,4.153,0,0,1,1.2.561,1.025,1.025,0,0,1,.32.8,1.283,1.283,0,0,1-.4.881Z" transform="translate(-24.457 -23.352)"/></svg>