<svg xmlns="http://www.w3.org/2000/svg" width="36.267" height="36.061" viewBox="0 0 36.267 36.061"><defs><style>.a{fill:#fff;}</style></defs><path class="a" d="M69.117,65.178,62.9,58.958l4.083-1.45a.618.618,0,0,0,.267-.152,1,1,0,0,0,.23-1.069,1.546,1.546,0,0,0-.191-.343l-.039-.039a1.011,1.011,0,0,0-.534-.267l-13.356-3.7a.139.139,0,0,1-.115-.039h-.115a1.042,1.042,0,0,0-.724.306,1.062,1.062,0,0,0-.306.8.223.223,0,0,0,.039.152l4.427,13.586a1.033,1.033,0,0,0,.648.724,1,1,0,0,0,1.069-.23.53.53,0,0,0,.191-.382l.839-4.044,6.106,6.067a1.012,1.012,0,0,0,1.449,0l2.29-2.29a.978.978,0,0,0-.037-1.412Zm-2.977,2.4-6.754-6.754a.674.674,0,0,0-.5-.23.483.483,0,0,0-.23.039.7.7,0,0,0-.5.534l-.687,3.51L53.813,53.539l11.221,3.129-3.7,1.3a.66.66,0,0,0-.458.534.909.909,0,0,0,.191.687L67.82,65.94Z" transform="translate(-33.171 -33.124)"/><path class="a" d="M23.488,36.816a17.239,17.239,0,0,1-3.053.306A16.485,16.485,0,1,1,36.92,20.637a15.764,15.764,0,0,1-.191,2.251.734.734,0,0,0,1.45.228,14.17,14.17,0,0,0,.191-2.48A17.935,17.935,0,1,0,20.435,38.57a16.981,16.981,0,0,0,3.32-.343.718.718,0,1,0-.267-1.412Z" transform="translate(-2.5 -2.7)"/><path class="a" d="M40.417,30.276a.755.755,0,0,0,.8-.648c.039-.42.076-.8.076-1.184A12.745,12.745,0,1,0,28.551,41.189a13.622,13.622,0,0,0,1.756-.115.713.713,0,1,0-.191-1.413,10.826,10.826,0,0,1-1.565.115,11.3,11.3,0,1,1,11.3-11.3c0,.343-.039.687-.039,1.03a.641.641,0,0,0,.61.766Z" transform="translate(-10.728 -10.739)"/></svg>