<svg xmlns="http://www.w3.org/2000/svg" width="37.363" height="21.239" viewBox="0 0 37.363 21.239"><defs><style>.a{fill:#fff;fill-rule:evenodd;}</style></defs><g transform="translate(-6.022 -24.997)"><path class="a" d="M24.473,25c-6.125.053-12.189,3.4-18.145,9.943a.9.9,0,0,0,0,1.351c6.051,6.65,12.216,10,18.44,9.944S37.1,42.743,43.068,36.3a.9.9,0,0,0,0-1.362C37.1,28.491,30.99,25.051,24.766,25q-.147,0-.294,0Zm.015,1.7q.132,0,.264,0c5.462.046,11,2.993,16.628,8.92-5.63,5.925-11.164,8.874-16.628,8.92s-11.033-2.806-16.737-8.92C13.628,29.6,19.1,26.744,24.488,26.7Z"/><path class="a" d="M40.159,32.9a7.271,7.271,0,1,0,5.32,2.318A.85.85,0,0,0,44,35.762a.839.839,0,0,0,.239.612,5.564,5.564,0,1,1-4.077-1.779v0a.85.85,0,1,0,0-1.7Z" transform="translate(-15.457 -4.545)"/><path class="a" d="M45.257,41.75a3.5,3.5,0,1,0,3.5,3.5A3.515,3.515,0,0,0,45.257,41.75Zm0,1.7a1.805,1.805,0,1,1-1.8,1.805A1.789,1.789,0,0,1,45.257,43.449Z" transform="translate(-20.556 -9.637)"/></g></svg>