<svg xmlns="http://www.w3.org/2000/svg" width="35.032" height="35.031" viewBox="0 0 35.032 35.031"><defs><style>.a{fill:#fff;}</style></defs><path class="a" d="M4.9,17.858c-1.154-.109-2.274-.217-3.5-.289.722-5.917,3.465-10.5,8.551-13.531C15.223.9,20.707.79,26.335,3.172c-.5,1.083-1.011,2.128-1.48,3.176A14.1,14.1,0,0,0,4.9,17.858Zm25.113,9.778a13.837,13.837,0,0,1-9.886,5.413c.109,1.154.18,2.274.289,3.391,8.516-.289,17.644-8.84,15.768-20.459-1.119.18-2.274.4-3.428.613a13.866,13.866,0,0,1-2.743,11.042ZM4.866,20.312c-1.083.109-2.2.18-3.356.289.252,7.145,6.5,15.192,15.877,15.949.109-1.154.217-2.274.289-3.391C10.35,31.931,6.092,27.672,4.866,20.312ZM30.053,10.5a15.257,15.257,0,0,1,2.093,3.752c1.083-.4,2.165-.794,3.284-1.191a17.771,17.771,0,0,0-6.423-8.371c-.685.939-1.335,1.876-2.021,2.85a16.041,16.041,0,0,1,3.067,2.96ZM18.541,29.946H20.2a.479.479,0,0,0,.469-.469V27.564a5.188,5.188,0,0,0,2.743-1.335,4.237,4.237,0,0,0,1.263-3.176,4.086,4.086,0,0,0-1.226-3.211,13.345,13.345,0,0,0-3.9-2.237A4.415,4.415,0,0,1,18,16.632a1.849,1.849,0,0,1-.433-1.263,2.023,2.023,0,0,1,.4-1.263,1.425,1.425,0,0,1,1.191-.5,1.5,1.5,0,0,1,1.263.613,2.794,2.794,0,0,1,.469,1.371.547.547,0,0,0,.541.469l2.743-.037a.555.555,0,0,0,.541-.541,4.932,4.932,0,0,0-1.154-3,5.117,5.117,0,0,0-2.887-1.624V8.8a.479.479,0,0,0-.469-.469h-1.66a.479.479,0,0,0-.469.469v1.985a5.294,5.294,0,0,0-3.067,1.407,4.191,4.191,0,0,0-1.3,3.176,4.171,4.171,0,0,0,1.226,3.248,14.1,14.1,0,0,0,3.932,2.165,4.8,4.8,0,0,1,1.552.974,2.049,2.049,0,0,1,.433,1.407,1.849,1.849,0,0,1-.433,1.263,1.53,1.53,0,0,1-1.226.469,2.177,2.177,0,0,1-1.587-.613,2.564,2.564,0,0,1-.613-1.552.518.518,0,0,0-.541-.469l-2.743.037a.555.555,0,0,0-.541.541,4.659,4.659,0,0,0,1.407,3.356,5.871,5.871,0,0,0,3.5,1.515v1.768a.5.5,0,0,0,.468.469Z" transform="translate(-1.403 -1.518)"/></svg>