<svg xmlns="http://www.w3.org/2000/svg" xmlns:xlink="http://www.w3.org/1999/xlink" width="262.368" height="262.368" viewBox="0 0 262.368 262.368">
  <defs>
    <filter id="Path_54072" x="0" y="0" width="262.368" height="262.368" filterUnits="userSpaceOnUse">
      <feOffset dy="3" input="SourceAlpha"/>
      <feGaussianBlur stdDeviation="5" result="blur"/>
      <feFlood flood-opacity="0.251"/>
      <feComposite operator="in" in2="blur"/>
      <feComposite in="SourceGraphic"/>
    </filter>
  </defs>
  <g transform="matrix(1, 0, 0, 1, 0, 0)" filter="url(#Path_54072)">
    <g id="Path_54072-2" stroke="#000" data-name="Path 54072" transform="translate(-271.83 592.95) rotate(-45)" fill="#fff">
      <path d="M 614.6114501953125 33.80612945556641 C 614.2357177734375 33.80612945556641 613.8482666015625 33.7972297668457 613.4314575195312 33.77899932861328 C 613.1591186523438 33.79701614379883 612.8825073242188 33.80612945556641 612.6070556640625 33.80612945556641 C 608.0223999023438 33.80612945556641 603.760498046875 32.85734558105469 599.5777587890625 30.90558433532715 C 595.9564208984375 29.21578025817871 592.8714599609375 27.01980209350586 589.8881225585938 24.89612770080566 L 589.879150390625 24.8897590637207 C 586.096435546875 22.19964981079102 582.5234375 19.65871429443359 578.6148681640625 19.00310516357422 C 576.56396484375 18.66169357299805 574.527099609375 18.48832321166992 572.5637817382812 18.48832321166992 C 569.0219116210938 18.48832321166992 566.173095703125 19.04928016662598 564.0929565429688 19.45886611938477 L 564.0808715820312 19.46123695373535 C 562.6312866210938 19.74621391296387 561.3793334960938 19.99232292175293 560.267822265625 19.99232292175293 C 559.6248779296875 19.99232292175293 558.6589965820312 19.92947578430176 557.697509765625 19.38608360290527 C 556.9782104492188 18.97953987121582 556.0213623046875 18.15232276916504 555.5478515625 16.52008438110352 C 555.1510009765625 15.16200828552246 554.8741455078125 13.88553237915039 554.6063842773438 12.65104103088379 C 554.4165649414062 11.77570533752441 554.0486450195312 10.07920455932617 553.73681640625 9.351378440856934 C 547.0602416992188 8.287125587463379 541.8739624023438 6.943215847015381 538.31298828125 5.354518890380859 C 535.0489501953125 3.898301601409912 533.0493774414062 2.217019081115723 532.2000122070312 0.2146277725696564 L 532.1974487304688 0.2085408270359039 L 532.1948852539062 0.2024538666009903 C 531.9513549804688 -0.3802417814731598 531.8106689453125 -0.9802635312080383 531.7767944335938 -1.58095920085907 C 531.6558227539062 -3.724763631820679 533.1582641601562 -5.603285312652588 535.2716674804688 -5.950502872467041 C 540.158935546875 -6.760698318481445 544.8345947265625 -8.617437362670898 549.1651611328125 -11.46856784820557 C 552.68798828125 -13.7878942489624 556.001708984375 -16.77191543579102 559.0143432617188 -20.33774185180664 C 564.3189697265625 -26.61645889282227 566.8941040039062 -32.59430694580078 567.0010986328125 -32.84571838378906 L 567.0082397460938 -32.86248016357422 L 567.015625 -32.87915420532227 C 567.0242919921875 -32.89867782592773 567.0325317382812 -32.91756820678711 567.0409545898438 -32.93708801269531 L 567.0653686523438 -32.99380874633789 L 567.092529296875 -33.04924011230469 C 568.1626586914062 -35.23161315917969 568.4185791015625 -37.01834869384766 567.8532104492188 -38.35982894897461 C 567.3975830078125 -39.44093704223633 566.3092041015625 -40.44489288330078 564.6181030273438 -41.34395980834961 C 562.9105834960938 -42.25180816650391 560.9081420898438 -42.89109039306641 559.2991333007812 -43.40474319458008 L 559.2943115234375 -43.40628433227539 C 558.42138671875 -43.68413162231445 557.5968627929688 -43.94659042358398 556.8956909179688 -44.22524261474609 C 553.4570922851562 -45.59354782104492 551.0975952148438 -47.12789535522461 549.6812744140625 -48.9163703918457 C 548.12548828125 -50.8809814453125 548.0653076171875 -52.70439529418945 548.288818359375 -53.88808822631836 C 549.002685546875 -57.66543579101562 553.3515014648438 -60.00326538085938 556.9713134765625 -60.00326538085938 C 558.045166015625 -60.00326538085938 559.0265502929688 -59.79824066162109 559.8882446289062 -59.39391708374023 L 559.8905639648438 -59.39282989501953 L 559.8928833007812 -59.39174270629883 C 562.6038208007812 -58.11285018920898 564.9921264648438 -57.46439361572266 566.991455078125 -57.46439361572266 C 568.0482788085938 -57.46439361572266 568.79736328125 -57.64681625366211 569.2940063476562 -57.83975982666016 C 569.2333374023438 -58.87681579589844 569.1663818359375 -59.94270706176758 569.0968017578125 -61.05047988891602 L 569.084228515625 -61.25063323974609 C 568.7418212890625 -66.72100067138672 568.353759765625 -72.92072296142578 568.4880981445312 -78.75408935546875 C 568.6475830078125 -85.682373046875 569.5323486328125 -90.87223815917969 571.1929321289062 -94.62020111083984 C 573.7022094726562 -100.2839584350586 577.0677490234375 -105.1569137573242 581.1961669921875 -109.1036529541016 C 584.6566772460938 -112.4118957519531 588.6793212890625 -115.0973739624023 593.1522827148438 -117.0854797363281 C 601.0128173828125 -120.5792846679688 608.3195190429688 -121.100959777832 611.975341796875 -121.100959777832 C 612.10888671875 -121.1011962890625 613.7597045898438 -121.1183090209961 614.7686157226562 -121.1290435791016 L 614.7759399414062 -121.1291122436523 L 614.7833251953125 -121.1291580200195 L 615.1646728515625 -121.1309585571289 L 615.1705932617188 -121.1309814453125 L 615.176513671875 -121.1309814453125 C 618.8399047851562 -121.1309814453125 626.1614990234375 -120.6089401245117 634.0367431640625 -117.1127395629883 C 638.5177612304688 -115.1234130859375 642.5469970703125 -112.436393737793 646.0126342773438 -109.1263046264648 C 650.1473388671875 -105.1771545410156 653.5169677734375 -100.3012619018555 656.0278930664062 -94.63408660888672 C 657.68896484375 -90.88423919677734 658.5735473632812 -85.69167327880859 658.7322998046875 -78.75946044921875 C 658.8660278320312 -72.92050933837891 658.47705078125 -66.72505950927734 658.1338500976562 -61.25856781005859 L 658.1060180664062 -60.7913932800293 L 658.1057739257812 -60.78750228881836 L 658.1055297851562 -60.78361129760742 C 658.045654296875 -59.82935333251953 657.98388671875 -58.83321380615234 657.9259033203125 -57.84500122070312 C 658.3535766601562 -57.67889022827148 658.9661865234375 -57.52090835571289 659.798095703125 -57.47931671142578 C 661.70166015625 -57.57078170776367 663.931396484375 -58.21390914916992 666.4276123046875 -59.39167785644531 L 666.43017578125 -59.39289474487305 L 666.4328002929688 -59.39411163330078 C 667.685546875 -59.98169708251953 669.0020751953125 -60.10504531860352 669.8858642578125 -60.10504531860352 C 671.165771484375 -60.10504531860352 672.477294921875 -59.85156631469727 673.5821533203125 -59.39098358154297 C 675.065185546875 -58.85276794433594 676.346435546875 -58.03174209594727 677.2904663085938 -57.01415634155273 C 678.3992309570312 -55.8189811706543 678.9995727539062 -54.41719818115234 679.0265502929688 -52.9603271484375 C 679.0484619140625 -51.82074356079102 678.7175903320312 -50.08463287353516 677.0164184570312 -48.29580688476562 C 675.56640625 -46.77109146118164 673.3771362304688 -45.43965530395508 670.3236083984375 -44.22543716430664 C 669.6143188476562 -43.94482803344727 668.7543334960938 -43.67028427124023 667.9227294921875 -43.40476226806641 C 666.3115844726562 -42.89028549194336 664.3063354492188 -42.24991607666016 662.6004638671875 -41.34321975708008 C 660.9100341796875 -40.44472122192383 659.8220825195312 -39.44126510620117 659.366943359375 -38.36069869995117 C 658.8007202148438 -37.02011108398438 659.0565795898438 -35.23419952392578 660.1264038085938 -33.05032730102539 L 660.1527709960938 -32.9964599609375 L 660.1669921875 -32.9635124206543 C 660.1860961914062 -32.92215728759766 660.2067260742188 -32.87626647949219 660.2283935546875 -32.82320022583008 C 660.4404907226562 -32.33226013183594 663.0314331054688 -26.46220588684082 668.20263671875 -20.34130668640137 C 671.214599609375 -16.77619743347168 674.5281372070312 -13.79256820678711 678.0512084960938 -11.47332859039307 C 682.38232421875 -8.622111320495605 687.059326171875 -6.764828681945801 691.9523315429688 -5.953046321868896 C 694.0601196289062 -5.603328704833984 695.5616455078125 -3.726546049118042 695.4448852539062 -1.587502598762512 L 695.4446411132812 -1.582480907440186 L 695.4443359375 -1.577459216117859 C 695.4082641601562 -0.9619910717010498 695.2623291015625 -0.3538598418235779 695.0106811523438 0.2300063222646713 C 694.1607666015625 2.21985912322998 692.1641845703125 3.892284631729126 688.9072265625 5.34273624420166 C 685.344482421875 6.929370880126953 680.1559448242188 8.272382736206055 673.4796142578125 9.336441993713379 C 673.1608276367188 10.09829521179199 672.7735595703125 11.88286018371582 672.61474609375 12.6145191192627 C 672.3406982421875 13.87812805175781 672.062255859375 15.12364959716797 671.6707153320312 16.46354103088379 C 671.04296875 18.62510681152344 669.3902587890625 19.8671703338623 667.1373291015625 19.8671703338623 L 666.95263671875 19.8671703338623 C 665.984619140625 19.8671703338623 664.734130859375 19.71308517456055 663.1298217773438 19.3961067199707 C 660.7357788085938 18.92477989196777 658.0509643554688 18.48832321166992 654.6568603515625 18.48832321166992 C 652.6930541992188 18.48832321166992 650.6552124023438 18.66169357299805 648.599853515625 19.00364875793457 C 644.6885986328125 19.6603889465332 641.1211547851562 22.19925880432129 637.34423828125 24.88723564147949 C 634.35595703125 27.0144100189209 631.2656860351562 29.21414947509766 627.64453125 30.90434455871582 C 623.461181640625 32.85695266723633 619.197998046875 33.80612945556641 614.6114501953125 33.80612945556641 Z" stroke="#000" />
      <path d="M 614.6114501953125 31.30611228942871 C 624.0157470703125 31.30611228942871 630.0479736328125 27.01228713989258 635.8946533203125 22.85038757324219 C 639.9153442382812 19.98896217346191 643.7149658203125 17.28886222839355 648.1895751953125 16.53753662109375 C 650.3765869140625 16.17368698120117 652.553466796875 15.98833751678467 654.6568603515625 15.98833751678467 C 658.2583618164062 15.98833751678467 661.089599609375 16.44646263122559 663.6143798828125 16.94351196289062 C 665.0386962890625 17.22493743896484 666.1627807617188 17.3671875 666.95263671875 17.3671875 L 667.1373291015625 17.3671875 C 668.2771606445312 17.3671875 668.9535522460938 16.85561180114746 669.2710571289062 15.76226234436035 C 669.6393432617188 14.50208759307861 669.9071044921875 13.30413722991943 670.171630859375 12.08431243896484 C 670.89892578125 8.733087539672852 671.3716430664062 7.13441276550293 672.588623046875 6.94591236114502 C 687.5048217773438 4.625987529754639 691.76806640625 1.468587517738342 692.7141723632812 -0.7580124139785767 C 692.8509521484375 -1.074762463569641 692.9296875 -1.400562405586243 692.9486083984375 -1.72371244430542 C 692.9956665039062 -2.5859375 692.3899536132812 -3.346262454986572 691.5431518554688 -3.486762523651123 C 668.6150512695312 -7.290662288665771 658.3455810546875 -30.86598777770996 657.91845703125 -31.86648750305176 C 657.9073486328125 -31.89603805541992 657.8932495117188 -31.92283821105957 657.8812866210938 -31.95051193237305 C 656.478759765625 -34.81361389160156 656.203369140625 -37.29586410522461 657.06298828125 -39.3311882019043 C 658.6345825195312 -43.06223678588867 663.7626342773438 -44.70068740844727 667.162353515625 -45.78633880615234 C 667.9969482421875 -46.05278778076172 668.7838134765625 -46.30481338500977 669.3998413085938 -46.54851150512695 C 675.3461303710938 -48.91301345825195 676.5577392578125 -51.31583786010742 676.5269775390625 -52.91403579711914 C 676.4955444335938 -54.61136245727539 674.9876708984375 -56.23531341552734 672.6849365234375 -57.05691146850586 L 672.6359252929688 -57.07686233520508 C 671.8255615234375 -57.4177131652832 670.8486938476562 -57.60506057739258 669.8858642578125 -57.60506057739258 C 669.2556762695312 -57.60506057739258 668.3289794921875 -57.52216339111328 667.494384765625 -57.13068771362305 C 664.6488037109375 -55.78811264038086 662.0557250976562 -55.06403732299805 659.7988891601562 -54.9770393371582 L 659.7954711914062 -54.9770393371582 C 656.8268432617188 -55.09173583984375 655.5114135742188 -56.36638641357422 655.3474731445312 -56.53438568115234 C 655.4246215820312 -57.94676208496094 655.5151977539062 -59.42213821411133 655.6104125976562 -60.94011306762695 L 655.638671875 -61.41396331787109 C 656.3230590820312 -72.31383514404297 657.1712646484375 -85.88031005859375 653.7421875 -93.62138366699219 C 643.4611206054688 -116.8256607055664 621.6256713867188 -118.630989074707 615.176513671875 -118.630989074707 L 614.795166015625 -118.6291656494141 C 614.795166015625 -118.6291656494141 612.1402587890625 -118.600959777832 611.975341796875 -118.600959777832 C 605.5426025390625 -118.600959777832 583.7532348632812 -116.7988357543945 573.4786376953125 -93.60746002197266 C 570.050537109375 -85.87033843994141 570.8965454101562 -72.31555938720703 571.579345703125 -61.40728759765625 C 571.6849975585938 -59.72438812255859 571.7880249023438 -58.09318923950195 571.8712768554688 -56.53171157836914 C 571.6964111328125 -56.34988784790039 570.2665405273438 -54.96438598632812 566.991455078125 -54.96438598632812 C 564.62158203125 -54.96438598632812 561.8739013671875 -55.69296264648438 558.8262329101562 -57.13068771362305 C 558.3019409179688 -57.37671279907227 557.67919921875 -57.50326156616211 556.9713134765625 -57.50326156616211 C 554.3902587890625 -57.50326156616211 551.1996459960938 -55.82768630981445 550.7454223632812 -53.42426300048828 C 550.47900390625 -52.01321411132812 551.0426635742188 -49.24501419067383 557.8189697265625 -46.54851150512695 C 558.4403686523438 -46.30153656005859 559.227783203125 -46.05106353759766 560.0594482421875 -45.78633880615234 C 563.4546508789062 -44.70241165161133 568.58447265625 -43.06223678588867 570.1569213867188 -39.33078765869141 C 571.01513671875 -37.29453659057617 570.7402954101562 -34.81001281738281 569.3372192382812 -31.94858741760254 C 569.3253173828125 -31.92091178894043 569.3135986328125 -31.89416313171387 569.3013305664062 -31.86648750305176 C 568.8750610351562 -30.86513710021973 558.5962524414062 -7.283012390136719 535.6769409179688 -3.483587503433228 C 534.8306274414062 -3.344537496566772 534.2241821289062 -2.583737373352051 534.2728271484375 -1.721762418746948 C 534.290771484375 -1.403812408447266 534.367431640625 -1.082487463951111 534.5015258789062 -0.7616124153137207 C 535.452880859375 1.481212615966797 539.7206420898438 4.642687797546387 554.6304931640625 6.961287498474121 C 555.9097290039062 7.158812522888184 556.3831787109375 9.048312187194824 557.049560546875 12.1210880279541 C 557.3085327148438 13.31498718261719 557.5762939453125 14.54921245574951 557.9488525390625 15.82353782653809 C 558.3756713867188 17.29473686218262 559.3590087890625 17.49233818054199 560.267822265625 17.49233818054199 C 561.1377563476562 17.49233818054199 562.2794799804688 17.26751327514648 563.6068115234375 17.00658798217773 C 565.7885131835938 16.57698822021484 568.7763061523438 15.98833751678467 572.5637817382812 15.98833751678467 C 574.6669311523438 15.98833751678467 576.8427734375 16.17368698120117 579.0284423828125 16.53753662109375 C 583.507568359375 17.28886222839355 587.308837890625 19.99416351318359 591.337890625 22.85943794250488 C 597.171875 27.01228713989258 603.2062377929688 31.30611228942871 612.6070556640625 31.30611228942871 C 612.8753051757812 31.30611228942871 613.143310546875 31.29521179199219 613.39794921875 31.27483749389648 L 613.3988037109375 31.27483749389648 C 613.8005981445312 31.29428672790527 614.2026977539062 31.30611228942871 614.6114501953125 31.30611228942871 M 614.6114501953125 36.30611419677734 C 614.2393798828125 36.30611419677734 613.8587646484375 36.29825210571289 613.4555053710938 36.28218078613281 C 613.1741943359375 36.29808044433594 612.8900146484375 36.30611419677734 612.6070556640625 36.30611419677734 C 607.6492309570312 36.30611419677734 603.04150390625 35.28063583374023 598.5206298828125 33.17108917236328 C 594.6924438476562 31.38476181030273 591.5130615234375 29.12153816223145 588.4383544921875 26.93281173706055 L 588.43017578125 26.92706298828125 C 584.7366333007812 24.30035591125488 581.5465087890625 22.03168296813965 578.206787109375 21.46956443786621 C 576.2884521484375 21.15026664733887 574.3898315429688 20.98833847045898 572.5637817382812 20.98833847045898 C 569.2655639648438 20.98833847045898 566.6651611328125 21.50038719177246 564.57568359375 21.91181182861328 L 564.5621948242188 21.91446304321289 C 563.0504760742188 22.21163749694824 561.62255859375 22.49233818054199 560.267822265625 22.49233818054199 C 558.8175659179688 22.49233818054199 557.574462890625 22.18818664550781 556.4674682617188 21.56253814697266 C 555.344482421875 20.92782974243164 553.8575439453125 19.65976905822754 553.1486206054688 17.22285461425781 C 552.7266845703125 15.77877330780029 552.4273071289062 14.39867115020752 552.1632080078125 13.18091297149658 C 552.0811157226562 12.80254650115967 551.941162109375 12.15720367431641 551.7960205078125 11.56482791900635 C 545.5790405273438 10.50062942504883 540.8214111328125 9.211145401000977 537.29443359375 7.637612342834473 C 533.4256591796875 5.911587715148926 531.0064697265625 3.802862644195557 529.8984985351562 1.190862536430359 L 529.893310546875 1.178637504577637 L 529.88818359375 1.166387557983398 C 529.5350952148438 0.3214375674724579 529.3306884765625 -0.5554624199867249 529.28076171875 -1.439937472343445 C 529.0875854492188 -4.862678527832031 531.4883422851562 -7.862110137939453 534.865478515625 -8.417299270629883 C 539.4068603515625 -9.171134948730469 543.7556762695312 -10.90028476715088 547.7904052734375 -13.55666255950928 C 551.1129760742188 -15.74413776397705 554.2467651367188 -18.56846237182617 557.1046752929688 -21.95113754272461 C 562.1693725585938 -27.94586181640625 564.5997924804688 -33.58758926391602 564.7008056640625 -33.82481384277344 L 564.7155151367188 -33.8593864440918 L 564.730712890625 -33.89373779296875 L 564.743896484375 -33.92368698120117 L 564.7930297851562 -34.0380859375 L 564.847900390625 -34.14988708496094 C 565.5438232421875 -35.56916427612305 565.8060913085938 -36.77998733520508 565.5494384765625 -37.38886260986328 C 565.4467163085938 -37.63261413574219 565.0361938476562 -38.29031372070312 563.4445190429688 -39.13656234741211 C 561.935791015625 -39.93868637084961 560.05224609375 -40.54001235961914 558.538818359375 -41.02318572998047 L 558.5349731445312 -41.02438735961914 C 557.6194458007812 -41.31581115722656 556.7546997070312 -41.59106063842773 555.9722290039062 -41.90206146240234 C 552.1150512695312 -43.43693923950195 549.4168701171875 -45.22341156005859 547.721435546875 -47.36431121826172 C 546.0507202148438 -49.47401428222656 545.3797607421875 -51.95561218261719 545.8322143554688 -54.35193634033203 C 546.7965698242188 -59.45458602905273 552.2531127929688 -62.50326156616211 556.9713134765625 -62.50326156616211 C 558.4151000976562 -62.50326156616211 559.7537841796875 -62.21856307983398 560.9503173828125 -61.65708923339844 L 560.9548950195312 -61.65493774414062 L 560.95947265625 -61.65276336669922 C 563.64404296875 -60.38634872436523 565.5023803710938 -60.02798461914062 566.6594848632812 -59.97254180908203 C 566.640380859375 -60.27793121337891 566.6210327148438 -60.58652496337891 566.6014404296875 -60.89831161499023 L 566.5891723632812 -61.09401321411133 C 566.2435913085938 -66.61481475830078 565.8519897460938 -72.87118530273438 565.9887084960938 -78.81163787841797 C 566.1559448242188 -86.07563781738281 567.110595703125 -91.57793426513672 568.9072875976562 -95.63291168212891 C 571.5494995117188 -101.596809387207 575.1028442382812 -106.737060546875 579.4686279296875 -110.9107131958008 C 583.1378784179688 -114.4184875488281 587.4000854492188 -117.2645874023438 592.1369018554688 -119.369987487793 C 600.4192504882812 -123.0512847900391 608.1213989257812 -123.600959777832 611.975341796875 -123.600959777832 L 611.9669189453125 -123.600959777832 C 612.1309814453125 -123.6015625 613.7562255859375 -123.6184158325195 614.7420654296875 -123.6288909912109 L 614.7566528320312 -123.629035949707 L 614.771240234375 -123.6291122436523 L 615.152587890625 -123.6309356689453 L 615.16455078125 -123.630989074707 L 615.176513671875 -123.630989074707 C 619.037841796875 -123.630989074707 626.75439453125 -123.0810089111328 635.0511474609375 -119.3976898193359 C 639.7960205078125 -117.2912139892578 644.0650024414062 -114.4436874389648 647.7393798828125 -110.9341659545898 C 652.11181640625 -106.7579650878906 655.6694946289062 -101.6145629882812 658.3135986328125 -95.64681243896484 C 660.1107788085938 -91.58971405029297 661.0652465820312 -86.08466339111328 661.231689453125 -78.81668853759766 C 661.3677368164062 -72.87442779541016 660.9757690429688 -66.62567138671875 660.6295166015625 -61.11153793334961 L 660.6015625 -60.64256286621094 L 660.60107421875 -60.63481140136719 L 660.6006469726562 -60.6270637512207 C 660.5889892578125 -60.44182586669922 660.5773315429688 -60.25513458251953 660.5656127929688 -60.06710815429688 C 661.9522705078125 -60.27682876586914 663.5882568359375 -60.81629180908203 665.3609008789062 -61.65266418457031 L 665.365966796875 -61.65503692626953 L 665.3710327148438 -61.65741348266602 C 667.040771484375 -62.4406623840332 668.7478637695312 -62.60506057739258 669.8858642578125 -62.60506057739258 C 671.490966796875 -62.60506057739258 673.0806274414062 -62.29958343505859 674.4895629882812 -61.7210807800293 C 676.322021484375 -61.047119140625 677.9219360351562 -60.00936126708984 679.1232299804688 -58.71441268920898 C 680.634765625 -57.08508682250977 681.4880981445312 -55.05801391601562 681.526123046875 -53.00658798217773 C 681.5570678710938 -51.40046310424805 681.1141357421875 -48.97688674926758 678.8280029296875 -46.5729866027832 C 677.1235961914062 -44.78076171875 674.6439208984375 -43.25298690795898 671.2473754882812 -41.90236282348633 L 671.2432250976562 -41.90073776245117 L 671.2391357421875 -41.89911270141602 C 670.455078125 -41.58893585205078 669.55419921875 -41.30133819580078 668.6829833984375 -41.02318572998047 C 667.1675415039062 -40.53923797607422 665.2810668945312 -39.93683624267578 663.7738037109375 -39.13568878173828 C 662.1832885742188 -38.29031372070312 661.7733764648438 -37.63343811035156 661.6708984375 -37.39026260375977 C 661.4131469726562 -36.77996063232422 661.6757202148438 -35.57036209106445 662.3714599609375 -34.15011215209961 L 662.4241943359375 -34.04256057739258 L 662.4508056640625 -33.98085784912109 C 662.4744262695312 -33.92917633056641 662.501953125 -33.86698150634766 662.5316772460938 -33.79534149169922 C 662.7625732421875 -33.26294326782227 665.2108154296875 -27.75638961791992 670.1123046875 -21.9547119140625 C 672.9695434570312 -18.57276153564453 676.1030883789062 -15.74886226654053 679.4258422851562 -13.56146240234375 C 683.4632568359375 -10.90361213684082 687.8154296875 -9.173562049865723 692.3615112304688 -8.419337272644043 C 695.7288208007812 -7.860637664794922 698.1275634765625 -4.864962577819824 697.941162109375 -1.45113742351532 L 697.9406127929688 -1.441462397575378 L 697.9400634765625 -1.431787490844727 C 697.88720703125 -0.5273943543434143 697.6751098632812 0.3620216846466064 697.309814453125 1.211864233016968 C 696.2006225585938 3.809091091156006 693.78466796875 5.907316207885742 689.92431640625 7.626487731933594 C 686.3970947265625 9.197297096252441 681.6389770507812 10.4854736328125 675.4232177734375 11.54941654205322 C 675.3167724609375 11.9814338684082 675.19482421875 12.5137414932251 675.057861328125 13.14476299285889 C 674.7745971679688 14.45100593566895 674.4859008789062 15.7415189743042 674.0726928710938 17.1566104888916 L 674.0726928710938 17.15661239624023 C 673.4921264648438 19.15591239929199 672.3644409179688 20.33313751220703 671.5206909179688 20.96863746643066 C 670.673583984375 21.60663795471191 669.2254638671875 22.3671875 667.1373291015625 22.3671875 L 666.95263671875 22.3671875 C 665.8200073242188 22.3671875 664.4110107421875 22.19758796691895 662.6452026367188 21.84868812561035 C 660.3770751953125 21.40216255187988 657.8367309570312 20.98833847045898 654.6568603515625 20.98833847045898 C 652.8323974609375 20.98833847045898 650.9351196289062 21.1498966217041 649.0175170898438 21.46850967407227 L 649.0175170898438 21.46851348876953 C 645.6697998046875 22.03063774108887 642.4833374023438 24.29831314086914 638.7938232421875 26.92408752441406 C 635.7144165039062 29.11608695983887 632.52978515625 31.3830623626709 628.701904296875 33.16973876953125 C 624.1802978515625 35.28018569946289 619.5712890625 36.30611419677734 614.6114501953125 36.30611419677734 Z" stroke="#000" fill="#000"/>
    </g>
  </g>
</svg>
