<svg xmlns="http://www.w3.org/2000/svg" width="51.089" height="55.422" viewBox="0 0 51.089 55.422">
  <defs>
    <style>
      .a{fill:#ef6c57}
    </style>
  </defs>
  <g transform="translate(-8.386 17.74) rotate(-30)">
    <path class="a" d="M42.082,38.992a4.317,4.317,0,0,1-1.117-.2l-23.655-6.9a1.009,1.009,0,0,1-.711-1.015V14.221a1.222,1.222,0,0,1,.711-1.015L40.966,6.3a3.861,3.861,0,0,1,3.452.711,3.618,3.618,0,0,1,1.523,3.046V35.236a3.9,3.9,0,0,1-1.523,3.046A3.95,3.95,0,0,1,42.082,38.992ZM18.63,30.16l22.944,6.7a1.63,1.63,0,0,0,1.624-.3,1.939,1.939,0,0,0,.711-1.421V10.058A1.776,1.776,0,0,0,43.2,8.637a2,2,0,0,0-1.523-.3l-22.944,6.7V30.16Z" transform="translate(0.222)"/>
    <path class="a" d="M17.838,31.779H8.7a6.917,6.917,0,0,1-6.7-6.8V20a6.8,6.8,0,0,1,6.8-6.8h9.137a.959.959,0,0,1,1.015,1.015V30.662A1.2,1.2,0,0,1,17.838,31.779ZM8.8,15.23A4.766,4.766,0,0,0,4.03,20v4.975A4.883,4.883,0,0,0,8.7,29.748h8.122V15.23Z" transform="translate(0 0.107)"/>
    <path class="a" d="M44.515,28.068a1.015,1.015,0,1,1,0-2.03,3.553,3.553,0,1,0,0-7.107,1.015,1.015,0,1,1,0-2.03,5.584,5.584,0,1,1,0,11.168Z" transform="translate(0.632 0.163)"/>
    <path class="a" d="M9.975,46.048a3.454,3.454,0,0,1-1.015-.1l-.3-.1a4.529,4.529,0,0,1-2.944-2.132A4.447,4.447,0,0,1,5.1,40.159L7.64,30.311a1,1,0,0,1,1.929.508L7.031,40.667a2.391,2.391,0,0,0,.3,2.03,3.027,3.027,0,0,0,1.726,1.218l.3.1a2.644,2.644,0,0,0,3.147-1.929l3.046-11.777a1,1,0,1,1,1.929.508L14.442,42.6a4.662,4.662,0,0,1-4.467,3.452Z" transform="translate(0.045 0.356)"/>
  </g>
</svg>
