<svg xmlns="http://www.w3.org/2000/svg" width="33.097" height="25.778" viewBox="0 0 33.097 25.778">
  <path id="np_megaphone_743179_000000" d="M19.348,44.287l-2.815-7.981h6.136v7.981Zm22.058-3.648-3.164-1.271V19.847l3.164-1.271a.918.918,0,0,1,1.258.851v20.36a.917.917,0,0,1-1.258.852Zm-18.031-.059V37.452h1.38a5.686,5.686,0,0,0-.2,3.127Zm13.25-1.861-9.473-3.805a.917.917,0,0,1-.576-.852v-8.91a.917.917,0,0,1,.576-.851L36.626,20.5ZM13.789,33.749V25.377a1.652,1.652,0,0,1,1.652-1.652h9.695V35.4H15.441a1.651,1.651,0,0,1-1.652-1.65Zm-4.222-1.6V27.223c0-.536.315-.972.7-.972h2.569v6.87H10.269c-.387,0-.7-.435-.7-.97Z" transform="translate(-9.567 -18.509)" fill="#fff" fill-rule="evenodd"/>
</svg>
