<svg xmlns="http://www.w3.org/2000/svg" width="29.457" height="25.771" viewBox="0 0 29.457 25.771">
  <path id="np_loop_45567_000000" d="M16.561,6.25V9.932H2.756A2.812,2.812,0,0,0,.8,10.738a2.808,2.808,0,0,0-.806,1.957V25.58A2.812,2.812,0,0,0,.8,27.537a2.808,2.808,0,0,0,1.957.806H5.517V24.662H3.676V13.618H16.561V17.3l5.522-5.522L16.561,6.255Zm7.363,3.682v3.682h1.841V24.658H12.88V20.976L7.358,26.5l5.522,5.522V28.339H26.685a2.754,2.754,0,0,0,2.763-2.763V12.69a2.754,2.754,0,0,0-2.763-2.763H23.924Z" transform="translate(0.008 -6.25)" />
</svg>
