<?xml version="1.0" encoding="utf-8"?>
<!-- Generator: Adobe Illustrator 23.0.1, SVG Export Plug-In . SVG Version: 6.00 Build 0)  -->
<svg version="1.1" id="Layer_1" xmlns="http://www.w3.org/2000/svg" xmlns:xlink="http://www.w3.org/1999/xlink" x="0px" y="0px"
	 viewBox="0 0 1080 1080" style="enable-background:new 0 0 1080 1080;" xml:space="preserve">
<style type="text/css">
	.st0{fill:url(#SVGID_1_);}
	.st1{fill:url(#SVGID_2_);}
</style>
<g>
	<g>
		<linearGradient id="SVGID_1_" gradientUnits="userSpaceOnUse" x1="229.0853" y1="540.4733" x2="851.23" y2="540.4733">
			<stop  offset="0" style="stop-color:#F6931D"/>
			<stop  offset="1" style="stop-color:#F26622"/>
		</linearGradient>
		<path class="st0" d="M568.98,1004.36l-10.29-6.93C352.46,858.62,248.54,751.36,231.66,659.9
			c-12.43-67.35,22.63-117.15,53.55-161.1c30.5-43.34,56.87-80.81,44.47-131.53c-10.64-30.87-13.32-67-7.99-107.54
			c-36.81-31.58-51.24-71.12-39.66-109.87c11.73-39.24,49.39-70.69,87.59-73.13c24.82-1.6,53.74,10.08,67.32,45.75
			c85.25-9.91,188.44,42.86,199.28,140.6c1.79,16.19,1.55,32.95-0.54,49.6c19.45-16,45.13-25.77,73.76-27.62
			c42.55-2.74,83.78,12.51,110.28,40.81c17.43,18.6,36.8,51.66,30.04,103.51c-5.97,45.8-33.2,70.84-61.1,93.77
			c37.07,23.76,58.36,58.95,62.02,103.14c9.37,112.75-99.63,262-271.22,371.38L568.98,1004.36z M372.05,114.52
			c-19.57,1.27-45.68,19.29-53.72,46.19c-7.91,26.44,4.22,52.71,35.07,75.94l9.15,6.88l-1.85,11.29
			c-6.3,38.56-4.56,73.41,5.04,100.78l0.49,1.65c17.11,67.96-18.56,118.64-50.04,163.34c-29.21,41.51-56.81,80.73-47.28,132.43
			C283.35,731.28,381.71,831.42,569.49,959c151.74-99.81,251.36-234.14,243.43-329.56c-3.28-39.52-25.39-68.23-65.68-85.35
			l-28.17-11.96l23.27-19.88c5.49-4.67,10.9-9.1,16.13-13.35c28.59-23.31,49.25-40.14,53.71-74.41
			c3.89-29.84-2.88-54.31-20.12-72.72c-18.85-20.12-48.82-30.91-80.19-28.9c-28.01,1.8-51.52,13.62-64.5,32.45
			c-13.34,19.33-15.3,46.02-5.69,77.21l1.67,5.39l-1.56,5.41c-0.81,2.83-1.64,5.65-2.46,8.42c-6.46,22.05-12.06,41.1-5.88,51.55
			c4.5,7.59,17.11,13.89,36.51,18.2l12.81,2.85l1.84,13c2.66,18.9-13.47,27.98-24.15,33.98c-17.58,9.89-41.64,23.43-52.37,72.79
			l-37.27-1.43c-9.1-65.71-38.89-73.23-73.41-81.93c-26.64-6.72-59.8-15.09-70.97-55.54l-0.14-0.54
			c-13.56-55.31-8.26-72.47-1.29-81.97c4.62-6.3,11.34-10.04,18.91-10.52c6.33-0.41,12.69,1.47,18.9,5.57
			c14.86,9.81,29.62,14.33,43.85,13.41c23.85-1.53,42.26-17.81,53.47-31.19c28.07-33.46,43.52-86.79,38.42-132.72
			c-7.99-72.04-84.05-112.05-149.95-107.8c-7.22,0.46-14.3,1.47-21.04,2.99l-18.99,4.28l-3.76-19.1
			C400.25,124.56,389.23,113.42,372.05,114.52z M463.01,495.37c5.12,18.19,17.82,22.14,43.65,28.66
			c28.14,7.09,64.07,16.15,85.64,58.44c11.24-17.44,24.24-28.27,35.48-35.7c-12.24-6.36-21.14-14.39-26.94-24.2
			c-14.53-24.61-6.06-53.52,2.14-81.48c0.28-0.98,0.58-1.97,0.86-2.95c-2.57-9.32-4.24-18.07-5.18-26.27
			c-3.02,4.34-6.19,8.5-9.53,12.46c-22.91,27.3-50.59,42.74-80.05,44.63c-17.8,1.15-35.56-2.68-52.97-11.38
			C456.8,465.51,458.65,477.53,463.01,495.37z"/>
	</g>
	<g>
		
			<linearGradient id="SVGID_2_" gradientUnits="userSpaceOnUse" x1="489.213" y1="791.8562" x2="623.9973" y2="791.8562" gradientTransform="matrix(0.9994 -0.034 0.034 0.9994 -26.8941 11.125)">
			<stop  offset="0" style="stop-color:#F6931D"/>
			<stop  offset="1" style="stop-color:#F26622"/>
		</linearGradient>
		<path class="st1" d="M556.2,844.15c-4.22-0.14-76.91-60-67.33-92.95c5.07-17.51,18.34-27.63,35.47-27.04
			c11.7,0.39,23.2,5.76,31.82,14.08c8.91-8.48,21.15-13.82,33.2-13.4c14.2,0.47,30.45,9.58,33.44,33.69
			c3.64,29.32-61.26,85.5-65.81,85.63C556.73,844.17,556.46,844.15,556.2,844.15z M523.49,749.57c-3.53-0.12-7.91,0.76-10.22,8.74
			c-4.25,14.59,37.46,56.86,42.91,62c5.75-5.94,43.16-44.47,41.39-58.63c-1.39-11.19-6.77-11.38-9.07-11.45
			c-7.31-0.24-17.59,5.97-19.89,14.3c-1.47,5.38-6.26,9.16-11.82,9.35c-5.53,0.15-10.59-3.26-12.44-8.51
			C541.16,756.25,530.97,749.81,523.49,749.57z"/>
	</g>
</g>
</svg>
