
<svg xmlns="http://www.w3.org/2000/svg" width="32" height="32" viewBox="0 0 8.467 8.467"><g transform="translate(549.906 -376.873)"><path fill="#ff67c7" style="line-height:normal;font-variant-ligatures:normal;font-variant-position:normal;font-variant-caps:normal;font-variant-numeric:normal;font-variant-alternates:normal;font-feature-settings:normal;text-indent:0;text-align:start;text-decoration-line:none;text-decoration-style:solid;text-decoration-color:#000;text-transform:none;text-orientation:mixed;shape-padding:0;isolation:auto;mix-blend-mode:normal" d="m -546.28809,380.60927 c -0.26218,0 -0.52328,0.0995 -0.72253,0.29846 -0.39848,0.39782 -0.39848,1.04665 0,1.44447 l 1.23272,1.23332 c 0.059,0.0592 0.15509,0.0592 0.21411,0 l 1.23275,-1.23332 c 0.39844,-0.39782 0.39844,-1.04665 0,-1.44447 -0.36903,-0.3684 -0.95272,-0.39118 -1.33597,-0.095 -0.23423,-0.14815 -0.37214,-0.20039 -0.62108,-0.2035 z" color="#000" font-family="sans-serif" font-weight="400" overflow="visible" white-space="normal"/><g fill="#542471" transform="translate(-472.78 -34.691)"><path d="m -281.5,468.24414 a 0.50004998,0.50004998 0 0 0 -0.0605,0.004 0.50004998,0.50004998 0 0 0 -0.44336,0.50976 v 1.51172 H -285 c -1.65335,0 -2.99609,1.34469 -2.99609,2.99805 v 17.48828 c 0,1.65335 1.34274,2.99609 2.99609,2.99609 h 19.00195 c 1.65335,0 2.9961,-1.34274 2.9961,-2.99609 v -17.48828 c 0,-1.65336 -1.34275,-2.99805 -2.9961,-2.99805 h -3.00586 v -1.51172 a 0.50004998,0.50004998 0 0 0 -0.55273,-0.50976 A 0.50004998,0.50004998 0 0 0 -270,468.7579 v 1.51172 h -10.99805 V 468.7579 A 0.50004998,0.50004998 0 0 0 -281.5,468.24414 Z m -3.5,3.02344 h 2.99609 v 1.47461 a 0.50293,0.50293 0 0 0 1.00586,0 v -1.47461 H -270 v 1.46875 a 0.50004998,0.50004998 0 1 0 0.99609,0 v -1.46875 h 3.00586 c 1.11665,0 2,0.88334 2,2 v 2.48047 H -287 v -2.48047 c 0,-1.11666 0.88335,-2 2,-2 z m -2,5.47656 h 23.00195 v 14.01172 c 0,1.11666 -0.88335,2 -2,2 H -285 c -1.11665,0 -2,-0.88334 -2,-2 z" color="#000" font-family="sans-serif" font-weight="400" overflow="visible" transform="matrix(.26458 0 0 .26458 0 288.533)" white-space="normal" style="line-height:normal;font-variant-ligatures:normal;font-variant-position:normal;font-variant-caps:normal;font-variant-numeric:normal;font-variant-alternates:normal;font-feature-settings:normal;text-indent:0;text-align:start;text-decoration-line:none;text-decoration-style:solid;text-decoration-color:#000;text-transform:none;text-orientation:mixed;shape-padding:0;isolation:auto;mix-blend-mode:normal"/><g transform="translate(32.638 51.395)"><path style="line-height:normal;font-variant-ligatures:normal;font-variant-position:normal;font-variant-caps:normal;font-variant-numeric:normal;font-variant-alternates:normal;font-feature-settings:normal;text-indent:0;text-align:start;text-decoration-line:none;text-decoration-style:solid;text-decoration-color:#000;text-transform:none;text-orientation:mixed;shape-padding:0;isolation:auto;mix-blend-mode:normal" d="M-404.60938 288.01953c-.8225 0-1.49804.67555-1.49804 1.49805v2.49414a.50197795.50197795 0 0 0 1.0039 0v-2.49414c0-.28195.21197-.50196.49414-.50196.28196 0 .50196.21993.50196.50196v2.49414a.50195905.50195905 0 1 0 1.0039 0v-2.47266a.50195905.50195905 0 0 0 0-.0215c0-.28195.21392-.50196.4961-.50196.28195 0 .50195.21993.50195.50196v2.49414a.50195905.50195905 0 0 0 1.00391 0v-2.49414c0-.8225-.68336-1.49805-1.50586-1.49805-.38406 0-.73372.14972-1 .39063-.26789-.24047-.61829-.39063-1.00196-.39063zM-395.10742 288.01953c-.8225 0-1.5.67555-1.5 1.49805v2.49414a.50197795.50197795 0 1 0 1.0039 0v-2.49414c0-.28195.21392-.50196.4961-.50196.28195 0 .50191.21993.50195.50196v2.49414a.50197795.50197795 0 1 0 1.00391 0v-2.49414c0-.28195.212-.50196.49414-.50196.28195 0 .50195.21993.50195.50196v2.49414a.50004998.50004998 0 1 0 .99609 0v-2.49414c0-.8225-.67554-1.49805-1.49804-1.49805-.38353 0-.7319.15032-.99805.39063-.26798-.24091-.61787-.39063-1.00195-.39063z" color="#000" font-family="sans-serif" font-weight="400" overflow="visible" transform="matrix(.26458 0 0 .26458 0 288.533)" white-space="normal"/><path style="line-height:normal;font-variant-ligatures:normal;font-variant-position:normal;font-variant-caps:normal;font-variant-numeric:normal;font-variant-alternates:normal;font-feature-settings:normal;text-indent:0;text-align:start;text-decoration-line:none;text-decoration-style:solid;text-decoration-color:#000;text-transform:none;text-orientation:mixed;shape-padding:0;isolation:auto;mix-blend-mode:normal" d="m -105.53125,364.73828 c -0.13562,0 -0.23852,0.0922 -0.30078,0.20117 -0.0623,0.10896 -0.0957,0.24429 -0.0957,0.39258 0,0.14829 0.0334,0.28557 0.0957,0.39453 0.0623,0.10896 0.16516,0.20117 0.30078,0.20117 0.13562,0 0.24047,-0.0922 0.30273,-0.20117 0.0623,-0.10896 0.0957,-0.24624 0.0957,-0.39453 0,-0.14829 -0.0334,-0.28362 -0.0957,-0.39258 -0.0623,-0.10895 -0.16711,-0.20117 -0.30273,-0.20117 z m 0,0.26367 c 0.0105,0 0.0388,0.01 0.0723,0.0684 0.0335,0.0586 0.0605,0.15429 0.0605,0.26172 0,0.10743 -0.0271,0.2031 -0.0605,0.26172 -0.0335,0.0586 -0.0618,0.0703 -0.0723,0.0703 -0.0105,0 -0.0388,-0.0117 -0.0723,-0.0703 -0.0335,-0.0586 -0.0586,-0.15429 -0.0586,-0.26172 0,-0.10743 0.0251,-0.20309 0.0586,-0.26172 0.0335,-0.0586 0.0618,-0.0684 0.0723,-0.0684 z" color="#000" font-family="sans-serif" font-weight="400" overflow="visible" white-space="normal"/></g></g></g></svg>