<svg xmlns="http://www.w3.org/2000/svg" width="23.353" height="29.18" viewBox="0 0 23.353 29.18">
  <g id="Group_24" data-name="Group 24" transform="translate(12 9)">
    <path id="Subtraction_33" data-name="Subtraction 33" d="M23.353,29.18H0V0H23.353V29.179ZM11.984,9.826a4.883,4.883,0,1,0,4.883,4.883A4.888,4.888,0,0,0,11.984,9.826Zm-.893,6.712a.3.3,0,0,1-.3-.3V13.177a.3.3,0,0,1,.3-.3.3.3,0,0,1,.164.051l2.3,1.531a.3.3,0,0,1,0,.493l-2.3,1.533A.288.288,0,0,1,11.091,16.538Z" transform="translate(-12 -9)" fill="#d9d9d9"/>
  </g>
</svg>
