<svg xmlns="http://www.w3.org/2000/svg" width="28" height="28.001" viewBox="0 0 28 28.001">
  <path id="Subtraction_31" data-name="Subtraction 31" d="M1564-58a13.909,13.909,0,0,1-9.9-4.1A13.909,13.909,0,0,1,1550-72a13.909,13.909,0,0,1,4.1-9.9A13.909,13.909,0,0,1,1564-86a13.908,13.908,0,0,1,9.9,4.1A13.909,13.909,0,0,1,1578-72a13.909,13.909,0,0,1-4.1,9.9A13.908,13.908,0,0,1,1564-58Zm-7.819-13.063a8.932,8.932,0,0,0,7.863,5.008c.05,0,.1,0,.152,0a8.725,8.725,0,0,0,4.986-1.917,11.2,11.2,0,0,0,3.173-3.156.732.732,0,0,0,0-.735,11.77,11.77,0,0,0-3.468-3.639,8.853,8.853,0,0,0-4.715-1.571h-.123c-2.383,0-5.739,1.632-7.867,5.277a.667.667,0,0,0-.031.667.607.607,0,0,0,.031.066h0Zm7.9,3.555h-.041a7.017,7.017,0,0,1-3.734-1.078,8.02,8.02,0,0,1-2.662-2.822c1.28-2,3.665-4.152,6.523-4.211h.108a6.8,6.8,0,0,1,3.738,1.254,10.72,10.72,0,0,1,2.843,2.864,11.177,11.177,0,0,1-2.412,2.277A7.411,7.411,0,0,1,1564.085-67.507Zm.2-6.669a2.888,2.888,0,0,0-2.556,1.585,2.351,2.351,0,0,0,.033,1.925,2.723,2.723,0,0,0,1.589,1.48,2.2,2.2,0,0,0,.693.11,2.954,2.954,0,0,0,2.581-1.66,2.286,2.286,0,0,0-.048-2.064,2.747,2.747,0,0,0-2-1.354.781.781,0,0,0-.1-.013.816.816,0,0,0-.1-.006h-.014Zm-.2,3.644h0a1.154,1.154,0,0,1-.553-.147,1.082,1.082,0,0,1-.516-.774.909.909,0,0,1,.2-.775,1.616,1.616,0,0,1,1.15-.482c.043,0,.08,0,.114,0l.073,0a.839.839,0,0,1,.805.929A1.38,1.38,0,0,1,1564.083-70.532Z" transform="translate(-1550 86)" fill="#fff"/>
</svg>
