<svg xmlns="http://www.w3.org/2000/svg" width="33.804" height="19.216" viewBox="0 0 33.804 19.216">
  <path class="a" d="M22.715,25c-5.541.048-11.028,3.073-16.416,9a.816.816,0,0,0,0,1.222c5.475,6.017,11.052,9.045,16.684,9s11.157-3.16,16.559-8.99a.81.81,0,0,0,0-1.233C34.14,28.158,28.612,25.046,22.981,25q-.133,0-.266,0Zm.014,1.537q.119,0,.239,0c4.942.042,9.951,2.708,15.044,8.071-5.094,5.361-10.1,8.029-15.044,8.071s-9.982-2.539-15.143-8.071c5.079-5.442,10.033-8.029,14.9-8.071Z" transform="translate(-6.022 -24.997)"/>
  <path class="a" d="M39.467,32.9a6.579,6.579,0,1,0,4.813,2.1.769.769,0,0,0-1.341.494.759.759,0,0,0,.216.554,5.034,5.034,0,1,1-3.688-1.61v0a.769.769,0,1,0,0-1.537Z" transform="translate(-22.566 -29.861)"/>
  <path class="a" d="M44.924,41.75a3.171,3.171,0,1,0,3.171,3.171A3.18,3.18,0,0,0,44.924,41.75Zm0,1.537A1.633,1.633,0,1,1,43.3,44.921,1.619,1.619,0,0,1,44.924,43.287Z" transform="translate(-28.024 -35.311)"/>
</svg>
