<svg xmlns="http://www.w3.org/2000/svg" width="29.074" height="29.042" viewBox="0 0 29.074 29.042">
  <g transform="translate(0 0)">
    <path class="a" d="M28.067,21.551a5.879,5.879,0,1,0-9.967,5.06A5.9,5.9,0,0,0,21.534,28.3l-.645-1.84a4.151,4.151,0,0,1-1.626-1.012,4.229,4.229,0,0,1,5.98-5.98,4.386,4.386,0,0,1,.951,1.441Z" transform="translate(-12.159 -12.296)"/>
    <path class="a" d="M13.507,22.888l-.552-1.626A8.343,8.343,0,0,1,6.76,18.777,8.5,8.5,0,1,1,21.266,12.8l1.626.582a10.145,10.145,0,1,0-17.3,6.564,10.013,10.013,0,0,0,7.913,2.945Z" transform="translate(-2.627 -2.623)"/>
    <path class="a" d="M33.007,31.8a.8.8,0,0,0-1.012,1.012l5.581,16.07A.906.906,0,0,0,39.232,49L41.1,45.292l6.318,6.318a.907.907,0,0,0,1.258,0l3.1-3.1a.907.907,0,0,0,0-1.258l-6.318-6.318,3.711-1.871a.9.9,0,0,0-.122-1.656Z" transform="translate(-22.957 -22.821)"/>
  </g>
</svg>
