<svg xmlns="http://www.w3.org/2000/svg" width="28" height="28.001" viewBox="0 0 28 28.001">
  <path id="Subtraction_32" data-name="Subtraction 32" d="M1564-58a13.909,13.909,0,0,1-9.9-4.1A13.909,13.909,0,0,1,1550-72a13.909,13.909,0,0,1,4.1-9.9A13.909,13.909,0,0,1,1564-86a13.908,13.908,0,0,1,9.9,4.1A13.909,13.909,0,0,1,1578-72a13.909,13.909,0,0,1-4.1,9.9A13.908,13.908,0,0,1,1564-58Zm1.6-10.111h0l3.341,3.342a.466.466,0,0,0,.333.134.463.463,0,0,0,.333-.134l1.639-1.639a.472.472,0,0,0,.134-.333.472.472,0,0,0-.134-.333l-3.343-3.343,1.964-.99a.474.474,0,0,0,.26-.456.479.479,0,0,0-.325-.42l-8.488-2.968a.441.441,0,0,0-.139-.023.422.422,0,0,0-.343.179.413.413,0,0,0-.054.379l2.953,8.5a.47.47,0,0,0,.455.32.469.469,0,0,0,.423-.255l.99-1.963ZM1561.367-80a5.332,5.332,0,0,0-3.8,1.569,5.377,5.377,0,0,0,0,7.6,5.264,5.264,0,0,0,3.78,1.573c.131,0,.267-.005.406-.015l-.293-.86h-.122a4.386,4.386,0,0,1-3.155-1.317,4.5,4.5,0,0,1,0-6.361,4.467,4.467,0,0,1,3.18-1.314,4.469,4.469,0,0,1,3.181,1.314,4.551,4.551,0,0,1,1.314,3.2l.861.309a5.38,5.38,0,0,0-1.559-4.122A5.334,5.334,0,0,0,1561.367-80Zm-.025,2.263a3.091,3.091,0,0,0-2.2.913,3.088,3.088,0,0,0-.909,2.2,3.088,3.088,0,0,0,.909,2.2,3.125,3.125,0,0,0,1.818.893l-.341-.974a2.2,2.2,0,0,1-.86-.535,2.241,2.241,0,0,1,0-3.164,2.224,2.224,0,0,1,1.582-.657,2.228,2.228,0,0,1,1.583.657,2.325,2.325,0,0,1,.5.762l.99.341a3.074,3.074,0,0,0-.876-1.72A3.089,3.089,0,0,0,1561.342-77.736Z" transform="translate(-1550 86)" fill="#fff"/>
</svg>
