<svg xmlns="http://www.w3.org/2000/svg" width="62.438" height="62.438" viewBox="0 0 62.438 62.438">
  <path id="np_business_1857107_C6C6C6" d="M13.634,21.345h5.131V18.267a2.877,2.877,0,0,1,2.821-2.95h11.93a2.983,2.983,0,0,1,2.95,2.95v3.078h5a2.846,2.846,0,0,1,2.821,2.821V42.124a2.846,2.846,0,0,1-2.821,2.821H13.635a2.846,2.846,0,0,1-2.821-2.821V24.166a2.846,2.846,0,0,1,2.821-2.821Zm7.183,0H34.285V18.267a.827.827,0,0,0-.769-.769H21.586a.827.827,0,0,0-.769.769Z" transform="translate(4.028 0.683)" fill="#fff" fill-rule="evenodd"/>
</svg>
