<svg xmlns="http://www.w3.org/2000/svg" width="33" height="30"><rect id="backgroundrect" width="100%" height="100%" x="0" y="0" fill="none" stroke="none"/>
  
<g class="currentLayer" style=""><title>Layer 1</title><path id="np_business_1857107_C6C6C6" d="M2.8200008239746097,6.028000028133391 h5.131 V2.950000028133392 a2.8770000000000002,2.8770000000000002 0 0 1 2.821,-2.95 h11.93 a2.983,2.983 0 0 1 2.95,2.95 v3.078 h5 a2.846,2.846 0 0 1 2.821,2.821 V26.807000028133395 a2.846,2.846 0 0 1 -2.821,2.821 H2.8210008239746074 a2.846,2.846 0 0 1 -2.821,-2.821 V8.849000028133393 a2.846,2.846 0 0 1 2.821,-2.821 zm7.183,0 H23.471000823974606 V2.950000028133392 a0.8270000000000002,0.8270000000000002 0 0 0 -0.7690000000000002,-0.7690000000000002 H10.772000823974608 a0.8270000000000002,0.8270000000000002 0 0 0 -0.7690000000000002,0.7690000000000002 z" fill="#fff" fill-rule="evenodd" class=""/></g></svg>