<svg xmlns="http://www.w3.org/2000/svg" width="62.438" height="62.438" viewBox="0 0 62.438 62.438">
  <ellipse id="Ellipse_157" data-name="Ellipse 157" cx="31.219" cy="31.219" rx="31.219" ry="31.219" fill="#ff9d00"/>
  <g id="np_credit-cards_1948786_000000" transform="translate(13.699 17)">
    <path id="Path_285" data-name="Path 285" d="M24.93,37.327h17.6a4.346,4.346,0,0,1,4.341,4.341v1.215h3.108a3.361,3.361,0,0,0,3.361-3.361V33.838l-28.414,0Z" transform="translate(-17.48 -25.748)" fill="#fff"/>
    <path id="Path_286" data-name="Path 286" d="M49.983,14.492H28.291a3.361,3.361,0,0,0-3.361,3.361v1.427H53.345V17.853a3.363,3.363,0,0,0-3.363-3.361Z" transform="translate(-17.48 -14.492)" fill="#fff"/>
    <path id="Path_287" data-name="Path 287" d="M32.166,44.527H10.474a3.361,3.361,0,0,0-3.361,3.361V58.3a3.361,3.361,0,0,0,3.361,3.361H32.166A3.361,3.361,0,0,0,35.527,58.3V47.888A3.361,3.361,0,0,0,32.166,44.527ZM14.881,52.845a.726.726,0,0,1-.727.727l-3.868,0a.726.726,0,0,1-.727-.727V50.471a.726.726,0,0,1,.727-.727h3.866a.726.726,0,0,1,.727.727ZM28.716,59.64a1.6,1.6,0,1,1,1.6-1.6A1.6,1.6,0,0,1,28.716,59.64Zm3.619,0a1.6,1.6,0,1,1,1.6-1.6A1.6,1.6,0,0,1,32.335,59.64Z" transform="translate(-7.113 -31.969)" fill="#fff"/>
  </g>
</svg>
