<svg xmlns="http://www.w3.org/2000/svg" width="74.376" height="43.75" viewBox="0 0 74.376 43.75">
  <g id="Group_155" data-name="Group 155" transform="translate(-239.999 -211.647)">
    <g id="Union_87" data-name="Union 87" transform="translate(240 211.647)" fill="none">
      <path d="M20.594,38.536c-1.214.095-2.454.142-3.694.142C8.313,38.679-.272,36.4.006,31.848c.534-8.712,3.283-10.8,11.3-11.417a6.9,6.9,0,0,0,11.19,0c6.245.484,9.294,1.857,10.588,6.559a6.76,6.76,0,0,0,8.21-.021c1.3-4.686,4.35-6.055,10.585-6.536a6.9,6.9,0,0,0,11.189,0c8.014.618,10.766,2.706,11.3,11.415.319,5.211-10.972,7.44-20.586,6.688-1.591,3.476-9.093,5.214-16.6,5.214S22.184,42.011,20.594,38.536Zm8.092-24.864c-.645-11.465,17.647-11.465,17,0-.3,5.3-2.683,11.818-8.583,11.818C31.272,25.49,28.965,18.6,28.686,13.672ZM8.4,8.6c-.642-11.468,17.648-11.468,17,0-.3,5.3-2.682,11.818-8.582,11.818C10.985,20.419,8.679,13.533,8.4,8.6Zm40.573,0c-.645-11.47,17.646-11.47,17,0-.3,5.294-2.684,11.813-8.582,11.813C51.557,20.416,49.249,13.533,48.972,8.6Z" stroke="none"/>
      <path d="M 37.18651962280273 41.74977111816406 C 40.87116241455078 41.74977111816406 44.40855407714844 41.31471633911133 47.14708709716797 40.52473831176758 C 50.81305313110352 39.46722793579102 51.73670959472656 38.19974136352539 51.96366500854492 37.70388412475586 L 52.54516220092773 36.43341827392578 L 53.93814086914062 36.54233932495117 C 55.09326553344727 36.63265991210938 56.28242111206055 36.67846298217773 57.47255325317383 36.67846298217773 C 60.68851852416992 36.67846298217773 63.87126541137695 36.33709335327148 66.43449401855469 35.7172737121582 C 68.98663330078125 35.10012817382812 70.90020751953125 34.22010803222656 71.82271575927734 33.23931884765625 C 72.34442138671875 32.68467330932617 72.39026641845703 32.26987457275391 72.37191772460938 31.97056198120117 C 72.13416290283203 28.09415054321289 71.44498443603516 25.80512809753418 70.13732147216797 24.5485725402832 C 69.0078125 23.46321105957031 67.11599731445312 22.84008598327637 63.90164947509766 22.51462745666504 C 62.15949630737305 24.29537582397461 59.86114120483398 25.29730606079102 57.4487190246582 25.29730606079102 C 55.04066848754883 25.29730606079102 52.75735092163086 24.29556274414062 51.03625869750977 22.51524353027344 C 48.54369354248047 22.76664543151855 46.88708877563477 23.18820381164551 45.73783111572266 23.85436248779297 C 44.48031997680664 24.58326148986816 43.72774124145508 25.67428398132324 43.22137451171875 27.50248336791992 L 43.03897476196289 28.16105079650879 L 42.49171829223633 28.5703067779541 C 40.91904067993164 29.74640655517578 39.07630920410156 30.36805152893066 37.16274261474609 30.36805152893066 C 35.2617301940918 30.36805152893066 33.43651962280273 29.75310707092285 31.88442039489746 28.58968353271484 L 31.3371639251709 28.17948341369629 L 31.15568542480469 27.52007293701172 C 30.65032005310059 25.68386268615723 29.89829635620117 24.5883960723877 28.64109802246094 23.85708427429199 C 27.49080085754395 23.18796920776367 25.8300838470459 22.76466369628906 23.32963180541992 22.51224708557129 C 21.58712768554688 24.29397583007812 19.28837013244629 25.29670715332031 16.87597465515137 25.29670715332031 C 14.46777248382568 25.29670715332031 12.18428039550781 24.29442596435547 10.46279621124268 22.51288795471191 C 7.217701435089111 22.83939743041992 5.379850387573242 23.44761848449707 4.235753059387207 24.54722785949707 C 2.928763866424561 25.80340576171875 2.239886283874512 28.09282875061035 2.002141714096069 31.97014045715332 C 1.985252857208252 32.24644088745117 2.023864030838013 32.67866134643555 2.551841735839844 33.23990631103516 C 3.474430561065674 34.22059631347656 5.387641906738281 35.10049438476562 7.939053058624268 35.71750640869141 C 10.50167465209961 36.33721923828125 13.68386363983154 36.67851638793945 16.8994197845459 36.67851638793945 C 18.09039688110352 36.67851638793945 19.28087425231934 36.63262939453125 20.43777465820312 36.54212951660156 L 21.83105278015137 36.43313980102539 L 22.4124641418457 37.70399475097656 C 22.62687492370605 38.17267227172852 23.12786483764648 38.66236114501953 23.86124229431152 39.1201171875 C 24.71715354919434 39.65435028076172 25.84986305236816 40.12683868408203 27.22793006896973 40.52446365356445 C 29.96634101867676 41.31461715698242 33.5030403137207 41.74977111816406 37.18651962280273 41.74977111816406 M 37.10546493530273 23.48989486694336 C 39.06479644775391 23.48989486694336 40.59406280517578 22.52523994445801 41.78066253662109 20.54081726074219 C 42.84470748901367 18.76131820678711 43.54125213623047 16.21658325195312 43.69163131713867 13.55989551544189 C 43.79587554931641 11.70547294616699 43.30236434936523 10.18725109100342 42.22479629516602 9.047406196594238 C 41.03863143920898 7.792684078216553 39.20241928100586 7.073061943054199 37.18700790405273 7.073061943054199 C 35.17159652709961 7.073061943054199 33.33539581298828 7.792684078216553 32.14923095703125 9.047406196594238 C 31.07166481018066 10.18723964691162 30.5781421661377 11.70547294616699 30.68234252929688 13.55907249450684 C 30.82705307006836 16.11459541320801 31.5069751739502 18.62096214294434 32.54775238037109 20.43555068969727 C 33.72658538818359 22.49080657958984 35.2174186706543 23.48989486694336 37.10546493530273 23.48989486694336 M 16.81836318969727 18.41864013671875 C 18.77799797058105 18.41864013671875 20.30747413635254 17.4539623260498 21.49419784545898 15.46949481964111 C 22.55873107910156 13.68936157226562 23.25465202331543 11.14506149291992 23.4035530090332 8.48832893371582 C 23.50815200805664 6.632950782775879 23.01474189758301 5.114061832427979 21.93701934814453 3.973884105682373 C 20.75131988525391 2.719450712203979 18.91585350036621 2.000006198883057 16.90125274658203 2.000006198883057 C 14.88645267486572 2.000006198883057 13.05044174194336 2.719595193862915 11.8640079498291 3.97426176071167 C 10.78565311431885 5.114639759063721 10.29150867462158 6.633684158325195 10.39521980285645 8.487428665161133 C 10.54046440124512 11.04352855682373 11.22053050994873 13.55007266998291 12.26105308532715 15.36435031890869 C 13.43974208831787 17.4195728302002 14.93045330047607 18.41864013671875 16.81836318969727 18.41864013671875 M 57.39062881469727 18.41623878479004 C 59.34969711303711 18.41623878479004 60.87902069091797 17.45191764831543 62.06599807739258 15.46816158294678 C 63.13086318969727 13.68847274780273 63.82695388793945 11.14550590515137 63.97580718994141 8.491072654724121 C 64.08010864257812 6.634806156158447 63.58621978759766 5.11523962020874 62.50785446166992 3.974572896957397 C 61.32187652587891 2.720095157623291 59.48644256591797 2.000606298446655 57.47216415405273 2.000606298446655 C 55.4578971862793 2.000606298446655 53.62246322631836 2.720083951950073 52.43648529052734 3.974572896957397 C 51.35811996459961 5.11523962020874 50.86421966552734 6.634817123413086 50.96852111816406 8.490950584411621 C 51.11216354370117 11.04438400268555 51.79144287109375 13.54921722412109 52.83217620849609 15.36316204071045 C 54.0108528137207 17.41757202148438 55.5019416809082 18.41623878479004 57.39062881469727 18.41623878479004 M 37.18651962280273 43.74977111816406 C 29.6855411529541 43.74977111816406 22.18359756469727 42.01115036010742 20.59375381469727 38.53604125976562 C 19.37988662719727 38.63099670410156 18.13965225219727 38.67851638793945 16.8994197845459 38.67851638793945 C 8.312497138977051 38.67851638793945 -0.2724582552909851 36.40174102783203 0.0058639757335186 31.84812927246094 C 0.5400417447090149 23.13641738891602 3.289063930511475 21.05136108398438 11.3056640625 20.43062782287598 C 12.77095699310303 22.34636497497559 14.82134819030762 23.29670715332031 16.8759765625 23.29670715332031 C 18.94167137145996 23.29670715332031 21.01165008544922 22.33624839782715 22.49609756469727 20.43062782287598 C 28.74120903015137 20.91421699523926 31.79004096984863 22.28791809082031 33.083984375 26.9893627166748 C 34.31240081787109 27.9101448059082 35.73672866821289 28.3680477142334 37.16274642944336 28.3680477142334 C 38.60486602783203 28.3680477142334 40.04870986938477 27.89986228942871 41.29394149780273 26.9686393737793 C 42.591796875 22.28279495239258 45.6435546875 20.9140510559082 51.87891006469727 20.43301773071289 C 53.34371566772461 22.34756278991699 55.39409255981445 23.29730415344238 57.44872283935547 23.29730415344238 C 59.5144157409668 23.29730415344238 61.58440780639648 22.33744049072266 63.06836318969727 20.43301773071289 C 71.08203125 21.05136108398438 73.833984375 23.1388053894043 74.3681640625 31.84812927246094 C 74.64723205566406 36.40169906616211 66.05937957763672 38.67844772338867 57.47255706787109 38.6784553527832 C 56.23352813720703 38.67845916748047 54.99457550048828 38.63105773925781 53.78223037719727 38.53625106811523 C 52.19141006469727 42.01190567016602 44.689453125 43.74977111816406 37.18651962280273 43.74977111816406 Z M 37.10546493530273 25.48989486694336 C 31.27246475219727 25.48989486694336 28.96484184265137 18.60440635681152 28.6855411529541 13.67215061187744 C 28.36328125 7.939423084259033 32.775146484375 5.07305908203125 37.18701171875 5.07305908203125 C 41.598876953125 5.07305908203125 46.0107421875 7.939423084259033 45.6884765625 13.67215061187744 C 45.38867568969727 18.96867370605469 43.00586318969727 25.48989486694336 37.10546493530273 25.48989486694336 Z M 16.81836318969727 20.41864013671875 C 10.98535251617432 20.41864013671875 8.678708076477051 13.5331392288208 8.398441314697266 8.600894927978516 C 8.077641487121582 2.866967439651489 12.48974990844727 3.47222226082522e-06 16.90124702453613 3.47222226082522e-06 C 21.312744140625 3.47222226082522e-06 25.72363090515137 2.866967439651489 25.40038681030273 8.600894927978516 C 25.10351943969727 13.89742851257324 22.71875381469727 20.41864013671875 16.81836318969727 20.41864013671875 Z M 57.39062881469727 20.41623878479004 C 51.556640625 20.41623878479004 49.24901962280273 13.5331392288208 48.97167587280273 8.603283882141113 C 48.6494140625 2.868161916732788 53.060791015625 0.0006006944458931684 57.47216796875 0.0006006944458931684 C 61.883544921875 0.0006006944458931684 66.294921875 2.868161916732788 65.97265625 8.603283882141113 C 65.67578887939453 13.89742851257324 63.2890625 20.41623878479004 57.39062881469727 20.41623878479004 Z" stroke="none" fill="#fff"/>
    </g>
  </g>
</svg>
