<svg xmlns="http://www.w3.org/2000/svg" width="29.045" height="24.438" viewBox="0 0 29.045 24.438">
  <path id="Path_264" data-name="Path 264" d="M58.479,11.875H43.993a1.169,1.169,0,0,0-1.168,1.168V19.4a1.168,1.168,0,0,0,2.336,0v-5.19H57.309V33.976H45.161v-5.19a1.168,1.168,0,1,0-2.336,0v6.36a1.169,1.169,0,0,0,1.168,1.168H58.479a1.169,1.169,0,0,0,1.168-1.168v-22.1a1.17,1.17,0,0,0-1.168-1.168Z" transform="translate(-30.602 -11.875)" fill="#fff"/>
  <path id="Path_265" data-name="Path 265" d="M5.332,40.494,12.944,44.3a1.15,1.15,0,0,0,.525.124,1.187,1.187,0,0,0,.615-.174,1.169,1.169,0,0,0,.555-1V40.617H26.11a1.168,1.168,0,1,0,0-2.336H14.637V35.643a1.174,1.174,0,0,0-.555-1,1.16,1.16,0,0,0-1.138-.05L5.332,38.4a1.17,1.17,0,0,0,0,2.091Z" transform="translate(-4.687 -27.23)" fill="#fff"/>
</svg>
