<svg xmlns="http://www.w3.org/2000/svg" width="29" height="24" style=""><rect id="backgroundrect" width="100%" height="100%" x="0" y="0" fill="none" stroke="none" class="" style=""/>
  
  
<g class="currentLayer" style=""><title>Layer 1</title><path id="Path_264" data-name="Path 264" d="M27.876804894440923,0 H13.390804894440926 a1.169,1.169 0 0 0 -1.1680000000000001,1.1680000000000001 V7.524999999999999 a1.1680000000000001,1.1680000000000001 0 0 0 2.3360000000000003,0 v-5.19 H26.70680489444092 V22.101 H14.558804894440925 v-5.19 a1.1680000000000001,1.1680000000000001 0 1 0 -2.3360000000000003,0 v6.36 a1.169,1.169 0 0 0 1.1680000000000001,1.1680000000000001 H27.876804894440923 a1.169,1.169 0 0 0 1.1680000000000001,-1.1680000000000001 v-22.1 a1.17,1.17 0 0 0 -1.1680000000000001,-1.1680000000000001 z" fill="#fff" class=""/><path id="Path_265" data-name="Path 265" d="M0.6448043794567929,13.264000457763672 L8.256804379456794,17.07000045776367 a1.15,1.15 0 0 0 0.525,0.12400000000000003 a1.187,1.187 0 0 0 0.6150000000000002,-0.17400000000000004 a1.169,1.169 0 0 0 0.555,-1 V13.38700045776367 H21.422804379456792 a1.1680000000000001,1.1680000000000001 0 1 0 0,-2.3360000000000003 H9.949804379456793 V8.413000457763673 a1.174,1.174 0 0 0 -0.555,-1 a1.1600000000000001,1.1600000000000001 0 0 0 -1.138,-0.05000000000000002 L0.6448043794567929,11.17000045776367 a1.17,1.17 0 0 0 0,2.091 z" fill="#fff" class=""/></g></svg>