<svg xmlns="http://www.w3.org/2000/svg" width="32" height="30"><rect id="backgroundrect" width="100%" height="100%" x="0" y="0" fill="none" stroke="none"/>
  
  
<g class="currentLayer" style=""><title>Layer 1</title><path id="np_history_1563152_000000" d="M17.06116854286194,0.0000667572021484375 a14.823,14.823 0 0 0 -13.749,9.175 l-0.8740000000000002,-1.5470000000000002 a1.292,1.292 0 1 0 -2.26,1.251 l2.368,4.238 a1.2930000000000001,1.2930000000000001 0 0 0 1.722,0.511 l4.211,-2.152 a1.292,1.292 0 1 0 -1.17,-2.3 l-1.5470000000000002,0.794 a12.264,12.264 0 0 1 11.3,-7.386 A12.055,12.055 0 1 1 5.15516854286194,17.40806675720215 a1.294,1.294 0 0 0 -2.516,0.6050000000000002 A14.794,14.794 0 1 0 17.06116854286194,0.0000667572021484375 zm0.16100000000000006,6.431 a1.292,1.292 0 0 0 -1.278,1.318 v6.888 a1.3,1.3 0 0 0 0.4840000000000001,1.009 l4.3,3.444 a1.292,1.292 0 0 0 2.092,-1.1520000000000001 a1.28,1.28 0 0 0 -0.4780000000000001,-0.8660000000000002 l-3.821,-3.054 V7.749066757202147 a1.29,1.29 0 0 0 -1.3,-1.318 z" fill="#fff" class=""/></g></svg>