<svg xmlns="http://www.w3.org/2000/svg" width="62.438" height="62.438" viewBox="0 0 62.438 62.438">
  <ellipse id="Ellipse_155" data-name="Ellipse 155" cx="31.219" cy="31.219" rx="31.219" ry="31.219" fill="#ff9d00"/>
  <path id="np_history_1563152_000000" d="M30.041,16a14.823,14.823,0,0,0-13.749,9.175l-.874-1.547a1.292,1.292,0,1,0-2.26,1.251l2.368,4.238a1.293,1.293,0,0,0,1.722.511l4.211-2.152a1.292,1.292,0,1,0-1.17-2.3l-1.547.794a12.264,12.264,0,0,1,11.3-7.386A12.055,12.055,0,1,1,18.135,33.408a1.294,1.294,0,0,0-2.516.605A14.794,14.794,0,1,0,30.041,16Zm.161,6.431a1.292,1.292,0,0,0-1.278,1.318v6.888a1.3,1.3,0,0,0,.484,1.009l4.3,3.444a1.292,1.292,0,0,0,2.092-1.152,1.28,1.28,0,0,0-.478-.866l-3.821-3.054V23.749a1.29,1.29,0,0,0-1.3-1.318Z" transform="translate(0.997 1)" fill="#fff"/>
</svg>
