<svg xmlns="http://www.w3.org/2000/svg" width="31" height="26">
<rect id="backgroundrect" width="100%" height="100%" x="0" y="0" fill="none" stroke="none"/>
  
<g class="currentLayer" style=""><title>Layer 1</title><path id="np_wallet_1090223_000000" d="M4.359715454101561,0.0001068115234375 A5.059,5.059 0 0 0 0.0177154541015625,5.153106811523436 V21.300106811523435 a3.931,3.931 0 0 0 4.176,4.295 H27.002715454101562 a4.136,4.136 0 0 0 4.295,-4.236 V9.89210681152344 a4.253,4.253 0 0 0 -1.9100000000000001,-3.6580000000000004 A13.279,13.279 0 0 0 28.898715454101563,2.0001068115234375 a2.965,2.965 0 0 0 -2.829,-2 zm0,2.843 H26.069715454101562 c0.22600000000000003,0.026000000000000006 0.2,0.30000000000000004 0.23700000000000002,0.47400000000000003 H3.529715454101563 A1.393,1.393 0 0 1 4.359715454101561,2.8431068115234375 zm-1.229,2.37 H26.517715454101562 c0.007000000000000002,0.15700000000000003 0.009000000000000003,0.30000000000000004 0.015000000000000003,0.47400000000000003 H4.284715454101562 a7.237,7.237 0 0 1 -1.155,-0.47400000000000003 zm23.473,9 h1.851 V17.06010681152344 h-1.9 a2.25,2.25 0 0 1 -1.5110000000000001,-0.42900000000000005 a1.126,1.126 0 0 1 -0.38500000000000006,-0.9630000000000001 a1.236,1.236 0 0 1 0.38500000000000006,-1.037 a2.338,2.338 0 0 1 1.5550000000000002,-0.41500000000000004 zm-0.518,0.47400000000000003 a0.9480000000000001,0.9480000000000001 0 1 0 0.9480000000000001,0.9480000000000001 A0.9470000000000001,0.9470000000000001 0 0 0 26.084715454101563,14.69110681152344 z" ttransform="translate(14.84 15)" fill="#fff" class=""/>
</g></svg>