<svg xmlns="http://www.w3.org/2000/svg" width="31.279" height="25.591" viewBox="0 0 31.279 25.591">
  <path id="np_wallet_1090223_000000" d="M21.342,23A5.059,5.059,0,0,0,17,28.153V44.3a3.931,3.931,0,0,0,4.176,4.295H43.985a4.136,4.136,0,0,0,4.295-4.236V32.892a4.253,4.253,0,0,0-1.91-3.658A13.279,13.279,0,0,0,45.881,25a2.965,2.965,0,0,0-2.829-2Zm0,2.843H43.052c.226.026.2.3.237.474H20.512A1.393,1.393,0,0,1,21.342,25.843Zm-1.229,2.37H43.5c.007.157.009.3.015.474H21.267a7.237,7.237,0,0,1-1.155-.474Zm23.473,9h1.851V40.06h-1.9a2.25,2.25,0,0,1-1.511-.429,1.126,1.126,0,0,1-.385-.963,1.236,1.236,0,0,1,.385-1.037,2.338,2.338,0,0,1,1.555-.415Zm-.518.474a.948.948,0,1,0,.948.948A.947.947,0,0,0,43.067,37.691Z" transform="translate(-17.001 -22.999)" fill="#fff"/>
</svg>
