<svg xmlns="http://www.w3.org/2000/svg" width="44.722" height="47.365" viewBox="0 0 44.722 47.365">
  <g id="np_website_1939503_FFFFFF" transform="translate(-2.781 0)">
    <path id="Path_172" data-name="Path 172" d="M57.988,44.512V68.335l6.135-6.128,4.452,8.587,3.236-1.676-4.287-8.261H75.8Z" transform="translate(-29.058 -23.428)" fill="#fff"/>
    <path id="Path_173" data-name="Path 173" d="M47.262,25.465c.043-.313.094-.625.128-.947.07-.716.113-1.421.113-2.168s-.037-1.421-.1-2.113c-.033-.37-.094-.729-.146-1.09-.037-.255-.061-.516-.1-.768h0a22.351,22.351,0,0,0-18-18c-.322-.072-.62-.1-.914-.142s-.64-.1-.947-.133c-.72-.067-1.425-.1-2.141-.1s-1.421.037-2.122.1c-.327.033-.644.085-.947.133s-.6.067-.886.118a22.351,22.351,0,0,0-18,18c-.048.27-.07.55-.113.823s-.152.716-.194,1.062c-.067.7-.1,1.421-.1,2.117s.037,1.421.1,2.113c.033.364.094.716.146,1.075.037.261.061.525.109.786a22.351,22.351,0,0,0,18,18c.274.048.555.076.829.113s.683.1,1.032.137c.7.067,1.421.1,2.113.1h.067v-5.21l-.033,0a17.055,17.055,0,0,1-2.927-.27,45.558,45.558,0,0,1-1.81-8.824c1.539.094,3.127.152,4.737.152h.067V27.554h-.067c-1.785,0-3.462-.061-5.031-.167-.109-1.567-.179-3.23-.179-5.031s.061-3.462.167-5.034c1.573-.1,3.249-.167,5.034-.167s3.458.061,5.025.167v.27a3.635,3.635,0,0,1,1.254.753l1.834,1.682c-.024-.823-.07-1.625-.124-2.426h0a45.773,45.773,0,0,1,8.9,1.819,17.445,17.445,0,0,1,.265,2.927,17.014,17.014,0,0,1-.255,2.923c-.7.231-1.454.474-2.3.673l1.752,1.606,4.13,3.789v0a22.143,22.143,0,0,0,1.506-5,8.177,8.177,0,0,0,.139-.875ZM18.843,6.433v0a54.239,54.239,0,0,0-1.451,8.158,53.857,53.857,0,0,0-8.15,1.445,17.225,17.225,0,0,1,9.581-9.6Zm0,31.853v0a17.221,17.221,0,0,1-9.621-9.6,54.162,54.162,0,0,0,8.152,1.449,54.389,54.389,0,0,0,1.445,8.152ZM17.122,27.111a45.633,45.633,0,0,1-8.857-1.822,16.159,16.159,0,0,1,0-5.86,45.636,45.636,0,0,1,8.857-1.822c-.094,1.539-.152,3.127-.152,4.737s.057,3.234.152,4.768Zm8.024-12.929c-1.624,0-3.212.052-4.737.146a45.637,45.637,0,0,1,1.824-8.857,16.046,16.046,0,0,1,5.854,0,45.636,45.636,0,0,1,1.795,8.863c-1.525-.1-3.112-.152-4.737-.152Zm7.764.4v0a54.407,54.407,0,0,0-1.445-8.156,17.22,17.22,0,0,1,9.606,9.606,54.018,54.018,0,0,0-8.161-1.451Z" fill="#fff"/>
  </g>
</svg>
