<svg id="np_company_2754578_000000" xmlns="http://www.w3.org/2000/svg" width="18.421" height="16.721" viewBox="0 0 18.421 16.721">
  <g id="Path_705" data-name="Path 705" transform="translate(-3.473 -9.028)" fill="#ff7a09">
    <path d="M 21.4677906036377 25.64865684509277 L 3.89747142791748 25.64865684509277 C 3.721391439437866 25.64864730834961 3.572631597518921 25.49988746643066 3.572631597518921 25.32381629943848 L 3.572631597518921 11.72039699554443 C 3.572631597518921 11.63412666320801 3.606791496276855 11.55211639404297 3.668831586837769 11.48946666717529 L 5.93524169921875 9.223056793212891 C 5.997041702270508 9.161886215209961 6.078781604766846 9.127996444702148 6.165031433105469 9.127996444702148 L 21.46858215332031 9.127996444702148 C 21.64466094970703 9.127996444702148 21.79341125488281 9.27674674987793 21.79341125488281 9.452826499938965 L 21.79261207580566 25.32381629943848 C 21.79261207580566 25.49990653991699 21.64386177062988 25.64865684509277 21.4677906036377 25.64865684509277 Z M 16.12561225891113 9.77846622467041 L 16.12561225891113 9.878466606140137 L 16.12561225891113 24.89818572998047 L 16.12561225891113 24.9981861114502 L 16.22561073303223 24.9981861114502 L 21.04296112060547 24.9981861114502 L 21.1429615020752 24.9981861114502 L 21.1429615020752 24.89818572998047 L 21.1429615020752 9.878466606140137 L 21.1429615020752 9.77846622467041 L 21.04296112060547 9.77846622467041 L 16.22561073303223 9.77846622467041 L 16.12561225891113 9.77846622467041 Z M 8.190201759338379 22.81429672241211 L 8.190201759338379 22.91429710388184 L 8.190201759338379 24.89818572998047 L 8.190201759338379 24.9981861114502 L 8.290201187133789 24.9981861114502 L 11.40743160247803 24.9981861114502 L 11.50743198394775 24.9981861114502 L 11.50743198394775 24.89818572998047 L 11.50743198394775 22.91429710388184 L 11.50743198394775 22.81429672241211 L 11.40743160247803 22.81429672241211 L 8.290201187133789 22.81429672241211 L 8.190201759338379 22.81429672241211 Z M 12.15864181518555 22.16296577453613 L 12.15864181518555 24.89738655090332 L 12.15864181518555 24.99738693237305 L 12.25864124298096 24.99738693237305 L 15.3758716583252 24.99738693237305 L 15.47587108612061 24.99738693237305 L 15.47587108612061 24.89738655090332 L 15.47587108612061 9.877676963806152 L 15.47587108612061 9.777676582336426 L 15.3758716583252 9.777676582336426 L 6.341261386871338 9.777676582336426 L 6.299841403961182 9.777676582336426 L 6.270551681518555 9.806966781616211 L 4.252401351928711 11.82511711120605 L 4.223111629486084 11.85440635681152 L 4.223111629486084 11.89583683013916 L 4.224051475524902 24.89739608764648 L 4.224061489105225 24.99738693237305 L 4.324051380157471 24.99738693237305 L 7.441281318664551 24.99738693237305 L 7.541281700134277 24.99738693237305 L 7.541281700134277 24.89738655090332 L 7.541281700134277 22.16296577453613 L 12.15864181518555 22.16296577453613 Z" stroke="none"/>
    <path d="M 21.4677906036377 25.54865646362305 C 21.58966064453125 25.54865646362305 21.69261169433594 25.4456958770752 21.69261169433594 25.32381629943848 L 21.69341087341309 9.452826499938965 C 21.69341087341309 9.33095645904541 21.59045219421387 9.227996826171875 21.46858215332031 9.227996826171875 L 6.165031433105469 9.227996826171875 C 6.105301380157471 9.227996826171875 6.048551559448242 9.251606941223145 6.005951404571533 9.293766975402832 L 3.739891529083252 11.55982685089111 C 3.696521520614624 11.6036262512207 3.672631502151489 11.66065692901611 3.672631502151489 11.72039699554443 L 3.672631502151489 25.32381629943848 C 3.672631502151489 25.44568634033203 3.775601625442505 25.54864692687988 3.89747142791748 25.54865646362305 L 21.4677906036377 25.54865646362305 M 16.02561187744141 9.678466796875 L 16.22561073303223 9.678466796875 L 21.04296112060547 9.678466796875 L 21.24296188354492 9.678466796875 L 21.24296188354492 9.878466606140137 L 21.24296188354492 24.89818572998047 L 21.24296188354492 25.09818649291992 L 21.04296112060547 25.09818649291992 L 16.22561073303223 25.09818649291992 L 16.02561187744141 25.09818649291992 L 16.02561187744141 24.89818572998047 L 16.02561187744141 9.878466606140137 L 16.02561187744141 9.678466796875 M 8.090201377868652 22.71429634094238 L 8.290201187133789 22.71429634094238 L 11.40743160247803 22.71429634094238 L 11.60743141174316 22.71429634094238 L 11.60743141174316 22.91429710388184 L 11.60743141174316 24.89818572998047 L 11.60743141174316 25.09818649291992 L 11.40743160247803 25.09818649291992 L 8.290201187133789 25.09818649291992 L 8.090201377868652 25.09818649291992 L 8.090201377868652 24.89818572998047 L 8.090201377868652 22.91429710388184 L 8.090201377868652 22.71429634094238 M 12.05864143371582 22.26296615600586 L 7.641281604766846 22.26296615600586 L 7.641281604766846 24.89738655090332 L 7.641281604766846 25.09738731384277 L 7.441281318664551 25.09738731384277 L 4.324051380157471 25.09738731384277 L 4.124061584472656 25.09738731384277 L 4.124051570892334 24.89739608764648 L 4.123111724853516 11.89583683013916 L 4.123101711273193 11.81298637390137 L 4.181691646575928 11.75440692901611 L 6.199841499328613 9.73625659942627 L 6.258421421051025 9.677676200866699 L 6.341261386871338 9.677676200866699 L 15.3758716583252 9.677676200866699 L 15.57587146759033 9.677676200866699 L 15.57587146759033 9.877676963806152 L 15.57587146759033 24.89738655090332 L 15.57587146759033 25.09738731384277 L 15.3758716583252 25.09738731384277 L 12.25864124298096 25.09738731384277 L 12.05864143371582 25.09738731384277 L 12.05864143371582 24.89738655090332 L 12.05864143371582 22.26296615600586 M 21.4677906036377 25.7486572265625 L 3.89747142791748 25.7486572265625 L 3.897461652755737 25.7486457824707 C 3.665521621704102 25.7486457824707 3.472631454467773 25.55576705932617 3.472631454467773 25.32381629943848 L 3.472631454467773 11.72039699554443 C 3.472631454467773 11.60721683502197 3.518061637878418 11.49960708618164 3.597771644592285 11.41910648345947 L 5.864531517028809 9.152346611022949 C 5.944251537322998 9.073436737060547 6.051851749420166 9.027997016906738 6.165031433105469 9.027997016906738 L 21.46858215332031 9.027997016906738 C 21.70052146911621 9.027997016906738 21.89341163635254 9.220087051391602 21.89341163635254 9.452826499938965 L 21.89261245727539 25.32382583618164 C 21.89261245727539 25.55576705932617 21.70052146911621 25.7486572265625 21.4677906036377 25.7486572265625 Z M 16.22561073303223 9.878466606140137 L 16.22561073303223 24.89818572998047 L 21.04296112060547 24.89818572998047 L 21.04296112060547 9.878466606140137 L 16.22561073303223 9.878466606140137 Z M 8.290201187133789 22.91429710388184 L 8.290201187133789 24.89818572998047 L 11.40743160247803 24.89818572998047 L 11.40743160247803 22.91429710388184 L 8.290201187133789 22.91429710388184 Z M 7.441281318664551 22.06296730041504 L 12.25864124298096 22.06296730041504 L 12.25864124298096 24.89738655090332 L 15.3758716583252 24.89738655090332 L 15.3758716583252 9.877676963806152 L 6.341261386871338 9.877676963806152 L 4.323111534118652 11.89582633972168 L 4.324051380157471 24.89738655090332 L 7.441281318664551 24.89738655090332 L 7.441281318664551 22.06296730041504 Z" stroke="none" fill="#ff7a09"/>
  </g>
  <path id="Path_706" data-name="Path 706" d="M74.3,24.3h1.417v1.417H74.3Z" transform="translate(-59.852 -21.188)" fill="#ff7a09" stroke="#ff7a09" stroke-width="0.2"/>
  <path id="Path_707" data-name="Path 707" d="M74.3,57.641h1.417v1.417H74.3Z" transform="translate(-59.852 -47.722)" fill="#ff7a09" stroke="#ff7a09" stroke-width="0.2"/>
  <path id="Path_708" data-name="Path 708" d="M74.3,35.418h1.417v1.417H74.3Z" transform="translate(-59.852 -30.033)" fill="#ff7a09" stroke="#ff7a09" stroke-width="0.2"/>
  <path id="Path_709" data-name="Path 709" d="M74.3,46.527h1.417v1.417H74.3Z" transform="translate(-59.852 -38.875)" fill="#ff7a09" stroke="#ff7a09" stroke-width="0.2"/>
  <path id="Path_710" data-name="Path 710" d="M15.973,57.641h.85v1.417h-.85Z" transform="translate(-13.422 -47.722)" fill="#ff7a09" stroke="#ff7a09" stroke-width="0.2"/>
  <path id="Path_711" data-name="Path 711" d="M33.491,47.249V45.832h-.85v1.559h.85Z" transform="translate(-26.689 -38.322)" fill="#ff7a09" stroke="#ff7a09" stroke-width="0.2"/>
  <path id="Path_712" data-name="Path 712" d="M32.641,57.641h.85v1.417h-.85Z" transform="translate(-26.689 -47.722)" fill="#ff7a09" stroke="#ff7a09" stroke-width="0.2"/>
  <path id="Path_713" data-name="Path 713" d="M49.3,57.641h.85v1.417H49.3Z" transform="translate(-39.953 -47.722)" fill="#ff7a09" stroke="#ff7a09" stroke-width="0.2"/>
  <path id="Path_714" data-name="Path 714" d="M50.155,47.249V45.832H49.3v1.559h.85Z" transform="translate(-39.953 -38.322)" fill="#ff7a09" stroke="#ff7a09" stroke-width="0.2"/>
  <path id="Path_715" data-name="Path 715" d="M15.973,45.974v1.417h.85V45.832h-.85Z" transform="translate(-13.422 -38.322)" fill="#ff7a09" stroke="#ff7a09" stroke-width="0.2"/>
  <path id="Path_716" data-name="Path 716" d="M15.973,34.723h.85V36.14h-.85Z" transform="translate(-13.422 -29.48)" fill="#ff7a09" stroke="#ff7a09" stroke-width="0.2"/>
  <path id="Path_717" data-name="Path 717" d="M32.641,34.723h.85V36.14h-.85Z" transform="translate(-26.689 -29.48)" fill="#ff7a09" stroke="#ff7a09" stroke-width="0.2"/>
  <path id="Path_718" data-name="Path 718" d="M49.3,34.723h.85V36.14H49.3Z" transform="translate(-39.953 -29.48)" fill="#ff7a09" stroke="#ff7a09" stroke-width="0.2"/>
</svg>
