<svg xmlns="http://www.w3.org/2000/svg" width="17.469" height="17.471" viewBox="0 0 17.469 17.471">
  <path id="surface1" d="M10.2,2a.379.379,0,0,0-.376.311L9.615,3.448a3.92,3.92,0,0,0-.519.21l-.933-.674a.377.377,0,0,0-.488.038l-.812.8a.381.381,0,0,0-.044.487l.656.95a3.556,3.556,0,0,0-.217.517L6.12,5.959a.378.378,0,0,0-.319.372l-.007,1.14a.379.379,0,0,0,.311.376l1.141.208a3.7,3.7,0,0,0,.211.515l-.678.938a.381.381,0,0,0,.037.49l.8.81a.378.378,0,0,0,.485.044l.961-.662a3.651,3.651,0,0,0,.512.212l.2,1.151a.38.38,0,0,0,.372.318l1.138.006a.38.38,0,0,0,.377-.316l.194-1.15a3.573,3.573,0,0,0,.508-.208l.954.678a.38.38,0,0,0,.487-.04l.812-.8a.382.382,0,0,0,.042-.491l-.677-.95a3.622,3.622,0,0,0,.213-.5l1.156-.2a.382.382,0,0,0,.316-.374l.006-1.138a.378.378,0,0,0-.316-.376l-1.146-.194A3.913,3.913,0,0,0,14,5.3l.674-.951a.376.376,0,0,0-.039-.486l-.8-.811a.381.381,0,0,0-.49-.042l-.94.669a3.7,3.7,0,0,0-.509-.214l-.184-1.143a.381.381,0,0,0-.374-.32Zm.315.761.5,0,.165,1.027a.378.378,0,0,0,.28.307,2.953,2.953,0,0,1,.8.338.377.377,0,0,0,.417-.013l.847-.6.351.353-.61.855a.382.382,0,0,0-.016.414,2.86,2.86,0,0,1,.325.8.384.384,0,0,0,.307.288l1.031.174,0,.5-1.042.175a.384.384,0,0,0-.306.282,2.851,2.851,0,0,1-.334.792.38.38,0,0,0,.016.419l.607.856-.352.349-.862-.612a.378.378,0,0,0-.414-.016,2.917,2.917,0,0,1-.8.325.378.378,0,0,0-.285.306l-.175,1.036-.5,0-.175-1.039a.378.378,0,0,0-.285-.3,2.93,2.93,0,0,1-.8-.333.378.378,0,0,0-.413.013l-.865.6-.35-.354.61-.843A.38.38,0,0,0,8.21,8.43a2.961,2.961,0,0,1-.328-.8.383.383,0,0,0-.3-.285L6.554,7.156l0-.5,1.022-.165a.38.38,0,0,0,.309-.282,2.9,2.9,0,0,1,.337-.8.378.378,0,0,0-.012-.414L7.626,4.14l.353-.35.84.606a.381.381,0,0,0,.416.021,2.9,2.9,0,0,1,.807-.329.377.377,0,0,0,.285-.3Zm.213,2.291a1.9,1.9,0,1,0,1.345.564A1.895,1.895,0,0,0,10.727,5.052Zm0,.755a1.154,1.154,0,1,1-.813.334,1.137,1.137,0,0,1,.813-.334ZM6.713,11.877a4.429,4.429,0,0,0-1.941.427v0c-.945.368-2.563,1.13-2.563,1.13a.381.381,0,1,0,.325.689s1.628-.767,2.512-1.111a3.465,3.465,0,0,1,1.666-.377c1.948,0,1.87.846,2.692,1.33a.151.151,0,0,0,.038.019,7.336,7.336,0,0,0,3,.551,1.285,1.285,0,0,1,.77.191.421.421,0,0,1,.18.378.41.41,0,0,1-.182.392,1.347,1.347,0,0,1-.767.178H10.447a12.361,12.361,0,0,1-2.278-.368.381.381,0,1,0-.193.736,11.611,11.611,0,0,0,2.471.392h1.994a2.251,2.251,0,0,0,1.006-.2.334.334,0,0,0,.1-.049l3.6-2.364a2.388,2.388,0,0,1,1.128-.4.39.39,0,0,1,.356.153.242.242,0,0,1,.04.316,1.687,1.687,0,0,1-.583.6h0c-.413.288-5.026,3.294-5.559,3.6a5.343,5.343,0,0,1-1.085.571,2.021,2.021,0,0,1-1.5-.237c-.474-.227-2.489-1.26-3.142-1.591a1.951,1.951,0,0,0-.99-.27,1.8,1.8,0,0,0-.864.328,0,0,0,0,0,0,0l-.941.6a.38.38,0,1,0,.409.64l.936-.6a1.111,1.111,0,0,1,.5-.213,1.247,1.247,0,0,1,.606.19c.647.328,2.631,1.346,3.157,1.6a2.86,2.86,0,0,0,2.032.285,5.185,5.185,0,0,0,1.257-.642c.733-.417,5.088-3.266,5.618-3.634a2.278,2.278,0,0,0,.847-.923,1.089,1.089,0,0,0-.138-1.083v0a1.226,1.226,0,0,0-.942-.445,2.238,2.238,0,0,0-.8.159,1.216,1.216,0,0,0-.252-.251,1.748,1.748,0,0,0-1.051-.313,1.549,1.549,0,0,0-.606.123,1.749,1.749,0,0,0-1.222-.5,2.508,2.508,0,0,0-1.238.344c-.058.034-.2.122-.435.27s-.547.34-.853.532c-.488.3-.791.494-.966.6a5.323,5.323,0,0,1-1.1-.334,3.64,3.64,0,0,0-3.063-1.423Zm7.651.767a1.038,1.038,0,0,1,.534.132l-1.757,1.089a2.569,2.569,0,0,0-.7-.089c-.11,0-.23-.008-.344-.012l.144-.089.853-.533c.237-.147.432-.267.418-.26A2.024,2.024,0,0,1,14.364,12.644Zm1.828.372a.961.961,0,0,1,.576.148l-.016.011L14.127,14.9a1.24,1.24,0,0,0-.263-.585L15.7,13.173l0,0a1.7,1.7,0,0,1,.491-.154Z" transform="translate(-1.991 -2)" fill="#ff7a09"/>
</svg>