<svg xmlns="http://www.w3.org/2000/svg" width="17.429" height="17.244" viewBox="0 0 17.429 17.244">
  <g id="Mortgage" transform="translate(0.199 0.2)">
    <g id="Path_54074" data-name="Path 54074" transform="translate(-2.852 -3.02)" fill="#ff7a09">
      <path d="M 6.194435119628906 19.96348762512207 C 6.007695198059082 19.96348762512207 5.819765090942383 19.94596672058105 5.635855197906494 19.91140747070312 C 4.553464889526367 19.70799827575684 3.667074918746948 18.93181800842285 3.322594881057739 17.88575744628906 C 2.982216119766235 16.85220146179199 3.223829984664917 15.71628475189209 3.952795028686523 14.91111183166504 L 3.952795028686523 9.038394927978516 C 3.952151298522949 9.038395881652832 3.951507806777954 9.038397789001465 3.950865030288696 9.038397789001465 C 3.326084852218628 9.038397789001465 3.102415084838867 8.530167579650879 2.92269492149353 8.121797561645508 C 2.897034883499146 8.063488006591797 2.871665000915527 8.005807876586914 2.845545053482056 7.950127601623535 C 2.735374927520752 7.717257499694824 2.722224950790405 7.444347858428955 2.809594869613647 7.201677799224854 C 2.896955013275146 6.95899772644043 3.081034898757935 6.757097721099854 3.314645051956177 6.647737503051758 L 11.20776462554932 2.958447694778442 C 11.2139253616333 2.955597639083862 11.218825340271 2.952837705612183 11.22348499298096 2.95027756690979 C 11.24566459655762 2.938117742538452 11.27919483184814 2.919727563858032 11.33210468292236 2.919727563858032 C 11.49066543579102 2.919727563858032 11.78315544128418 3.057387590408325 14.58120536804199 4.374317646026611 C 15.72267532348633 4.911567687988281 17.28597450256348 5.647347450256348 19.41650581359863 6.64481782913208 C 19.65042495727539 6.753457546234131 19.83521461486816 6.955077648162842 19.92321586608887 7.197837829589844 C 20.01121520996094 7.440597534179688 19.99854469299316 7.71378755569458 19.88845443725586 7.947367668151855 C 19.86556434631348 7.997037887573242 19.84295463562012 8.047957420349121 19.82042503356934 8.098688125610352 C 19.61644744873047 8.55797004699707 19.40546607971191 9.032917976379395 18.78777313232422 9.032917976379395 C 18.78773498535156 9.032917976379395 18.78775215148926 9.032917976379395 18.78771591186523 9.032917976379395 C 18.78557014465332 9.032917022705078 18.78341865539551 9.032910346984863 18.78126525878906 9.03289794921875 L 18.78126525878906 17.92306709289551 C 18.78126525878906 18.46178817749023 18.34298515319824 18.90006828308105 17.80426406860352 18.90006828308105 L 8.496203422546387 18.90007781982422 C 7.920514583587646 19.57654190063477 7.084364414215088 19.96348762512207 6.194435119628906 19.96348762512207 Z M 6.124754905700684 14.80733776092529 L 6.111434936523438 14.80737781524658 C 4.903305053710938 14.81453800201416 3.926305055618286 15.766037940979 3.887204885482788 16.97355842590332 C 3.848094940185547 18.18106842041016 4.76148509979248 19.19378852844238 5.966624736785889 19.27911758422852 C 6.019845008850098 19.28288841247559 6.073764801025391 19.28479766845703 6.126874923706055 19.28479766845703 C 7.269875049591064 19.28479766845703 8.225665092468262 18.4270076751709 8.350114822387695 17.28950691223145 C 8.419485092163086 16.65550804138184 8.214284896850586 16.02026748657227 7.787135124206543 15.54665756225586 C 7.363365173339844 15.07680797576904 6.757454872131348 14.80733776092529 6.124754905700684 14.80733776092529 Z M 17.02725410461426 18.11539840698242 L 17.80426406860352 18.11539840698242 C 17.91031455993652 18.11539840698242 17.99659538269043 18.02911758422852 17.99659538269043 17.92306709289551 L 17.99659538269043 8.780658721923828 L 16.39619445800781 8.021388053894043 C 16.30148506164551 7.977157592773438 16.22924423217773 7.898237705230713 16.19334411621094 7.799417495727539 C 16.15744590759277 7.700597763061523 16.16217422485352 7.593717575073242 16.2066650390625 7.498447895050049 C 16.27110481262207 7.360487461090088 16.41116523742676 7.271337509155273 16.56349563598633 7.271337509155273 C 16.62124443054199 7.271337509155273 16.67721557617188 7.283797740936279 16.72985458374023 7.308377742767334 L 18.67460441589355 8.235427856445312 C 18.70051574707031 8.247727394104004 18.72819519042969 8.253997802734375 18.7567253112793 8.253997802734375 C 18.83028411865234 8.253997802734375 18.89839553833008 8.211197853088379 18.93025588989258 8.144957542419434 L 19.17523574829102 7.617067813873291 C 19.19896507263184 7.5687575340271 19.20210456848145 7.514337539672852 19.1848258972168 7.465747833251953 C 19.16754531860352 7.417137622833252 19.1307544708252 7.376917839050293 19.08388519287109 7.355387687683105 L 11.37290382385254 3.747048139572144 L 3.659625053405762 7.358007907867432 C 3.565474987030029 7.403287887573242 3.524914979934692 7.51804780960083 3.570164918899536 7.613367557525635 C 3.620285034179688 7.721847534179688 3.660145044326782 7.812027454376221 3.693695068359375 7.887937545776367 C 3.811700820922852 8.154915809631348 3.840357065200806 8.209574699401855 3.912967920303345 8.239432334899902 C 4.167616367340088 8.221405029296875 6.193376541137695 7.256697177886963 7.824074745178223 6.480127811431885 C 10.1243953704834 5.384657859802246 11.23021507263184 4.86856746673584 11.43202495574951 4.86856746673584 C 11.44472503662109 4.86856746673584 11.45626449584961 4.869907855987549 11.46729469299316 4.872667789459229 C 11.50472450256348 4.875427722930908 11.50472450256348 4.875427722930908 12.65934467315674 5.415457725524902 C 13.04450511932373 5.595597743988037 13.56002521514893 5.83671760559082 14.25086498260498 6.159507751464844 C 14.34575462341309 6.20329761505127 14.41822528839111 6.281777858734131 14.454514503479 6.380277633666992 C 14.49080467224121 6.478777885437012 14.48657512664795 6.585517883300781 14.44258499145508 6.680827617645264 C 14.37855529785156 6.819557666778564 14.2384147644043 6.909197807312012 14.08557510375977 6.909197807312012 C 14.02852535247803 6.909197807312012 13.97317504882812 6.896997451782227 13.92106533050537 6.872957706451416 L 11.37292671203613 5.682296752929688 L 4.749165058135986 8.783940315246582 L 4.749165058135986 14.33172225952148 C 5.053711414337158 14.17718315124512 5.378735542297363 14.07712745666504 5.718504905700684 14.03342914581299 L 5.718504905700684 11.19934749603271 C 5.718504905700684 10.6606273651123 6.156785011291504 10.22234725952148 6.695515155792236 10.22234725952148 L 9.618865013122559 10.22234725952148 C 10.15759468078613 10.22234725952148 10.59587478637695 10.6606273651123 10.59587478637695 11.19934749603271 L 10.59587478637695 14.12270736694336 C 10.59587478637695 14.66142749786377 10.15759468078613 15.09970760345459 9.618865013122559 15.09970760345459 L 8.426435470581055 15.09970760345459 C 9.131816864013672 15.93933963775635 9.327033042907715 17.0865592956543 8.934723854064941 18.11539840698242 L 11.2728853225708 18.11539840698242 L 11.2728853225708 11.19934749603271 C 11.2728853225708 10.6606273651123 11.71116542816162 10.22234725952148 12.24988460540771 10.22234725952148 L 16.05024528503418 10.22234725952148 C 16.58897590637207 10.22234725952148 17.02725410461426 10.6606273651123 17.02725410461426 11.19934749603271 L 17.02725410461426 18.11539840698242 Z M 12.05755519866943 18.11539840698242 L 16.24258422851562 18.11539840698242 L 16.24258422851562 11.19934749603271 C 16.24258422851562 11.09329795837402 16.15630531311035 11.00701808929443 16.05024528503418 11.00701808929443 L 12.24988460540771 11.00701808929443 C 12.14383506774902 11.00701808929443 12.05755519866943 11.09329795837402 12.05755519866943 11.19934749603271 L 12.05755519866943 18.11539840698242 Z M 8.549525260925293 14.31503772735596 L 9.618865013122559 14.31503772735596 C 9.72492504119873 14.31503772735596 9.81120491027832 14.22875785827637 9.81120491027832 14.12270736694336 L 9.81120491027832 13.05336761474609 L 8.549525260925293 13.05336761474609 L 8.549525260925293 14.31503772735596 Z M 7.421421527862549 14.31503772735596 L 7.764854907989502 14.31503772735596 L 7.764854907989502 13.05336761474609 L 6.503174781799316 13.05336761474609 L 6.503174781799316 14.03735446929932 C 6.819601058959961 14.0912971496582 7.127968788146973 14.18453311920166 7.421421527862549 14.31503772735596 Z M 8.549525260925293 12.26868724822998 L 9.81120491027832 12.26868724822998 L 9.81120491027832 11.19934749603271 C 9.81120491027832 11.09329795837402 9.72492504119873 11.00701808929443 9.618865013122559 11.00701808929443 L 8.549525260925293 11.00701808929443 L 8.549525260925293 12.26868724822998 Z M 6.503174781799316 12.26868724822998 L 7.764854907989502 12.26868724822998 L 7.764854907989502 11.00701808929443 L 6.695515155792236 11.00701808929443 C 6.589455127716064 11.00701808929443 6.503174781799316 11.09329795837402 6.503174781799316 11.19934749603271 L 6.503174781799316 12.26868724822998 Z" stroke="none"/>
      <path d="M 11.332106590271 3.019723892211914 C 11.29499912261963 3.01971435546875 11.28042030334473 3.035045623779297 11.2501049041748 3.049037933349609 L 3.357044219970703 6.738307952880859 C 3.145814895629883 6.837187767028809 2.982675552368164 7.016118049621582 2.903684616088867 7.23554801940918 C 2.824684143066406 7.454977989196777 2.836345672607422 7.696837425231934 2.936075210571289 7.907657623291016 C 3.147434234619141 8.358171463012695 3.311285018920898 8.938393592834473 3.950864791870117 8.938393592834473 C 3.983610153198242 8.938393592834473 4.017482757568359 8.936880111694336 4.05279541015625 8.933747291564941 L 4.05279541015625 14.95001792907715 C 3.327795028686523 15.7301778793335 3.084434509277344 16.84288787841797 3.417564392089844 17.85447692871094 C 3.750705718994141 18.86605834960938 4.607624053955078 19.61642837524414 5.654325485229492 19.8131275177002 C 5.834356307983398 19.84695816040039 6.015102386474609 19.86348724365234 6.194437026977539 19.86348724365234 C 7.057771682739258 19.86348724365234 7.888444900512695 19.48039817810059 8.449524879455566 18.80007743835449 L 17.80426406860352 18.80006790161133 C 18.28862380981445 18.80006790161133 18.68126487731934 18.40742874145508 18.68126487731934 17.92306709289551 L 18.68126487731934 8.927907943725586 C 18.71815872192383 8.931275367736816 18.75365447998047 8.932913780212402 18.78771591186523 8.932913780212402 C 19.40410232543945 8.932913780212402 19.57082939147949 8.39783763885498 19.79799461364746 7.904727935791016 C 19.89753532409668 7.693547248840332 19.90876579284668 7.451397895812988 19.82920455932617 7.231917381286621 C 19.74963569641113 7.01242733001709 19.58584594726562 6.833727836608887 19.37410545349121 6.735387802124023 C 12.34723663330078 3.445539474487305 11.5275764465332 3.019775390625 11.332106590271 3.019723892211914 M 19.26594543457031 7.659167289733887 L 19.26593399047852 7.659167289733887 L 19.0203742980957 8.188297271728516 C 18.97006797790527 8.292901992797852 18.8655948638916 8.354001998901367 18.75672149658203 8.354001998901367 C 18.71470832824707 8.354001998901367 18.67204093933105 8.344904899597168 18.6315746307373 8.325697898864746 L 16.68753433227539 7.398987770080566 C 16.64735221862793 7.380220413208008 16.60508728027344 7.371334075927734 16.56348609924316 7.371334075927734 C 16.45297622680664 7.371334075927734 16.34712791442871 7.434030532836914 16.29727554321289 7.540767669677734 C 16.2286548614502 7.687697410583496 16.29213523864746 7.862427711486816 16.43905448913574 7.931037902832031 L 18.09659576416016 8.71741771697998 L 18.09659576416016 17.92306709289551 C 18.09659576416016 18.08451843261719 17.9657154083252 18.21539688110352 17.80426406860352 18.21539688110352 L 16.92725563049316 18.21539688110352 L 16.92725563049316 11.19934749603271 C 16.92725563049316 10.71499729156494 16.53460502624512 10.32234764099121 16.05024528503418 10.32234764099121 L 12.24988460540771 10.32234764099121 C 11.76552486419678 10.32234764099121 11.37288475036621 10.71499729156494 11.37288475036621 11.19934749603271 L 11.37288475036621 18.21539688110352 L 8.785715103149414 18.21539688110352 C 9.264204978942871 17.12449836730957 9.032904624938965 15.85236740112305 8.201045036315918 14.99970817565918 L 9.618865013122559 14.99970817565918 C 10.1032247543335 14.99970817565918 10.49587535858154 14.60705757141113 10.49587535858154 14.12270736694336 L 10.49587535858154 11.19934749603271 C 10.49587535858154 10.71499729156494 10.1032247543335 10.32234764099121 9.618865013122559 10.32234764099121 L 6.695514678955078 10.32234764099121 C 6.211154937744141 10.32234764099121 5.818504333496094 10.71499729156494 5.818504333496094 11.19934749603271 C 5.818504333496094 13.83808135986328 5.818504333496094 14.12158966064453 5.818504333496094 14.12158966064453 L 5.818504333496094 14.10036468505859 C 5.818504333496094 14.10036468505859 5.818504333496094 14.10591125488281 5.818504333496094 14.12270736694336 C 5.406244277954102 14.16335773468018 5.007495880126953 14.29195785522461 4.649164199829102 14.49981784820557 L 4.649164199829102 8.72034740447998 L 11.37288475036621 5.571897506713867 L 13.96297454833984 6.782157897949219 C 14.00272655487061 6.800504684448242 14.04448699951172 6.809196472167969 14.08557319641113 6.809196472167969 C 14.19633674621582 6.809196472167969 14.30232238769531 6.746086120605469 14.35178470611572 6.638917922973633 C 14.41958522796631 6.491996765136719 14.35545539855957 6.317916870117188 14.20853519439697 6.250106811523438 C 11.17409515380859 4.832286834716797 11.52197456359863 4.990148544311523 11.44304466247559 4.969676971435547 C 11.44006538391113 4.96893310546875 11.43638134002686 4.968563079833984 11.43202972412109 4.968563079833984 C 11.01562881469727 4.968563079833984 4.382007598876953 8.33968448638916 3.906288146972656 8.33968448638916 C 3.899141311645508 8.33968448638916 3.89341926574707 8.338929176330566 3.889095306396484 8.337388038635254 C 3.728305816650391 8.27891731262207 3.710765838623047 8.156137466430664 3.479824066162109 7.656248092651367 C 3.410844802856445 7.510917663574219 3.472244262695312 7.337157249450684 3.617214202880859 7.267437934875488 L 11.37288475036621 3.636627197265625 L 19.12561416625977 7.264517784118652 C 19.19729423522949 7.29743766784668 19.25262451171875 7.357917785644531 19.27904510498047 7.43223762512207 C 19.30547523498535 7.506547927856445 19.30074501037598 7.588387489318848 19.26594543457031 7.659167289733887 M 7.86485481262207 12.36868762969971 L 6.403175354003906 12.36868762969971 L 6.403175354003906 11.19934749603271 C 6.403175354003906 11.03789806365967 6.534055709838867 10.90701770782471 6.695514678955078 10.90701770782471 L 7.86485481262207 10.90701770782471 L 7.86485481262207 12.36868762969971 M 9.911205291748047 12.36868762969971 L 8.449524879455566 12.36868762969971 L 8.449524879455566 10.90701770782471 L 9.618865013122559 10.90701770782471 C 9.780324935913086 10.90701770782471 9.911205291748047 11.03789806365967 9.911205291748047 11.19934749603271 L 9.911205291748047 12.36868762969971 M 16.34258460998535 18.21539688110352 L 11.95755481719971 18.21539688110352 L 11.95755481719971 11.19934749603271 C 11.95755481719971 11.03789806365967 12.08843517303467 10.90701770782471 12.24988460540771 10.90701770782471 L 16.05024528503418 10.90701770782471 C 16.21170425415039 10.90701770782471 16.34258460998535 11.03789806365967 16.34258460998535 11.19934749603271 L 16.34258460998535 18.21539688110352 M 7.86485481262207 14.41503810882568 L 7.400045394897461 14.41503810882568 C 7.082904815673828 14.27185726165771 6.747405052185059 14.17347812652588 6.403175354003906 14.12270736694336 L 6.403175354003906 12.95336723327637 L 7.86485481262207 12.95336723327637 L 7.86485481262207 14.41503810882568 M 9.618865013122559 14.41503810882568 L 8.449524879455566 14.41503810882568 L 8.449524879455566 12.95336723327637 L 9.911205291748047 12.95336723327637 L 9.911205291748047 14.12270736694336 C 9.911205291748047 14.28415775299072 9.780324935913086 14.41503810882568 9.618865013122559 14.41503810882568 M 6.12687873840332 19.38479614257812 C 6.071407318115234 19.38479614257812 6.015727996826172 19.38284301757812 5.959564208984375 19.37886810302734 C 4.705924987792969 19.29010772705078 3.746574401855469 18.22643661499023 3.787254333496094 16.97031784057617 C 3.827934265136719 15.71420764923096 4.854095458984375 14.71482753753662 6.110845565795898 14.70737743377686 C 6.115444183349609 14.707350730896 6.120159149169922 14.70733642578125 6.124755859375 14.70733642578125 C 6.786676406860352 14.70733642578125 7.417776107788086 14.98782348632812 7.861394882202148 15.47968769073486 C 8.308085441589355 15.97495746612549 8.522065162658691 16.63738822937012 8.449524879455566 17.30038833618164 C 8.318948745727539 18.49373817443848 7.309615135192871 19.38479614257812 6.12687873840332 19.38479614257812 M 11.33206462860107 2.819726943969727 L 11.33211517333984 2.819726943969727 C 11.51307487487793 2.819778442382812 11.74814510345459 2.930418014526367 14.62597465515137 4.284877777099609 C 15.76706504821777 4.821937561035156 17.32982444763184 5.557456970214844 19.45890426635742 6.554258346557617 C 19.71651458740234 6.673896789550781 19.92021560668945 6.896147727966309 20.01723480224609 7.16375732421875 C 20.11423492431641 7.431367874145508 20.10026550292969 7.732517242431641 19.97890472412109 7.989997863769531 C 19.95658493041992 8.038467407226562 19.93416595458984 8.088967323303223 19.91181564331055 8.139277458190918 C 19.71471214294434 8.58308219909668 19.49251365661621 9.083310127258301 18.88126564025879 9.129465103149414 L 18.88126564025879 17.92306709289551 C 18.88126564025879 18.51692771911621 18.39812469482422 19.00006866455078 17.80426406860352 19.00006866455078 L 8.541959762573242 19.00007820129395 C 7.948393821716309 19.67715644836426 7.09827709197998 20.0634880065918 6.194435119628906 20.0634880065918 C 6.001514434814453 20.0634880065918 5.807365417480469 20.04538726806641 5.617385864257812 20.00968742370605 C 4.499204635620117 19.79955673217773 3.583494186401367 18.9976978302002 3.227605819702148 17.91703796386719 C 2.880044937133789 16.86162948608398 3.119943618774414 15.70286273956299 3.852794647216797 14.87291526794434 L 3.852794647216797 9.13443660736084 C 3.236732482910156 9.083587646484375 3.003639221191406 8.553974151611328 2.831174850463867 8.162087440490723 C 2.805845260620117 8.104517936706543 2.780794143676758 8.047567367553711 2.755014419555664 7.992608070373535 C 2.633695602416992 7.736157417297363 2.619194030761719 7.435317993164062 2.715505599975586 7.167798042297363 C 2.811805725097656 6.900287628173828 3.014734268188477 6.677717208862305 3.272254943847656 6.557167053222656 L 11.16541481018066 2.867847442626953 C 11.16973495483398 2.86585807800293 11.17261505126953 2.864128112792969 11.17540454864502 2.862598419189453 C 11.20271492004395 2.847618103027344 11.25355529785156 2.819726943969727 11.33206462860107 2.819726943969727 Z M 18.7567253112793 8.153997421264648 C 18.78486442565918 8.153997421264648 18.82156562805176 8.140237808227539 18.84013557434082 8.101607322692871 L 19.08451461791992 7.574977874755859 L 19.08546447753906 7.572937965393066 L 19.08646392822266 7.570927619934082 C 19.0973949432373 7.548697471618652 19.09890556335449 7.522577285766602 19.09060478210449 7.499258041381836 C 19.08230590820312 7.475907325744629 19.06464576721191 7.456597328186035 19.04214477539062 7.446268081665039 L 11.37289714813232 3.857450485229492 L 3.702014923095703 7.448567390441895 C 3.658245086669922 7.469627380371094 3.638784408569336 7.524727821350098 3.660505294799805 7.570487976074219 C 3.711345672607422 7.680507659912109 3.751424789428711 7.771187782287598 3.785165786743164 7.847507476806641 C 3.87188720703125 8.043727874755859 3.902990341186523 8.108183860778809 3.931734085083008 8.134206771850586 C 4.29664421081543 8.049307823181152 6.223670959472656 7.131596565246582 7.782054901123047 6.389436721801758 C 10.37744522094727 5.153417587280273 11.21955490112305 4.76856803894043 11.43202495574951 4.76856803894043 C 11.44951343536377 4.76856803894043 11.46652412414551 4.770271301269531 11.48272800445557 4.773637771606445 C 11.53500080108643 4.77918815612793 11.60350608825684 4.811229705810547 12.70170497894287 5.32487678527832 C 13.08685493469238 5.50501823425293 13.60237503051758 5.746128082275391 14.29319477081299 6.068906784057617 C 14.53915500640869 6.182428359985352 14.64728450775146 6.475908279418945 14.53338527679443 6.72271728515625 C 14.45306491851807 6.896747589111328 14.27729511260986 7.009197235107422 14.08557510375977 7.009197235107422 C 14.01393508911133 7.009197235107422 13.94448471069336 6.993907928466797 13.8791446685791 6.963747978210449 L 11.37297058105469 5.792701721191406 L 4.849164962768555 8.847538948059082 L 4.849164962768555 14.17349052429199 C 5.094640731811523 14.06451320648193 5.351970672607422 13.98863410949707 5.618505477905273 13.94671630859375 L 5.618505477905273 11.19934749603271 C 5.618505477905273 10.60548782348633 6.101644515991211 10.12234783172607 6.695514678955078 10.12234783172607 L 9.618865013122559 10.12234783172607 C 10.21273517608643 10.12234783172607 10.69587516784668 10.60548782348633 10.69587516784668 11.19934749603271 L 10.69587516784668 14.12270736694336 C 10.69587516784668 14.71656799316406 10.21273517608643 15.19970703125 9.618865013122559 15.19970703125 L 8.632038116455078 15.19970703125 C 9.226269721984863 16.0104866027832 9.393575668334961 17.05460548400879 9.076390266418457 18.0153980255127 L 11.17288494110107 18.0153980255127 L 11.17288494110107 11.19934749603271 C 11.17288494110107 10.60548782348633 11.65602493286133 10.12234783172607 12.24988460540771 10.12234783172607 L 16.05024528503418 10.12234783172607 C 16.64411544799805 10.12234783172607 17.12725448608398 10.60548782348633 17.12725448608398 11.19934749603271 L 17.12725448608398 18.0153980255127 L 17.80426406860352 18.0153980255127 C 17.85517501831055 18.0153980255127 17.8965950012207 17.97397804260254 17.8965950012207 17.92306709289551 L 17.8965950012207 8.843905448913574 L 16.35332489013672 8.111737251281738 C 16.23496437072754 8.05646800994873 16.14437484741211 7.957488059997559 16.0993537902832 7.83356761932373 C 16.05433464050293 7.709637641906738 16.06027603149414 7.575597763061523 16.11606597900391 7.456137657165527 C 16.19686508178711 7.283127784729004 16.37248611450195 7.171338081359863 16.56348419189453 7.171338081359863 C 16.63599395751953 7.171338081359863 16.70620536804199 7.186967849731445 16.77218437194824 7.217787742614746 L 18.71763610839844 8.145157814025879 C 18.72988510131836 8.150978088378906 18.74314498901367 8.153997421264648 18.7567253112793 8.153997421264648 Z M 7.664855003356934 11.10701751708984 L 6.695514678955078 11.10701751708984 C 6.644594192504883 11.10701751708984 6.603174209594727 11.1484375 6.603174209594727 11.19934749603271 L 6.603174209594727 12.16868782043457 L 7.664855003356934 12.16868782043457 L 7.664855003356934 11.10701751708984 Z M 9.711204528808594 12.16868782043457 L 9.711204528808594 11.19934749603271 C 9.711204528808594 11.1484375 9.669784545898438 11.10701751708984 9.618865013122559 11.10701751708984 L 8.649524688720703 11.10701751708984 L 8.649524688720703 12.16868782043457 L 9.711204528808594 12.16868782043457 Z M 16.14258575439453 18.0153980255127 L 16.14258575439453 11.19934749603271 C 16.14258575439453 11.1484375 16.10116577148438 11.10701751708984 16.05024528503418 11.10701751708984 L 12.24988460540771 11.10701751708984 C 12.198974609375 11.10701751708984 12.15755462646484 11.1484375 12.15755462646484 11.19934749603271 L 12.15755462646484 18.0153980255127 L 16.14258575439453 18.0153980255127 Z M 7.664855003356934 13.15336799621582 L 6.603174209594727 13.15336799621582 L 6.603174209594727 13.95387840270996 C 6.891669273376465 14.00943756103516 7.173166275024414 14.09699153900146 7.442511558532715 14.21503734588623 L 7.664855003356934 14.21503734588623 L 7.664855003356934 13.15336799621582 Z M 9.711204528808594 13.15336799621582 L 8.649524688720703 13.15336799621582 L 8.649524688720703 14.21503734588623 L 9.618865013122559 14.21503734588623 C 9.669784545898438 14.21503734588623 9.711204528808594 14.17361736297607 9.711204528808594 14.12270736694336 L 9.711204528808594 13.15336799621582 Z M 6.126874923706055 19.1847972869873 C 7.218754768371582 19.1847972869873 8.131805419921875 18.36532783508301 8.250715255737305 17.27863693237305 C 8.316974639892578 16.67295837402344 8.120944976806641 16.06608772277832 7.712875366210938 15.61363792419434 C 7.308034896850586 15.1647777557373 6.729185104370117 14.9073371887207 6.124755859375 14.9073371887207 L 6.112144470214844 14.90737724304199 C 4.957864761352539 14.91421699523926 4.024505615234375 15.82320785522461 3.987155914306641 16.97678756713867 C 3.949794769287109 18.13036727905273 4.822385787963867 19.09784698486328 5.973695755004883 19.17936706542969 C 6.024545669555664 19.18296813964844 6.076074600219727 19.1847972869873 6.126874923706055 19.1847972869873 Z" stroke="none" fill="#ff7a09"/>
    </g>
    <path id="Path_54075" data-name="Path 54075" d="M21.21,15.867l-.368-.172a.293.293,0,1,0-.246.532l.368.172a.293.293,0,0,0,.246-.532Zm-.456,7.5v.585a.292.292,0,1,0,.585,0v-.585a.292.292,0,0,0-.585,0Zm-9.209,2.046h.731a.292.292,0,1,0,0-.585h-.292v-.292a.292.292,0,1,0-.585,0v.292a.734.734,0,1,0,.146,1.462c.2,0,.439-.047.439.146a.146.146,0,0,1-.146.146h-.731a.292.292,0,1,0,0,.585H11.4v.292a.292.292,0,1,0,.585,0v-.292a.734.734,0,0,0-.146-1.462h-.292a.146.146,0,0,1,0-.292Z" transform="translate(-8.432 -11.97)" fill="#ff7a09"/>
  </g>
</svg>
