<svg xmlns="http://www.w3.org/2000/svg" width="15.663" height="18.442" viewBox="0 0 15.663 18.442">
  <g id="Group_5752" data-name="Group 5752" transform="translate(0.1 0.1)">
    <path id="Path_54080" data-name="Path 54080" d="M58.638,36.676a.57.57,0,0,0-.57-.57H49.517a.57.57,0,0,0-.57.57v5.416a.57.57,0,0,0,.57.57h8.551a.57.57,0,0,0,.57-.57Zm-9.121,5.416V36.676h8.551v5.416ZM58.148,31.67a.739.739,0,0,0-.647-.083l-7.91,1.476c-.389.073-.723.275-.693.713a.342.342,0,0,0,.011.107q.077.553.2,1.1a.867.867,0,0,0,.2.438.636.636,0,0,0,.586.084L57.926,34c.227-.043.486-.108.584-.316a.713.713,0,0,0,.031-.381,9.473,9.473,0,0,0-.227-1.283A.7.7,0,0,0,58.148,31.67ZM50.32,34.843l-.646.121-.228-1.291.874-.162ZM51.6,34.6l-.713.133V33.4l.713-.133Zm1.283-.239-.713.133V33.163l.713-.133Zm1.283-.239-.713.133V32.924l.713-.133Zm1.283-.239-.713.133V32.684l.713-.133Zm1.283-.239-.713.133V32.445l.713-.133Zm.57-.107V32.206l.467-.087L58,33.41Z" transform="translate(-43.175 -27.056)" fill="#ff7a09" stroke="#ff7a09" stroke-width="0.2"/>
    <path id="Path_54081" data-name="Path 54081" d="M75.457,93.5H72.535a.285.285,0,0,0,0,.57h2.922a.285.285,0,0,0,0-.57Z" transform="translate(-63.2 -80.175)" fill="#ff7a09" stroke="#ff7a09" stroke-width="0.2"/>
    <path id="Path_54082" data-name="Path 54082" d="M90.75,56.187v.381h.57V56.08Z" transform="translate(-79.064 -48.087)" fill="#ff7a09" stroke="#ff7a09" stroke-width="0.2"/>
    <path id="Path_54083" data-name="Path 54083" d="M9.874,18.239H20.721a.285.285,0,0,0,.285-.285V16.173h-.57v1.5H11.6V2.563h8.836V4.441l.57-.107v-2.3h0a.285.285,0,0,0-.235-.325c-1.334-.241-1.568-.59-1.609-.73-.064-.227.211-.48.217-.486A.285.285,0,0,0,19.17,0H10.058A1.3,1.3,0,0,0,8.75,1.28a1.261,1.261,0,0,0,.009.143H8.75V17.1a1.13,1.13,0,0,0,1.124,1.14ZM10.058.568h8.594a.886.886,0,0,0-.033.57c.1.361.428.644,1,.855H10.068A.727.727,0,0,1,9.33,1.28.727.727,0,0,1,10.058.568ZM9.32,2.338a1.32,1.32,0,0,0,.738.225h.972V17.669H9.874a.562.562,0,0,1-.554-.57Z" transform="translate(-8.75 0.003)" fill="#ff7a09" stroke="#ff7a09" stroke-width="0.2"/>
  </g>
</svg>
