<svg id="np_registration_2018816_000000" xmlns="http://www.w3.org/2000/svg" width="35.948" height="35.948" viewBox="0 0 35.948 35.948">
  <path id="Path_719" data-name="Path 719" d="M45.006,21.2a6.486,6.486,0,0,0,1.645-4.248,6.374,6.374,0,0,0-10.6-4.75,18.529,18.529,0,0,0-7.4-1.552,18,18,0,1,0,16.4,10.688c0-.046-.046-.093-.046-.137ZM28.653,44.723a16.089,16.089,0,0,1-8.907-2.65,2,2,0,0,1,.046-.228,8.86,8.86,0,1,1,17.721,0,.339.339,0,0,0,.046.228,16.088,16.088,0,0,1-8.907,2.65ZM24.633,26.68a4.02,4.02,0,1,1,8.04,0,3.966,3.966,0,0,1-3.517,3.974c-.182,0-.319.046-.5.046a1.858,1.858,0,0,1-.5-.046A4,4,0,0,1,24.633,26.68ZM39.707,40.337a11.219,11.219,0,0,0-6.989-8.907,6.216,6.216,0,0,0,2.237-4.75,6.3,6.3,0,0,0-12.606-.047,6.24,6.24,0,0,0,2.237,4.8A11.221,11.221,0,0,0,17.6,40.337,16.124,16.124,0,0,1,28.653,12.474a16.507,16.507,0,0,1,6.166,1.233,6.5,6.5,0,0,0-.867,3.244A6.364,6.364,0,0,0,40.3,23.3a6.091,6.091,0,0,0,3.244-.914A15.869,15.869,0,0,1,44.777,28.6a16.127,16.127,0,0,1-5.071,11.739ZM40.3,21.518A4.521,4.521,0,1,1,44.822,17,4.5,4.5,0,0,1,40.3,21.518Z" transform="translate(-10.704 -10.602)" fill="#fff"/>
  <path id="Path_720" data-name="Path 720" d="M74.92,21.185a.915.915,0,0,1-.914.914H73v1a.914.914,0,1,1-1.827,0v-1h-.96a.914.914,0,0,1,0-1.827h.96v-.96a.914.914,0,0,1,1.827,0v.96h1A.916.916,0,0,1,74.92,21.185Z" transform="translate(-42.535 -14.837)" fill="#fff"/>
</svg>
