<svg xmlns="http://www.w3.org/2000/svg" width="43.038" height="25.316" viewBox="0 0 43.038 25.316">
  <g id="Group_155" data-name="Group 155" transform="translate(-240 -211.647)">
    <g id="Union_87" data-name="Union 87" transform="translate(-5242.522 315.929)" >
      <path d="M5494.439-81.983c-.7.055-1.42.082-2.138.082-4.969,0-9.937-1.317-9.775-3.952.309-5.041,1.9-6.248,6.539-6.607a3.989,3.989,0,0,0,6.475,0c3.614.28,5.378,1.075,6.127,3.8a3.912,3.912,0,0,0,4.751-.012c.751-2.711,2.517-3.5,6.125-3.782a3.991,3.991,0,0,0,6.475,0c4.637.358,6.229,1.566,6.539,6.605.185,3.015-6.349,4.305-11.912,3.87-.92,2.011-5.262,3.017-9.6,3.017S5495.359-79.973,5494.439-81.983Zm4.683-14.388c-.373-6.635,10.211-6.635,9.838,0-.173,3.065-1.552,6.838-4.966,6.838C5500.618-89.533,5499.283-93.517,5499.122-96.371Zm-11.739-2.934c-.372-6.636,10.212-6.636,9.838,0-.172,3.065-1.552,6.838-4.966,6.838C5488.879-92.467,5487.544-96.451,5487.382-99.306Zm23.478,0c-.373-6.637,10.211-6.637,9.838,0-.172,3.063-1.553,6.836-4.966,6.836C5512.356-92.469,5511.021-96.451,5510.86-99.3Z" stroke="none" fill="none"/>
      <path d="M 5504.04052734375 -80.96652221679688 C 5506.095703125 -80.96652221679688 5508.0595703125 -81.20654296875 5509.5703125 -81.64237976074219 C 5511.19384765625 -82.11061859130859 5511.748046875 -82.64804077148438 5511.82470703125 -82.81561279296875 L 5512.40625 -84.08618927001953 L 5513.79931640625 -83.97724914550781 C 5514.4462890625 -83.92668914794922 5515.1123046875 -83.90104675292969 5515.77880859375 -83.90104675292969 C 5517.87744140625 -83.90104675292969 5519.87158203125 -84.14991760253906 5521.39404296875 -84.601806640625 C 5523.1328125 -85.11795806884766 5523.51318359375 -85.66558837890625 5523.55859375 -85.74267578125 C 5523.43603515625 -87.72457122802734 5523.10693359375 -88.90901947021484 5522.5234375 -89.46974945068359 C 5522.060546875 -89.91452789306641 5521.2041015625 -90.20155334472656 5519.79736328125 -90.37336730957031 C 5518.67333984375 -89.36363983154297 5517.25341796875 -88.80139923095703 5515.76513671875 -88.80139923095703 C 5514.279296875 -88.80139923095703 5512.8671875 -89.36330413818359 5511.75341796875 -90.37251281738281 C 5510.66162109375 -90.23892211914062 5509.90625 -90.03692626953125 5509.41162109375 -89.75003051757812 C 5509.02685546875 -89.52713775634766 5508.6318359375 -89.17819213867188 5508.3447265625 -88.14315032958984 L 5508.16259765625 -87.48436737060547 L 5507.61474609375 -87.07508850097656 C 5506.55810546875 -86.28488922119141 5505.31689453125 -85.86721038818359 5504.02685546875 -85.86721038818359 C 5502.7431640625 -85.86721038818359 5501.51220703125 -86.28128051757812 5500.466796875 -87.06465911865234 L 5499.919921875 -87.47480773925781 L 5499.73828125 -88.13410186767578 C 5499.45166015625 -89.17485046386719 5499.05615234375 -89.52533721923828 5498.671875 -89.74906158447266 C 5498.17578125 -90.03749084472656 5497.41748046875 -90.24042510986328 5496.3203125 -90.37453460693359 C 5495.1962890625 -89.36431884765625 5493.77587890625 -88.80175018310547 5492.28759765625 -88.80175018310547 C 5490.8017578125 -88.80175018310547 5489.3896484375 -89.36385345458984 5488.27587890625 -90.37353515625 C 5486.87353515625 -90.20121765136719 5486.01904296875 -89.91432952880859 5485.5576171875 -89.47055816650391 C 5484.974609375 -88.91018676757812 5484.6455078125 -87.72608947753906 5484.52294921875 -85.74280548095703 C 5484.568359375 -85.66592407226562 5484.94775390625 -85.11836242675781 5486.68603515625 -84.60206604003906 C 5488.2080078125 -84.14998626708984 5490.20263671875 -83.90101623535156 5492.30126953125 -83.90101623535156 C 5492.96875 -83.90101623535156 5493.6357421875 -83.92671203613281 5494.28271484375 -83.97735595703125 L 5495.67626953125 -84.08641052246094 L 5496.2578125 -82.81546783447266 C 5496.33447265625 -82.64798736572266 5496.888671875 -82.11077117919922 5498.51123046875 -81.64250946044922 C 5500.02197265625 -81.20658874511719 5501.98583984375 -80.96652221679688 5504.04052734375 -80.96652221679688 M 5503.99365234375 -91.53264617919922 C 5504.51171875 -91.53264617919922 5505.28076171875 -91.66702270507812 5505.9755859375 -92.82890319824219 C 5506.5234375 -93.74559783935547 5506.8837890625 -95.07781219482422 5506.962890625 -96.48330688476562 C 5507.009765625 -97.31591033935547 5506.80126953125 -97.98375701904297 5506.34326171875 -98.46829986572266 C 5505.8232421875 -99.01846313476562 5504.96240234375 -99.34691619873047 5504.041015625 -99.34691619873047 C 5503.119140625 -99.34691619873047 5502.25830078125 -99.01846313476562 5501.73828125 -98.46829986572266 C 5501.2802734375 -97.98375701904297 5501.07177734375 -97.31591033935547 5501.1181640625 -96.48375701904297 C 5501.19384765625 -95.15151977539062 5501.5556640625 -93.80307006835938 5502.0869140625 -92.87664031982422 C 5502.85791015625 -91.53264617919922 5503.68310546875 -91.53264617919922 5503.99365234375 -91.53264617919922 M 5492.25439453125 -94.46714782714844 C 5492.7724609375 -94.46714782714844 5493.5419921875 -94.60153198242188 5494.23681640625 -95.76345825195312 C 5494.78466796875 -96.68035125732422 5495.14453125 -98.01219940185547 5495.2236328125 -99.41822814941406 C 5495.2705078125 -100.2512817382812 5495.06201171875 -100.9194259643555 5494.60400390625 -101.4040985107422 C 5494.083984375 -101.9540863037109 5493.2236328125 -102.2824478149414 5492.30224609375 -102.2824478149414 C 5491.380859375 -102.2824478149414 5490.52001953125 -101.9539566040039 5490 -101.4037399291992 C 5489.54150390625 -100.9188613891602 5489.33251953125 -100.2505416870117 5489.37890625 -99.41895294189453 C 5489.45458984375 -98.08599853515625 5489.81689453125 -96.73723602294922 5490.34814453125 -95.81101989746094 C 5491.119140625 -94.46714782714844 5491.94384765625 -94.46714782714844 5492.25439453125 -94.46714782714844 M 5515.7314453125 -94.46853637695312 C 5516.24951171875 -94.46853637695312 5517.0185546875 -94.60288238525391 5517.7138671875 -95.76451110839844 C 5518.26220703125 -96.68112182617188 5518.6220703125 -98.01210021972656 5518.70068359375 -99.4163818359375 C 5518.74755859375 -100.2499923706055 5518.5390625 -100.9185791015625 5518.08056640625 -101.4035873413086 C 5517.560546875 -101.9536895751953 5516.7001953125 -102.282112121582 5515.77880859375 -102.282112121582 C 5514.857421875 -102.282112121582 5513.9970703125 -101.9536895751953 5513.47705078125 -101.4035873413086 C 5513.0185546875 -100.9185791015625 5512.81005859375 -100.2499923706055 5512.85693359375 -99.41658782958984 C 5512.931640625 -98.08538818359375 5513.29345703125 -96.73783874511719 5513.82470703125 -95.8118896484375 C 5514.595703125 -94.46853637695312 5515.4208984375 -94.46853637695312 5515.7314453125 -94.46853637695312 M 5504.04052734375 -78.96652221679688 C 5499.69970703125 -78.96652221679688 5495.35888671875 -79.97257995605469 5494.43896484375 -81.98345947265625 C 5493.73681640625 -81.92851257324219 5493.01904296875 -81.90101623535156 5492.30126953125 -81.90101623535156 C 5487.33251953125 -81.90101623535156 5482.36474609375 -83.21849060058594 5482.52587890625 -85.85343933105469 C 5482.8349609375 -90.89450073242188 5484.42578125 -92.10102844238281 5489.064453125 -92.46021270751953 C 5489.912109375 -91.35166168212891 5491.0986328125 -90.80174255371094 5492.28759765625 -90.80174255371094 C 5493.48291015625 -90.80174255371094 5494.6806640625 -91.35751342773438 5495.53955078125 -92.46021270751953 C 5499.1533203125 -92.18038940429688 5500.91748046875 -91.38549041748047 5501.66650390625 -88.66499328613281 C 5502.37744140625 -88.13217163085938 5503.20166015625 -87.86720275878906 5504.02685546875 -87.86720275878906 C 5504.861328125 -87.86720275878906 5505.69677734375 -88.13812255859375 5506.41748046875 -88.67697143554688 C 5507.16845703125 -91.38845062255859 5508.93408203125 -92.18048095703125 5512.5419921875 -92.45883178710938 C 5513.3896484375 -91.35097503662109 5514.576171875 -90.80139923095703 5515.76513671875 -90.80139923095703 C 5516.96044921875 -90.80139923095703 5518.158203125 -91.35682678222656 5519.01708984375 -92.45883178710938 C 5523.654296875 -92.10102844238281 5525.24658203125 -90.89311981201172 5525.5556640625 -85.85343933105469 C 5525.71728515625 -83.218505859375 5520.748046875 -81.90105438232422 5515.77880859375 -81.90105438232422 C 5515.06201171875 -81.90105438232422 5514.34521484375 -81.92848205566406 5513.6435546875 -81.98333740234375 C 5512.72314453125 -79.97213745117188 5508.3818359375 -78.96652221679688 5504.04052734375 -78.96652221679688 Z M 5503.99365234375 -89.53264617919922 C 5500.6181640625 -89.53264617919922 5499.28271484375 -93.5169677734375 5499.12158203125 -96.37103271484375 C 5498.93505859375 -99.68828582763672 5501.48779296875 -101.3469161987305 5504.04052734375 -101.3469161987305 C 5506.59375 -101.3469161987305 5509.146484375 -99.68828582763672 5508.9599609375 -96.37103271484375 C 5508.78662109375 -93.30618286132812 5507.40771484375 -89.53264617919922 5503.99365234375 -89.53264617919922 Z M 5492.25439453125 -92.46714782714844 C 5488.87890625 -92.46714782714844 5487.54443359375 -96.45146179199219 5487.38232421875 -99.30552673339844 C 5487.19677734375 -102.6234817504883 5489.74951171875 -104.2824554443359 5492.30224609375 -104.2824554443359 C 5494.85498046875 -104.2824554443359 5497.4072265625 -102.6234817504883 5497.22021484375 -99.30552673339844 C 5497.04833984375 -96.24066925048828 5495.66845703125 -92.46714782714844 5492.25439453125 -92.46714782714844 Z M 5515.7314453125 -92.46853637695312 C 5512.35595703125 -92.46853637695312 5511.0205078125 -96.45146179199219 5510.85986328125 -99.30413818359375 C 5510.67333984375 -102.6227874755859 5513.22607421875 -104.2821044921875 5515.77880859375 -104.2821044921875 C 5518.33154296875 -104.2821044921875 5520.88427734375 -102.6227874755859 5520.69775390625 -99.30413818359375 C 5520.52587890625 -96.24066925048828 5519.14453125 -92.46853637695312 5515.7314453125 -92.46853637695312 Z" stroke="none"/>
    </g>
  </g>
</svg>
