<svg xmlns="http://www.w3.org/2000/svg" width="24.225" height="29.07" viewBox="0 0 24.225 29.07">
  <path id="np_apple_1426926_000000" d="M32.887,8c-3.235,1.092-5.756,2.186-5.4,6.921C30.726,14.193,33.607,12.372,32.887,8ZM22.613,14.575A7.961,7.961,0,0,0,15,22.535C15,29.8,19.845,37.07,22.613,37.07c2.076,0,3.807-1.384,5.191-1.384s2.769,1.384,4.845,1.384c2.769,0,5.883-4.153,6.575-7.96-2.422-1.73-4.153-2.769-4.153-5.883,0-2.076,1.73-4.153,3.807-5.883a7.061,7.061,0,0,0-5.191-2.769c-2.076,0-4.31,1.642-5.883,1.73C26.42,16.306,24.69,14.575,22.613,14.575Z" transform="translate(-15 -8)" />
</svg>
