<svg xmlns="http://www.w3.org/2000/svg" xmlns:xlink="http://www.w3.org/1999/xlink" width="56.72" height="56.72" viewBox="0 0 56.72 56.72">
    <defs>
        <linearGradient id="a" x1="0.5" x2="0.5" y2="1" gradientUnits="objectBoundingBox">
            <stop offset="0" stop-color="#41c5ff"/>
            <stop offset="1" stop-color="#46abf4"/>
        </linearGradient>
        <style>
            .a{fill:url(#a)}
        </style>
    </defs>
    <path class="a" d="M221.209,424.651h-1.827a.97.97,0,1,1,0-1.939h1.827a.97.97,0,1,1,0,1.939Z" transform="translate(-191.941 -371.481)"/>
    <path class="a" d="M135.511,3.393A3.407,3.407,0,0,0,132.106,0H107.394A3.4,3.4,0,0,0,104,3.393V53.326a3.4,3.4,0,0,0,3.394,3.393h24.712a3.407,3.407,0,0,0,3.405-3.393Zm-9.332,11.591a2.727,2.727,0,0,1-5.454,0V9.332h5.454Zm-7.393,0a2.727,2.727,0,0,1-5.454,0V9.332h5.454Zm-7.393,0v0a2.727,2.727,0,0,1-5.454,0V9.332h5.454v5.657Zm-2.736,4.659a4.651,4.651,0,0,0,3.689-1.82,4.656,4.656,0,0,0,7.386,0,4.656,4.656,0,0,0,7.392-.005,4.686,4.686,0,0,0,3.712,1.827,4.577,4.577,0,0,0,2.735-.882V47.63H105.939V18.769A4.631,4.631,0,0,0,108.657,19.648ZM107.394,1.939h24.712a1.466,1.466,0,0,1,1.466,1.454V15.217a2.732,2.732,0,0,1-5.454-.249V9.332h2.3a.97.97,0,1,0,0-1.939H105.939v-4A1.456,1.456,0,0,1,107.394,1.939Zm24.712,52.842H107.394a1.456,1.456,0,0,1-1.454-1.454V49.569h27.633v3.757A1.466,1.466,0,0,1,132.106,54.781Z" transform="translate(-91.396 0)"/>
    <path class="a" d="M159.28,211.6a10.3,10.3,0,1,1,10.3-10.3A10.312,10.312,0,0,1,159.28,211.6Zm0-18.664a8.363,8.363,0,1,0,8.359,8.363A8.37,8.37,0,0,0,159.28,192.939Z" transform="translate(-130.926 -167.852)"/>
    <path class="a" d="M28.993,39.408c-1.3-.539-1.675-.854-1.675-1.406,0-.457.329-.945,1.251-.945a4.484,4.484,0,0,1,2.141.7l.658-1.742a4.952,4.952,0,0,0-2.093-.733V33.756H27.555v1.631a2.843,2.843,0,0,0-2.327,2.8c0,1.7,1.337,2.46,2.781,3.027,1.067.434,1.5.863,1.5,1.483,0,.676-.583,1.13-1.451,1.13a4.394,4.394,0,0,1-2.414-.872l-.632,1.77a4.434,4.434,0,0,0,2.433.9V47.2h1.736V45.527a3.022,3.022,0,0,0,2.435-2.938C31.618,41.112,30.833,40.16,28.993,39.408ZM4.848,57.453a.97.97,0,0,1-.97-.97V55.024a.97.97,0,0,1,1.939,0v1.459A.97.97,0,0,1,4.848,57.453Zm0,6.3a.97.97,0,0,1-.97-.97V61.322a.97.97,0,0,1,1.939,0v1.459A.97.97,0,0,1,4.848,63.75Zm3.878-3.878H7.267a.97.97,0,1,1,0-1.939H8.726a.97.97,0,1,1,0,1.939Zm-6.3,0H.97a.97.97,0,1,1,0-1.939H2.429a.97.97,0,1,1,0,1.939ZM51.872,11.4a.97.97,0,0,1-.97-.97V8.97a.97.97,0,1,1,1.939,0v1.459A.97.97,0,0,1,51.872,11.4Zm0,6.3a.97.97,0,0,1-.97-.97V15.267a.97.97,0,1,1,1.939,0v1.459A.97.97,0,0,1,51.872,17.7Zm3.878-3.878H54.291a.97.97,0,1,1,0-1.939H55.75a.97.97,0,1,1,0,1.939Zm-6.3,0H47.994a.97.97,0,1,1,0-1.939h1.459a.97.97,0,1,1,0,1.939Z" transform="translate(0 -7.03)"/>
</svg>
