<svg xmlns="http://www.w3.org/2000/svg" width="19.803" height="21.401" viewBox="0 0 19.803 21.401">
  <path id="Path_1530" data-name="Path 1530" d="M365.836,380.4a.6.6,0,0,1-.414-.164l-8.683-8.1-8.684,8.1a.635.635,0,0,1-.673.114A.623.623,0,0,1,347,379.8V359.928a.928.928,0,0,1,.928-.928h17.946a.928.928,0,0,1,.928.928V379.8c0,.242-.323.459-.545.556A1.751,1.751,0,0,1,365.836,380.4Zm-9.1-9.7a.952.952,0,0,1,.54.164l8.2,7.538V360.32H348.32V378.4l8.041-7.538A.518.518,0,0,1,356.739,370.7Z" transform="translate(-347 -359)" fill="#2a2a2a"/>
</svg>
