<svg xmlns="http://www.w3.org/2000/svg" width="27.157" height="16.503" viewBox="0 0 27.157 16.503">
  <g id="Layer_2" data-name="Layer 2" transform="translate(-1.241 -6.75)">
    <path id="Path_54517" data-name="Path 54517" d="M10.531,14.78a4.015,4.015,0,1,1,4.015-4.015A4.015,4.015,0,0,1,10.531,14.78Zm0-6.2A2.173,2.173,0,1,0,12.7,10.756,2.173,2.173,0,0,0,10.531,8.582Zm8.6,6.2a4.015,4.015,0,1,1,3.987-4.024,4.015,4.015,0,0,1-3.987,4.024Zm0-6.2a2.173,2.173,0,1,0,2.146,2.173A2.173,2.173,0,0,0,19.132,8.582Zm8.592,14.632a.921.921,0,0,1-1.1-.58,7.846,7.846,0,0,0-1.915-3.085,6.142,6.142,0,0,0-.82-.7,7.864,7.864,0,0,0-4.752-1.584,8.463,8.463,0,0,0-1.611.157c-.166-.129-.322-.258-.488-.368a8.481,8.481,0,0,0-1.529-.921,9.752,9.752,0,0,1,9.448,1.216A7.947,7.947,0,0,1,26,18.27a9.577,9.577,0,0,1,2.357,3.794.921.921,0,0,1-.635,1.151ZM2.769,21.023a.921.921,0,0,0-1.262.442c-.074.184-.147.368-.212.553a.921.921,0,0,0,.645,1.206h0a.921.921,0,0,0,1.1-.589,1.135,1.135,0,0,1,.147-.405.921.921,0,0,0-.424-1.188Z" fill="#75647c"/>
    <path id="Path_54518" data-name="Path 54518" d="M20.071,23.056a.919.919,0,0,1-1.786.322,7.735,7.735,0,0,0-1.915-3.085,6.252,6.252,0,0,0-.82-.7,7.929,7.929,0,0,0-9.209-.2,6.033,6.033,0,0,0-.488.359.654.654,0,0,1-.129.092H5.531a.929.929,0,0,1-.543-1.676l-.018-.083a9.733,9.733,0,0,1,11.649,0,7.192,7.192,0,0,1,1.041.875,9.577,9.577,0,0,1,2.357,3.794A.774.774,0,0,1,20.071,23.056Z" transform="translate(-0.267 -0.744)" fill="#75647c"/>
  </g>
</svg>
