<svg xmlns="http://www.w3.org/2000/svg" width="306.048" height="387.794" viewBox="0 0 306.048 387.794"><g transform="translate(-272.668 50.804)"><g transform="translate(272.668 181.208)"><g transform="translate(36.961)"><g transform="translate(0 40.825)"><path fill="#5e00af" d="M308.9,275.092l-1.8-15.447a116.892,116.892,0,0,0-30.763,5.865l14.525,13.023A75.452,75.452,0,0,1,308.9,275.092Z" transform="translate(-276.333 -259.645)"/></g><g transform="translate(0 32.748)"><path fill="#f9bf30" d="M308.9,267.735l-1.8-15.447a116.89,116.89,0,0,0-30.763,5.865l14.525,13.023A75.5,75.5,0,0,1,308.9,267.735Z" transform="translate(-276.333 -252.288)"/></g><path fill="#f9bf30" d="M307.6,236.53l-17.678.791-.359,2.65v32.748l13.756-5.2,4.281,1.762Z" transform="translate(-275.038 -221.083)"/><path fill="#e8a200" d="M276.333,227.8V260.55l14.526,13.023V240.825Z" transform="translate(-276.333 -221.937)"/><path fill="#fdd762" d="M308.9,237.907l-1.8-15.447a116.889,116.889,0,0,0-30.763,5.865l14.525,13.023A75.451,75.451,0,0,1,308.9,237.907Z" transform="translate(-276.333 -222.46)"/></g><g transform="translate(73.206 21.215)"><g transform="translate(0 19.293)"><path fill="#5e00af" d="M311.145,274.817c11.8-.072,23.629,2.309,33,7.15l18.949-10.941c-15.084-8.106-34.5-11.989-53.749-11.649Z" transform="translate(-309.346 -259.356)"/></g><g transform="translate(0 11.305)"><path fill="#d3008d" d="M311.145,267.542c11.8-.074,23.629,2.308,33,7.15l18.949-10.941c-15.084-8.107-34.5-11.989-53.749-11.65Z" transform="translate(-309.346 -252.08)"/></g><path fill="#cc0293" d="M311.146,268.548V257.243l-1.8-15.44v11.305Z" transform="translate(-309.346 -241.782)"/><path fill="#d3008d" d="M343.985,264.07,322.879,245.1,310.985,256.92v11.305l30.7-.2,2.3,7.346Z" transform="translate(-309.186 -241.459)"/><path fill="#d3008d" d="M359.992,252.413v11.305l-18.949,10.94V263.353Z" transform="translate(-306.243 -240.743)"/><path fill="#ff2c9c" d="M311.145,257.245c11.8-.074,23.629,2.308,33,7.15l18.949-10.941c-15.084-8.107-34.5-11.989-53.749-11.65Z" transform="translate(-309.346 -241.783)"/></g><g transform="translate(0 20.218)"><g transform="translate(0 27.955)"><path fill="#5e00af" d="M276.682,316.869c-11.586-10.849-9.248-25.251,7.043-34.656a51.741,51.741,0,0,1,5.809-2.867l-14.51-13.009a81.041,81.041,0,0,0-10.24,4.941c-25.612,14.787-28.972,37.547-10.112,54.437Z" transform="translate(-242.668 -266.337)"/></g><g transform="translate(0 20.125)"><path fill="#b45ef4" d="M276.682,309.737c-11.586-10.849-9.248-25.251,7.043-34.656a51.736,51.736,0,0,1,5.809-2.867l-14.51-13.009a81.041,81.041,0,0,0-10.24,4.941c-25.612,14.787-28.972,37.547-10.112,54.437Z" transform="translate(-242.668 -259.205)"/></g><path fill="#b45ef4" d="M287.989,253.16v20.124l-12.852,4.775s-16.69-9.11-16.69-9.323,2.817-19.508,4.878-20.374S287.989,253.16,287.989,253.16Z" transform="translate(-241.123 -240.151)"/><path fill="#983be9" d="M275.612,307.026V286.9l-22.01,8.845v20.124Z" transform="translate(-241.598 -236.369)"/><path fill="#721bd5" d="M254.672,284.6v32.748s-11.486-9.684-12-22.532l.027-21.022,13.367-1.936Z" transform="translate(-242.668 -237.842)"/><g transform="translate(0)"><path fill="#8a2ae3" d="M276.682,291.408c-11.586-10.849-9.248-25.252,7.043-34.656a51.933,51.933,0,0,1,5.809-2.868l-14.51-13.009a81.188,81.188,0,0,0-10.24,4.941c-25.612,14.786-28.972,37.547-10.112,54.437Z" transform="translate(-242.668 -240.875)"/></g></g></g><g transform="translate(303.237 7.725)"><g transform="translate(78.752 176.498)"><ellipse fill="#5e00af" cx="52.457" cy="30.286" rx="52.457" ry="30.286" transform="translate(6.531 57.315)"/><path fill="#721bd5" d="M510.556,229.728l-14.052.087c-1.025-.7-2.09-1.376-3.226-2.033-23.035-13.3-60.385-13.3-83.421,0q-2.165,1.249-4.059,2.594l-13.218.081v21.407h0c0,8.716,5.76,17.431,17.278,24.082,23.037,13.3,60.385,13.3,83.421,0,11.518-6.649,17.277-15.366,17.277-24.082h0Z" transform="translate(-392.581 -195.672)"/><path fill="#983be9" d="M449.6,217.825c-14.432.276-28.722,3.587-39.739,9.947q-2.165,1.249-4.059,2.594l-13.218.081v21.407c0,8.716,5.76,17.431,17.278,24.082,11.017,6.361,25.305,9.671,39.738,9.947Z" transform="translate(-392.581 -195.663)"/><path fill="#b45ef4" d="M400.688,226.056l-8.107.049v21.407c0,5.968,2.7,11.936,8.107,17.243Z" transform="translate(-392.581 -191.321)"/><ellipse fill="#8a2ae3" cx="58.987" cy="34.056" rx="58.987" ry="34.056" transform="translate(0)"/><path fill="#b45ef4" d="M493.276,249.24c-23.035,13.3-60.384,13.3-83.421,0-10.939-6.315-16.673-14.493-17.223-22.766-.609,9.148,5.125,18.413,17.223,25.4,23.037,13.3,60.385,13.3,83.421,0,12.1-6.984,17.831-16.247,17.222-25.4C509.947,234.747,504.213,242.925,493.276,249.24Z" transform="translate(-392.577 -191.101)"/><g transform="translate(16.19 0)"><path fill="#721bd5" d="M488.776,222.479l-10.2.064c-.742-.5-1.515-1-2.34-1.476-16.714-9.649-43.811-9.649-60.526,0q-1.57.907-2.944,1.882l-9.59.058v7.369h0c0,6.323,4.178,12.647,12.535,17.472,16.714,9.649,43.811,9.649,60.526,0,8.356-4.824,12.535-11.15,12.535-17.472h0Z" transform="translate(-403.179 -197.77)"/><path fill="#983be9" d="M444.547,213.843c-10.473.2-20.84,2.6-28.834,7.218q-1.57.907-2.944,1.882l-9.59.058v7.369c0,6.322,4.178,12.646,12.535,17.472,7.992,4.615,18.361,7.016,28.832,7.218Z" transform="translate(-403.179 -197.764)"/><path fill="#b45ef4" d="M409.061,219.815l-5.881.035v7.369c0,4.331,1.961,8.661,5.881,12.511Z" transform="translate(-403.179 -194.613)"/><ellipse fill="#8a2ae3" cx="42.798" cy="24.709" rx="42.798" ry="24.709"/></g></g><g transform="translate(0 48.262)"><path fill="#fdd762" d="M400.559,197.814a41.083,41.083,0,0,1-35.037-19.754l-22.43-37.193a14.176,14.176,0,0,1,12.139-21.5h44.314v11.545H355.231a2.631,2.631,0,0,0-2.255,3.991L375.4,172.092A29.373,29.373,0,0,0,401,186.266l38.569-.584.174,11.544-38.57.584C400.967,197.811,400.762,197.814,400.559,197.814Z" transform="translate(-341.026 -119.367)"/><g transform="translate(176.765)"><path fill="#fdd762" d="M495.927,197.814c-.2,0-.408,0-.611,0l-38.57-.584.173-11.544,38.57.584a29.356,29.356,0,0,0,25.6-14.18l22.424-37.18a2.632,2.632,0,0,0-2.255-3.993H496.941V119.367h44.314a14.177,14.177,0,0,1,12.139,21.5l-22.427,37.185A41.092,41.092,0,0,1,495.927,197.814Z" transform="translate(-456.745 -119.367)"/></g><path fill="#e8a200" d="M531.8,142.253l-10.711,17.759a29.359,29.359,0,0,1-25.6,14.18l-38.57-.584-.173,11.544,38.57.582c.2,0,.408,0,.611,0a41.1,41.1,0,0,0,32.662-16.287C533.661,156.413,532.858,146.988,531.8,142.253Z" transform="translate(-279.98 -107.294)"/></g><g transform="translate(52.95)"><g transform="translate(52.374 149.095)"><ellipse fill="#fff" cx="32.415" cy="18.715" rx="32.415" ry="18.715"/></g><g transform="translate(41.991 176.499)"><path fill="#f9bf30" d="M408.126,213.344c6.827-5.07,5.511-10.027,5.511-10.027l5.166,6.234c15.708-7.58,38.651-7.578,54.356,0l5.169-6.238s-1.315,4.957,5.511,10.027,4.6,15.022,4.6,15.022l-.014-.015c.006,6.277-4.138,12.555-12.433,17.344-16.578,9.572-43.456,9.572-60.034,0-8.288-4.786-12.433-11.059-12.433-17.331C403.525,228.36,401.3,218.412,408.126,213.344Z" transform="translate(-403.18 -203.317)"/></g><g transform="translate(96.241 176.499)"><path fill="#e8a200" d="M450.957,214.833s-12.263-7.259-12.263-8.788a2.578,2.578,0,0,1,.664-1.14,57,57,0,0,1,15.066,4.65l5.169-6.238s-1.315,4.957,5.511,10.027,4.6,15.022,4.6,15.022l-.014-.015a16.324,16.324,0,0,1-3.741,10.024c.11-.774,1.418-11.032-6.292-14.391C451.643,220.493,450.957,214.833,450.957,214.833Z" transform="translate(-438.694 -203.317)"/></g><g transform="translate(52.374 156.543)"><path fill="#e8a200" d="M419.471,222.2c12.659,7.309,33.183,7.309,45.842,0s12.659-19.158,0-26.468-33.183-7.308-45.842,0S406.812,214.894,419.471,222.2Z" transform="translate(-409.977 -190.253)"/></g><g transform="translate(0 48.954)"><path fill="#f9bf30" d="M545.269,119.82c-.854,47.258-25.215,52.98-38.25,70.669-12.164,16.507-10.78,40.382-10.54,43.5,0,.116.029.232.029.347v0h0c0,5.323-3.518,10.645-10.554,14.707-14.07,8.123-36.881,8.123-50.951,0-6.594-3.808-10.057-8.725-10.47-13.711l-.083,0v-1l0,0c0-.111.024-.225.028-.336.237-3.09,1.631-26.986-10.54-43.5-13.035-17.689-37.4-23.411-38.25-70.669Z" transform="translate(-375.69 -119.82)"/></g><path fill="#e8a200" d="M450.325,171.269s-1.983,5.649-8.136,21.8-3.261,57.025-3.261,57.025l10.47.721a37.377,37.377,0,0,0,3.553-1.775c7.036-4.062,10.552-9.384,10.552-14.707h0c0-.116-.024-.232-.028-.348-.24-3.113-1.624-26.989,10.54-43.5,13.034-17.687,37.4-23.41,38.25-70.667H502.98Z" transform="translate(-342.687 -70.866)"/><g transform="translate(0)"><ellipse fill="#fdd762" cx="84.789" cy="48.953" rx="84.789" ry="48.953"/></g><path fill="#fff" d="M400.521,153.692c33.113,19.117,86.8,19.117,119.911,0,15.608-9.012,23.852-20.665,24.746-32.466,1,13.235-7.242,26.66-24.746,36.766-33.113,19.117-86.8,19.119-119.911,0-17.5-10.1-25.745-23.529-24.745-36.763C376.67,133.032,384.914,144.681,400.521,153.692Z" transform="translate(-375.688 -70.125)"/><g transform="translate(13.627 7.868)"><ellipse fill="#f2b42a" cx="71.162" cy="41.085" rx="71.162" ry="41.085"/></g><path fill="#e8a200" d="M405.453,162.174c11.646,6.724,26.333,10.592,41.5,11.68,2.374-2.979,3.3-6.193,2.151-9.628-7.389-22.146-4.532-68.028-4.532-68.028L431.187,94.6a88.448,88.448,0,0,0-25.733,9.468C377.664,120.116,377.664,146.13,405.453,162.174Z" transform="translate(-370.984 -84.169)"/><path fill="#fff" d="M506.092,108.6c-27.791-16.044-72.849-16.044-100.639,0-13.093,7.558-20.011,17.33-20.768,27.23-.851-11.114,6.069-22.391,20.768-30.878,27.791-16.045,72.849-16.045,100.639,0,14.7,8.485,21.616,19.759,20.767,30.873C526.1,125.932,519.181,116.161,506.092,108.6Z" transform="translate(-370.982 -85.056)"/><path fill="#e8a200" d="M478.068,146.457c-21.572,7-48.105,7-69.679,0,.739-.493,1.5-.981,2.314-1.45,17.964-10.372,47.09-10.372,65.052,0C476.568,145.477,477.33,145.963,478.068,146.457Z" transform="translate(-358.44 -61.682)"/></g><g transform="translate(101.711 161.144)"><path fill="#fff" d="M407.64,195.246c.028-.373.073-1.054.11-1.981.542,4.865,3.973,9.642,10.413,13.36,14.07,8.123,36.881,8.123,50.951,0,6.3-3.637,9.769-8.284,10.428-13.038.034.755.07,1.324.1,1.651,0,.116.029.232.028.348h0c0,5.323-3.516,10.645-10.552,14.709-14.07,8.122-36.881,8.122-50.951,0-6.594-3.808-10.057-8.725-10.47-13.711l-.083,0v-1l0,0C407.613,195.471,407.637,195.358,407.64,195.246Z" transform="translate(-407.611 -193.265)"/></g></g><g transform="translate(363.068 -50.804)"><g transform="translate(0 11.004)"><path fill="#173d7a" d="M405.173,181.35s-4.454-2.247-7.19,1.1-6.646,11.241-6.769,16.577,4.224,4.975,6.805,3.713,10.125-12.205,10.581-14.348-.539-5.042-1.265-5.611S405.173,181.35,405.173,181.35Z" transform="translate(-374.383 8.728)"/><path fill="#e8a200" d="M403.9,180.76l.206,4.615a2.614,2.614,0,0,1-1.3,2.4,5.14,5.14,0,0,1-3.435.535c-3.356-.539-3.655-1.5-3.9-6.113S403.9,180.76,403.9,180.76Z" transform="translate(-372.138 8.244)"/><g transform="translate(0 86.62)"><path fill="#173d7a" d="M394.5,175.54s-4.454-2.246-7.19,1.1-6.646,11.241-6.769,16.577,4.224,4.975,6.805,3.713,10.125-12.205,10.581-14.348-.538-5.044-1.263-5.611S394.5,175.54,394.5,175.54Z" transform="translate(-380.014 -80.957)"/><path fill="#e8a200" d="M393.226,174.951l.206,4.615a2.617,2.617,0,0,1-1.3,2.4,5.138,5.138,0,0,1-3.437.533c-3.356-.539-3.655-1.5-3.9-6.112S393.226,174.951,393.226,174.951Z" transform="translate(-377.77 -81.441)"/><path fill="#fdd762" d="M435.4,122.146c-1.32-21.451-23.232,3.156-23.232,3.156l-15,14.7L383.663,154.84a13.316,13.316,0,0,0-3.354,10.694l5.464,41.6a4.091,4.091,0,0,0,4.1,3.553,13.78,13.78,0,0,0,2.024-.179,5.082,5.082,0,0,0,4.514-5.392l-1-38.91,28.363-17.1S436.719,143.6,435.4,122.146Z" transform="translate(-380.195 -113.367)"/></g><path fill="#e8a200" d="M410.185,132.056s-16.979,18.714-17.927,23.934,17.927-4.8,17.927-4.8l12.917-21.1Z" transform="translate(-373.849 -17.927)"/><path fill="#fdd762" d="M446.074,127.5c-1.318-21.453-23.232,3.156-23.232,3.156l-15,14.7-13.506,14.837a13.314,13.314,0,0,0-3.355,10.694l5.464,41.6a4.087,4.087,0,0,0,4.1,3.553,13.761,13.761,0,0,0,2.024-.177,5.082,5.082,0,0,0,4.514-5.392l-1-38.91,28.363-17.1S447.392,148.95,446.074,127.5Z" transform="translate(-374.563 -23.924)"/><path fill="#983be9" d="M429.591,80.208c16.614,6.889,16.281,16.71,16.281,16.71s-3.254,36-2.143,60.049c.464,10.051-53.406,10.818-45.371-16,9.472-31.619,5.921-57.217,10.355-61.077S425.294,78.427,429.591,80.208Z" transform="translate(-371.044 -45.498)"/><path fill="#ffc2b0" d="M427.8,88.059c-.868,3.373-5.288,5.151-9.871,3.97s-7.593-4.871-6.724-8.244,5.288-5.151,9.871-3.972S428.673,84.686,427.8,88.059Z" transform="translate(-363.913 -44.64)"/><path fill="#fff" d="M421.043,93.463a12.207,12.207,0,0,1-3.035-.391c-5-1.288-8.272-5.42-7.3-9.213s5.84-5.832,10.839-4.541a11.057,11.057,0,0,1,5.825,3.568,6.346,6.346,0,0,1,1.471,5.643h0a6.348,6.348,0,0,1-4.016,4.233A10.173,10.173,0,0,1,421.043,93.463Zm-2.534-12.949c-3.084,0-5.664,1.436-6.257,3.741-.758,2.945,2,6.209,6.153,7.279a9.484,9.484,0,0,0,5.834-.246,4.807,4.807,0,0,0,3.069-3.153v0a4.8,4.8,0,0,0-1.164-4.244,9.46,9.46,0,0,0-4.989-3.034A10.61,10.61,0,0,0,418.509,80.514Z" transform="translate(-364.186 -44.913)"/><path fill="#ffc2b0" d="M414.212,80.038a41.288,41.288,0,0,1-.145,5.931c-.09,1.654,5.705,3.2,7.2,1.7s.9-3.057,1.257-8.69S414.212,80.038,414.212,80.038Z" transform="translate(-362.326 -46.076)"/><path fill="#ea9c92" d="M422.528,78.2s-1.427,5.223-8.461,7.227l.105-4.746Z" transform="translate(-362.326 -45.297)"/><path fill="#ffc2b0" d="M431.218,72.829a12.789,12.789,0,1,1-15.582-9.181A12.789,12.789,0,0,1,431.218,72.829Z" transform="translate(-366.558 -53.191)"/><path fill="#ea9c92" d="M421.8,72.986s-7.04,3.017-11.916,3.052-3.8-4.048-3.8-4.048L420.559,69.9Z" transform="translate(-366.589 -49.678)"/><path fill="#ff2c9c" d="M410.354,79.127s6.133-2.6,11.515-1.518a5.636,5.636,0,0,1,3.251,1.932,1.922,1.922,0,0,0,.985.712c.953.215,2.516-3.742,4.37-3.833s3.092,1.222,1.572,3.657-1.008,5.16-.307,5.55,8.12-5.293,1.573-18.26-23.174-5.983-25.76-3.356c0,0-2.725,2.375-4.94.263C402.613,64.273,400.129,82.877,410.354,79.127Z" transform="translate(-368.509 -55.023)"/><path fill="#ffc2b0" d="M407.83,88.423,398.9,84.572a3.957,3.957,0,0,1-2.177-2.346L387.9,56.661l-4.088.71,7.131,31.814a5.365,5.365,0,0,0,2.607,3.5l14.874,8.354Z" transform="translate(-378.288 -56.661)"/></g><path fill="#ffc2b0" d="M461.334,83.518l2.05-.939a16.511,16.511,0,0,0,4.7-3.251l1.427-1.408a2.763,2.763,0,0,0,.6-3.041h0a1.525,1.525,0,0,0-2.091-.768l-4.282,2.163s.671-1.9.348-2.388-3.636,3.164-5.168,5.756S461.334,83.518,461.334,83.518Z" transform="translate(-338.846 -36.594)"/><path fill="#ffc2b0" d="M437.041,91.742l7.641-.854a13.454,13.454,0,0,0,5.136-1.663l20.471-11.586,2.406,3.877-20.93,16.16a9.6,9.6,0,0,1-2.1,1.236l-12.482,5.336Z" transform="translate(-350.206 -34.59)"/><path fill="#ffc2b0" d="M384.859,61.172l-.781-.9a7.176,7.176,0,0,1-1.679-3.663l-.547-3.729a3.194,3.194,0,0,1,1.227-3.037l.1-.073a1.929,1.929,0,0,1,2.831.923l1.838,4.442s-.579-2.3.163-2.556c.544-.186,1.576,2.669.967,4.256a6.7,6.7,0,0,0-.035,3.626Z" transform="translate(-379.338 -49.457)"/><path fill="#fff" d="M412.238,77.69l-3.3-.907a7.97,7.97,0,0,0,3.878,3.112c2.3.632,2.659-1.315,2.659-1.315Z" transform="translate(-365.033 -35.041)"/><path fill="#983be9" d="M416.708,79.507s-14.923-2.95-19.481-4.334-6.46,11.133-6.113,14.305,15.864,6.712,17.709,12.153S416.708,79.507,416.708,79.507Z" transform="translate(-374.456 -35.946)"/><path fill="#983be9" d="M422.792,81.57s10.908,4.68,29.161,6.961a1.965,1.965,0,0,1,1.624,1.289,21.6,21.6,0,0,1,.965,10.972,4.028,4.028,0,0,1-3.992,3.171c-5.713-.04-18.01.51-20.006,5.85C427.929,116.813,422.792,81.57,422.792,81.57Z" transform="translate(-357.723 -32.516)"/></g><g transform="translate(369.972 302.553)"><path fill="#5e00af" d="M427.521,342.983l-13.422-7.75-13.422,7.75,13.422,7.749Z" transform="translate(-398.063 -316.295)"/><path fill="#e8a200" d="M412.9,344.408v-8.732l16.036-9.258v8.732Z" transform="translate(-396.866 -317.158)"/><path fill="#f9bf30" d="M414.332,335.675,398.3,326.417v8.732l16.036,9.259Z" transform="translate(-398.296 -317.158)"/><path fill="#fdd762" d="M430.369,327.243l-16.036-9.259L398.3,327.243l16.036,9.258Z" transform="translate(-398.296 -317.984)"/></g><g transform="translate(284.2 127.98)"><path fill="#5e16af" d="M312.4,145.977l-13.423-7.749-13.422,7.749,13.422,7.749Z" transform="translate(-282.938 -119.289)"/><path fill="#d3008d" d="M297.778,147.4V138.67l16.036-9.259v8.732Z" transform="translate(-281.742 -120.152)"/><path fill="#d3008d" d="M299.208,138.67l-16.036-9.259v8.732l16.036,9.259Z" transform="translate(-283.172 -120.152)"/><path fill="#ff2c9c" d="M315.244,130.237l-16.036-9.259-16.036,9.259,16.036,9.259Z" transform="translate(-283.172 -120.978)"/></g><path fill="#fdd762" d="M506.06,203.857a7.136,7.136,0,1,1,7.136-7.136A7.145,7.145,0,0,1,506.06,203.857Zm0-12.077A4.941,4.941,0,1,0,511,196.72,4.947,4.947,0,0,0,506.06,191.78Z" transform="translate(22.151 13.719)"/><g transform="translate(336.446 263.439)"><path fill="#ff2c9c" d="M383.447,302.487a10.064,10.064,0,1,1,10.064-10.064A10.076,10.076,0,0,1,383.447,302.487Zm0-17.933a7.869,7.869,0,1,0,7.869,7.869A7.877,7.877,0,0,0,383.447,284.554Z" transform="translate(-367.208 -282.358)"/><circle fill="#fdd762" cx="7.274" cy="7.274" r="7.274" transform="translate(0 9.424)"/></g><g transform="translate(503.428 235.11)"><g transform="translate(6.732)"><path fill="#5e00af" d="M515.979,325.7l-16.5-9.525-16.5,9.525,16.5,9.525Z" transform="translate(-482.983 -237.544)"/><path fill="#721bd5" d="M502.379,319.349V260.016l14.014-8.091v59.333Z" transform="translate(-481.084 -243.834)"/><path fill="#b45ef4" d="M503.629,260.016l-14.014-8.091v59.333l14.014,8.091Z" transform="translate(-482.334 -243.834)"/><path fill="#8a2ae3" d="M517.643,252.646l-14.014-8.091-14.014,8.091,14.014,8.091Z" transform="translate(-482.334 -244.555)"/></g><g transform="translate(28.028 70.121)"><path fill="#95d359" d="M516.393,316.514l-14.014-8.091v5.394l14.014,8.091Z" transform="translate(-502.379 -308.423)"/></g><g transform="translate(0 24.273)"><path fill="#c13d1a" d="M489.615,325.275V282.124l14.014-8.091v43.151Z" transform="translate(-475.601 -265.942)"/><path fill="#db5126" d="M490.865,282.124l-14.014-8.091v43.151l14.014,8.091Z" transform="translate(-476.851 -265.942)"/><path fill="#ef602e" d="M504.879,274.754l-14.014-8.091-14.014,8.091,14.014,8.091Z" transform="translate(-476.851 -266.664)"/><path fill="#d3008d" d="M489.615,325.275V282.124l14.014-8.091v43.151Z" transform="translate(-475.601 -265.942)"/><path fill="#d3008d" d="M490.865,282.124l-14.014-8.091v43.151l14.014,8.091Z" transform="translate(-476.851 -265.942)"/><path fill="#ff2c9c" d="M504.879,274.754l-14.014-8.091-14.014,8.091,14.014,8.091Z" transform="translate(-476.851 -266.664)"/></g><g transform="translate(14.014 51.242)"><path fill="#e8a200" d="M502.379,330.961V306.688l14.014-8.091V322.87Z" transform="translate(-488.366 -290.507)"/><path fill="#f9bf30" d="M503.629,306.688,489.615,298.6V322.87l14.014,8.091Z" transform="translate(-489.615 -290.507)"/><path fill="#fdd762" d="M517.643,299.319l-14.014-8.091-14.014,8.091,14.014,8.091Z" transform="translate(-489.615 -291.228)"/></g></g></g></svg>