<svg xmlns="http://www.w3.org/2000/svg" width="30.394" height="32.191" viewBox="0 0 30.394 32.191">
  <g id="np_website_1939503_FFFFFF" transform="translate(-2.781 0)">
    <path id="Path_172" data-name="Path 172" d="M57.988,44.512V60.7l4.17-4.165,3.025,5.836,2.2-1.139-2.914-5.614h5.624Z" transform="translate(-37.435 -30.183)" fill="#fff"/>
    <path id="Path_173" data-name="Path 173" d="M33.012,17.307c.029-.213.064-.425.087-.644.048-.487.077-.966.077-1.474s-.025-.966-.07-1.436c-.023-.251-.064-.5-.1-.741-.025-.174-.042-.351-.07-.522h0A15.19,15.19,0,0,0,20.7.258c-.219-.049-.421-.068-.621-.1s-.435-.068-.644-.091C18.947.025,18.468,0,17.981,0s-.966.025-1.442.07c-.223.023-.438.058-.644.091s-.406.045-.6.08A15.19,15.19,0,0,0,3.06,12.474c-.033.184-.048.373-.077.56s-.1.487-.132.722c-.045.473-.07.966-.07,1.439s.025.966.07,1.436c.023.248.064.487.1.731.025.177.041.357.074.534A15.19,15.19,0,0,0,15.257,30.128c.186.033.377.052.563.077s.464.07.7.093c.473.045.966.07,1.436.07H18V26.827h-.023a11.591,11.591,0,0,1-1.989-.184,30.963,30.963,0,0,1-1.23-6c1.046.064,2.125.1,3.219.1h.045V18.727h-.045c-1.213,0-2.353-.041-3.419-.113-.074-1.065-.122-2.2-.122-3.419s.041-2.353.113-3.422c1.069-.07,2.208-.113,3.422-.113s2.35.041,3.415.113v.184a2.471,2.471,0,0,1,.853.512l1.246,1.143c-.016-.56-.048-1.1-.084-1.649h0A31.109,31.109,0,0,1,29.454,13.2a11.856,11.856,0,0,1,.18,1.989,11.564,11.564,0,0,1-.174,1.987c-.479.157-.988.322-1.564.458l1.191,1.091L31.894,21.3h0a15.049,15.049,0,0,0,1.024-3.4,5.557,5.557,0,0,0,.094-.595ZM13.7,4.372h0a36.863,36.863,0,0,0-.986,5.544,36.6,36.6,0,0,0-5.539.982,11.707,11.707,0,0,1,6.511-6.526Zm0,21.649h0a11.7,11.7,0,0,1-6.539-6.527,36.811,36.811,0,0,0,5.54.985,36.964,36.964,0,0,0,.982,5.54Zm-1.169-7.6a31.014,31.014,0,0,1-6.019-1.239,10.982,10.982,0,0,1,0-3.982,31.016,31.016,0,0,1,6.019-1.239c-.064,1.046-.1,2.125-.1,3.219s.039,2.2.1,3.24Zm5.454-8.787c-1.1,0-2.183.035-3.219.1A31.017,31.017,0,0,1,16,3.719a10.906,10.906,0,0,1,3.979,0A31.016,31.016,0,0,1,21.2,9.742c-1.036-.068-2.115-.1-3.219-.1Zm5.276.274h0a36.977,36.977,0,0,0-.982-5.543A11.7,11.7,0,0,1,28.8,10.9a36.713,36.713,0,0,0-5.547-.986Z" fill="#fff"/>
  </g>
</svg>
