<svg xmlns="http://www.w3.org/2000/svg" width="247.432" height="395.011" viewBox="0 0 247.432 395.011">
  <g id="_13_Isometric_Teamwork" data-name="13_Isometric Teamwork" transform="translate(-118.801 -45.533)">
    <g id="Group_468" data-name="Group 468" transform="translate(118.801 45.533)">
      <g id="Group_357" data-name="Group 357" transform="translate(207.116 349.069)">
        <g id="Group_354" data-name="Group 354">
          <path id="Path_332" data-name="Path 332" d="M939.97,1147.6l-.07,20.931,25.937,14.985.07-20.965Z" transform="translate(-939.9 -1143.532)" fill="#7039ff"/>
          <g id="Group_351" data-name="Group 351" transform="translate(0.07)">
            <path id="Path_333" data-name="Path 333" d="M940.1,1139.968l6.989-4.068,25.9,14.951-6.954,4.068Z" transform="translate(-940.1 -1135.9)" fill="#5880db"/>
          </g>
          <g id="Group_352" data-name="Group 352" transform="translate(25.937 14.95)">
            <path id="Path_334" data-name="Path 334" d="M1014.57,1182.968l6.954-4.068-.035,20.965-6.989,4.068Z" transform="translate(-1014.5 -1178.9)" fill="#041d5b"/>
          </g>
          <path id="Path_335" data-name="Path 335" d="M950.848,1140.9l-.348.208,25.9,14.985.383-.208Z" transform="translate(-946.815 -1139.162)" fill="#92d7fe"/>
          <path id="Path_336" data-name="Path 336" d="M940.1,1147.6v6.4h0l25.9,14.95.035-6.4Z" transform="translate(-940.03 -1143.532)" fill="#4367c7"/>
          <g id="Group_353" data-name="Group 353" transform="translate(25.937 14.95)">
            <path id="Path_337" data-name="Path 337" d="M1014.635,1189.4l6.954-4.068V1178.9l-6.954,4.068-.035,6.432Z" transform="translate(-1014.565 -1178.9)" fill="#355db7"/>
            <path id="Path_338" data-name="Path 338" d="M1014.5,1247.6v1.148h.035l-.035-1.148Z" transform="translate(-1014.5 -1223.714)" fill="#041d5b"/>
          </g>
          <path id="Path_339" data-name="Path 339" d="M1025,1205.139l.383-.243V1184l-.383.209Z" transform="translate(-995.412 -1167.276)" fill="#92d7fe"/>
        </g>
        <g id="Group_356" data-name="Group 356" transform="translate(11.474 1.888)">
          <g id="Group_355" data-name="Group 355" transform="translate(0 0.751)">
            <path id="Path_340" data-name="Path 340" d="M980.41,1147.18a3.229,3.229,0,0,1,1.46,2.538v3.338l-1.043-.591v-3.338a.893.893,0,0,0-.417-.73l-6.05-3.512c-.243-.139-.417-.035-.417.243v3.338l-1.043-.591v-3.338c0-.938.661-1.321,1.46-.834Z" transform="translate(-972.9 -1143.491)" fill="#7039ff"/>
          </g>
          <path id="Path_341" data-name="Path 341" d="M982.479,1145.04l-6.05-3.512a1.054,1.054,0,0,0-1.043-.1l-1.286.765a1.053,1.053,0,0,1,1.043.1l.869.487-1.147.66a.311.311,0,0,0-.139.278v3.338l1.286-.765v-3.338a.313.313,0,0,1,.035-.174l5.146,2.955a3.23,3.23,0,0,1,1.46,2.538v3.338l1.286-.765v-3.338A3.034,3.034,0,0,0,982.479,1145.04Z" transform="translate(-973.683 -1141.33)" fill="#7039ff"/>
        </g>
      </g>
      <g id="Group_364" data-name="Group 364" transform="translate(56.464)">
        <path id="Path_342" data-name="Path 342" d="M512.024,579.173,511.5,353.351l-4.9-2.851.522,225.822c0,2.364.834,4.033,2.19,4.833l4.9,2.851C512.858,583.206,512.024,581.537,512.024,579.173Z" transform="translate(-506.6 -274.504)" fill="#f2f2f2"/>
        <g id="Group_358" data-name="Group 358" transform="translate(4.902 25.408)">
          <path id="Path_343" data-name="Path 343" d="M520.7,258.439l.035,17.21L643.085,205l.487,208.611A16.567,16.567,0,0,1,636.1,426.58L528.8,488.538c-4.137,2.4-7.51.487-7.545-4.311Z" transform="translate(-520.7 -205)" fill="#fff"/>
        </g>
        <path id="Path_344" data-name="Path 344" d="M629.05,154.479,511.6,222.278l-.035-11.543a16.567,16.567,0,0,1,7.475-12.969l107.3-61.958c2.086-1.217,3.964-1.321,5.354-.522l-4.9-2.851c-1.356-.8-3.268-.7-5.354.522L514.175,194.95c-4.137,2.4-7.51,8.205-7.475,12.969l.035,17.21,4.9,2.851,122.316-70.65Z" transform="translate(-506.665 -131.922)" fill="#b396ff"/>
        <g id="Group_359" data-name="Group 359" transform="translate(4.937 2.887)">
          <path id="Path_345" data-name="Path 345" d="M635.571,141.26c4.138-2.4,7.51-.487,7.545,4.311l.035,17.21L520.835,233.4l-.035-17.21a16.567,16.567,0,0,1,7.475-12.969Z" transform="translate(-520.8 -140.225)" fill="#7039ff"/>
        </g>
        <g id="Group_363" data-name="Group 363" transform="translate(93.388 16.946)">
          <g id="Group_360" data-name="Group 360" transform="translate(0 10.222)">
            <path id="Path_346" data-name="Path 346" d="M777.808,210.423c1.425-.834,2.608-.174,2.608,1.495a5.65,5.65,0,0,1-2.608,4.485c-1.426.834-2.608.174-2.608-1.495A5.8,5.8,0,0,1,777.808,210.423Z" transform="translate(-775.2 -210.063)" fill="#fed22c"/>
          </g>
          <g id="Group_361" data-name="Group 361" transform="translate(8.866 5.111)">
            <path id="Path_347" data-name="Path 347" d="M803.308,195.723c1.426-.834,2.608-.174,2.608,1.5a5.65,5.65,0,0,1-2.608,4.485c-1.425.834-2.608.174-2.608-1.5A5.893,5.893,0,0,1,803.308,195.723Z" transform="translate(-800.7 -195.363)" fill="#f965a8"/>
          </g>
          <g id="Group_362" data-name="Group 362" transform="translate(17.767)">
            <path id="Path_348" data-name="Path 348" d="M828.908,181.023c1.426-.834,2.608-.174,2.608,1.5A5.65,5.65,0,0,1,828.908,187c-1.426.834-2.608.174-2.608-1.5A5.6,5.6,0,0,1,828.908,181.023Z" transform="translate(-826.3 -180.663)" fill="#92d7fe"/>
          </g>
        </g>
      </g>
      <g id="Group_371" data-name="Group 371" transform="translate(72.492 48.599)">
        <g id="Group_365" data-name="Group 365" transform="translate(0.174 96.657)">
          <path id="Path_349" data-name="Path 349" d="M598.608,549.7l.139,52.188L553.374,628.1l-.174-52.188Z" transform="translate(-553.2 -549.7)" fill="#f2f2f2"/>
        </g>
        <g id="Group_366" data-name="Group 366" transform="translate(0 32.057)">
          <path id="Path_350" data-name="Path 350" d="M598.108,363.9l.139,52.153-45.408,26.215-.139-52.153Z" transform="translate(-552.7 -363.9)" fill="#f2f2f2"/>
        </g>
        <g id="Group_367" data-name="Group 367" transform="translate(55.525)">
          <path id="Path_351" data-name="Path 351" d="M757.808,271.7l.139,52.153-45.408,26.215-.139-52.153Z" transform="translate(-712.4 -271.7)" fill="#f2f2f2"/>
        </g>
        <g id="Group_368" data-name="Group 368" transform="translate(55.699 64.6)">
          <path id="Path_352" data-name="Path 352" d="M758.308,457.5l.139,52.188L713.039,535.9l-.139-52.188Z" transform="translate(-712.9 -457.5)" fill="#f2f2f2"/>
        </g>
        <g id="Group_369" data-name="Group 369" transform="translate(0.382 161.257)">
          <path id="Path_353" data-name="Path 353" d="M599.173,735.5l.174,52.188L553.939,813.9l-.139-52.188Z" transform="translate(-553.8 -735.5)" fill="#f2f2f2"/>
        </g>
        <g id="Group_370" data-name="Group 370" transform="translate(55.873 129.2)">
          <path id="Path_354" data-name="Path 354" d="M758.808,643.3l.174,52.188L713.574,721.7l-.174-52.188Z" transform="translate(-713.4 -643.3)" fill="#f2f2f2"/>
        </g>
      </g>
      <g id="Group_395" data-name="Group 395" transform="translate(107.226 107.159)">
        <path id="Path_355" data-name="Path 355" d="M739.383,440.605c1.912-1.113,3.477-.209,3.477,1.982l.209,71.38a7.648,7.648,0,0,1-3.477,6.015l-83.305,48.085c-1.912,1.112-3.477.208-3.477-1.982l-.209-71.38a7.648,7.648,0,0,1,3.477-6.015Z" transform="translate(-652.6 -440.128)" fill="#7039ff"/>
        <path id="Path_356" data-name="Path 356" d="M744.417,445.83a1.283,1.283,0,0,0-.139-.73h-.07a1.691,1.691,0,0,0-.7.243l-83.306,48.12a5.894,5.894,0,0,0-2.608,4.485l.035,8.97,86.817-50.1Z" transform="translate(-655.862 -443.371)" fill="#fff"/>
        <g id="Group_372" data-name="Group 372" transform="translate(57.612 44.998)">
          <path id="Path_357" data-name="Path 357" d="M842.5,569.672c.487-.278.9-.07.9.522a1.991,1.991,0,0,1-.9,1.565L819.2,585.213c-.487.278-.9.069-.9-.522a1.991,1.991,0,0,1,.9-1.565Z" transform="translate(-818.3 -569.55)" fill="#fff"/>
        </g>
        <g id="Group_373" data-name="Group 373" transform="translate(57.577 35.784)">
          <path id="Path_358" data-name="Path 358" d="M842.4,543.172c.487-.278.9-.07.9.522a1.991,1.991,0,0,1-.9,1.564l-23.3,13.456c-.487.278-.9.07-.9-.521a1.991,1.991,0,0,1,.9-1.565Z" transform="translate(-818.2 -543.05)" fill="#fff"/>
        </g>
        <g id="Group_374" data-name="Group 374" transform="translate(42.731 60.574)">
          <path id="Path_359" data-name="Path 359" d="M787.634,614.472c.487-.278.9-.069.9.522a1.991,1.991,0,0,1-.9,1.565l-11.23,6.467c-.487.278-.9.07-.9-.521a1.991,1.991,0,0,1,.9-1.565Z" transform="translate(-775.5 -614.35)" fill="#fff"/>
        </g>
        <g id="Group_375" data-name="Group 375" transform="translate(42.731 50.631)">
          <path id="Path_360" data-name="Path 360" d="M796.466,585.872c.487-.278.9-.07.9.522a1.992,1.992,0,0,1-.9,1.565L776.4,599.536c-.487.278-.9.07-.9-.521a1.991,1.991,0,0,1,.9-1.565Z" transform="translate(-775.5 -585.75)" fill="#f965a8"/>
        </g>
        <g id="Group_376" data-name="Group 376" transform="translate(34.351 69.127)">
          <path id="Path_361" data-name="Path 361" d="M757.1,639.072c.487-.278.9-.069.9.521a1.991,1.991,0,0,1-.9,1.565l-4.8,2.747c-.487.278-.9.069-.9-.522a1.991,1.991,0,0,1,.9-1.565Z" transform="translate(-751.4 -638.95)" fill="#fff"/>
        </g>
        <g id="Group_377" data-name="Group 377" transform="translate(9.77 72.048)">
          <path id="Path_362" data-name="Path 362" d="M752.949,647.472c.487-.278.9-.07.9.521a1.991,1.991,0,0,1-.9,1.565l-71.345,41.2c-.487.278-.9.069-.9-.522a1.991,1.991,0,0,1,.9-1.565Z" transform="translate(-680.7 -647.35)" fill="#92d7fe"/>
        </g>
        <g id="Group_378" data-name="Group 378" transform="translate(42.696 41.417)">
          <path id="Path_363" data-name="Path 363" d="M796.366,559.372c.487-.278.9-.07.9.522a1.991,1.991,0,0,1-.9,1.565L776.3,573.036c-.487.278-.9.069-.9-.522a1.991,1.991,0,0,1,.9-1.565Z" transform="translate(-775.4 -559.25)" fill="#fed22c"/>
        </g>
        <g id="Group_379" data-name="Group 379" transform="translate(9.77 67.598)">
          <path id="Path_364" data-name="Path 364" d="M752.949,634.672c.487-.278.9-.07.9.521a1.991,1.991,0,0,1-.9,1.564l-71.345,41.2c-.487.278-.9.07-.9-.522a1.991,1.991,0,0,1,.9-1.565Z" transform="translate(-680.7 -634.55)" fill="#92d7fe"/>
        </g>
        <g id="Group_380" data-name="Group 380" transform="translate(9.735 63.147)">
          <path id="Path_365" data-name="Path 365" d="M752.884,621.872c.487-.278.9-.07.9.521a1.991,1.991,0,0,1-.9,1.565L681.5,665.193c-.487.278-.9.07-.9-.522a1.991,1.991,0,0,1,.9-1.565Z" transform="translate(-680.6 -621.75)" fill="#92d7fe"/>
        </g>
        <g id="Group_381" data-name="Group 381" transform="translate(21.209 73.474)">
          <path id="Path_366" data-name="Path 366" d="M732.479,651.572c.487-.278.9-.07.9.521a1.991,1.991,0,0,1-.9,1.565l-17.975,10.4c-.487.278-.9.07-.9-.521a1.991,1.991,0,0,1,.9-1.565Z" transform="translate(-713.6 -651.45)" fill="#3ae0c0"/>
        </g>
        <g id="Group_382" data-name="Group 382" transform="translate(9.735 58.732)">
          <path id="Path_367" data-name="Path 367" d="M752.849,609.172c.487-.278.9-.07.9.522a1.991,1.991,0,0,1-.9,1.565l-71.345,41.2c-.487.278-.9.07-.9-.521a1.991,1.991,0,0,1,.9-1.565Z" transform="translate(-680.6 -609.05)" fill="#92d7fe"/>
        </g>
        <g id="Group_383" data-name="Group 383" transform="translate(9.7 54.281)">
          <path id="Path_368" data-name="Path 368" d="M752.784,596.372c.487-.278.9-.07.9.522a1.991,1.991,0,0,1-.9,1.565l-71.38,41.2c-.487.278-.9.07-.9-.521a1.991,1.991,0,0,1,.9-1.565Z" transform="translate(-680.5 -596.25)" fill="#92d7fe"/>
        </g>
        <g id="Group_384" data-name="Group 384" transform="translate(21.209 64.26)">
          <path id="Path_369" data-name="Path 369" d="M732.479,625.072c.487-.278.9-.069.9.522a1.991,1.991,0,0,1-.9,1.565l-17.975,10.4c-.487.278-.9.07-.9-.522a1.991,1.991,0,0,1,.9-1.565Z" transform="translate(-713.6 -624.95)" fill="#fed22c"/>
        </g>
        <g id="Group_385" data-name="Group 385" transform="translate(9.7 85.782)">
          <path id="Path_370" data-name="Path 370" d="M689.609,686.972c.487-.278.9-.07.9.521a1.991,1.991,0,0,1-.9,1.565l-8.205,4.729c-.487.278-.9.069-.9-.522a1.991,1.991,0,0,1,.9-1.565Z" transform="translate(-680.5 -686.85)" fill="#3ae0c0"/>
        </g>
        <g id="Group_386" data-name="Group 386" transform="translate(9.7 73.752)">
          <path id="Path_371" data-name="Path 371" d="M702.821,652.372c.487-.278.9-.07.9.521a1.991,1.991,0,0,1-.9,1.565L681.4,666.835c-.487.278-.9.07-.9-.521a1.992,1.992,0,0,1,.9-1.565Z" transform="translate(-680.5 -652.25)" fill="#fff"/>
        </g>
        <g id="Group_387" data-name="Group 387" transform="translate(21.174 55.046)">
          <path id="Path_372" data-name="Path 372" d="M732.379,598.572c.487-.278.9-.07.9.522a1.991,1.991,0,0,1-.9,1.565l-17.975,10.4c-.487.278-.9.07-.9-.521a1.991,1.991,0,0,1,.9-1.565Z" transform="translate(-713.5 -598.45)" fill="#fed22c"/>
        </g>
        <g id="Group_388" data-name="Group 388" transform="translate(9.666 76.568)">
          <path id="Path_373" data-name="Path 373" d="M689.509,660.472c.487-.278.9-.069.9.522a1.991,1.991,0,0,1-.9,1.565l-8.205,4.729c-.487.278-.9.069-.9-.521a1.991,1.991,0,0,1,.9-1.565Z" transform="translate(-680.4 -660.35)" fill="#fed22c"/>
        </g>
        <g id="Group_389" data-name="Group 389" transform="translate(9.666 64.538)">
          <path id="Path_374" data-name="Path 374" d="M702.722,625.872c.487-.278.9-.07.9.521a1.992,1.992,0,0,1-.9,1.565L681.3,640.335c-.487.278-.9.07-.9-.521a1.991,1.991,0,0,1,.9-1.565Z" transform="translate(-680.4 -625.75)" fill="#3ae0c0"/>
        </g>
        <g id="Group_390" data-name="Group 390" transform="translate(9.631 55.324)">
          <path id="Path_375" data-name="Path 375" d="M702.622,599.372c.487-.278.9-.07.9.522a1.991,1.991,0,0,1-.9,1.565L681.2,613.835c-.487.278-.9.07-.9-.522a1.992,1.992,0,0,1,.9-1.565Z" transform="translate(-680.3 -599.25)" fill="#f965a8"/>
        </g>
        <g id="Group_391" data-name="Group 391" transform="translate(42.696 51.361)">
          <path id="Path_376" data-name="Path 376" d="M787.534,587.972c.487-.278.9-.069.9.522a1.991,1.991,0,0,1-.9,1.565l-11.23,6.467c-.487.278-.9.07-.9-.522a1.991,1.991,0,0,1,.9-1.565Z" transform="translate(-775.4 -587.85)" fill="#fff"/>
        </g>
        <g id="Group_392" data-name="Group 392" transform="translate(42.696 42.112)">
          <path id="Path_377" data-name="Path 377" d="M787.5,561.372c.487-.278.9-.069.9.522a1.991,1.991,0,0,1-.9,1.565l-11.2,6.5c-.487.278-.9.07-.9-.521a1.991,1.991,0,0,1,.9-1.565Z" transform="translate(-775.4 -561.25)" fill="#fff"/>
        </g>
        <g id="Group_393" data-name="Group 393" transform="translate(66.582 40.08)">
          <path id="Path_378" data-name="Path 378" d="M859.5,555.507c.417-.243.73-.035.73.417v.417a1.54,1.54,0,0,1-.73,1.252l-14.672,8.483c-.417.243-.73.035-.73-.417v-.417a1.54,1.54,0,0,1,.73-1.252Z" transform="translate(-844.1 -555.404)" fill="#f965a8"/>
        </g>
        <g id="Group_394" data-name="Group 394" transform="translate(34.282 50.665)">
          <path id="Path_379" data-name="Path 379" d="M756.9,585.972c.487-.278.9-.069.9.522a1.991,1.991,0,0,1-.9,1.565l-4.8,2.747c-.487.278-.9.069-.9-.521a1.991,1.991,0,0,1,.9-1.565Z" transform="translate(-751.2 -585.85)" fill="#f965a8"/>
        </g>
      </g>
      <g id="Group_396" data-name="Group 396" transform="translate(120.339 192.541)">
        <path id="Path_380" data-name="Path 380" d="M711.448,769.531a65.834,65.834,0,0,1-10.013-8.518,11.233,11.233,0,0,1-5.076-1.634c-1.912-1.425-1.912-1.53-2.19-2.19s-.765-2.4-.765-2.4-2.295-.765-2.955-1.808,1.252-.974,2.677-.383,4.8,2.295,4.8,2.295a45.22,45.22,0,0,1,4.972,2.295c1.147.765,10.917,6.119,10.917,6.119Z" transform="translate(-690.313 -729.06)" fill="#e9b488"/>
        <path id="Path_381" data-name="Path 381" d="M772.946,969.908s-4.172-.382-6.641-.661c0,0-2.086-.348-2.225,1.6-.139,1.912,1.043,3.373,4.416,5.041l4.416,1.947a6.724,6.724,0,0,0,3.233,1.182c1.565,0,2.747-.521,2.851-1.7V967.3Z" transform="translate(-738.425 -869.392)" fill="#fefbf0"/>
        <path id="Path_382" data-name="Path 382" d="M796.946,953.008s-4.172-.383-6.641-.661c0,0-2.086-.348-2.225,1.6-.139,1.912,1.043,3.373,4.416,5.041l4.416,1.947a6.724,6.724,0,0,0,3.233,1.182c1.565,0,2.747-.521,2.851-1.7V950.4Z" transform="translate(-754.08 -858.368)" fill="#fefbf0"/>
        <path id="Path_383" data-name="Path 383" d="M774.358,830.386l-1.286-.243a92.648,92.648,0,0,0,.661,15.333c1.043,6.5,1.7,12.482,3.233,19.888a45.534,45.534,0,0,1,.765,13.664,3.277,3.277,0,0,0,2.469,3.234c2.608.765,4.694-1.7,4.694-1.7s-.382-20.409-.522-23.017a41.585,41.585,0,0,0-1.425-7.023,31.265,31.265,0,0,1,2.468,7.545v16.376s.243,2.086,3.512,2.469a4.1,4.1,0,0,0,4.311-2.608V860.391s-.487-4.45-1.043-8.518a37.535,37.535,0,0,1,.035-10.257c.7-4.624,1.425-11.23,1.008-15.02C792.542,826.492,774.358,830.386,774.358,830.386Z" transform="translate(-744.253 -777.607)" fill="#fed22c"/>
        <path id="Path_384" data-name="Path 384" d="M780.93,698.147v4.937s-.522,4.555,2.33,4.555v3.894h7.162v-4.277L784.3,697.1l-3.407-.9Z" transform="translate(-749.399 -692.549)" fill="#e9b488"/>
        <path id="Path_385" data-name="Path 385" d="M780.095,691.3s.382,0,.9.765a9.255,9.255,0,0,1,.9,2.33s.765-.139,1.182,1.043l.382,1.182s2.225.661,2.851,2.086a2.719,2.719,0,0,0,3.234,1.7s1.565-.243,2.608-2.747c1.043-2.469,1.7-6.119-.661-8.831-2.329-2.747-3.755-3.129-7.545-3.129C780.2,685.7,778.773,689.768,780.095,691.3Z" transform="translate(-748.564 -685.7)" fill="#713d22"/>
        <path id="Path_386" data-name="Path 386" d="M764.26,732.49s-3.025.765-7.336,4.416c-4.277,3.651-7.788,11.821-7.788,11.821s-1.7,3.233-.765,5.215c0,0,1.043,1.947,2.469,1.947s4.45-3.373,5.354-4.555,1.53-1.947,1.53-1.947a52.706,52.706,0,0,1,0,6.5c-.243,2.608-.9,11.2-.9,11.2s.07,5.841,2.677,8.31c2.642,2.469,6.919.139,10.326-1.286a14.651,14.651,0,0,0,6.5-5.076c.765-1.286,1.043-7.788,0-11.439s-1.808-8.066-1.043-12.1,2.608-8.831.765-13S769.2,729.917,764.26,732.49Z" transform="translate(-728.001 -714.549)" fill="#3ae0c0"/>
      </g>
      <g id="Group_400" data-name="Group 400" transform="translate(113.624 153.145)">
        <g id="Group_397" data-name="Group 397" transform="translate(0 5.98)">
          <path id="Path_387" data-name="Path 387" d="M672.53,589.8c.834-.487,1.53-.1,1.53.869a3.306,3.306,0,0,1-1.53,2.642c-.869.487-1.53.1-1.53-.869A3.4,3.4,0,0,1,672.53,589.8Z" transform="translate(-671 -589.593)" fill="#7039ff"/>
        </g>
        <g id="Group_398" data-name="Group 398" transform="translate(5.181 2.99)">
          <path id="Path_388" data-name="Path 388" d="M687.43,581.2c.834-.487,1.53-.1,1.53.869a3.307,3.307,0,0,1-1.53,2.642c-.834.487-1.53.1-1.53-.869A3.5,3.5,0,0,1,687.43,581.2Z" transform="translate(-685.9 -580.993)" fill="#7039ff"/>
        </g>
        <g id="Group_399" data-name="Group 399" transform="translate(10.396)">
          <path id="Path_389" data-name="Path 389" d="M702.43,572.6c.834-.487,1.53-.1,1.53.869a3.4,3.4,0,0,1-1.53,2.642c-.834.487-1.53.1-1.53-.869A3.4,3.4,0,0,1,702.43,572.6Z" transform="translate(-700.9 -572.393)" fill="#7039ff"/>
        </g>
      </g>
      <g id="Group_407" data-name="Group 407" transform="translate(0 83.873)">
        <g id="Group_401" data-name="Group 401" transform="translate(46.764 40.73)">
          <path id="Path_390" data-name="Path 390" d="M513.295,490.3c-.626,10.709-8.066,23.191-17.245,28.475-9.144,5.285-16.654,1.46-17.349-8.483l2.886-1.669c.661,8.136,6.884,11.23,14.464,6.884,7.58-4.381,13.768-14.638,14.359-23.5Z" transform="translate(-478.7 -490.3)" fill="#3ae0c0"/>
        </g>
        <g id="Group_402" data-name="Group 402" transform="translate(46.764 26.982)">
          <path id="Path_391" data-name="Path 391" d="M495.945,453.138c9.144-5.285,16.654-1.46,17.35,8.483l-2.886,1.669c-.661-8.136-6.884-11.23-14.464-6.884-7.579,4.381-13.768,14.638-14.359,23.5l-2.886,1.669C479.326,470.9,486.8,458.423,495.945,453.138Z" transform="translate(-478.7 -450.76)" fill="#fed22c"/>
        </g>
        <g id="Group_403" data-name="Group 403" transform="translate(93.458)">
          <path id="Path_392" data-name="Path 392" d="M630.315,375.534a15.344,15.344,0,0,1,8.344-2.364l-1.565,3.685a12.774,12.774,0,0,0-6.78,1.982c-8,4.624-14.464,15.82-14.429,25,0,5.32,2.225,8.831,5.633,9.909l-1.565,3.685c-4.207-1.217-6.919-5.424-6.954-11.926C613,394.448,620.754,381.062,630.315,375.534Z" transform="translate(-613 -373.154)" fill="#f965a8"/>
        </g>
        <g id="Group_404" data-name="Group 404" transform="translate(102.567 0.364)">
          <path id="Path_393" data-name="Path 393" d="M657.871,374.2c4.207,1.217,6.919,5.424,6.954,11.926.035,10.987-7.719,24.408-17.28,29.936a15.343,15.343,0,0,1-8.345,2.364l1.565-3.685a12.774,12.774,0,0,0,6.78-1.982c8-4.624,14.464-15.82,14.429-25,0-5.32-2.225-8.831-5.632-9.909Z" transform="translate(-639.2 -374.2)" fill="#7039ff"/>
        </g>
        <g id="Group_405" data-name="Group 405" transform="translate(0 80.366)">
          <path id="Path_394" data-name="Path 394" d="M347.086,609.967c.661,8.136,6.884,11.23,14.464,6.884,4.52-2.608,8.518-7.3,11.161-12.551l2.364.487c-3.164,6.4-8.032,12.169-13.525,15.333-9.144,5.285-16.654,1.46-17.35-8.484Z" transform="translate(-344.2 -604.3)" fill="#f965a8"/>
        </g>
        <g id="Group_406" data-name="Group 406" transform="translate(0 54)">
          <path id="Path_395" data-name="Path 395" d="M361.445,530.842c9.561-5.528,17.349-1.078,17.384,9.909a31.82,31.82,0,0,1-2.329,11.4l-2.364-.487a26.374,26.374,0,0,0,1.843-9.248c-.035-9.179-6.536-12.9-14.533-8.275-7.58,4.381-13.768,14.638-14.359,23.5l-2.886,1.669C344.826,548.609,352.3,536.127,361.445,530.842Z" transform="translate(-344.2 -528.466)" fill="#7039ff"/>
        </g>
      </g>
      <g id="Group_408" data-name="Group 408" transform="translate(35.322 230.649)">
        <path id="Path_396" data-name="Path 396" d="M516.512,825.956l-.487-.035V823.8s0,.382-1.5,1.808a5.888,5.888,0,0,0-1.53,3.755v7.962l2.747-.556v-8.936s1.182-.313,1.425-.973v-.035A.73.73,0,0,0,516.512,825.956Z" transform="translate(-489.633 -813.893)" fill="#e9b488"/>
        <path id="Path_397" data-name="Path 397" d="M454.505,1053.9a8.6,8.6,0,0,0-4.311,4.1s-.243,3.616,3.442,7.719,5.215,5.181,6.571,4.172c1.321-1.043-.626-8.483-.626-8.483l-1.043-3.755Z" transform="translate(-448.661 -963.991)" fill="#fefbf0"/>
        <path id="Path_398" data-name="Path 398" d="M480.619,1096l.9.452s3.859,4.207,5.041,5.632,1.634,2.225,1.286,3.616c0,0-1.043,1.739-5.424.452s-8.136-6.919-8.136-6.919-.7-1.286,1.391-2.816Z" transform="translate(-464.31 -991.453)" fill="#fefbf0"/>
        <path id="Path_399" data-name="Path 399" d="M478.733,920.7a154.473,154.473,0,0,0,3.407,15.194c1.982,6.919,1.634,12.412,0,14.047s-8.205,12.76-10.291,14.985a47.053,47.053,0,0,0-4.8,7.128,5.44,5.44,0,0,1-4.45-5.041s4.1-8.831,8.588-14.255c4.52-5.424,5.076-7.162,5.076-7.162s-6.015-9.631-6.919-15.194,1.808-8.414,1.808-8.414Z" transform="translate(-456.756 -877.102)" fill="#7039ff"/>
        <path id="Path_400" data-name="Path 400" d="M461.6,922.964a24.57,24.57,0,0,0-1.356,11.335c.834,5.98,4.311,18.393,4.311,18.393a40.89,40.89,0,0,0-.834,12.482c.661,6.5,2.677,16.863,2.677,16.863s3.407,1.982,5.841,0c0,0-1.634-22.947-1.738-25.624a15.217,15.217,0,0,1,.869-5.25s2.19-13.8,1.7-15.924c-.452-2.121-2.921-14.637-2.921-14.637Z" transform="translate(-455.096 -877.037)" fill="#7039ff"/>
        <path id="Path_401" data-name="Path 401" d="M466.534,837.508s2.608-.487,3.825.661c1.217,1.182,2.26,3.685,3.094,6.05a11.823,11.823,0,0,1,.834,3.3v-2.573s1.738.348,2.921.452v8.414s-.348,2.469-1.982,2.33c-1.634-.1-3.338-2.573-3.338-2.573s.278,7.475,1.356,9.492a23.048,23.048,0,0,1,1.391,3.025s-2.225,5.146-6.78,5.146-10.778-2.816-10.778-2.816,2.19-3.964,2.364-6.536c0,0-.626.939-2.364-1.286s-3.685-10.326-3.025-14.846c0,0,.452-2.642,6.085-5.737C460.1,840.046,466.5,840.672,466.534,837.508Z" transform="translate(-451.094 -822.768)" fill="#f965a8"/>
        <path id="Path_402" data-name="Path 402" d="M496.78,876.129s2.434-2.017,3.581-2.747c1.113-.765,2.781-.869,3.79-3.338,1.043-2.434,3.546-2.816,3.338-4.137-.174-1.321-3.755-.765-4.972,0-1.182.765-1.773,3.477-4.033,4.729a14.762,14.762,0,0,1-3.025,1.425A3.58,3.58,0,0,0,496.78,876.129Z" transform="translate(-478.072 -840.841)" fill="#e9b488"/>
        <path id="Path_403" data-name="Path 403" d="M480.148,806.6a28.884,28.884,0,0,1,1.043,7.719,17.609,17.609,0,0,1-.522,3.755,7.223,7.223,0,0,1-2.99,0v4.694a2.886,2.886,0,0,1-3.025,1.286c-1.982-.452-4.207-4.1-4.207-4.1a5.436,5.436,0,0,0,1.738-4.589s-1.878.382-2.33-2.086,1.182-2.677,2.573-.939C472.429,812.337,478.757,810.251,480.148,806.6Z" transform="translate(-461.439 -802.674)" fill="#e9b488"/>
        <path id="Path_404" data-name="Path 404" d="M464.5,799.3l.035-.07a3.787,3.787,0,0,0-2.329-3.268c-2.329-1.043-7.371-1.182-9.6,2.121-2.225,3.268-.939,6.05-1.182,9.909s-1.043,5.528-3.755,6.919c-2.677,1.391-2.677,9.353,1.182,9.839s10.813-4.9,11.022-11.335a19.194,19.194,0,0,1,2.5-8.762A21.5,21.5,0,0,0,464.5,799.3Z" transform="translate(-445.792 -795.307)" fill="#713d23"/>
      </g>
      <path id="Path_405" data-name="Path 405" d="M832.069,161.838c1.217-.7,2.225-.139,2.225,1.252l.174,62.966a4.937,4.937,0,0,1-2.19,3.825L746.4,279.46c-1.217.7-2.225.139-2.225-1.252L744,215.243a4.882,4.882,0,0,1,2.19-3.825Z" transform="translate(-604.995 -151.242)" fill="#ff9d00"/>
      <path id="Path_406" data-name="Path 406" d="M749,219.031a3.2,3.2,0,0,1,1.321-2.295L835.782,167.4l.174,62.514a3.14,3.14,0,0,1-1.321,2.295l-85.461,49.337Z" transform="translate(-608.257 -155.065)" fill="#fff"/>
      <path id="Path_407" data-name="Path 407" d="M749.4,361.6l.035,13.942L834.9,326.207a3.094,3.094,0,0,0,1.321-2.295l-.035-12.412Z" transform="translate(-608.518 -249.063)" fill="#ff9d00"/>
      <g id="Group_409" data-name="Group 409" transform="translate(176.416 54.051)">
        <path id="Path_408" data-name="Path 408" d="M853.478,287.632a1.47,1.47,0,0,1,1.113-.209l12,3.268c1.008.278,1.008,2.017,0,3.477L854.66,311.24a4.038,4.038,0,0,1-1.113,1.078c-.974.556-1.878.209-1.878-1.078l-.035-10.187-.035-10.187A4.133,4.133,0,0,1,853.478,287.632Z" transform="translate(-851.6 -287.382)" fill="#ff9d00"/>
      </g>
      <g id="Group_410" data-name="Group 410" transform="translate(147.558 72.775)">
        <path id="Path_409" data-name="Path 409" d="M840.64,341.431c.8-.452,1.46-.1,1.46.834a3.166,3.166,0,0,1-1.46,2.5l-70.58,40.784c-.8.452-1.46.1-1.46-.834a3.22,3.22,0,0,1,1.46-2.5Z" transform="translate(-768.6 -341.235)" fill="#de6f00"/>
      </g>
      <path id="Path_410" data-name="Path 410" d="M808.484,398.6a1.119,1.119,0,0,0-1.669-.974L769.96,418.9a3.22,3.22,0,0,0-1.46,2.5c0,.9.661,1.286,1.46.834l37.307-21.557a2.355,2.355,0,0,0,1.217-2.086Z" transform="translate(-620.977 -305.149)" fill="#fff"/>
      <g id="Group_411" data-name="Group 411" transform="translate(183.509 90.656)">
        <path id="Path_411" data-name="Path 411" d="M874.608,393.023c1.425-.834,2.608-.174,2.608,1.5A5.7,5.7,0,0,1,874.608,399c-1.425.834-2.608.174-2.608-1.5A5.894,5.894,0,0,1,874.608,393.023Z" transform="translate(-872 -392.663)" fill="#fff"/>
      </g>
      <g id="Group_416" data-name="Group 416" transform="translate(194.704 188.468)">
        <path id="Path_412" data-name="Path 412" d="M974.935,744.834s-2.851-.1-4.346-1.286c-1.46-1.182-2.121-1.912-2.4-3.547s.487-2.573,1.078-2.712,2.086,2.4,2.677,2.538-.452-1.252.313-1.773,2.712,2.747,5.771,4.763S974.935,744.834,974.935,744.834Z" transform="translate(-945.903 -715.276)" fill="#e9b488"/>
        <path id="Path_413" data-name="Path 413" d="M926.435,763.034s-2.851-.1-4.346-1.286c-1.46-1.182-2.121-1.912-2.4-3.546s.487-2.573,1.078-2.712,2.086,2.4,2.677,2.538-.452-1.252.313-1.773,2.712,2.747,5.772,4.763C932.624,763.034,926.435,763.034,926.435,763.034Z" transform="translate(-914.266 -727.148)" fill="#e9b488"/>
        <path id="Path_414" data-name="Path 414" d="M950.648,741a37.026,37.026,0,0,0-1.808,7.962L948.179,754l-5.806-3.373s-3.581.869-3.477,4.033c0,0,6.293,4.52,8.379,5.771s3.373,2.712,5.146.7,3.234-8.727,3.2-9.561S950.648,741,950.648,741Z" transform="translate(-926.831 -717.7)" fill="#fed22c"/>
        <g id="Group_413" data-name="Group 413" transform="translate(0 7.098)">
          <g id="Group_412" data-name="Group 412" transform="translate(0.052)">
            <path id="Path_415" data-name="Path 415" d="M941.152,702.049c3.616,2.086,3.651,5.493.035,7.579l-10.465,6.084a14.509,14.509,0,0,1-13.108,0l-10.535-6.084c-3.616-2.086-3.651-5.493-.035-7.579l10.465-6.085a14.509,14.509,0,0,1,13.108,0Z" transform="translate(-904.35 -694.4)" fill="#fff"/>
          </g>
          <path id="Path_416" data-name="Path 416" d="M941.09,731.125l-10.465,6.084a14.509,14.509,0,0,1-13.108,0l-10.535-6.084c-1.843-1.043-2.747-2.434-2.747-3.824l-.035,7.684c0,1.391.9,2.781,2.747,3.825l10.535,6.084a14.509,14.509,0,0,0,13.108,0l10.465-6.084c1.808-1.043,2.677-2.4,2.677-3.755l.035-7.684C943.8,728.691,942.9,730.082,941.09,731.125Z" transform="translate(-904.2 -715.861)" fill="#f2f2f2"/>
        </g>
        <path id="Path_417" data-name="Path 417" d="M974.015,969.513l-1.7.383s-3.964-2.469-5.841-.383c0,0-1.182,1.252,3.79,3.79,4.833,2.469,6.919,2.469,6.919,2.469s2.642-.9,2.33-7.371h-3.964Z" transform="translate(-944.739 -866.036)" fill="#fff"/>
        <g id="Group_415" data-name="Group 415" transform="translate(7.44 6.02)">
          <g id="Group_414" data-name="Group 414">
            <path id="Path_418" data-name="Path 418" d="M990.934,700.5l-1.6.939-.035,4.729,1.6-.939Z" transform="translate(-967.152 -697.301)" fill="#2cc4a7"/>
            <path id="Path_419" data-name="Path 419" d="M933.4,701.439l-1.6-.939v4.728l1.6.939Z" transform="translate(-929.644 -697.301)" fill="#2cc4a7"/>
            <path id="Path_420" data-name="Path 420" d="M949.684,703.4v-.278c0-.035,0-.035.035-.07,0-.035,0-.035.035-.07,0-.035,0-.035.035-.07,0-.035.035-.035.035-.069s.035-.035.035-.07.035-.035.035-.07.035-.035.035-.07a.121.121,0,0,1,.035-.07l.035-.035c.035-.035.035-.07.07-.1l.035-.035c.035-.035.07-.1.1-.139l.035-.035.1-.1.035-.035.07-.07.07-.07.069-.07c.035,0,.035-.035.07-.035l.07-.07c.035,0,.035-.035.069-.035.035-.035.07-.035.07-.07.035-.035.069-.035.1-.07l.209-.1c.035,0,.035-.035.07-.035.07-.035.1-.07.174-.07.035,0,.035-.035.07-.035a1.691,1.691,0,0,1,.243-.1h.035c.07-.035.139-.035.209-.069a.121.121,0,0,0,.069-.035c.035,0,.07-.035.1-.035s.069-.035.1-.035.07-.035.1-.035a.128.128,0,0,0,.1-.035c.035,0,.069-.035.1-.035a313.05,313.05,0,0,0,.209-.07h.1c.069,0,.174-.035.278-.035h.035c.07,0,.139-.035.244-.035h1.008a2.14,2.14,0,0,1,.452.035h0c.139,0,.313.035.452.035h.035a1.5,1.5,0,0,1,.174.035h.07c.035,0,.1.035.139.035h.069c.035,0,.1.035.139.035s.069,0,.069.035c.035,0,.1.035.139.035s.07,0,.07.035c.069.035.139.035.209.069h.035c.069.035.174.07.243.1a.034.034,0,0,1,.035.035,1.234,1.234,0,0,1,.313.139h.035a1.4,1.4,0,0,1,.313.174,2.315,2.315,0,0,1,1.356,1.912V698.81a2.315,2.315,0,0,0-1.356-1.912c-.1-.07-.209-.1-.313-.174h-.035c-.1-.035-.209-.1-.313-.139h-.069c-.07-.035-.174-.07-.243-.1h-.035c-.07-.035-.139-.035-.209-.07h-.069c-.035,0-.1-.035-.139-.035s-.069,0-.069-.035c-.035,0-.1-.035-.139-.035h-.07c-.035,0-.1-.035-.139-.035h-.07a1.5,1.5,0,0,1-.174-.035h-.035a1.989,1.989,0,0,0-.452-.035h0c-.139,0-.278-.035-.452-.035H953.4a.677.677,0,0,0-.243.035h-.035c-.1,0-.174.035-.278.035h-.1a208.975,208.975,0,0,1-.209.07c-.035,0-.069.035-.1.035a.127.127,0,0,0-.1.035c-.035,0-.07.035-.1.035s-.069.035-.1.035-.07.035-.1.035h-.07c-.035,0-.07.035-.1.035v-.035a.122.122,0,0,0-.07.035h-.035a1.694,1.694,0,0,1-.243.1c-.035,0-.035.035-.07.035-.07.035-.1.069-.174.069-.035,0-.035.035-.069.035l-.209.1c-.035,0-.035.035-.069.035l-.035.035c-.035.035-.07.035-.07.07-.035,0-.035.035-.07.035-.035.035-.07.035-.07.07-.035,0-.035.035-.069.035l-.07.069-.069.07-.07.069a.034.034,0,0,0-.035.035l-.035.035-.1.1-.035.035c-.035.035-.07.1-.1.139h0a.034.034,0,0,1-.035.035c-.035.035-.035.07-.07.1l-.035.035a.108.108,0,0,0-.035.069v.07c0,.035-.035.035-.035.07s-.035.035-.035.07-.035.035-.035.069v.07c0,.035,0,.035-.035.07,0,.035,0,.035-.035.069V703.5C949.649,703.434,949.684,703.4,949.684,703.4Z" transform="translate(-941.304 -691.3)" fill="#2cc4a7"/>
            <path id="Path_421" data-name="Path 421" d="M949.243,711.747c-.035.07-.07.174-.1.244a.034.034,0,0,1-.035.035,1.7,1.7,0,0,0-.1.244.034.034,0,0,1-.035.035,1.516,1.516,0,0,0-.139.243h0c-.035.07-.1.139-.139.209l-.035.035c-.07.07-.1.139-.174.209l-.035.035c-.035.069-.1.1-.139.174l-.07.069-.174.174-.035.035-.243.243v1.843l-1.738,1.008-1.6-.939a3.059,3.059,0,0,1-.521.174c-.07.035-.1.035-.174.069a.817.817,0,0,1-.278.07c-.069.035-.139.035-.174.069a1.015,1.015,0,0,1-.313.07c-.07,0-.1.035-.174.035a1.235,1.235,0,0,1-.348.07c-.035,0-.1.035-.139.035-.174.035-.313.069-.487.1a.964.964,0,0,1-.313.035.209.209,0,0,0-.139.035c-.139.035-.313.035-.452.07V717.8H936.2v-1.321c-.1,0-.209-.035-.348-.035-.1,0-.209-.035-.313-.035-.069,0-.1-.035-.174-.035-.139-.035-.243-.035-.383-.07a.128.128,0,0,1-.1-.035l-.522-.1c-.035,0-.1-.035-.139-.035-.139-.035-.243-.07-.382-.1-.07,0-.1-.035-.174-.035-.1-.035-.243-.07-.348-.1-.035,0-.1-.035-.139-.035-.174-.07-.313-.1-.487-.174l-1.6.939-1.773-1.008v-1.843a5.9,5.9,0,0,1-1.217-1.495,3.518,3.518,0,0,1-.243-.521H925.6v4.728h2.121v2.955l3.338,1.947,1.6-.939c.139.07.313.1.487.174.035,0,.1.035.139.035.1.035.209.069.348.1a.121.121,0,0,1,.07.035c.035,0,.07,0,.07.035.139.035.243.07.383.1.035,0,.1.035.139.035l.522.1h0a.128.128,0,0,1,.1.035c.139.035.243.035.382.069.07,0,.1.035.174.035a.961.961,0,0,0,.313.035h.1c.07,0,.174.035.243.035v1.321h4.728v-1.321c.139-.035.278-.035.452-.069a.209.209,0,0,0,.139-.035c.1,0,.174-.035.278-.035h0c.174-.035.313-.07.487-.1.035,0,.1-.035.139-.035.1-.035.243-.035.348-.07.07,0,.1-.035.174-.035.1-.035.209-.035.313-.069a.266.266,0,0,0,.174-.069.817.817,0,0,1,.278-.07c.035,0,.07-.035.1-.035s.035,0,.07-.035c.174-.069.348-.1.522-.174l1.6.939,3.338-1.947v-2.955h2.086v-4.729Z" transform="translate(-925.6 -702.846)" fill="#2cc4a7"/>
          </g>
          <path id="Path_422" data-name="Path 422" d="M949.373,700.266h2.26v-2.747h-2.26a5.51,5.51,0,0,0-1.46-2.016l1.6-.939-3.338-1.947-1.6.939a14.4,14.4,0,0,0-3.512-.834V691.4h-4.729v1.321a19.174,19.174,0,0,0-3.512.834l-1.6-.939-3.338,1.947,1.6.939a5.026,5.026,0,0,0-1.426,2.016H925.8v2.747h2.26a5.51,5.51,0,0,0,1.46,2.017l-1.6.939,3.338,1.947,1.6-.939a14.393,14.393,0,0,0,3.512.834v1.321H941.1v-1.321a16.693,16.693,0,0,0,3.512-.834l1.6.939,3.338-1.947-1.6-.939A5.027,5.027,0,0,0,949.373,700.266Zm-7.371.521a7.218,7.218,0,0,1-6.536,0c-1.808-1.043-1.808-2.747-.035-3.79a7.219,7.219,0,0,1,6.537,0C943.775,698.041,943.775,699.745,942,700.788Z" transform="translate(-925.731 -691.365)" fill="#3ae0c0"/>
        </g>
        <path id="Path_423" data-name="Path 423" d="M994.014,955.113l-1.7.382s-3.964-2.469-5.841-.382c0,0-1.182,1.252,3.79,3.79,4.833,2.469,6.919,2.469,6.919,2.469s2.643-.9,2.33-7.371h-3.964Z" transform="translate(-957.786 -856.643)" fill="#fff"/>
        <path id="Path_424" data-name="Path 424" d="M974.317,814.783l-2.4.174a55.5,55.5,0,0,0,1.217,23.782c3.512,13.421,2.364,30.562,2.364,30.562s1.147,2.086,3.025,2.086,3.2-1.7,4.137-3.581v-3.79s1.7,2.086,3.79,2.086a4.348,4.348,0,0,0,3.2-1.321V847.222s-.556-5.841-1.321-9.8,2.642-13.768,1.878-19.992C990.207,817.425,980.506,812.523,974.317,814.783Z" transform="translate(-947.893 -765.441)" fill="#7039ff"/>
        <path id="Path_425" data-name="Path 425" d="M980.617,690.6s-.939,7.545,0,8.866,4.728,0,4.728,0V703.6s1.321,1.7,3.025,1.148a7.473,7.473,0,0,0,3.025-2.26v-7.162Z" transform="translate(-953.776 -684.823)" fill="#e9b488"/>
        <path id="Path_426" data-name="Path 426" d="M979.31,725.548s-6.606,2.468-7.719,4.52-.383,4.485,0,8.17c.382,3.72,1.7,15.4.174,18.045a20.12,20.12,0,0,0,5.667,5.667c3.407,2.086,4.9,2.469,7.927.939a13.1,13.1,0,0,0,4.729-4.137s3.581-25.485,1.877-30.179c-1.7-4.729-2.921-4.555-6.606-4.137A34.69,34.69,0,0,0,979.31,725.548Z" transform="translate(-947.775 -706.768)" fill="#fed22c"/>
        <path id="Path_427" data-name="Path 427" d="M999.148,722.8a37.018,37.018,0,0,0-1.808,7.962l-.661,5.041-5.806-3.372s-3.581.869-3.477,4.033c0,0,6.293,4.52,8.379,5.772s3.373,2.712,5.146.7,3.233-8.727,3.2-9.561C1004.05,732.535,999.148,722.8,999.148,722.8Z" transform="translate(-958.469 -705.828)" fill="#fed22c"/>
        <path id="Path_428" data-name="Path 428" d="M983.4,682.2a5.436,5.436,0,0,1-2.642-2.469c-.765-1.7-.556-5.111,3.79-5.667s8.484,2.086,9.631,4.9.765,5.389,3.025,7.892,9.04,4.381,9.422,9.666-5.285,11.126-10.013,8.1-9.666-8.484-8.692-14.916C988.925,683.343,983.4,682.2,983.4,682.2Z" transform="translate(-953.912 -673.985)" fill="#713d23"/>
      </g>
      <g id="Group_417" data-name="Group 417" transform="translate(164.421 286.063)">
        <path id="Path_429" data-name="Path 429" d="M829.825,999.5l-12.725,6.919,14.151,10.883,12.76-6.919Z" transform="translate(-817.1 -983.919)" fill="#fff"/>
        <path id="Path_430" data-name="Path 430" d="M839.351,1040.607a22.687,22.687,0,0,1-3.094-.765,7.674,7.674,0,0,1-3.164-2.608c-.209-.626-.487-3.164,0-3.72s2.26,1.391,2.99,1.982a5.429,5.429,0,0,1,.73.626,6.579,6.579,0,0,1-.417-2.052c.139-.417.974-.487,1.912.556s3.512,3.3,3.512,3.3Z" transform="translate(-827.356 -1006.043)" fill="#e9b488"/>
        <path id="Path_431" data-name="Path 431" d="M885.815,1244.722l-.661.452a10.3,10.3,0,0,1-3.338-.209c-1.773-.452-3.79-.348-3.477,1.356s3.234,3.025,4.485,3.581c1.217.556,3.685,1.356,4.033,1.773.348.452.9,1.113,2.782.661,1.912-.452,1.982-1.217,1.982-1.217V1244.2Z" transform="translate(-857.026 -1143.54)" fill="#7039ff"/>
        <path id="Path_432" data-name="Path 432" d="M923.937,1228.7s-2.225-1.113-3.025-1.008-1.669,1.356,0,3.129a16.245,16.245,0,0,1,3.025,3.894c.661,1.356,1.112,2.329,2.677,2.225a3.883,3.883,0,0,0,1.286-.313,2.608,2.608,0,0,0,1.634-2.4v-3.581l-4.8-2.225Z" transform="translate(-884.197 -1132.764)" fill="#7039ff"/>
        <path id="Path_433" data-name="Path 433" d="M886.122,1100.278l-.522,1.7a106.339,106.339,0,0,0,1.739,17.071c1.565,7.162,2.573,24.686,2.573,24.686a2.463,2.463,0,0,0,2.469,1.773,8.53,8.53,0,0,0,4.242-1.217s.348-10.4,0-16.515c-.348-6.154-.7-9.84.139-12.969a87.513,87.513,0,0,0,1.878,10.952,142.311,142.311,0,0,1,2.573,14.533s.452,2.017,2.121,2.017,2.225-.348,3.338-1.669c0,0,.556-9.944.452-14.29s-2.468-10.4-2.468-10.4.556-15.75.348-19.992-7.719-7.267-7.719-7.267Z" transform="translate(-861.784 -1042.105)" fill="#a78264"/>
        <path id="Path_434" data-name="Path 434" d="M893.2,965.611v8.171s-.1,2.781,1.008,3.234a4.088,4.088,0,0,0,2.469,0v2.469a8.069,8.069,0,0,0,5.806-1.217v-2.573l-4.033-8.31S894.308,964.811,893.2,965.611Z" transform="translate(-866.736 -961.712)" fill="#e9b488"/>
        <path id="Path_435" data-name="Path 435" d="M869.564,999.284a20.572,20.572,0,0,0-5.7,3.338c-2.121,1.982-1.912,5.806-2.121,8.831a37.106,37.106,0,0,1-.661,5.042s-5.806-3.477-6.467-3.686c0,0-3.685.765-2.781,4.346,0,0,4.485,3.129,6.919,4.8,2.469,1.669,4.694,3.129,6.258,3.129,0,0-.556,3.129-1.565,6.919a33.9,33.9,0,0,0-.661,9.04s4.033,2.225,7.58,1.912c3.581-.348,5.041-1.461,5.041-1.461l1.669-6.71v5.6s4.137-2.017,5.806-5.042a79.944,79.944,0,0,0-.661-8.379c-.452-2.121,2.573-10.048,3.477-13.177s-1.217-13.073-2.121-15.09-4.485-3.894-8.171-2.121Z" transform="translate(-839.663 -981.547)" fill="#7039ff"/>
        <path id="Path_436" data-name="Path 436" d="M893.186,958.585a3.33,3.33,0,0,1,1.564-3.025,7.979,7.979,0,0,1,7.267,0c2.225,1.217,3.894,3.025,3.685,6.815s-3.233,6.815-3.233,6.815-1.217.348-3.79-2.329-3.164-6.154-3.79-7.267A1.879,1.879,0,0,0,893.186,958.585Z" transform="translate(-866.727 -954.686)" fill="#713d23"/>
      </g>
      <g id="Group_423" data-name="Group 423" transform="translate(21.696 169.906)">
        <g id="Group_421" data-name="Group 421">
          <g id="Group_418" data-name="Group 418" transform="translate(2.573 1.495)">
            <path id="Path_437" data-name="Path 437" d="M466.709,624.9l.1,30.214-22.5,12.969-3.859,6.71-3.894-2.225L414.1,685.536l-.1-30.214Z" transform="translate(-414 -624.9)" fill="#fff"/>
          </g>
          <g id="Group_419" data-name="Group 419" transform="translate(0 30.423)">
            <path id="Path_438" data-name="Path 438" d="M409.277,739.809l-2.573-1.495-.1-30.214,2.573,1.5Z" transform="translate(-406.6 -708.1)" fill="#dce5fe"/>
          </g>
          <g id="Group_420" data-name="Group 420">
            <path id="Path_439" data-name="Path 439" d="M409.173,652.518l-2.573-1.5L459.309,620.6l2.573,1.5Z" transform="translate(-406.6 -620.6)" fill="#dce5fe"/>
          </g>
        </g>
        <g id="Group_422" data-name="Group 422" transform="translate(8.414 13.27)">
          <path id="Path_440" data-name="Path 440" d="M431.669,694.13l39.358-22.53a1.883,1.883,0,0,0,.869-1.495c0-.556-.382-.8-.869-.521l-39.358,22.5a1.894,1.894,0,0,0-.869,1.53C430.8,694.2,431.182,694.408,431.669,694.13Z" transform="translate(-430.8 -665.747)" fill="#a9d6ff"/>
          <path id="Path_441" data-name="Path 441" d="M431.669,683.43l39.358-22.5a1.894,1.894,0,0,0,.869-1.53c0-.556-.382-.8-.869-.522l-39.358,22.53a1.884,1.884,0,0,0-.869,1.5C430.8,683.465,431.182,683.708,431.669,683.43Z" transform="translate(-430.8 -658.768)" fill="#a9d6ff"/>
          <path id="Path_442" data-name="Path 442" d="M431.765,704.93l39.358-22.5a1.894,1.894,0,0,0,.869-1.53c0-.556-.383-.8-.869-.521l-39.358,22.5a1.894,1.894,0,0,0-.869,1.53C430.861,704.965,431.279,705.208,431.765,704.93Z" transform="translate(-430.861 -672.793)" fill="#a9d6ff"/>
          <path id="Path_443" data-name="Path 443" d="M471.127,691.183l-39.358,22.53a1.884,1.884,0,0,0-.869,1.5c0,.556.382.8.869.522l39.358-22.53a1.884,1.884,0,0,0,.869-1.5C472,691.149,471.614,690.905,471.127,691.183Z" transform="translate(-430.865 -679.837)" fill="#a9d6ff"/>
        </g>
      </g>
      <g id="Group_428" data-name="Group 428" transform="translate(83.166 231.064)">
        <g id="Group_424" data-name="Group 424" transform="translate(0 19.436)">
          <path id="Path_444" data-name="Path 444" d="M587.259,852.4l.07,24.442-3.859,2.225-.07-24.442Z" transform="translate(-583.4 -852.4)" fill="#f965a8"/>
        </g>
        <g id="Group_425" data-name="Group 425" transform="translate(6.815)">
          <path id="Path_445" data-name="Path 445" d="M606.616,796.5l.139,40.088-3.651,2.086-.1-40.088Z" transform="translate(-603 -796.5)" fill="#fed22c"/>
        </g>
        <g id="Group_426" data-name="Group 426" transform="translate(14.255 0.939)">
          <path id="Path_446" data-name="Path 446" d="M628.677,799.2l.1,34.49-4.277,2.469-.1-34.49Z" transform="translate(-624.4 -799.2)" fill="#3ae0c0"/>
        </g>
        <g id="Group_427" data-name="Group 427" transform="translate(21.035 17.002)">
          <path id="Path_447" data-name="Path 447" d="M647.759,845.4l.035,14.777-3.859,2.225L643.9,847.66Z" transform="translate(-643.9 -845.4)" fill="#4367c7"/>
        </g>
      </g>
      <g id="Group_435" data-name="Group 435" transform="translate(88.521 295.143)">
        <g id="Group_429" data-name="Group 429" transform="translate(0 20.061)">
          <path id="Path_448" data-name="Path 448" d="M601.894,1057.235l-.035.209,19.992-11.543,29.1,16.9,1.391-1.147.8-.208v2.642L630.092,1077.4,598.8,1059.216v-2.573Z" transform="translate(-598.8 -1043.327)" fill="#f2f2f2"/>
          <path id="Path_449" data-name="Path 449" d="M598.8,1051.816,630.092,1070l23.051-13.282L621.852,1038.5Z" transform="translate(-598.8 -1038.5)" fill="#fff"/>
          <path id="Path_450" data-name="Path 450" d="M681.5,1097.835l19.575-11.335,1.391.834-19.575,11.3Z" transform="translate(-652.746 -1069.811)" fill="#a9d6ff"/>
          <path id="Path_451" data-name="Path 451" d="M672.8,1092.8l19.575-11.3,1.426.834-19.609,11.3Z" transform="translate(-647.071 -1066.55)" fill="#a9d6ff"/>
          <path id="Path_452" data-name="Path 452" d="M664.1,1087.8l19.61-11.3,1.391.8-19.575,11.3Z" transform="translate(-641.396 -1063.288)" fill="#a9d6ff"/>
          <path id="Path_453" data-name="Path 453" d="M655.5,1082.735l19.575-11.335,1.391.834-19.575,11.3Z" transform="translate(-635.786 -1059.961)" fill="#a9d6ff"/>
          <path id="Path_454" data-name="Path 454" d="M646.8,1077.7l19.575-11.3,1.426.8-19.609,11.335Z" transform="translate(-630.111 -1056.7)" fill="#a9d6ff"/>
          <path id="Path_455" data-name="Path 455" d="M638.1,1072.7l19.609-11.3,1.391.8-19.575,11.3Z" transform="translate(-624.436 -1053.438)" fill="#a9d6ff"/>
          <path id="Path_456" data-name="Path 456" d="M629.5,1067.6l19.575-11.3,1.391.834-19.575,11.3Z" transform="translate(-618.826 -1050.112)" fill="#a9d6ff"/>
          <path id="Path_457" data-name="Path 457" d="M620.8,1062.6l19.575-11.3,1.426.8-19.609,11.334Z" transform="translate(-613.151 -1046.85)" fill="#a9d6ff"/>
          <path id="Path_458" data-name="Path 458" d="M613.526,1058.334l-1.426-.8,19.575-11.335,1.426.834Z" transform="translate(-607.476 -1043.523)" fill="#a9d6ff"/>
        </g>
        <g id="Group_430" data-name="Group 430" transform="translate(0 16.063)">
          <path id="Path_459" data-name="Path 459" d="M601.894,1045.7l-.035.244,19.992-11.543,29.1,16.9,1.391-1.182.8-.209v2.677l-23.051,13.282L598.8,1047.682v-2.538Z" transform="translate(-598.8 -1031.827)" fill="#f2f2f2"/>
          <path id="Path_460" data-name="Path 460" d="M598.8,1040.316l31.292,18.184,23.051-13.316L621.852,1027Z" transform="translate(-598.8 -1027)" fill="#fff"/>
          <path id="Path_461" data-name="Path 461" d="M681.5,1086.3l19.575-11.3,1.391.8-19.575,11.335Z" transform="translate(-652.746 -1058.311)" fill="#a9d6ff"/>
          <path id="Path_462" data-name="Path 462" d="M672.8,1081.3l19.575-11.3,1.426.8-19.609,11.3Z" transform="translate(-647.071 -1055.05)" fill="#a9d6ff"/>
          <path id="Path_463" data-name="Path 463" d="M664.1,1076.2l19.61-11.3,1.391.834-19.575,11.3Z" transform="translate(-641.396 -1051.723)" fill="#a9d6ff"/>
          <path id="Path_464" data-name="Path 464" d="M655.5,1071.2l19.575-11.3,1.391.8-19.575,11.335Z" transform="translate(-635.786 -1048.461)" fill="#a9d6ff"/>
          <path id="Path_465" data-name="Path 465" d="M646.8,1066.2l19.575-11.3,1.426.8L648.191,1067Z" transform="translate(-630.111 -1045.2)" fill="#a9d6ff"/>
          <path id="Path_466" data-name="Path 466" d="M638.1,1061.1l19.609-11.3,1.391.834-19.575,11.3Z" transform="translate(-624.436 -1041.873)" fill="#a9d6ff"/>
          <path id="Path_467" data-name="Path 467" d="M629.5,1056.1l19.575-11.3,1.391.8-19.575,11.3Z" transform="translate(-618.826 -1038.611)" fill="#a9d6ff"/>
          <path id="Path_468" data-name="Path 468" d="M620.8,1051.035l19.575-11.335,1.426.834-19.609,11.3Z" transform="translate(-613.151 -1035.285)" fill="#a9d6ff"/>
          <path id="Path_469" data-name="Path 469" d="M613.526,1046.834,612.1,1046l19.575-11.3,1.426.8Z" transform="translate(-607.476 -1032.023)" fill="#a9d6ff"/>
        </g>
        <g id="Group_431" data-name="Group 431" transform="translate(0 12.065)">
          <path id="Path_470" data-name="Path 470" d="M601.894,1034.135l-.035.209,19.992-11.543,29.1,16.9,1.391-1.147.8-.209v2.642L630.092,1054.3,598.8,1036.116v-2.573Z" transform="translate(-598.8 -1020.262)" fill="#f2f2f2"/>
          <path id="Path_471" data-name="Path 471" d="M598.8,1028.782l31.292,18.184,23.051-13.281L621.852,1015.5Z" transform="translate(-598.8 -1015.5)" fill="#fff"/>
          <path id="Path_472" data-name="Path 472" d="M681.5,1074.8l19.575-11.3,1.391.8-19.575,11.3Z" transform="translate(-652.746 -1046.811)" fill="#a9d6ff"/>
          <path id="Path_473" data-name="Path 473" d="M672.8,1069.7l19.575-11.3,1.426.834-19.609,11.3Z" transform="translate(-647.071 -1043.484)" fill="#a9d6ff"/>
          <path id="Path_474" data-name="Path 474" d="M664.1,1064.7l19.61-11.3,1.391.8-19.575,11.3Z" transform="translate(-641.396 -1040.223)" fill="#a9d6ff"/>
          <path id="Path_475" data-name="Path 475" d="M655.5,1059.635l19.575-11.334,1.391.834-19.575,11.3Z" transform="translate(-635.786 -1036.896)" fill="#a9d6ff"/>
          <path id="Path_476" data-name="Path 476" d="M646.8,1054.6l19.575-11.3,1.426.8-19.609,11.334Z" transform="translate(-630.111 -1033.635)" fill="#a9d6ff"/>
          <path id="Path_477" data-name="Path 477" d="M638.1,1049.6l19.609-11.3,1.391.8-19.575,11.3Z" transform="translate(-624.436 -1030.373)" fill="#a9d6ff"/>
          <path id="Path_478" data-name="Path 478" d="M629.5,1044.535l19.575-11.335,1.391.834-19.575,11.3Z" transform="translate(-618.826 -1027.046)" fill="#a9d6ff"/>
          <path id="Path_479" data-name="Path 479" d="M620.8,1039.5l19.575-11.3,1.426.8-19.609,11.334Z" transform="translate(-613.151 -1023.784)" fill="#a9d6ff"/>
          <path id="Path_480" data-name="Path 480" d="M613.526,1035.3l-1.426-.8,19.575-11.3,1.426.8Z" transform="translate(-607.476 -1020.523)" fill="#a9d6ff"/>
        </g>
        <g id="Group_432" data-name="Group 432" transform="translate(0 8.032)">
          <path id="Path_481" data-name="Path 481" d="M601.894,1022.6l-.035.243,19.992-11.543,29.1,16.9,1.391-1.182.8-.208v2.677l-23.051,13.282L598.8,1024.582v-2.538Z" transform="translate(-598.8 -1008.727)" fill="#f2f2f2"/>
          <path id="Path_482" data-name="Path 482" d="M598.8,1017.216l31.292,18.184,23.051-13.316L621.852,1003.9Z" transform="translate(-598.8 -1003.9)" fill="#fff"/>
          <path id="Path_483" data-name="Path 483" d="M681.5,1063.2l19.575-11.3,1.391.8-19.575,11.335Z" transform="translate(-652.746 -1035.211)" fill="#a9d6ff"/>
          <path id="Path_484" data-name="Path 484" d="M672.8,1058.2l19.575-11.3,1.426.8L674.191,1059Z" transform="translate(-647.071 -1031.95)" fill="#a9d6ff"/>
          <path id="Path_485" data-name="Path 485" d="M664.1,1053.135l19.61-11.335,1.391.834-19.575,11.3Z" transform="translate(-641.396 -1028.623)" fill="#a9d6ff"/>
          <path id="Path_486" data-name="Path 486" d="M655.5,1048.1l19.575-11.3,1.391.8-19.575,11.335Z" transform="translate(-635.786 -1025.361)" fill="#a9d6ff"/>
          <path id="Path_487" data-name="Path 487" d="M646.8,1043.1l19.575-11.3,1.426.8-19.609,11.3Z" transform="translate(-630.111 -1022.1)" fill="#a9d6ff"/>
          <path id="Path_488" data-name="Path 488" d="M638.1,1038l19.609-11.3,1.391.835-19.575,11.3Z" transform="translate(-624.436 -1018.773)" fill="#a9d6ff"/>
          <path id="Path_489" data-name="Path 489" d="M629.5,1033l19.575-11.3,1.391.8-19.575,11.3Z" transform="translate(-618.826 -1015.511)" fill="#a9d6ff"/>
          <path id="Path_490" data-name="Path 490" d="M620.8,1027.935l19.575-11.335,1.426.834-19.609,11.3Z" transform="translate(-613.151 -1012.184)" fill="#a9d6ff"/>
          <path id="Path_491" data-name="Path 491" d="M613.526,1023.734l-1.426-.835,19.575-11.3,1.426.834Z" transform="translate(-607.476 -1008.923)" fill="#a9d6ff"/>
        </g>
        <g id="Group_433" data-name="Group 433" transform="translate(0 4.033)">
          <path id="Path_492" data-name="Path 492" d="M601.894,1011.035l-.035.209L621.852,999.7l29.1,16.9,1.391-1.147.8-.209v2.642L630.092,1031.2,598.8,1013.016v-2.573Z" transform="translate(-598.8 -997.162)" fill="#f2f2f2"/>
          <path id="Path_493" data-name="Path 493" d="M598.8,1005.682l31.292,18.184,23.051-13.282L621.852,992.4Z" transform="translate(-598.8 -992.4)" fill="#fff"/>
          <path id="Path_494" data-name="Path 494" d="M681.5,1051.7l19.575-11.3,1.391.8-19.575,11.3Z" transform="translate(-652.746 -1023.711)" fill="#a9d6ff"/>
          <path id="Path_495" data-name="Path 495" d="M672.8,1046.6l19.575-11.3,1.426.834-19.609,11.3Z" transform="translate(-647.071 -1020.384)" fill="#a9d6ff"/>
          <path id="Path_496" data-name="Path 496" d="M664.1,1041.6l19.61-11.3,1.391.8-19.575,11.335Z" transform="translate(-641.396 -1017.123)" fill="#a9d6ff"/>
          <path id="Path_497" data-name="Path 497" d="M655.5,1036.535l19.575-11.335,1.391.834-19.575,11.3Z" transform="translate(-635.786 -1013.796)" fill="#a9d6ff"/>
          <path id="Path_498" data-name="Path 498" d="M646.8,1031.5l19.575-11.3,1.426.834-19.609,11.3Z" transform="translate(-630.111 -1010.534)" fill="#a9d6ff"/>
          <path id="Path_499" data-name="Path 499" d="M638.1,1026.5l19.609-11.3,1.391.8-19.575,11.3Z" transform="translate(-624.436 -1007.273)" fill="#a9d6ff"/>
          <path id="Path_500" data-name="Path 500" d="M629.5,1021.435l19.575-11.335,1.391.834-19.575,11.3Z" transform="translate(-618.826 -1003.946)" fill="#a9d6ff"/>
          <path id="Path_501" data-name="Path 501" d="M620.8,1016.4l19.575-11.3,1.426.8-19.609,11.335Z" transform="translate(-613.151 -1000.685)" fill="#a9d6ff"/>
          <path id="Path_502" data-name="Path 502" d="M613.526,1012.2l-1.426-.8,19.575-11.3,1.426.8Z" transform="translate(-607.476 -997.423)" fill="#a9d6ff"/>
        </g>
        <g id="Group_434" data-name="Group 434">
          <path id="Path_503" data-name="Path 503" d="M601.894,999.5l-.035.243L621.852,988.2l29.1,16.9,1.391-1.147.8-.243v2.677l-23.051,13.282L598.8,1001.482v-2.538Z" transform="translate(-598.8 -985.627)" fill="#f2f2f2"/>
          <path id="Path_504" data-name="Path 504" d="M598.8,994.116l31.292,18.184,23.051-13.316L621.852,980.8Z" transform="translate(-598.8 -980.8)" fill="#fff"/>
          <path id="Path_505" data-name="Path 505" d="M681.5,1040.1l19.575-11.3,1.391.834-19.575,11.3Z" transform="translate(-652.746 -1012.111)" fill="#a9d6ff"/>
          <path id="Path_506" data-name="Path 506" d="M672.8,1035.1l19.575-11.3,1.426.8-19.609,11.3Z" transform="translate(-647.071 -1008.849)" fill="#a9d6ff"/>
          <path id="Path_507" data-name="Path 507" d="M664.1,1030.035l19.61-11.335,1.391.834-19.575,11.3Z" transform="translate(-641.396 -1005.523)" fill="#a9d6ff"/>
          <path id="Path_508" data-name="Path 508" d="M655.5,1025l19.575-11.3,1.391.8-19.575,11.335Z" transform="translate(-635.786 -1002.261)" fill="#a9d6ff"/>
          <path id="Path_509" data-name="Path 509" d="M646.8,1020l19.575-11.3,1.426.8-19.609,11.3Z" transform="translate(-630.111 -999)" fill="#a9d6ff"/>
          <path id="Path_510" data-name="Path 510" d="M638.1,1014.9l19.609-11.3,1.391.834-19.575,11.3Z" transform="translate(-624.436 -995.673)" fill="#a9d6ff"/>
          <path id="Path_511" data-name="Path 511" d="M629.5,1009.9l19.575-11.3,1.391.8-19.575,11.335Z" transform="translate(-618.826 -992.411)" fill="#a9d6ff"/>
          <path id="Path_512" data-name="Path 512" d="M620.8,1004.9l19.575-11.3,1.426.8-19.609,11.3Z" transform="translate(-613.151 -989.15)" fill="#a9d6ff"/>
          <path id="Path_513" data-name="Path 513" d="M613.526,1000.634,612.1,999.8l19.575-11.3,1.426.834Z" transform="translate(-607.476 -985.823)" fill="#a9d6ff"/>
        </g>
      </g>
      <g id="Group_440" data-name="Group 440" transform="translate(109.173 303.696)">
        <g id="Group_436" data-name="Group 436" transform="translate(20.27 5.146)">
          <path id="Path_514" data-name="Path 514" d="M716.5,1020.2a2.962,2.962,0,0,1,.1.8,3.156,3.156,0,0,1-.1.8h1.982v-1.6Z" transform="translate(-716.5 -1020.2)" fill="#313747"/>
        </g>
        <g id="Group_437" data-name="Group 437" transform="translate(20.27 6.71)">
          <path id="Path_515" data-name="Path 515" d="M716.5,1024.7v1.947h1.982V1024.7Z" transform="translate(-716.5 -1024.7)" fill="#232935"/>
        </g>
        <g id="Group_438" data-name="Group 438" transform="translate(22.252 7.128)">
          <path id="Path_516" data-name="Path 516" d="M722.2,1025.9v1.947h20.653V1025.9Z" transform="translate(-722.2 -1025.9)" fill="#e54897"/>
        </g>
        <g id="Group_439" data-name="Group 439" transform="translate(22.252 4.728)">
          <path id="Path_517" data-name="Path 517" d="M722.2,1019v2.4h20.653l.035-2.4Z" transform="translate(-722.2 -1019)" fill="#f965a8"/>
        </g>
        <path id="Path_518" data-name="Path 518" d="M668.352,1028.246a14.488,14.488,0,0,0,7.2-1.738,5.751,5.751,0,0,0,2.921-3.373,2.965,2.965,0,0,0,.1-.8v1.947a3.156,3.156,0,0,1-.1.8,5.633,5.633,0,0,1-2.921,3.373,14.585,14.585,0,0,1-7.2,1.739c-5.633,0-10.152-2.642-10.152-5.911v-1.947C658.2,1025.6,662.72,1028.246,668.352,1028.246Z" transform="translate(-658.2 -1016.424)" fill="#e54897"/>
        <path id="Path_519" data-name="Path 519" d="M665.869,1009.926a4.177,4.177,0,0,0-2.469,3.442c0,1.356.939,2.538,2.434,3.442a12.966,12.966,0,0,0,11.821,0,4.177,4.177,0,0,0,2.469-3.442c0-1.356-.939-2.538-2.434-3.442a12.967,12.967,0,0,0-11.821,0Z" transform="translate(-661.592 -1007.422)" fill="#dcf8ff"/>
        <path id="Path_520" data-name="Path 520" d="M658.2,1011.311c-.035,3.268,4.52,5.911,10.152,5.911a14.49,14.49,0,0,0,7.2-1.739,5.751,5.751,0,0,0,2.921-3.373,2.961,2.961,0,0,0,.1-.8,3.156,3.156,0,0,0-.1-.8c-.661-2.886-4.9-5.111-10.048-5.111a14.489,14.489,0,0,0-7.2,1.738C659.347,1008.216,658.2,1009.711,658.2,1011.311Zm1.808,0c0-1.356.939-2.538,2.469-3.442a12.967,12.967,0,0,1,11.821,0,4.2,4.2,0,0,1,2.434,3.442c0,1.356-.939,2.538-2.469,3.442a12.967,12.967,0,0,1-11.821,0A4.2,4.2,0,0,1,660.008,1011.311Z" transform="translate(-658.2 -1005.4)" fill="#f965a8"/>
        <path id="Path_521" data-name="Path 521" d="M678.837,1022.506a12.718,12.718,0,0,1-4.137-.73l11.578-6.676a3.783,3.783,0,0,1,1.252,2.4Z" transform="translate(-668.963 -1011.728)" fill="#fff"/>
        <path id="Path_522" data-name="Path 522" d="M674.965,1009.1a11.313,11.313,0,0,1,3.373,1.147l-11.856,6.849a5.326,5.326,0,0,1-1.982-1.947Z" transform="translate(-662.309 -1007.814)" fill="#fff"/>
      </g>
      <g id="Group_462" data-name="Group 462" transform="translate(180.136 243.368)">
        <g id="Group_443" data-name="Group 443" transform="translate(0 13.907)">
          <path id="Path_523" data-name="Path 523" d="M880.171,886.939v.243a.209.209,0,0,1-.035.139.128.128,0,0,1-.035.1c0,.035-.035.07-.035.139,0,.035-.035.07-.035.1s-.035.069-.035.139c0,.035-.035.069-.035.1-.035.035-.035.1-.069.139,0,.035-.035.069-.07.1s-.035.1-.07.139-.035.07-.07.1c-.035.07-.07.1-.1.174-.035.035-.035.07-.07.1a.609.609,0,0,1-.139.174l-.07.07a1.736,1.736,0,0,1-.243.278l-.07.07-.209.209-.1.1a.479.479,0,0,1-.139.1.475.475,0,0,1-.139.1c-.035.035-.1.07-.139.1a.477.477,0,0,1-.139.1c-.035.035-.1.07-.139.1s-.1.069-.139.1c-.07.035-.1.07-.174.1a.727.727,0,0,0-.209.139c-.209.1-.382.209-.591.313-.07.035-.1.035-.174.07-.174.07-.383.174-.556.243-.035,0-.035.035-.07.035l-.626.209c-.139.035-.313.1-.452.139-.1.035-.243.07-.348.1-.174.035-.313.07-.487.1-.1.035-.243.035-.348.069a.208.208,0,0,0-.139.035l-.626.1a.314.314,0,0,0-.174.035c-.1,0-.243.035-.348.035-.209,0-.382.035-.591.035h-1.286a1.984,1.984,0,0,1-.452-.035c-.139,0-.278-.035-.417-.035s-.313-.035-.452-.035a1.248,1.248,0,0,1-.382-.07,2.347,2.347,0,0,0-.487-.07c-.139-.035-.243-.035-.382-.069a3.265,3.265,0,0,1-.556-.139c-.1-.035-.243-.07-.348-.1-.07-.035-.139-.035-.174-.07-.174-.07-.348-.1-.556-.174-.035-.035-.1-.035-.139-.069-.174-.07-.313-.139-.487-.209a1.686,1.686,0,0,0-.243-.1,6.08,6.08,0,0,1-.661-.348,5.253,5.253,0,0,1-2.364-2.434,3.16,3.16,0,0,1-.243-1.217v2.5c0,1.321.869,2.642,2.608,3.651.209.1.417.243.661.348a1.668,1.668,0,0,0,.243.1c.139.07.278.1.417.174.035,0,.035,0,.07.035s.1.035.139.07a2.6,2.6,0,0,0,.556.174c.07.035.139.035.174.07.035,0,.069.035.139.035a2.24,2.24,0,0,0,.243.07c.174.035.382.1.556.139.035,0,.1.035.139.035.07,0,.139.035.209.035a2.055,2.055,0,0,0,.487.069,1.5,1.5,0,0,1,.174.035.442.442,0,0,1,.209.035,1.836,1.836,0,0,0,.452.035c.069,0,.139.035.209.035h.209c.139,0,.313.035.452.035H871.9c.209,0,.417-.035.591-.035h.348a.314.314,0,0,0,.174-.035l.626-.1a.209.209,0,0,0,.139-.035h.07c.1-.035.174-.035.278-.07.174-.035.348-.07.487-.1.1-.035.243-.07.348-.1a2.246,2.246,0,0,0,.452-.139c.035,0,.07-.035.1-.035a2.6,2.6,0,0,1,.556-.174c.035,0,.035-.035.07-.035.209-.07.382-.174.556-.243.07-.035.1-.035.174-.07.209-.1.417-.208.591-.313.035-.035.069-.035.1-.07s.069-.035.1-.07c.07-.035.1-.069.174-.1.035-.035.1-.07.139-.1s.1-.069.139-.1.1-.069.139-.1.1-.07.139-.1a619,619,0,0,0,.278-.209.122.122,0,0,1,.07-.035l.035-.035.209-.208.07-.07c.07-.1.174-.174.243-.278h0c0-.035.035-.035.035-.07a.61.61,0,0,1,.139-.174c.035-.035.035-.07.069-.1.035-.07.07-.1.1-.174l.035-.035c0-.035.035-.035.035-.07.035-.035.035-.1.07-.139s.035-.07.07-.1.035-.1.069-.139c0-.035.035-.035.035-.07s0-.035.035-.07c0-.035.035-.07.035-.139,0-.035.035-.069.035-.1s.035-.07.035-.139v-.1a.21.21,0,0,1,.035-.139v-2.886C880.171,886.835,880.171,886.87,880.171,886.939Z" transform="translate(-862.3 -881.615)" fill="#e5ac45"/>
          <g id="Group_441" data-name="Group 441" transform="translate(0.087)">
            <path id="Path_524" data-name="Path 524" d="M877.726,873.387c3.477,2.016,3.512,5.285.035,7.267a13.956,13.956,0,0,1-12.586,0c-3.477-2.017-3.512-5.285-.035-7.267A13.956,13.956,0,0,1,877.726,873.387Z" transform="translate(-862.55 -871.888)" fill="#f2c05b"/>
          </g>
          <g id="Group_442" data-name="Group 442" transform="translate(5.007 2.786)">
            <path id="Path_525" data-name="Path 525" d="M883.584,881.708c.765.452.869,1.147.069,1.808l.869.521-.834.487-.834-.487a6.237,6.237,0,0,1-1.808.626l-.765-.73a5.919,5.919,0,0,0,1.773-.591c.487-.278.626-.591.278-.765-.313-.174-.8-.139-1.634.1a4.1,4.1,0,0,1-3.094,0c-.765-.452-.835-1.078-.07-1.7l-.834-.487.834-.487.765.452a6.414,6.414,0,0,1,1.53-.556l.73.7a4.594,4.594,0,0,0-1.53.556c-.556.313-.487.556-.244.7.278.174.765.1,1.773-.174A3.458,3.458,0,0,1,883.584,881.708Z" transform="translate(-876.7 -879.9)" fill="#ec8659"/>
          </g>
        </g>
        <g id="Group_446" data-name="Group 446" transform="translate(11.752 23.595)">
          <path id="Path_526" data-name="Path 526" d="M913.971,914.739v.243a.209.209,0,0,1-.035.139.128.128,0,0,1-.035.1c0,.035-.035.069-.035.139,0,.035-.035.07-.035.1s-.035.069-.035.139c0,.035-.035.07-.035.1-.035.035-.035.1-.07.139,0,.035-.035.07-.07.1s-.035.1-.07.139-.035.07-.07.1c-.035.07-.07.1-.1.174-.035.035-.035.069-.07.1a.612.612,0,0,1-.139.174l-.07.07a1.752,1.752,0,0,1-.243.278l-.07.069-.209.209-.1.1a247.61,247.61,0,0,0-.278.209c-.035.035-.1.07-.139.1a.483.483,0,0,1-.139.1c-.035.035-.1.07-.139.1s-.1.07-.139.1c-.07.035-.1.07-.174.1a.726.726,0,0,0-.209.139c-.209.1-.383.209-.591.313-.07.035-.1.035-.174.069-.174.07-.382.174-.556.243-.035,0-.035.035-.07.035l-.626.209c-.139.035-.313.1-.452.139-.1.035-.243.07-.348.1-.174.035-.313.07-.487.1-.1.035-.243.035-.348.069a.209.209,0,0,0-.139.035l-.626.1a.314.314,0,0,0-.174.035c-.1,0-.243.035-.348.035-.209,0-.382.035-.591.035h-1.287a1.985,1.985,0,0,1-.452-.035c-.139,0-.278-.035-.417-.035s-.313-.035-.452-.035a1.25,1.25,0,0,1-.383-.07,2.348,2.348,0,0,0-.487-.07c-.139-.035-.243-.035-.382-.07a3.265,3.265,0,0,1-.556-.139c-.1-.035-.243-.07-.348-.1-.069-.035-.139-.035-.174-.07-.174-.069-.348-.1-.556-.174-.035-.035-.1-.035-.139-.07-.174-.07-.313-.139-.487-.209a1.7,1.7,0,0,0-.243-.1,6.076,6.076,0,0,1-.661-.348,5.254,5.254,0,0,1-2.364-2.434,3.164,3.164,0,0,1-.243-1.217v2.5c0,1.321.869,2.642,2.608,3.651.208.1.417.243.661.348a1.679,1.679,0,0,0,.243.1c.139.07.278.1.417.174.035,0,.035,0,.07.035s.1.035.139.07a2.6,2.6,0,0,0,.556.174c.069.035.139.035.174.07.035,0,.07.035.139.035a2.162,2.162,0,0,0,.243.069c.174.035.382.1.556.139.035,0,.1.035.139.035.07,0,.139.035.209.035a2.051,2.051,0,0,0,.487.07,1.5,1.5,0,0,1,.174.035.441.441,0,0,1,.209.035,1.834,1.834,0,0,0,.452.035c.07,0,.139.035.209.035h.209c.139,0,.313.035.452.035H905.7c.209,0,.417-.035.591-.035h.348a.314.314,0,0,0,.174-.035l.626-.1a.209.209,0,0,0,.139-.035h.07c.1-.035.174-.035.278-.07.174-.035.348-.07.487-.1.1-.035.243-.07.348-.1a2.255,2.255,0,0,0,.452-.139c.035,0,.069-.035.1-.035a2.614,2.614,0,0,1,.556-.174c.035,0,.035-.035.07-.035.209-.07.383-.174.556-.243.07-.035.1-.035.174-.07.209-.1.417-.209.591-.313.035-.035.069-.035.1-.07s.07-.035.1-.07c.07-.035.1-.07.174-.1.035-.035.1-.069.139-.1s.1-.07.139-.1.1-.07.139-.1.1-.07.139-.1a412.745,412.745,0,0,1,.278-.208.121.121,0,0,1,.07-.035l.035-.035.209-.209.07-.07c.069-.1.174-.174.243-.278h0c0-.035.035-.035.035-.069a.612.612,0,0,1,.139-.174c.035-.035.035-.07.07-.1.035-.07.07-.1.1-.174l.035-.035c0-.035.035-.035.035-.07.035-.035.035-.1.07-.139s.035-.07.07-.1.035-.1.07-.139c0-.035.035-.035.035-.07s0-.035.035-.07c0-.035.035-.07.035-.139,0-.035.035-.07.035-.1s.035-.07.035-.139v-.1a.209.209,0,0,1,.035-.139v-2.886C913.971,914.635,913.971,914.7,913.971,914.739Z" transform="translate(-896.1 -909.437)" fill="#e5ac45"/>
          <g id="Group_444" data-name="Group 444" transform="translate(0.052)">
            <path id="Path_527" data-name="Path 527" d="M911.427,901.263c3.477,2.017,3.511,5.285.035,7.267a13.849,13.849,0,0,1-12.586,0c-3.477-2.017-3.512-5.285-.035-7.267A13.849,13.849,0,0,1,911.427,901.263Z" transform="translate(-896.25 -899.75)" fill="#f2c05b"/>
          </g>
          <g id="Group_445" data-name="Group 445" transform="translate(5.007 2.799)">
            <path id="Path_528" data-name="Path 528" d="M917.384,909.608c.765.452.869,1.147.07,1.808l.869.522-.834.487-.835-.487a6.238,6.238,0,0,1-1.808.626l-.765-.73a5.913,5.913,0,0,0,1.773-.591c.487-.278.626-.591.278-.765-.313-.174-.8-.139-1.634.1a4.1,4.1,0,0,1-3.094,0c-.765-.452-.834-1.078-.07-1.7l-.834-.487.834-.487.765.452a6.413,6.413,0,0,1,1.53-.556l.73.7a4.6,4.6,0,0,0-1.53.556c-.556.313-.487.556-.243.7.278.174.765.1,1.773-.174A3.458,3.458,0,0,1,917.384,909.608Z" transform="translate(-910.5 -907.8)" fill="#ec8659"/>
          </g>
        </g>
        <g id="Group_449" data-name="Group 449" transform="translate(14.881 13.894)">
          <path id="Path_529" data-name="Path 529" d="M922.971,886.939v.243a.209.209,0,0,1-.035.139.128.128,0,0,1-.035.1c0,.035-.035.07-.035.139,0,.035-.035.07-.035.1s-.035.069-.035.139c0,.035-.035.069-.035.1-.035.035-.035.1-.069.139,0,.035-.035.069-.07.1s-.035.1-.07.139-.035.07-.07.1c-.035.07-.07.1-.1.174-.035.035-.035.07-.07.1a.615.615,0,0,1-.139.174l-.07.07a1.73,1.73,0,0,1-.243.278l-.07.07-.209.209-.1.1a412.417,412.417,0,0,0-.278.209c-.035.035-.1.07-.139.1a.475.475,0,0,1-.139.1c-.035.035-.1.07-.139.1s-.1.069-.139.1c-.07.035-.1.07-.174.1a.729.729,0,0,0-.209.139c-.209.1-.383.209-.591.313-.07.035-.1.035-.174.07-.174.07-.382.174-.556.243-.035,0-.035.035-.07.035l-.626.209c-.139.035-.313.1-.452.139-.1.035-.244.07-.348.1-.174.035-.313.07-.487.1-.1.035-.243.035-.348.069a.208.208,0,0,0-.139.035l-.626.1a.313.313,0,0,0-.174.035c-.1,0-.243.035-.348.035-.209,0-.382.035-.591.035h-1.286a1.984,1.984,0,0,1-.452-.035c-.139,0-.278-.035-.417-.035s-.313-.035-.452-.035a1.25,1.25,0,0,1-.383-.07,2.344,2.344,0,0,0-.487-.07c-.139-.035-.243-.035-.383-.069a3.264,3.264,0,0,1-.556-.139c-.1-.035-.243-.07-.348-.1-.07-.035-.139-.035-.174-.07-.174-.07-.348-.1-.556-.174-.035-.035-.1-.035-.139-.069-.174-.07-.313-.139-.487-.209a1.68,1.68,0,0,0-.243-.1,6.07,6.07,0,0,1-.661-.348,5.254,5.254,0,0,1-2.364-2.434,3.163,3.163,0,0,1-.243-1.217v2.5c0,1.321.869,2.642,2.608,3.651.209.1.417.243.661.348a1.665,1.665,0,0,0,.243.1c.139.07.278.1.417.174.035,0,.035,0,.07.035s.1.035.139.07a2.605,2.605,0,0,0,.556.174c.07.035.139.035.174.07.035,0,.07.035.139.035a2.229,2.229,0,0,0,.243.07c.174.035.382.1.556.139.035,0,.1.035.139.035.069,0,.139.035.209.035a2.053,2.053,0,0,0,.487.069,1.5,1.5,0,0,1,.174.035.443.443,0,0,1,.209.035,1.835,1.835,0,0,0,.452.035c.07,0,.139.035.208.035h.209c.139,0,.313.035.452.035H914.7c.208,0,.417-.035.591-.035h.348a.314.314,0,0,0,.174-.035l.626-.1a.209.209,0,0,0,.139-.035h.07c.1-.035.174-.035.278-.07.174-.035.348-.07.487-.1.1-.035.243-.07.348-.1a2.245,2.245,0,0,0,.452-.139c.035,0,.07-.035.1-.035a2.6,2.6,0,0,1,.556-.174c.035,0,.035-.035.07-.035.209-.07.382-.174.556-.243.069-.035.1-.035.174-.07.208-.1.417-.208.591-.313.035-.035.07-.035.1-.07s.07-.035.1-.07c.069-.035.1-.069.174-.1.035-.035.1-.07.139-.1s.1-.069.139-.1.1-.069.139-.1.1-.07.139-.1a.478.478,0,0,1,.139-.1.483.483,0,0,1,.139-.1.122.122,0,0,1,.07-.035l.035-.035.209-.208.07-.07c.069-.1.174-.174.243-.278h0c0-.035.035-.035.035-.07a.612.612,0,0,1,.139-.174c.035-.035.035-.07.07-.1.035-.07.07-.1.1-.174l.035-.035c0-.035.035-.035.035-.07.035-.035.035-.1.069-.139s.035-.07.07-.1.035-.1.07-.139c0-.035.035-.035.035-.07s0-.035.035-.07c0-.035.035-.07.035-.139,0-.035.035-.069.035-.1s.035-.07.035-.139v-.1a.209.209,0,0,1,.035-.139v-2.886C922.971,886.835,922.971,886.87,922.971,886.939Z" transform="translate(-905.1 -881.602)" fill="#e5ac45"/>
          <g id="Group_447" data-name="Group 447" transform="translate(0.087)">
            <path id="Path_530" data-name="Path 530" d="M920.526,873.363c3.477,2.016,3.512,5.285.035,7.267a13.849,13.849,0,0,1-12.586,0c-3.477-2.017-3.512-5.285-.035-7.267A13.849,13.849,0,0,1,920.526,873.363Z" transform="translate(-905.35 -871.85)" fill="#f2c05b"/>
          </g>
          <g id="Group_448" data-name="Group 448" transform="translate(5.007 2.799)">
            <path id="Path_531" data-name="Path 531" d="M926.384,881.708c.765.452.869,1.147.07,1.808l.869.521-.834.487-.834-.487a6.237,6.237,0,0,1-1.808.626l-.765-.73a5.918,5.918,0,0,0,1.773-.591c.487-.278.626-.591.278-.765-.313-.174-.8-.139-1.634.1a4.1,4.1,0,0,1-3.094,0c-.765-.452-.834-1.078-.07-1.7l-.834-.487.834-.487.765.452a6.419,6.419,0,0,1,1.53-.556l.73.7a4.594,4.594,0,0,0-1.53.556c-.556.313-.487.556-.243.7.278.174.765.1,1.773-.174A3.458,3.458,0,0,1,926.384,881.708Z" transform="translate(-919.5 -879.9)" fill="#ec8659"/>
          </g>
        </g>
        <g id="Group_452" data-name="Group 452" transform="translate(7.997 9.992)">
          <path id="Path_532" data-name="Path 532" d="M903.171,875.639v.243a.209.209,0,0,1-.035.139.128.128,0,0,1-.035.1c0,.035-.035.07-.035.139,0,.035-.035.07-.035.1s-.035.07-.035.139c0,.035-.035.07-.035.1-.035.035-.035.1-.07.139,0,.035-.035.07-.069.1s-.035.1-.07.139-.035.07-.069.1c-.035.07-.07.1-.1.174-.035.035-.035.07-.07.1a.615.615,0,0,1-.139.174l-.069.069a1.747,1.747,0,0,1-.243.278l-.07.069-.208.208-.1.1a.48.48,0,0,1-.139.1.475.475,0,0,1-.139.1c-.035.035-.1.07-.139.1a.485.485,0,0,1-.139.1c-.035.035-.1.07-.139.1s-.1.069-.139.1c-.07.035-.1.07-.174.1a.728.728,0,0,0-.209.139c-.209.1-.383.208-.591.313-.069.035-.1.035-.174.07-.174.069-.382.174-.556.243-.035,0-.035.035-.07.035l-.626.209c-.139.035-.313.1-.452.139-.1.035-.243.069-.348.1-.174.035-.313.07-.487.1-.1.035-.243.035-.348.07a.209.209,0,0,0-.139.035l-.626.1a.314.314,0,0,0-.174.035c-.1,0-.243.035-.348.035-.208,0-.382.035-.591.035h-1.286a1.988,1.988,0,0,1-.452-.035c-.139,0-.278-.035-.417-.035s-.313-.035-.452-.035a1.249,1.249,0,0,1-.382-.069,2.348,2.348,0,0,0-.487-.07c-.139-.035-.243-.035-.382-.07a3.243,3.243,0,0,1-.556-.139c-.1-.035-.243-.069-.348-.1-.07-.035-.139-.035-.174-.07-.174-.07-.348-.1-.556-.174-.035-.035-.1-.035-.139-.069-.174-.069-.313-.139-.487-.209a1.7,1.7,0,0,0-.243-.1,6.051,6.051,0,0,1-.661-.348,5.253,5.253,0,0,1-2.364-2.434,3.16,3.16,0,0,1-.243-1.217V878c0,1.321.869,2.642,2.608,3.651.209.1.417.243.661.348a1.691,1.691,0,0,0,.243.1c.139.07.278.1.417.174.035,0,.035,0,.069.035s.1.035.139.07a2.611,2.611,0,0,0,.556.174c.07.035.139.035.174.07.035,0,.069.035.139.035a2.19,2.19,0,0,0,.243.069c.174.035.382.1.556.139.035,0,.1.035.139.035.07,0,.139.035.209.035a2.051,2.051,0,0,0,.487.07,1.51,1.51,0,0,1,.174.035.439.439,0,0,1,.209.035,1.842,1.842,0,0,0,.452.035c.07,0,.139.035.209.035h.209c.139,0,.313.035.452.035H894.9c.209,0,.417-.035.591-.035h.348a.313.313,0,0,0,.174-.035l.626-.1a.209.209,0,0,0,.139-.035h.07c.1-.035.174-.035.278-.069.174-.035.348-.07.487-.1.1-.035.243-.07.348-.1a2.249,2.249,0,0,0,.452-.139c.035,0,.07-.035.1-.035a2.6,2.6,0,0,1,.556-.174c.035,0,.035-.035.07-.035.208-.07.382-.174.556-.243.07-.035.1-.035.174-.07.209-.1.417-.209.591-.313.035-.035.069-.035.1-.069s.069-.035.1-.07c.07-.035.1-.069.174-.1.035-.035.1-.07.139-.1s.1-.069.139-.1.1-.07.139-.1.1-.07.139-.1a275.048,275.048,0,0,1,.278-.208.121.121,0,0,1,.07-.035l.035-.035.208-.209.07-.07c.07-.1.174-.174.243-.278h0c0-.035.035-.035.035-.07a.609.609,0,0,1,.139-.174c.035-.035.035-.069.07-.1.035-.07.07-.1.1-.174l.035-.035c0-.035.035-.035.035-.069.035-.035.035-.1.07-.139s.035-.07.07-.1.035-.1.07-.139c0-.035.035-.035.035-.07s0-.035.035-.069c0-.035.035-.07.035-.139,0-.035.035-.07.035-.1s.035-.07.035-.139v-.1a.209.209,0,0,1,.035-.139v-2.886C903.171,875.535,903.171,875.6,903.171,875.639Z" transform="translate(-885.3 -870.328)" fill="#e5ac45"/>
          <g id="Group_450" data-name="Group 450" transform="translate(0.087)">
            <path id="Path_533" data-name="Path 533" d="M900.726,862.111c3.477,2.017,3.512,5.285.035,7.267a13.956,13.956,0,0,1-12.586,0c-3.477-2.017-3.512-5.285-.035-7.267A14.066,14.066,0,0,1,900.726,862.111Z" transform="translate(-885.55 -860.625)" fill="#f2c05b"/>
          </g>
          <g id="Group_451" data-name="Group 451" transform="translate(5.007 2.808)">
            <path id="Path_534" data-name="Path 534" d="M906.584,870.508c.765.452.869,1.147.07,1.808l.869.521-.834.487-.834-.487a6.236,6.236,0,0,1-1.808.626l-.765-.73a5.913,5.913,0,0,0,1.773-.591c.487-.278.626-.591.278-.765-.313-.174-.8-.139-1.634.1a4.1,4.1,0,0,1-3.094,0c-.765-.452-.835-1.078-.07-1.7l-.834-.487.834-.487.765.452a6.412,6.412,0,0,1,1.53-.556l.73.7a4.6,4.6,0,0,0-1.53.556c-.556.313-.487.556-.243.7.278.174.765.1,1.773-.174A3.449,3.449,0,0,1,906.584,870.508Z" transform="translate(-899.7 -868.7)" fill="#ec8659"/>
          </g>
        </g>
        <g id="Group_455" data-name="Group 455" transform="translate(7.058 5.515)">
          <path id="Path_535" data-name="Path 535" d="M900.471,862.839v.243a.209.209,0,0,1-.035.139.128.128,0,0,1-.035.1c0,.035-.035.069-.035.139,0,.035-.035.069-.035.1s-.035.069-.035.139c0,.035-.035.07-.035.1-.035.035-.035.1-.07.139,0,.035-.035.07-.069.1s-.035.1-.07.139-.035.07-.07.1c-.035.069-.07.1-.1.174-.035.035-.035.069-.07.1a.612.612,0,0,1-.139.174l-.07.07a1.755,1.755,0,0,1-.243.278l-.07.069-.209.209-.1.1a1237.569,1237.569,0,0,1-.278.209c-.035.035-.1.07-.139.1a.479.479,0,0,1-.139.1c-.035.035-.1.07-.139.1s-.1.069-.139.1c-.07.035-.1.069-.174.1a.727.727,0,0,0-.209.139c-.209.1-.383.209-.591.313-.07.035-.1.035-.174.07-.174.07-.382.174-.556.243-.035,0-.035.035-.07.035l-.626.208c-.139.035-.313.1-.452.139-.1.035-.243.07-.348.1-.174.035-.313.069-.487.1-.1.035-.243.035-.348.07a.209.209,0,0,0-.139.035l-.626.1a.314.314,0,0,0-.174.035c-.1,0-.243.035-.348.035-.208,0-.382.035-.591.035h-1.286a1.982,1.982,0,0,1-.452-.035c-.139,0-.278-.035-.417-.035s-.313-.035-.452-.035a1.249,1.249,0,0,1-.383-.07,2.356,2.356,0,0,0-.487-.07c-.139-.035-.243-.035-.382-.07a3.251,3.251,0,0,1-.556-.139c-.1-.035-.243-.07-.348-.1-.07-.035-.139-.035-.174-.069-.174-.07-.348-.1-.556-.174-.035-.035-.1-.035-.139-.07-.174-.07-.313-.139-.487-.208a1.712,1.712,0,0,0-.243-.1,6.049,6.049,0,0,1-.661-.348,5.255,5.255,0,0,1-2.364-2.434,3.163,3.163,0,0,1-.243-1.217v2.5c0,1.321.869,2.642,2.608,3.651.209.1.417.243.661.348a1.71,1.71,0,0,0,.243.1c.139.069.278.1.417.174.035,0,.035,0,.069.035s.1.035.139.07a2.606,2.606,0,0,0,.556.174c.07.035.139.035.174.07.035,0,.07.035.139.035a2.192,2.192,0,0,0,.243.069c.174.035.382.1.556.139.035,0,.1.035.139.035.069,0,.139.035.208.035a2.058,2.058,0,0,0,.487.069,1.508,1.508,0,0,1,.174.035.441.441,0,0,1,.209.035,1.842,1.842,0,0,0,.452.035c.07,0,.139.035.209.035h.208c.139,0,.313.035.452.035H892.2c.209,0,.417-.035.591-.035h.348a.313.313,0,0,0,.174-.035l.626-.1a.209.209,0,0,0,.139-.035h.07c.1-.035.174-.035.278-.069.174-.035.348-.07.487-.1.1-.035.243-.07.348-.1a2.249,2.249,0,0,0,.452-.139c.035,0,.07-.035.1-.035a2.612,2.612,0,0,1,.556-.174c.035,0,.035-.035.07-.035.209-.07.382-.174.556-.243.07-.035.1-.035.174-.069.209-.1.417-.209.591-.313.035-.035.07-.035.1-.07s.07-.035.1-.07c.07-.035.1-.069.174-.1.035-.035.1-.069.139-.1s.1-.07.139-.1.1-.07.139-.1.1-.069.139-.1a412.745,412.745,0,0,1,.278-.208.121.121,0,0,1,.069-.035l.035-.035.209-.209.07-.069c.069-.1.174-.174.243-.278h0c0-.035.035-.035.035-.07a.61.61,0,0,1,.139-.174c.035-.035.035-.07.07-.1.035-.069.07-.1.1-.174l.035-.035c0-.035.035-.035.035-.069.035-.035.035-.1.07-.139s.035-.07.07-.1.035-.1.07-.139c0-.035.035-.035.035-.07s0-.035.035-.07c0-.035.035-.07.035-.139,0-.035.035-.07.035-.1s.035-.07.035-.139v-.1a.21.21,0,0,1,.035-.139v-2.886C900.471,862.735,900.471,862.8,900.471,862.839Z" transform="translate(-882.6 -857.502)" fill="#e5ac45"/>
          <g id="Group_453" data-name="Group 453" transform="translate(0.087)">
            <path id="Path_536" data-name="Path 536" d="M898.026,849.262c3.477,2.017,3.512,5.285.035,7.267a13.849,13.849,0,0,1-12.586,0c-3.477-2.017-3.512-5.285-.035-7.267A13.849,13.849,0,0,1,898.026,849.262Z" transform="translate(-882.85 -847.75)" fill="#f2c05b"/>
          </g>
          <g id="Group_454" data-name="Group 454" transform="translate(5.007 2.834)">
            <path id="Path_537" data-name="Path 537" d="M903.884,857.708c.765.452.869,1.147.07,1.808l.869.521-.834.487-.834-.487a6.24,6.24,0,0,1-1.808.626l-.765-.73a5.914,5.914,0,0,0,1.773-.591c.487-.278.626-.591.278-.765-.313-.174-.8-.139-1.634.1a4.1,4.1,0,0,1-3.094,0c-.765-.452-.834-1.078-.069-1.7l-.834-.487.834-.487.765.452a6.413,6.413,0,0,1,1.53-.556l.73.7a4.6,4.6,0,0,0-1.53.556c-.556.313-.487.556-.243.7.278.174.765.1,1.773-.174A3.458,3.458,0,0,1,903.884,857.708Z" transform="translate(-897 -855.9)" fill="#ec8659"/>
          </g>
        </g>
        <g id="Group_458" data-name="Group 458" transform="translate(7.058 2.747)">
          <path id="Path_538" data-name="Path 538" d="M900.471,854.839v.243a.209.209,0,0,1-.035.139.128.128,0,0,1-.035.1c0,.035-.035.07-.035.139,0,.035-.035.069-.035.1s-.035.07-.035.139c0,.035-.035.069-.035.1-.035.035-.035.1-.07.139,0,.035-.035.07-.069.1s-.035.1-.07.139-.035.07-.07.1c-.035.07-.07.1-.1.174-.035.035-.035.07-.07.1a.608.608,0,0,1-.139.174l-.07.07a1.758,1.758,0,0,1-.243.278l-.07.069-.209.209-.1.1a247.61,247.61,0,0,0-.278.209c-.035.035-.1.07-.139.1a.48.48,0,0,1-.139.1c-.035.035-.1.07-.139.1s-.1.07-.139.1c-.07.035-.1.07-.174.1a.727.727,0,0,0-.209.139c-.209.1-.383.209-.591.313-.07.035-.1.035-.174.07-.174.069-.382.174-.556.243-.035,0-.035.035-.07.035l-.626.209c-.139.035-.313.1-.452.139-.1.035-.243.07-.348.1-.174.035-.313.07-.487.1-.1.035-.243.035-.348.07a.21.21,0,0,0-.139.035l-.626.1a.315.315,0,0,0-.174.035c-.1,0-.243.035-.348.035-.208,0-.382.035-.591.035h-1.286a1.986,1.986,0,0,1-.452-.035c-.139,0-.278-.035-.417-.035s-.313-.035-.452-.035a1.249,1.249,0,0,1-.383-.07,2.347,2.347,0,0,0-.487-.07c-.139-.035-.243-.035-.382-.07a3.241,3.241,0,0,1-.556-.139c-.1-.035-.243-.07-.348-.1-.07-.035-.139-.035-.174-.07-.174-.069-.348-.1-.556-.174-.035-.035-.1-.035-.139-.07-.174-.069-.313-.139-.487-.209a1.692,1.692,0,0,0-.243-.1,6.081,6.081,0,0,1-.661-.348,5.255,5.255,0,0,1-2.364-2.434,3.163,3.163,0,0,1-.243-1.217v2.5c0,1.321.869,2.642,2.608,3.651.209.1.417.243.661.348a1.694,1.694,0,0,0,.243.1c.139.069.278.1.417.174.035,0,.035,0,.069.035s.1.035.139.07a2.606,2.606,0,0,0,.556.174c.07.035.139.035.174.07.035,0,.07.035.139.035a2.189,2.189,0,0,0,.243.07c.174.035.382.1.556.139.035,0,.1.035.139.035.069,0,.139.035.208.035a2.052,2.052,0,0,0,.487.07,1.508,1.508,0,0,1,.174.035.442.442,0,0,1,.209.035,1.832,1.832,0,0,0,.452.035c.07,0,.139.035.209.035h.208c.139,0,.313.035.452.035H892.2c.209,0,.417-.035.591-.035h.348a.313.313,0,0,0,.174-.035l.626-.1a.209.209,0,0,0,.139-.035h.07c.1-.035.174-.035.278-.07.174-.035.348-.07.487-.1.1-.035.243-.07.348-.1a2.254,2.254,0,0,0,.452-.139c.035,0,.07-.035.1-.035a2.612,2.612,0,0,1,.556-.174c.035,0,.035-.035.07-.035.209-.07.382-.174.556-.243.07-.035.1-.035.174-.07.209-.1.417-.208.591-.313.035-.035.07-.035.1-.069s.07-.035.1-.07c.07-.035.1-.069.174-.1.035-.035.1-.069.139-.1s.1-.069.139-.1.1-.07.139-.1.1-.069.139-.1a176.817,176.817,0,0,1,.278-.208.121.121,0,0,1,.069-.035l.035-.035.209-.209.07-.07c.069-.1.174-.174.243-.278h0c0-.035.035-.035.035-.07a.613.613,0,0,1,.139-.174c.035-.035.035-.069.07-.1.035-.069.07-.1.1-.174l.035-.035c0-.035.035-.035.035-.07.035-.035.035-.1.07-.139s.035-.069.07-.1.035-.1.07-.139c0-.035.035-.035.035-.07s0-.035.035-.07c0-.035.035-.069.035-.139,0-.035.035-.07.035-.1s.035-.07.035-.139v-.1a.209.209,0,0,1,.035-.139v-2.886C900.471,854.735,900.471,854.77,900.471,854.839Z" transform="translate(-882.6 -849.515)" fill="#e5ac45"/>
          <g id="Group_456" data-name="Group 456" transform="translate(0.087)">
            <path id="Path_539" data-name="Path 539" d="M898.026,841.287c3.477,2.017,3.512,5.285.035,7.267a13.848,13.848,0,0,1-12.586,0c-3.477-2.016-3.512-5.285-.035-7.267A13.957,13.957,0,0,1,898.026,841.287Z" transform="translate(-882.85 -839.787)" fill="#f2c05b"/>
          </g>
          <g id="Group_457" data-name="Group 457" transform="translate(5.007 2.786)">
            <path id="Path_540" data-name="Path 540" d="M903.884,849.608c.765.452.869,1.148.07,1.808l.869.522-.834.487-.834-.487a6.239,6.239,0,0,1-1.808.626l-.765-.73a5.917,5.917,0,0,0,1.773-.591c.487-.278.626-.591.278-.765-.313-.174-.8-.139-1.634.1a4.1,4.1,0,0,1-3.094,0c-.765-.452-.834-1.078-.069-1.7l-.834-.487.834-.487.765.452a6.409,6.409,0,0,1,1.53-.556l.73.7a4.6,4.6,0,0,0-1.53.556c-.556.313-.487.556-.243.7.278.174.765.1,1.773-.174A3.458,3.458,0,0,1,903.884,849.608Z" transform="translate(-897 -847.8)" fill="#ec8659"/>
          </g>
        </g>
        <g id="Group_461" data-name="Group 461" transform="translate(11.022)">
          <path id="Path_541" data-name="Path 541" d="M911.871,846.839v.243a.208.208,0,0,1-.035.139.128.128,0,0,1-.035.1c0,.035-.035.07-.035.139,0,.035-.035.069-.035.1s-.035.069-.035.139c0,.035-.035.07-.035.1-.035.035-.035.1-.07.139,0,.035-.035.07-.069.1s-.035.1-.07.139-.035.07-.07.1c-.035.07-.069.1-.1.174-.035.035-.035.07-.069.1a.614.614,0,0,1-.139.174l-.07.069a1.738,1.738,0,0,1-.243.278l-.069.07-.209.209-.1.1a1239.353,1239.353,0,0,1-.278.209c-.035.035-.1.07-.139.1a.478.478,0,0,1-.139.1c-.035.035-.1.07-.139.1s-.1.07-.139.1c-.07.035-.1.07-.174.1a.725.725,0,0,0-.208.139c-.209.1-.383.208-.591.313-.07.035-.1.035-.174.069-.174.07-.382.174-.556.243-.035,0-.035.035-.07.035l-.626.209c-.139.035-.313.1-.452.139-.1.035-.244.069-.348.1-.174.035-.313.07-.487.1-.1.035-.243.035-.348.07a.209.209,0,0,0-.139.035l-.626.1a.314.314,0,0,0-.174.035c-.1,0-.243.035-.348.035-.209,0-.383.035-.591.035h-1.286a1.983,1.983,0,0,1-.452-.035c-.139,0-.278-.035-.417-.035s-.313-.035-.452-.035a1.25,1.25,0,0,1-.382-.07,2.346,2.346,0,0,0-.487-.07c-.139-.035-.243-.035-.382-.07a3.25,3.25,0,0,1-.556-.139c-.1-.035-.244-.07-.348-.1-.069-.035-.139-.035-.174-.069-.174-.07-.348-.1-.556-.174-.035-.035-.1-.035-.139-.07-.174-.07-.313-.139-.487-.209a1.694,1.694,0,0,0-.243-.1,6.014,6.014,0,0,1-.661-.348,5.254,5.254,0,0,1-2.364-2.434A3.16,3.16,0,0,1,894,846.7v2.5c0,1.321.869,2.642,2.608,3.651.208.1.417.243.661.348a1.715,1.715,0,0,0,.243.1c.139.07.278.1.417.174.035,0,.035,0,.07.035s.1.035.139.07a2.6,2.6,0,0,0,.556.174c.069.035.139.035.174.07.035,0,.07.035.139.035a2.26,2.26,0,0,0,.244.07c.174.035.382.1.556.139.035,0,.1.035.139.035.069,0,.139.035.208.035a2.052,2.052,0,0,0,.487.07,1.5,1.5,0,0,1,.174.035.441.441,0,0,1,.209.035,1.843,1.843,0,0,0,.452.035c.069,0,.139.035.209.035h.208c.139,0,.313.035.452.035H903.6c.209,0,.417-.035.591-.035h.348a.312.312,0,0,0,.174-.035l.626-.1a.209.209,0,0,0,.139-.035h.07c.1-.035.174-.035.278-.07.174-.035.348-.07.487-.1.1-.035.244-.07.348-.1a2.234,2.234,0,0,0,.452-.139c.035,0,.07-.035.1-.035a2.6,2.6,0,0,1,.556-.174c.035,0,.035-.035.07-.035.209-.069.382-.174.556-.243.07-.035.1-.035.174-.07.209-.1.417-.209.591-.313.035-.035.069-.035.1-.07s.069-.035.1-.07c.069-.035.1-.07.174-.1.035-.035.1-.07.139-.1s.1-.07.139-.1.1-.07.139-.1.1-.07.139-.1a1239.353,1239.353,0,0,0,.278-.209.121.121,0,0,1,.07-.035l.035-.035.209-.208.069-.07c.07-.1.174-.174.243-.278h0c0-.035.035-.035.035-.07a.61.61,0,0,1,.139-.174c.035-.035.035-.07.07-.1.035-.07.07-.1.1-.174l.035-.035c0-.035.035-.035.035-.07.035-.035.035-.1.07-.139s.035-.07.069-.1.035-.1.07-.139c0-.035.035-.035.035-.07s0-.035.035-.069c0-.035.035-.07.035-.139,0-.035.035-.07.035-.1s.035-.07.035-.139v-.1a.208.208,0,0,1,.035-.139v-2.886C911.871,846.735,911.871,846.8,911.871,846.839Z" transform="translate(-894 -841.55)" fill="#e5ac45"/>
          <g id="Group_459" data-name="Group 459" transform="translate(0.087)">
            <path id="Path_542" data-name="Path 542" d="M909.426,833.387c3.477,2.017,3.512,5.285.035,7.267a13.849,13.849,0,0,1-12.586,0c-3.477-2.016-3.512-5.285-.035-7.267A13.956,13.956,0,0,1,909.426,833.387Z" transform="translate(-894.25 -831.888)" fill="#f2c05b"/>
          </g>
          <g id="Group_460" data-name="Group 460" transform="translate(5.007 2.786)">
            <path id="Path_543" data-name="Path 543" d="M915.284,841.708c.765.452.869,1.147.07,1.808l.869.521-.834.487-.834-.487a6.239,6.239,0,0,1-1.808.626l-.765-.73a5.917,5.917,0,0,0,1.773-.591c.487-.278.626-.591.278-.765-.313-.174-.8-.139-1.634.1a4.1,4.1,0,0,1-3.094,0c-.765-.452-.834-1.078-.07-1.7l-.834-.487.834-.487.765.452a6.412,6.412,0,0,1,1.53-.556l.73.7a4.6,4.6,0,0,0-1.53.556c-.556.313-.487.556-.243.7.278.174.765.1,1.773-.174A3.458,3.458,0,0,1,915.284,841.708Z" transform="translate(-908.4 -839.9)" fill="#ec8659"/>
          </g>
        </g>
      </g>
      <g id="Group_467" data-name="Group 467" transform="translate(26.076 52.255)">
        <g id="Group_464" data-name="Group 464">
          <path id="Path_544" data-name="Path 544" d="M453.412,283.566c-3.651-2.121-8.692-1.808-14.255,1.391-11.056,6.4-19.992,21.835-19.957,34.56.035,6.293,2.26,10.743,5.841,12.83l9.179,5.32c-3.581-2.086-5.806-6.536-5.841-12.83-.035-12.691,8.9-28.163,19.957-34.56,5.563-3.2,10.6-3.512,14.255-1.391Z" transform="translate(-419.2 -282.215)" fill="#f2449c"/>
          <g id="Group_463" data-name="Group 463" transform="translate(9.179 5.31)">
            <path id="Path_545" data-name="Path 545" d="M465.557,300.239c11.056-6.4,20.027-1.252,20.061,11.439s-8.9,28.163-19.957,34.56S445.635,347.489,445.6,334.8,454.5,306.636,465.557,300.239Z" transform="translate(-445.6 -297.488)" fill="#f965a8"/>
          </g>
        </g>
        <g id="Group_466" data-name="Group 466" transform="translate(18.494 17.142)">
          <g id="Group_465" data-name="Group 465">
            <path id="Path_546" data-name="Path 546" d="M489.153,332.276c3.025-1.738,5.945-.522,6.189,3.964.243,5.041-4.763,13.177-10.187,20.861a3.938,3.938,0,0,1-1.182,1.113,1.616,1.616,0,0,1-1.147.243c-5.459-1.321-10.57-3.546-10.431-8.831.139-4.729,3.094-9.388,6.119-11.126a5.681,5.681,0,0,1,1.773-.7c2.4-.417,3.338.834,3.512,1.078a15.457,15.457,0,0,1,3.477-5.146A9.826,9.826,0,0,1,489.153,332.276Z" transform="translate(-472.392 -331.517)" fill="#fff"/>
          </g>
        </g>
      </g>
    </g>
  </g>
</svg>
