<svg xmlns="http://www.w3.org/2000/svg" width="26.808" height="23.727" viewBox="0 0 26.808 23.727">
    <path d="M 13.07256317138672 21.64412689208984 C 12.66804122924805 21.64412689208984 12.31319046020508 21.99897766113281 12.31319046020508 22.40349769592285 L 12.31319046020508 36.78402709960938 C 12.31319046020508 37.18854522705078 12.66804122924805 37.54339599609375 13.07256317138672 37.54339599609375 L 35.36148071289062 37.54339599609375 C 35.7660026550293 37.54339599609375 36.120849609375 37.18854522705078 36.120849609375 36.78402709960938 L 36.120849609375 22.40349769592285 C 36.120849609375 21.99897766113281 35.7660026550293 21.64412689208984 35.36148071289062 21.64412689208984 L 31.35581207275391 21.64412689208984 L 29.85581207275391 21.64412689208984 L 29.60910224914551 21.64412689208984 L 18.82412147521973 21.64412689208984 L 18.68095207214355 21.64412689208984 L 17.18095207214355 21.64412689208984 L 13.07256317138672 21.64412689208984 M 19.44032287597656 15.31679916381836 L 28.99359130859375 15.31679916381836 C 30.22683143615723 15.31679916381836 31.35581207275391 16.34426879882812 31.35581207275391 17.67901611328125 L 31.35581207275391 20.14412689208984 L 35.36148071289062 20.14412689208984 C 36.59472274780273 20.14412689208984 37.620849609375 21.17158889770508 37.620849609375 22.40349769592285 L 37.620849609375 36.78402709960938 C 37.620849609375 38.01726531982422 36.59339141845703 39.04339599609375 35.36148071289062 39.04339599609375 L 13.07256317138672 39.04339599609375 C 11.83932113647461 39.04339599609375 10.81319046020508 38.01593780517578 10.81319046020508 36.78402709960938 L 10.81319046020508 22.40349769592285 C 10.81319046020508 21.17025756835938 11.84065246582031 20.14412689208984 13.07256317138672 20.14412689208984 L 17.18095207214355 20.14412689208984 L 17.18095207214355 17.67901611328125 C 17.18095207214355 16.34426879882812 18.20841217041016 15.31679916381836 19.44032287597656 15.31679916381836 Z M 29.60910224914551 20.14412689208984 L 29.60910224914551 17.67901611328125 C 29.60910224914551 17.37037658691406 29.30045127868652 17.06306838989258 28.99314117431641 17.06306838989258 L 19.43987274169922 17.06306838989258 C 19.1312313079834 17.06306838989258 18.82392120361328 17.37170791625977 18.82392120361328 17.67901611328125 L 18.82412147521973 20.14412689208984 L 29.60910224914551 20.14412689208984 Z M 13.07232284545898 20.14412689208984 L 13.07256317138672 20.14412689208984 L 13.07232284545898 20.14412689208984 Z"  transform="translate(-10.813 -15.317)"/>
</svg>

