<svg xmlns="http://www.w3.org/2000/svg" width="64.621" height="64.621" viewBox="0 0 64.621 64.621">
  <g id="np_calendar_1560875_FFFFFF" transform="translate(-2.001 -2)">
    <path id="Path_220" data-name="Path 220" d="M55.852,7.385H53.159V4.693a2.693,2.693,0,0,0-5.385,0V7.385H37V4.693a2.693,2.693,0,1,0-5.385,0V7.385H20.848V4.693a2.693,2.693,0,1,0-5.385,0V7.385H12.771A10.773,10.773,0,0,0,2,18.155v37.7a10.773,10.773,0,0,0,10.77,10.77H55.852a10.773,10.773,0,0,0,10.77-10.77v-37.7a10.773,10.773,0,0,0-10.77-10.77ZM12.771,12.77h2.693v2.693a2.693,2.693,0,0,0,5.385,0V12.77h10.77v2.693a2.693,2.693,0,0,0,5.385,0V12.77h10.77v2.693a2.693,2.693,0,0,0,5.385,0V12.77h2.693a5.387,5.387,0,0,1,5.385,5.385v5.385H7.385V18.156A5.385,5.385,0,0,1,12.771,12.77ZM55.852,61.237H12.771a5.385,5.385,0,0,1-5.385-5.385V28.926H61.237V55.852a5.387,5.387,0,0,1-5.385,5.385Z" fill="#fff"/>
    <path id="Path_221" data-name="Path 221" d="M27.385,56.693a2.693,2.693,0,0,1-5.385,0,2.693,2.693,0,0,1,5.385,0" transform="translate(-6.537 -16.997)" fill="#fff"/>
    <path id="Path_222" data-name="Path 222" d="M27.385,72.693a2.693,2.693,0,0,1-5.385,0,2.693,2.693,0,0,1,5.385,0" transform="translate(-6.537 -22.226)" fill="#fff"/>
    <path id="Path_223" data-name="Path 223" d="M43.385,56.693a2.693,2.693,0,0,1-5.385,0,2.693,2.693,0,0,1,5.385,0" transform="translate(-11.767 -16.997)" fill="#fff"/>
    <path id="Path_224" data-name="Path 224" d="M43.385,72.693a2.693,2.693,0,0,1-5.385,0,2.693,2.693,0,0,1,5.385,0" transform="translate(-11.767 -22.226)" fill="#fff"/>
    <path id="Path_225" data-name="Path 225" d="M59.385,56.693a2.693,2.693,0,0,1-5.385,0,2.693,2.693,0,0,1,5.385,0" transform="translate(-16.996 -16.997)" fill="#fff"/>
    <path id="Path_226" data-name="Path 226" d="M59.385,72.693a2.693,2.693,0,0,1-5.385,0,2.693,2.693,0,0,1,5.385,0" transform="translate(-16.996 -22.226)" fill="#fff"/>
    <path id="Path_227" data-name="Path 227" d="M75.385,56.693a2.693,2.693,0,0,1-5.385,0,2.693,2.693,0,0,1,5.385,0" transform="translate(-22.226 -16.997)" fill="#fff"/>
    <path id="Path_228" data-name="Path 228" d="M75.385,72.693a2.693,2.693,0,0,1-5.385,0,2.693,2.693,0,0,1,5.385,0" transform="translate(-22.226 -22.226)" fill="#fff"/>
  </g>
</svg>
