<svg xmlns="http://www.w3.org/2000/svg" width="26.331" height="26.331" viewBox="0 0 26.331 26.331">
  <g id="Group_5906" data-name="Group 5906" transform="translate(-2 -2)">
    <path id="Path_220" data-name="Path 220" d="M23.943,4.194h-1.1V3.1a1.1,1.1,0,1,0-2.194,0v1.1H16.263V3.1a1.1,1.1,0,1,0-2.194,0v1.1H9.68V3.1a1.1,1.1,0,1,0-2.194,0v1.1h-1.1A4.39,4.39,0,0,0,2,8.583v15.36a4.39,4.39,0,0,0,4.388,4.388H23.943a4.39,4.39,0,0,0,4.388-4.388V8.583a4.39,4.39,0,0,0-4.388-4.388ZM6.389,6.389h1.1v1.1a1.1,1.1,0,1,0,2.194,0v-1.1h4.389v1.1a1.1,1.1,0,0,0,2.194,0v-1.1h4.389v1.1a1.1,1.1,0,1,0,2.194,0v-1.1h1.1a2.195,2.195,0,0,1,2.194,2.194v2.194H4.195V8.583A2.194,2.194,0,0,1,6.389,6.389ZM23.943,26.137H6.389a2.194,2.194,0,0,1-2.194-2.194V12.971H26.138V23.943a2.195,2.195,0,0,1-2.194,2.194Z" fill="#fff"/>
    <path id="Path_221" data-name="Path 221" d="M24.194,55.1A1.1,1.1,0,0,1,22,55.1a1.1,1.1,0,0,1,2.194,0" transform="translate(-14.514 -37.738)" fill="#fff"/>
    <path id="Path_222" data-name="Path 222" d="M24.194,71.1A1.1,1.1,0,0,1,22,71.1a1.1,1.1,0,0,1,2.194,0" transform="translate(-14.514 -49.349)" fill="#fff"/>
    <path id="Path_223" data-name="Path 223" d="M40.194,55.1A1.1,1.1,0,0,1,38,55.1a1.1,1.1,0,0,1,2.194,0" transform="translate(-26.125 -37.738)" fill="#fff"/>
    <path id="Path_224" data-name="Path 224" d="M40.194,71.1A1.1,1.1,0,0,1,38,71.1a1.1,1.1,0,0,1,2.194,0" transform="translate(-26.125 -49.349)" fill="#fff"/>
    <path id="Path_225" data-name="Path 225" d="M56.194,55.1A1.1,1.1,0,0,1,54,55.1a1.1,1.1,0,0,1,2.194,0" transform="translate(-37.737 -37.738)" fill="#fff"/>
    <path id="Path_226" data-name="Path 226" d="M56.194,71.1A1.1,1.1,0,0,1,54,71.1a1.1,1.1,0,0,1,2.194,0" transform="translate(-37.737 -49.349)" fill="#fff"/>
    <path id="Path_227" data-name="Path 227" d="M72.194,55.1A1.1,1.1,0,0,1,70,55.1a1.1,1.1,0,0,1,2.194,0" transform="translate(-49.348 -37.738)" fill="#fff"/>
    <path id="Path_228" data-name="Path 228" d="M72.194,71.1A1.1,1.1,0,0,1,70,71.1a1.1,1.1,0,0,1,2.194,0" transform="translate(-49.348 -49.349)" fill="#fff"/>
  </g>
</svg>
