<svg version="1.1" id="Layer_1" xmlns="http://www.w3.org/2000/svg" xmlns:xlink="http://www.w3.org/1999/xlink" x="0px" y="0px"
	 width="30px" height="26.34px" viewBox="0 0 30 26.34" enable-background="new 0 0 30 26.34" xml:space="preserve">
<g id="Layer_2" transform="translate(-1 -2.79)">
	<path id="Path_54322" fill="#9300FF" d="M27.46,29.13H4.54C2.585,29.13,1,27.545,1,25.59V10.41c0.005-1.951,1.589-3.53,3.54-3.53
		h3.74c0.063,0.002,0.123-0.033,0.15-0.09l1-2c0.583-1.217,1.81-1.994,3.16-2h6.87c1.35,0.006,2.577,0.783,3.16,2l1,2
		c0.028,0.057,0.087,0.092,0.149,0.09h3.75c1.928,0.033,3.475,1.602,3.48,3.53v15.18C31,27.545,29.415,29.13,27.46,29.13
		L27.46,29.13z M4.54,8.88c-0.847,0-1.535,0.684-1.54,1.53v15.18c0,0.851,0.689,1.54,1.54,1.54l0,0h22.92
		c0.851,0,1.54-0.689,1.54-1.54l0,0V10.41c0-0.851-0.689-1.54-1.54-1.54l0,0h-3.739c-0.818,0.002-1.566-0.459-1.931-1.19l0,0l-1-2
		c-0.259-0.521-0.789-0.85-1.37-0.85h-6.85c-0.581,0-1.112,0.33-1.37,0.85l-1,2c-0.362,0.735-1.111,1.2-1.93,1.2H4.54z"/>
	<path id="Path_54323" fill="none" stroke="#9300FF" stroke-width="2" stroke-miterlimit="10" d="M16,23.84c-3.313,0-6-2.687-6-6
		s2.687-6,6-6s6,2.687,6,6S19.313,23.84,16,23.84z"/>
	<path id="Rectangle_2335" fill="#9300FF" d="M6.63,10.91h2c0.552,0,1,0.448,1,1l0,0c0,0.552-0.448,1-1,1h-2c-0.552,0-1-0.448-1-1
		l0,0C5.63,11.358,6.078,10.91,6.63,10.91z"/>
</g>
</svg>