<svg xmlns="http://www.w3.org/2000/svg" width="53.004" height="53.004" viewBox="0 0 53.004 53.004"><defs><style>.a{fill:#fff;}</style></defs><path class="a" d="M-6501.5-434a26.336,26.336,0,0,1-10.316-2.083,26.42,26.42,0,0,1-8.424-5.679,26.422,26.422,0,0,1-5.68-8.424A26.338,26.338,0,0,1-6528-460.5a26.342,26.342,0,0,1,2.083-10.317,26.423,26.423,0,0,1,5.68-8.424,26.419,26.419,0,0,1,8.424-5.68A26.337,26.337,0,0,1-6501.5-487a26.337,26.337,0,0,1,10.316,2.083,26.406,26.406,0,0,1,8.423,5.68,26.411,26.411,0,0,1,5.68,8.424A26.342,26.342,0,0,1-6475-460.5a26.338,26.338,0,0,1-2.083,10.316,26.41,26.41,0,0,1-5.68,8.424,26.406,26.406,0,0,1-8.423,5.679A26.336,26.336,0,0,1-6501.5-434Zm0-24.083h0l5.44,5.44a1.7,1.7,0,0,0,1.208.5,1.7,1.7,0,0,0,1.21-.5,1.7,1.7,0,0,0,.5-1.21,1.692,1.692,0,0,0-.5-1.206l-5.441-5.441,5.441-5.441a1.7,1.7,0,0,0,.5-1.21,1.7,1.7,0,0,0-.5-1.21,1.7,1.7,0,0,0-1.209-.5,1.7,1.7,0,0,0-1.209.5l-5.44,5.441-5.441-5.441a1.7,1.7,0,0,0-1.21-.5,1.7,1.7,0,0,0-1.208.5,1.7,1.7,0,0,0-.5,1.211,1.7,1.7,0,0,0,.5,1.207l5.441,5.441-5.442,5.442a1.7,1.7,0,0,0-.5,1.208,1.7,1.7,0,0,0,.5,1.21,1.7,1.7,0,0,0,1.209.5,1.693,1.693,0,0,0,1.209-.5l5.44-5.44Z" transform="translate(6528 487)"/></svg>