<svg xmlns="http://www.w3.org/2000/svg" width="17.722" height="17.777" viewBox="0 0 17.722 17.777">
  <path id="Path_1529" data-name="Path 1529" d="M172.166,377.316a.6.6,0,0,1-.152-.021l-3.343-.928a8.738,8.738,0,0,1-3.868.892,8.86,8.86,0,1,1,8.862-8.86,8.777,8.777,0,0,1-1.612,5.08l.672,3.145a.573.573,0,0,1-.56.692ZM164.8,360.682a7.717,7.717,0,0,0,0,15.434,7.628,7.628,0,0,0,3.545-.867.591.591,0,0,1,.416-.044l2.644.734-.528-2.469a.574.574,0,0,1,.1-.462,7.646,7.646,0,0,0,1.539-4.609A7.726,7.726,0,0,0,164.8,360.682Z" transform="translate(-155.944 -359.539)" fill="#2a2a2a"/>
</svg>
