<svg xmlns="http://www.w3.org/2000/svg" width="23.399" height="23.399" viewBox="0 0 23.399 23.399">
  <g id="Group_5861" data-name="Group 5861" transform="translate(-2 -2)">
    <path id="Path_54279" data-name="Path 54279" d="M8.686,22.057H4.507A2.507,2.507,0,0,1,2,19.55V4.507A2.507,2.507,0,0,1,4.507,2H15.371a.836.836,0,0,1,0,1.671H4.507a.836.836,0,0,0-.836.836V19.55a.836.836,0,0,0,.836.836H8.686a.836.836,0,0,1,0,1.671Z" transform="translate(0 0)" fill="#fff"/>
    <path id="Path_54280" data-name="Path 54280" d="M24.7,26.057H15.507A2.507,2.507,0,0,1,13,23.55V8.507A2.507,2.507,0,0,1,15.507,6H24.7a2.507,2.507,0,0,1,2.507,2.507V23.55A2.507,2.507,0,0,1,24.7,26.057ZM15.507,7.671a.836.836,0,0,0-.836.836V23.55a.836.836,0,0,0,.836.836H24.7a.836.836,0,0,0,.836-.836V8.507a.836.836,0,0,0-.836-.836Z" transform="translate(-1.807 -0.657)" fill="#fff"/>
    <path id="Path_54281" data-name="Path 54281" d="M19.371,12.014H16.028a.836.836,0,0,1,0-1.671h3.343a.836.836,0,0,1,0,1.671Zm2.507,4.178h-5.85a.836.836,0,0,1,0-1.671h5.85a.836.836,0,0,1,0,1.671Zm0,4.178h-5.85a.836.836,0,0,1,0-1.671h5.85a.836.836,0,0,1,0,1.671Zm-11.7-11.7H6.836A.836.836,0,0,1,6.836,7h3.343a.836.836,0,0,1,0,1.671Zm2.507,4.178H6.836a.836.836,0,0,1,0-1.671h5.85a.836.836,0,0,1,0,1.671Zm0,4.178H6.836a.836.836,0,0,1,0-1.671h5.85a.836.836,0,0,1,0,1.671Z" transform="translate(-0.657 -0.822)" fill="#fff"/>
  </g>
</svg>
