<svg xmlns="http://www.w3.org/2000/svg" width="28.644" height="26" viewBox="0 0 28.644 26">
  <g id="np_company_2754578_000000" transform="translate(-3.473 -9.028)">
    <g id="Path_705" data-name="Path 705">
      <path d="M 31.45437240600586 34.52795791625977 L 4.133242607116699 34.52795791625977 C 4.049192428588867 34.52795791625977 3.972632646560669 34.45140838623047 3.972632646560669 34.36735534667969 L 3.972632646560669 13.21457672119141 C 3.972632646560669 13.17179679870605 3.990352630615234 13.13034725189209 4.022522449493408 13.09785652160645 L 7.545492649078369 9.574896812438965 C 7.575412750244141 9.545296669006348 7.616442680358887 9.527997016906738 7.659202575683594 9.527997016906738 L 31.45560264587402 9.527997016906738 C 31.54115295410156 9.527997016906738 31.61619186401367 9.603036880493164 31.61619186401367 9.688587188720703 L 31.61495208740234 34.36733627319336 C 31.61495208740234 34.45291519165039 31.53991317749023 34.52795791625977 31.45437240600586 34.52795791625977 Z M 22.80299186706543 9.850446701049805 L 22.80299186706543 10.3504467010498 L 22.80299186706543 33.70550537109375 L 22.80299186706543 34.20550537109375 L 23.30299186706543 34.20550537109375 L 30.79378318786621 34.20550537109375 L 31.29378318786621 34.20550537109375 L 31.29378318786621 33.70550537109375 L 31.29378318786621 10.3504467010498 L 31.29378318786621 9.850446701049805 L 30.79378318786621 9.850446701049805 L 23.30299186706543 9.850446701049805 L 22.80299186706543 9.850446701049805 Z M 10.4637622833252 30.12063789367676 L 10.4637622833252 30.62063789367676 L 10.4637622833252 33.70550537109375 L 10.4637622833252 34.20550537109375 L 10.9637622833252 34.20550537109375 L 15.81093215942383 34.20550537109375 L 16.31093215942383 34.20550537109375 L 16.31093215942383 33.70550537109375 L 16.31093215942383 30.62063789367676 L 16.31093215942383 30.12063789367676 L 15.81093215942383 30.12063789367676 L 10.9637622833252 30.12063789367676 L 10.4637622833252 30.12063789367676 Z M 16.63452339172363 29.7968578338623 L 16.63452339172363 33.70426559448242 L 16.63452339172363 34.20426559448242 L 17.13452339172363 34.20426559448242 L 21.98168182373047 34.20426559448242 L 22.48168182373047 34.20426559448242 L 22.48168182373047 33.70426559448242 L 22.48168182373047 10.34920692443848 L 22.48168182373047 9.849206924438477 L 21.98168182373047 9.849206924438477 L 7.933242797851562 9.849206924438477 L 7.726132392883301 9.849206924438477 L 7.579692840576172 9.995656967163086 L 4.441552639007568 13.13379669189453 L 4.295092582702637 13.28025722503662 L 4.295102596282959 13.48738670349121 L 4.296562671661377 33.70430755615234 L 4.296602725982666 34.20426559448242 L 4.796562671661377 34.20426559448242 L 9.643733024597168 34.20426559448242 L 10.14373302459717 34.20426559448242 L 10.14373302459717 33.70426559448242 L 10.14373302459717 29.7968578338623 L 16.63452339172363 29.7968578338623 Z" stroke="none"/>
      <path d="M 31.45437240600586 35.02795791625977 L 4.133242607116699 35.02795791625977 L 4.133222579956055 35.02794647216797 C 3.772562503814697 35.02794647216797 3.472632646560669 34.7280158996582 3.472632646560669 34.36735534667969 L 3.472632646560669 13.21457672119141 C 3.472632646560669 13.03856658935547 3.543272495269775 12.87124729156494 3.667212724685669 12.74606704711914 L 7.191942691802979 9.221346855163574 C 7.315902709960938 9.098647117614746 7.483212471008301 9.027997016906738 7.659202575683594 9.027997016906738 L 31.45560264587402 9.027997016906738 C 31.81626319885254 9.027997016906738 32.11619186401367 9.32669734954834 32.11619186401367 9.688587188720703 L 32.11495208740234 34.36736679077148 C 32.11495208740234 34.7280158996582 31.81626319885254 35.02795791625977 31.45437240600586 35.02795791625977 Z M 23.30299186706543 10.3504467010498 L 23.30299186706543 33.70550537109375 L 30.79378318786621 33.70550537109375 L 30.79378318786621 10.3504467010498 L 23.30299186706543 10.3504467010498 Z M 10.9637622833252 30.62063789367676 L 10.9637622833252 33.70550537109375 L 15.81093215942383 33.70550537109375 L 15.81093215942383 30.62063789367676 L 10.9637622833252 30.62063789367676 Z M 9.643733024597168 29.2968578338623 L 17.13452339172363 29.2968578338623 L 17.13452339172363 33.70426559448242 L 21.98168182373047 33.70426559448242 L 21.98168182373047 10.34920692443848 L 7.933242797851562 10.34920692443848 L 4.795102596282959 13.48734664916992 L 4.796562671661377 33.70426559448242 L 9.643733024597168 33.70426559448242 L 9.643733024597168 29.2968578338623 Z" stroke="none" />
    </g>
    <path id="Path_706" data-name="Path 706" d="M74.3,24.3h2.2v2.2H74.3Z" transform="translate(-48.358 -10.43)"  stroke="none" stroke-width="1"/>
    <path id="Path_707" data-name="Path 707" d="M74.3,57.641h2.2v2.2H74.3Z" transform="translate(-48.358 -33.189)"  stroke="none" stroke-width="1"/>
    <path id="Path_708" data-name="Path 708" d="M74.3,35.418h2.2v2.2H74.3Z" transform="translate(-48.358 -18.017)" stroke="none" stroke-width="1"/>
    <path id="Path_709" data-name="Path 709" d="M74.3,46.527h2.2v2.2H74.3Z" transform="translate(-48.358 -25.601)" stroke="none" stroke-width="1"/>
    <path id="Path_710" data-name="Path 710" d="M15.973,57.641H17.3v2.2H15.973Z" transform="translate(-8.534 -33.189)"  stroke="none" stroke-width="1"/>
    <path id="Path_711" data-name="Path 711" d="M33.962,48.035v-2.2H32.641v2.424h1.321Z" transform="translate(-19.914 -25.126)" stroke="none" stroke-width="1"/>
    <path id="Path_712" data-name="Path 712" d="M32.641,57.641h1.322v2.2H32.641Z" transform="translate(-19.914 -33.189)"  stroke="none" stroke-width="1"/>
    <path id="Path_713" data-name="Path 713" d="M49.3,57.641h1.322v2.2H49.3Z" transform="translate(-31.29 -33.189)" stroke="none" stroke-width="1"/>
    <path id="Path_714" data-name="Path 714" d="M50.627,48.035v-2.2H49.3v2.424h1.322Z" transform="translate(-31.29 -25.126)"  stroke="none" stroke-width="1"/>
    <path id="Path_715" data-name="Path 715" d="M15.973,46.052v2.2H17.3V45.832H15.973Z" transform="translate(-8.534 -25.126)" stroke="none" stroke-width="1"/>
    <path id="Path_716" data-name="Path 716" d="M15.973,34.723H17.3v2.2H15.973Z" transform="translate(-8.534 -17.542)"  stroke="none" stroke-width="1"/>
    <path id="Path_717" data-name="Path 717" d="M32.641,34.723h1.322v2.2H32.641Z" transform="translate(-19.914 -17.542)"  stroke="none" stroke-width="1"/>
    <path id="Path_718" data-name="Path 718" d="M49.3,34.723h1.322v2.2H49.3Z" transform="translate(-31.29 -17.542)" stroke="none" stroke-width="1"/>
  </g>
</svg>
