<svg xmlns="http://www.w3.org/2000/svg" width="37.004" height="35.848" viewBox="0 0 37.004 35.848"><defs><style>.a{fill:#ff9f00;}</style></defs><g transform="translate(0 -1.563)"><path class="a" d="M69.588,61.265a.573.573,0,0,0-1.044.006L65.753,65.9c-.285.445-.082.812.448.812h1.736v1.636a.641.641,0,0,0,.64.676h.94a.72.72,0,0,0,.733-.676V66.716h1.735c.532,0,.729-.37.437-.818Z" transform="translate(96.839 92.561) rotate(180)"/><path class="a" d="M34.691,22.051V3.788a2.225,2.225,0,0,0-2.225-2.225H2.224A2.225,2.225,0,0,0,0,3.788v23.3a2.225,2.225,0,0,0,2.225,2.225h10.5a3.47,3.47,0,0,1-3.469,3.469.578.578,0,1,0,0,1.156H20.534A9.247,9.247,0,1,0,34.691,22.052Zm-17.346,3.8A1.156,1.156,0,1,1,18.5,24.691,1.156,1.156,0,0,1,17.346,25.847ZM3.469,21.222V5.032H31.222V19.584a9.214,9.214,0,0,0-9.582,1.638Zm24.283,12.72a5.784,5.784,0,1,1,5.783-5.785A5.791,5.791,0,0,1,27.751,33.942Z" transform="translate(0 0)"/></g></svg>