<svg xmlns="http://www.w3.org/2000/svg" width="32.989" height="29.623" viewBox="0 0 32.989 29.623">
  <g id="np_download_1145284_FFFFFF" transform="translate(-25 -31.301)">
    <path id="Path_177" data-name="Path 177" d="M56.34,71.2H26.649a1.649,1.649,0,1,0,0,3.3H56.34a1.649,1.649,0,1,0,0-3.3Z" transform="translate(0 -13.574)" fill="#fff"/>
    <path id="Path_178" data-name="Path 178" d="M51.962,44.759,48,47.728V32.95a1.649,1.649,0,0,0-3.3,0V47.664l-3.959-2.9a1.771,1.771,0,0,0-.99-.33,1.718,1.718,0,0,0-1.32.66,1.666,1.666,0,0,0,.33,2.309l6.665,4.881a1.588,1.588,0,0,0,1.979,0l6.6-4.881a1.666,1.666,0,0,0,.33-2.309,1.767,1.767,0,0,0-2.376-.332Z" transform="translate(-4.462)" fill="#fff"/>
  </g>
</svg>
