<svg xmlns="http://www.w3.org/2000/svg" width="51.438" height="62.978" viewBox="0 0 51.438 62.978">
  <defs>
    <style>
      .a{fill:transparent}.a,.b{stroke:#ff7a09;stroke-linecap:round;stroke-linejoin:round;stroke-miterlimit:10;stroke-width:2px}.b,.c{fill:none}
    </style>
  </defs>
  <g transform="translate(-50.229 -13.62)">
    <path class="a" d="M112.489,59.889a3.3,3.3,0,0,1-4.232-1.953L96,24.686a3.3,3.3,0,0,1,1.953-4.232L113.2,14.836a3.3,3.3,0,0,1,4.232,1.953l12.254,33.25a3.3,3.3,0,0,1-1.953,4.232l-6.646,2.449" transform="translate(-38.971 0)"/>
    <line class="b" y1="3.546" x2="9.622" transform="translate(79.758 46.778)"/>
    <line class="b" y1="1.181" x2="3.204" transform="translate(68.089 53.443)"/>
    <line class="b" y1="7.811" x2="21.196" transform="translate(57.314 17.282)"/>
    <line class="b" y1="0.512" x2="1.39" transform="translate(80.83 52.719)"/>
    <path class="a" d="M178.2,138.773l3.427,3.252,4.622-.979-2.034,4.264,2.359,4.093-4.684-.617-3.164,3.509-.86-4.645-4.315-1.925,4.152-2.254Z" transform="translate(-106.954 -108.547)"/>
    <path class="a" d="M137.508,235.67l-4.055-11a2.8,2.8,0,0,1,1.66-3.6h0a2.8,2.8,0,0,1,3.6,1.66l4.055,11,1.148-.1a5.964,5.964,0,0,1,5.425,2.585l1.128,1.655m-25.808-26.008-1.884,5.184a6.089,6.089,0,0,0,.056,4.051l5.725,15.534a6.467,6.467,0,0,0,2.893,3.4l4.963,2.8a5.159,5.159,0,0,1,2.308,2.71l.931,2.205m12.008-21.227,2.662,2.86a6.457,6.457,0,0,1,1.017,3.442l.016,2.856a6.458,6.458,0,0,0,.4,2.2l3.378,9.873" transform="translate(-62.278 -172.461)"/>
    <g transform="translate(51.229 23.137)">
      <line class="b" y2="0.785" transform="translate(46.354 0)"/>
      <line class="b" y2="0.785" transform="translate(46.354 5.383)"/>
      <line class="b" x2="0.785" transform="translate(43.27 3.084)"/>
      <line class="b" x2="0.785" transform="translate(48.653 3.084)"/>
      <line class="b" y2="0.785" transform="translate(3.084 36.906)"/>
      <line class="b" y2="0.785" transform="translate(3.084 42.29)"/>
      <line class="b" x2="0.785" transform="translate(0 39.991)"/>
      <line class="b" x2="0.785" transform="translate(5.383 39.991)"/>
      <circle class="c" cx="1.125" cy="1.125" r="1.125" transform="translate(47.308 16.657)"/>
      <circle class="c" cx="1.125" cy="1.125" r="1.125" transform="translate(40.775 10.612)"/>
      <circle class="c" cx="1.125" cy="1.125" r="1.125" transform="translate(2.437 26.997)"/>
    </g>
  </g>
</svg>
