<svg xmlns="http://www.w3.org/2000/svg" viewBox="0 0 51.44 62.65">
  <defs>
    <style>
      .cls-1{fill:#ff7a09}
    </style>
  </defs>
  <g id="Layer_2" data-name="Layer 2">
    <g id="Layer_1-2" data-name="Layer 1">
      <path class="cls-1" d="M22.16,47.46a4.31,4.31,0,0,1-4-2.81L5.86,11.4A4.32,4.32,0,0,1,8.41,5.88L23.65.26a4.32,4.32,0,0,1,5.52,2.55L41.42,36.06a4.29,4.29,0,0,1-2.54,5.51L32.23,44a1,1,0,0,1-.69-1.87l6.65-2.45a2.31,2.31,0,0,0,1.36-3L27.29,3.5a2.3,2.3,0,0,0-2.95-1.36L9.1,7.76a2.3,2.3,0,0,0-1.36,3L20,44a2.3,2.3,0,0,0,2.94,1.36,1,1,0,1,1,.69,1.87A4.2,4.2,0,0,1,22.16,47.46Z"/>
      <path class="cls-1" d="M29.53,37.69a1,1,0,0,1-.35-1.94l9.63-3.55a1,1,0,0,1,.69,1.88l-9.62,3.55A1.12,1.12,0,0,1,29.53,37.69Z"/>
      <path class="cls-1" d="M17.86,42a1,1,0,0,1-.35-1.94l3.21-1.18a1,1,0,0,1,1.28.59,1,1,0,0,1-.59,1.29l-3.2,1.18A1.12,1.12,0,0,1,17.86,42Z"/>
      <path class="cls-1" d="M7.08,12.46a1,1,0,0,1-.34-1.94l21.2-7.81a1,1,0,0,1,1.28.59,1,1,0,0,1-.59,1.29L7.43,12.4A1,1,0,0,1,7.08,12.46Z"/>
      <path class="cls-1" d="M30.6,40.6a1,1,0,0,1-.35-1.94l1.4-.51A1,1,0,0,1,32.34,40L31,40.53A.87.87,0,0,1,30.6,40.6Z"/>
      <path class="cls-1" d="M21.54,31.11a1.24,1.24,0,0,1-.27,0,1,1,0,0,1-.71-.78l-.76-4.13L16,24.46a1,1,0,0,1-.07-1.8l3.69-2L20,16.49a1,1,0,0,1,1.69-.62l3,2.89,4.11-.87A1,1,0,0,1,30,19.29l-1.81,3.79,2.1,3.64a1,1,0,0,1,0,1.06,1,1,0,0,1-1,.43l-4.16-.55-2.81,3.12A1,1,0,0,1,21.54,31.11Zm-2.91-7.65,2.46,1.09a1,1,0,0,1,.58.74l.49,2.65,1.8-2a1,1,0,0,1,.88-.32l2.67.36-1.34-2.34a1,1,0,0,1,0-.93l1.16-2.44-2.64.56a1,1,0,0,1-.89-.25l-2-1.86-.29,2.68a1,1,0,0,1-.51.78Zm1.89-2.17h0Z"/>
      <path class="cls-1" d="M46.63,62.65a1,1,0,0,1-1-.67L42.3,52.1a7.29,7.29,0,0,1-.45-2.51l0-2.86A5.35,5.35,0,0,0,41,43.9l-2.6-2.79a1,1,0,0,1,1.47-1.37l2.66,2.86a1.34,1.34,0,0,1,.11.14,7.4,7.4,0,0,1,1.17,4l0,2.85a5.43,5.43,0,0,0,.34,1.87l3.38,9.89A1,1,0,0,1,47,62.6.93.93,0,0,1,46.63,62.65Zm-19.48,0a1,1,0,0,1-.92-.61l-.94-2.21a4.19,4.19,0,0,0-1.87-2.22l-5-2.8a7.5,7.5,0,0,1-3.34-3.93L9.39,35.35a7.14,7.14,0,0,1-.07-4.72l1.89-5.21a1,1,0,0,1,1.29-.59,1,1,0,0,1,.59,1.28l-1.88,5.18a5.1,5.1,0,0,0,0,3.36L17,50.19a5.44,5.44,0,0,0,2.45,2.87l5,2.8a6.16,6.16,0,0,1,2.75,3.24l.92,2.16a1,1,0,0,1-.53,1.31A1.09,1.09,0,0,1,27.15,62.65ZM38,52.77a1,1,0,0,1-.82-.43L36,50.68a5,5,0,0,0-4.52-2.15l-1.14.1a1,1,0,0,1-1-.65L25.27,37h0a1.74,1.74,0,0,0-.93-1A1.83,1.83,0,0,0,23,35.91h0a1.8,1.8,0,0,0-1.06,2.31l4.06,11a1,1,0,0,1-.59,1.28,1,1,0,0,1-1.29-.59l-4-11A3.8,3.8,0,0,1,22.25,34h0a3.8,3.8,0,0,1,4.87,2.25h0l3.78,10.28.39,0a7,7,0,0,1,6.34,3l1.13,1.65A1,1,0,0,1,38,52.77Z"/>
      <path class="cls-1" d="M47.35,11.29a1,1,0,0,1-1-1V9.5a1,1,0,0,1,2,0v.79A1,1,0,0,1,47.35,11.29Z"/>
      <path class="cls-1" d="M47.35,16.67a1,1,0,0,1-1-1v-.79a1,1,0,0,1,2,0v.79A1,1,0,0,1,47.35,16.67Z"/>
      <path class="cls-1" d="M45.05,13.59h-.78a1,1,0,0,1,0-2h.78a1,1,0,0,1,0,2Z"/>
      <path class="cls-1" d="M50.44,13.59h-.79a1,1,0,0,1,0-2h.79a1,1,0,0,1,0,2Z"/>
      <path class="cls-1" d="M4.08,48.19a1,1,0,0,1-1-1v-.78a1,1,0,0,1,2,0v.78A1,1,0,0,1,4.08,48.19Z"/>
      <path class="cls-1" d="M4.08,53.58a1,1,0,0,1-1-1v-.79a1,1,0,0,1,2,0v.79A1,1,0,0,1,4.08,53.58Z"/>
      <path class="cls-1" d="M1.79,50.49H1a1,1,0,0,1,0-2h.79a1,1,0,0,1,0,2Z"/>
      <path class="cls-1" d="M7.17,50.49H6.38a1,1,0,0,1,0-2h.79a1,1,0,1,1,0,2Z"/>
    </g>
  </g>
</svg>
