<svg xmlns="http://www.w3.org/2000/svg" width="23.228" height="16.714" viewBox="0 0 23.228 16.714">
  <path id="np_email_2741026_000000" d="M12.051,20.723H29.794a2.707,2.707,0,0,1,2.743,2.743V34.78a2.689,2.689,0,0,1-2.743,2.657H12.051A2.689,2.689,0,0,1,9.309,34.78V23.466A2.707,2.707,0,0,1,12.051,20.723Zm18.085,15.17-5.4-5.314-1.285,1.029c-1.8,1.457-3.257,1.457-5.057,0L17.108,30.58l-5.314,5.314a.315.315,0,0,0,.258.086H29.795c.172,0,.258,0,.343-.086Zm-4.2-6.343,5.057,5.143V25.351ZM10.851,34.694l5.143-5.143-5.143-4.2Zm0-11.228,8.485,6.942c1.285,1.029,1.971,1.029,3.171,0l8.485-6.942a1.171,1.171,0,0,0-1.2-1.2H12.051a1.171,1.171,0,0,0-1.2,1.2Z" transform="translate(-9.309 -20.723)" />
</svg>
