<svg xmlns="http://www.w3.org/2000/svg" xmlns:xlink="http://www.w3.org/1999/xlink" width="73.34" height="73.34" viewBox="0 0 73.34 73.34">
  <defs>
    <filter id="Subtraction_15" x="0" y="0" width="73.34" height="73.34" filterUnits="userSpaceOnUse">
      <feOffset dy="3" input="SourceAlpha"/>
      <feGaussianBlur stdDeviation="3" result="blur"/>
      <feFlood flood-opacity="0.161"/>
      <feComposite operator="in" in2="blur"/>
      <feComposite in="SourceGraphic"/>
    </filter>
  </defs>
  <g transform="matrix(1, 0, 0, 1, 0, 0)" filter="url(#Subtraction_15)">
    <path id="Subtraction_15-2" data-name="Subtraction 15" d="M-4551.33,55.34a27.5,27.5,0,0,1-10.771-2.174,27.574,27.574,0,0,1-8.795-5.93,27.574,27.574,0,0,1-5.93-8.8A27.5,27.5,0,0,1-4579,27.67a27.5,27.5,0,0,1,2.174-10.77,27.574,27.574,0,0,1,5.93-8.8,27.574,27.574,0,0,1,8.795-5.93A27.5,27.5,0,0,1-4551.33,0a27.5,27.5,0,0,1,10.771,2.174,27.574,27.574,0,0,1,8.795,5.93,27.574,27.574,0,0,1,5.93,8.8,27.5,27.5,0,0,1,2.174,10.77,27.5,27.5,0,0,1-2.174,10.77,27.574,27.574,0,0,1-5.93,8.8,27.574,27.574,0,0,1-8.795,5.93A27.5,27.5,0,0,1-4551.33,55.34Zm-14.839-26.36a15.579,15.579,0,0,0,13.719,8.739c.087,0,.176,0,.263,0,2.691,0,5.538-1.095,8.7-3.346a19.528,19.528,0,0,0,5.537-5.507,1.276,1.276,0,0,0,0-1.282A20.537,20.537,0,0,0-4544,21.238a15.451,15.451,0,0,0-8.229-2.742l-.215,0a13.769,13.769,0,0,0-7.969,2.837,21.183,21.183,0,0,0-5.758,6.371,1.162,1.162,0,0,0-.051,1.168c.015.037.032.074.052.11h0Zm13.792,6.2h-.073a12.243,12.243,0,0,1-6.515-1.881,13.992,13.992,0,0,1-4.644-4.924,17.943,17.943,0,0,1,4.86-5.09,12.041,12.041,0,0,1,6.523-2.256l.189,0a11.859,11.859,0,0,1,6.522,2.189,18.724,18.724,0,0,1,4.96,5,19.562,19.562,0,0,1-4.21,3.972C-4547.49,34.2-4549.98,35.184-4552.378,35.184Zm.343-11.638h0a5.038,5.038,0,0,0-4.46,2.767,4.1,4.1,0,0,0,.058,3.357,4.754,4.754,0,0,0,2.773,2.583,3.838,3.838,0,0,0,1.208.191,5,5,0,0,0,2.673-.833,4.978,4.978,0,0,0,1.831-2.062,3.987,3.987,0,0,0-.085-3.6,4.789,4.789,0,0,0-3.491-2.36,1.5,1.5,0,0,0-.162-.023,1.588,1.588,0,0,0-.191-.011l-.153,0Zm-.349,6.361a2.011,2.011,0,0,1-.963-.256,1.893,1.893,0,0,1-.9-1.353,1.589,1.589,0,0,1,.35-1.352,2.826,2.826,0,0,1,2.006-.842c.067,0,.133,0,.2.007.038,0,.079,0,.124,0a1.455,1.455,0,0,1,1.408,1.62,2.483,2.483,0,0,1-.7,1.475A2.128,2.128,0,0,1-4552.384,29.906Z" transform="translate(4588 6)" fill="#fff"/>
  </g>
</svg>
