<svg xmlns="http://www.w3.org/2000/svg" width="18.818" height="21.818" viewBox="0 0 18.818 21.818">
  <g id="Group_5849" data-name="Group 5849" transform="translate(-50.091 -5.09)">
    <path id="Path_54272" data-name="Path 54272" d="M9.317,291.444a8.834,8.834,0,0,0-7.248,3.62,11.05,11.05,0,0,0-1.781,3.589.823.823,0,0,0,0,.394,11.051,11.051,0,0,0,1.781,3.589,8.834,8.834,0,0,0,7.248,3.62,8.821,8.821,0,0,0,7.241-3.62,11.127,11.127,0,0,0,1.786-3.589.822.822,0,0,0,0-.394,11.127,11.127,0,0,0-1.786-3.589,8.821,8.821,0,0,0-7.241-3.62Zm0,1.647a7.007,7.007,0,0,1,5.923,2.963,8.208,8.208,0,0,1,1.408,2.794,8.2,8.2,0,0,1-1.408,2.8,7.007,7.007,0,0,1-5.923,2.963,7.02,7.02,0,0,1-5.93-2.963,8.222,8.222,0,0,1-1.41-2.8,8.226,8.226,0,0,1,1.41-2.794,7.02,7.02,0,0,1,5.93-2.963Zm0,1.645a4.114,4.114,0,1,0,4.112,4.112,4.129,4.129,0,0,0-4.112-4.112Zm0,1.645a2.469,2.469,0,1,1-2.474,2.466A2.452,2.452,0,0,1,9.317,296.381Z" transform="translate(50.452 -283.143)" fill="#fff"/>
    <line id="Line_596" data-name="Line 596" x1="16" y2="19" transform="translate(51.5 6.5)" fill="none" stroke="#fff" stroke-linecap="round" stroke-width="2"/>
  </g>
</svg>
