<svg id="Group_5851" data-name="Group 5851" xmlns="http://www.w3.org/2000/svg" width="57.822" height="59.844" viewBox="0 0 57.822 59.844">
  <path id="Path_54269" data-name="Path 54269" d="M8.085,48.444l6.909,2.205a3.879,3.879,0,0,1,2.647,3.007l1.55,7.284a3.91,3.91,0,0,0,5.617,2.74L31.2,60.206a3.8,3.8,0,0,1,3.939.2l6.069,4.01a3.884,3.884,0,0,0,5.876-2.205l2.131-7.15a3.845,3.845,0,0,1,2.906-2.74l7.038-1.6A4.106,4.106,0,0,0,61.806,44.9l-3.358-6.616a4.17,4.17,0,0,1,.194-4.076l3.874-6.282a4.118,4.118,0,0,0-2.131-6.081l-6.909-2.205a3.879,3.879,0,0,1-2.647-3.007L49.28,9.351a3.91,3.91,0,0,0-5.617-2.74L37.27,10.086a3.8,3.8,0,0,1-3.939-.2l-6.069-4.01a3.884,3.884,0,0,0-5.876,2.205l-2.131,7.15a3.845,3.845,0,0,1-2.906,2.74l-7.038,1.6A4.106,4.106,0,0,0,6.665,25.39l3.358,6.616a4.17,4.17,0,0,1-.194,4.076L5.954,42.363A4.089,4.089,0,0,0,8.085,48.444ZM40.111,25.456l4.584-2.94c.129-.067.258-.067.323.067l.646,1.069c.065.134.065.267-.065.334l-2.776,1.737c-.129.067-.129.2-.065.334l.839,1.47a.22.22,0,0,0,.323.067l2.518-1.6c.129-.067.258-.067.323.067l.646,1.069c.065.134.065.267-.065.334l-2.454,1.671c-.129.067-.129.2-.065.334l1.033,1.8a.22.22,0,0,0,.323.067L48.957,29.6c.129-.067.258-.067.323.067l.646,1.069c.065.134.065.267-.065.334l-4.584,2.94c-.129.067-.258.067-.323-.067L40.046,25.79A.3.3,0,0,1,40.111,25.456ZM33.267,29.8l4.584-2.94c.129-.067.258-.067.323.067L38.82,28c.065.134.065.267-.065.334l-2.776,1.737c-.129.067-.129.2-.065.334l.839,1.47c.065.134.194.134.323.067l2.518-1.6c.129-.067.258-.067.323.067l.646,1.069c.065.134.065.267-.065.334l-2.454,1.671c-.129.067-.129.2-.065.334l1.033,1.8c.065.134.194.134.323.067l2.776-1.737c.129-.067.258-.067.323.067l.646,1.069c.065.134.065.267-.065.334l-4.584,2.94c-.129.067-.258.067-.323-.067l-4.843-8.153C33.138,30,33.138,29.867,33.267,29.8ZM25.2,34.946l2.324-1.47a5.906,5.906,0,0,1,3.035-1.069,2.516,2.516,0,0,1,2,1.4,2.476,2.476,0,0,1,.387,1.6,3.115,3.115,0,0,1-.517,1.4.327.327,0,0,0,.129.4c1.872.869,3.228,1.4,4.068,1.8.194.067.194.334,0,.468l-1.55,1c-.065.067-.129.067-.258,0l-3.81-1.871a.191.191,0,0,0-.258,0l-.646.4a.238.238,0,0,0-.065.334l1.679,2.874c.065.134.065.267-.065.334L30.3,43.5c-.129.067-.258.067-.323-.067L25.131,35.28C25.067,35.146,25.067,35.012,25.2,34.946Zm-6.715,4.277,4.584-2.94c.129-.067.258-.067.323.067l.646,1.069c.065.134.065.267-.065.334L21.192,39.49c-.129.067-.129.2-.065.334l1.033,1.8a.22.22,0,0,0,.323.067L25,40.091c.129-.067.258-.067.323.067l.646,1.069c.065.134.065.267-.065.334l-2.518,1.6c-.129.067-.129.2-.065.334l1.743,2.94c.065.134.065.267-.065.334l-1.421.869c-.129.067-.258.067-.323-.067l-4.843-8.153C18.351,39.423,18.351,39.289,18.481,39.222Z" transform="translate(-5.324 -5.224)" fill="#9004fc"/>
  <path id="Path_54273" data-name="Path 54273" d="M42.136,52.066a2.738,2.738,0,0,0,1.171-1.212,1.124,1.124,0,0,0-.138-1.212A1.208,1.208,0,0,0,42.136,49a3.044,3.044,0,0,0-1.584.642L40,50l1.447,2.5Z" transform="translate(-17.832 -19.855)" fill="#9004fc"/>
</svg>
