<svg xmlns="http://www.w3.org/2000/svg" width="25.848" height="26.435" viewBox="0 0 25.848 26.435" fill="#ff790a">
  <path id="np_gender_831813_FFFFFF" d="M25.974,5a.881.881,0,1,0,0,1.762h2.864l-3.672,3.672a7.306,7.306,0,0,0-8-.248,7.282,7.282,0,0,0-3.818-1.074,7.342,7.342,0,0,0-.881,14.631v2.7h-2.35a.881.881,0,0,0,0,1.762h2.35v2.35a.881.881,0,1,0,1.762,0V28.2h2.35a.881.881,0,0,0,0-1.762h-2.35v-2.7a7.275,7.275,0,0,0,2.937-1.019A7.282,7.282,0,0,0,20.98,23.8a7.515,7.515,0,0,0,4.647-1.663,7.187,7.187,0,0,0,2.7-5.68,7.291,7.291,0,0,0-1.845-4.847L30.086,8l-.009,2.864,1.762.009.009-4.993A.881.881,0,0,0,30.967,5Zm5.865,5.875H30.086a.881.881,0,1,0,1.762,0Zm-18.5,0a5.568,5.568,0,0,1,2.331.514,7.318,7.318,0,0,0,0,10.134,5.579,5.579,0,1,1-2.331-10.648Zm7.637,0a5.581,5.581,0,1,1-2.331,10.648,7.318,7.318,0,0,0,0-10.134A5.568,5.568,0,0,1,20.98,10.874Zm-3.818,1.515a5.572,5.572,0,0,1,0,8.133,5.572,5.572,0,0,1,0-8.133Z" transform="translate(-6 -5)" />
</svg>
