<svg xmlns="http://www.w3.org/2000/svg" width="33.342" height="19.612" viewBox="0 0 33.342 19.612">
  <g id="Group_152" data-name="Group 152" transform="translate(-240 -211.647)">
    <g id="np_user_2190759_717171" transform="translate(249.094 213.921)">
      <path id="Path_185" data-name="Path 185" d="M32.3,13.656c.125,2.211,1.158,5.3,3.774,5.3,2.644,0,3.713-2.922,3.847-5.3.289-5.141-7.911-5.141-7.622,0Z" transform="translate(-28.535 -9.8)" fill="#fff" fill-rule="evenodd"/>
      <path id="Path_186" data-name="Path 186" d="M14.868,57.388c.239-3.905,1.473-4.84,5.065-5.118a3.092,3.092,0,0,0,5.017,0c3.593.278,4.826,1.214,5.065,5.118C30.266,61.47,14.618,61.47,14.868,57.388Z" transform="translate(-14.865 -43.111)" fill="#fff" fill-rule="evenodd"/>
      <path id="Path_189" data-name="Path 189" d="M14.868,57.388c.239-3.905,1.473-4.84,5.065-5.118a3.092,3.092,0,0,0,5.017,0c3.593.278,4.826,1.214,5.065,5.118C30.266,61.47,14.618,61.47,14.868,57.388Z" transform="translate(-14.865 -43.111)" fill="#fff" fill-rule="evenodd"/>
    </g>
    <path id="Path_185-2" data-name="Path 185" d="M32.3,13.656c.125,2.211,1.158,5.3,3.774,5.3,2.644,0,3.713-2.922,3.847-5.3.289-5.141-7.911-5.141-7.622,0Z" transform="translate(229.653 201.847)" fill="#fff" fill-rule="evenodd"/>
    <path id="Path_186-2" data-name="Path 186" d="M14.868,57.388c.239-3.905,1.473-4.84,5.065-5.118a3.092,3.092,0,0,0,5.017,0c3.593.278,4.826,1.214,5.065,5.118C30.266,61.47,14.618,61.47,14.868,57.388Z" transform="translate(243.323 168.536)" fill="#fff" fill-rule="evenodd"/>
    <g id="np_user_2190759_717171-2" data-name="np_user_2190759_717171" transform="translate(240 211.647)">
      <path id="Path_185-3" data-name="Path 185" d="M32.3,13.656c.125,2.211,1.158,5.3,3.774,5.3,2.644,0,3.713-2.922,3.847-5.3.289-5.141-7.911-5.141-7.622,0Z" transform="translate(-28.535 -9.8)" fill="#fff" fill-rule="evenodd"/>
      <path id="Path_186-3" data-name="Path 186" d="M14.868,57.388c.239-3.905,1.473-4.84,5.065-5.118a3.092,3.092,0,0,0,5.017,0c3.593.278,4.826,1.214,5.065,5.118C30.266,61.47,14.618,61.47,14.868,57.388Z" transform="translate(-14.865 -43.111)" fill="#fff" fill-rule="evenodd"/>
    </g>
  </g>
</svg>
