<svg xmlns="http://www.w3.org/2000/svg" width="53.795" height="77.921" viewBox="0 0 53.795 77.921">
  <g id="Group_5860" data-name="Group 5860" transform="translate(-72.451 0.006)">
    <path id="Path_54276" data-name="Path 54276" d="M99.523,129.4a20.2,20.2,0,0,1-13.791-5.414l-7.473-7.057a17.85,17.85,0,0,1-3.731-21.5,15.51,15.51,0,0,0,2.137-10.138c-.575-3-.48-5.946,1.906-8.2,4.162-3.93,11.521-1.964,12.92,3.651.3,1.185.429,2.436.637,3.638L113.691,63.81a7.445,7.445,0,1,1,10.276,10.775L112.605,85.42a7.049,7.049,0,0,1,3.357,8.057,7.646,7.646,0,0,1,4.169,9.824,7.457,7.457,0,0,1,4.488,6.769,7.244,7.244,0,0,1-2.31,5.308l-4.673,4.413-3.658-3.874,4.673-4.413a2.022,2.022,0,0,0-.036-2.927,2.2,2.2,0,0,0-2.937-.031,2.664,2.664,0,0,1-3.658-3.873h0l2.447-2.311a2.467,2.467,0,0,0,.628-2.925,2.239,2.239,0,0,0-3.374-.616,2.664,2.664,0,0,1-3.658-3.873l.009-.008,2.236-2.111a1.655,1.655,0,0,0,.177-2.371,2.2,2.2,0,0,0-3.03-.125,2.664,2.664,0,0,1-3.667-3.865l16.5-15.736a2.117,2.117,0,1,0-2.922-3.064L92.181,91.672a2.705,2.705,0,0,1-4.454-1.482L86.3,81.952a2.567,2.567,0,0,0-4.072-.99c-.886.837-.579,2.424-.3,3.471a20.753,20.753,0,0,1-2.687,13.483,12.574,12.574,0,0,0,2.68,15.135l7.473,7.057a14.977,14.977,0,0,0,15.829,2.827l2.048,4.918A20.132,20.132,0,0,1,99.523,129.4Z" transform="translate(0 -51.481)" fill="#8f24fc"/>
    <path id="Path_54277" data-name="Path 54277" d="M290.946,408.9l-3.215-4.248a13.883,13.883,0,0,0,1.147-.971l1.928-1.821,3.658,3.874-1.928,1.821A19.149,19.149,0,0,1,290.946,408.9Z" transform="translate(-179.438 -334.959)" fill="#8f24fc"/>
    <rect id="Rectangle_2291" data-name="Rectangle 2291" width="12.933" height="5.328" transform="matrix(0.007, -1, 1, 0.007, 91.375, 12.926)" fill="#8f24fc"/>
    <rect id="Rectangle_2292" data-name="Rectangle 2292" width="11.792" height="5.327" transform="matrix(0.707, -0.707, 0.707, 0.707, 98.609, 13.48)" fill="#8f24fc"/>
    <rect id="Rectangle_2293" data-name="Rectangle 2293" width="5.328" height="11.611" transform="matrix(0.705, -0.709, 0.709, 0.705, 77.392, 9.264)" fill="#8f24fc"/>
  </g>
</svg>
