<svg xmlns="http://www.w3.org/2000/svg" width="9.703" height="8.532" viewBox="0 0 9.703 8.532">
  <g id="Group_972" data-name="Group 972" transform="translate(0 0)">
    <path id="Path_1528" data-name="Path 1528" d="M140.043,389.778a2.565,2.565,0,0,0-1.9-.689,2.127,2.127,0,0,0-.685.119,2.813,2.813,0,0,0-.65.322c-.2.136-.372.263-.518.382a4.837,4.837,0,0,0-.411.378,5.068,5.068,0,0,0-.412-.378q-.216-.178-.518-.382a2.813,2.813,0,0,0-.65-.322,2.115,2.115,0,0,0-.685-.119,2.383,2.383,0,0,0-2.588,2.6,2.5,2.5,0,0,0,.127.767,3.389,3.389,0,0,0,.289.672,4.9,4.9,0,0,0,.368.541c.137.177.238.3.3.364a1.693,1.693,0,0,0,.149.144l3.378,3.345a.336.336,0,0,0,.477,0l3.374-3.333a3.671,3.671,0,0,0,1.24-2.5A2.586,2.586,0,0,0,140.043,389.778Z" transform="translate(-131.028 -389.089)" fill="#2a2a2a"/>
  </g>
</svg>
