<svg id="Group_971" data-name="Group 971" xmlns="http://www.w3.org/2000/svg" width="20.612" height="18.263" viewBox="0 0 20.612 18.263">
  <path id="Path_1527" data-name="Path 1527" d="M140.9,377.547a1.209,1.209,0,0,1-.887-.375l-6.771-6.7a3.426,3.426,0,0,1-.312-.3c-.135-.141-.349-.4-.639-.771a10.409,10.409,0,0,1-.782-1.151,7.421,7.421,0,0,1-.632-1.461,5.589,5.589,0,0,1-.283-1.714,5.35,5.35,0,0,1,5.765-5.788,4.83,4.83,0,0,1,1.558.269,6.11,6.11,0,0,1,1.44.714q.628.424,1.08.8c.158.129.312.264.462.4q.226-.208.463-.4.453-.37,1.08-.795a6.077,6.077,0,0,1,1.439-.714,4.868,4.868,0,0,1,1.559-.269,5.35,5.35,0,0,1,5.765,5.788,7.923,7.923,0,0,1-2.651,5.414l-6.775,6.7A1.208,1.208,0,0,1,140.9,377.547Zm-4.54-17.119a4.563,4.563,0,0,0-3.409,1.213,4.612,4.612,0,0,0-1.212,3.43,4.447,4.447,0,0,0,.228,1.364,6.3,6.3,0,0,0,.529,1.234,9.671,9.671,0,0,0,.7,1.024c.259.333.448.561.568.688a2.916,2.916,0,0,0,.246.239L140.9,376.4a.079.079,0,0,0,.07-.029l6.774-6.695a6.835,6.835,0,0,0,2.318-4.607,4.219,4.219,0,0,0-4.621-4.643,3.7,3.7,0,0,0-1.189.207,5,5,0,0,0-1.168.58c-.385.261-.717.5-.994.733a9.776,9.776,0,0,0-.78.715.589.589,0,0,1-.819,0,9.3,9.3,0,0,0-.779-.714c-.277-.23-.61-.473-.994-.734a5.023,5.023,0,0,0-1.168-.58A3.7,3.7,0,0,0,136.359,360.429Z" transform="translate(-130.594 -359.284)" fill="#2a2a2a"/>
</svg>
