<svg xmlns="http://www.w3.org/2000/svg" width="32" height="32" viewBox="0 0 32 32">
  <path id="Subtraction_34" data-name="Subtraction 34" d="M-942-18a15.894,15.894,0,0,1-11.313-4.686A15.9,15.9,0,0,1-958-34a15.9,15.9,0,0,1,4.686-11.314A15.894,15.894,0,0,1-942-50a15.9,15.9,0,0,1,11.314,4.687A15.9,15.9,0,0,1-926-34a15.9,15.9,0,0,1-4.686,11.314A15.9,15.9,0,0,1-942-18Zm-1.691-18.654v11.577h3.787V-36.654Zm1.861-5.328a1.965,1.965,0,0,0-1.445.567,1.993,1.993,0,0,0-.567,1.466,2,2,0,0,0,.567,1.455,1.948,1.948,0,0,0,1.445.577,1.948,1.948,0,0,0,1.444-.577,2,2,0,0,0,.567-1.455,1.993,1.993,0,0,0-.567-1.466A1.965,1.965,0,0,0-941.83-41.982Z" transform="translate(958 50)" fill="#fff"/>
</svg>
