<svg id="np_instagram_304156_000000" xmlns="http://www.w3.org/2000/svg" width="26.85" height="26.85" viewBox="0 0 26.85 26.85">
  <path id="Path_577" data-name="Path 577" d="M27.375,5H9.475A4.469,4.469,0,0,0,5,9.475v17.9A4.469,4.469,0,0,0,9.475,31.85h17.9a4.469,4.469,0,0,0,4.475-4.475V9.475A4.469,4.469,0,0,0,27.375,5Zm1.492,22.375a1.477,1.477,0,0,1-1.492,1.492H9.475a1.477,1.477,0,0,1-1.492-1.492V16.933h4.684a6.233,6.233,0,0,0-.209,1.492,5.967,5.967,0,1,0,11.933,0,5.011,5.011,0,0,0-.209-1.492h4.684Zm-13.425-8.95a2.983,2.983,0,1,1,2.983,2.983A2.992,2.992,0,0,1,15.442,18.425ZM28.867,13.95h-6.5a5.943,5.943,0,0,0-7.875,0h-6.5V9.475A1.477,1.477,0,0,1,9.475,7.983h17.9a1.477,1.477,0,0,1,1.492,1.492Z" transform="translate(-5 -5)" fill="#fff"/>
  <path id="Path_578" data-name="Path 578" d="M70,20h2.983v2.983H70Z" transform="translate(-50.608 -15.525)" fill="#fff"/>
</svg>
