<svg xmlns="http://www.w3.org/2000/svg" width="21.365" height="21.365" viewBox="0 0 21.365 21.365">
  <path class="a" d="M22.8,5H8.561A3.556,3.556,0,0,0,5,8.561V22.8a3.556,3.556,0,0,0,3.561,3.561H22.8A3.556,3.556,0,0,0,26.365,22.8V8.561A3.556,3.556,0,0,0,22.8,5Zm1.187,17.8A1.175,1.175,0,0,1,22.8,23.991H8.561A1.175,1.175,0,0,1,7.374,22.8V14.5H11.1a4.96,4.96,0,0,0-.166,1.187,4.748,4.748,0,0,0,9.5,0,3.987,3.987,0,0,0-.166-1.187h3.727ZM13.309,15.683a2.374,2.374,0,1,1,2.374,2.374A2.381,2.381,0,0,1,13.309,15.683Zm10.683-3.561H18.816a4.729,4.729,0,0,0-6.267,0H7.374V8.561A1.175,1.175,0,0,1,8.561,7.374H22.8a1.175,1.175,0,0,1,1.187,1.187Z" transform="translate(-5 -5)"/>
  <path class="a" d="M70,20h2.374v2.374H70Z" transform="translate(-54.57 -16.439)"/>
</svg>
