<svg id="Group_602" data-name="Group 602" xmlns="http://www.w3.org/2000/svg" width="39.246" height="39.247" viewBox="0 0 39.246 39.247">
  <ellipse id="Ellipse_226" data-name="Ellipse 226" cx="19.623" cy="19.623" rx="19.623" ry="19.623" transform="translate(0 0)" opacity="0.151"/>
  <g id="np_instagram_304156_000000" transform="translate(10.486 10.967)">
    <path id="Path_577" data-name="Path 577" d="M19.643,5H7.929A2.925,2.925,0,0,0,5,7.929V19.644a2.925,2.925,0,0,0,2.929,2.929H19.643a2.925,2.925,0,0,0,2.929-2.929V7.929A2.925,2.925,0,0,0,19.643,5Zm.976,14.644a.967.967,0,0,1-.976.976H7.929a.967.967,0,0,1-.976-.976V12.81h3.065a4.08,4.08,0,0,0-.137.976,3.9,3.9,0,1,0,7.81,0,3.28,3.28,0,0,0-.137-.976h3.065Zm-8.786-5.857a1.952,1.952,0,1,1,1.952,1.952A1.958,1.958,0,0,1,11.834,13.786Zm8.786-2.929H16.363a3.889,3.889,0,0,0-5.154,0H6.952V7.929a.967.967,0,0,1,.976-.976H19.643a.967.967,0,0,1,.976.976Z" transform="translate(-5 -5)" fill="#fff"/>
    <path id="Path_578" data-name="Path 578" d="M70,20h1.952v1.952H70Z" transform="translate(-57.309 -17.071)" fill="#fff"/>
  </g>
</svg>
