<svg xmlns="http://www.w3.org/2000/svg" width="37.227" height="41.906" viewBox="0 0 37.227 41.906">
  <g id="Group_847" data-name="Group 847" transform="translate(-318.773 -35)">
    <path id="np_support_2189005_FFFFFF" d="M40.208,24.689V23.011a12.595,12.595,0,1,0-25.189,0v1.678A2.519,2.519,0,0,0,12.5,27.208v5.038a2.518,2.518,0,0,0,2.519,2.519h.839a1.68,1.68,0,1,0,3.36,0V24.689A1.679,1.679,0,0,0,16.7,23.246v-.235a10.915,10.915,0,1,1,21.829,0v.235a1.679,1.679,0,0,0-2.519,1.444V34.765a1.68,1.68,0,0,0,1.68,1.68,1.536,1.536,0,0,0,.622-.126,5.878,5.878,0,0,1-5.66,4.325H30.132V39.8a2.519,2.519,0,1,0-2.519,2.519h5.038a7.557,7.557,0,0,0,7.557-7.557,2.518,2.518,0,0,0,2.519-2.519V27.208a2.519,2.519,0,0,0-2.519-2.519Z" transform="translate(306.273 34.585)" fill="#fff"/>
    <circle id="Ellipse_278" data-name="Ellipse 278" cx="11" cy="11" r="11" transform="translate(334 35)" fill="#ff9d00"/>
  </g>
</svg>
