<?xml version="1.0" encoding="UTF-8" standalone="no"?>
<svg id="np_devices_940684_FFFFFF" xmlns="http://www.w3.org/2000/svg" width="23.926" height="21.06" viewBox="0 0 23.926 21.06">
  <path id="Path_159" data-name="Path 159" d="M70.305,82.992v.1a1.347,1.347,0,0,0,1.345,1.345h3.678a1.347,1.347,0,0,0,1.345-1.345v-.1Zm3.184,1.226a.534.534,0,1,1,.535-.534A.535.535,0,0,1,73.489,84.218Z" transform="translate(-52.748 -63.372)" fill="#ff9d00"/>
  <path id="Path_160" data-name="Path 160" d="M75.324,48.785H71.645A1.347,1.347,0,0,0,70.3,50.13v.1h6.368v-.1a1.344,1.344,0,0,0-1.344-1.345Zm-.839,1.066h-2a.29.29,0,1,1,0-.58h2a.29.29,0,0,1,0,.58Z" transform="translate(-52.745 -38.589)" fill="#ff9d00"/>
  <path id="Path_161" data-name="Path 161" d="M28.443,13.4v7.992H25.483a1.926,1.926,0,0,0-1.924,1.924v.2H6.583V13.4a1.626,1.626,0,0,1,1.624-1.624H26.82A1.626,1.626,0,0,1,28.443,13.4Z" transform="translate(-6.581 -11.777)" fill="#ff9d00"/>
  <path id="Path_162" data-name="Path 162" d="M70.305,56.117h6.368v6.824H70.305Z" transform="translate(-52.748 -43.901)" fill="#ff9d00"/>
  <path id="Path_163" data-name="Path 163" d="M40.175,71.956H32.719a6.22,6.22,0,0,0,1.447-2.4h4.56a6.265,6.265,0,0,0,1.449,2.4Z" transform="translate(-25.517 -53.637)" fill="#ff9d00"/>
  <path id="Path_164" data-name="Path 164" d="M6.578,56.508V57.9A1.626,1.626,0,0,0,8.2,59.523H23.556V56.508Zm10.931,2.228a.811.811,0,1,1,.811-.811A.811.811,0,0,1,17.509,58.736Z" transform="translate(-6.578 -44.185)" fill="#ff9d00"/>
</svg>
