<svg xmlns="http://www.w3.org/2000/svg" width="23.918" height="24.426" viewBox="0 0 23.918 24.426" fill="#ff790a">
  <path id="np_brand_684985_FFFFFF" d="M12.3,4.193l-.577-.243h0A1.588,1.588,0,0,0,9.578,4.984l-.171.6A1.591,1.591,0,0,1,7.955,6.721l-.626.031A1.59,1.59,0,0,0,5.814,8.336a1.65,1.65,0,0,0,.023.274l.106.615h0a1.589,1.589,0,0,1-.809,1.669l-.558.308a1.59,1.59,0,0,0-.537,2.326l.365.517h0a1.589,1.589,0,0,1,0,1.856l-.368.517h0a1.589,1.589,0,0,0,.517,2.326l.548.3a1.589,1.589,0,0,1,.8,1.672l-.111.615h0a1.547,1.547,0,0,0-.025.282A1.59,1.59,0,0,0,7.272,23.2l.626.033a1.59,1.59,0,0,1,1.447,1.161l.168.6h0a1.588,1.588,0,0,0,2.145,1.034l.577-.24a1.59,1.59,0,0,1,1.809.419l.414.471a1.59,1.59,0,0,0,2.383,0l.416-.467h0a1.59,1.59,0,0,1,1.809-.408l.577.243a1.59,1.59,0,0,0,2.151-1.034l.171-.6h0a1.59,1.59,0,0,1,1.463-1.145l.626-.028a1.589,1.589,0,0,0,1.491-1.859l-.106-.615a1.59,1.59,0,0,1,.809-1.67l.558-.31a1.59,1.59,0,0,0,.537-2.326l-.365-.517h0a1.589,1.589,0,0,1,0-1.856l.368-.517h0a1.589,1.589,0,0,0-.517-2.326l-.548-.3a1.589,1.589,0,0,1-.8-1.672l.111-.615h0a1.642,1.642,0,0,0,.025-.282A1.59,1.59,0,0,0,24.11,6.785l-.638-.013a1.59,1.59,0,0,1-1.448-1.16l-.168-.6h0a1.591,1.591,0,0,0-2.146-1.034l-.577.24A1.589,1.589,0,0,1,17.325,3.8l-.414-.471a1.588,1.588,0,0,0-2.383,0l-.414.457a1.589,1.589,0,0,1-1.809.408Zm3.216,7.646.174.174.171-.171h0a3.107,3.107,0,0,1,4.394,4.394l-4.229,4.216a.474.474,0,0,1-.669,0l-4.226-4.227a3.107,3.107,0,0,1,4.394-4.394Z" transform="translate(-3.732 -2.789)" />
</svg>
