<svg xmlns="http://www.w3.org/2000/svg" width="45.225" height="38.035" viewBox="0 0 45.225 38.035">
  <path d="M59.852,39.844a5.212,5.212,0,0,1-10.424,0q0-.228.02-.453a5.34,5.34,0,0,1,1.179-2.872h0a5.212,5.212,0,0,1,9.225,3.325ZM50.31,46.211c-.1.06-.205.126-.307.19s-.211.128-.313.2-.193.142-.289.213-.2.146-.3.223-.178.155-.267.233-.19.163-.281.25-.163.167-.244.251-.179.18-.263.276-.147.178-.22.267-.166.2-.244.3-.13.187-.194.281-.152.214-.221.325c-.06.095-.113.2-.169.295-.066.115-.135.229-.2.347,0,.009-.01.017-.014.026-.019-.038-.043-.074-.063-.112-.061-.117-.126-.231-.193-.346-.047-.077-.09-.155-.138-.231-.072-.115-.147-.226-.225-.338-.047-.071-.095-.142-.147-.212-.087-.118-.18-.233-.273-.347-.047-.058-.092-.118-.142-.175-.145-.168-.295-.332-.453-.49-.2-.2-.4-.379-.612-.556-.069-.057-.142-.108-.211-.163-.146-.114-.292-.226-.444-.332-.086-.059-.175-.112-.262-.168-.142-.091-.285-.178-.433-.26-.095-.053-.19-.1-.287-.151-.078-.039-.153-.084-.232-.121.054-.033.1-.07.157-.1l.12-.08c.164-.113.323-.231.477-.357.024-.02.047-.041.071-.061q.2-.172.395-.359l.095-.092q.209-.212.4-.441c.025-.029.047-.06.072-.09q.166-.2.316-.422c.022-.032.047-.063.067-.095q.166-.249.311-.511c.021-.038.041-.077.062-.116q.125-.237.233-.484c.013-.029.027-.058.04-.088.078-.186.147-.377.209-.569l.042-.137c.055-.182.1-.367.142-.555,0-.02.01-.039.014-.06.041-.2.072-.411.095-.62.006-.05.01-.1.015-.151.019-.213.033-.427.033-.646,0-.185-.01-.37-.024-.554,0-.053-.01-.105-.015-.158q-.021-.212-.055-.421c-.008-.047-.014-.095-.022-.142-.033-.179-.071-.357-.118-.533-.009-.033-.019-.065-.028-.1q-.061-.219-.135-.433-.027-.077-.055-.153-.079-.212-.172-.418c-.014-.031-.027-.063-.041-.095-.068-.146-.139-.289-.217-.43a7.019,7.019,0,0,1,3.255,0c-.077.142-.149.285-.216.427-.016.034-.029.068-.044.1q-.091.2-.168.411-.029.078-.056.156-.074.212-.134.427c-.009.033-.02.066-.029.1-.047.175-.085.353-.117.532-.009.047-.015.095-.022.142q-.034.21-.055.421c-.005.053-.011.105-.015.158-.014.184-.024.368-.024.554,0,.218.013.433.033.646,0,.051.009.1.015.152.024.209.054.416.095.62,0,.019.009.037.013.056.04.19.089.374.142.558.014.047.028.095.042.139.062.193.131.384.209.569.012.028.026.056.038.084q.108.248.234.484c.021.04.042.081.064.121q.145.262.311.511c.021.031.044.062.065.095q.149.216.314.42c.026.032.051.064.077.095q.19.229.4.441c.029.03.06.058.09.088q.19.185.391.356c.026.022.051.047.078.067q.232.19.48.359c.037.025.074.047.11.073.059.039.117.08.177.117-.095.044-.183.095-.275.142C50.528,46.1,50.417,46.15,50.31,46.211ZM46.787,23.9a5.211,5.211,0,1,1-5.211,5.211A5.211,5.211,0,0,1,46.787,23.9ZM42.945,36.518a5.212,5.212,0,1,1-9.225,3.326q0-.228.02-.453a5.212,5.212,0,0,1,9.205-2.872ZM34.6,46.21c-.1.057-.2.121-.3.182s-.22.133-.326.206-.182.133-.272.2-.212.154-.314.237c-.085.069-.166.142-.248.216-.1.088-.2.175-.3.267-.077.074-.149.154-.224.23-.095.1-.192.194-.285.3-.07.079-.135.163-.2.245-.088.107-.178.212-.261.322-.063.084-.12.174-.181.261-.079.114-.16.227-.234.345-.057.091-.107.187-.161.28-.069.12-.142.237-.2.361,0,.009-.01.017-.014.025-.02-.041-.047-.079-.066-.12-.059-.112-.121-.222-.184-.332l-.142-.242c-.07-.112-.142-.221-.219-.33-.05-.073-.1-.147-.152-.218-.086-.118-.178-.231-.271-.345-.047-.058-.095-.119-.142-.176-.142-.168-.295-.332-.452-.491-.2-.2-.4-.379-.613-.556-.068-.057-.142-.108-.211-.162-.146-.114-.293-.226-.444-.332-.086-.059-.175-.113-.263-.168-.142-.09-.285-.178-.433-.259-.095-.053-.19-.1-.285-.15-.078-.039-.153-.084-.231-.121.055-.034.106-.071.159-.106s.08-.052.119-.079c.165-.113.324-.232.479-.358.024-.019.047-.04.07-.06q.205-.173.4-.36c.03-.03.062-.059.092-.09q.21-.213.4-.442c.024-.028.047-.058.07-.087q.167-.207.319-.427c.021-.031.043-.06.064-.092q.167-.25.313-.514c.02-.037.039-.075.059-.112q.127-.24.237-.49c.012-.028.026-.055.037-.083.078-.187.147-.379.21-.573.014-.045.027-.089.041-.134.055-.184.1-.37.142-.56,0-.019.009-.037.013-.056.041-.2.072-.411.095-.621.006-.05.01-.1.015-.151.019-.213.033-.427.033-.646,0-.185-.01-.37-.024-.554,0-.053-.01-.105-.015-.158q-.021-.212-.055-.421c-.008-.047-.014-.095-.023-.142-.033-.179-.071-.357-.118-.532-.009-.033-.019-.065-.029-.1q-.061-.218-.135-.431-.027-.078-.056-.155-.078-.21-.17-.414c-.015-.033-.028-.066-.043-.1-.067-.145-.139-.288-.216-.427a7.019,7.019,0,0,1,3.255,0c-.078.142-.149.285-.217.43-.015.031-.027.064-.041.095q-.092.206-.171.417-.028.076-.055.154-.074.213-.135.431c-.009.033-.02.065-.029.1-.047.175-.085.353-.118.533-.009.047-.015.095-.022.142q-.034.21-.055.421c-.005.053-.011.105-.015.158-.014.184-.024.368-.024.554,0,.218.013.433.033.646,0,.051.009.1.015.152.024.21.054.417.095.62,0,.018.009.036.013.055.04.19.089.376.142.559.014.047.027.092.042.138.063.194.131.385.21.571.012.028.025.055.037.082q.108.249.237.488c.021.039.041.079.063.118q.146.263.312.513c.02.03.042.06.064.09q.151.218.317.423c.025.031.047.063.075.095q.19.23.4.442c.029.029.059.058.089.087q.19.186.393.358c.026.022.05.045.076.065.155.127.315.246.48.359.037.026.074.047.112.074.058.038.115.079.175.116-.095.044-.181.095-.272.142-.11.057-.222.111-.332.174ZM31.078,23.9a5.211,5.211,0,1,1-5.211,5.211A5.211,5.211,0,0,1,31.078,23.9ZM18.013,39.844a5.212,5.212,0,1,1,5.212,5.212A5.212,5.212,0,0,1,18.013,39.844ZM16.32,53.858a6.905,6.905,0,0,1,11.787-4.885q.175.175.336.362a6.931,6.931,0,0,1,1.688,4.523v8.078H16.32Zm15.707,0a6.905,6.905,0,0,1,11.79-4.883q.175.175.337.361a6.938,6.938,0,0,1,1.686,4.522v8.078H32.027Zm29.518,8.077H47.735V53.858a6.905,6.905,0,1,1,13.81,0Z" transform="translate(-16.32 -23.9)" style="fill:#a2d"/>
</svg>
