<svg xmlns="http://www.w3.org/2000/svg" width="23.042" height="23.028" viewBox="0 0 23.042 23.028">
  <path
    stroke="#0000"
    id="Path_54284"
    data-name="Path 54284"
    d="M25.97,20.128a1.883,1.883,0,0,0-.957-1.192L20.1,16.391a1.871,1.871,0,0,0-2.383.544l-.794,1.088a.286.286,0,0,1-.369.083,14.419,14.419,0,0,1-3.178-2.451,14.423,14.423,0,0,1-2.451-3.178.286.286,0,0,1,.083-.369l1.084-.794a1.871,1.871,0,0,0,.544-2.383l-2.53-4.91a1.879,1.879,0,0,0-2.709-.7L4.31,5.388A2.971,2.971,0,0,0,2.991,8.045a14.951,14.951,0,0,0,.354,2.61,21.316,21.316,0,0,0,5.668,9.37,21.154,21.154,0,0,0,9.37,5.656,14.963,14.963,0,0,0,2.61.354h.2a2.971,2.971,0,0,0,2.455-1.307L25.7,21.642A1.879,1.879,0,0,0,25.97,20.128Zm-1.589.628-2.046,3.09a1.39,1.39,0,0,1-1.239.608,13.732,13.732,0,0,1-2.316-.306,19.6,19.6,0,0,1-8.639-5.255A19.763,19.763,0,0,1,4.89,10.254a13.72,13.72,0,0,1-.31-2.316A1.378,1.378,0,0,1,5.188,6.7L8.274,4.645A.282.282,0,0,1,8.433,4.6h.075a.286.286,0,0,1,.183.147l2.542,4.914a.29.29,0,0,1-.083.365l-1.084.794a1.875,1.875,0,0,0-.508,2.435,16.1,16.1,0,0,0,2.7,3.5,16.1,16.1,0,0,0,3.5,2.7,1.875,1.875,0,0,0,2.435-.508l.794-1.088a.29.29,0,0,1,.365-.083l4.914,2.542a.29.29,0,0,1,.107.417Z"
    transform="translate(-2.986 -3.007)" />
</svg>
