<svg xmlns="http://www.w3.org/2000/svg" width="468.735" height="258.114" viewBox="0 0 468.735 258.114">
  <g id="Group_5832" data-name="Group 5832" transform="translate(9.927 -37.5)">
    <g id="Group_5823" data-name="Group 5823" transform="translate(-9.927 37.5)">
      <path id="Path_54150" data-name="Path 54150" d="M422.887,233.908h.91a35.241,35.241,0,0,1,35.138,35.139h0A35.241,35.241,0,0,1,423.8,304.185H109.424a57.067,57.067,0,0,1-56.9-56.9h0a57.067,57.067,0,0,1,56.9-56.9h0a24.128,24.128,0,0,0,24.058-24.058h0a24.129,24.129,0,0,0-24.059-24.058H80.47a25.086,25.086,0,0,1-25.013-25.013h0A25.086,25.086,0,0,1,80.47,92.245h67.689a9.766,9.766,0,0,0,9.737-9.738h0a9.766,9.766,0,0,0-9.737-9.738H141.7a6.741,6.741,0,0,1-6.721-6.721h0a6.741,6.741,0,0,1,6.721-6.721h25.983c8.92,0,9.913,10.537,32.443,10.537h87.8a8.8,8.8,0,0,1,8.769,8.769h0a8.8,8.8,0,0,1-8.769,8.77h-8.422A12.745,12.745,0,0,0,266.8,100.111h0a12.744,12.744,0,0,0,12.706,12.706h12.674c34.225,0,39.06,8.945,45.054,26.734s37.126,19.224,37.126,19.224h19.256a19.206,19.206,0,0,1,19.149,19.149h0a19.206,19.206,0,0,1-19.149,19.149h-5.729A18.472,18.472,0,0,0,369.47,215.49h0a18.472,18.472,0,0,0,18.419,18.418Zm-1.99-55.985ZM122.845,72.769a6.721,6.721,0,1,0-6.72-6.721A6.721,6.721,0,0,0,122.845,72.769Z" transform="translate(-52.525 -46.071)" fill="#4ca2e0" fill-rule="evenodd"/>
      <g id="Group_5797" data-name="Group 5797" transform="translate(188.428 2.663)">
        <path id="Path_54151" data-name="Path 54151" d="M295.215,171.664a80.978,80.978,0,0,0,34.72-11.612c18.194-11.282-18.675-9.415-49.119-1.323l10.857,10.979Z" transform="translate(-265.408 -85.173)" fill="#0e2d34" fill-rule="evenodd"/>
        <g id="Group_5794" data-name="Group 5794" transform="translate(4.013 36.334)">
          <path id="Path_54152" data-name="Path 54152" d="M319.5,130.088c-6.252,5.245-22.375,15.471-38.08,26.455l-16.787,5.363-2.577-10.23c12.635-17.722,29.142-35.648,43.109-44.439C329.666,91.814,341.436,111.679,319.5,130.088Z" transform="translate(-262.053 -101.712)" fill="#1b7154" fill-rule="evenodd"/>
          <path id="Path_54153" data-name="Path 54153" d="M266.087,166.883c20.745-28.922,57.895-51.049,58.03-51.13a.516.516,0,0,1,.735.215.615.615,0,0,1-.226.793c-.134.08-36.689,21.855-57.318,50.279l-1.094.349Z" transform="translate(-263.637 -107.195)" fill="#0e2d34" fill-rule="evenodd"/>
        </g>
        <g id="Group_5795" data-name="Group 5795" transform="translate(11.853 5.565)">
          <path id="Path_54154" data-name="Path 54154" d="M289.85,69.425c-3.341,7.858-8.689,26.464-14.888,45.678a36.391,36.391,0,0,0,13.15,20.055c12.821-17.765,24.314-38.357,28.9-54.781C325.991,48.229,302.567,39.507,289.85,69.425Z" transform="translate(-274.962 -51.049)" fill="#a6c86b" fill-rule="evenodd"/>
          <path id="Path_54155" data-name="Path 54155" d="M285.056,134.365c18.277-30.131,27.735-67.26,27.775-67.415a.652.652,0,0,0-.42-.8.6.6,0,0,0-.744.456c-.039.154-9.391,36.853-27.392,66.7Q284.658,133.844,285.056,134.365Z" transform="translate(-278.619 -56.971)" fill="#5f9850" fill-rule="evenodd"/>
        </g>
        <g id="Group_5796" data-name="Group 5796">
          <path id="Path_54156" data-name="Path 54156" d="M283.724,66.193c-.563,8.141-4.395,26.845-7.389,45.774l-7.792,15.807-9.154-5.246c-3.986-21.4-5.432-45.722-2.065-61.878C263.232,32.306,285.7,37.622,283.724,66.193Z" transform="translate(-255.446 -41.885)" fill="#1b7154" fill-rule="evenodd"/>
          <path id="Path_54157" data-name="Path 54157" d="M274.862,132.662c-6.419-35.009,3.439-77.109,3.475-77.263a.515.515,0,0,1,.665-.38.614.614,0,0,1,.414.712c-.035.152-9.734,41.581-3.593,76.161l-.508,1.03Z" transform="translate(-262.218 -47.032)" fill="#0e2d34" fill-rule="evenodd"/>
        </g>
      </g>
      <g id="Group_5802" data-name="Group 5802" transform="translate(175.652 131.841)">
        <g id="Group_5798" data-name="Group 5798" transform="translate(5.823 74.967)">
          <path id="Path_54158" data-name="Path 54158" d="M322.172,414.114c-6.339,3.53-19.183,8.91-33.943,15.214H244.1l-.1-1.844c20.363-19.4,45.689-38.124,65.561-45.871C344.422,368.025,354.51,396.11,322.172,414.114Z" transform="translate(-243.998 -378.023)" fill="#1b7154" fill-rule="evenodd"/>
          <path id="Path_54159" data-name="Path 54159" d="M266.739,436.853c32.464-24.933,72.886-39.562,73.055-39.624a.666.666,0,0,1,.881.452.793.793,0,0,1-.48.951c-.164.061-39.181,14.18-71.139,38.221Z" transform="translate(-252.928 -385.548)" fill="#0e2d34" fill-rule="evenodd"/>
        </g>
        <path id="Path_54160" data-name="Path 54160" d="M365.652,459.1c-4.259-5.764-23.129-8.153-50.424,0h50.424Z" transform="translate(-266.145 -332.829)" fill="#0e2d34" fill-rule="evenodd"/>
        <g id="Group_5799" data-name="Group 5799" transform="translate(9.294 54.675)">
          <path id="Path_54161" data-name="Path 54161" d="M292.6,407.912c7.247-6.091,14.689-13.956,19.676-23.406,12.865-24.379,16.864-32.061,23.135-34.12,5.415-1.778-41.415-21.949-85.7,25.4,1.546,10.857,7.5,22.509,22.528,32.124Z" transform="translate(-249.712 -344.61)" fill="#4a9075" fill-rule="evenodd"/>
          <path id="Path_54162" data-name="Path 54162" d="M334.269,347.8c-25.465,9.322-50.9,28.791-71.7,48.061q.544.731,1.134,1.456c21.314-19.762,47.5-39.717,73.5-48.542C336.356,348.442,335.374,348.112,334.269,347.8Z" transform="translate(-254.761 -345.862)" fill="#1b7154" fill-rule="evenodd"/>
        </g>
        <g id="Group_5800" data-name="Group 5800">
          <path id="Path_54163" data-name="Path 54163" d="M278.541,271.111c-7.484,7.5-20.9,24.33-36.262,43.087,0,.005-15.625,25.049-2.84,48.36,27.97-17.747,55.578-40.113,71.259-60.545C341.644,261.691,313.5,236.065,278.541,271.111Z" transform="translate(-234.41 -254.585)" fill="#a6c86b" fill-rule="evenodd"/>
          <path id="Path_54164" data-name="Path 54164" d="M234.893,357.507c42.136-32.143,75.677-77.981,75.82-78.174a1,1,0,0,0-.14-1.365.92.92,0,0,0-1.311.222c-.141.191-33.14,45.286-74.6,77.168C234.722,356.071,234.8,356.787,234.893,357.507Z" transform="translate(-234.509 -263.694)" fill="#5f9850" fill-rule="evenodd"/>
        </g>
        <g id="Group_5801" data-name="Group 5801" transform="translate(20.927 97.953)">
          <path id="Path_54165" data-name="Path 54165" d="M268.867,442.83a107.6,107.6,0,0,1,20.616-19.216c20.22-14.03,40.312-6.156,42.231,1.436.783,3.1.088,10.4-3.477,19.14H270.914Q269.861,443.517,268.867,442.83Z" transform="translate(-268.867 -415.871)" fill="#a6c86b" fill-rule="evenodd"/>
          <path id="Path_54166" data-name="Path 54166" d="M293.348,445.838c1.8-4.5,5.037-12.215,7.681-16.4.226-.357.589-.489.811-.292a.822.822,0,0,1-.007,1c-2.494,3.941-5.569,11.225-7.358,15.687Zm2.48,0h4.644q2.257-1.347,4.617-2.646c.66.531,1.734,1.427,3.052,2.646h2.182c-1.536-1.5-2.862-2.658-3.789-3.431a133.66,133.66,0,0,1,17.358-7.789,23.533,23.533,0,0,1,7.386,6.543c.179.255.535.2.8-.114a.933.933,0,0,0,.149-1.038,23.73,23.73,0,0,0-6.461-6.055,116.294,116.294,0,0,1,12.17-3.491,1.961,1.961,0,0,0,1.276-1.714c.075-.8-.375-1.342-1.005-1.2a123.929,123.929,0,0,0-24.162,8.29,97.938,97.938,0,0,1,8.6-14.608.9.9,0,0,0,.1-1.031c-.2-.235-.556-.155-.806.179a102.06,102.06,0,0,0-9.384,16.155A150.323,150.323,0,0,0,295.828,445.838Z" transform="translate(-278.48 -417.519)" fill="#5f9850" fill-rule="evenodd"/>
        </g>
      </g>
      <g id="Group_5805" data-name="Group 5805" transform="translate(365.644 205.403)">
        <g id="Group_5803" data-name="Group 5803" transform="translate(0 19.29)">
          <rect id="Rectangle_2232" data-name="Rectangle 2232" width="32.315" height="33.42" transform="translate(18.708)" fill="#f8b243"/>
          <rect id="Rectangle_2233" data-name="Rectangle 2233" width="24.236" height="33.42" fill="#c48137"/>
          <rect id="Rectangle_2234" data-name="Rectangle 2234" width="5.017" height="11.65" transform="translate(9.609)" fill="#f8b243"/>
          <rect id="Rectangle_2235" data-name="Rectangle 2235" width="5.017" height="5.06" transform="translate(9.609 15.583)" fill="#f8b243"/>
        </g>
        <g id="Group_5804" data-name="Group 5804" transform="translate(10.787)">
          <rect id="Rectangle_2236" data-name="Rectangle 2236" width="18.652" height="19.29" fill="#f8b243"/>
          <rect id="Rectangle_2237" data-name="Rectangle 2237" width="13.989" height="19.29" transform="translate(15.461)" fill="#c48137"/>
          <rect id="Rectangle_2238" data-name="Rectangle 2238" width="2.896" height="6.724" transform="translate(21.007 0.001)" fill="#f8b243"/>
          <rect id="Rectangle_2239" data-name="Rectangle 2239" width="2.896" height="2.921" transform="translate(21.007 8.995)" fill="#f8b243"/>
        </g>
      </g>
      <g id="Group_5807" data-name="Group 5807" transform="translate(256.831 181.57)">
        <path id="Path_54169" data-name="Path 54169" d="M392.717,359.256a.751.751,0,0,1-1.5-.077c.6-11.651,3.28-18.327,6.469-21.1a5.836,5.836,0,0,1,4.482-1.584,6.935,6.935,0,0,1,4.241,2.274c3.209,3.326,5.485,10.228,4.806,19.231a.752.752,0,1,1-1.5-.112c.645-8.548-1.438-15.019-4.388-18.077a5.471,5.471,0,0,0-3.305-1.821,4.39,4.39,0,0,0-3.346,1.225C395.756,341.752,393.292,348.067,392.717,359.256Z" transform="translate(-377.162 -336.466)" fill="#00000f" fill-rule="evenodd"/>
        <path id="Path_54170" data-name="Path 54170" d="M372.854,370.221s-.982.067-1.218,1.489-3.519,51.779-3.519,51.779-.711,2.775,3.79,2.775h40.547c4.5,0,3.79-2.775,3.79-2.775s-3.283-50.358-3.519-51.779-1.219-1.489-1.219-1.489Z" transform="translate(-368.076 -349.721)" fill="#f18a00" fill-rule="evenodd"/>
        <path id="Path_54171" data-name="Path 54171" d="M381.864,370.221s-.981.067-1.219,1.489-3.519,51.779-3.519,51.779-.711,2.775,3.791,2.775h40.546c4.5,0,3.79-2.775,3.79-2.775s-3.283-50.358-3.519-51.779-1.218-1.489-1.218-1.489Z" transform="translate(-371.613 -349.721)" fill="#fcc100" fill-rule="evenodd"/>
        <path id="Path_54172" data-name="Path 54172" d="M413.641,439.013h21.212c4.5,0,3.79-2.775,3.79-2.775s-1.215-18.632-2.22-33.55H414.282s-.637.044-.79.965-2.281,33.561-2.281,33.561S410.754,439,413.641,439.013Z" transform="translate(-385.003 -362.47)" fill="#f18a00" fill-rule="evenodd"/>
        <path id="Path_54173" data-name="Path 54173" d="M423.616,360.994a.751.751,0,0,1-1.5.029c-.25-11.277-2.379-17.649-5.077-20.257a4.01,4.01,0,0,0-3.244-1.292A5.715,5.715,0,0,0,410.4,341.4c-3.207,3.345-5.659,10.512-5.24,19.765a.751.751,0,1,1-1.5.064c-.439-9.687,2.2-17.272,5.658-20.872a7.161,7.161,0,0,1,4.321-2.381,5.442,5.442,0,0,1,4.439,1.7C421.032,342.537,423.355,349.268,423.616,360.994Z" transform="translate(-382.031 -337.049)" fill="#101537" fill-rule="evenodd"/>
        <path id="Path_54174" data-name="Path 54174" d="M449.823,395.151a.535.535,0,0,0,1.068-.055c-.426-8.3-2.336-13.055-4.607-15.031a4.159,4.159,0,0,0-3.193-1.128,4.943,4.943,0,0,0-3.02,1.619c-2.285,2.37-3.907,7.286-3.423,13.7a.536.536,0,0,0,1.069-.079c-.46-6.089,1.024-10.7,3.125-12.877A3.9,3.9,0,0,1,443.2,380a3.126,3.126,0,0,1,2.384.873C447.659,382.683,449.414,387.181,449.823,395.151Z" transform="translate(-394.969 -353.136)" fill="#00000f" fill-rule="evenodd"/>
        <path id="Path_54175" data-name="Path 54175" d="M450.262,404s.622.043.772.944,2.232,32.828,2.232,32.828.45,1.759-2.4,1.759H425.156c-2.853,0-2.4-1.759-2.4-1.759s2.081-31.927,2.231-32.828.773-.944.773-.944Z" transform="translate(-389.536 -362.983)" fill="#b83470" fill-rule="evenodd"/>
        <path id="Path_54176" data-name="Path 54176" d="M444.55,404s.623.043.773.944,2.231,32.828,2.231,32.828.451,1.759-2.4,1.759H419.445c-2.854,0-2.4-1.759-2.4-1.759s2.081-31.927,2.231-32.828.773-.944.773-.944Z" transform="translate(-387.293 -362.983)" fill="#e94d90" fill-rule="evenodd"/>
        <path id="Path_54177" data-name="Path 54177" d="M427.869,396.388a.535.535,0,0,0,1.069.021c.178-8.033,1.694-12.571,3.616-14.429a2.858,2.858,0,0,1,2.311-.919,4.066,4.066,0,0,1,2.416,1.373c2.285,2.382,4.031,7.488,3.732,14.079a.535.535,0,1,0,1.068.046c.313-6.9-1.57-12.3-4.029-14.866a5.1,5.1,0,0,0-3.079-1.7,3.873,3.873,0,0,0-3.162,1.213C429.709,383.241,428.054,388.037,427.869,396.388Z" transform="translate(-391.555 -353.551)" fill="#101537" fill-rule="evenodd"/>
      </g>
      <g id="Group_5808" data-name="Group 5808" transform="translate(339.015 27.803)">
        <path id="Path_54178" data-name="Path 54178" d="M545.981,83.28H508.364a4.983,4.983,0,0,0-4.968,4.968v35.044a.555.555,0,0,0,.947.392l8.466-8.466h33.173a4.982,4.982,0,0,0,4.967-4.968v-22A4.982,4.982,0,0,0,545.981,83.28Z" transform="translate(-503.396 -83.28)" fill="#e94d90" fill-rule="evenodd"/>
        <path id="Path_54179" data-name="Path 54179" d="M528.022,95.038h17.47a.511.511,0,0,1-.027.1l-.024.073h0l-.139.373-.008.022-.454,1.219h-3.792a.609.609,0,1,0,0,1.219h3.339l-.729,1.96h-8.377a.61.61,0,1,0,0,1.219H543.2l-.392,1.052,0,.01,0,.008a1.207,1.207,0,0,1-.416.5.99.99,0,0,1-.549.213H531.668a.99.99,0,0,1-.55-.213,1.192,1.192,0,0,1-.423-.523l-.391-1.052h2.9a.61.61,0,0,0,0-1.219H529.85l-.729-1.96h7.411a.609.609,0,0,0,0-1.219h-7.864l-.628-1.688a.458.458,0,0,1-.025-.1Zm10.385,1.787a.609.609,0,1,0,0,1.219h.807a.609.609,0,1,0,0-1.219Zm-8.566,11.162a3.214,3.214,0,1,0,5.8,0H539.1a3.214,3.214,0,1,0,5.172-.884l-.009-.009a3.233,3.233,0,0,0-1.042-.694l1.289-3.464.01-.025.819-2.2.008-.022L547,96.242l.008-.022.139-.374v0l.03-.071c.015-.04.029-.08.041-.12l1.413-3.8h2.942a.915.915,0,1,0,0-1.829H548v0a.914.914,0,0,0-.854.593l-1,2.7a2.032,2.032,0,0,0-.66-.107H528.022a2.007,2.007,0,0,0-.7.126,1.705,1.705,0,0,0-.839.658,1.8,1.8,0,0,0-.3,1,2.252,2.252,0,0,0,.149.779l2.656,7.139a3.04,3.04,0,0,0,1.059,1.358,2.821,2.821,0,0,0,1.622.57h10.191l-.491,1.319h-11.9a.915.915,0,0,0,0,1.829Zm1.92.406a1.38,1.38,0,0,1,.961-.406h.036a1.377,1.377,0,0,1,.961.4l0,0a1.389,1.389,0,0,1,0,1.959v0a1.387,1.387,0,0,1-1.995-1.927l.036-.035Zm9.26,0a1.383,1.383,0,0,1,.961-.406H542a1.379,1.379,0,0,1,.98.4l0,0a1.389,1.389,0,0,1,0,1.959v0a1.387,1.387,0,0,1-1.995-1.927Z" transform="translate(-512.343 -85.928)" fill="#fff" fill-rule="evenodd"/>
      </g>
      <path id="Path_54180" data-name="Path 54180" d="M434.684,285.818h-16.8a2.96,2.96,0,0,0-2.095.872l0,0a2.958,2.958,0,0,0-.871,2.094l0,17.179c-.018.494.05.771.609.969.9.388.917.069,1.209-.482l.029-.059a10.86,10.86,0,0,1,2.753-3.19,4.788,4.788,0,0,1,2.82-1.03h1.3v1.1a2.456,2.456,0,0,0,2.451,2.452h9.178a3.324,3.324,0,0,1,1.952.717,7.739,7.739,0,0,1,1.943,2.231l.044.086c.285.561.51.788,1.241.474a.77.77,0,0,0,.578-.938c.121-4.15,0-8.608,0-12.764a2.456,2.456,0,0,0-2.451-2.451h-.922v-4.3a2.981,2.981,0,0,0-2.969-2.969ZM420.241,296.47h-1.008a.571.571,0,1,1,0-1.142h1.008a.571.571,0,1,1,0,1.142Zm2.164-1.142h9.286a.571.571,0,1,1,0,1.142H422.4a.571.571,0,1,1,0-1.142Zm9.915-4.412h1.008a.572.572,0,1,1,0,1.144h-1.008a.572.572,0,0,1,0-1.144Zm-2.163,1.144H419.232a.572.572,0,0,1,0-1.144h10.923a.572.572,0,0,1,0,1.144Zm-4.613,10.116h9.141a2.973,2.973,0,0,0,2.969-2.969V294.99h.922a.543.543,0,0,1,.385.158.558.558,0,0,1,.161.388v10.038a7.546,7.546,0,0,0-.779-.661,5.171,5.171,0,0,0-3.075-1.09h-9.178a.551.551,0,0,1-.545-.546v-1.1Zm-7.663-14.451h16.8a1.07,1.07,0,0,1,1.063,1.063v10.419a1.069,1.069,0,0,1-1.063,1.064H422.333a6.644,6.644,0,0,0-3.945,1.4,10.657,10.657,0,0,0-1.572,1.436v-14.32a1.063,1.063,0,0,1,1.064-1.063Z" transform="translate(-129.635 -135.008)" fill="#fff" fill-rule="evenodd"/>
      <path id="Rectangle_2241" data-name="Rectangle 2241" d="M1.156,0H9.048A1.156,1.156,0,0,1,10.2,1.156v8.4a1.156,1.156,0,0,1-1.156,1.156H1.157A1.157,1.157,0,0,1,0,9.56v-8.4A1.156,1.156,0,0,1,1.156,0Z" transform="translate(378.987 83.228)" fill="#fff"/>
      <g id="Group_5809" data-name="Group 5809" transform="translate(393.07 83.997)">
        <path id="Path_54181" data-name="Path 54181" d="M592.994,175.807h37.29a.594.594,0,0,1,.592.592h0a.594.594,0,0,1-.592.593h-37.29a.594.594,0,0,1-.592-.593h0A.594.594,0,0,1,592.994,175.807Z" transform="translate(-592.402 -175.807)" fill="#fff" fill-rule="evenodd"/>
        <path id="Path_54182" data-name="Path 54182" d="M592.994,182.387h37.29a.594.594,0,0,1,.592.593h0a.594.594,0,0,1-.592.592h-37.29a.594.594,0,0,1-.592-.592h0A.594.594,0,0,1,592.994,182.387Z" transform="translate(-592.402 -178.391)" fill="#fff" fill-rule="evenodd"/>
        <path id="Path_54183" data-name="Path 54183" d="M592.995,188.968h16.627a.594.594,0,0,1,.592.592h0a.593.593,0,0,1-.592.592H592.995a.594.594,0,0,1-.593-.592h0A.594.594,0,0,1,592.995,188.968Z" transform="translate(-592.402 -180.975)" fill="#fff" fill-rule="evenodd"/>
      </g>
      <g id="Group_5810" data-name="Group 5810" transform="translate(421.388 203.835)">
        <path id="Path_54184" data-name="Path 54184" d="M658.5,373.126a19.468,19.468,0,1,0,13.764,5.7,19.408,19.408,0,0,0-13.764-5.7Zm-12.656,6.812a17.9,17.9,0,1,1-5.242,12.655A17.842,17.842,0,0,1,645.839,379.938Z" transform="translate(-639.028 -373.126)" fill="#9fb2d9" fill-rule="evenodd"/>
        <path id="Path_54185" data-name="Path 54185" d="M643.96,394.12a.294.294,0,0,0,0,.589h1.453a.294.294,0,1,0,0-.589Zm27.285,10.807a.294.294,0,0,0-.415.417l.661.661a.294.294,0,1,0,.416-.417l-.661-.661Zm-22.1-22.1a.294.294,0,1,0-.416.416l.661.661a.294.294,0,0,0,.415-.416l-.661-.661Zm11.468,26.493a.294.294,0,1,0-.588,0v1.452a.294.294,0,1,0,.588,0v-1.452Zm0-31.258a.294.294,0,0,0-.588,0v1.453a.294.294,0,0,0,.588,0v-1.453Zm10.219,5.427a.294.294,0,0,0,.415.416l.661-.661a.294.294,0,1,0-.416-.416l-.661.661Zm-22.1,22.1a.294.294,0,0,0,.416.417l.661-.661a.294.294,0,0,0-.415-.417l-.661.661Zm26.492-11.468a.294.294,0,0,0,0,.589h1.453a.294.294,0,0,0,0-.589Z" transform="translate(-640.85 -374.948)" fill="#9fb2d9" fill-rule="evenodd"/>
        <path id="Path_54186" data-name="Path 54186" d="M670.112,396.226a.589.589,0,0,0,1.177,0v-13.26a.589.589,0,1,0-1.177,0Z" transform="translate(-651.234 -376.759)" fill="#9fb2d9" fill-rule="evenodd"/>
        <path id="Path_54187" data-name="Path 54187" d="M667.715,405.093a.586.586,0,0,0-1.016-.584l-5.406,9.364a.586.586,0,1,0,1.016.584Z" transform="translate(-647.74 -385.334)" fill="#9fb2d9" fill-rule="evenodd"/>
        <path id="Path_54188" data-name="Path 54188" d="M670.052,405.742a1.593,1.593,0,1,0-1.594-1.592A1.6,1.6,0,0,0,670.052,405.742Z" transform="translate(-650.584 -384.683)" fill="#9fb2d9" fill-rule="evenodd"/>
      </g>
      <path id="Path_54189" data-name="Path 54189" d="M626.377,84.653a9.386,9.386,0,1,0,2.041,3.054,9.429,9.429,0,0,0-2.041-3.054Zm-3.383-1.237a8.577,8.577,0,1,1-3.264-.645,8.534,8.534,0,0,1,3.264.645Zm1.039-6.917a15.148,15.148,0,0,1,1.732.617,15.493,15.493,0,0,1,4.662,3.092.982.982,0,0,0,1.176.143c1.38-.8,2.832-1.586,4.184-2.416a.556.556,0,0,1,.2-.063.616.616,0,0,1,.442.12.577.577,0,0,1,.152.174c1.006,1.523,2.016,3.49,2.949,5.1a.585.585,0,0,1,.073.217.632.632,0,0,1-.018.238.591.591,0,0,1-.1.211.577.577,0,0,1-.173.152c-1.242.821-2.841,1.643-4.158,2.4a.982.982,0,0,0-.415.466.962.962,0,0,0-.062.2l-.086.029.1.388q.113.457.2.913c.054.3.1.6.14.927s.067.627.085.935.027.616.027.945-.008.644-.027.944-.047.621-.085.936-.087.632-.141.927-.122.609-.2.915a.98.98,0,0,0,.508,1.11l3.683,2.127h0l.436.251a.588.588,0,0,1,.276.364.628.628,0,0,1,.018.237.585.585,0,0,1-.073.217l-2.727,4.723h0l-.22.381a.585.585,0,0,1-.152.174.6.6,0,0,1-.211.1.611.611,0,0,1-.236.018.589.589,0,0,1-.216-.073c-1.318-.829-2.806-1.62-4.167-2.4a.983.983,0,0,0-1.172.141l0,0a15.41,15.41,0,0,1-4.674,3.1,15.32,15.32,0,0,1-1.762.624.986.986,0,0,0-.517.354,1,1,0,0,0-.2.594l0,4.805a.576.576,0,0,1-.044.226.606.606,0,0,1-.131.194.579.579,0,0,1-.194.131.589.589,0,0,1-.226.044h-5.9a.585.585,0,0,1-.226-.044.6.6,0,0,1-.195-.13.635.635,0,0,1-.131-.195.6.6,0,0,1-.044-.226V107.06a.994.994,0,0,0-.759-.96,15.309,15.309,0,0,1-3.4-1.448,15.542,15.542,0,0,1-3-2.26.986.986,0,0,0-1.225-.112l-4.113,2.375a.578.578,0,0,1-.218.073.6.6,0,0,1-.6-.294c-.977-1.7-1.969-3.4-2.947-5.1a.567.567,0,0,1-.073-.217.611.611,0,0,1,.017-.236.624.624,0,0,1,.1-.213.56.56,0,0,1,.17-.152l4.162-2.4a.99.99,0,0,0,.467-.623l.108-.022-.109-.441c-.075-.3-.141-.61-.2-.913s-.1-.606-.14-.928-.067-.627-.086-.936-.027-.616-.027-.944.01-.643.027-.944.047-.62.086-.935.086-.637.14-.93.122-.607.2-.912a.979.979,0,0,0-.062-.65.991.991,0,0,0-.443-.46l-4.121-2.38a.566.566,0,0,1-.172-.152.6.6,0,0,1-.1-.212.613.613,0,0,1-.017-.236.573.573,0,0,1,.073-.218c1.006-1.5,2.014-3.5,2.947-5.1a.6.6,0,0,1,.153-.174.626.626,0,0,1,.212-.1.614.614,0,0,1,.236-.017.586.586,0,0,1,.218.074l4.164,2.4a.967.967,0,0,0,.624.124.987.987,0,0,0,.562-.278,15.4,15.4,0,0,1,2.987-2.249,15.332,15.332,0,0,1,1.675-.836,15.119,15.119,0,0,1,1.764-.624.984.984,0,0,0,.714-.948l0-4.805a.579.579,0,0,1,.176-.419.582.582,0,0,1,.42-.176h5.9a.589.589,0,0,1,.226.044.6.6,0,0,1,.194.131.6.6,0,0,1,.175.42V75.54a.984.984,0,0,0,.212.61,1,1,0,0,0,.547.349Zm2.072-.182a16.3,16.3,0,0,1,4.925,3.266.119.119,0,0,0,.138.016c1.4-.808,2.8-1.613,4.2-2.426a1.455,1.455,0,0,1,.526-.165,1.48,1.48,0,0,1,.552.042,1.465,1.465,0,0,1,.514.253,1.442,1.442,0,0,1,.377.429c1.015,1.643,1.978,3.423,2.948,5.1a1.458,1.458,0,0,1,.183.544,1.5,1.5,0,0,1-.038.572,1.46,1.46,0,0,1-.253.514,1.442,1.442,0,0,1-.428.377c-1.339.827-2.792,1.612-4.161,2.4a.11.11,0,0,0-.048.054.114.114,0,0,0-.006.073l.1.389-.005,0q.063.282.117.575c.061.333.111.661.151.981s.068.648.088.986.031.672.031,1-.011.656-.031.995-.05.669-.088.988-.09.649-.151.981-.131.653-.208.966a.113.113,0,0,0,.007.076.119.119,0,0,0,.052.056c1.529.817,3.082,1.777,4.593,2.651l-.053.067.046.057a1.472,1.472,0,0,1,.253.514,1.5,1.5,0,0,1,.038.571,1.443,1.443,0,0,1-.183.542l-3.168,5.487-.059-.035c-.031.029-.064.056-.1.081a1.468,1.468,0,0,1-1.084.291,1.458,1.458,0,0,1-.528-.174c-1.385-.735-2.812-1.624-4.181-2.414a.121.121,0,0,0-.137.019,16.236,16.236,0,0,1-6.8,3.929.113.113,0,0,0-.06.041.105.105,0,0,0-.024.07v4.805a1.463,1.463,0,0,1-.432,1.035,1.468,1.468,0,0,1-.474.318,1.453,1.453,0,0,1-.559.112h-5.9a1.451,1.451,0,0,1-.559-.112,1.473,1.473,0,0,1-.8-.794,1.464,1.464,0,0,1-.112-.559V107.06a.108.108,0,0,0-.089-.112l-.019-.007A16.086,16.086,0,0,1,611.6,105.4a16.286,16.286,0,0,1-3.166-2.386.112.112,0,0,0-.069-.032.117.117,0,0,0-.074.019l-4.161,2.4a1.442,1.442,0,0,1-.541.182,1.472,1.472,0,0,1-1.085-.291,1.453,1.453,0,0,1-.369-.416c-1.094-1.758-2.126-3.683-3.169-5.488l.056-.033a1.233,1.233,0,0,1-.024-.139,1.462,1.462,0,0,1,.291-1.084,1.454,1.454,0,0,1,.427-.377l4.162-2.4a.118.118,0,0,0,.047-.054.128.128,0,0,0,.006-.075l-.108-.44h.006c-.038-.172-.073-.346-.1-.522q-.092-.5-.151-.982c-.039-.319-.069-.649-.089-.987s-.031-.672-.031-1,.011-.656.031-1,.05-.668.089-.989.089-.646.151-.981.13-.652.207-.963a.126.126,0,0,0-.009-.077.119.119,0,0,0-.053-.055l-4.157-2.4a1.417,1.417,0,0,1-.427-.377,1.507,1.507,0,0,1-.253-.513,1.483,1.483,0,0,1-.037-.57,1.451,1.451,0,0,1,.176-.53c.99-1.835,2.126-3.685,3.174-5.5l.06.036c.031-.029.064-.056.1-.082a1.479,1.479,0,0,1,1.085-.291,1.433,1.433,0,0,1,.541.18l.308.177v0l3.86,2.228a.116.116,0,0,0,.14-.018l.009-.01a16.531,16.531,0,0,1,1.508-1.283,16.235,16.235,0,0,1,5.281-2.636.113.113,0,0,0,.061-.041.108.108,0,0,0,.024-.07V70.734a1.458,1.458,0,0,1,.432-1.035,1.482,1.482,0,0,1,.474-.318,1.44,1.44,0,0,1,.559-.112h5.9a1.441,1.441,0,0,1,.559.112,1.513,1.513,0,0,1,.477.318,1.466,1.466,0,0,1,.43,1.035V75.54a.121.121,0,0,0,.024.073.111.111,0,0,0,.064.039l.019.007A16.216,16.216,0,0,1,626.105,76.317Z" transform="translate(-201.908 -49.975)" fill="#fff" fill-rule="evenodd"/>
      <path id="Path_54190" data-name="Path 54190" d="M474.746,55.37Zm-2.074-7.9a3.99,3.99,0,1,0,1.168,2.821,3.98,3.98,0,0,0-1.168-2.821Zm-.862-3.954a6.989,6.989,0,0,1,1.563.666,7.081,7.081,0,0,1,1.372,1.034.244.244,0,0,0,.292.035l1.854-1.07.01-.006a.463.463,0,0,1,.617.175l.008.013,1.3,2.259a.46.46,0,0,1,.045.349.454.454,0,0,1-.213.279l-.013.009-1.839,1.062a.243.243,0,0,0-.115.27h0a7.18,7.18,0,0,1,.155.843,7.178,7.178,0,0,1,0,1.719A7.148,7.148,0,0,1,476.7,52a.246.246,0,0,0,.129.278l1.838,1.062h0a.462.462,0,0,1,.168.628l-1.312,2.272h0a.462.462,0,0,1-.627.168l-.014-.007-1.841-1.063a.245.245,0,0,0-.292.035,7.054,7.054,0,0,1-2.946,1.7.245.245,0,0,0-.179.236v2.138a.459.459,0,0,1-.459.459h-2.624a.46.46,0,0,1-.459-.459V57.308a.246.246,0,0,0-.188-.239,7.033,7.033,0,0,1-2.936-1.7.244.244,0,0,0-.3-.028L462.811,56.4a.462.462,0,0,1-.628-.168l-.007-.013-1.305-2.259h0a.462.462,0,0,1,.167-.627l1.852-1.07a.245.245,0,0,0,.116-.27h0a6.919,6.919,0,0,1-.155-.843,7.19,7.19,0,0,1,0-1.719,6.8,6.8,0,0,1,.155-.843.245.245,0,0,0-.129-.278l-1.84-1.062a.462.462,0,0,1-.167-.627l.007-.014,1.3-2.259h0a.464.464,0,0,1,.627-.169h0l1.855,1.07a.245.245,0,0,0,.3-.04,7.084,7.084,0,0,1,1.366-1.029,6.952,6.952,0,0,1,1.574-.669.247.247,0,0,0,.179-.236V41.141a.46.46,0,0,1,.459-.459h2.624a.459.459,0,0,1,.459.459v2.138A.246.246,0,0,0,471.811,43.518Z" transform="translate(-147.659 -38.749)" fill="#fff" fill-rule="evenodd"/>
      <path id="Path_54191" data-name="Path 54191" d="M709.323,326.457a3.33,3.33,0,0,1,2.362.979l0,0a3.341,3.341,0,1,1-4.725,4.725l0,0a3.341,3.341,0,0,1,2.364-5.7Zm1.589,1.755a2.246,2.246,0,0,0-3.178,3.174l0,0a2.246,2.246,0,0,0,3.176-3.177Z" transform="translate(-243.931 -150.966)" fill="#9fb2d9" fill-rule="evenodd"/>
      <path id="Path_54192" data-name="Path 54192" d="M572.5,37.5a3.331,3.331,0,0,1,2.362.98l0,0a3.341,3.341,0,1,1-4.725,4.725l0,0a3.342,3.342,0,0,1,2.364-5.7Zm1.588,1.755a2.246,2.246,0,0,0-3.177,3.175l0,0a2.246,2.246,0,0,0,3.175-3.178Z" transform="translate(-190.203 -37.5)" fill="#9fb2d9" fill-rule="evenodd"/>
      <path id="Path_54193" data-name="Path 54193" d="M429.935,129.354a3.333,3.333,0,0,1,2.361.979l0,0a3.341,3.341,0,1,1-4.724,4.724l0,0a3.342,3.342,0,0,1,2.365-5.7Zm1.588,1.755a2.246,2.246,0,0,0-3.178,3.175l0,0a2.246,2.246,0,0,0,3.176-3.178Z" transform="translate(-134.222 -73.569)" fill="#9fb2d9" fill-rule="evenodd"/>
      <path id="Path_54194" data-name="Path 54194" d="M385.922,252.782a3.33,3.33,0,0,1,2.361.98l0,0a3.341,3.341,0,1,1-4.726,4.725l0,0a3.342,3.342,0,0,1,2.366-5.7Zm1.587,1.755a2.246,2.246,0,0,0-3.177,3.174l0,0a2.246,2.246,0,0,0,3.174-3.177Z" transform="translate(-116.94 -122.036)" fill="#9fb2d9" fill-rule="evenodd"/>
      <path id="Path_54195" data-name="Path 54195" d="M561.975,245.128a3.329,3.329,0,0,1,2.361.979l0,0a3.341,3.341,0,1,1-4.725,4.724l0,0a3.342,3.342,0,0,1,2.365-5.7Zm1.588,1.755a2.246,2.246,0,0,0-3.178,3.174l0,0a2.246,2.246,0,0,0,3.176-3.177Z" transform="translate(-186.071 -119.03)" fill="#9fb2d9" fill-rule="evenodd"/>
      <path id="Path_54196" data-name="Path 54196" d="M538.054,380.038a3.331,3.331,0,0,1,2.361.979l0,0a3.341,3.341,0,1,1-4.724,4.725l0,0a3.342,3.342,0,0,1,2.365-5.7Zm1.588,1.755a2.246,2.246,0,0,0-3.177,3.174l0,0a2.246,2.246,0,0,0,3.175-3.177Z" transform="translate(-176.678 -172.006)" fill="#9fb2d9" fill-rule="evenodd"/>
      <path id="Path_54197" data-name="Path 54197" d="M54.865,226.949a3.329,3.329,0,0,1,2.361.979l0,0a3.341,3.341,0,1,1-4.725,4.724l0,0a3.341,3.341,0,0,1,2.364-5.7Zm1.588,1.754a2.246,2.246,0,0,0-3.177,3.175l0,0a2.246,2.246,0,0,0,3.175-3.178Z" transform="translate(13.057 -111.892)" fill="#9fb2d9" fill-rule="evenodd"/>
      <path id="Path_54198" data-name="Path 54198" d="M675.145,63.991a.684.684,0,1,1,1.368,0V65.6h1.609a.684.684,0,1,1,0,1.368h-1.609v1.609a.684.684,0,0,1-1.368,0V66.969h-1.609a.684.684,0,0,1,0-1.368h1.609Z" transform="translate(-230.922 -47.634)" fill="#c0cdea" fill-rule="evenodd"/>
      <path id="Path_54199" data-name="Path 54199" d="M540.234,156.8a.685.685,0,0,1,1.369,0v1.609h1.609a.684.684,0,1,1,0,1.368H541.6v1.609a.685.685,0,0,1-1.369,0V159.78h-1.609a.684.684,0,1,1,0-1.368h1.609Z" transform="translate(-177.946 -84.078)" fill="#c0cdea" fill-rule="evenodd"/>
      <path id="Path_54200" data-name="Path 54200" d="M376.62,45.811a.684.684,0,0,1,1.369,0V47.42H379.6a.684.684,0,0,1,0,1.369h-1.609V50.4a.684.684,0,0,1-1.369,0V48.789h-1.608a.684.684,0,0,1,0-1.369h1.608Z" transform="translate(-113.699 -40.495)" fill="#c0cdea" fill-rule="evenodd"/>
      <path id="Path_54201" data-name="Path 54201" d="M53.218,100.35a.684.684,0,0,1,1.369,0v1.609H56.2a.684.684,0,0,1,0,1.369H54.587v1.609a.684.684,0,0,1-1.369,0v-1.609H51.609a.684.684,0,0,1,0-1.369h1.609Z" transform="translate(13.292 -61.911)" fill="#c0cdea" fill-rule="evenodd"/>
      <path id="Path_54202" data-name="Path 54202" d="M43.65,418.967a.684.684,0,0,1,1.369,0v1.609h1.609a.684.684,0,1,1,0,1.369H45.019v1.608a.684.684,0,1,1-1.369,0v-1.608H42.041a.684.684,0,1,1,0-1.369H43.65Z" transform="translate(17.049 -187.023)" fill="#c0cdea" fill-rule="evenodd"/>
      <path id="Path_54203" data-name="Path 54203" d="M468.474,343.379a.684.684,0,0,1,1.368,0v1.61h1.609a.684.684,0,1,1,0,1.368h-1.609v1.609a.684.684,0,1,1-1.368,0v-1.609h-1.609a.684.684,0,1,1,0-1.368h1.609Z" transform="translate(-149.768 -157.342)" fill="#c0cdea" fill-rule="evenodd"/>
      <path id="Path_54204" data-name="Path 54204" d="M382.361,137.665a.684.684,0,1,1,1.369,0v1.609h1.609a.684.684,0,1,1,0,1.369H383.73v1.609a.684.684,0,1,1-1.369,0v-1.609h-1.609a.684.684,0,0,1,0-1.369h1.609Z" transform="translate(-115.953 -76.564)" fill="#c0cdea" fill-rule="evenodd"/>
      <g id="Group_5817" data-name="Group 5817" transform="translate(80.049 18.078)">
        <g id="Group_5812" data-name="Group 5812">
          <path id="Rectangle_2242" data-name="Rectangle 2242" d="M27.415,0h78.37A27.415,27.415,0,0,1,133.2,27.415V212.622a27.414,27.414,0,0,1-27.414,27.414H27.414A27.414,27.414,0,0,1,0,212.622V27.415A27.415,27.415,0,0,1,27.415,0Z" fill="#00000f"/>
          <path id="Rectangle_2243" data-name="Rectangle 2243" d="M27.415,0h78.37A27.415,27.415,0,0,1,133.2,27.415V212.622a27.414,27.414,0,0,1-27.414,27.414H27.415A27.415,27.415,0,0,1,0,212.621V27.415A27.415,27.415,0,0,1,27.415,0Z" transform="translate(5.477)" fill="#00000f"/>
          <rect id="Rectangle_2244" data-name="Rectangle 2244" width="127.906" height="234.743" rx="23.057" transform="translate(8.123 2.647)" fill="#101537"/>
          <path id="Rectangle_2245" data-name="Rectangle 2245" d="M14.341,0h88.638A14.341,14.341,0,0,1,117.32,14.341V209.815a14.342,14.342,0,0,1-14.342,14.342H14.342A14.342,14.342,0,0,1,0,209.815V14.341A14.341,14.341,0,0,1,14.341,0Z" transform="translate(13.416 7.939)" fill="#fff"/>
          <g id="Group_5811" data-name="Group 5811" transform="translate(23.177 213.707)">
            <path id="Path_54205" data-name="Path 54205" d="M117.82,424.942h7a1.232,1.232,0,0,1,.873.363l0,0a1.233,1.233,0,0,1,.363.872v7.159c.008.205-.021.321-.254.4-.373.162-.382.029-.5-.2l-.012-.025a4.526,4.526,0,0,0-1.147-1.329,2,2,0,0,0-1.175-.429h-.544v.459a1.024,1.024,0,0,1-1.021,1.022h-3.824a1.383,1.383,0,0,0-.813.3,3.209,3.209,0,0,0-.81.929l-.019.036c-.118.233-.213.328-.517.2a.321.321,0,0,1-.24-.391c-.05-1.729,0-3.586,0-5.319a1.023,1.023,0,0,1,1.022-1.02h.383v-1.791a1.244,1.244,0,0,1,1.238-1.237Zm6.018,4.439h.42a.238.238,0,1,0,0-.477h-.42a.238.238,0,0,0,0,.477Zm-.9-.477h-3.869a.238.238,0,0,0,0,.477h3.869a.238.238,0,0,0,0-.477Zm-4.132-1.838h-.42a.238.238,0,0,0,0,.477h.42a.238.238,0,1,0,0-.477Zm.9.477h4.551a.238.238,0,1,0,0-.477h-4.551a.238.238,0,0,0,0,.477Zm1.922,4.215H117.82a1.241,1.241,0,0,1-1.238-1.238v-1.756H116.2a.226.226,0,0,0-.161.066.234.234,0,0,0-.067.161v4.183a3.289,3.289,0,0,1,.324-.276,2.159,2.159,0,0,1,1.281-.454H121.4a.229.229,0,0,0,.228-.227v-.459Zm3.193-6.022h-7a.447.447,0,0,0-.443.443v4.341a.445.445,0,0,0,.443.443h5.147a2.769,2.769,0,0,1,1.643.584,4.438,4.438,0,0,1,.655.6v-5.967a.443.443,0,0,0-.443-.443Z" transform="translate(-115.156 -421.423)" fill="#9fb2d9" fill-rule="evenodd"/>
            <path id="Path_54206" data-name="Path 54206" d="M170.076,419.147a2.883,2.883,0,0,1,2.038,4.922l-.024.022a2.878,2.878,0,0,1-4.051-.022l0,0a2.883,2.883,0,0,1,2.039-4.92Zm3.209,10.332V429.2a3.2,3.2,0,0,0-.923-2.248l-.02-.018a3.209,3.209,0,0,0-5.475,2.266v2.322a.168.168,0,0,0,.047.118l0,0a.166.166,0,0,0,.117.047h6.085a.166.166,0,0,0,.118-.049.169.169,0,0,0,.049-.118v-2.044Zm.794-.013v2.057a.958.958,0,0,1-.282.678v0a.961.961,0,0,1-.677.281h-6.085a.963.963,0,0,1-.677-.281v0a.96.96,0,0,1-.282-.678V429.2a4,4,0,0,1,6.831-2.828l.021.024a3.987,3.987,0,0,1,1.154,2.8v.265Zm-2.526-8.913a2.089,2.089,0,0,0-2.956,2.954l0,0a2.091,2.091,0,0,0,2.935.018l.019-.019a2.088,2.088,0,0,0,0-2.954Z" transform="translate(-135.149 -419.147)" fill="#9fb2d9" fill-rule="evenodd"/>
            <path id="Path_54207" data-name="Path 54207" d="M219.189,424.61a4.126,4.126,0,0,1,1.368.791l.816-.471.038-.02a.61.61,0,0,1,.795.242l.746,1.294a.607.607,0,0,1-.222.831l-.817.471c.015.079.029.16.039.242a4.028,4.028,0,0,1,0,1.1c-.011.082-.024.163-.039.242l.815.47a.606.606,0,0,1,.223.832l-.746,1.291a.607.607,0,0,1-.832.224l-.816-.471a4.154,4.154,0,0,1-1.368.791v.942a.613.613,0,0,1-.61.61h-1.492a.611.611,0,0,1-.431-.178l-.033-.039a.606.606,0,0,1-.146-.393v-.943a4.175,4.175,0,0,1-.72-.329,4.234,4.234,0,0,1-.647-.462l-.816.471-.038.019a.607.607,0,0,1-.795-.241l-.746-1.294a.6.6,0,0,1-.062-.461.608.608,0,0,1,.284-.37l.816-.47c-.015-.079-.028-.16-.039-.242a4.243,4.243,0,0,1-.037-.55,4.144,4.144,0,0,1,.037-.55c.011-.082.024-.163.039-.241l-.816-.471a.608.608,0,0,1-.222-.832l.746-1.291a.607.607,0,0,1,.832-.224l.816.471a4.133,4.133,0,0,1,.647-.463,4.272,4.272,0,0,1,.72-.329v-.943a.612.612,0,0,1,.61-.609h1.493a.607.607,0,0,1,.431.178l.034.038a.608.608,0,0,1,.145.393v.943Zm.323,1.014a3.35,3.35,0,0,0-.8-.332.4.4,0,0,1-.321-.389v-1.052H217.27V424.9a.4.4,0,0,1-.3.383,3.345,3.345,0,0,0-1.521.876.4.4,0,0,1-.487.071l-.912-.527-.564.975.889.514a.4.4,0,0,1,.208.46,3.231,3.231,0,0,0-.089.435,3.375,3.375,0,0,0-.028.448,3.465,3.465,0,0,0,.028.447,3.33,3.33,0,0,0,.089.436h0a.4.4,0,0,1-.185.446l-.911.526.564.977.913-.527a.4.4,0,0,1,.479.064,3.354,3.354,0,0,0,1.5.877.4.4,0,0,1,.321.389v1.052H218.4v-1.052a.4.4,0,0,1,.3-.382,3.369,3.369,0,0,0,1.521-.877.4.4,0,0,1,.486-.071l.913.527.564-.976-.881-.508a.4.4,0,0,1-.217-.465,3.338,3.338,0,0,0,.089-.436,3.592,3.592,0,0,0,0-.894,3.338,3.338,0,0,0-.089-.436h0a.4.4,0,0,1,.185-.446l.912-.526-.564-.977-.913.527a.4.4,0,0,1-.479-.063,3.37,3.37,0,0,0-.708-.546Zm-1.68.794a2.115,2.115,0,0,0-1.475.6l-.025.023a2.119,2.119,0,0,0,0,3l0,0a2.12,2.12,0,1,0,1.5-3.621Zm.938,1.182a1.328,1.328,0,0,0-1.858-.019l-.018.019a1.33,1.33,0,0,0,0,1.877v0a1.328,1.328,0,0,0,1.877-1.878Z" transform="translate(-153.432 -420.683)" fill="#9fb2d9" fill-rule="evenodd"/>
            <path id="Path_54208" data-name="Path 54208" d="M270.084,429.219a3.512,3.512,0,0,1,0,4.967l-.024.021a3.511,3.511,0,0,1-4.648.243l-1.468,1.467a.4.4,0,1,1-.562-.561l1.468-1.468a3.513,3.513,0,0,1,5.232-4.672v0Zm-4.415,4.4.008.008.008.008a2.72,2.72,0,0,0,3.819.012l.019-.02a2.719,2.719,0,1,0-3.853-.008Z" transform="translate(-173.315 -422.697)" fill="#9fb2d9" fill-rule="evenodd"/>
          </g>
        </g>
        <path id="Rectangle_2246" data-name="Rectangle 2246" d="M3.444,0H73.556A3.445,3.445,0,0,1,77,3.445V142.837a3.444,3.444,0,0,1-3.444,3.444H3.444A3.444,3.444,0,0,1,0,142.838V3.444A3.444,3.444,0,0,1,3.444,0Z" transform="translate(18.987 61.295)" fill="#e1e8f6"/>
        <g id="Group_5813" data-name="Group 5813" transform="translate(30.013 67.913)">
          <path id="Path_54209" data-name="Path 54209" d="M163.992,181.487s5.732.474,10.074-2.4l1.769.853-11.246,28.02-.6.889-.6-.889-11.246-28.02,1.769-.853C158.259,181.961,163.992,181.487,163.992,181.487Z" transform="translate(-136.518 -179.089)" fill="#b83470" fill-rule="evenodd"/>
          <path id="Path_54210" data-name="Path 54210" d="M180.305,179.089l6.391,1.361s-3.955,9.65-.524,17.691c0,0-2.717,14.688-2.764,15.026s.023,1.291-.048,1.545-.5.466-.5.466H170.231l-2.192-14.327Z" transform="translate(-142.757 -179.089)" fill="#e13c83" fill-rule="evenodd"/>
          <path id="Path_54211" data-name="Path 54211" d="M150.929,179.089l-6.391,1.361s3.956,9.65.524,17.691c0,0,2.716,14.688,2.764,15.026s-.024,1.291.047,1.545.5.466.5.466H169.39Z" transform="translate(-133.529 -179.089)" fill="#e94d90" fill-rule="evenodd"/>
          <path id="Path_54212" data-name="Path 54212" d="M141.318,241.532s-14.714,86.735-14.9,89.105,13.913,5.672,27.472,5.672,27.663-3.3,27.472-5.672-14.906-89.105-14.906-89.105l-12.567-.879Z" transform="translate(-126.411 -203.264)" fill="#e13c83" fill-rule="evenodd"/>
          <rect id="Rectangle_2247" data-name="Rectangle 2247" width="25.995" height="2.179" rx="0.629" transform="translate(14.477 36.089)" fill="#b83470"/>
        </g>
        <path id="Rectangle_2248" data-name="Rectangle 2248" d="M3.445,0H22.6a3.445,3.445,0,0,1,3.445,3.445V16.778A3.444,3.444,0,0,1,22.6,20.222H3.445A3.445,3.445,0,0,1,0,16.777V3.445A3.445,3.445,0,0,1,3.445,0Z" transform="translate(100.805 61.295)" fill="#5eb9bd"/>
        <path id="Rectangle_2249" data-name="Rectangle 2249" d="M2.149,0H105.714a2.15,2.15,0,0,1,2.15,2.15v0a2.15,2.15,0,0,1-2.15,2.15H2.149A2.149,2.149,0,0,1,0,2.151v0A2.149,2.149,0,0,1,2.149,0Z" transform="translate(18.987 52.172)" fill="#b4c5e6"/>
        <path id="Rectangle_2250" data-name="Rectangle 2250" d="M2.149,0H105.714a2.15,2.15,0,0,1,2.15,2.15v0a2.15,2.15,0,0,1-2.15,2.15H2.149A2.149,2.149,0,0,1,0,2.151v0A2.149,2.149,0,0,1,2.149,0Z" transform="translate(18.987 43.804)" fill="#b4c5e6"/>
        <path id="Rectangle_2251" data-name="Rectangle 2251" d="M2.149,0H105.714a2.15,2.15,0,0,1,2.15,2.15v0a2.15,2.15,0,0,1-2.15,2.15H2.149A2.149,2.149,0,0,1,0,2.151v0A2.149,2.149,0,0,1,2.149,0Z" transform="translate(18.987 35.436)" fill="#b4c5e6"/>
        <g id="Group_5814" data-name="Group 5814" transform="translate(16.637 7.94)">
          <path id="Path_54213" data-name="Path 54213" d="M280.021,104.529v10.513A11.214,11.214,0,0,0,291.2,126.224h0a11.214,11.214,0,0,0,11.181-11.181V104.529l-10.074-1.895Z" transform="translate(-173.354 -89.094)" fill="#b83470" fill-rule="evenodd"/>
          <path id="Path_54214" data-name="Path 54214" d="M289.619,95.775H267.257L247.517,80.339h22.362Z" transform="translate(-160.59 -80.339)" fill="#e94d90" fill-rule="evenodd"/>
          <path id="Path_54215" data-name="Path 54215" d="M243.2,103.755v10.513a11.214,11.214,0,0,0,11.181,11.181h0a11.214,11.214,0,0,0,11.181-11.181V103.755l-13.939-3.091Z" transform="translate(-158.896 -88.32)" fill="#f9d2cf" fill-rule="evenodd"/>
          <path id="Path_54216" data-name="Path 54216" d="M252.8,95.775H230.437L210.7,80.339h22.362Z" transform="translate(-146.132 -80.339)" fill="#fff" fill-rule="evenodd"/>
          <path id="Path_54217" data-name="Path 54217" d="M206.38,103.691V114.2a11.214,11.214,0,0,0,11.181,11.181h0A11.214,11.214,0,0,0,228.742,114.2V103.691L217.122,100.5Z" transform="translate(-144.437 -88.256)" fill="#b83470" fill-rule="evenodd"/>
          <path id="Path_54218" data-name="Path 54218" d="M215.979,95.775H193.617l-19.74-15.435h22.362Z" transform="translate(-131.674 -80.339)" fill="#e94d90" fill-rule="evenodd"/>
          <path id="Path_54219" data-name="Path 54219" d="M169.56,103.5v10.512a11.214,11.214,0,0,0,11.181,11.181h0a11.214,11.214,0,0,0,11.18-11.181V103.5l-11-3.49Z" transform="translate(-129.979 -88.063)" fill="#f9d2cf" fill-rule="evenodd"/>
          <path id="Path_54220" data-name="Path 54220" d="M179.159,95.775H156.8l-19.74-15.435h22.362Z" transform="translate(-117.215 -80.339)" fill="#fff" fill-rule="evenodd"/>
          <path id="Path_54221" data-name="Path 54221" d="M132.74,104.4v10.513a11.214,11.214,0,0,0,11.181,11.181h0A11.214,11.214,0,0,0,155.1,114.913V104.4l-13.266-2.094Z" transform="translate(-115.52 -88.965)" fill="#b83470" fill-rule="evenodd"/>
          <path id="Path_54222" data-name="Path 54222" d="M143.968,95.774H121.607L104.387,82.31a8.652,8.652,0,0,1,5.489-1.971h14.352Z" transform="translate(-104.387 -80.339)" fill="#e94d90" fill-rule="evenodd"/>
        </g>
        <rect id="Rectangle_2252" data-name="Rectangle 2252" width="26.047" height="20.223" rx="3.445" transform="translate(100.805 142.659)" fill="#1874ba"/>
        <g id="Group_5815" data-name="Group 5815" transform="translate(100.805 84.54)">
          <path id="Rectangle_2253" data-name="Rectangle 2253" d="M.554,0H25.492a.555.555,0,0,1,.555.555V2.7a.554.554,0,0,1-.554.554H.554A.554.554,0,0,1,0,2.7V.554A.554.554,0,0,1,.554,0Z" fill="#e4e1e8"/>
          <path id="Rectangle_2254" data-name="Rectangle 2254" d="M.554,0H25.492a.555.555,0,0,1,.555.555V2.7a.554.554,0,0,1-.554.554H.554A.554.554,0,0,1,0,2.7V.554A.554.554,0,0,1,.554,0Z" transform="translate(0 7.09)" fill="#e4e1e8"/>
          <path id="Rectangle_2255" data-name="Rectangle 2255" d="M.554,0H25.492a.555.555,0,0,1,.555.555V2.7a.554.554,0,0,1-.554.554H.554A.554.554,0,0,1,0,2.7V.554A.554.554,0,0,1,.554,0Z" transform="translate(0 14.179)" fill="#e4e1e8"/>
          <path id="Rectangle_2256" data-name="Rectangle 2256" d="M.554,0H25.492a.555.555,0,0,1,.555.555V2.7a.553.553,0,0,1-.553.553H.554A.554.554,0,0,1,0,2.7V.554A.554.554,0,0,1,.554,0Z" transform="translate(0 21.268)" fill="#e4e1e8"/>
          <path id="Rectangle_2257" data-name="Rectangle 2257" d="M.553,0H25.492a.555.555,0,0,1,.555.555V2.7a.555.555,0,0,1-.555.555H.554A.554.554,0,0,1,0,2.7V.553A.553.553,0,0,1,.553,0Z" transform="translate(0 28.358)" fill="#e4e1e8"/>
          <path id="Rectangle_2258" data-name="Rectangle 2258" d="M.555,0H25.492a.555.555,0,0,1,.555.555V2.7a.554.554,0,0,1-.554.554H.554A.554.554,0,0,1,0,2.7V.555A.555.555,0,0,1,.555,0Z" transform="translate(0 35.446)" fill="#e4e1e8"/>
          <path id="Rectangle_2259" data-name="Rectangle 2259" d="M.553,0H25.492a.555.555,0,0,1,.555.555V2.7a.554.554,0,0,1-.554.554H.554A.554.554,0,0,1,0,2.7V.553A.553.553,0,0,1,.553,0Z" transform="translate(0 42.536)" fill="#e4e1e8"/>
          <path id="Rectangle_2260" data-name="Rectangle 2260" d="M.555,0H25.492a.555.555,0,0,1,.555.555V2.7a.554.554,0,0,1-.554.554H.554A.554.554,0,0,1,0,2.7V.555A.555.555,0,0,1,.555,0Z" transform="translate(0 49.625)" fill="#e4e1e8"/>
        </g>
        <g id="Group_5816" data-name="Group 5816" transform="translate(100.805 168.878)">
          <path id="Rectangle_2261" data-name="Rectangle 2261" d="M.554,0H25.492a.555.555,0,0,1,.555.555V2.7a.554.554,0,0,1-.554.554H.554A.554.554,0,0,1,0,2.7V.554A.554.554,0,0,1,.554,0Z" fill="#c0cdea"/>
          <path id="Rectangle_2262" data-name="Rectangle 2262" d="M.554,0H25.492a.555.555,0,0,1,.555.555V2.7a.554.554,0,0,1-.554.554H.554A.554.554,0,0,1,0,2.7V.554A.554.554,0,0,1,.554,0Z" transform="translate(0 7.089)" fill="#c0cdea"/>
          <path id="Rectangle_2263" data-name="Rectangle 2263" d="M.554,0H25.492a.555.555,0,0,1,.555.555V2.7a.554.554,0,0,1-.554.554H.554A.554.554,0,0,1,0,2.7V.554A.554.554,0,0,1,.554,0Z" transform="translate(0 14.178)" fill="#c0cdea"/>
          <path id="Rectangle_2264" data-name="Rectangle 2264" d="M.554,0H25.492a.555.555,0,0,1,.555.555V2.7a.555.555,0,0,1-.555.555H.555A.555.555,0,0,1,0,2.7V.554A.554.554,0,0,1,.554,0Z" transform="translate(0 21.268)" fill="#c0cdea"/>
          <path id="Rectangle_2265" data-name="Rectangle 2265" d="M.554,0H25.492a.555.555,0,0,1,.555.555V2.7a.554.554,0,0,1-.554.554H.554A.554.554,0,0,1,0,2.7V.554A.554.554,0,0,1,.554,0Z" transform="translate(0 28.358)" fill="#c0cdea"/>
          <path id="Rectangle_2266" data-name="Rectangle 2266" d="M.554,0H25.492a.555.555,0,0,1,.555.555V2.7a.554.554,0,0,1-.554.554H.554A.554.554,0,0,1,0,2.7V.554A.554.554,0,0,1,.554,0Z" transform="translate(0 35.447)" fill="#c0cdea"/>
        </g>
        <text id="_50" data-name="$50" transform="translate(105.031 152.332)" fill="#fff" font-size="7"  font-weight="800"><tspan x="0" y="0">$50</tspan></text>
        <text id="_70" data-name="$70" transform="translate(105.031 71.355)" fill="#fff" font-size="7"  font-weight="800"><tspan x="0" y="0">$70</tspan></text>
      </g>
      <g id="Group_5818" data-name="Group 5818" transform="translate(280.922 146.305)">
        <circle id="Ellipse_416" data-name="Ellipse 416" cx="5.004" cy="5.004" r="5.004" fill="#e94d90"/>
        <text id="_1" data-name="1" transform="translate(2.754 2.374)" fill="#fff" font-size="2"  font-weight="800"><tspan x="0" y="0">1</tspan></text>
      </g>
      <g id="Group_5822" data-name="Group 5822" transform="translate(53.849 145.597)">
        <path id="Path_54223" data-name="Path 54223" d="M104.312,344.377c8.7-4.626,10.913,5.44,7.528,13.774s-20.747,36.368-21.654,47.486c-.351,4.31-1.155,3.838-1.843.817C84.914,391.382,92.331,350.744,104.312,344.377Z" transform="translate(-54.921 -303.141)" fill="#294d3c" fill-rule="evenodd"/>
        <g id="Group_5819" data-name="Group 5819" transform="translate(16.181)">
          <path id="Path_54224" data-name="Path 54224" d="M75.278,280.282c-9.98-8.985-16.22,3.592-14.494,15.726s15.433,54.917,12.965,69.914c-.957,5.812.261,5.455,2.166,1.687C85.419,348.817,89.017,292.651,75.278,280.282Z" transform="translate(-60.497 -277.234)" fill="#4a9075" fill-rule="evenodd"/>
          <path id="Path_54225" data-name="Path 54225" d="M78.36,373.478c.214.557.687.281,1.323-.646,10.4-34.648-5.8-86.415-5.853-86.582a.541.541,0,0,0-1.033.319C72.849,286.736,89.272,339.21,78.36,373.478Z" transform="translate(-65.318 -280.625)" fill="#1b7154" fill-rule="evenodd"/>
        </g>
        <g id="Group_5820" data-name="Group 5820" transform="translate(0 30.904)">
          <path id="Path_54226" data-name="Path 54226" d="M43.018,329.052c-9.67-4.209-11.188,6.712-6.883,15.321S61.3,381.438,63.193,393.224c.734,4.568,1.552,4,2.034.718C67.63,377.578,56.33,334.845,43.018,329.052Z" transform="translate(-33.854 -328.12)" fill="#a6c86b" fill-rule="evenodd"/>
          <path id="Path_54227" data-name="Path 54227" d="M66.9,399.117c.3.362.582.038.825-.811-.876-28.4-25.829-62.926-25.909-63.037a.425.425,0,0,0-.691.494C41.2,335.876,66.5,370.875,66.9,399.117Z" transform="translate(-36.677 -330.858)" fill="#5f9850" fill-rule="evenodd"/>
        </g>
        <g id="Group_5821" data-name="Group 5821" transform="translate(16.392 87.196)">
          <path id="Path_54228" data-name="Path 54228" d="M68.227,430.16H86.806l4.851,4.378L87.694,449.8H67.34l-3.963-15.263Z" transform="translate(-61.839 -424.48)" fill="#3b405f" fill-rule="evenodd"/>
          <rect id="Rectangle_2267" data-name="Rectangle 2267" width="31.355" height="10.058" rx="2.532" fill="#3b405f"/>
          <path id="Path_54229" data-name="Path 54229" d="M91.656,437.368l-.815,3.137H64.191l-.815-3.137Z" transform="translate(-61.839 -427.311)" fill="#101537" fill-rule="evenodd"/>
        </g>
      </g>
    </g>
    <g id="Group_5831" data-name="Group 5831" transform="translate(196.555 107.647)">
      <g id="Group_5828" data-name="Group 5828" transform="translate(83.94)">
        <path id="Path_54230" data-name="Path 54230" d="M436.692,261.59c3.08,1.51,7.553,1.976,9.123.523s.7-3.37-.058-3.428S433.089,258.161,436.692,261.59Z" transform="translate(-428.345 -194.479)" fill="#f08e70" fill-rule="evenodd"/>
        <path id="Path_54231" data-name="Path 54231" d="M500.768,446.174c-.725.8-2.538,1.513-4.916,2.017s-5.043,1.277-6.487,1.681c-1.659.464-1.977,1.589-1.691,3.089.12.63-.419,1.615.326,2.183l22.145-.348c.813-.013,1.069-1.561,1.069-2.486v-5.841c0-1.849-1.088-2.058-2.316-2.058h-5.954C502.219,444.41,501.916,445.061,500.768,446.174Z" transform="translate(-448.593 -267.43)" fill="#00888b" fill-rule="evenodd"/>
        <path id="Path_54232" data-name="Path 54232" d="M502.384,449.119c-.242.1-.5.2-.777.29l1.077,2.04a.411.411,0,1,0,.728-.383l-1.028-1.947Zm-1.724.579.921,1.746a.411.411,0,1,1-.727.383l-1.012-1.919c.282-.067.556-.137.818-.21Zm-1.8.427q-.411.092-.83.191l1,1.889a.411.411,0,0,0,.727-.383l-.895-1.7Zm-1.8.429q-.413.1-.818.211l.959,1.817a.411.411,0,0,0,.728-.383Z" transform="translate(-451.991 -269.279)" fill="#fff" fill-rule="evenodd"/>
        <path id="Path_54233" data-name="Path 54233" d="M441.955,181.673c3.08-1.511,7.553-1.976,9.123-.523s.7,3.371-.058,3.429S438.352,185.1,441.955,181.673Z" transform="translate(-430.412 -163.708)" fill="#f08e70" fill-rule="evenodd"/>
        <path id="Path_54234" data-name="Path 54234" d="M497,204.979c-4.454-1.96-18.736-1.486-22.429-3.3-1.229-.6-17.761-19.148-18.4-19.461s-3.414,3.8-3.855,4.825c0,0,11.972,25.153,18.7,27.529s17.211,3.212,18.566,2.428C495.427,213.611,501.455,206.94,497,204.979Z" transform="translate(-434.745 -164.467)" fill="#005253" fill-rule="evenodd"/>
        <path id="Path_54235" data-name="Path 54235" d="M508.714,283.612s9.227,2.943,8.5,11.14c-1.37,15.555-3.408,39.15-3.713,45.278-.466,9.357-.887,41.206-1.147,42.435a1.263,1.263,0,0,1-.726.85c-.581.23-6.5.838-6.865-.972-1.192-5.912-4.655-35.408-5.194-40.007s-5.771-43.83-5.771-43.83-.5-8.925,1.26-11.624C498.046,282.31,504.48,283,508.714,283.612Z" transform="translate(-451.011 -204.115)" fill="#080321" fill-rule="evenodd"/>
        <path id="Path_54236" data-name="Path 54236" d="M515.474,291.074a.706.706,0,0,1,1.411.025c0,.145-.909,50.65-1.086,53.889s1.461,40.892,1.467,41a.705.705,0,0,1-1.409.065c0-.111-1.649-37.878-1.47-41.148S515.472,291.219,515.474,291.074Z" transform="translate(-459.115 -206.948)" fill="#3b405f" fill-rule="evenodd"/>
        <path id="Path_54237" data-name="Path 54237" d="M507.919,182.828h0a5.113,5.113,0,0,0-3.2,6.463l3.325,9.839a5.114,5.114,0,0,0,6.463,3.2h0a5.114,5.114,0,0,0,3.2-6.463l-3.326-9.839A5.114,5.114,0,0,0,507.919,182.828Z" transform="translate(-455.219 -164.608)" fill="#f08e70" fill-rule="evenodd"/>
        <path id="Path_54238" data-name="Path 54238" d="M499.427,203.18s8.208-1.888,9.92-2.161a16.215,16.215,0,0,1,4.359.025c.338.089.4.547.43.8s-.758,2.772-.773,3.015,5.619,9.316,4.943,17.411c-.22,2.646-4.039,10.138-3.767,16.244.561,12.576,5.2,23.963,5.092,24.64-1.507,9.171-22.771,5.032-28.028.547,0,0-1.538-4.984-1.229-6.413.145-.675-.769-9.711.134-19.7a58.791,58.791,0,0,1,2.784-13.962c2.1-5.968,3.688-10.382,3.919-10.8.754-1.377,2.576-3.822,2.61-4.206s-1.824-2.808-2-3.134S498.963,203.452,499.427,203.18Z" transform="translate(-449.584 -171.803)" fill="#5eb9bd" fill-rule="evenodd"/>
        <path id="Path_54239" data-name="Path 54239" d="M452.66,260.613l-.76-2.754a1.688,1.688,0,0,0-.966-.5c-.684-.142-1.693-.206-2.119.489s-1.668,4.682-1.308,5.3a2.925,2.925,0,0,0,3.047,1.281C452.006,264.054,452.66,260.613,452.66,260.613Z" transform="translate(-432.832 -193.942)" fill="#005253" fill-rule="evenodd"/>
        <path id="Path_54240" data-name="Path 54240" d="M489.93,224.666c-4.989.134-16.159,20.89-17.524,21.59s-20.032-.887-20.83-.9-1.64,5.483-1.595,6.732c0,0,15.794,6.948,23.744,6.135s21.433-20,22.429-21.443C500.457,230.55,495.84,224.508,489.93,224.666Z" transform="translate(-433.828 -181.141)" fill="#00888b" fill-rule="evenodd"/>
        <path id="Path_54241" data-name="Path 54241" d="M506.271,179.743c-.587,6.3-6.085,3.813-6.057,6.492l-.083.01c-4.7.51-5.241-1.651-5.3-2.149s-.228-3.04-.347-3.209-1.235-.047-1.3-.686a51.122,51.122,0,0,1,1.149-9.12,11.525,11.525,0,0,1,5.237-7.142c8.1.635,5.251,11.229,6.825,10.494s2.989.4,2.478,2.394C508.159,179.621,511.194,182.288,506.271,179.743Z" transform="translate(-450.79 -157.296)" fill="#f5ac83" fill-rule="evenodd"/>
        <path id="Path_54242" data-name="Path 54242" d="M503.208,170.208s-3.057-.966-1.729-5.668c0,0-4.61.862-6.542.1s-2.918-7.325-.878-9.619,1.534,1.1,1.534,1.1,8.678-3.273,12.179-3.114,5.954,6.093,5.932,8.316c0,0,.711-1.611,1.85-1.526s-.574,2.344-.574,2.344,1.89,1.134,2.156,2.671c.259,1.49-4.827,8.186-6.486,11.554l-.049.112c-.362.834-1.322,1.53-2.018.915a3.747,3.747,0,0,1-1.279-3.262s1.656-3.128.084-3.912c0,0-1.044-.974-2.212,1.225a7.42,7.42,0,0,0-.2,2.2,13.652,13.652,0,0,1-.658,7.181c-1.336,3.594-5.181,3.012-6.526,3.157s-2.964-.284-3.114-1.659-.485-4.478-.536-4.949.12-.772.251-.782c0,0,2.236-.123,3.854-.131s2.778.092,3.661-.836a4.533,4.533,0,0,0,1.609-3.441A5.606,5.606,0,0,0,503.208,170.208Z" transform="translate(-450.694 -153.001)" fill="#101537" fill-rule="evenodd"/>
        <g id="Group_5827" data-name="Group 5827" transform="translate(0 18.215)">
          <path id="Path_54243" data-name="Path 54243" d="M458.815,211.566s-.374.381-.284.709.881.777,1.577,1.067,1.55.613,1.55.613a6.953,6.953,0,0,0,1.439,1.8c.61.372.906.653.945.539s-.36-3.365-.832-3.749S458.815,211.566,458.815,211.566Z" transform="translate(-437.181 -194.213)" fill="#ee9073" fill-rule="evenodd"/>
          <path id="Path_54244" data-name="Path 54244" d="M459.6,214.285s1.714,1.877,2.11,2.234a6.773,6.773,0,0,0,2.146.858,24.208,24.208,0,0,1,3.57,1.311,19.871,19.871,0,0,1,1.556,1.812l2.543-2.737a30.683,30.683,0,0,1-2.878-2.442c-.44-.574-3.159-4.107-3.739-4.644s-5.945-2.025-6.225-2.014-.278.817.569,1.286a27.763,27.763,0,0,0,2.842,1.179s1.019,2.3,1.258,2.654c0,0-.72.592-.937.73s-1.417-.663-1.708-.741S459.624,213.974,459.6,214.285Z" transform="translate(-437.182 -193.074)" fill="#f5ac83" fill-rule="evenodd"/>
          <path id="Path_54245" data-name="Path 54245" d="M479.651,224.1l-1.412-1.7a4.8,4.8,0,0,0-.949-.921,9.466,9.466,0,0,0-1.47-.831,1.8,1.8,0,0,0-1.678.791c-.7.86-2.027,2.33-1.951,3.215s2.163,2.386,2.339,2.579S479.651,224.1,479.651,224.1Z" transform="translate(-442.549 -197.771)" fill="#e94d90" fill-rule="evenodd"/>
          <path id="Path_54246" data-name="Path 54246" d="M460.3,217.579s1.713,1.877,2.11,2.235a4.176,4.176,0,0,0,1.512.655l-.3-3.046c-.2.156-.408.32-.51.384-.216.138-1.416-.663-1.708-.741S460.323,217.269,460.3,217.579Z" transform="translate(-437.882 -196.368)" fill="#f5ac83" fill-rule="evenodd"/>
          <g id="Group_5826" data-name="Group 5826">
            <g id="Group_5824" data-name="Group 5824" transform="translate(0 21.35)">
              <rect id="Rectangle_2268" data-name="Rectangle 2268" width="25.609" height="26.485" transform="translate(14.826)" fill="#f8b243"/>
              <rect id="Rectangle_2269" data-name="Rectangle 2269" width="19.206" height="26.485" fill="#c48137"/>
              <rect id="Rectangle_2270" data-name="Rectangle 2270" width="3.976" height="9.233" transform="translate(7.615)" fill="#f8b243"/>
              <rect id="Rectangle_2271" data-name="Rectangle 2271" width="3.976" height="4.01" transform="translate(7.615 12.349)" fill="#f8b243"/>
            </g>
            <g id="Group_5825" data-name="Group 5825" transform="translate(5.586)">
              <rect id="Rectangle_2272" data-name="Rectangle 2272" width="20.644" height="21.35" fill="#f8b243"/>
              <rect id="Rectangle_2273" data-name="Rectangle 2273" width="15.483" height="21.35" transform="translate(17.113)" fill="#c48137"/>
              <rect id="Rectangle_2274" data-name="Rectangle 2274" width="3.205" height="7.443" transform="translate(23.252)" fill="#f8b243"/>
              <rect id="Rectangle_2275" data-name="Rectangle 2275" width="3.205" height="3.232" transform="translate(23.252 9.955)" fill="#f8b243"/>
            </g>
          </g>
        </g>
      </g>
      <g id="Group_5830" data-name="Group 5830" transform="translate(0 15.553)">
        <g id="Group_5829" data-name="Group 5829">
          <path id="Path_54247" data-name="Path 54247" d="M289.847,187.238c-.861-.206-2.095.961-1.919,2.269.2,1.488,2.3,2.59,2.664,1.9C290.71,191.18,290.673,187.435,289.847,187.238Z" transform="translate(-286.248 -181.988)" fill="#f08e70" fill-rule="evenodd"/>
          <path id="Path_54248" data-name="Path 54248" d="M285.622,178.609a39.6,39.6,0,0,0,5.436,4.993l3.793,7.649-3.856,1.77-.379-2.528s-2.194-.768-2.763-1.083a7.1,7.1,0,0,1-1.7-1.855c-.717-1.228.32-1.584.618-1.343a14.183,14.183,0,0,0,1.742,1.048,2.619,2.619,0,0,0,.592-1.99C288.887,184.226,283.631,179.525,285.622,178.609Z" transform="translate(-285.173 -178.609)" fill="#f5ac83" fill-rule="evenodd"/>
        </g>
        <path id="Path_54249" data-name="Path 54249" d="M290.119,293.338l16.1,3.035a1.049,1.049,0,0,1,.834,1.222h0a1.049,1.049,0,0,1-1.222.834l-16.1-3.035a1.049,1.049,0,0,1-.834-1.222h0A1.048,1.048,0,0,1,290.119,293.338Z" transform="translate(-286.628 -223.653)" fill="#545664" fill-rule="evenodd"/>
        <path id="Path_54250" data-name="Path 54250" d="M311.148,296.123c-1,0-2.672-1.243-3.574-1.815,0,0-2.789.483-2.324,1.036a4.864,4.864,0,0,0,2.033.875s-.232,1.439-2.44,1.325-3.6.086-3.226.749,1.54.739,1.54.739a4.144,4.144,0,0,0,1.627,1.326c.872.289.958.324.958.324s.408.666,2.237.726,5.869-1.624,5.9-2.29S311.148,296.123,311.148,296.123Z" transform="translate(-291.606 -224.041)" fill="#f5ac83" fill-rule="evenodd"/>
        <path id="Path_54251" data-name="Path 54251" d="M332.377,219.289c-6.534-1.247-14.955-.024-20.86-3.394-4.1-2.341-12.694-16.626-13.755-20.248-.09-.306-5.175,2.425-4.638,3.608,2.135,4.7,7.277,18.083,14.45,23.887,9.185,7.431,24.022,6.951,24.225,7.031,1.105.43-3.953-5.4-3.4-6.2S334,220.379,332.377,219.289Z" transform="translate(-288.28 -185.29)" fill="#f18a00" fill-rule="evenodd"/>
        <path id="Path_54252" data-name="Path 54252" d="M344.126,444.854l-4.165.861a5.182,5.182,0,0,1-.34,2.885c-.632.95,3.415,2.507,3.415,2.507l1.917-2.412.114-1.924Z" transform="translate(-306.527 -283.156)" fill="#ee9073" fill-rule="evenodd"/>
        <path id="Path_54253" data-name="Path 54253" d="M332.231,305.5l-3.157,5.728s3.1,34.644,3.8,38.637c.686,3.912,3.755,28.756,2.656,40.308-.082.86-.224,1.18.388,1.373l4.823.142c.718-.01.494-.462.49-1.482-.027-5.112,1.869-25.1,2.007-28.017a33.528,33.528,0,0,0-.709-7.1c-.112-.929,4.913-42.224,4.363-48.564S332.231,305.5,332.231,305.5Z" transform="translate(-302.412 -227.616)" fill="#080321" fill-rule="evenodd"/>
        <path id="Path_54254" data-name="Path 54254" d="M344.96,396.768l.587.017c.34-5.822.8-14.06.99-19.1.225-5.961-.088-12.321-.276-16.133-.078-1.579-.134-2.72-.121-3.2.043-1.654,1.34-41.435,1.343-41.55a.294.294,0,0,0-.587-.018c0,.114-1.3,39.855-1.343,41.552-.013.507.043,1.655.122,3.244.188,3.806.5,10.154.276,16.082C345.761,382.687,345.3,390.942,344.96,396.768Z" transform="translate(-308.65 -232.754)" fill="#fcc100" fill-rule="evenodd"/>
        <path id="Path_54255" data-name="Path 54255" d="M342.905,213.495l-1.357,3.739a3.07,3.07,0,0,1,1.844,3.29,2.435,2.435,0,0,0,1.861,2.888s4.258-4.476,4.214-4.939S350.06,213.474,342.905,213.495Z" transform="translate(-307.31 -192.308)" fill="#ee9073" fill-rule="evenodd"/>
        <path id="Path_54256" data-name="Path 54256" d="M339.56,207.6c-5.34-2.061-.55-11.084,1.2-14a10.271,10.271,0,0,1,6.55-4.4c2.328,1.052,5.319,2.435,5.625,4.007C354.035,198.827,349.726,211.524,339.56,207.6Z" transform="translate(-305.567 -182.768)" fill="#f5ac83" fill-rule="evenodd"/>
        <path id="Path_54257" data-name="Path 54257" d="M325.676,232.657c-1.594,5.641,2.921,14.873,1.982,22.381-1.838,14.7-8.457,31.107-8.371,32.275.118,1.606,19.53,3.66,28.92.534a1.012,1.012,0,0,0,.625-1.383c-.437-1-6.187-24.518-4.546-40.694.769-7.584,3.509-12.647,3.888-15.394.43-3.113-.169-4.14-1.035-5.389-2.661-3.843-7.862-7.752-10.341-2.961C333.6,228.2,326.283,230.507,325.676,232.657Z" transform="translate(-298.568 -194.788)" fill="#fcc100" fill-rule="evenodd"/>
        <path id="Path_54258" data-name="Path 54258" d="M335.391,232.956c-3.719,11.622-3.487,28.357-3.487,28.357l-14.411,11.158,1.394,4.648s20.338-7.9,21.965-15.806,3.371-25.568,3.371-25.568Z" transform="translate(-297.864 -199.95)" fill="#f18a00" fill-rule="evenodd"/>
        <path id="Path_54259" data-name="Path 54259" d="M321.316,456.965h15.376a.994.994,0,0,0,.913-1.073v-3.562c0-.658-.825-1.219-.825-1.219s-2.238,1.244-6.067-.025a2.949,2.949,0,0,0-1.679.073c-1.12.292-8.954,3.317-8.954,3.317a1.637,1.637,0,0,0-.9,1.269C319.181,456.563,319.564,456.929,321.316,456.965Z" transform="translate(-298.527 -285.573)" fill="#f18a00" fill-rule="evenodd"/>
        <path id="Rectangle_2276" data-name="Rectangle 2276" d="M.541,0H18.074a.541.541,0,0,1,.541.541V.725a.541.541,0,0,1-.541.541H.542A.542.542,0,0,1,0,.724V.541A.541.541,0,0,1,.541,0Z" transform="translate(20.646 171.149)" fill="#fff"/>
        <path id="Path_54260" data-name="Path 54260" d="M346.893,189.054c-1.207,1.19-3.472,1.79-6.551.293-.073.109-.144.221-.213.336-.61,1.014-1.156,1.981-1.63,2.861,0,0-3.579-4.576-2.927-8.718s9.886-4.863,11.711-4.548,1.841,2.435,1.841,2.435a10.169,10.169,0,0,1,7.119,1.3c3.12,2.149,3.69,8.6,3.017,11.788s-6.819,8.161-3.362,16.5-1.595,14.514-9.38,13.068-11.587-12.256-2.854-22.015c0,0,3.982-3.692,3.4-6.084S345.04,192.875,346.893,189.054Z" transform="translate(-304.932 -178.846)" fill="#101537" fill-rule="evenodd"/>
        <path id="Path_54261" data-name="Path 54261" d="M294.082,194.069a4.984,4.984,0,0,1-2.463,1,4.824,4.824,0,0,1-.987.024c.3.124.657.259.987.383.608.227,1.14.413,1.14.413l.113.755a10.359,10.359,0,0,1,1.209-.929,16.139,16.139,0,0,1,1.906-1.1l-1.124-2.268a3.426,3.426,0,0,1-.149.9A1.921,1.921,0,0,1,294.082,194.069Z" transform="translate(-287.316 -184.004)" fill="#f08e70" fill-rule="evenodd"/>
        <path id="Path_54262" data-name="Path 54262" d="M339.618,279.007c4.594-2.416,6.371-4.544,7.173-9.267.059-.349.112-.711.162-1.088v0a70.629,70.629,0,0,1,.224-9.766,40.683,40.683,0,0,1,.751-4.655q.115-.523.239-1.024a9.051,9.051,0,0,1-1.424.326c-.022.187-.044.373-.066.562-.63,5.276-1.442,11.359-2.228,15.172a5.706,5.706,0,0,1-.248.858,12.862,12.862,0,0,1-3.7,4.794c-3.656,3.229-9.049,6.1-12.982,7.952-.287,1.067-.579,2.111-.873,3.124,2.464-1.388,5.66-3.159,8.886-4.866,1.187-.629,2.378-1.248,3.539-1.837Q339.352,279.147,339.618,279.007Z" transform="translate(-301.459 -207.901)" fill="#f8b000" fill-rule="evenodd"/>
      </g>
    </g>
  </g>
</svg>
