<svg xmlns="http://www.w3.org/2000/svg" xmlns:xlink="http://www.w3.org/1999/xlink" width="664" height="654" viewBox="0 0 664 654">
  <defs>
    <linearGradient id="linear-gradient" x1="0.18" y1="0.102" x2="0.902" y2="1" gradientUnits="objectBoundingBox">
      <stop offset="0" stop-color="#9300ff"/>
      <stop offset="1" stop-color="#671fde"/>
    </linearGradient>
    <clipPath id="clip-path">
      <rect id="Rectangle_1837" data-name="Rectangle 1837" width="328.139" height="429.811" fill="none"/>
    </clipPath>
  </defs>
  <g id="Group_6151" data-name="Group 6151" transform="translate(-35 -37)">
    <g id="Rectangle_2456" data-name="Rectangle 2456" transform="translate(35 37)" stroke="#707070" stroke-width="1" fill="url(#linear-gradient)">
      <rect width="664" height="654" rx="188" stroke="none"/>
      <rect x="0.5" y="0.5" width="663" height="653" rx="187.5" fill="none"/>
    </g>
  </g>
  <g id="Group_6155" data-name="Group 6155" transform="translate(-35 -37)">
    <g id="Component_289" data-name="Component 289" transform="translate(204.783 153.115)">
      <g id="Group_555" data-name="Group 555" clip-path="url(#clip-path)">
        <g id="Logo_Purple" data-name="Logo Purple" transform="translate(-0.001 0)">
          <g id="Optimize" transform="translate(7.408 359.174)">
            <g id="Group_554" data-name="Group 554">
              <path id="Path_639" data-name="Path 639" d="M1970.852,2505.7a24.649,24.649,0,0,1,9.311,8.963,23.849,23.849,0,0,1,3.418,12.52,24.2,24.2,0,0,1-3.418,12.589,24.727,24.727,0,0,1-9.311,9.068,26.921,26.921,0,0,1-25.877,0,24.711,24.711,0,0,1-9.312-9.068,24.2,24.2,0,0,1-3.418-12.589,23.842,23.842,0,0,1,3.418-12.52,24.711,24.711,0,0,1,9.276-8.963,27.238,27.238,0,0,1,25.912,0Zm-22.32,5.231a19.078,19.078,0,0,0-6.94,6.8,18.66,18.66,0,0,0,0,18.937,19.258,19.258,0,0,0,6.94,6.87,18.408,18.408,0,0,0,9.451,2.545,18.043,18.043,0,0,0,9.381-2.545,19.16,19.16,0,0,0,6.836-6.87,18.88,18.88,0,0,0,0-18.937,18.976,18.976,0,0,0-6.836-6.8,18.236,18.236,0,0,0-9.381-2.511A18.606,18.606,0,0,0,1948.533,2510.932Z" transform="translate(-1932.246 -2500.051)" fill="#fff"/>
              <path id="Path_640" data-name="Path 640" d="M2064.906,2525.453a16.291,16.291,0,0,1,6.278,6.626,22.408,22.408,0,0,1,.035,19.425,15.928,15.928,0,0,1-6.208,6.556,17.875,17.875,0,0,1-9.172,2.337,16.821,16.821,0,0,1-8.231-1.953,14,14,0,0,1-5.58-5.58v20.855h-6.487v-50.429h6.487v7.324a14.072,14.072,0,0,1,5.545-5.58,16.492,16.492,0,0,1,8.126-1.953A17.872,17.872,0,0,1,2064.906,2525.453Zm-4.081,27.621a11.516,11.516,0,0,0,4.395-4.674,14.373,14.373,0,0,0,1.569-6.766,13.978,13.978,0,0,0-1.6-6.7,11.852,11.852,0,0,0-4.394-4.673,12.1,12.1,0,0,0-6.348-1.673,12.279,12.279,0,0,0-6.382,1.673,11.763,11.763,0,0,0-4.429,4.673,14.994,14.994,0,0,0,0,13.5,11.813,11.813,0,0,0,4.429,4.638,13,13,0,0,0,12.764,0Z" transform="translate(-1974.861 -2508.574)" fill="#fff"/>
              <path id="Path_641" data-name="Path 641" d="M2132.513,2551.821a15.9,15.9,0,0,1-8.648,2.72,9.836,9.836,0,0,1-7.115-2.615q-2.72-2.616-2.721-7.916v-20.437h-5.23v-4.952h5.23v-9.9h6.557v9.9h11.3v4.952h-11.3v19.251a6.831,6.831,0,0,0,1.116,4.4,4.127,4.127,0,0,0,3.348,1.324,11.7,11.7,0,0,0,5.72-1.744Z" transform="translate(-2005.082 -2502.648)" fill="#fff"/>
              <path id="Path_642" data-name="Path 642" d="M2168.1,2499.572a4.484,4.484,0,0,1,0,6,4.124,4.124,0,0,1-5.789,0,4.483,4.483,0,0,1,0-6,4.126,4.126,0,0,1,5.789,0Zm-6.1,13.531h6.487V2550h-6.487Z" transform="translate(-2026.683 -2498.386)" fill="#fff"/>
              <path id="Path_643" data-name="Path 643" d="M2252.727,2526.918q3.626,3.837,3.627,10.463v22.808H2249.8v-21.065a10.139,10.139,0,0,0-2.546-7.323,9.264,9.264,0,0,0-7.01-2.651,10.591,10.591,0,0,0-8.231,3.7,13.688,13.688,0,0,0-3,9.137v18.2h-6.556v-21.065a10.221,10.221,0,0,0-2.511-7.323,9.239,9.239,0,0,0-7.045-2.651,10.7,10.7,0,0,0-8.265,3.7,13.587,13.587,0,0,0-3.034,9.137v18.2h-6.487v-36.9h6.487v7.742q3.625-7.811,13.741-7.951a14.112,14.112,0,0,1,8.475,2.441,11.975,11.975,0,0,1,4.569,6.835q3.416-9.137,14.368-9.277Q2249.1,2523.082,2252.727,2526.918Z" transform="translate(-2040.691 -2508.574)" fill="#fff"/>
              <path id="Path_644" data-name="Path 644" d="M2324.584,2499.572a4.484,4.484,0,0,1,0,6,4.125,4.125,0,0,1-5.789,0,4.484,4.484,0,0,1,0-6,4.126,4.126,0,0,1,5.789,0Zm-6.1,13.531h6.487V2550h-6.487Z" transform="translate(-2091.241 -2498.386)" fill="#fff"/>
              <path id="Path_645" data-name="Path 645" d="M2347.24,2523.438l29.644.07v4.6l-22.32,26.854,22.878.07v5.371l-30.829-.07v-4.6l22.25-26.854-21.623-.069Z" transform="translate(-2103.192 -2508.721)" fill="#fff"/>
              <path id="Path_646" data-name="Path 646" d="M2439.028,2528.139q4.394,5.058,4.395,14.054c0,.931-.025,1.628-.07,2.093H2414.2a12.572,12.572,0,0,0,4.15,7.882,12.284,12.284,0,0,0,8.335,2.929,15.6,15.6,0,0,0,6.1-1.186,14.652,14.652,0,0,0,4.917-3.348l3.558,3.7a18.636,18.636,0,0,1-6.556,4.533,21.826,21.826,0,0,1-8.51,1.6,19.6,19.6,0,0,1-9.66-2.337,16.4,16.4,0,0,1-6.557-6.591,21.214,21.214,0,0,1,0-19.356,17.021,17.021,0,0,1,6.522-6.626,18.82,18.82,0,0,1,9.556-2.406Q2434.634,2523.082,2439.028,2528.139Zm-1.464,11.125a10.695,10.695,0,0,0-11.439-10.811,11.67,11.67,0,0,0-8.126,2.929,12.292,12.292,0,0,0-3.871,7.882Z" transform="translate(-2128.369 -2508.574)" fill="#fff"/>
            </g>
          </g>
          <g id="Group_11" data-name="Group 11">
            <g id="Ellipse_13" data-name="Ellipse 13">
              <path id="Path_647" data-name="Path 647" d="M2083,2213.709a162.872,162.872,0,1,1,63.592-12.841A162.362,162.362,0,0,1,2083,2213.709Zm0-310.879a147.512,147.512,0,1,0,104.308,43.205A146.546,146.546,0,0,0,2083,1902.83Z" transform="translate(-1919.636 -1886.978)" fill="#fff"/>
            </g>
            <g id="Path_7" data-name="Path 7" transform="translate(56.326 110.347)">
              <path id="Path_648" data-name="Path 648" d="M2015.518,2184.526l68.548-76.477,41.868,40.708,38.6-44.683-17.469-19.289,60.438-9.968-9.784,64.135-18.233-19.225-52.629,61.027-45.524-43.222Z" transform="translate(-2015.518 -2074.817)" fill="#fff"/>
            </g>
          </g>
        </g>
      </g>
    </g>
  </g>
</svg>
