<svg xmlns="http://www.w3.org/2000/svg" width="26" height="26" viewBox="0 0 26 26">
    <path d="M13,0a13,13,0,1,0,9.192,3.808A13,13,0,0,0,13,0Zm3,19.5H10l1.81-7.245a3,3,0,1,1,2.376,0Z" stroke="none" fill="none"/>
    <path d="M 12.99999523162842 1.499992370605469 L 12.99999523162842 1.500001907348633 C 11.48209476470947 1.500001907348633 10.00136566162109 1.794572830200195 8.598936080932617 2.375532150268555 C 7.196664810180664 2.956432342529297 5.941524505615234 3.795131683349609 4.868385314941406 4.868322372436523 C 3.795206069946289 5.941562652587891 2.956504821777344 7.196771621704102 2.375576019287109 8.599092483520508 C 1.794586181640625 10.00157260894775 1.499994277954102 11.48225212097168 1.499994277954102 12.99999237060547 C 1.499994277954102 14.51779270172119 1.794565200805664 15.99849224090576 2.37553596496582 17.40096282958984 C 2.956455230712891 18.80332183837891 3.795154571533203 20.05849266052246 4.868324279785156 21.1316032409668 C 5.941564559936523 22.20478248596191 7.196775436401367 23.04348182678223 8.599094390869141 23.62440299987793 C 10.0015754699707 24.20540237426758 11.48225498199463 24.49999237060547 12.99999523162842 24.49999237060547 C 14.51779556274414 24.49999237060547 15.99849510192871 24.20542144775391 17.40096664428711 23.62445259094238 C 18.80332565307617 23.04353332519531 20.05849456787109 22.20483207702637 21.13160514831543 21.13166236877441 C 22.20477485656738 20.05842208862305 23.04347610473633 18.8032112121582 23.62440490722656 17.40090179443359 C 24.20539474487305 15.99841213226318 24.49998474121094 14.51773262023926 24.49998474121094 12.99999237060547 C 24.49998474121094 11.48218250274658 24.20541572570801 10.0014820098877 23.62444496154785 8.599021911621094 C 23.04352569580078 7.196662902832031 22.20483589172363 5.941492080688477 21.13166427612305 4.868381500244141 C 20.05842590332031 3.795202255249023 18.80321502685547 2.956502914428711 17.40089416503906 2.375572204589844 C 15.99841499328613 1.794582366943359 14.51773548126221 1.499992370605469 12.99999523162842 1.499992370605469 M 15.90214824676514 12.93527984619141 L 17.45518493652344 19.13553237915039 L 17.92219543457031 20.99999237060547 L 16.00013542175293 20.99999237060547 L 9.999855041503906 20.99999237060547 L 8.079084396362305 20.99999237060547 L 8.544565200805664 19.13647270202637 L 10.09344577789307 12.93576526641846 C 8.864358901977539 11.89240741729736 8.25160026550293 10.22910213470459 8.590694427490234 8.590782165527344 C 9.019874572753906 6.5101318359375 10.87342548370361 4.999992370605469 12.99801540374756 4.999992370605469 C 15.12181568145752 4.999992370605469 16.97491455078125 6.510082244873047 17.40409469604492 8.589752197265625 C 17.74335861206055 10.22864437103271 17.13089179992676 11.89186382293701 15.90214824676514 12.93527984619141 M 12.99999523162842 -7.62939453125e-06 C 16.44785499572754 -7.62939453125e-06 19.7546558380127 1.37019157409668 22.19229507446289 3.80769157409668 C 24.62992477416992 6.24519157409668 25.99998474121094 9.552131652832031 25.99998474121094 12.99999237060547 C 25.99998474121094 16.44785308837891 24.62978553771973 19.75466156005859 22.19229507446289 22.19229316711426 C 19.75479507446289 24.62992286682129 16.44785499572754 25.99999237060547 12.99999523162842 25.99999237060547 C 9.552135467529297 25.99999237060547 6.245325088500977 24.62978172302246 3.807695388793945 22.19229316711426 C 1.370065689086914 19.75479125976562 -5.7220458984375e-06 16.44785308837891 -5.7220458984375e-06 12.99999237060547 C -5.7220458984375e-06 9.552131652832031 1.370195388793945 6.245323181152344 3.807695388793945 3.80769157409668 C 6.245195388793945 1.370061874389648 9.551876068115234 1.9073486328125e-06 12.99999523162842 1.9073486328125e-06 L 12.99999523162842 -7.62939453125e-06 Z M 16.00013542175293 19.49999237060547 L 14.18530559539795 12.25457191467285 C 15.49243545532227 11.69193267822266 16.22368621826172 10.28725242614746 15.93523502349854 8.89381217956543 C 15.64767551422119 7.500392913818359 14.42092514038086 6.499992370605469 12.99801540374756 6.499992370605469 C 11.57405567169189 6.499992370605469 10.34719562530518 7.500371932983398 10.05976486206055 8.89381217956543 C 9.771345138549805 10.28731250762939 10.50259494781494 11.69190216064453 11.80969524383545 12.25457191467285 L 9.999855041503906 19.49999237060547 L 16.00013542175293 19.49999237060547 Z" stroke="none" />
</svg>
