<svg xmlns="http://www.w3.org/2000/svg" width="21.582" height="21.54" viewBox="0 0 21.582 21.54" fill="#ff9d00">
  <path id="np_pen_24789_000000" d="M42.8,62.794a1.556,1.556,0,0,1-1.544-1.751l.664-5.363a1.565,1.565,0,0,1,.443-.909L54.5,42.639a4.992,4.992,0,0,1,6.9,0,4.886,4.886,0,0,1,0,6.9L49.261,61.673a1.565,1.565,0,0,1-.909.443l-5.364.669c-.067,0-.13.01-.192.01Zm2.145-6.2-.351,2.848,2.848-.351L59.195,47.334a1.762,1.762,0,0,0,0-2.492,1.8,1.8,0,0,0-2.492,0Z" transform="translate(-41.241 -41.254)" />
</svg>
