<svg xmlns="http://www.w3.org/2000/svg" width="34.832" height="34.832" viewBox="0 0 34.832 34.832">
  <g id="Group_5969" data-name="Group 5969" transform="translate(0 0)">
    <path id="Path_54456" data-name="Path 54456" d="M30.478,34.832H4.354A4.359,4.359,0,0,1,0,30.478V4.354A4.359,4.359,0,0,1,4.354,0H19.593a2.177,2.177,0,0,1,0,4.354H4.354V30.478H30.478V15.239a2.177,2.177,0,0,1,4.354,0V30.478A4.359,4.359,0,0,1,30.478,34.832Z" fill="#fff"/>
    <path id="Path_54457" data-name="Path 54457" d="M34.354,18.5H32.177A2.177,2.177,0,0,1,30,16.327V14.15a2.176,2.176,0,0,1,.637-1.539L42.611.638a2.176,2.176,0,0,1,3.079,0l2.177,2.177a2.177,2.177,0,0,1,0,3.078L35.893,17.867A2.177,2.177,0,0,1,34.354,18.5Z" transform="translate(-13.672)" fill="#fff"/>
  </g>
</svg>
