<svg xmlns="http://www.w3.org/2000/svg" width="17.636" height="30.231" viewBox="0 0 17.636 30.231">
  <g id="Group_5859" data-name="Group 5859" transform="translate(-28.502 -27.569)">
    <path id="np_smartphone_2610604_000000" d="M34.923,0H24.379a3.549,3.549,0,0,0-3.546,3.546V26.685a3.549,3.549,0,0,0,3.546,3.546H34.923a3.549,3.549,0,0,0,3.546-3.546V3.546A3.549,3.549,0,0,0,34.923,0Zm1.657,26.686a1.66,1.66,0,0,1-1.657,1.657H24.379a1.66,1.66,0,0,1-1.657-1.657V3.546A1.66,1.66,0,0,1,24.379,1.89h1.7a.944.944,0,0,0,.945.945h5.246a.944.944,0,0,0,.945-.945h1.7a1.66,1.66,0,0,1,1.657,1.657Z" transform="translate(7.669 27.569)" fill="#fff"/>
    <path id="np_phone_1214440_000000" d="M26.052,27.538a4.683,4.683,0,0,1-2.112-.563,8.03,8.03,0,0,1-3.355-3.359,4.693,4.693,0,0,1-.562-2.112,1.618,1.618,0,0,1,.577-1.011,1.722,1.722,0,0,1,.927-.5.859.859,0,0,1,.523.292,4.9,4.9,0,0,1,.521.582,3.25,3.25,0,0,1,.653,1.2c0,.281-.319.478-.656.685a3.739,3.739,0,0,0-.362.241c-.1.083-.123.128-.126.137a4.989,4.989,0,0,0,2.344,2.344c.008,0,.052-.02.137-.126a3.714,3.714,0,0,0,.241-.362c.208-.337.4-.656.685-.656a3.242,3.242,0,0,1,1.2.653,5,5,0,0,1,.583.521.859.859,0,0,1,.292.523,1.735,1.735,0,0,1-.5.929,1.617,1.617,0,0,1-1.012.579Z" transform="translate(13.258 18.966)" fill="#fff"/>
  </g>
</svg>
