<svg id="np_phone_857961_FFFFFF" xmlns="http://www.w3.org/2000/svg" width="73.918" height="120.959" viewBox="0 0 73.918 120.959">
  <path id="Path_199" data-name="Path 199" d="M81.075,7.387H40.759a16.823,16.823,0,0,0-16.8,16.8v87.363a16.823,16.823,0,0,0,16.8,16.8H81.081a16.823,16.823,0,0,0,16.8-16.8V24.191a16.822,16.822,0,0,0-16.8-16.8ZM91.159,111.542a10.1,10.1,0,0,1-10.085,10.085H40.759a10.1,10.1,0,0,1-10.085-10.085V24.191A10.1,10.1,0,0,1,40.759,14.106H81.081A10.1,10.1,0,0,1,91.165,24.191Z" transform="translate(-23.961 -7.387)" fill="#fff"/>
  <path id="Path_200" data-name="Path 200" d="M58.7,82.757c0,8.959-13.439,8.959-13.439,0S58.7,73.8,58.7,82.757" transform="translate(-15.029 21.398)" fill="#fff"/>
  <path id="Path_201" data-name="Path 201" d="M59.7,14.488H46.254a3.36,3.36,0,1,0,0,6.719H59.7a3.36,3.36,0,1,0,0-6.719Z" transform="translate(-16.023 -4.409)" fill="#fff"/>
</svg>
