<svg id="np_phone_857961_FFFFFF" xmlns="http://www.w3.org/2000/svg" width="37.936" height="62.079" viewBox="0 0 37.936 62.079">
  <path id="Path_199" data-name="Path 199" d="M53.273,7.387H32.582a8.634,8.634,0,0,0-8.621,8.621V60.844a8.634,8.634,0,0,0,8.621,8.621H53.276A8.634,8.634,0,0,0,61.9,60.844V16.011a8.633,8.633,0,0,0-8.624-8.624Zm5.176,53.454a5.181,5.181,0,0,1-5.176,5.176H32.582a5.181,5.181,0,0,1-5.176-5.176V16.011a5.181,5.181,0,0,1,5.176-5.176H53.276a5.181,5.181,0,0,1,5.176,5.176Z" transform="translate(-23.961 -7.387)" fill="#fff"/>
  <path id="Path_200" data-name="Path 200" d="M52.162,79.488c0,4.6-6.9,4.6-6.9,0s6.9-4.6,6.9,0" transform="translate(-29.747 -26.034)" fill="#fff"/>
  <path id="Path_201" data-name="Path 201" d="M51.518,14.488h-6.9a1.724,1.724,0,1,0,0,3.448h6.9a1.724,1.724,0,1,0,0-3.448Z" transform="translate(-29.103 -9.315)" fill="#fff"/>
</svg>
