<svg id="Group_601" data-name="Group 601" xmlns="http://www.w3.org/2000/svg" width="39.246" height="39.247" viewBox="0 0 39.246 39.247">
  <ellipse id="Ellipse_264" data-name="Ellipse 264" cx="19.623" cy="19.623" rx="19.623" ry="19.623" transform="translate(0 0)" opacity="0.151"/>
  <path id="np_smartphone_2610604_000000" d="M30.054,0h-6.9a2.323,2.323,0,0,0-2.321,2.321V17.465a2.323,2.323,0,0,0,2.321,2.321h6.9a2.323,2.323,0,0,0,2.321-2.321V2.321A2.323,2.323,0,0,0,30.054,0Zm1.084,17.465a1.087,1.087,0,0,1-1.084,1.084h-6.9a1.087,1.087,0,0,1-1.084-1.084V2.321a1.087,1.087,0,0,1,1.084-1.084h1.115a.618.618,0,0,0,.618.618H28.32a.618.618,0,0,0,.618-.618h1.115a1.087,1.087,0,0,1,1.084,1.084Z" transform="translate(-7.415 9.524)" fill="#fff"/>
  <path id="np_phone_1214440_000000" d="M23.969,24.932a3.065,3.065,0,0,1-1.382-.368,5.256,5.256,0,0,1-2.2-2.2,3.071,3.071,0,0,1-.368-1.382,1.059,1.059,0,0,1,.378-.661A1.127,1.127,0,0,1,21.007,20a.562.562,0,0,1,.342.191,3.21,3.21,0,0,1,.341.381,2.127,2.127,0,0,1,.427.785c0,.184-.209.313-.429.448a2.447,2.447,0,0,0-.237.157c-.068.055-.081.084-.083.09A3.265,3.265,0,0,0,22.9,23.582c.005,0,.034-.013.09-.082a2.431,2.431,0,0,0,.157-.237c.136-.22.264-.429.448-.429a2.122,2.122,0,0,1,.785.427,3.27,3.27,0,0,1,.381.341.562.562,0,0,1,.191.342,1.135,1.135,0,0,1-.325.608,1.058,1.058,0,0,1-.662.379Z" transform="translate(-3.478 -3.015)" fill="#fff"/>
</svg>
