<svg xmlns="http://www.w3.org/2000/svg" width="21.847" height="21.847" viewBox="0 0 21.847 21.847">
  <path d="M 10.92330074310303 21.34660148620605 C 10.27248096466064 21.34660148620605 9.743000984191895 20.81672096252441 9.743000984191895 20.16540145874023 L 9.743000984191895 12.60360050201416 L 9.743000984191895 12.10360050201416 L 9.243000984191895 12.10360050201416 L 1.681200742721558 12.10360050201416 C 1.02988076210022 12.10360050201416 0.5000007152557373 11.57412052154541 0.5000007152557373 10.92330074310303 C 0.5000007152557373 10.27248096466064 1.02988076210022 9.743000984191895 1.681200742721558 9.743000984191895 L 9.243000984191895 9.743000984191895 L 9.743000984191895 9.743000984191895 L 9.743000984191895 9.243000984191895 L 9.743000984191895 1.680300712585449 C 9.743000984191895 1.029480695724487 10.27248096466064 0.5000007152557373 10.92330074310303 0.5000007152557373 C 11.57412052154541 0.5000007152557373 12.10360050201416 1.029480695724487 12.10360050201416 1.680300712585449 L 12.10360050201416 9.243000984191895 L 12.10360050201416 9.743000984191895 L 12.60360050201416 9.743000984191895 L 20.16629981994629 9.743000984191895 C 20.8171215057373 9.743000984191895 21.34660148620605 10.27248096466064 21.34660148620605 10.92330074310303 C 21.34660148620605 11.57412052154541 20.8171215057373 12.10360050201416 20.16629981994629 12.10360050201416 L 12.60360050201416 12.10360050201416 L 12.10360050201416 12.10360050201416 L 12.10360050201416 12.60360050201416 L 12.10360050201416 20.16540145874023 C 12.10360050201416 20.81672096252441 11.57412052154541 21.34660148620605 10.92330074310303 21.34660148620605 Z" stroke="none"/>
  <path d="M 10.92330074310303 20.84660148620605 C 11.29842090606689 20.84660148620605 11.60360050201416 20.5410099029541 11.60360050201416 20.16540145874023 L 11.60360050201416 12.60360050201416 L 11.60360050201416 11.60360050201416 L 12.60360050201416 11.60360050201416 L 20.16629981994629 11.60360050201416 C 20.54141998291016 11.60360050201416 20.84660148620605 11.29842090606689 20.84660148620605 10.92330074310303 C 20.84660148620605 10.54818058013916 20.54141998291016 10.24300098419189 20.16629981994629 10.24300098419189 L 12.60360050201416 10.24300098419189 L 11.60360050201416 10.24300098419189 L 11.60360050201416 9.243000984191895 L 11.60360050201416 1.680300712585449 C 11.60360050201416 1.305180788040161 11.29842090606689 1.000000715255737 10.92330074310303 1.000000715255737 C 10.54818058013916 1.000000715255737 10.24300098419189 1.305180788040161 10.24300098419189 1.680300712585449 L 10.24300098419189 9.243000984191895 L 10.24300098419189 10.24300098419189 L 9.243000984191895 10.24300098419189 L 1.681200742721558 10.24300098419189 C 1.305590748786926 10.24300098419189 1.000000715255737 10.54818058013916 1.000000715255737 10.92330074310303 C 1.000000715255737 11.29842090606689 1.305590748786926 11.60360050201416 1.681200742721558 11.60360050201416 L 9.243000984191895 11.60360050201416 L 10.24300098419189 11.60360050201416 L 10.24300098419189 12.60360050201416 L 10.24300098419189 20.16540145874023 C 10.24300098419189 20.5410099029541 10.54818058013916 20.84660148620605 10.92330074310303 20.84660148620605 M 10.92330074310303 21.84660148620605 C 9.995400428771973 21.84660148620605 9.243000984191895 21.09420013427734 9.243000984191895 20.16540145874023 L 9.243000984191895 12.60360050201416 L 1.681200742721558 12.60360050201416 C 0.7524007558822632 12.60360050201416 7.43103043987503e-07 11.85120105743408 7.43103043987503e-07 10.92330074310303 C 7.43103043987503e-07 9.994501113891602 0.7524007558822632 9.243000984191895 1.681200742721558 9.243000984191895 L 9.243000984191895 9.243000984191895 L 9.243000984191895 1.680300712585449 C 9.243000984191895 0.7524007558822632 9.995400428771973 7.43103043987503e-07 10.92330074310303 7.43103043987503e-07 C 11.85120105743408 7.43103043987503e-07 12.60360050201416 0.7524007558822632 12.60360050201416 1.680300712585449 L 12.60360050201416 9.243000984191895 L 20.16629981994629 9.243000984191895 C 21.09420013427734 9.243000984191895 21.84660148620605 9.994501113891602 21.84660148620605 10.92330074310303 C 21.84660148620605 11.85120105743408 21.09420013427734 12.60360050201416 20.16629981994629 12.60360050201416 L 12.60360050201416 12.60360050201416 L 12.60360050201416 20.16540145874023 C 12.60360050201416 21.09420013427734 11.85120105743408 21.84660148620605 10.92330074310303 21.84660148620605 Z" stroke="none" fill="none"/>
</svg>
