<svg id="Component_287_30" data-name="Component 287 – 30" xmlns="http://www.w3.org/2000/svg" width="30" height="30"
    viewBox="0 0 30 30">
    <g id="Rectangle_2322" data-name="Rectangle 2322" fill="rgba(147,4,255,0.29)" stroke="#9300ff" stroke-width="1">
        <rect width="30" height="30" rx="15" stroke="none" />
        <rect x="0.5" y="0.5" width="29" height="29" rx="14.5" fill="none" />
    </g>
    <g id="Union_62" data-name="Union 62" transform="translate(9.999 10)" fill="#9300ff">
        <path
            d="M 5.000400066375732 9.500800132751465 C 4.852290153503418 9.500800132751465 4.731800079345703 9.379899978637695 4.731800079345703 9.231300354003906 L 4.731800079345703 5.769000053405762 L 4.731800079345703 5.269000053405762 L 4.231800079345703 5.269000053405762 L 0.769500195980072 5.269000053405762 C 0.6213902235031128 5.269000053405762 0.5009002089500427 5.148509979248047 0.5009002089500427 5.000400066375732 C 0.5009002089500427 4.851799964904785 0.6213902235031128 4.730900287628174 0.769500195980072 4.730900287628174 L 4.231800079345703 4.730900287628174 L 4.731800079345703 4.730900287628174 L 4.731800079345703 4.230900287628174 L 4.731800079345703 0.7695000767707825 C 4.731800079345703 0.6209000945091248 4.852290153503418 0.5000000596046448 5.000400066375732 0.5000000596046448 C 5.14900016784668 0.5000000596046448 5.269900321960449 0.6209000945091248 5.269900321960449 0.7695000767707825 L 5.269900321960449 4.230900287628174 L 5.269900321960449 4.730900287628174 L 5.769900321960449 4.730900287628174 L 9.231300354003906 4.730900287628174 C 9.379899978637695 4.730900287628174 9.500800132751465 4.851799964904785 9.500800132751465 5.000400066375732 C 9.500800132751465 5.148509979248047 9.379899978637695 5.269000053405762 9.231300354003906 5.269000053405762 L 5.769900321960449 5.269000053405762 L 5.269900321960449 5.269000053405762 L 5.269900321960449 5.769000053405762 L 5.269900321960449 9.231300354003906 C 5.269900321960449 9.379899978637695 5.14900016784668 9.500800132751465 5.000400066375732 9.500800132751465 Z"
            stroke="none" />
        <path
            d="M 5.000400066375732 10.00080013275146 C 4.575600147247314 10.00080013275146 4.231800079345703 9.656100273132324 4.231800079345703 9.231300354003906 L 4.231800079345703 5.769000053405762 L 0.769500195980072 5.769000053405762 C 0.3447001874446869 5.769000053405762 0.000900200626347214 5.42519998550415 0.000900200626347214 5.000400066375732 C 0.000900200626347214 4.575600147247314 0.3447001874446869 4.230900287628174 0.769500195980072 4.230900287628174 L 4.231800079345703 4.230900287628174 L 4.231800079345703 0.7695000767707825 C 4.231800079345703 0.3447000682353973 4.575600147247314 6.637573335410707e-08 5.000400066375732 6.637573335410707e-08 C 5.42519998550415 6.637573335410707e-08 5.769900321960449 0.3447000682353973 5.769900321960449 0.7695000767707825 L 5.769900321960449 4.230900287628174 L 9.231300354003906 4.230900287628174 C 9.656100273132324 4.230900287628174 10.00080013275146 4.575600147247314 10.00080013275146 5.000400066375732 C 10.00080013275146 5.42519998550415 9.656100273132324 5.769000053405762 9.231300354003906 5.769000053405762 L 5.769900321960449 5.769000053405762 L 5.769900321960449 9.231300354003906 C 5.769900321960449 9.656100273132324 5.42519998550415 10.00080013275146 5.000400066375732 10.00080013275146 Z"
            stroke="none" fill="#9300ff" />
    </g>
</svg>