<svg xmlns="http://www.w3.org/2000/svg" width="32" height="32" viewBox="0 0 32 32">
	<path id="Path_54541" data-name="Path 54541" d="M16,0A16,16,0,1,1,0,16,16,16,0,0,1,16,0Z" fill="#fff" />
	<path id="Path_1552" data-name="Path 1552"
		d="M.308-6.622A3.262,3.262,0,0,1,1.176-9a3.178,3.178,0,0,1,2.352-.854,3.491,3.491,0,0,1,2.226.644,2.174,2.174,0,0,1,.812,1.806A2.13,2.13,0,0,1,6.23-6.174a5.789,5.789,0,0,1-.98,1.05,5.835,5.835,0,0,0-.826.875,1.485,1.485,0,0,0-.266.889H2.3a2.73,2.73,0,0,1,.161-.98,2.386,2.386,0,0,1,.392-.693,8.572,8.572,0,0,1,.6-.623,4.207,4.207,0,0,0,.6-.665A1.175,1.175,0,0,0,4.242-7q0-.854-.952-.854-1.05,0-1.064,1.246ZM3.178-2.31a1.175,1.175,0,0,1,.868.336,1.175,1.175,0,0,1,.336.868,1.2,1.2,0,0,1-.336.875,1.162,1.162,0,0,1-.868.343,1.145,1.145,0,0,1-.854-.343,1.2,1.2,0,0,1-.336-.875,1.188,1.188,0,0,1,.329-.868A1.151,1.151,0,0,1,3.178-2.31Z"
		transform="translate(13 21)" fill="#9300FF" />

</svg>