<svg xmlns="http://www.w3.org/2000/svg" width="36" height="36" viewBox="0 0 36 36">
  <g id="np_registration_2018816_000000" transform="translate(-10.704 -10.602)">
    <path id="Path_719" data-name="Path 719" d="M45.056,21.214A6.5,6.5,0,0,0,46.7,16.96,6.384,6.384,0,0,0,36.091,12.2a18.556,18.556,0,0,0-7.41-1.555A18.027,18.027,0,1,0,45.1,21.352c0-.046-.046-.093-.046-.138ZM28.679,44.772a16.112,16.112,0,0,1-8.92-2.653,2,2,0,0,1,.046-.229,8.873,8.873,0,0,1,17.747,0,.34.34,0,0,0,.046.229,16.112,16.112,0,0,1-8.92,2.653ZM24.653,26.7a4.026,4.026,0,1,1,8.052,0,3.971,3.971,0,0,1-3.522,3.979c-.182,0-.32.046-.5.046a1.86,1.86,0,0,1-.5-.046A4.005,4.005,0,0,1,24.653,26.7Zm15.1,13.676a11.235,11.235,0,0,0-7-8.92A6.225,6.225,0,0,0,34.99,26.7a6.312,6.312,0,0,0-12.624-.047,6.249,6.249,0,0,0,2.241,4.8,11.237,11.237,0,0,0-7,8.92,16.147,16.147,0,0,1,11.069-27.9,16.531,16.531,0,0,1,6.175,1.235,6.507,6.507,0,0,0-.868,3.249,6.374,6.374,0,0,0,6.357,6.357,6.1,6.1,0,0,0,3.249-.915,15.892,15.892,0,0,1,1.235,6.222A16.15,16.15,0,0,1,39.748,40.38Zm.6-18.846a4.528,4.528,0,1,1,4.528-4.528A4.509,4.509,0,0,1,40.344,21.534Z" transform="translate(0)" fill="#6c63ff"/>
    <path id="Path_720" data-name="Path 720" d="M74.928,21.189a.917.917,0,0,1-.915.915H73.007V23.11a.915.915,0,1,1-1.83,0V22.1h-.961a.915.915,0,0,1,0-1.83h.961v-.961a.915.915,0,0,1,1.83,0v.961h1.006A.918.918,0,0,1,74.928,21.189Z" transform="translate(-31.793 -4.23)" fill="#6c63ff"/>
  </g>
</svg>
