<svg xmlns="http://www.w3.org/2000/svg" width="22.875" height="18.383" viewBox="0 0 22.875 18.383">
  <path id="Path_1531" data-name="Path 1531" d="M201.8,360.59a.526.526,0,0,0,.016-.176c0-.024.012-.045.007-.07a.544.544,0,0,0-.106-.2c-.005-.008,0-.017-.009-.025s-.026-.011-.036-.021a.591.591,0,0,0-.285-.17l-.018,0a.367.367,0,0,0-.106-.013l-21.745.133a.571.571,0,0,0-.405.972l7.147,7.278.779,9.474a.572.572,0,0,0,.405.5.589.589,0,0,0,.165.025.576.576,0,0,0,.449-.217l13.657-17.237c.015-.02.009-.046.022-.067A.514.514,0,0,0,201.8,360.59Zm-2.89.481-10.5,5.492-1.484.776-6.048-6.159Zm-11.495,7.3,5.9-3.085,5.831-3.05L188.059,376.23Z" transform="translate(-178.947 -359.91)" fill="#2a2a2a"/>
</svg>
