<svg id="settings" xmlns="http://www.w3.org/2000/svg" width="38" height="38" viewBox="0 0 38 38">
  <path id="Path_1981" data-name="Path 1981" d="M29.44,19.385a12.339,12.339,0,0,0,.111-1.552,12.339,12.339,0,0,0-.111-1.552l3.341-2.612a.8.8,0,0,0,.19-1.013L29.8,7.178a.8.8,0,0,0-.966-.348L24.9,8.413A11.568,11.568,0,0,0,22.22,6.861l-.6-4.2A.772.772,0,0,0,20.842,2H14.509a.772.772,0,0,0-.776.665l-.6,4.2a12.165,12.165,0,0,0-2.676,1.552L6.513,6.829a.772.772,0,0,0-.966.348L2.38,12.656a.781.781,0,0,0,.19,1.013l3.341,2.613A12.557,12.557,0,0,0,5.8,17.833a12.557,12.557,0,0,0,.111,1.552L2.57,22a.8.8,0,0,0-.19,1.013l3.167,5.478a.8.8,0,0,0,.966.348l3.943-1.583a11.568,11.568,0,0,0,2.676,1.552l.6,4.2a.772.772,0,0,0,.776.665h6.333A.772.772,0,0,0,21.618,33l.6-4.2A12.165,12.165,0,0,0,24.9,27.254l3.942,1.583a.772.772,0,0,0,.966-.348l3.167-5.478A.8.8,0,0,0,32.78,22Zm-11.764,3.99a5.542,5.542,0,1,1,5.542-5.542A5.548,5.548,0,0,1,17.675,23.375Z" transform="translate(1.325 1.167)" fill="#fff"/>
</svg>
