<svg xmlns="http://www.w3.org/2000/svg" xmlns:xlink="http://www.w3.org/1999/xlink" width="438.759" height="371.84" viewBox="0 0 438.759 371.84">
<defs>

<linearGradient id="a" x1="0.44" y1="1.091" x2="1.103" y2="0.092" gradientUnits="objectBoundingBox"><stop offset="0" stop-color="#d5005b" stop-opacity="0.969"/>
<stop offset="0.024" stop-color="#c8005d" stop-opacity="0.969"/>
<stop offset="0.116" stop-color="#9d0068" stop-opacity="0.969"/>
<stop offset="0.21" stop-color="#790070" stop-opacity="0.969"/>
<stop offset="0.305" stop-color="#5e0076" stop-opacity="0.969"/>
<stop offset="0.401" stop-color="#4a007b" stop-opacity="0.969"/>
<stop offset="0.5" stop-color="#3e007e" stop-opacity="0.969"/>
<stop offset="0.604" stop-color="#3b007f" stop-opacity="0.969"/>
</linearGradient>
<linearGradient id="c" x1="0.364" y1="0.065" x2="0.742" y2="0.987" xlink:href="#a"/>
<linearGradient id="d" x1="0.461" y1="0.204" x2="0.624" y2="1.401" gradientUnits="objectBoundingBox">
<stop offset="0" stop-color="#d5005b" stop-opacity="0.969"/>
<stop offset="0.099" stop-color="#d0005c" stop-opacity="0.941"/>
<stop offset="0.238" stop-color="#c2005f" stop-opacity="0.855"/>
<stop offset="0.399" stop-color="#ac0064" stop-opacity="0.714"/>
<stop offset="0.579" stop-color="#8d006b" stop-opacity="0.522"/>
<stop offset="0.77" stop-color="#660074" stop-opacity="0.275"/>
<stop offset="0.956" stop-color="#3b007f" stop-opacity="0"/>
</linearGradient>
<linearGradient id="e" x1="0.374" y1="0.526" x2="1.111" y2="0.751" gradientUnits="objectBoundingBox"><stop offset="0" stop-color="#ff9100" stop-opacity="0.969"/>
<stop offset="0.215" stop-color="#c1730e" stop-opacity="0.969"/>
<stop offset="0.53" stop-color="#6e4b23" stop-opacity="0.969"/>
<stop offset="0.754" stop-color="#393230" stop-opacity="0.969"/>
<stop offset="0.864" stop-color="#252935" stop-opacity="0.969"/>
</linearGradient>
<linearGradient id="f" x1="-0.107" y1="-1.127" x2="0.146" y2="0.093" xlink:href="#a"/>
<linearGradient id="g" x1="-0.168" y1="-0.783" x2="0.085" y2="0.437" xlink:href="#a"/>
<linearGradient id="h" x1="0.404" y1="0.039" x2="0.66" y2="1.273" xlink:href="#a"/>
</defs>
<g transform="translate(-40 -440)">
<g class="a" opacity="0.75" transform="translate(-192.281 373.695)">
<path class="b" opacity="0.629" fill="url(#a)"  d="M670.481,66.305v371.84h-438.2c2.53-1.77,27.53-31.77,105.32-60.92,81-30.35,105.92-45.57,131.18-95.11,17.79-34.88,22.25-74.77,32.17-112.65,8.71-33.3,38.23-79.63,68.54-103.16Z"/>
<path class="e" fill="url(#d)" opacity="0.629" d="M671.04,236.14V436.52H367.34c-2.36-12.72,2.32-26,9.88-36.55,14.23-19.89,40.1-31.76,64-26.58,17.38,3.77,31.8,15.45,45.51,26.78a33.357,33.357,0,0,1,52.44-26.21c2.11-25.09,5.03-52.1,21.76-70.89a1.659,1.659,0,0,0,.13-.14c16.74-18.68,46.17-24.58,68.82-13.79-5.25-9.58-2.9-22.68,5.36-29.83s21.56-7.61,30.29-1.05A56.99,56.99,0,0,1,671.04,236.14Z"/>
<path class="f" fill="#ff9100" d="M339.493,334.286c4.135.034,8.366.948,12.477,1.4,1.28.141,2.574.159,3.846.364,1.4.226,2.762.676,4.143,1.012a28.074,28.074,0,0,0,5.093.744,12.069,12.069,0,0,0,4.136-.909q4.6-1.431,9.073-3.219a141.422,141.422,0,0,0,17.263-8.326,204.054,204.054,0,0,0,31.346-22.3q5.578-4.735,10.929-9.733c28.383-26.387,60.788-96.763,62.076-99.573.013-.028-.581-3.058-.608-3.041-1.239.779-29.185,16.006-35.68,19.544a1.5,1.5,0,0,1-2.053-.634,46.408,46.408,0,0,1-2.995-6.482c-.054-.255.3.05.386-.2a1.488,1.488,0,0,1,.427-.568,51.259,51.259,0,0,1,9.466-6.762q4.027-2.371,8.189-4.5a13.839,13.839,0,0,0,3.425-2.289q1.737-1.6,3.481-3.187c4.637-4.231,9.3-8.434,13.944-12.655,8.558-7.778,17.056-15.628,25.244-23.8,1.494-1.491,3.177-3.089,5.929-1.729a6.479,6.479,0,0,1,3.09,3.478,9.521,9.521,0,0,0,1.011,2.564l1.116,2.829,9.541,24.192,4.925,12.485,2.316,5.872a34.977,34.977,0,0,0,2.455,5.612,2.867,2.867,0,0,1,.329.657,2.817,2.817,0,0,1,.086.71q.07,2.287-.087,4.574a4.866,4.866,0,0,1-.335,1.7,1.775,1.775,0,0,1-1.278,1.073c-1.343.2-2.774-.886-3.74-1.68l-2.93-2.409-6.491-5.335-10.592-8.706c-.021-.017-.052-.01-.052.017-.038,2.2-1.246,64.977-17.279,103.3a220.486,220.486,0,0,1-10.74,22.137,205.875,205.875,0,0,1-52.286,61.807,165.085,165.085,0,0,1-26.032,16.921c-3.742,1.935-7.622,3.461-11.445,5.2-1.662.758-3.962,2.15-4.99-.212a44.928,44.928,0,0,1-2.687-8.748c-.053-.267.2-.347.277-.609a1.8,1.8,0,0,1,.4-.641c.775-.921,1.618-1.8,2.3-2.779a11.954,11.954,0,0,0,1.87-3.843,24.962,24.962,0,0,0,.379-4.987q.246-5.359.229-10.729-.021-6.271-.4-12.533c-.206-3.425.03-4.415-3.326-3.849a97.8,97.8,0,0,1-35.3-.207,90.4,90.4,0,0,1-19.175-6.565,29.2,29.2,0,0,1-5.97-3.311C343.156,344.606,339.754,336.4,339.493,334.286Z"/>
<path class="g" fill="#ffb200" d="M550.62,206.66,525.4,185.93c-.02-.02-.05-.01-.05.01-.04,2.21-1.25,64.98-17.28,103.31a220.124,220.124,0,0,1-10.74,22.13,205.92,205.92,0,0,1-52.28,61.81,166.407,166.407,0,0,1-26.04,16.92c-3.74,1.94-7.63,3.46-11.45,5.21-1.57.71-3.7,2.26-4.57.28-.66-1.49.8-6.09,1-7.8q.735-6.525,1.07-13.08.315-5.97.29-11.95-.03-6.285-.4-12.54c-.03-.47-.05-.9-.07-1.28-.14-2.38-.36-3.06-3.26-2.57-.02,0-.05.01-.07.01-32.59,5.48-63.07-8.25-62.19-12.86a1.2,1.2,0,0,1,.2-.5c.81-1.29,7.02-.96,8.66-1.2,3.17-.46,6.34-1.06,9.47-1.78,29.87-6.89,54.99-25.34,77.06-45.87,28.39-26.39,60.79-96.76,62.08-99.58.01-.01-.01-.04-.04-.02-1.41.88-20.31,12.71-35.64,19.68a1.994,1.994,0,0,1-2.23-3.23l61.14-60.99c1.31-1.31,2.76-2.7,4.95-2.1a5.144,5.144,0,0,1,.97.37,6.444,6.444,0,0,1,3.1,3.49c6.95,17.62,19.17,48.6,24.68,62.58A2,2,0,0,1,550.62,206.66Z"/>
<path class="h" isolation="isolate" mix-blend-mode="multiply" opacity="0.283" fill="#ffb200" d="M550.62,206.66,525.4,185.93c-.02-.02-.05-.01-.05.01-.04,2.21-1.25,64.98-17.28,103.31a220.124,220.124,0,0,1-10.74,22.13,205.92,205.92,0,0,1-52.28,61.81,166.407,166.407,0,0,1-26.04,16.92c-3.74,1.94-7.63,3.46-11.45,5.21-1.57.71-3.7,2.26-4.57.28-.66-1.49.8-6.09,1-7.8q.735-6.525,1.07-13.08.315-5.97.29-11.95-.03-6.285-.4-12.54c-.03-.47-.05-.9-.07-1.28,39.34-19.96,67.17-60.33,86.1-100.82,22.12-47.35,32.07-94.88,34.03-110.19a5.144,5.144,0,0,1,.97.37,6.444,6.444,0,0,1,3.1,3.49c6.95,17.62,19.17,48.6,24.68,62.58A2,2,0,0,1,550.62,206.66Z"/>
<rect class="i" fill="#0090c6" width="35.13" height="28.625" rx="6.285" transform="translate(424.867 150.252)"/>
<path class="i" fill="#0090c6" d="M445.128,177.727l3.862,5.841a.725.725,0,0,0,1.252-.072,40,40,0,0,0,2.376-6.125"/>
<path class="j" fill="#494949" isolation="isolate" mix-blend-mode="multiply" opacity="0.283" d="M484.56,263.44c-2.12,5.62,1.24,11.75,1.27,17.75.03,5.81-3.17,12.61-6.54,17.22-12.355,16.927-31.417,30.238-51.16,37.03a35.121,35.121,0,0,0-6.541,2.628c-5.621,3.316-8.2,9.948-10.4,16.094l-4.7,13.153c-.229.639-.475,1.085-1.13,1.009a55.282,55.282,0,0,1-.016-5.554q-.03-6.285-.4-12.54c-.03-.47-.05-.9-.07-1.28-.14-2.38-.36-3.06-3.26-2.57-.02,0-.05.01-.07.01a167.542,167.542,0,0,1,34-49.86l1.81-1.6q8.715-16.095,17.41-32.18a119.066,119.066,0,0,1,9.64-15.82c3.92-5.16,8.24-9.57,15.02-9.9,3.33-.16,7.02.52,9.12,3.1a9.495,9.495,0,0,1,1.56,2.97,16.537,16.537,0,0,1-1.35,13.58C487.41,258.97,485.5,260.96,484.56,263.44Z"/>
<path class="k" fill="#fefefe" d="M437.877,165.345a2.575,2.575,0,1,1-2.574-2.575A2.575,2.575,0,0,1,437.877,165.345Z"/>
<circle class="k" fill="#fefefe" cx="2.574" cy="2.574" r="2.574" transform="translate(439.857 162.77)"/>
<path class="k" fill="#fefefe" d="M452.135,165.345a2.575,2.575,0,1,1-2.574-2.575A2.574,2.574,0,0,1,452.135,165.345Z"/>
<ellipse class="l" fill="#f24b57" cx="29.381" cy="28.09" rx="29.381" ry="28.09" transform="translate(503.123 238.991)"/>
<ellipse class="k" fill="#fefefe" cx="22.727" cy="21.729" rx="22.727" ry="21.729" transform="translate(509.777 245.353)"/>
<ellipse class="l" fill="#f24b57" cx="15.977" cy="15.274" rx="15.977" ry="15.274" transform="translate(516.528 251.807)"/>
<ellipse class="k" fill="#fefefe" cx="9.244" cy="8.838" rx="9.244" ry="8.838" transform="translate(523.26 258.243)"/>
<ellipse class="l" fill="#f24b57" cx="4.643" cy="4.439" rx="4.643" ry="4.439" transform="translate(527.862 262.642)"/>
<path class="l" fill="#f24b57" d="M589.623,251.5c-1.265-1.183-3.348-1.08-5.031.117-.65-1.961-2.269-3.275-3.989-3.068-2.037.244-3.437,2.527-3.128,5.1a12.708,12.708,0,0,0,3.912,7.473,15.1,15.1,0,0,0,7.179-3.133,5.9,5.9,0,0,0,.565-.525C590.9,255.568,591.121,252.9,589.623,251.5Z"/>
<path class="l" fill="#f24b57" d="M540.542,320.772A3.167,3.167,0,0,0,537.2,318.6a3.166,3.166,0,0,0-1.234-3.794c-1.442-.752-3.381.114-4.331,1.934a10.075,10.075,0,0,0-.787,6.641,11.987,11.987,0,0,0,6.1,1.166,4.777,4.777,0,0,0,.6-.09C539.554,324.007,540.894,322.36,540.542,320.772Z"/>
<path class="l" fill="#f24b57" d="M401.736,171.478c-1.73-.08-3.249,1.35-3.754,3.353-1.766-1.071-3.851-1.021-5.026.252-1.391,1.507-.976,4.153.927,5.91a12.71,12.71,0,0,0,7.825,3.149,15.107,15.107,0,0,0,3.431-7.041,5.785,5.785,0,0,0,.09-.767C405.349,173.748,403.785,171.573,401.736,171.478Z"/>
<path class="l" fill="#f24b57" d="M373.935,235.321c-1.61.638-2.406,2.566-2.042,4.6-2.051-.25-3.931.653-4.478,2.3-.648,1.947.818,4.188,3.275,5.006a12.712,12.712,0,0,0,8.428-.348,15.1,15.1,0,0,0,.231-7.829,5.905,5.905,0,0,0-.233-.736C378.161,235.9,375.842,234.565,373.935,235.321Z"/>
<path class="l" fill="#f24b57" d="M387.335,255.4a2.862,2.862,0,0,0-2.425,2.669,2.859,2.859,0,0,0-3.563.554c-.879,1.178-.386,3.032,1.1,4.142a9.1,9.1,0,0,0,5.811,1.662,10.833,10.833,0,0,0,1.92-5.273,4.239,4.239,0,0,0,.007-.553C390.079,256.747,388.8,255.314,387.335,255.4Z"/>
<path class="m" fill="#f4be90" d="M439.9,243.975a8.26,8.26,0,0,0,.806-.78c.651-.725,1.52-1.187,2.177-1.939a10.1,10.1,0,0,0,2.164-2.7,5.337,5.337,0,0,0,.043-3.409,5,5,0,0,0-1.272-2.306,2.767,2.767,0,0,0-2.439-.779,2.845,2.845,0,0,0-1.075.521,5.371,5.371,0,0,0-1.89,3.25c-.245,1.175.072,2.468-.179,3.6a11.567,11.567,0,0,1-1.508,2.677"/>
<path class="n" fill="#43496d" d="M441.693,304.437l1.4,1.427c-5.394,5.089-16.274,4.89-22.972,2.838-.26-.076-.855-.3-1.7-.626-5.592-2.128-22.026-8.8-22.026-9.635.061,12.169-3.38,24.048-6.783,35.728-.778,2.678-1.838,9.926-5.538,7.966a5.082,5.082,0,0,1-.992-.7c-1.534-1.335-1.763-3.6-1.877-5.63q-1.2-22.4-.412-44.839c.076-2.227.229-4.616,1.587-6.386,2.693-3.486,8.1-2.517,12.352-1.373,11.246,3.006,22.69,3.807,34.058,5.89,3.517.641,7.164.6,10.612,1.534s6.882,3.2,7.8,6.653S445.218,305.055,441.693,304.437Z"/>
<path class="o" fill="#15233a" opacity="0.356"  isolation="isolate" mix-blend-mode="multiply" d="M423.43,304.618q-2,1.546-4.139,2.911a2.048,2.048,0,0,1-1.84.177c-4.577-1.772-13.608-5.435-18.214-7.614a2.053,2.053,0,0,0-2.921,1.787c-.515,10.971-3.628,21.712-6.71,32.29-.162.558-.336,1.315-.544,2.145a2.056,2.056,0,0,1-4.01-.9q.144-.734.29-1.466,4.074-20.436,6.466-41.166a2.034,2.034,0,0,1,2.348-1.8,30.04,30.04,0,0,1,6.338,2.212,226.371,226.371,0,0,0,22.289,7.819A2.059,2.059,0,0,1,423.43,304.618Z"/>
<path class="n" fill="#43496d" d="M455.866,310.26a36.548,36.548,0,0,1-9.409,7.64,114.933,114.933,0,0,1-22.317,10.041c-6.689,2.169-9.23,6.886-11.687,13.092-3.479,8.789-7.555,17.389-11.323,26.059-2.344,5.394-5.974,11.672-11.855,11.6,2.021-11.506,4.552-22.916,7.237-34.283,2.268-9.606,3.148-22.873,9.737-30.662,4.313-5.1,10.363-8.437,16.16-11.556,5.827-3.135,11.362-6.7,17.024-9.971,4.106-2.372,8.449-4.811,13.19-4.87,8.391-.1,9.661,8.055,7.8,14.625A22.138,22.138,0,0,1,455.866,310.26Z"/>
<path class="i" fill="#0090c6" d="M472.23,268.78c-.14.66-.29,1.33-.46,2.01a160.031,160.031,0,0,1-8.23,23.77,25.831,25.831,0,0,1-2.31,4.27,1.71,1.71,0,0,1-.7.66c-.39.16-.82-.05-1.24-.09q-3.705-.375-6.88-.81c-2.39-.33-4.56-.68-6.55-1.05-.81-.15-1.58-.3-2.33-.46-10.83-2.26-15.37-5.03-17.24-6.72-.06-.06-.12-.11-.18-.17a4.215,4.215,0,0,1-1.06-1.38s2.22-3.77,3.29-5.53c2.92-4.76,5.41-9.7,7.94-14.69,1.59-3.12,3.04-6.31,4.63-9.42,1.51-2.96,4.55-5.67,6.92-7.99a11.17,11.17,0,0,1,2.36-1.87,11.436,11.436,0,0,1,4.49-.99,16.15,16.15,0,0,1,4.86.09,13.615,13.615,0,0,1,1.62.48,27.38,27.38,0,0,1,5.78,2.48,14.508,14.508,0,0,1,5.76,6.81C473.57,260.32,473.21,264.25,472.23,268.78Z"/>
<path class="p"  opacity="0.277"  fill="#0090c6" isolation="isolate" mix-blend-mode="multiply" d="M472.23,268.78c-.14.66-.29,1.33-.46,2.01a160.031,160.031,0,0,1-8.23,23.77,25.831,25.831,0,0,1-2.31,4.27,1.71,1.71,0,0,1-.7.66c-.39.16-.82-.05-1.24-.09q-3.705-.375-6.88-.81C467.03,284.45,463.97,277.79,472.23,268.78Z"/>
<path class="i" fill="#0090c6" d="M452.6,258.586a1.163,1.163,0,0,0,.446-1.687c-.743-2.018,3.724-8.789,1.58-8.628-7.855.592-15.07,5.325-20.827,10.336a31.558,31.558,0,0,0,5.586-10.352,28.272,28.272,0,0,1,1.924-5.01c.891-1.515-.381-2.135-1.61-2.955a2.574,2.574,0,0,0-.748-.383c-1.478-.392-3.944,2.03-5.009,2.9a31.866,31.866,0,0,0-4.278,4.217,31.523,31.523,0,0,0-5.77,10.265c-1.076,3.23-2.694,8.581,1.235,10.4a9.273,9.273,0,0,0,3.888.69,22.341,22.341,0,0,0,4.8-.514c1.181-.259,2.339-.614,3.5-.968l2.822-.864a27.19,27.19,0,0,0,3.615-1.3,24.3,24.3,0,0,0,4.6-3.041C449.72,260.62,451.207,259.65,452.6,258.586Z"/>
<path class="i" fill="#0090c6" d="M469.453,253.252a40.716,40.716,0,0,1-.889,4.194c-.632,1.667-1.516,3.281-2.264,4.9a12.524,12.524,0,0,0-1.154,5.591,17.387,17.387,0,0,0,1.105,3.695q.6,1.982,1.16,3.976a20.863,20.863,0,0,1-.852,11.629,109.433,109.433,0,0,1-7.772,16.054,8.934,8.934,0,0,0-1.166,2.573c-.61,2.881,1.862,2.762,3.672,1.581a47.986,47.986,0,0,0,8.616-7.62,44.977,44.977,0,0,0,8.463-12.5,22.27,22.27,0,0,0,1.962-6.447C482.313,261.686,471.141,254.86,469.453,253.252Z"/>
<path class="m" fill="#f4be90" d="M469.45,242.63a97.147,97.147,0,0,0-3.11,9.28c-1.33,4.73-8.69,2.71-7.36-2.03.19-.69.39-1.36.6-2.05.02-.09.05-.19.08-.28.4-1.27.81-2.52,1.26-3.77.03-.09.07-.19.1-.28.34-.97.7-1.94,1.08-2.9a3.9,3.9,0,0,1,4.69-2.67C468.63,238.44,470.2,240.71,469.45,242.63Z"/>
<path class="q" fill="#f4be90" isolation="isolate" mix-blend-mode="multiply" d="M467.09,243.58a7.777,7.777,0,0,1-4.56,3.73,11.2,11.2,0,0,1-2.95.52c.02-.09.05-.19.08-.28.4-1.27.81-2.52,1.26-3.77a10.344,10.344,0,0,0,3.96.01A7.9,7.9,0,0,1,467.09,243.58Z"/>
<path class="r" fill="#252935"  d="M387.892,344.933a1.858,1.858,0,0,0,.294-.281,4,4,0,0,0,.562-2.7,36.726,36.726,0,0,1,.18-4.387c.075-.748.818-2.716-.427-2.71l-6.739.03a.448.448,0,0,0-.212.035c-.127.067-.159.232-.18.375a5.386,5.386,0,0,1-.514,2.038,3.813,3.813,0,0,1-2.242,1.039,15.99,15.99,0,0,1-2.828.2c-2.381.042-4.758.2-7.134.359a5.562,5.562,0,0,0-2.885.73,1.837,1.837,0,0,0-.169,3.192c1.752,1.328,4.426,1.551,6.533,1.761,2.386.238,4.788.355,7.18.5q2.381.148,4.762.275C385.2,345.453,386.9,345.691,387.892,344.933Z"/>
<path class="r" fill="#252935"  d="M397.479,379.235a1.808,1.808,0,0,0,.293-.281c.913-1.093.817-2.983,1-4.31q.355-2.559.882-5.09c-2.821.417-5.691-.8-8.514-.4a5.352,5.352,0,0,1-.975,2.544,2.68,2.68,0,0,1-1.965.978,16,16,0,0,1-2.828.2c-2.381.042-4.759.2-7.135.359a5.547,5.547,0,0,0-2.884.731,1.836,1.836,0,0,0-.169,3.191c1.752,1.328,4.426,1.551,6.533,1.761,2.385.239,4.788.355,7.18.505q2.38.147,4.762.275C394.791,379.755,396.488,379.993,397.479,379.235Z"/>
<path class="m" fill="#f4be90" d="M460.749,305.142a2.159,2.159,0,0,0-1.423-.786c-1.411-.125-3.051,1.332-3.995,2.243a9.821,9.821,0,0,0-2.58,3.968c-.435,1.349-.929,4.065.377,5.1,1.6,1.272,4.39-.513,5.58-1.636,2.041-1.925,3.64-5.166,2.581-7.979A3.043,3.043,0,0,0,460.749,305.142Z"/>
<path class="s" fill="#563624"  d="M461.682,227.059a3.566,3.566,0,0,1,.255,2.58,20.42,20.42,0,0,1-.27,2.623,9.312,9.312,0,0,1-2.689,4.7c-.683.638-1.684,1.192-2.512.759a2.428,2.428,0,0,1-.946-2.21,13.614,13.614,0,0,1,1.949-7.272,3.486,3.486,0,0,1,2.577-1.981A1.986,1.986,0,0,1,461.682,227.059Z"/>
<path class="m" fill="#f4be90" d="M464,227.8c-3.113-.208-5.794,2.306-7.172,5.15a11.484,11.484,0,0,0-1.208,6.254,7.787,7.787,0,0,0,3.083,5.49,8.362,8.362,0,0,0,6.656.97A10.421,10.421,0,0,0,469.084,244q.63-.453,1.277-.882c.29-.191.539-.567.855-.677a2.935,2.935,0,0,1,.629-.1,3.458,3.458,0,0,0,1.527-.558,2.136,2.136,0,0,0,.812-.915,2.767,2.767,0,0,0,.17-.792,21.77,21.77,0,0,1,.272-2.713,3.974,3.974,0,0,0-.29-3.3c-.544-.71-1.417-.961-2.092-1.495-.744-.588-.868-1.581-1.438-2.35-1.276-1.724-3.657-2.733-5.543-1.844"/>
<path class="s" fill="#563624"  d="M468.707,223.867a5.513,5.513,0,0,0-2.4-4.113,5.086,5.086,0,0,0-5.407-.052c-3.456,2.236-2.151,7.239.81,9.266,2.7,1.847,8.311.539,9.7,4.279.735,1.982-.943,4.082-.82,6.192.594-.05.983-.619,1.341-1.1s.931-.956,1.489-.743a1.371,1.371,0,0,1,.693,1.151,3.345,3.345,0,0,1-.17,1.834,1.875,1.875,0,0,1-1.378,1.137c-.317.045-.64-.011-.96,0a2.937,2.937,0,0,0-2.261,1.528c-.5.831-1.269,2.486.2,1.739a13.684,13.684,0,0,0,2.235-1.534,14.524,14.524,0,0,0,4.6-6.16,8.915,8.915,0,0,0,.2-5.642,3.473,3.473,0,0,0-.811-1.517,1.612,1.612,0,0,0-1.589-.451,12.044,12.044,0,0,0-.314-2.882,4.062,4.062,0,0,0-1.583-2.362,3.1,3.1,0,0,0-3.57.205A5.233,5.233,0,0,0,468.707,223.867Z"/>
<path class="l" fill="#f24b57" d="M442.81,230.484a1.473,1.473,0,0,0-.334.563,55.151,55.151,0,0,0-2.59,8.17,2.339,2.339,0,0,0,.225,2.15,1.564,1.564,0,0,0,1.75.228,3.918,3.918,0,0,0,1.389-1.243,24.921,24.921,0,0,0,4.239-9.443"/>
<path class="t" fill="#f54b56"  d="M455.23,230.25c-.49,1.94-1.7,3.73-3.66,4.05a5.762,5.762,0,0,1-2.48-.23c-1.69-.48-3.43-1.43-4.87-1.86a28.088,28.088,0,0,0-3.49-.83,33.3,33.3,0,0,0-3.63-.42c-4.82-.3-9.64.23-14.46.29l11.04-25.99a66.384,66.384,0,0,0,8.19,11.88,30.627,30.627,0,0,0,2.84,2.74c.63.54,1.29,1.06,1.95,1.57a29.205,29.205,0,0,0,5.2,3.53c.32.15.65.3.97.46a5.307,5.307,0,0,1,1.66,1.17A4.021,4.021,0,0,1,455.23,230.25Z"/>
<path class="u" fill="#505982"  d="M435,214.926a24.8,24.8,0,0,1-4.507,11.251c-2.832,3.8-6.439,5.8-9.48,4.789-4.531-1.514-6.076-9.1-3.446-16.968s8.414-13,12.932-11.5C434.135,203.723,435.841,208.863,435,214.926Z"/>
<path class="r" fill="#252935"  d="M433.66,215.187c-.03.21-.06.43-.1.64a2.937,2.937,0,0,1-.05.29,19.769,19.769,0,0,1-.75,2.96,21.176,21.176,0,0,1-1.6,3.64c-.12.21-.24.42-.36.62a15.878,15.878,0,0,1-.99,1.48c-2.43,3.26-5.51,4.97-8.12,4.1-3.87-1.29-5.19-7.79-2.94-14.53,2.24-6.72,7.2-11.12,11.06-9.84C432.92,205.6,434.38,210,433.66,215.187Z"/>
<path class="v" fill="url(#e)"  d="M433.34,216.927c-.009.08-.025.153-.041.233a15.736,15.736,0,0,1-.6,2.38,17.039,17.039,0,0,1-1.286,2.927c-.1.169-.193.338-.29.5-.627-.016-1.849-.112-2.452-.128-.129-.008-.265-.016-.394-.016-.523-.033-2.074-.161-2.219-.177.024,0,.145-.016.209-.314.048-.2.112-.394.177-.587.265-.884.563-1.761.868-2.629.611-1.737,1.279-3.466,1.745-5.251.137-.184.289-.361.418-.554C429.7,213.445,432.568,216.187,433.34,216.927Z"/>
<path class="g" fill="#ffb200" d="M430.213,217.039a8.457,8.457,0,0,1-1.538,3.842c-.966,1.3-2.2,1.98-3.234,1.635-1.546-.517-2.073-3.108-1.176-5.794s2.871-4.439,4.412-3.925C429.916,213.214,430.5,214.969,430.213,217.039Z"/>
<path class="r" fill="#252935"  d="M455.23,230.247c-.49,1.94-1.7,3.73-3.66,4.05a5.762,5.762,0,0,1-2.48-.23,11.888,11.888,0,0,0,3.74-8.63,5.307,5.307,0,0,1,1.66,1.17A4.021,4.021,0,0,1,455.23,230.247Z"/>
<path class="w" stroke-width="4px" stroke-miterlimit="10 " stroke="#ff7900"  fill="none"  isolation="isolate" mix-blend-mode="multiply" opacity="0.283" d="M503.768,196.8a165.805,165.805,0,0,1-14.044,38.542"/>
<path class="w" stroke-width="4px" stroke-miterlimit="10 " stroke="#ff7900"  fill="none"  isolation="isolate" mix-blend-mode="multiply" opacity="0.283" d="M500.939,222.284a165.837,165.837,0,0,1-15.921,37.8"/>
<path class="w" stroke-width="4px" stroke-miterlimit="10 " stroke="#ff7900"  fill="none"  isolation="isolate" mix-blend-mode="multiply" opacity="0.283" d="M494.347,208.454a91.892,91.892,0,0,1-5.446,15.922"/>
<path class="x" stroke-width="6px" stroke-miterlimit="10 " stroke="#ff7900"  fill="none"  isolation="isolate" mix-blend-mode="multiply" opacity="0.283" d="M416.016,364.1A178.022,178.022,0,0,0,459.5,327.776"/>
<path class="x" stroke-width="6px" stroke-miterlimit="10 " stroke="#ff7900"  fill="none"  isolation="isolate" mix-blend-mode="multiply" opacity="0.283" d="M454.926,345.522a35.622,35.622,0,0,1-10.175,10.9"/>
<path class="y" stroke-miterlimit="10 " stroke="#ff7900"  fill="none"  d="M449.973,327.593a94.513,94.513,0,0,1-22.049,19.486"/>
<path class="z" opacity="0.302" mix-blend-mode="screen" isolation="isolate" fill="#ffb200" d="M484.616,186.589c-1.757.56-3.769,1.64-5.523,1.966-1.63.3-1.718-.974-.7-1.971,1.413-1.385,2.974-2.682,4.414-4.059q19.968-19.093,38.1-39.995c.408,2.106-3.8,22.3-6.215,30.078C514.4,173.551,488.021,185.505,484.616,186.589Z"/>
<path class="aa" opacity="0.134" mix-blend-mode="screen" isolation="isolate" fill="#ffb200" d="M460.09,270.17c-2.02,10.48-9.22,19.11-16.56,26.91-10.83-2.26-15.37-5.03-17.24-6.72l.01-.03a238.635,238.635,0,0,0,14.73-19.96c2.1-3.3,4.15-6.82,7.44-8.93s8.27-2.2,10.61.93C460.7,264.53,460.61,267.52,460.09,270.17Z"/>
<path class="ab" stroke="#2c2c2d" stroke-width="2px" stroke-miterlimit="10 " fill="none"  d="M498.814,298.718l33.294-31.363"/>
<path class="ab" stroke="#2c2c2d" stroke-width="2px" stroke-miterlimit="10 " fill="none"  d="M496.057,299.322q1.387-.339,2.79-.613l-.318,2.761"/>
<path class="ac"  fill="url(#f)" opacity="0.629" d="M666.486,162.979l-3.359-.472a11.431,11.431,0,0,0-.69-2.546l2.774-2.089a.947.947,0,0,0,.186-1.325l-2.651-3.519a.947.947,0,0,0-1.325-.186l-2.816,2.121a11.468,11.468,0,0,0-2.2-1.27l.5-3.561a.945.945,0,0,0-.8-1.068l-4.362-.614a.946.946,0,0,0-1.069.805l-.5,3.561a11.423,11.423,0,0,0-2.431.6l-2.175-2.887a.946.946,0,0,0-1.325-.186l-3.519,2.651a.946.946,0,0,0-.186,1.324l2.132,2.831a11.435,11.435,0,0,0-1.341,2.175l-3.5-.492a.945.945,0,0,0-1.068.8L636.143,164a.948.948,0,0,0,.8,1.069l3.382.475a11.371,11.371,0,0,0,.6,2.59l-2.711,2.042a.947.947,0,0,0-.186,1.325l2.651,3.518a.946.946,0,0,0,1.325.187l2.617-1.972a11.461,11.461,0,0,0,2.352,1.439l-.456,3.242a.946.946,0,0,0,.8,1.069l4.362.613a.946.946,0,0,0,1.069-.8l.448-3.185a11.379,11.379,0,0,0,2.706-.682l1.953,2.592a.946.946,0,0,0,1.325.187l3.519-2.651a.947.947,0,0,0,.186-1.325l-1.959-2.6a11.449,11.449,0,0,0,1.371-2.376l3.3.464a.946.946,0,0,0,1.068-.8l.614-4.363A.946.946,0,0,0,666.486,162.979Zm-15.615,7.471A6.306,6.306,0,1,1,658,165.087,6.306,6.306,0,0,1,650.871,170.45Z"/>
<path class="af" stroke-miterlimit="10 " stroke="#ff7900"  fill="none"  d="M508.449,329.2a206.241,206.241,0,0,1-65.469,74.107"/>
<path class="af" stroke-miterlimit="10 " stroke="#ff7900"  fill="none"  d="M501.956,353.425a126.184,126.184,0,0,1-17.183,22.042"/>
<path class="af" stroke-miterlimit="10 " stroke="#ff7900"  fill="none"  d="M388.476,389.143q-20.349,13.67-39.319,29.256"/>
<path class="af" stroke-miterlimit="10 " stroke="#ff7900"  fill="none"  d="M371.648,393.55a159.847,159.847,0,0,0-18.723,14.567"/>
<path class="af" stroke-miterlimit="10 " stroke="#ff7900"  fill="none"  d="M370.229,386.851q-24.492,15.94-47.322,34.258"/>
<path class="m" fill="#f4be90" d="M441.5,238.666a4.077,4.077,0,0,0,2.383-2.584c.452-1.248.411-2.521-.789-3.269a2.56,2.56,0,0,0-1.319-.466,2.768,2.768,0,0,0-2.011,1.318,7.715,7.715,0,0,0-1.063,1.824,3,3,0,0,0-.294,1.955A2.661,2.661,0,0,0,441.5,238.666Z"/>
<path class="ag" stroke="#43496d" stroke-linecap="round" stroke-linejoin="round" stroke-dasharray="1 5" fill="none"  d="M412.65,182.009a197.227,197.227,0,0,0,10.657,23.516"/>
<path class="ag" stroke="#43496d" stroke-linecap="round" stroke-linejoin="round" stroke-dasharray="1 5" fill="none"  d="M377.637,190.138a147.787,147.787,0,0,0,38.216,25.146"/>
<path class="ag" stroke="#43496d" stroke-linecap="round" stroke-linejoin="round" stroke-dasharray="1 5" fill="none"  d="M362.056,205.425c13.79,6.653,39.245,12,54.41,14.109"/>
<path class="ag" stroke="#43496d" stroke-linecap="round" stroke-linejoin="round" stroke-dasharray="1 5" fill="none"  d="M384.672,224.659c9.792.527,19.668,1.051,29.357-.458"/>
<path class="g" fill="#ffb200" d="M405.615,257.791c-5.121-3.506-6.466-9.474-3.535-14.909,1.2-2.232-2.457-3.7-3.65-1.485a14.839,14.839,0,0,0,4.823,19.548c2.086,1.428,4.463-1.716,2.362-3.154Z"/>
<path class="g" fill="#ffb200" d="M410.035,252.634c-1.779-1.176-3.334-4.413-2.132-6.439,1.279-2.158-1.859-4.548-3.155-2.362-2.279,3.845-.823,9.477,2.925,11.955,2.105,1.392,4.486-1.75,2.362-3.154Z"/>
<path class="g" fill="#ffb200" d="M412.921,249.96c2.336-.985.809-4.617-1.531-3.631s-.809,4.618,1.531,3.631Z"/>
</g>
</g>
</svg>