<?xml version="1.0" encoding="utf-8"?>
<!-- Generator: Adobe Illustrator 16.0.0, SVG Export Plug-In . SVG Version: 6.00 Build 0)  -->
<!DOCTYPE svg PUBLIC "-//W3C//DTD SVG 1.1//EN" "http://www.w3.org/Graphics/SVG/1.1/DTD/svg11.dtd">
<svg version="1.1" id="Layer_1" xmlns="http://www.w3.org/2000/svg" xmlns:xlink="http://www.w3.org/1999/xlink" x="0px" y="0px"
	 width="65.371px" height="61.875px" viewBox="0 0 65.371 61.875" enable-background="new 0 0 65.371 61.875" xml:space="preserve">
<g>
	<g>
		<path fill="#FFFFFF" d="M61.977,45.83c-0.258-0.848-1.481-1.445-1.481-1.445l0,0c-0.117-0.061-0.22-0.115-0.306-0.158
			c-2.042-0.986-3.853-2.176-5.376-3.523c-1.227-1.086-2.274-2.279-3.115-3.547c-1.031-1.549-1.511-2.842-1.721-3.543
			c-0.114-0.457-0.096-0.639,0-0.877c0.08-0.201,0.319-0.391,0.428-0.482c0.689-0.486,1.799-1.207,2.481-1.646
			c0.592-0.384,1.098-0.713,1.396-0.921c0.959-0.67,1.616-1.353,2.002-2.09c0.498-0.951,0.56-2,0.17-3.03
			c-0.525-1.39-1.824-2.219-3.475-2.219c-0.366,0-0.744,0.043-1.122,0.122c-0.945,0.207-1.842,0.542-2.592,0.835
			c-0.056,0.025-0.114-0.018-0.107-0.079c0.077-1.859,0.168-4.359-0.038-6.73c-0.184-2.146-0.628-3.957-1.348-5.536
			c-0.727-1.584-1.67-2.755-2.406-3.603c-0.703-0.805-1.94-1.993-3.805-3.06c-2.622-1.5-5.609-2.262-8.875-2.262
			c-3.263,0-6.245,0.762-8.872,2.262c-1.975,1.126-3.237,2.401-3.809,3.06c-0.738,0.847-1.683,2.018-2.409,3.603
			c-0.726,1.579-1.164,3.383-1.348,5.536c-0.207,2.384-0.122,4.682-0.036,6.73c0,0.062-0.055,0.104-0.115,0.079
			c-0.751-0.293-1.647-0.628-2.592-0.835c-0.371-0.079-0.75-0.122-1.121-0.122c-1.646,0-2.945,0.829-3.475,2.219
			c-0.391,1.03-0.33,2.079,0.169,3.03c0.391,0.737,1.043,1.42,2,2.09c0.293,0.208,0.804,0.537,1.396,0.921
			c0.664,0.433,1.743,1.134,2.438,1.617c0.086,0.061,0.378,0.281,0.469,0.512c0.097,0.244,0.116,0.426-0.012,0.914
			c-0.214,0.707-0.695,1.986-1.707,3.506c-0.841,1.273-1.891,2.461-3.115,3.547c-1.524,1.348-3.335,2.537-5.377,3.523
			c-0.098,0.049-0.213,0.104-0.335,0.178l0,0c0,0-1.221,0.621-1.451,1.426c-0.341,1.189,0.566,2.305,1.487,2.902
			c1.512,0.975,3.353,1.5,4.42,1.785c0.298,0.08,0.567,0.154,0.811,0.227c0.152,0.049,0.538,0.193,0.701,0.408
			c0.208,0.268,0.232,0.598,0.306,0.969l0,0c0.115,0.629,0.377,1.402,1.151,1.939c0.854,0.584,1.933,0.627,3.304,0.684
			c1.433,0.055,3.212,0.119,5.255,0.797c0.945,0.311,1.805,0.842,2.792,1.451c2.073,1.275,4.651,2.859,9.054,2.859
			c4.406,0,7.004-1.592,9.089-2.873c0.987-0.604,1.834-1.127,2.762-1.432c2.042-0.676,3.821-0.742,5.254-0.797
			c1.371-0.055,2.45-0.092,3.304-0.684c0.829-0.574,1.067-1.428,1.177-2.066c0.062-0.318,0.1-0.604,0.28-0.836
			c0.159-0.201,0.512-0.342,0.679-0.395c0.248-0.08,0.528-0.154,0.84-0.24c1.067-0.285,2.408-0.621,4.035-1.541
			C62.05,47.873,62.183,46.506,61.977,45.83z"/>
	</g>
	<path d="M63.671,45.172c-0.432-1.184-1.261-1.811-2.2-2.334c-0.178-0.104-0.342-0.189-0.476-0.25
		c-0.28-0.146-0.567-0.287-0.854-0.434c-2.934-1.555-5.224-3.518-6.811-5.842c-0.536-0.785-0.907-1.49-1.17-2.07
		c-0.134-0.391-0.127-0.609-0.031-0.811c0.074-0.152,0.27-0.312,0.378-0.391c0.509-0.336,1.026-0.67,1.379-0.896
		c0.629-0.41,1.127-0.731,1.446-0.951c1.205-0.841,2.047-1.737,2.57-2.737c0.745-1.408,0.837-3.018,0.264-4.53
		c-0.793-2.096-2.78-3.401-5.184-3.401c-0.498,0-1.004,0.055-1.505,0.164c-0.134,0.03-0.261,0.061-0.39,0.092
		c0.023-1.427-0.013-2.95-0.141-4.438c-0.451-5.243-2.286-7.992-4.2-10.181c-0.798-0.914-2.188-2.249-4.273-3.444
		c-2.907-1.67-6.199-2.512-9.788-2.512c-3.58,0-6.873,0.841-9.78,2.506c-2.097,1.194-3.487,2.535-4.279,3.443
		c-1.915,2.189-3.75,4.938-4.201,10.181c-0.128,1.487-0.158,3.011-0.141,4.438c-0.128-0.031-0.262-0.062-0.389-0.092
		c-0.5-0.109-1.013-0.164-1.506-0.164c-2.401,0-4.39,1.304-5.182,3.401c-0.572,1.512-0.481,3.121,0.263,4.53
		c0.524,1,1.372,1.896,2.571,2.737c0.324,0.226,0.817,0.547,1.445,0.951c0.342,0.219,0.835,0.541,1.322,0.865
		c0.073,0.049,0.335,0.244,0.428,0.428c0.103,0.207,0.103,0.432-0.049,0.846c-0.255,0.568-0.628,1.264-1.152,2.031
		c-1.554,2.273-3.779,4.199-6.615,5.736c-1.505,0.799-3.066,1.328-3.723,3.121c-0.5,1.352-0.171,2.895,1.091,4.193l0,0
		c0.415,0.445,0.938,0.842,1.597,1.207c1.548,0.854,2.865,1.275,3.901,1.561c0.183,0.057,0.604,0.189,0.787,0.355
		c0.464,0.4,0.396,1.01,1.012,1.902c0.373,0.553,0.799,0.932,1.152,1.174c1.288,0.891,2.737,0.945,4.274,1.008
		c1.383,0.055,2.956,0.115,4.749,0.707c0.743,0.242,1.518,0.719,2.407,1.268c2.147,1.324,5.091,3.127,10.011,3.127
		c4.924,0,7.882-1.816,10.046-3.141c0.892-0.541,1.659-1.016,2.378-1.254c1.791-0.592,3.364-0.652,4.749-0.707
		c1.536-0.062,2.981-0.117,4.274-1.008c0.4-0.279,0.913-0.738,1.315-1.432c0.439-0.75,0.432-1.279,0.849-1.641
		c0.17-0.145,0.542-0.273,0.742-0.334c1.043-0.285,2.378-0.707,3.955-1.58c0.703-0.383,1.243-0.805,1.677-1.285
		c0.008-0.006,0.014-0.012,0.02-0.02C63.86,47.988,64.16,46.494,63.671,45.172z M59.302,47.52c-2.67,1.477-4.446,1.316-5.823,2.201
		c-1.171,0.754-0.481,2.383-1.329,2.967c-1.049,0.727-4.139-0.049-8.132,1.27c-3.291,1.09-5.394,4.217-11.328,4.217
		c-5.941,0-7.985-3.113-11.326-4.217c-3.992-1.318-7.089-0.543-8.132-1.27c-0.847-0.584-0.158-2.213-1.329-2.967
		c-1.378-0.891-3.151-0.732-5.821-2.201c-1.701-0.939-0.738-1.518-0.171-1.791c9.669-4.678,11.205-11.908,11.277-12.449
		c0.086-0.646,0.177-1.158-0.536-1.824c-0.689-0.639-3.755-2.535-4.603-3.126c-1.407-0.982-2.024-1.962-1.566-3.17
		c0.316-0.835,1.097-1.146,1.92-1.146c0.257,0,0.519,0.031,0.769,0.085c1.542,0.335,3.042,1.11,3.907,1.317
		c0.123,0.03,0.226,0.042,0.317,0.042c0.463,0,0.622-0.232,0.592-0.762c-0.098-1.688-0.341-4.98-0.074-8.06
		c0.366-4.23,1.731-6.328,3.354-8.187c0.779-0.89,4.437-4.754,11.43-4.754c7.01,0,10.649,3.864,11.429,4.754
		c1.624,1.853,2.987,3.95,3.354,8.187c0.268,3.079,0.039,6.371-0.074,8.06c-0.036,0.555,0.136,0.762,0.594,0.762
		c0.09,0,0.201-0.012,0.315-0.042c0.865-0.208,2.364-0.982,3.907-1.317c0.25-0.055,0.514-0.085,0.77-0.085
		c0.821,0,1.603,0.317,1.922,1.146c0.454,1.208-0.167,2.188-1.568,3.17c-0.848,0.592-3.915,2.487-4.603,3.126
		c-0.712,0.658-0.622,1.172-0.536,1.824c0.066,0.541,1.609,7.771,11.276,12.449C60.031,46.002,61.001,46.58,59.302,47.52z"/>
</g>
</svg>
