<svg xmlns="http://www.w3.org/2000/svg" xmlns:xlink="http://www.w3.org/1999/xlink" width="86.239" height="83.966" viewBox="0 0 86.239 83.966">
  <g transform="matrix(1, 0, 0, 1, 0, 0)" filter="url(#Path_252)">
    <path id="Path_252-2" data-name="Path 252" d="M555.15-79.665c-.106,0-.211,0-.315-.008h0c-.066.005-.136.008-.206.008a8.989,8.989,0,0,1-5.527-2.2,8.045,8.045,0,0,0-3.2-1.643,10.272,10.272,0,0,0-1.68-.143,11.411,11.411,0,0,0-2.328.265,5.076,5.076,0,0,1-.868.126.546.546,0,0,1-.6-.434c-.1-.331-.166-.652-.234-.962-.173-.8-.3-1.29-.629-1.341-3.875-.6-4.984-1.424-5.231-2.007a.759.759,0,0,1-.06-.25.438.438,0,0,1,.365-.458c5.957-.987,8.628-7.116,8.739-7.376l.009-.021a2.3,2.3,0,0,0,.213-1.919c-.409-.97-1.742-1.4-2.624-1.678-.216-.069-.421-.134-.582-.2-1.761-.7-1.907-1.42-1.838-1.787a1.663,1.663,0,0,1,1.618-1.06,1.128,1.128,0,0,1,.482.1,5.1,5.1,0,0,0,2.122.563,1.742,1.742,0,0,0,1.268-.407c-.022-.406-.048-.83-.076-1.267-.177-2.835-.4-6.358.494-8.368a10.765,10.765,0,0,1,10-6.5l.733-.007h.1a10.783,10.783,0,0,1,10.023,6.5c.891,2.012.671,5.537.493,8.37l-.007.123c-.025.394-.048.778-.068,1.145a1.691,1.691,0,0,0,1.156.4h0a5.282,5.282,0,0,0,2-.56,1.5,1.5,0,0,1,.621-.123,1.887,1.887,0,0,1,.715.137l.013.005a1.319,1.319,0,0,1,1,1.077c.008.415-.307,1.04-1.852,1.654-.16.063-.365.129-.582.2-.883.282-2.216.708-2.625,1.678a2.3,2.3,0,0,0,.213,1.918c0,.007.007.014.01.022.111.26,2.78,6.387,8.739,7.375a.439.439,0,0,1,.365.458.739.739,0,0,1-.061.251c-.246.579-1.354,1.4-5.23,2-.317.049-.439.464-.628,1.335-.069.317-.138.628-.234.956a.518.518,0,0,1-.554.417h-.048a4.823,4.823,0,0,1-.867-.11,11.5,11.5,0,0,0-2.328-.248,10.283,10.283,0,0,0-1.681.143,8.033,8.033,0,0,0-3.2,1.641A8.993,8.993,0,0,1,555.15-79.665Z" transform="translate(-511.77 138.13)" fill="#fff"/>
  </g>
</svg>
