<svg xmlns="http://www.w3.org/2000/svg" width="65.371" height="61.876" viewBox="0 0 65.371 61.876">
  <path id="Path_254" data-name="Path 254" d="M566.354-58.755c-.163,0-.324,0-.484-.012h0c-.1.008-.209.012-.316.012-3.754,0-6.164-1.715-8.494-3.373a12.361,12.361,0,0,0-4.916-2.525,15.786,15.786,0,0,0-2.581-.219,17.535,17.535,0,0,0-3.577.407,7.8,7.8,0,0,1-1.333.194.839.839,0,0,1-.926-.666c-.149-.509-.256-1-.359-1.479-.266-1.227-.455-1.982-.966-2.06-5.954-.926-7.658-2.188-8.039-3.084a1.164,1.164,0,0,1-.091-.383.674.674,0,0,1,.561-.7c9.153-1.517,13.257-10.935,13.428-11.334l.014-.033a3.531,3.531,0,0,0,.327-2.948c-.628-1.49-2.677-2.145-4.033-2.578-.332-.106-.646-.206-.894-.3-2.706-1.077-2.931-2.182-2.825-2.746a2.556,2.556,0,0,1,2.486-1.629,1.733,1.733,0,0,1,.741.149,7.842,7.842,0,0,0,3.261.865,2.677,2.677,0,0,0,1.949-.626c-.033-.624-.074-1.275-.117-1.947-.273-4.356-.61-9.769.758-12.859a16.541,16.541,0,0,1,15.373-9.981l1.126-.011h.152a16.57,16.57,0,0,1,15.4,9.987c1.369,3.091,1.031,8.509.758,12.862l-.011.189c-.038.606-.074,1.2-.1,1.759a2.6,2.6,0,0,0,1.776.622h0a8.115,8.115,0,0,0,3.073-.86,2.307,2.307,0,0,1,.955-.189,2.9,2.9,0,0,1,1.1.211l.02.008a2.027,2.027,0,0,1,1.534,1.654c.012.638-.472,1.6-2.846,2.542-.246.1-.561.2-.894.3-1.357.434-3.405,1.088-4.033,2.578a3.529,3.529,0,0,0,.327,2.947c0,.011.011.022.015.033.17.4,4.271,9.814,13.428,11.333a.675.675,0,0,1,.561.7,1.137,1.137,0,0,1-.094.386c-.378.889-2.08,2.15-8.037,3.076-.487.075-.675.714-.966,2.052-.106.487-.213.966-.36,1.469a.8.8,0,0,1-.852.641h-.074a7.411,7.411,0,0,1-1.333-.169,17.674,17.674,0,0,0-3.577-.381,15.8,15.8,0,0,0-2.583.219,12.343,12.343,0,0,0-4.91,2.521C572.518-60.47,570.109-58.755,566.354-58.755Z" transform="translate(-533.268 119.631)" fill="#fff" stroke="#000" stroke-width="2"/>
</svg>
