<svg xmlns="http://www.w3.org/2000/svg" width="32.902" height="32.901" viewBox="0 0 32.902 32.901">
    <path d="M4.69,16.865c-1.084-.1-2.135-.2-3.287-.271A16.252,16.252,0,0,1,9.434,3.885C14.383.936,19.534.834,24.82,3.072c-.474,1.017-.949,2-1.39,2.983A13.246,13.246,0,0,0,4.69,16.864Zm23.587,9.183a13,13,0,0,1-9.285,5.083c.1,1.084.169,2.135.271,3.185,8-.271,16.571-8.3,14.809-19.215-1.051.169-2.135.373-3.22.576a13.023,13.023,0,0,1-2.576,10.371ZM4.656,19.169c-1.017.1-2.068.169-3.152.271.237,6.71,6.1,14.268,14.911,14.979.1-1.084.2-2.135.271-3.185C9.806,30.082,5.807,26.082,4.656,19.169ZM28.311,9.95a14.329,14.329,0,0,1,1.966,3.524c1.017-.373,2.033-.745,3.085-1.119a16.69,16.69,0,0,0-6.033-7.862c-.643.882-1.254,1.762-1.9,2.677a15.066,15.066,0,0,1,2.881,2.78ZM17.5,28.218h1.559a.449.449,0,0,0,.441-.441v-1.8a4.873,4.873,0,0,0,2.576-1.254,3.979,3.979,0,0,0,1.186-2.983,3.838,3.838,0,0,0-1.152-3.016,12.533,12.533,0,0,0-3.66-2.1,4.147,4.147,0,0,1-1.458-.915,1.737,1.737,0,0,1-.406-1.186,1.9,1.9,0,0,1,.373-1.186,1.339,1.339,0,0,1,1.119-.474,1.4,1.4,0,0,1,1.186.576,2.624,2.624,0,0,1,.441,1.288.514.514,0,0,0,.508.441l2.576-.034a.521.521,0,0,0,.508-.508,4.632,4.632,0,0,0-1.084-2.813A4.806,4.806,0,0,0,19.5,10.291V8.359a.449.449,0,0,0-.441-.441H17.5a.449.449,0,0,0-.441.441v1.864a4.973,4.973,0,0,0-2.881,1.321,3.937,3.937,0,0,0-1.221,2.983,3.917,3.917,0,0,0,1.152,3.05,13.245,13.245,0,0,0,3.693,2.033,4.509,4.509,0,0,1,1.458.915,1.925,1.925,0,0,1,.406,1.321,1.737,1.737,0,0,1-.406,1.186,1.437,1.437,0,0,1-1.152.441A2.044,2.044,0,0,1,16.62,22.9a2.408,2.408,0,0,1-.576-1.458A.486.486,0,0,0,15.536,21l-2.576.034a.521.521,0,0,0-.508.508,4.376,4.376,0,0,0,1.321,3.152,5.514,5.514,0,0,0,3.287,1.423v1.66a.473.473,0,0,0,.44.441Z" transform="translate(-1.403 -1.518)" style="fill:#fff"/>
</svg>
