<svg xmlns="http://www.w3.org/2000/svg" width="285.656" height="322.374" viewBox="0 0 285.656 322.374">
<defs>
<style>.a{opacity:0.197;}.b{fill:#5793ce;}.c{fill:#d4ecff;}.d{fill:#173d7a;}.e{fill:#fff;}.f{fill:#ffc2b0;}.g{fill:#ea9c92;}.h{fill:#ff2c9c;}.i{fill:#396caa;}.j{fill:#274f89;}.k{fill:#d3008d;}</style>
</defs><g transform="translate(-338.623 -82.067)"><g transform="translate(338.623 188.071)"><path class="a" d="M450.042,351.382l-88.519-50.9c-5.96-3.441-5.212-9.452,1.67-13.424l85.913-49.6c6.882-3.974,17.292-4.4,23.252-.964l88.519,50.9c5.96,3.441,5.212,9.45-1.668,13.424l-85.914,49.6C466.411,354.392,456,354.823,450.042,351.382Z" transform="translate(-332.915 -142.073)"/><g transform="translate(122.988)"><path fill="#5793ce" d="M530.972,257.375l-15.3-8.835,56.425-32.577c2.665-1.539,2.665-4.043,0-5.581L514.449,177.1a10.694,10.694,0,0,0-9.666,0l-56.425,32.577-15.3-8.836,56.425-32.577c11.1-6.41,29.17-6.41,40.273,0l57.643,33.28c11.1,6.41,11.1,16.841,0,23.252Z" transform="translate(-433.054 -163.458)"/></g><g transform="translate(0 16.227)"><path fill="#d4ecff" d="M583.528,257.5c0-8.182-4.974-17.685-11.111-21.229L470.186,177.244c-2.748-1.586-5.259-1.7-7.2-.615l-.005,0L340.918,247.557,458.958,336.5l120.256-69.8a5.571,5.571,0,0,0,1.063-.616h0C582.285,264.568,583.528,261.584,583.528,257.5Z" transform="translate(-337.929 -175.917)"/><path fill="#173d7a" d="M435.15,320.307l120.256-69.8a5.571,5.571,0,0,0,1.063-.616h0c2.007-1.521,3.249-4.505,3.249-8.592a27.257,27.257,0,0,0-2.994-11.823L419.644,308.622Z" transform="translate(-314.122 -159.72)"/><path fill="#5793ce" d="M451.965,319.868,349.733,260.845c-6.136-3.543-11.11-13.048-11.11-21.228h0c0-8.182,4.974-11.942,11.11-8.4l102.232,59.024c6.136,3.543,11.11,13.046,11.11,21.228h0C463.075,319.651,458.1,323.411,451.965,319.868Z" transform="translate(-338.623 -159.597)"/></g><path fill="#ffffff" d="M417.259,286.77l-12.291-7.09a5.3,5.3,0,0,1-2.215-4.232h0c0-1.631.992-2.379,2.215-1.674l12.291,7.09a5.3,5.3,0,0,1,2.214,4.232h0C419.473,286.727,418.482,287.476,417.259,286.77Z" transform="translate(-319.23 -130.177)"/></g><g transform="translate(367.19 112.328)"><g transform="translate(4.722)"><path fill="#173d7a" d="M402.024,305.859s-6.27-3.162-10.121,1.546-9.356,15.826-9.527,23.336,5.944,7,9.579,5.225,14.252-17.179,14.9-20.2-.758-7.1-1.78-7.9S402.024,305.859,402.024,305.859Z" transform="translate(-358.682 -44.966)"/><path fill="#5793ce" d="M401.269,304.806l.29,6.5a3.685,3.685,0,0,1-1.836,3.38,7.225,7.225,0,0,1-4.837.752c-4.724-.759-5.144-2.109-5.483-8.6S401.269,304.806,401.269,304.806Z" transform="translate(-356.558 -45.424)"/><g transform="translate(0 115.259)"><path fill="#173d7a" d="M384.4,296.268s-6.27-3.162-10.121,1.546-9.357,15.824-9.527,23.335,5.944,7,9.579,5.227,14.252-17.179,14.9-20.2-.758-7.1-1.78-7.9S384.4,296.268,384.4,296.268Z" transform="translate(-364.011 -163.126)"/><path fill="#5793ce" d="M383.645,295.215l.29,6.5a3.685,3.685,0,0,1-1.836,3.38,7.234,7.234,0,0,1-4.837.751c-4.724-.759-5.146-2.109-5.483-8.6S383.645,295.215,383.645,295.215Z" transform="translate(-361.888 -163.583)"/><path fill="#d4ecff" d="M441.893,206.158c-1.856-30.2-32.7,4.443-32.7,4.443l-21.112,20.694-19.013,20.885a18.739,18.739,0,0,0-4.723,15.054l7.691,58.561a5.755,5.755,0,0,0,5.772,5,19.431,19.431,0,0,0,2.848-.249,7.154,7.154,0,0,0,6.354-7.592L385.6,268.183l39.927-24.068S443.748,236.355,441.893,206.158Z" transform="translate(-364.183 -193.799)"/></g><path fill="#5793ce" d="M395.885,243.448l-5.681-2.086c-.133,0-9.659,9.213-9.575,12.438l4.275,1.371,10.732-10.418Z" transform="translate(-359.209 -64.156)"/><path fill="#5793ce" d="M419.8,257.491s23.727-13.548,26.568-19.227c1.112-2.225,2.841-4.549-4.083-7.911l-31.643,22.556,1.371,7.766Z" transform="translate(-350.134 -67.485)"/><path fill="#d4ecff" d="M459.517,215.1c-1.978-30.19-32.7,4.444-32.7,4.444L405.7,240.241l-19.013,20.884a18.742,18.742,0,0,0-4.723,15.055l7.692,58.563a5.754,5.754,0,0,0,5.771,5,19.609,19.609,0,0,0,2.848-.249,7.155,7.155,0,0,0,6.354-7.593l-1.405-54.771,39.927-24.068S461.326,242.706,459.517,215.1Z" transform="translate(-358.853 -75.833)"/><path fill="#5793ce" d="M437.937,138.474c23.387,9.7,22.918,23.52,22.918,23.52s-4.582,50.682-3.018,84.529c.654,14.151-75.177,15.23-63.869-22.52,13.334-44.51,8.335-80.543,14.578-85.977S431.887,135.966,437.937,138.474Z" transform="translate(-355.523 -96.286)"/><path fill="#ffc2b0" d="M438.711,149.919c-1.223,4.749-7.445,7.252-13.9,5.59s-10.689-6.858-9.466-11.607,7.445-7.251,13.9-5.589S439.934,145.172,438.711,149.919Z" transform="translate(-348.773 -95.474)"/><path fill="#ffffff" d="M429.025,157.393a16.97,16.97,0,0,1-4.226-.543,15.566,15.566,0,0,1-8.2-5.022,8.932,8.932,0,0,1-2.071-7.946c1.373-5.339,8.219-8.209,15.256-6.394a15.569,15.569,0,0,1,8.2,5.023,8.932,8.932,0,0,1,2.071,7.945C438.96,154.709,434.393,157.393,429.025,157.393Zm-3.52-18.221c-4.344,0-7.976,2.021-8.812,5.267a6.768,6.768,0,0,0,1.64,5.975,13.318,13.318,0,0,0,7.023,4.269c5.844,1.5,11.466-.641,12.534-4.784a6.769,6.769,0,0,0-1.64-5.975,13.307,13.307,0,0,0-7.023-4.271A15,15,0,0,0,425.5,139.173Z" transform="translate(-349.033 -95.733)"/><path fill="#ffc2b0" d="M420.308,137.966s.2.938-.2,8.348c-.128,2.33,8.031,4.506,10.139,2.4s1.265-4.3,1.771-12.231S420.308,137.966,420.308,137.966Z" transform="translate(-347.271 -96.833)"/><path fill="#ea9c92" d="M432.017,135.744s-2.01,7.352-11.912,10.172l.15-6.683Z" transform="translate(-347.271 -96.096)"/><path fill="#ffc2b0" d="M442.3,124.537a18,18,0,1,1-21.935-12.922A18,18,0,0,1,442.3,124.537Z" transform="translate(-351.276 -103.567)"/><path fill="#ea9c92" d="M429.03,126.379s-9.911,4.246-16.774,4.294-5.35-5.7-5.35-5.7l20.372-2.945Z" transform="translate(-351.306 -100.243)"/><path fill="#ff2c9c" d="M412.027,132.556s8.634-3.665,16.208-2.137a7.934,7.934,0,0,1,4.577,2.721,2.7,2.7,0,0,0,1.386,1c1.343.3,3.541-5.268,6.153-5.395s4.353,1.72,2.211,5.148-1.417,7.262-.431,7.812,11.431-7.451,2.217-25.706-32.623-8.423-36.264-4.723c0,0-3.836,3.341-6.954.367C401.13,111.646,397.633,137.836,412.027,132.556Z" transform="translate(-353.123 -105.302)"/><path fill="#ffc2b0" d="M441.94,185.993v13.695a5.583,5.583,0,0,1-1.821,4.123L411.986,229.46l3.2,4.889L452.335,207.4a7.55,7.55,0,0,0,3.078-5.323l2.511-23.884Z" transform="translate(-349.727 -83.258)"/><path fill="#5793ce" d="M446.6,150.495s8.535,12.835,11.714,46.622c0,0-14.579,4.715-22.853,2.038S446.6,150.495,446.6,150.495Z" transform="translate(-343.248 -91.635)"/><path fill="#396caa" d="M434.608,162.956s-3.342,17.882-3.531,26.286a5.364,5.364,0,0,0,3.531,5.181h0Z" transform="translate(-343.954 -87.867)"/></g><g transform="translate(4.497 135.977)"><path fill="#173d7a" d="M447.59,236.918l-6.218-.82-40.139-23.174a5.581,5.581,0,0,0-5.021.207l-28.442,16.416-3.759-.5v3.743h0a1.466,1.466,0,0,0,.863,1.318l45.489,26.263a5.578,5.578,0,0,0,5.019-.208l30.975-17.877a2.026,2.026,0,0,0,1.228-1.689h0Z" transform="translate(-364.009 -208.885)"/><path fill="#396caa" d="M417.432,220.369l-2.852-1.646H383.228l-15.457,8.918-3.759-.5v3.743h0a1.466,1.466,0,0,0,.863,1.318l45.489,26.263a4.7,4.7,0,0,0,2.59.484Z" transform="translate(-364.009 -206.979)"/><path fill="#5793ce" d="M365.68,225.409l-1.668-.22v3.743h0a1.466,1.466,0,0,0,.863,1.318l.8.462Z" transform="translate(-364.009 -205.024)"/><path fill="#274f89" d="M399.955,250.943a5.831,5.831,0,0,0,4.267-.264V244.31h-4.267Z" transform="translate(-353.14 -199.242)"/><path fill="#ffffff" d="M410.368,257.455l-45.489-26.263c-1.287-.744-1.125-2.041.361-2.9l30.974-17.877a5.581,5.581,0,0,1,5.021-.208l45.489,26.263c1.287.744,1.125,2.041-.361,2.9l-30.975,17.877A5.578,5.578,0,0,1,410.368,257.455Z" transform="translate(-364.01 -209.706)"/><path fill="#d4ecff" d="M407.963,251.245,370.14,229.408c-1.071-.617-.936-1.7.3-2.409l16.6-9.334a4.639,4.639,0,0,1,4.174-.172l37.824,21.836c1.069.619.935,1.7-.3,2.411l-16.6,9.333A4.635,4.635,0,0,1,407.963,251.245Z" transform="translate(-362.375 -207.478)"/></g><path fill="#ffc2b0" d="M390.256,209.955l-.471,3.139a23.2,23.2,0,0,0,.206,8.048l.56,2.766a3.889,3.889,0,0,0,3.117,3.055h0a2.146,2.146,0,0,0,2.516-1.873l.75-6.71s1.717,2.251,2.546,2.251-.927-6.72-2.8-10.523S390.256,209.955,390.256,209.955Z" transform="translate(-351.796 -74.131)"/><path fill="#ffc2b0" d="M406.193,173.487l-4.881,9.661a18.929,18.929,0,0,0-2,7.333l-2.12,33.042-6.421-.152-2.915-37.107a13.636,13.636,0,0,1,.165-3.431l3.33-18.817Z" transform="translate(-352.313 -87.546)"/><g transform="translate(0 116.301)"><path fill="#173d7a" d="M409.687,264.545l-3.815-4.979-40.11-23.222a5.58,5.58,0,0,1-2.323-4.456l.034-32.838-2.305-3.011,2.166-1.256,0,0a1.462,1.462,0,0,1,1.573.09L410.365,221.2a5.578,5.578,0,0,1,2.324,4.454l-.038,35.763a2.026,2.026,0,0,1-.85,1.907h0Z" transform="translate(-360.373 -194.599)"/><path fill="#396caa" d="M381.948,245.715l-2.85-1.65-15.642-27.169.016-17.844-2.305-3.011,2.166-1.256,0,0a1.462,1.462,0,0,1,1.573.09L410.365,221.2a4.708,4.708,0,0,1,1.713,2Z" transform="translate(-360.373 -194.599)"/><path fill="#5793ce" d="M362.189,197.376l-1.022-1.336,2.166-1.256,0,0a1.462,1.462,0,0,1,1.573.09l.8.464Z" transform="translate(-360.373 -194.599)"/><path fill="#274f89" d="M400.344,215.244a5.826,5.826,0,0,1,1.9,3.829l-4.443,2.564-2.128-3.7Z" transform="translate(-349.938 -188.356)"/><path fill="#5793ce" d="M408.384,222.159l-45.455-26.318c-1.287-.745-2.331.043-2.333,1.758l-.039,35.763a5.585,5.585,0,0,0,2.325,4.456l45.457,26.318c1.285.745,2.33-.043,2.333-1.758l.038-35.763A5.577,5.577,0,0,0,408.384,222.159Z" transform="translate(-360.557 -194.308)"/></g><path fill="#ffc2b0" d="M417.92,222.446l-.728,1.508a10.1,10.1,0,0,1-3.8,4.212l-4.515,2.783a4.5,4.5,0,0,1-4.609.107l-.154-.092a2.718,2.718,0,0,1-.384-4.174l4.719-4.85s-2.65,2.03-3.394,1.213c-.544-.6,2.571-3.524,4.963-3.619a9.443,9.443,0,0,0,4.706-1.976Z" transform="translate(-347.743 -71.355)"/><path fill="#5793ce" d="M410.89,137.3s-17.3,18.821-24.274,36.087c0,0,5.914,10.656,20.393,14.837S410.89,137.3,410.89,137.3Z" transform="translate(-352.677 -95.627)"/><path fill="#396caa" d="M400.656,181.826l2.8-27.082-6.606,25.373A37.564,37.564,0,0,0,400.656,181.826Z" transform="translate(-349.581 -90.35)"/></g><g transform="translate(482.094 82.067)"><path fill="#d3008d" d="M489.6,102.5,454.776,82.393a1.781,1.781,0,0,0-1.8-.145l0-.022L449.6,84.177l2.374.867V110.4a6.712,6.712,0,0,0,2.8,5.354l33.286,19.217v2.976l3.412-1.965-.018-.007a2.483,2.483,0,0,0,.947-2.234V107.852A6.71,6.71,0,0,0,489.6,102.5Z" transform="translate(-448.533 -82.067)"/><path fill="#ff2c9c" d="M486.408,137.39l-34.824-20.107a6.711,6.711,0,0,1-2.8-5.353V86.036c0-2.063,1.256-3.012,2.8-2.119l34.824,20.107a6.71,6.71,0,0,1,2.8,5.353v25.894C489.21,137.335,487.955,138.283,486.408,137.39Z" transform="translate(-448.781 -81.609)"/><g transform="translate(9.814 22.361)"><path fill="#ffffff" d="M461.016,103.627c0,1.5-1.052,2.106-2.351,1.356a5.193,5.193,0,0,1-2.35-4.069c0-1.5,1.052-2.106,2.35-1.357A5.192,5.192,0,0,1,461.016,103.627Z" transform="translate(-456.316 -99.236)"/><path fill="#ffffff" d="M466.481,106.781c0,1.5-1.052,2.106-2.35,1.357a5.192,5.192,0,0,1-2.35-4.07c0-1.5,1.051-2.106,2.35-1.357A5.2,5.2,0,0,1,466.481,106.781Z" transform="translate(-454.663 -98.282)"/><path fill="#ffffff" d="M471.946,109.938c0,1.5-1.051,2.1-2.35,1.356a5.194,5.194,0,0,1-2.349-4.07c0-1.5,1.052-2.1,2.349-1.356A5.19,5.19,0,0,1,471.946,109.938Z" transform="translate(-453.01 -97.327)"/></g></g></g></svg>