<svg xmlns="http://www.w3.org/2000/svg" width="10.182" height="14.182" viewBox="0 0 10.182 14.182">
  <path id="Path_1978" data-name="Path 1978" d="M5.727,15.606a1.523,1.523,0,0,0,1.455,1.576H13a1.523,1.523,0,0,0,1.455-1.576V7.727A1.523,1.523,0,0,0,13,6.152H7.182A1.523,1.523,0,0,0,5.727,7.727ZM7.909,7.727h4.364A.762.762,0,0,1,13,8.515v6.3a.762.762,0,0,1-.727.788H7.909a.762.762,0,0,1-.727-.788v-6.3A.762.762,0,0,1,7.909,7.727Zm4.727-3.939-.516-.559A.706.706,0,0,0,11.611,3H8.571a.706.706,0,0,0-.509.228l-.516.559H5.727A.762.762,0,0,0,5,4.576a.762.762,0,0,0,.727.788h8.728a.762.762,0,0,0,.727-.788.762.762,0,0,0-.727-.788Z" transform="translate(-5 -3)" fill="#fff"/>
</svg>
