<svg xmlns="http://www.w3.org/2000/svg" width="65" height="52.816" viewBox="0 0 65 52.816">
  <path id="Path_292" data-name="Path 292" d="M95.441,151.267c24.528,0,37.944-20.322,37.944-37.944,0-.577,0-1.152-.039-1.724A27.134,27.134,0,0,0,140,104.7a26.618,26.618,0,0,1-7.66,2.1,13.382,13.382,0,0,0,5.863-7.376,26.726,26.726,0,0,1-8.468,3.237,13.348,13.348,0,0,0-22.727,12.163,37.861,37.861,0,0,1-27.485-13.933,13.346,13.346,0,0,0,4.129,17.8,13.237,13.237,0,0,1-6.053-1.669v.169a13.341,13.341,0,0,0,10.7,13.073,13.314,13.314,0,0,1-6.022.229,13.351,13.351,0,0,0,12.459,9.261,26.759,26.759,0,0,1-16.562,5.72A27.153,27.153,0,0,1,75,145.276a37.755,37.755,0,0,0,20.441,5.98" transform="translate(-75 -98.45)" fill="#1da1f2"/>
</svg>
