<svg xmlns="http://www.w3.org/2000/svg" width="21.697" height="24.826" viewBox="0 0 21.697 24.826">
  <g id="np_user_2190759_717171" transform="translate(-14.865 -9.8)">
    <g id="Path_185" data-name="Path 185" transform="translate(-12.046 0)" fill="none" fill-rule="evenodd">
      <path d="M32.3,15.321c.179,3.165,1.659,7.584,5.4,7.584,3.786,0,5.317-4.184,5.509-7.584C43.63,7.96,31.89,7.96,32.3,15.321Z" stroke="none"/>
      <path d="M 37.76040267944336 11.29999732971191 C 36.5265007019043 11.29999732971191 35.40555191040039 11.73716735839844 34.68495178222656 12.49939727783203 C 34.03539276123047 13.18649673461914 33.73823165893555 14.10756683349609 33.80170059204102 15.23672676086426 C 33.89102935791016 16.82051849365234 34.32764053344727 18.43431663513184 34.96963119506836 19.55363845825195 C 35.68408203125 20.79928588867188 36.57979202270508 21.40481758117676 37.70793151855469 21.40481758117676 C 38.88286972045898 21.40481758117676 39.8037109375 20.82023620605469 40.5230712890625 19.61766815185547 C 41.18893051147461 18.50455665588379 41.62488174438477 16.90775680541992 41.71913146972656 15.23702716827393 C 41.78261184692383 14.10757637023926 41.48543167114258 13.1865062713623 40.83586120605469 12.49939727783203 C 40.11526107788086 11.73716735839844 38.99430084228516 11.29999732971191 37.76040267944336 11.29999732971191 M 37.76040267944336 9.799997329711914 C 40.59201812744141 9.799997329711914 43.42363739013672 11.6403980255127 43.21677017211914 15.32119750976562 C 43.0250129699707 18.72037696838379 41.49433135986328 22.90481758117676 37.70793151855469 22.90481758117676 C 33.96261978149414 22.90481758117676 32.48260116577148 18.4863166809082 32.30408096313477 15.32119750976562 C 32.09718704223633 11.6403980255127 34.92879104614258 9.799997329711914 37.76040267944336 9.799997329711914 Z" stroke="none" fill="#fff"/>
    </g>
    <g id="Path_186" data-name="Path 186" transform="translate(0 -29.356)" fill="none" fill-rule="evenodd">
      <path d="M14.869,59.6c.343-5.592,2.108-6.93,7.253-7.328a4.427,4.427,0,0,0,7.183,0c5.144.4,6.91,1.738,7.253,7.328C36.917,65.443,14.511,65.443,14.869,59.6Z" stroke="none"/>
      <path d="M 25.71396446228027 62.48170852661133 C 29.85955429077148 62.48170852661133 33.58231353759766 61.60202026367188 34.76704406738281 60.34244918823242 C 35.04513549804688 60.04679870605469 35.07033538818359 59.83815002441406 35.06121444702148 59.68936920166016 C 34.9123649597168 57.25978851318359 34.49049377441406 55.83467864990234 33.69332504272461 55.06855010986328 C 33.01677703857422 54.41835403442383 31.86952972412109 54.03801727294922 29.92096710205078 53.83194351196289 C 28.77156448364258 54.96993255615234 27.27192878723145 55.60874938964844 25.69864463806152 55.60874938964844 C 24.12786293029785 55.60874938964844 22.63750457763672 54.97038269042969 21.5006275177002 53.83259201049805 C 19.55563163757324 54.03878784179688 18.40994262695312 54.41878509521484 17.73449325561523 55.0677604675293 C 16.93742370605469 55.83358764648438 16.51557350158691 57.25894927978516 16.36667442321777 59.68938827514648 C 16.35756492614746 59.83813095092773 16.38276481628418 60.04677963256836 16.66085433959961 60.34244918823242 C 17.84560394287109 61.60200881958008 21.56837463378906 62.48170852661133 25.71396446228027 62.48170852661133 M 25.71396636962891 63.98170471191406 C 20.20217895507812 63.98170471191406 14.69038391113281 62.52034759521484 14.86948394775391 59.59764099121094 C 15.21206378936768 54.00572967529297 16.97794342041016 52.66803741455078 22.12238311767578 52.2700080871582 C 23.06311988830566 53.49885559082031 24.37974166870117 54.10874938964844 25.69864082336426 54.10874938964844 C 27.02464294433594 54.10874938964844 28.35295295715332 53.49276351928711 29.30550384521484 52.2700080871582 C 34.44997406005859 52.6680793762207 36.21596527099609 54.00815963745117 36.55840301513672 59.59764099121094 C 36.73753356933594 62.52034759521484 31.22575378417969 63.98170471191406 25.71396636962891 63.98170471191406 Z" stroke="none" fill="#fff"/>
    </g>
  </g>
</svg>
