<svg xmlns="http://www.w3.org/2000/svg" width="46" height="46" viewBox="0 0 46 46">
  <g id="Group_5970" data-name="Group 5970" transform="translate(-90.641 -178.641)">
    <g id="np_user_2190759_717171" transform="translate(98.226 184.78)">
      <g id="Path_185" data-name="Path 185" transform="translate(-21.624 -3.8)" fill="none" fill-rule="evenodd">
        <path d="M32.3,14.216c.155,2.532,1.439,6.066,4.689,6.066,3.286,0,4.614-3.347,4.78-6.066C42.131,8.328,31.944,8.328,32.3,14.216Z" stroke="none"/>
        <path d="M 37.03730392456055 11.29999542236328 C 35.96332168579102 11.29999542236328 34.97693252563477 11.66690635681152 34.3986930847168 12.28146553039551 C 33.94924163818359 12.7591667175293 33.75336074829102 13.36221599578857 33.79986190795898 14.124755859375 C 33.87372207641602 15.33187580108643 34.23272323608398 16.55865669250488 34.76018142700195 17.40638732910156 C 35.3363037109375 18.33233642578125 36.06626129150391 18.78245544433594 36.99177169799805 18.78245544433594 C 37.95972061157227 18.78245544433594 38.71256256103516 18.34742736816406 39.29329299926758 17.45250701904297 C 39.83910369873047 16.61141586303711 40.19684219360352 15.39848613739014 40.27477264404297 14.12508583068848 C 40.32128143310547 13.36222648620605 40.12540435791016 12.75917625427246 39.67593383789062 12.2814769744873 C 39.09769058227539 11.66690635681152 38.11128234863281 11.29999542236328 37.03730392456055 11.29999542236328 M 37.03730392456055 9.799999237060547 C 39.4943962097168 9.799999237060547 41.95149230957031 11.27212142944336 41.77199172973633 14.21636581420898 C 41.6055908203125 16.93535614013672 40.27736282348633 20.28245544433594 36.99177169799805 20.28245544433594 C 33.7418327331543 20.28245544433594 32.45757293701172 16.74812698364258 32.30266189575195 14.21636581420898 C 32.12313079833984 11.27212142944336 34.58021545410156 9.799999237060547 37.03730392456055 9.799999237060547 Z" stroke="none" fill="#fff"/>
      </g>
      <g id="Path_186" data-name="Path 186" transform="translate(-8.865 -35.78)" fill="none" fill-rule="evenodd">
        <path d="M14.869,58.131c.3-4.473,1.83-5.543,6.294-5.861a4.037,4.037,0,0,0,6.233,0c4.464.318,6,1.39,6.294,5.861C34,62.807,14.558,62.807,14.869,58.131Z" stroke="none"/>
        <path d="M 24.279052734375 60.13811111450195 C 28.35068321228027 60.13811111450195 31.28044319152832 59.28376007080078 32.07013320922852 58.4398193359375 C 32.15452194213867 58.34963226318359 32.19568252563477 58.27931976318359 32.19245147705078 58.23080062866211 C 32.03560256958008 55.87083053588867 31.53171157836914 55.13960266113281 31.11025238037109 54.76621246337891 C 30.55728340148926 54.27632522583008 29.60098457336426 53.98582077026367 27.9703254699707 53.82379913330078 C 26.94842338562012 54.73222351074219 25.63614273071289 55.24079895019531 24.26576232910156 55.24079895019531 C 22.89772415161133 55.24079895019531 21.59326171875 54.73251724243164 20.58181571960449 53.82437896728516 C 18.95437622070312 53.98648452758789 17.99975204467773 54.27669143676758 17.44772148132324 54.76560974121094 C 17.02633285522461 55.13883209228516 16.52251243591309 55.86999130249023 16.36562156677246 58.23081970214844 C 16.36239242553711 58.27931213378906 16.4035530090332 58.3496208190918 16.48795318603516 58.4398193359375 C 17.27766227722168 59.28376007080078 20.20742225646973 60.13811111450195 24.279052734375 60.13811111450195 M 24.279052734375 61.63811492919922 C 19.49628257751465 61.63811492919922 14.71350765228271 60.46918487548828 14.86892223358154 58.13133239746094 C 15.16618251800537 53.65840148925781 16.69850158691406 52.5883903503418 21.16252136230469 52.27000045776367 C 21.97882843017578 53.25294876098633 23.12130928039551 53.74080276489258 24.26576232910156 53.74080276489258 C 25.41637992858887 53.74080276489258 26.56899833679199 53.24808120727539 27.39556312561035 52.27000045776367 C 31.85959243774414 52.58840942382812 33.39200210571289 53.66035079956055 33.68915176391602 58.13133239746094 C 33.84458541870117 60.46918487548828 29.06182289123535 61.63811492919922 24.279052734375 61.63811492919922 Z" stroke="none" fill="#fff"/>
      </g>
    </g>
    <g id="Ellipse_439" data-name="Ellipse 439" transform="translate(90.641 178.641)" fill="none" stroke="#fff" stroke-width="3">
      <circle cx="23" cy="23" r="23" stroke="none"/>
      <circle cx="23" cy="23" r="21.5" fill="none"/>
    </g>
  </g>
</svg>
