<svg xmlns="http://www.w3.org/2000/svg" width="33.495" height="28.262" viewBox="0 0 33.495 28.262">
  <g id="Group_186" data-name="Group 186" transform="translate(-65 -327)">
    <path id="Path_174" data-name="Path 174" d="M42.836,48.984V46.89a3.083,3.083,0,0,0-3.14-3.14H19.808a3.083,3.083,0,0,0-3.14,3.14V57.357a3.149,3.149,0,0,0,3.14,3.14H39.7a3.149,3.149,0,0,0,3.14-3.14V55.263L50.163,60.5V43.75Z" transform="translate(48.332 294.765)" fill="#fff"/>
    <path id="Path_175" data-name="Path 175" d="M30.253,25.542a4.71,4.71,0,1,1-4.71-4.71,4.709,4.709,0,0,1,4.71,4.71" transform="translate(46.26 306.168)" fill="#fff"/>
    <path id="Path_176" data-name="Path 176" d="M55.253,25.542a4.71,4.71,0,1,1-4.71-4.71,4.709,4.709,0,0,1,4.71,4.71" transform="translate(33.821 306.168)" fill="#fff"/>
  </g>
</svg>
