<svg xmlns="http://www.w3.org/2000/svg" width="24.5" height="21" viewBox="0 0 24.5 21">
  <path id="Path_54516" data-name="Path 54516" d="M2,22.375V6.623A2.623,2.623,0,0,1,4.623,4H21.252a2.623,2.623,0,0,1,2.623,2.623v5.252a2.659,2.659,0,0,1,2.625,2.66v3.43a2.659,2.659,0,0,1-2.625,2.66v1.75A2.626,2.626,0,0,1,21.25,25H4.625A2.626,2.626,0,0,1,2,22.375ZM22.125,9.1a2.622,2.622,0,0,1-.873.149H4.623A2.622,2.622,0,0,1,3.75,9.1V22.375a.875.875,0,0,0,.875.875H21.25a.875.875,0,0,0,.875-.875v-1.75H16.91a2.659,2.659,0,0,1-2.66-2.66v-3.43a2.659,2.659,0,0,1,2.66-2.66h5.215V9.1Zm2.625,5.434v3.43a.908.908,0,0,1-.91.91H16.91a.908.908,0,0,1-.91-.91v-3.43a.908.908,0,0,1,.91-.91h6.93a.908.908,0,0,1,.91.91ZM22.125,6.623a.873.873,0,0,0-.873-.873H4.623a.873.873,0,0,0-.873.873v0a.873.873,0,0,0,.873.873H21.252a.873.873,0,0,0,.873-.873v0Z" transform="translate(-2 -4)" fill="#75647c" fill-rule="evenodd"/>
</svg>
