<svg xmlns="http://www.w3.org/2000/svg" width="82.582" height="67.566" viewBox="0 0 82.582 67.566">
  <path id="np_wallet_1090223_000000" d="M28.461,23c-7.229.709-11.31,7.268-11.456,13.607V79.226c-.142,7.214,4.531,11.28,11.026,11.339H88.245c6.921-.132,11.271-4.9,11.339-11.183V49.118c-.362-4.457-1.671-7.541-5.044-9.658-.054-5-.3-8.426-1.29-11.183-1.412-3.338-3.934-5.254-7.468-5.279Zm0,7.507h57.32c.6.068.523.792.626,1.251H26.271A3.677,3.677,0,0,1,28.461,30.507Zm-3.245,6.256H86.955c.02.415.024.8.039,1.251H28.265a19.107,19.107,0,0,1-3.05-1.251ZM87.189,60.536h4.887v7.507h-5a5.941,5.941,0,0,1-3.988-1.134,2.974,2.974,0,0,1-1.017-2.541,3.263,3.263,0,0,1,1.017-2.737,6.172,6.172,0,0,1,4.105-1.095ZM85.82,61.788a2.5,2.5,0,1,0,2.5,2.5A2.5,2.5,0,0,0,85.82,61.788Z" transform="translate(-17.001 -22.999)" fill="#fff"/>
</svg>
