<svg id="Group_603" data-name="Group 603" xmlns="http://www.w3.org/2000/svg" width="39.246" height="39.247" viewBox="0 0 39.246 39.247">
  <ellipse id="Ellipse_263" data-name="Ellipse 263" cx="19.623" cy="19.623" rx="19.623" ry="19.623" transform="translate(0 0)" opacity="0.151"/>
  <path id="np_whatsapp_988424_000000" d="M19.083,10A9.081,9.081,0,0,0,11.6,24.234a.454.454,0,0,1,.057.39l-.922,3.087,3.023-1.043a.453.453,0,0,1,.39.05A9.085,9.085,0,1,0,19.083,10Zm-3.718,3.96,1.653,2.732-.688.681a.455.455,0,0,0-.071.546,8.951,8.951,0,0,0,4.037,4,.455.455,0,0,0,.5-.092l.731-.731L24.2,22.766a2.519,2.519,0,0,1-1.121,1.291,2.725,2.725,0,0,1-1.845.17,9.935,9.935,0,0,1-4.541-2.845,10.121,10.121,0,0,1-2.76-4.591,2.665,2.665,0,0,1,.184-1.8,2.294,2.294,0,0,1,1.249-1.029Z" transform="translate(0.321 0.541)" fill="#fff" fill-rule="evenodd"/>
</svg>
