<svg xmlns="http://www.w3.org/2000/svg" width="26.808" height="23.727" viewBox="0 0 26.808 23.727">
  <path id="np_business_1857107_C6C6C6" d="M13.072,20.144h4.109V17.679a2.3,2.3,0,0,1,2.259-2.362h9.553a2.389,2.389,0,0,1,2.362,2.362v2.465h4.006A2.279,2.279,0,0,1,37.621,22.4V36.784a2.279,2.279,0,0,1-2.259,2.259H13.073a2.279,2.279,0,0,1-2.259-2.259V22.4a2.279,2.279,0,0,1,2.259-2.259Zm5.752,0H29.609V17.679a.662.662,0,0,0-.616-.616H19.44a.662.662,0,0,0-.616.616Z" transform="translate(-10.813 -15.317)" fill="#c6c6c6" fill-rule="evenodd"/>
</svg>
