<svg width="122" height="202" xmlns="http://www.w3.org/2000/svg" xmlns:xlink="http://www.w3.org/1999/xlink">
 <defs>
  <filter filterUnits="userSpaceOnUse" height="21.998" width="0.969" y="44.298" x="128.336" id="Rectangle_9">
   <feGaussianBlur/>
  </filter>
  <filter filterUnits="userSpaceOnUse" height="13.752" width="0.976" y="57.366" x="34.555" id="Rectangle_9-2">
   <feGaussianBlur/>
  </filter>
  <filter filterUnits="userSpaceOnUse" height="13.77" width="0.976" y="39.8" x="34.555" id="Rectangle_9-3">
   <feGaussianBlur/>
  </filter>
  <clipPath id="clip-path">
   <path fill="url(#linear-gradient)" d="m67.565,196.593a2.758,2.758 0 0 0 -1.128,-0.221l-8.902,0a2.918,2.918 0 0 0 -1.238,0.222l-24.807,0c-5.353,0 -9.484,-1.431 -12.281,-4.254s-4.215,-6.994 -4.215,-12.4l0,-103.707a0.319,0.319 0 0 0 0.111,-0.126a3.035,3.035 0 0 1 -0.55,-0.229l0,-13.392a5.227,5.227 0 0 1 0.58,-0.119l0,0.005a0.31,0.31 0 0 0 -0.147,-0.183l0,-3.494a0.323,0.323 0 0 0 0.111,-0.126q-0.507,-0.1 -0.551,-0.229l0,-13.394a4.34,4.34 0 0 1 0.58,-0.146a0.289,0.289 0 0 0 -0.134,-0.152l0,-6.226a1.135,1.135 0 0 0 0.074,-0.265l-0.514,0l-0.219,-0.242l0,-6.733l0.205,-0.207l0.495,0a0.866,0.866 0 0 0 -0.039,-0.11l0,-9.213c0,-5.4 1.418,-9.575 4.215,-12.4s6.924,-4.252 12.279,-4.252l60.881,0c5.352,0 9.484,1.431 12.281,4.254s4.215,6.994 4.215,12.4l0,27.36a0.728,0.728 0 0 0 -0.138,0.286c0.5,0.123 0.578,0.086 0.578,0.086l0,21.608a0.829,0.829 0 0 1 -0.568,0.3a0.682,0.682 0 0 0 0.129,0.253l0,108.4c0,5.4 -1.418,9.574 -4.215,12.4s-6.928,4.255 -12.281,4.255l-24.807,-0.009zm41.081,-146.771l0.06,-0.438a2.332,2.332 0 0 0 -0.052,0.351l-0.008,0l0,0.087z" id="MAsk"/>
  </clipPath>
  <filter filterUnits="userSpaceOnUse" height="21.998" width="0.969" y="44.298" x="128.336" id="Rectangle_9-4">
   <feGaussianBlur/>
  </filter>
  <clipPath id="clip-path-2">
   <g id="svg_1" filter="url(#Rectangle_9)">
    <path fill="url(#linear-gradient-2)" d="m108.536996,50.706a1.121,1.121 0 0 1 0.01,-0.151l0.172,-1.257c0.512,0.126 0.587,0.089 0.587,0.089l0,21.611a0.837,0.837 0 0 1 -0.588,0.3l-0.168,-1.14a1.121,1.121 0 0 1 -0.013,-0.16l0,-19.292z" id="Rectangle_9-5"/>
   </g>
  </clipPath>
  <filter filterUnits="userSpaceOnUse" height="13.752" width="0.976" y="57.366" x="34.555" id="Rectangle_9-6">
   <feGaussianBlur/>
  </filter>
  <clipPath id="clip-path-3">
   <g id="svg_2" filter="url(#Rectangle_9-2)">
    <path fill="url(#linear-gradient-3)" d="m15.324,63.727999a2.742,2.742 0 0 0 -0.187,-1.362a5.256,5.256 0 0 0 -0.582,0.119l0,13.393a3.182,3.182 0 0 0 0.582,0.24c0.114,-0.174 0.149,-0.2 0.187,-1.158c0,-0.888 0.016,-10.583 0,-11.232z" id="Rectangle_9-7"/>
   </g>
  </clipPath>
  <filter filterUnits="userSpaceOnUse" height="13.77" width="0.976" y="39.8" x="34.555" id="Rectangle_9-8">
   <feGaussianBlur/>
  </filter>
  <clipPath id="clip-path-4">
   <g id="svg_3" filter="url(#Rectangle_9-3)">
    <path fill="url(#linear-gradient-3)" d="m15.324,46.189999a3.681,3.681 0 0 0 -0.18,-1.39a4.228,4.228 0 0 0 -0.589,0.146l0,13.393q0.044,0.135 0.561,0.231c0.121,-0.145 0.208,-0.345 0.208,-1.149c0,-0.887 0.016,-10.582 0,-11.231z" id="Rectangle_9-9"/>
   </g>
  </clipPath>
  <filter filterUnits="userSpaceOnUse" height="7.183" width="1.079" y="25.975" x="34.335" id="Rectangle_9-10">
   <feGaussianBlur/>
  </filter>
  <clipPath id="clip-path-5">
   <path fill="none" d="m14.554,38.156l-0.219,-0.241l0,-6.733l0.205,-0.207l0.541,0a2.785,2.785 0 0 1 0.133,0.888l0,5.106a5.865,5.865 0 0 1 -0.133,1.189l-0.527,-0.002z" id="Union_61"/>
  </clipPath>
  <filter filterUnits="userSpaceOnUse" height="3.5" width="12.5" y="6.855" x="75.51" id="Speaker">
   <feGaussianBlur/>
  </filter>
  <filter filterUnits="userSpaceOnUse" height="3.5" width="12.5" y="6.355" x="76.01" id="Speaker-2">
   <feGaussianBlur/>
  </filter>
  <clipPath id="clip-path-6">
   <circle fill="url(#radial-gradient)" transform="rotate(-74 0,1.6990000009536743) " r="0.879" cy="2.578" cx="0.879" id="Lens"/>
  </clipPath>
  <clipPath id="clip-path-7">
   <path opacity="0" fill="#4a90e2" d="m37.857,10.772a1.1,1.1 0 0 1 1.1,1.11l0,0.666a4.86,4.86 0 0 0 4.836,4.884l36.274,0a4.86,4.86 0 0 0 4.836,-4.884l0,-0.666a1.1,1.1 0 0 1 1.099,-1.11l8.574,0a8.616,8.616 0 0 1 8.574,8.658l0,162.954a8.616,8.616 0 0 1 -8.574,8.658l-65.292,0a8.616,8.616 0 0 1 -8.574,-8.658l0,-162.954a8.616,8.616 0 0 1 8.574,-8.658l8.573,0z" id="Screen_Shape"/>
  </clipPath>
  <filter filterUnits="userSpaceOnUse" height="94.295" width="164.481" y="54.501" x="0" id="Rectangle_91">
   <feGaussianBlur stdDeviation="7.5"/>
  </filter>
  <filter filterUnits="userSpaceOnUse" height="54" width="156" y="36.855" x="4.01" id="Rectangle_1986">
   <feGaussianBlur stdDeviation="6"/>
  </filter>
  <linearGradient gradientUnits="objectBoundingBox" y2="0.5" x2="1" y1="0.5" id="linear-gradient">
   <stop stop-opacity="0" stop-color="#cfd3d8" offset="0"/>
   <stop stop-opacity="0" stop-color="#ecedf0" offset="0.126"/>
   <stop stop-opacity="0" stop-color="#f0f1f2" offset="0.933"/>
   <stop stop-opacity="0" stop-color="#fbfeff" offset="1"/>
  </linearGradient>
  <linearGradient gradientUnits="objectBoundingBox" y2="0.986" x2="0.496" y1="0.017" x1="0.496" id="linear-gradient-2">
   <stop stop-color="#b1b8c2" offset="0"/>
   <stop stop-color="#eceef1" offset="0.052"/>
   <stop stop-color="#edeef1" offset="0.921"/>
   <stop stop-color="#b1b8c2" offset="1"/>
  </linearGradient>
  <linearGradient xlink:href="#linear-gradient-2" y2="0.986" x2="0.5" y1="0.017" x1="0.5" id="linear-gradient-3"/>
  <radialGradient gradientUnits="objectBoundingBox" r="0.675" cy="0.375" cx="0.75" id="radial-gradient">
   <stop stop-color="#fff" offset="0"/>
   <stop stop-color="#dbdbdc" offset="1"/>
  </radialGradient>
  <linearGradient xlink:href="#linear-gradient" y2="0.5" y1="0.5" x1="0" id="linear-gradient-5"/>
  <linearGradient gradientUnits="objectBoundingBox" y2="0.5" x2="1" y1="0.5" id="linear-gradient-6">
   <stop stop-color="#cfd3d8" offset="0"/>
   <stop stop-color="#ecedf0" offset="0.126"/>
   <stop stop-color="#f0f1f2" offset="0.933"/>
   <stop stop-color="#fbfeff" offset="1"/>
  </linearGradient>
  <linearGradient gradientUnits="objectBoundingBox" y2="1" x2="0.5" y1="0.802" x1="0.5" id="linear-gradient-7">
   <stop stop-opacity="0.502" stop-color="#fff" offset="0"/>
   <stop stop-color="#d0d5da" offset="1"/>
  </linearGradient>
  <linearGradient gradientUnits="objectBoundingBox" y2="0.5" x2="1" y1="0.5" id="linear-gradient-8">
   <stop stop-color="#d9d9d9" offset="0"/>
   <stop stop-opacity="0" stop-color="#edf1f4" offset="0.204"/>
   <stop stop-opacity="0" stop-color="#eef1f4" offset="0.903"/>
   <stop stop-color="#fff" offset="1"/>
  </linearGradient>
  <linearGradient gradientUnits="objectBoundingBox" y2="0.5" x2="1" y1="0.5" id="linear-gradient-9">
   <stop stop-color="#ecedf0" offset="0"/>
   <stop stop-color="#f8f8f8" offset="1"/>
  </linearGradient>
  <linearGradient gradientUnits="objectBoundingBox" y2="1" x2="0.5" y1="0.856" x1="0.5" id="linear-gradient-10">
   <stop stop-opacity="0" stop-color="#e3e6eb" offset="0"/>
   <stop stop-color="#e3e6eb" offset="1"/>
  </linearGradient>
  <linearGradient gradientUnits="objectBoundingBox" y2="0.5" x2="0" y1="0.5" x1="1" id="linear-gradient-11">
   <stop stop-opacity="0.102" stop-color="#656668" offset="0"/>
   <stop stop-opacity="0.055" stop-color="#505051" offset="0.78"/>
   <stop stop-opacity="0.102" stop-color="#434446" offset="1"/>
  </linearGradient>
  <linearGradient gradientUnits="objectBoundingBox" y2="0.5" x2="1" y1="0.5" id="linear-gradient-19">
   <stop stop-opacity="0" stop-color="#d0d5da" offset="0"/>
   <stop stop-opacity="0" stop-color="#d0d4d9" offset="0.684"/>
   <stop stop-color="#d0d4d9" offset="1"/>
  </linearGradient>
  <linearGradient gradientUnits="objectBoundingBox" y2="0.919" x2="0.5" y1="0.085" x1="0.5" id="linear-gradient-20">
   <stop stop-color="#111" offset="0"/>
   <stop stop-color="#fefefe" offset="0.154"/>
   <stop stop-color="#fefefe" offset="0.831"/>
   <stop stop-color="#1d1d1d" offset="1"/>
  </linearGradient>
  <linearGradient gradientUnits="objectBoundingBox" y2="0.115" x2="0.66" y1="1" x1="0.298" id="linear-gradient-21">
   <stop stop-color="#f5f9fc" offset="0"/>
   <stop stop-color="#eaeaea" offset="1"/>
  </linearGradient>
 </defs>
 <g>
  <title>background</title>
  <rect fill="none" id="canvas_background" height="204" width="124" y="-1" x="-1"/>
 </g>
 <g>
  <title>Layer 1</title>
  <g id="Component_98_2">
   <g id="Group_916">
    <g id="White_Clay">
     <g id="Body">
      <path fill="url(#linear-gradient-5)" d="m67.565,196.593a2.758,2.758 0 0 0 -1.128,-0.221l-8.902,0a2.918,2.918 0 0 0 -1.238,0.222l-24.807,0c-5.353,0 -9.484,-1.431 -12.281,-4.254s-4.215,-6.994 -4.215,-12.4l0,-103.707a0.319,0.319 0 0 0 0.111,-0.126a3.035,3.035 0 0 1 -0.55,-0.229l0,-13.392a5.227,5.227 0 0 1 0.58,-0.119l0,0.005a0.31,0.31 0 0 0 -0.147,-0.183l0,-3.494a0.323,0.323 0 0 0 0.111,-0.126q-0.507,-0.1 -0.551,-0.229l0,-13.394a4.34,4.34 0 0 1 0.58,-0.146a0.289,0.289 0 0 0 -0.134,-0.152l0,-6.226a1.135,1.135 0 0 0 0.074,-0.265l-0.514,0l-0.219,-0.242l0,-6.733l0.205,-0.207l0.495,0a0.866,0.866 0 0 0 -0.039,-0.11l0,-9.213c0,-5.4 1.418,-9.575 4.215,-12.4s6.924,-4.252 12.279,-4.252l60.881,0c5.352,0 9.484,1.431 12.281,4.254s4.215,6.994 4.215,12.4l0,27.36a0.728,0.728 0 0 0 -0.138,0.286c0.5,0.123 0.578,0.086 0.578,0.086l0,21.608a0.829,0.829 0 0 1 -0.568,0.3a0.682,0.682 0 0 0 0.129,0.253l0,108.4c0,5.4 -1.418,9.574 -4.215,12.4s-6.928,4.255 -12.281,4.255l-24.807,-0.009zm41.081,-146.771l0.06,-0.438a2.332,2.332 0 0 0 -0.052,0.351l-0.008,0l0,0.087z" id="MAsk-2"/>
      <g clip-path="url(#clip-path)" id="Body-2">
       <g id="Body-3">
        <path fill="url(#linear-gradient-6)" d="m56.295,196.593l-24.8,0c-5.353,0 -9.485,-1.431 -12.281,-4.254s-4.219,-6.994 -4.219,-12.397l0,-103.709c0.142,-0.087 0.22,-0.35 0.22,-0.742l0,-12.776l-0.008,0c-0.023,-0.3 -0.092,-0.469 -0.212,-0.526l0,-3.494c0.142,-0.087 0.22,-0.35 0.22,-0.741l0,-12.777l-0.008,0c-0.023,-0.3 -0.092,-0.469 -0.212,-0.526l0,-6.229a5.469,5.469 0 0 0 0.173,-1.4l0,-0.022c0.013,-0.221 0.027,-0.471 0.046,-0.7l0,-3a11.259,11.259 0 0 0 -0.219,-2.435l0,-9.213c0,-5.4 1.418,-9.575 4.215,-12.4s6.928,-4.252 12.285,-4.252l60.876,0c5.353,0 9.484,1.431 12.281,4.254s4.215,6.994 4.215,12.4l0,27.361a1.334,1.334 0 0 0 -0.211,0.72l-0.008,0l0,20.757l0.056,0.666a0.873,0.873 0 0 0 0.164,0.387l0,108.4c0,5.4 -1.418,9.574 -4.215,12.4s-6.928,4.255 -12.281,4.255l-24.807,0a2.757,2.757 0 0 0 -1.128,-0.221l-8.9,0a2.918,2.918 0 0 0 -1.238,0.222l-0.004,-0.008z" id="Body-4"/>
        <path fill="url(#linear-gradient-7)" d="m56.295,196.593l-24.8,0c-5.353,0 -9.485,-1.431 -12.281,-4.254s-4.219,-6.994 -4.219,-12.397l0,-103.709c0.142,-0.087 0.22,-0.35 0.22,-0.742l0,-12.776l-0.008,0c-0.023,-0.3 -0.092,-0.469 -0.212,-0.526l0,-3.494c0.142,-0.087 0.22,-0.35 0.22,-0.741l0,-12.777l-0.008,0c-0.023,-0.3 -0.092,-0.469 -0.212,-0.526l0,-6.229a5.469,5.469 0 0 0 0.173,-1.4l0,-0.022c0.013,-0.221 0.027,-0.471 0.046,-0.7l0,-3a11.259,11.259 0 0 0 -0.219,-2.435l0,-9.213c0,-5.4 1.418,-9.575 4.215,-12.4s6.928,-4.252 12.285,-4.252l60.876,0c5.353,0 9.484,1.431 12.281,4.254s4.215,6.994 4.215,12.4l0,27.361a1.334,1.334 0 0 0 -0.211,0.72l-0.008,0l0,20.757l0.056,0.666a0.873,0.873 0 0 0 0.164,0.387l0,108.4c0,5.4 -1.418,9.574 -4.215,12.4s-6.928,4.255 -12.281,4.255l-24.807,0a2.757,2.757 0 0 0 -1.128,-0.221l-8.9,0a2.918,2.918 0 0 0 -1.238,0.222l-0.004,-0.008z" id="Body-5"/>
       </g>
       <circle fill="rgba(74,74,74,0.15)" r="5.5" cy="10.355" cx="21.51" id="Oval"/>
       <path fill="url(#linear-gradient-8)" stroke-width="0.5" stroke-miterlimit="10" stroke="#707070" d="m91.296,6.554c10.892,0 16.032,4.489 16.032,15.389l0,156.306c0,10.9 -5.139,15.169 -16.032,15.169l-58.73,0c-10.893,0 -16.252,-4.272 -16.252,-15.169l0,-156.306c0,-10.9 5.36,-15.389 16.252,-15.389l58.73,0z" id="Edge"/>
       <g id="Glass">
        <path fill="url(#linear-gradient-9)" d="m91.385,7.22c10.893,0 15.063,4.394 15.063,15.3l0,154.94c0,10.908 -4.169,15.085 -15.5,15.085l-58.472,0c-10.674,0 -15.283,-4.177 -15.283,-14.866l0,-155.159c0,-10.906 4.39,-15.3 15.283,-15.3l58.909,0z" id="Glass-2"/>
        <path fill="url(#linear-gradient-10)" d="m91.385,7.22c10.893,0 15.063,4.394 15.063,15.3l0,154.94c0,10.908 -4.169,15.085 -15.5,15.085l-58.472,0c-10.674,0 -15.283,-4.177 -15.283,-14.866l0,-155.159c0,-10.906 4.39,-15.3 15.283,-15.3l58.909,0z" id="Glass-3"/>
       </g>
       <g id="Antenna_Bands">
        <rect height="0" x="15.011" y="176.856005" fill="url(#linear-gradient-11)" width="1" id="Rectangle"/>
        <rect height="0" x="108.011001" y="176.856005" fill="url(#linear-gradient-11)" width="1" id="Rectangle_2"/>
        <rect height="0" x="15.011" y="24.855999" fill="url(#linear-gradient-11)" width="1" id="Rectangle_3"/>
        <rect height="0" x="108.011001" y="24.855999" fill="url(#linear-gradient-11)" width="1" id="Rectangle_4"/>
       </g>
       <g id="Side_Button">
        <g id="svg_4" filter="url(#Rectangle_9-4)" transform="matrix(1,0,0,1,-128.54,-44.3) ">
         <path fill="url(#linear-gradient-2)" d="m237.066996,95.006a1.121,1.121 0 0 1 0.01,-0.151l0.172,-1.257c0.512,0.126 0.587,0.089 0.587,0.089l0,21.611a0.837,0.837 0 0 1 -0.588,0.3l-0.168,-1.14a1.121,1.121 0 0 1 -0.013,-0.16l0,-19.292z" id="Rectangle_9-11"/>
        </g>
        <g clip-path="url(#clip-path-2)" id="Side_Button-2">
         <path fill="#f7faff" d="m109.695996,48.957s-0.542,-0.07 -0.61,1.554c0,11.555 0,18.871 0,18.834c0,1.835 0.527,1.933 0.61,2.035l0.05,-0.323a3.284,3.284 0 0 1 -0.36,-1.886l0,-17.78a5.225,5.225 0 0 1 0.31,-2.043l0,-0.391z" id="Rectangle_10"/>
        </g>
       </g>
       <g id="Volume">
        <g id="Down">
         <g id="svg_5" filter="url(#Rectangle_9-6)" transform="matrix(1,0,0,1,-34.55,-57.37) ">
          <path fill="url(#linear-gradient-3)" d="m49.873999,121.097998a2.742,2.742 0 0 0 -0.187,-1.362a5.256,5.256 0 0 0 -0.582,0.119l0,13.393a3.182,3.182 0 0 0 0.582,0.24c0.114,-0.174 0.149,-0.2 0.187,-1.158c0,-0.888 0.016,-10.583 0,-11.232z" id="Rectangle_9-12"/>
         </g>
         <g clip-path="url(#clip-path-3)" id="Down-2">
          <path fill="#d0d5da" d="m14.165,62.054999s0.541,-0.07 0.61,1.554l0,10.62c0,1.835 -0.527,1.933 -0.61,2.035l-0.05,-0.321a3.284,3.284 0 0 0 0.355,-1.888l0,-9.566a5.225,5.225 0 0 0 -0.305,-2.043l0,-0.391z" id="Rectangle_10-2"/>
         </g>
        </g>
        <g id="Up">
         <g id="svg_6" filter="url(#Rectangle_9-8)" transform="matrix(1,0,0,1,-34.55,-39.8) ">
          <path fill="url(#linear-gradient-3)" d="m49.873999,85.989998a3.681,3.681 0 0 0 -0.18,-1.39a4.228,4.228 0 0 0 -0.589,0.146l0,13.393q0.044,0.135 0.561,0.231c0.121,-0.145 0.208,-0.345 0.208,-1.149c0,-0.887 0.016,-10.582 0,-11.231z" id="Rectangle_9-13"/>
         </g>
         <g clip-path="url(#clip-path-4)" id="Up-2">
          <path fill="#d0d5da" d="m14.165,44.516999s0.541,-0.07 0.61,1.554l0,10.62c0,1.835 -0.527,1.933 -0.61,2.035l-0.05,-0.321a3.284,3.284 0 0 0 0.355,-1.888l0,-9.566a5.225,5.225 0 0 0 -0.305,-2.043l0,-0.391z" id="Rectangle_10-3"/>
         </g>
        </g>
       </g>
       <g id="Ring_Silent_switch">
        <g id="Rectangle_9-14">
         <g id="svg_7" filter="url(#Rectangle_9-10)" transform="matrix(1,0,0,1,-34.33,-25.97) ">
          <path fill="url(#linear-gradient-3)" d="m49.544002,57.833a2.785,2.785 0 0 0 -0.133,-0.888l-0.541,0l-0.205,0.207l0,6.733l0.219,0.242l0.527,0a5.863,5.863 0 0 0 0.133,-1.188l0,-5.106z" id="Rectangle_9-15"/>
         </g>
         <path fill="url(#linear-gradient-19)" d="m15.214,31.863a2.785,2.785 0 0 0 -0.133,-0.888l-0.541,0l-0.205,0.207l0,6.733l0.219,0.242l0.527,0a5.863,5.863 0 0 0 0.133,-1.188l0,-5.106z" id="Rectangle_9-16"/>
        </g>
        <g clip-path="url(#clip-path-5)" id="Ring_Silent_switch-2">
         <path fill="url(#linear-gradient-20)" d="m14.335,30.531a2.678,2.678 0 0 1 0.33,1.4l0,4.924c0,1.576 -0.34,1.512 -0.404,1.616l-0.036,-0.325a3.171,3.171 0 0 0 0.22,-1.4l0,-4.439a4.017,4.017 0 0 0 -0.184,-1.376l0.074,-0.4z" id="Rectangle_10_Copy"/>
        </g>
       </g>
       <g id="Built-in_stereo_speaker_microphone">
        <g id="Speaker-3">
         <g id="svg_8" filter="url(#Speaker)" transform="matrix(1,0,0,1,-76.43,-6.81) ">
          <rect x="132.439004" y="18.671" fill="#eef0f1" rx="1.5" height="3" width="12" id="Speaker-4"/>
         </g>
         <g id="svg_9" filter="url(#Speaker-2)" transform="matrix(1,0,0,1,-76.43,-6.81) ">
          <rect x="132.439004" y="18.671" fill="none" rx="1.5" height="3" width="12" id="Speaker-5"/>
         </g>
         <rect x="56.010002" y="11.855" fill="none" rx="1.5" height="3" width="12" id="Speaker-6"/>
         <g stroke-width="0.5" stroke-miterlimit="10" stroke="#707070" fill="#d8d8d8" id="Speaker-7">
          <rect id="svg_10" x="56.010002" y="11.855" rx="1.5" height="3" width="12"/>
          <rect id="svg_11" fill="none" rx="1.25" height="2.5" width="11.5" y="12.105" x="56.260002"/>
         </g>
        </g>
       </g>
       <g id="Camera">
        <circle fill="url(#linear-gradient-21)" transform="rotate(-74 70.30099487304689,13.572999954223643) " r="1.319" cy="14.892" cx="71.62" id="Border"/>
        <circle fill="url(#radial-gradient)" transform="rotate(-74 70.8449935913086,13.269001007080078) " r="0.879" cy="14.148" cx="71.724" id="Lens-2"/>
       </g>
      </g>
     </g>
     <g id="Screen">
      <path opacity="0" fill="#4a90e2" d="m37.857,10.772a1.1,1.1 0 0 1 1.1,1.11l0,0.666a4.86,4.86 0 0 0 4.836,4.884l36.274,0a4.86,4.86 0 0 0 4.836,-4.884l0,-0.666a1.1,1.1 0 0 1 1.099,-1.11l8.574,0a8.616,8.616 0 0 1 8.574,8.658l0,162.954a8.616,8.616 0 0 1 -8.574,8.658l-65.292,0a8.616,8.616 0 0 1 -8.574,-8.658l0,-162.954a8.616,8.616 0 0 1 8.574,-8.658l8.573,0z" id="Screen_Shape-2"/>
      <g clip-path="url(#clip-path-7)" id="Screen-2">
       <rect x="22.01" y="10.855" fill="#fff" height="179" width="82" id="Screen-3"/>
      </g>
     </g>
    </g>
    <g id="Google_2015_logo">
     <path fill="#ea4335" d="m57.598,42.608a4.8,4.8 0 1 1 -4.8,-4.831a4.748,4.748 0 0 1 4.8,4.831zm-2.1,0a2.707,2.707 0 1 0 -5.4,0a2.707,2.707 0 1 0 5.4,0z" id="Path_1246"/>
     <path fill="#fbbc05" d="m67.951996,42.608a4.8,4.8 0 1 1 -4.8,-4.831a4.748,4.748 0 0 1 4.8,4.831zm-2.1,0a2.707,2.707 0 1 0 -5.4,0a2.707,2.707 0 1 0 5.4,0z" id="Path_1247"/>
     <path fill="#4285f4" d="m77.872007,38.069l0,8.674c0,3.568 -2.084,5.025 -4.547,5.025a4.558,4.558 0 0 1 -4.241,-2.847l1.829,-0.769a2.645,2.645 0 0 0 2.409,1.714c1.577,0 2.554,-0.982 2.554,-2.832l0,-0.695l-0.073,0a3.244,3.244 0 0 1 -2.519,1.1a4.837,4.837 0 0 1 0,-9.661a3.3,3.3 0 0 1 2.519,1.08l0.073,0l0,-0.786l2,0l-0.004,-0.003zm-1.842,4.56a2.712,2.712 0 0 0 -2.558,-2.952a2.782,2.782 0 0 0 -2.664,2.945a2.761,2.761 0 0 0 2.664,2.914a2.69,2.69 0 0 0 2.555,-2.91l0.003,0.003z" id="Path_1248"/>
     <path fill="#34a853" d="m81.163005,32.985l0,14.159l-2.049,0l0,-14.159l2.049,0z" id="Path_1249"/>
     <path fill="#ea4335" d="m89.147993,44.199l1.631,1.1a4.753,4.753 0 0 1 -3.986,2.141a4.7,4.7 0 0 1 -4.748,-4.831a4.571,4.571 0 0 1 4.51,-4.834a4.452,4.452 0 0 1 4.094,3.074l0.218,0.549l-6.4,2.675a2.433,2.433 0 0 0 2.319,1.464a2.725,2.725 0 0 0 2.362,-1.338zm-5.019,-1.738l4.275,-1.793a1.85,1.85 0 0 0 -1.775,-1.024a2.639,2.639 0 0 0 -2.5,2.816l0,0.001z" id="Path_1250"/>
     <path fill="#4285f4" d="m40.241999,41.352l0,-2.05l6.84,0a6.857,6.857 0 0 1 0.1,1.237a6.809,6.809 0 0 1 -1.758,4.794a6.76,6.76 0 0 1 -5.181,2.1a7.569,7.569 0 0 1 -7.535,-7.497a7.569,7.569 0 0 1 7.54,-7.502a7.044,7.044 0 0 1 5.091,2.067l-1.436,1.447a5.148,5.148 0 0 0 -3.661,-1.464a5.356,5.356 0 0 0 -5.327,5.452a5.356,5.356 0 0 0 5.328,5.452a4.946,4.946 0 0 0 3.751,-1.5a4.268,4.268 0 0 0 1.1,-2.538l-4.852,0.002z" id="Path_1251"/>
    </g>
    <rect x="33.009999" y="151.854996" fill="#ededed" height="14" width="58" id="Rectangle_1990"/>
    <rect x="33.009999" y="132.855003" fill="#ededed" height="14" width="58" id="Rectangle_1991"/>
   </g>
   <g id="Component_80_3">
    <g id="svg_12" filter="url(#Rectangle_91)" transform="matrix(1,0,0,1,-22.5,-74) ">
     <rect x="25" y="153.000999" fill="#fff" rx="1" height="49.295" width="119.481" id="Rectangle_91-2"/>
    </g>
    <line x1="2.529" y1="108.563999" y2="108.563999" stroke="#ededed" fill="none" x2="122.01" id="Line_11"/>
    <rect x="9.01" y="88.855" fill="#1f00ab" rx="2" height="4" width="103" id="Rectangle_2047"/>
    <rect x="26.01" y="98.855" fill="#197332" rx="1.5" height="3" width="86" id="Rectangle_2048"/>
    <rect x="9.01" y="119.855" fill="#787878" rx="1.5" height="3" width="103" id="Rectangle_2051"/>
    <rect x="9.01" y="113.855" fill="#787878" rx="1.5" height="3" width="103" id="Rectangle_2053"/>
    <rect x="9.01" y="95.855" fill="#197432" rx="2" height="9" width="14" id="Rectangle_2049"/>
   </g>
   <g id="Group_725">
    <g id="svg_13" filter="url(#Rectangle_1986)" transform="matrix(1,0,0,1,-22.01,-51.7) ">
     <rect x="24.02" y="108.556" fill="#fff" rx="2" height="18" width="120" id="Rectangle_1986-2"/>
    </g>
    <g id="Google_mic">
     <path fill="#4285f4" d="m111.715996,67.805999l0,0a1.519,1.519 0 0 1 -1.512,-1.527l0,-3.565a1.519,1.519 0 0 1 1.512,-1.527l0,0a1.519,1.519 0 0 1 1.512,1.527l0,3.565a1.519,1.519 0 0 1 -1.512,1.527z" id="Path_1252"/>
     <rect x="111.212999" y="69.541999" fill="#34a853" height="1.867" width="1.009" id="Rectangle_1988"/>
     <path fill="#ea4335" d="m114.242,66.296002a2.543,2.543 0 0 1 -2.526,2.548a2.507,2.507 0 0 1 -1.79,-0.753l-0.705,0.712a3.5,3.5 0 0 0 2.495,1.045l0,0a3.542,3.542 0 0 0 3.523,-3.555l-1,0l0.003,0.003z" id="Path_1253"/>
     <path fill="#fbbc05" d="m109.925999,68.097995a2.554,2.554 0 0 1 -0.733,-1.8l-1,0a3.563,3.563 0 0 0 1.028,2.508l0.705,-0.708z" id="Path_1254"/>
    </g>
    <rect x="9.01" y="64.855" fill="#787878" rx="2" height="4" width="95" id="Rectangle_2054"/>
   </g>
  </g>
 </g>
</svg>