<svg xmlns="http://www.w3.org/2000/svg" xmlns:xlink="http://www.w3.org/1999/xlink" width="326" height="99" viewBox="0 0 326 99">
  <defs>
    <linearGradient id="linear-gradient" x1="0.5" x2="0.5" y2="1" gradientUnits="objectBoundingBox">
      <stop offset="0" stop-color="#733a84"/>
      <stop offset="1" stop-color="#9e4cdd"/>
    </linearGradient>
  </defs>
  <text id="Discover" transform="translate(111 34)" fill="#fff" font-size="18" font-family="Montserrat-Regular, Montserrat"><tspan x="-38.538" y="0">Discover</tspan></text>
  <path id="Union_30" data-name="Union 30" d="M872.033-42.272,876.2-38.1ZM863-46.788A5.211,5.211,0,0,1,868.211-52a5.212,5.212,0,0,1,5.212,5.212,5.212,5.212,0,0,1-5.212,5.211A5.211,5.211,0,0,1,863-46.788Z" transform="translate(-808.893 73.5)" fill="none" stroke="#fff" stroke-linecap="round" stroke-linejoin="round" stroke-width="2"/>
  <path id="Path_254" data-name="Path 254" d="M547.5-93.945c-.067,0-.133,0-.2-.005h0c-.042,0-.086.005-.13.005a5.7,5.7,0,0,1-3.5-1.391,5.1,5.1,0,0,0-2.027-1.041,6.51,6.51,0,0,0-1.064-.09,7.231,7.231,0,0,0-1.475.168,3.215,3.215,0,0,1-.55.08.346.346,0,0,1-.382-.275c-.061-.21-.105-.413-.148-.61-.11-.506-.188-.817-.4-.85-2.455-.382-3.158-.9-3.314-1.272a.478.478,0,0,1-.038-.158.278.278,0,0,1,.231-.29c3.774-.626,5.466-4.508,5.536-4.673l.006-.013a1.455,1.455,0,0,0,.135-1.215c-.259-.614-1.1-.884-1.663-1.063-.137-.044-.267-.085-.369-.126-1.116-.444-1.208-.9-1.165-1.132a1.054,1.054,0,0,1,1.025-.672.714.714,0,0,1,.305.061,3.233,3.233,0,0,0,1.344.357,1.1,1.1,0,0,0,.8-.258c-.014-.257-.031-.526-.048-.8-.112-1.8-.252-4.028.313-5.3a6.82,6.82,0,0,1,6.338-4.115l.464,0h.063a6.832,6.832,0,0,1,6.35,4.118c.565,1.275.425,3.508.312,5.3l0,.078c-.016.25-.031.493-.043.725a1.071,1.071,0,0,0,.732.256h0a3.346,3.346,0,0,0,1.267-.355.951.951,0,0,1,.394-.078,1.2,1.2,0,0,1,.453.087l.008,0a.836.836,0,0,1,.633.682c.005.263-.194.659-1.174,1.048-.1.04-.231.082-.368.126-.56.179-1.4.449-1.663,1.063a1.454,1.454,0,0,0,.135,1.215l.006.014c.07.165,1.761,4.046,5.536,4.673a.278.278,0,0,1,.231.29.469.469,0,0,1-.039.159c-.156.367-.858.886-3.314,1.268-.2.031-.278.294-.4.846-.044.2-.088.4-.148.606a.328.328,0,0,1-.351.264h-.031a3.055,3.055,0,0,1-.55-.07,7.285,7.285,0,0,0-1.475-.157,6.517,6.517,0,0,0-1.065.09A5.089,5.089,0,0,0,551-95.337,5.7,5.7,0,0,1,547.5-93.945Z" transform="translate(-518.624 133.39)" fill="#fff" stroke="#000" stroke-width="1"/>
</svg>
