<svg xmlns="http://www.w3.org/2000/svg" width="266" height="145" viewBox="0 0 266 145">
  <g id="Rectangle_1705" data-name="Rectangle 1705" fill="none" stroke="#fff" stroke-width="1" stroke-dasharray="10">
    <rect width="266" height="145" rx="15" stroke="none"/>
    <rect x="0.5" y="0.5" width="265" height="144" rx="14.5" fill="none"/>
  </g>
  <circle id="Ellipse_141" data-name="Ellipse 141" cx="36.445" cy="36.445" r="36.445" transform="translate(97.055 26.056)" fill="#ff9d00"/>
  <g id="np_camera_888661_000000" transform="translate(110.866 45.263)">
    <path id="Path_8" data-name="Path 8" d="M51.284,53.767A3.767,3.767,0,1,1,47.517,50a3.766,3.766,0,0,1,3.767,3.767" transform="translate(-24.916 -34.933)" fill="#fff"/>
    <path id="Path_9" data-name="Path 9" d="M53.935,30.022H43.889L41.377,25H28.822L26.31,30.022H16.267A3.7,3.7,0,0,0,12.5,33.788V53.877a3.778,3.778,0,0,0,3.767,3.767H53.935A3.778,3.778,0,0,0,57.7,53.877V33.788A3.7,3.7,0,0,0,53.935,30.022ZM35.1,52.622a8.788,8.788,0,1,1,8.788-8.788A8.734,8.734,0,0,1,35.1,52.622Z" transform="translate(-12.5 -25)" fill="#fff"/>
  </g>
</svg>
