<svg xmlns="http://www.w3.org/2000/svg" width="75.495" height="67.791" viewBox="0 0 75.495 67.791">
  <g id="np_download_1145284_FFFFFF" transform="translate(-25 -31.301)">
    <path id="Path_177" data-name="Path 177" d="M96.72,71.2H28.775a3.775,3.775,0,0,0,0,7.549H96.72a3.775,3.775,0,0,0,0-7.549Z" transform="translate(0 20.344)" fill="#fff"/>
    <path id="Path_178" data-name="Path 178" d="M69.8,62.1l-9.059,6.795V35.076a3.775,3.775,0,1,0-7.549,0V68.748l-9.059-6.641a4.053,4.053,0,0,0-2.265-.755,3.932,3.932,0,0,0-3.02,1.51,3.812,3.812,0,0,0,.755,5.285L54.858,79.317a3.635,3.635,0,0,0,4.53,0l15.1-11.171a3.812,3.812,0,0,0,.755-5.285A4.043,4.043,0,0,0,69.8,62.1Z" transform="translate(6.687 0)" fill="#fff"/>
  </g>
</svg>
