<svg xmlns="http://www.w3.org/2000/svg" width="99.582" height="105.469" viewBox="0 0 99.582 105.469">
  <g id="np_website_1939503_FFFFFF" transform="translate(-2.781 0)">
    <path id="Path_172" data-name="Path 172" d="M57.988,44.512V97.56L71.649,83.914l9.912,19.121L88.768,99.3,79.222,80.907H97.646Z" transform="translate(3.019 2.435)" />
    <path id="Path_173" data-name="Path 173" d="M101.827,56.7c.095-.7.21-1.393.284-2.109.157-1.594.251-3.164.251-4.828s-.082-3.164-.231-4.7c-.074-.824-.21-1.623-.325-2.427-.082-.569-.136-1.149-.231-1.71h0A49.768,49.768,0,0,0,61.493.845c-.717-.161-1.38-.222-2.035-.317s-1.426-.222-2.109-.3C55.746.083,54.177,0,52.582,0s-3.164.082-4.726.231c-.729.074-1.434.19-2.109.3s-1.331.148-1.973.264A49.768,49.768,0,0,0,3.7,40.87c-.107.6-.157,1.224-.251,1.833s-.338,1.594-.433,2.365c-.148,1.549-.231,3.164-.231,4.713s.082,3.164.231,4.7c.074.812.21,1.594.325,2.394.082.581.136,1.17.243,1.751A49.768,49.768,0,0,0,43.658,98.709c.61.107,1.236.169,1.846.251s1.52.231,2.3.3c1.549.148,3.164.231,4.7.231h.148v-11.6l-.074,0a37.977,37.977,0,0,1-6.518-.6,101.444,101.444,0,0,1-4.029-19.648c3.428.21,6.963.338,10.547.338h.148V61.354h-.148c-3.976,0-7.708-.136-11.2-.371-.243-3.49-.4-7.193-.4-11.2s.136-7.708.371-11.21c3.5-.231,7.235-.371,11.21-.371s7.7.136,11.189.371v.6a8.1,8.1,0,0,1,2.793,1.677l4.083,3.745c-.054-1.833-.157-3.617-.276-5.4h0a101.924,101.924,0,0,1,19.817,4.05,38.845,38.845,0,0,1,.589,6.518,37.886,37.886,0,0,1-.569,6.509c-1.57.515-3.238,1.055-5.125,1.5l3.9,3.576,9.2,8.438v0a49.305,49.305,0,0,0,3.354-11.128,18.209,18.209,0,0,0,.309-1.949ZM38.546,14.325v0a120.775,120.775,0,0,0-3.23,18.165A119.925,119.925,0,0,0,17.168,35.7,38.355,38.355,0,0,1,38.5,14.322Zm0,70.928v0A38.347,38.347,0,0,1,17.123,63.863a120.6,120.6,0,0,0,18.152,3.226,121.108,121.108,0,0,0,3.218,18.152ZM34.714,60.369A101.612,101.612,0,0,1,14.992,56.31a35.981,35.981,0,0,1,0-13.048A101.617,101.617,0,0,1,34.714,39.2c-.21,3.428-.338,6.963-.338,10.547s.128,7.2.338,10.617Zm17.868-28.79c-3.617,0-7.152.115-10.547.325A101.621,101.621,0,0,1,46.1,12.182a35.731,35.731,0,0,1,13.035,0,101.618,101.618,0,0,1,4,19.734c-3.395-.222-6.93-.338-10.547-.338Zm17.287.9v0a121.148,121.148,0,0,0-3.218-18.161A38.344,38.344,0,0,1,88.042,35.7a120.282,120.282,0,0,0-18.172-3.23Z" />
  </g>
</svg>
