<svg xmlns="http://www.w3.org/2000/svg" width="27.756" height="27.756" viewBox="0 0 27.756 27.756"><defs><style>.a{fill:#77d062;fill-rule:evenodd;}</style></defs><path class="a" d="M23.878,10A13.876,13.876,0,0,0,12.45,31.75a.694.694,0,0,1,.087.6l-1.409,4.716,4.619-1.594a.692.692,0,0,1,.6.076A13.882,13.882,0,1,0,23.878,10ZM18.2,16.05l2.526,4.174-1.052,1.041a.7.7,0,0,0-.108.835c1.6,2.78,3.506,4.941,6.169,6.115a.7.7,0,0,0,.77-.141l1.117-1.117L31.7,29.505a3.85,3.85,0,0,1-1.713,1.973,4.164,4.164,0,0,1-2.819.26,15.181,15.181,0,0,1-6.939-4.348,15.465,15.465,0,0,1-4.218-7.015,4.071,4.071,0,0,1,.282-2.754A3.506,3.506,0,0,1,18.2,16.05Z" transform="translate(-10 -10)"/></svg>