<svg xmlns="http://www.w3.org/2000/svg" width="267.159" height="420" viewBox="0 0 267.159 420">
  <g id="Group_486" data-name="Group 486" transform="translate(0 -11)">
    <path id="Path_568" data-name="Path 568" d="M34,0H233.159a34,34,0,0,1,34,34V386a34,34,0,0,1-34,34H34A34,34,0,0,1,0,386V34A34,34,0,0,1,34,0Z" transform="translate(0 11)" fill="#503c62"/>
  </g>
  <rect id="Rectangle_1746" data-name="Rectangle 1746" width="60" height="86" rx="10" transform="translate(65 59.711)" fill="#503c62"/>
</svg>
<svg xmlns="http://www.w3.org/2000/svg" width="267.159" height="420" viewBox="0 0 267.159 420">
  <path id="Subtraction_29" data-name="Subtraction 29" d="M789.159,368H590a33.972,33.972,0,0,1-34-34V-18a33.789,33.789,0,0,1,2.672-13.234,33.885,33.885,0,0,1,7.286-10.807,33.886,33.886,0,0,1,10.807-7.287A33.788,33.788,0,0,1,590-52H789.159a33.786,33.786,0,0,1,13.234,2.672A33.887,33.887,0,0,1,813.2-42.042a33.889,33.889,0,0,1,7.287,10.807A33.786,33.786,0,0,1,823.159-18V334a33.972,33.972,0,0,1-34,34ZM631,7.711a10.011,10.011,0,0,0-10,10v66a10.011,10.011,0,0,0,10,10h40a10.011,10.011,0,0,0,10-10v-66a10.011,10.011,0,0,0-10-10Z" transform="translate(-556 52)" fill="#503c62"/>
</svg>
