<?xml version="1.0" ?><svg id="Layer_1" style="enable-background:new 0 0 512 512;" version="1.1" viewBox="0 0 512 512" xml:space="preserve" xmlns="http://www.w3.org/2000/svg" xmlns:xlink="http://www.w3.org/1999/xlink"><style type="text/css">
	.st0{fill:#FFFFFF;stroke:#201600;stroke-width:30;stroke-miterlimit:10;}
</style>
<path class="st0" d="M259,476.6c-1.2,0-2.4,0-3.6-0.1h0c-0.8,0.1-1.6,0.1-2.3,0.1c-27.8,0-45.7-12.6-63-24.9  c-11.9-8.4-23.2-16.4-36.5-18.6c-6.5-1.1-12.9-1.6-19.1-1.6c-11.2,0-20.1,1.7-26.5,3c-3.9,0.8-7.3,1.4-9.9,1.4  c-2.7,0-5.6-0.6-6.9-4.9c-1.1-3.7-1.9-7.4-2.7-10.9c-2-9-3.4-14.6-7.2-15.2c-44.2-6.8-56.8-16.1-59.6-22.7c-0.4-0.9-0.6-1.9-0.7-2.8  c-0.1-2.5,1.7-4.8,4.2-5.2c67.9-11.2,98.3-80.6,99.6-83.5c0-0.1,0.1-0.2,0.1-0.2c4.2-8.4,5-15.7,2.4-21.7c-4.7-11-19.9-15.8-29.9-19  c-2.5-0.8-4.8-1.5-6.6-2.2c-20.1-7.9-21.7-16.1-21-20.2c1.3-7.1,10.8-12,18.4-12c2.1,0,3.9,0.4,5.5,1.1c9,4.2,17.2,6.4,24.2,6.4  c9.7,0,13.9-4.1,14.5-4.6c-0.2-4.6-0.6-9.4-0.9-14.3c-2-32.1-4.5-72,5.6-94.7c30.4-68.2,95-73.5,114-73.5c0.5,0,8.4-0.1,8.4-0.1  l1.1,0c19.1,0,83.8,5.3,114.2,73.6c10.2,22.8,7.6,62.7,5.6,94.8l-0.1,1.4c-0.3,4.5-0.6,8.8-0.8,13c0.5,0.5,4.4,4.2,13.2,4.6h0  c6.7-0.3,14.4-2.4,22.8-6.3c2.5-1.2,5.2-1.4,7.1-1.4c2.9,0,5.7,0.6,8.1,1.6l0.1,0.1c6.8,2.4,11.3,7.2,11.4,12.2  c0.1,4.7-3.5,11.8-21.1,18.7c-1.8,0.7-4.2,1.5-6.6,2.2c-10.1,3.2-25.3,8-29.9,19c-2.5,6-1.7,13.3,2.4,21.7c0,0.1,0.1,0.2,0.1,0.2  c1.3,2.9,31.7,72.3,99.6,83.5c2.5,0.4,4.3,2.6,4.2,5.2c-0.1,1-0.3,1.9-0.7,2.8c-2.8,6.6-15.4,15.8-59.6,22.7  c-3.6,0.6-5,5.3-7.2,15.1c-0.8,3.6-1.6,7.1-2.7,10.8c-0.9,3.2-2.9,4.7-6.3,4.7H414c-2.3,0-5.7-0.4-9.9-1.2  c-7.5-1.5-15.9-2.8-26.5-2.8c-6.2,0-12.7,0.5-19.2,1.6c-13.3,2.2-24.5,10.2-36.4,18.6C304.7,463.9,286.8,476.6,259,476.6z"/></svg>