<svg xmlns="http://www.w3.org/2000/svg" xmlns:xlink="http://www.w3.org/1999/xlink" width="99.51" height="99.51" viewBox="0 0 99.51 99.51">
  <defs>
    <filter id="Ellipse_192" x="0" y="0" width="99.51" height="99.51" filterUnits="userSpaceOnUse">
      <feOffset dy="3" input="SourceAlpha"/>
      <feGaussianBlur stdDeviation="3" result="blur"/>
      <feFlood flood-opacity="0.161"/>
      <feComposite operator="in" in2="blur"/>
      <feComposite in="SourceGraphic"/>
    </filter>
  </defs>
  <g transform="matrix(1, 0, 0, 1, 0, 0)" filter="url(#Ellipse_192)">
    <g id="Ellipse_192-2" data-name="Ellipse 192" transform="translate(9 6)" fill="#fff" stroke="#707070" stroke-width="1">
      <circle cx="40.755" cy="40.755" r="40.755" stroke="none"/>
      <circle cx="40.755" cy="40.755" r="40.255" fill="none"/>
    </g>
  </g>
  <path id="Path_254" data-name="Path 254" d="M557.286-75.677c-.117,0-.232,0-.347-.009h0c-.073.006-.15.009-.227.009-2.693,0-4.422-1.23-6.093-2.42a8.868,8.868,0,0,0-3.526-1.811,11.324,11.324,0,0,0-1.852-.157,12.581,12.581,0,0,0-2.566.292,5.6,5.6,0,0,1-.957.139.6.6,0,0,1-.664-.478c-.107-.365-.184-.719-.258-1.061-.191-.88-.327-1.422-.693-1.478-4.271-.664-5.494-1.57-5.767-2.212a.834.834,0,0,1-.066-.275.483.483,0,0,1,.4-.5c6.566-1.088,9.511-7.844,9.633-8.131l.01-.023a2.533,2.533,0,0,0,.235-2.115c-.451-1.069-1.92-1.539-2.893-1.849-.238-.076-.464-.148-.642-.218-1.941-.772-2.1-1.565-2.026-1.97a1.833,1.833,0,0,1,1.784-1.169,1.244,1.244,0,0,1,.531.107,5.625,5.625,0,0,0,2.339.621,1.92,1.92,0,0,0,1.4-.449c-.024-.447-.053-.915-.084-1.4-.2-3.125-.438-7.008.544-9.225a11.866,11.866,0,0,1,11.029-7.16l.808-.008h.109a11.887,11.887,0,0,1,11.048,7.165c.982,2.218.739,6.1.543,9.227l-.008.136c-.027.435-.053.858-.075,1.262a1.864,1.864,0,0,0,1.274.446h0a5.822,5.822,0,0,0,2.2-.617,1.655,1.655,0,0,1,.685-.136,2.079,2.079,0,0,1,.788.151l.014.006a1.454,1.454,0,0,1,1.1,1.187c.009.458-.339,1.146-2.042,1.824-.176.07-.4.142-.641.218-.974.311-2.443.78-2.893,1.849a2.531,2.531,0,0,0,.234,2.114c0,.008.008.016.011.024.122.287,3.064,7.04,9.633,8.13a.484.484,0,0,1,.4.505.815.815,0,0,1-.067.277c-.271.638-1.492,1.542-5.765,2.207-.349.054-.484.512-.693,1.472-.076.349-.153.693-.258,1.054a.571.571,0,0,1-.611.46h-.053a5.317,5.317,0,0,1-.956-.121,12.677,12.677,0,0,0-2.566-.274,11.338,11.338,0,0,0-1.853.157,8.856,8.856,0,0,0-3.522,1.808C561.709-76.907,559.98-75.677,557.286-75.677Z" transform="translate(-506.395 142.666)" fill="#fff" stroke="#000" stroke-width="1"/>
</svg>
