<?xml version="1.0" encoding="utf-8"?>
<!-- Generator: Adobe Illustrator 16.0.0, SVG Export Plug-In . SVG Version: 6.00 Build 0)  -->
<!DOCTYPE svg PUBLIC "-//W3C//DTD SVG 1.1//EN" "http://www.w3.org/Graphics/SVG/1.1/DTD/svg11.dtd">
<svg version="1.1" id="Layer_1" xmlns="http://www.w3.org/2000/svg" xmlns:xlink="http://www.w3.org/1999/xlink" x="0px" y="0px"
	 width="92px" height="92px" viewBox="0 0 92 92" enable-background="new 0 0 92 92" xml:space="preserve">
<g id="Group_500" transform="translate(-141.837 -72)">
	<path id="Path_254" fill="#FFFFFF" stroke="#000000" d="M188.528,133.369c-0.106,0-0.211,0-0.315-0.008l0,0
		c-0.066,0.005-0.136,0.008-0.206,0.008c-2.04-0.084-3.991-0.86-5.532-2.2c-0.929-0.782-2.023-1.345-3.2-1.644
		c-0.556-0.094-1.118-0.142-1.681-0.144c-0.784,0.009-1.564,0.097-2.33,0.265c-0.285,0.067-0.575,0.109-0.868,0.127
		c-0.283,0.033-0.544-0.155-0.6-0.435c-0.1-0.331-0.167-0.651-0.234-0.963c-0.173-0.8-0.3-1.291-0.629-1.342
		c-3.878-0.601-4.988-1.425-5.235-2.009c-0.034-0.08-0.054-0.164-0.06-0.25c-0.013-0.224,0.145-0.421,0.365-0.459
		c5.961-0.987,8.634-7.122,8.745-7.381l0.009-0.021c0.35-0.578,0.427-1.28,0.213-1.92c-0.409-0.97-1.743-1.4-2.626-1.679
		c-0.216-0.069-0.421-0.134-0.583-0.2c-1.762-0.7-1.909-1.421-1.84-1.788c0.257-0.664,0.908-1.09,1.619-1.061
		c0.166-0.002,0.331,0.032,0.482,0.1c0.659,0.339,1.383,0.531,2.124,0.563c0.46,0.038,0.917-0.109,1.269-0.408
		c-0.022-0.406-0.048-0.83-0.076-1.268c-0.178-2.837-0.4-6.362,0.494-8.375c1.722-3.986,5.669-6.549,10.012-6.5l0.734-0.007h0.1
		c4.348-0.052,8.301,2.511,10.03,6.5c0.892,2.013,0.671,5.542,0.493,8.377l-0.008,0.123c-0.024,0.395-0.047,0.779-0.067,1.146
		c0.321,0.275,0.734,0.419,1.157,0.405l0,0c0.697-0.052,1.377-0.243,2-0.56c0.195-0.085,0.408-0.127,0.621-0.123
		c0.246-0.001,0.488,0.045,0.716,0.137l0.013,0.005c0.521,0.123,0.916,0.549,1,1.077c0.008,0.416-0.307,1.041-1.854,1.656
		c-0.16,0.063-0.365,0.129-0.582,0.2c-0.885,0.282-2.219,0.708-2.627,1.679c-0.215,0.64-0.137,1.342,0.213,1.92l0.01,0.022
		c0.111,0.26,2.782,6.392,8.745,7.381c0.221,0.037,0.378,0.234,0.364,0.459c-0.005,0.086-0.025,0.172-0.061,0.25
		c-0.246,0.58-1.355,1.4-5.234,2c-0.316,0.05-0.439,0.466-0.629,1.337c-0.068,0.317-0.138,0.629-0.233,0.956
		c-0.051,0.262-0.29,0.441-0.556,0.418h-0.047c-0.293-0.011-0.583-0.047-0.869-0.11c-0.766-0.161-1.547-0.245-2.33-0.248
		c-0.562,0.001-1.125,0.05-1.682,0.144c-1.177,0.299-2.271,0.859-3.199,1.642C192.523,132.506,190.569,133.283,188.528,133.369z"/>
</g>
<g>
	<g>
		<path fill="#FFFFFF" d="M68.199,53.162c-0.195-0.643-1.123-1.096-1.123-1.096l0,0c-0.089-0.046-0.167-0.087-0.231-0.12
			c-1.548-0.747-2.92-1.648-4.074-2.67c-0.93-0.823-1.724-1.728-2.361-2.688c-0.781-1.174-1.145-2.153-1.304-2.685
			c-0.087-0.347-0.073-0.484,0-0.665c0.061-0.152,0.241-0.296,0.324-0.365c0.522-0.369,1.363-0.915,1.88-1.248
			c0.449-0.291,0.832-0.54,1.058-0.698c0.728-0.508,1.226-1.025,1.518-1.584c0.377-0.721,0.424-1.515,0.129-2.296
			c-0.398-1.053-1.383-1.682-2.634-1.682c-0.277,0-0.563,0.032-0.851,0.092c-0.716,0.157-1.396,0.411-1.964,0.633
			c-0.042,0.019-0.087-0.013-0.081-0.06c0.059-1.409,0.127-3.303-0.029-5.1c-0.139-1.627-0.476-2.999-1.021-4.195
			c-0.551-1.201-1.266-2.088-1.823-2.73c-0.533-0.61-1.471-1.511-2.884-2.319c-1.987-1.137-4.251-1.714-6.726-1.714
			c-2.473,0-4.733,0.578-6.725,1.714c-1.496,0.854-2.452,1.82-2.886,2.319c-0.56,0.642-1.276,1.529-1.826,2.73
			c-0.55,1.197-0.882,2.564-1.021,4.195c-0.156,1.807-0.093,3.548-0.027,5.1c0,0.047-0.041,0.079-0.087,0.06
			c-0.569-0.222-1.248-0.476-1.965-0.633c-0.281-0.06-0.568-0.092-0.85-0.092c-1.248,0-2.231,0.628-2.633,1.682
			c-0.296,0.781-0.251,1.576,0.129,2.296c0.296,0.559,0.79,1.076,1.516,1.584c0.222,0.158,0.609,0.407,1.058,0.698
			c0.504,0.328,1.32,0.86,1.848,1.226c0.065,0.046,0.287,0.213,0.356,0.388c0.073,0.185,0.088,0.323-0.009,0.693
			c-0.162,0.536-0.527,1.505-1.294,2.657c-0.638,0.966-1.433,1.865-2.36,2.688c-1.156,1.021-2.528,1.923-4.075,2.67
			c-0.075,0.037-0.162,0.079-0.255,0.135l0,0c0,0-0.925,0.471-1.1,1.081c-0.258,0.901,0.43,1.746,1.127,2.199
			c1.146,0.738,2.541,1.137,3.35,1.354c0.227,0.061,0.431,0.116,0.615,0.171c0.115,0.037,0.407,0.147,0.53,0.31
			c0.158,0.203,0.176,0.453,0.232,0.734l0,0c0.087,0.477,0.286,1.062,0.872,1.47c0.647,0.442,1.465,0.476,2.504,0.519
			c1.087,0.041,2.436,0.09,3.982,0.604c0.716,0.235,1.368,0.638,2.116,1.1c1.571,0.967,3.524,2.167,6.862,2.167
			c3.339,0,5.308-1.206,6.888-2.177c0.748-0.458,1.39-0.854,2.093-1.085c1.548-0.513,2.896-0.562,3.982-0.604
			c1.039-0.041,1.856-0.069,2.504-0.518c0.628-0.436,0.809-1.082,0.892-1.566c0.047-0.241,0.075-0.457,0.212-0.634
			c0.121-0.152,0.389-0.259,0.515-0.299c0.188-0.061,0.4-0.117,0.637-0.182c0.809-0.217,1.825-0.471,3.058-1.168
			C68.254,54.71,68.355,53.674,68.199,53.162z"/>
	</g>
	<path d="M69.482,52.663c-0.326-0.897-0.955-1.372-1.667-1.769c-0.135-0.079-0.259-0.144-0.36-0.189
		c-0.213-0.111-0.43-0.218-0.646-0.329c-2.224-1.178-3.959-2.666-5.162-4.427c-0.406-0.596-0.688-1.13-0.887-1.569
		c-0.102-0.296-0.096-0.462-0.023-0.614c0.057-0.116,0.204-0.237,0.286-0.296c0.386-0.254,0.778-0.507,1.045-0.679
		c0.478-0.311,0.854-0.555,1.097-0.721c0.913-0.638,1.551-1.317,1.947-2.075c0.565-1.067,0.635-2.287,0.2-3.433
		c-0.601-1.589-2.106-2.577-3.929-2.577c-0.377,0-0.761,0.041-1.141,0.124c-0.101,0.023-0.197,0.046-0.295,0.069
		c0.018-1.081-0.01-2.235-0.106-3.363c-0.342-3.973-1.732-6.057-3.184-7.716c-0.604-0.693-1.658-1.704-3.238-2.61
		c-2.203-1.266-4.698-1.903-7.418-1.903c-2.714,0-5.208,0.638-7.412,1.899c-1.59,0.905-2.643,1.921-3.243,2.609
		c-1.451,1.659-2.843,3.743-3.184,7.716c-0.097,1.127-0.119,2.282-0.106,3.364c-0.097-0.024-0.198-0.047-0.296-0.07
		c-0.379-0.083-0.768-0.124-1.141-0.124c-1.82,0-3.327,0.989-3.928,2.578c-0.434,1.146-0.364,2.365,0.199,3.433
		c0.397,0.757,1.04,1.437,1.949,2.074c0.245,0.171,0.619,0.415,1.096,0.721c0.259,0.166,0.633,0.41,1.002,0.656
		c0.055,0.037,0.254,0.185,0.324,0.324c0.078,0.157,0.078,0.327-0.037,0.641c-0.194,0.431-0.477,0.958-0.874,1.539
		c-1.178,1.724-2.864,3.183-5.013,4.348c-1.141,0.605-2.323,1.007-2.821,2.365c-0.38,1.024-0.131,2.194,0.826,3.179l0,0
		c0.314,0.337,0.711,0.638,1.21,0.915c1.174,0.646,2.172,0.966,2.956,1.182c0.14,0.043,0.458,0.145,0.597,0.27
		c0.353,0.304,0.301,0.766,0.767,1.442c0.283,0.419,0.605,0.706,0.874,0.89c0.975,0.675,2.073,0.716,3.238,0.764
		c1.049,0.041,2.24,0.087,3.6,0.536c0.562,0.183,1.149,0.544,1.824,0.96c1.627,1.004,3.858,2.37,7.587,2.37
		c3.731,0,5.973-1.377,7.613-2.38c0.676-0.41,1.257-0.77,1.802-0.95c1.357-0.449,2.55-0.495,3.6-0.536
		c1.164-0.048,2.26-0.089,3.239-0.764c0.304-0.212,0.692-0.56,0.997-1.085c0.333-0.568,0.327-0.97,0.643-1.244
		c0.129-0.109,0.411-0.207,0.562-0.253c0.791-0.216,1.803-0.535,2.998-1.197c0.533-0.29,0.942-0.609,1.271-0.974
		c0.006-0.005,0.011-0.009,0.015-0.015C69.627,54.798,69.854,53.665,69.482,52.663z M66.172,54.442
		c-2.023,1.119-3.37,0.997-4.413,1.668c-0.888,0.571-0.365,1.806-1.008,2.249c-0.795,0.55-3.137-0.037-6.163,0.962
		c-2.494,0.826-4.087,3.195-8.585,3.195c-4.503,0-6.051-2.359-8.584-3.195c-3.025-0.999-5.372-0.412-6.163-0.962
		c-0.642-0.443-0.119-1.678-1.007-2.249c-1.044-0.675-2.388-0.555-4.411-1.668c-1.289-0.712-0.56-1.15-0.131-1.357
		c7.329-3.545,8.492-9.025,8.547-9.435c0.065-0.49,0.135-0.877-0.405-1.382c-0.522-0.485-2.847-1.921-3.489-2.37
		c-1.065-0.744-1.533-1.487-1.187-2.402c0.239-0.633,0.832-0.869,1.455-0.869c0.195,0,0.394,0.023,0.583,0.064
		c1.168,0.254,2.305,0.841,2.961,0.999c0.093,0.023,0.171,0.032,0.24,0.032c0.352,0,0.472-0.176,0.448-0.578
		c-0.074-1.28-0.258-3.775-0.056-6.108c0.277-3.207,1.312-4.796,2.542-6.205c0.591-0.675,3.362-3.603,8.662-3.603
		c5.312,0,8.071,2.928,8.661,3.603c1.231,1.404,2.265,2.994,2.542,6.205c0.203,2.333,0.029,4.828-0.057,6.108
		c-0.027,0.421,0.104,0.578,0.45,0.578c0.068,0,0.152-0.009,0.239-0.032c0.655-0.157,1.792-0.744,2.961-0.999
		c0.189-0.042,0.39-0.064,0.583-0.064c0.623,0,1.215,0.24,1.457,0.869c0.344,0.915-0.127,1.658-1.188,2.402
		c-0.643,0.449-2.968,1.885-3.488,2.37c-0.54,0.499-0.472,0.888-0.406,1.382c0.05,0.41,1.22,5.89,8.546,9.435
		C66.725,53.292,67.459,53.73,66.172,54.442z"/>
</g>
</svg>
