<svg xmlns="http://www.w3.org/2000/svg" xmlns:xlink="http://www.w3.org/1999/xlink" width="92" height="92" viewBox="0 0 92 92">
  <defs>
    <filter id="Ellipse_192" x="0" y="0" width="92" height="92" filterUnits="userSpaceOnUse">
      <feOffset dy="3" input="SourceAlpha"/>
      <feGaussianBlur stdDeviation="3" result="blur"/>
      <feFlood flood-opacity="0.161"/>
      <feComposite operator="in" in2="blur"/>
      <feComposite in="SourceGraphic"/>
    </filter>
  </defs>
  <g id="Group_500" data-name="Group 500" transform="translate(-141.837 -72)">
    <g transform="matrix(1, 0, 0, 1, 141.84, 72)" filter="url(#Ellipse_192)">
      <g id="Ellipse_192-2" data-name="Ellipse 192" transform="translate(9 6)" fill="#fff" stroke="#707070" stroke-width="1">
        <circle cx="37" cy="37" r="37" stroke="none"/>
        <circle cx="37" cy="37" r="36.5" fill="none"/>
      </g>
    </g>
    <path id="Path_254" data-name="Path 254" d="M555.166-79.635c-.106,0-.211,0-.315-.008h0c-.066.005-.136.008-.206.008a9,9,0,0,1-5.532-2.2,8.051,8.051,0,0,0-3.2-1.644,10.281,10.281,0,0,0-1.681-.143,11.423,11.423,0,0,0-2.33.265,5.079,5.079,0,0,1-.868.126.546.546,0,0,1-.6-.434c-.1-.331-.167-.652-.234-.963-.173-.8-.3-1.291-.629-1.342-3.878-.6-4.988-1.425-5.235-2.009a.757.757,0,0,1-.06-.25.439.439,0,0,1,.365-.458c5.961-.988,8.634-7.122,8.745-7.382l.009-.021a2.3,2.3,0,0,0,.213-1.92c-.409-.97-1.743-1.4-2.626-1.679-.216-.069-.421-.134-.583-.2-1.762-.7-1.909-1.421-1.84-1.788a1.664,1.664,0,0,1,1.619-1.061,1.129,1.129,0,0,1,.482.1,5.107,5.107,0,0,0,2.124.563,1.743,1.743,0,0,0,1.269-.408c-.022-.406-.048-.83-.076-1.268-.178-2.837-.4-6.362.494-8.375a10.773,10.773,0,0,1,10.012-6.5l.734-.007h.1a10.792,10.792,0,0,1,10.03,6.5c.892,2.013.671,5.542.493,8.377l-.007.123c-.025.395-.048.779-.068,1.146a1.692,1.692,0,0,0,1.157.405h0a5.286,5.286,0,0,0,2-.56,1.5,1.5,0,0,1,.622-.123,1.887,1.887,0,0,1,.715.137l.013.005a1.32,1.32,0,0,1,1,1.077c.008.416-.307,1.041-1.854,1.656-.16.063-.365.129-.582.2-.884.282-2.218.708-2.627,1.679a2.3,2.3,0,0,0,.213,1.92l.01.022c.111.26,2.782,6.392,8.745,7.381a.44.44,0,0,1,.365.459.741.741,0,0,1-.061.251c-.246.579-1.355,1.4-5.234,2-.317.049-.44.465-.629,1.336-.069.317-.138.629-.234.957a.518.518,0,0,1-.555.417h-.048a4.828,4.828,0,0,1-.868-.11,11.509,11.509,0,0,0-2.33-.248,10.294,10.294,0,0,0-1.682.143,8.039,8.039,0,0,0-3.2,1.642A9,9,0,0,1,555.166-79.635Z" transform="translate(-366.638 213.004)" fill="#fff" stroke="#000" stroke-width="1"/>
  </g>
</svg>
