<svg xmlns="http://www.w3.org/2000/svg" xmlns:xlink="http://www.w3.org/1999/xlink" width="98.724" height="98.724" viewBox="0 0 98.724 98.724">
  <defs>
    <filter id="Ellipse_193" x="0" y="0" width="98.724" height="98.724" filterUnits="userSpaceOnUse">
      <feOffset dy="3" input="SourceAlpha"/>
      <feGaussianBlur stdDeviation="3" result="blur"/>
      <feFlood flood-opacity="0.161"/>
      <feComposite operator="in" in2="blur"/>
      <feComposite in="SourceGraphic"/>
    </filter>
  </defs>
  <g transform="matrix(1, 0, 0, 1, 0, 0)" filter="url(#Ellipse_193)">
    <circle id="Ellipse_193-2" data-name="Ellipse 193" cx="40.362" cy="40.362" r="40.362" transform="translate(9 6)" fill="#fff"/>
  </g>
  <path id="Path_301" data-name="Path 301" d="M87.447,130.61c14.935,0,23.1-12.374,23.1-23.1,0-.351,0-.7-.024-1.05a16.522,16.522,0,0,0,4.051-4.2,16.208,16.208,0,0,1-4.664,1.278,8.149,8.149,0,0,0,3.57-4.491,16.274,16.274,0,0,1-5.156,1.971,8.128,8.128,0,0,0-13.838,7.406,23.054,23.054,0,0,1-16.736-8.484,8.126,8.126,0,0,0,2.514,10.84,8.059,8.059,0,0,1-3.686-1.016v.1a8.123,8.123,0,0,0,6.515,7.96,8.107,8.107,0,0,1-3.667.139,8.13,8.13,0,0,0,7.586,5.639,16.294,16.294,0,0,1-10.085,3.483A16.522,16.522,0,0,1,75,126.963,22.989,22.989,0,0,0,87.447,130.6" transform="translate(-45 -68.329)" fill="#1da1f2"/>
</svg>
