<svg xmlns="http://www.w3.org/2000/svg" xmlns:xlink="http://www.w3.org/1999/xlink" width="80.452" height="80.452" viewBox="0 0 80.452 80.452">
  <defs>
    <filter id="Ellipse_193" x="0" y="0" width="80.452" height="80.452" filterUnits="userSpaceOnUse">
      <feOffset dy="3" input="SourceAlpha"/>
      <feGaussianBlur stdDeviation="3" result="blur"/>
      <feFlood flood-opacity="0.161"/>
      <feComposite operator="in" in2="blur"/>
      <feComposite in="SourceGraphic"/>
    </filter>
  </defs>
  <g transform="matrix(1, 0, 0, 1, 0, 0)" filter="url(#Ellipse_193)">
    <circle id="Ellipse_193-2" data-name="Ellipse 193" cx="31.226" cy="31.226" r="31.226" transform="translate(9 6)" fill="#fff"/>
  </g>
  <path id="Path_301" data-name="Path 301" d="M83.213,119.671a15.142,15.142,0,0,0,15.246-15.246c0-.232,0-.463-.016-.693a10.9,10.9,0,0,0,2.673-2.774,10.7,10.7,0,0,1-3.078.843,5.377,5.377,0,0,0,2.356-2.964,10.738,10.738,0,0,1-3.4,1.3,5.363,5.363,0,0,0-9.131,4.887,15.212,15.212,0,0,1-11.043-5.6,5.362,5.362,0,0,0,1.659,7.153,5.318,5.318,0,0,1-2.432-.671v.068a5.36,5.36,0,0,0,4.3,5.253,5.35,5.35,0,0,1-2.419.092,5.364,5.364,0,0,0,5.006,3.721,10.751,10.751,0,0,1-6.654,2.3A10.9,10.9,0,0,1,75,117.264a15.169,15.169,0,0,0,8.213,2.4" transform="translate(-47.402 -71.975)" fill="#1da1f2"/>
</svg>
