<svg xmlns="http://www.w3.org/2000/svg" width="80.664" height="84.621" viewBox="0 0 80.664 84.621">
  <g id="np_aging_236203_000000" transform="translate(-9.529 -8.559)">
    <path id="Path_559" data-name="Path 559" d="M48.539,83.438a5.785,5.785,0,1,0,5.785,5.785A5.784,5.784,0,0,0,48.539,83.438Zm.274,5.975-2.725,2.725a.267.267,0,0,1-.381,0,.271.271,0,0,1,0-.385l2.565-2.565V86.083a.271.271,0,0,1,.541,0l0,3.331Z" transform="translate(-0.811 -1.828)"/>
    <path id="Path_560" data-name="Path 560" d="M82.971,77.444H9.532v1.673H82.971v3.331l7.222-4.165-7.222-4.173Z" transform="translate(0 -1.6)"/>
    <path id="Path_561" data-name="Path 561" d="M76.767,18.726a4.939,4.939,0,1,0-4.939-4.939A4.938,4.938,0,0,0,76.767,18.726Zm-2.062-1.444a6.308,6.308,0,0,1,.046-.93,1.385,1.385,0,0,1,1.456-1.12,4.4,4.4,0,0,1,.56.2,3.88,3.88,0,0,1,.56-.2,1.385,1.385,0,0,1,1.456,1.12,7.487,7.487,0,0,1,.046.93h0a1.238,1.238,0,0,1,.008.29c-.023.118-.05.29-.133.335a.3.3,0,0,1-.419-.1,1.17,1.17,0,0,0-.274-.255.47.47,0,0,1-.183.015,1.192,1.192,0,0,1-.85-.591,3.245,3.245,0,0,1-.2-.377,2.756,2.756,0,0,1-.2.377,1.214,1.214,0,0,1-.85.591.47.47,0,0,1-.183-.015,1.1,1.1,0,0,0-.274.255.306.306,0,0,1-.419.1c-.084-.046-.107-.213-.133-.335a1.233,1.233,0,0,1,.008-.29h-.011Z" transform="translate(-1.521 -0.007)"/>
    <path id="Path_562" data-name="Path 562" d="M67.566,45.429a1.836,1.836,0,0,1,.427,1.17H68.9a2.746,2.746,0,0,0-1.025-2.134,8.243,8.243,0,0,1-.309.964Z" transform="translate(-1.417 -0.876)"/>
    <path id="Path_563" data-name="Path 563" d="M63.254,71.841h.9V46.594h0A1.849,1.849,0,0,1,65.068,45a8.743,8.743,0,0,1-.248-.892,2.768,2.768,0,0,0-1.555,2.378h-.011v25.35Z" transform="translate(-1.311 -0.868)"/>
    <path id="Path_564" data-name="Path 564" d="M66.373,45.5c1.658,0,1.734-10.286,1.734-10.286a1.757,1.757,0,0,0-.293-.968,14.208,14.208,0,0,0,.667-1.475c.461-1.242,2.534-6.715,2.668-7.347h.2l-1.593,6.989c-.023.08-.034.16-.057.24-.038.145-.072.29-.1.438a.113.113,0,0,0-.008.038l-.027.114h.008c-.008.034-.008.069-.015.107-.023.145-.042.293-.057.438,0,.053,0,.111-.008.164-.011.149-.023.3-.023.45a7.062,7.062,0,0,0,1.277,4.059c-.034.156-.069.32-.1.5-.522,1.658-1.471,7.736.08,29.352,0,0,.084.05.229.126v.507a2.153,2.153,0,0,0,1.955,2.306h.011a2.153,2.153,0,0,0,1.955-2.306v-.381a3.64,3.64,0,0,0,.434-.252c.377-9.844-.347-21.165,1.284-25.228a13.993,13.993,0,0,1,.743,3.392c.05.926.107,1.78.156,2.374.027.316.065.709.114,1.143.236,5.213.03,12.065.267,18.319.091.061.187.111.278.16v.419a2.153,2.153,0,0,0,1.955,2.306h.011a2.153,2.153,0,0,0,1.955-2.306v-.381a3.669,3.669,0,0,0,.385-.2c1.734-24.188.339-28.924-.084-29.775a6.976,6.976,0,0,0,.77-1.368.51.51,0,0,0,.21.347c1.444.819,6.593-8.079,6.593-8.079a1.766,1.766,0,0,0,.137-1.41.956.956,0,0,0-.065-.522c-1.09-3.011-4.825-5.049-7.549-6.09a10.968,10.968,0,0,0-14.558,2.546,6.985,6.985,0,0,0-.827,1.227c-.046.08-.1.156-.141.236h.008c-1.17,2.119-2.778,6.025-2.26,9.23a1.767,1.767,0,0,0-.1.572S64.716,45.5,66.373,45.5ZM85.26,27.379a13.7,13.7,0,0,0,1.475.6A59.407,59.407,0,0,0,83.7,34.414c0-.015,0-.03,0-.05a6.239,6.239,0,0,0-.038-.655c0-.034-.008-.065-.011-.1-.011-.1-.023-.206-.038-.3h.008l-.027-.114c-.008-.046-.023-.088-.03-.133-.019-.1-.046-.206-.069-.3-.034-.16-.061-.32-.107-.476l-1.524-6.7c1.079.606,2.6,1.414,3.4,1.8ZM77.036,20.95a.22.22,0,0,1,.1-.2l.625-.217c.252-.088.537.03.537.3v.362c0,.267-.282.385-.537.3l-.625-.217c-.061-.019-.1-.111-.1-.2Zm-.45-.324a.389.389,0,1,1-.389.389A.385.385,0,0,1,76.586,20.626Zm-1.707.206c0-.267.282-.385.537-.3l.625.217c.061.019.1.111.1.2v.126a.22.22,0,0,1-.1.2l-.625.217c-.252.088-.537-.03-.537-.3Z" transform="translate(-1.344 -0.272)"/>
    <path id="Path_565" data-name="Path 565" d="M49.85,13.589c0,6.7-10.057,6.7-10.057,0s10.057-6.707,10.057,0" transform="translate(-0.739)"/>
    <path id="Path_566" data-name="Path 566" d="M31,29.517s5.244,9.062,6.715,8.228a.511.511,0,0,0,.229-.354c.061.145.133.282.2.423.034,1.8-.011,2.572-.011,2.572-.488,3.011-.907,10.415.389,28.486,0,0,.126.076.339.179v.659a2.192,2.192,0,0,0,1.989,2.347h.011a2.189,2.189,0,0,0,1.989-2.347v-.64c.114-.061.225-.122.339-.194.252-6.566.019-13.788.3-19.15.015-.149.027-.293.038-.423.046-.514.091-1.219.137-2A15.985,15.985,0,0,1,44.5,43.16c1.665,4.127.922,15.682,1.307,25.716a3.4,3.4,0,0,0,.389.225v.564a2.192,2.192,0,0,0,1.989,2.347h.011a2.189,2.189,0,0,0,1.989-2.347v-.636a3.121,3.121,0,0,0,.286-.152c1.307-18.232.869-25.605.377-28.562h.008s-.038-.636-.019-2.092a6.978,6.978,0,0,0,.423-.823.511.511,0,0,0,.229.354c1.471.831,6.715-8.228,6.715-8.228a1.761,1.761,0,0,0,.137-1.433.986.986,0,0,0-.065-.53c-1.768-4.878-10.35-7.252-10.758-7-.008-.008-.015-.011-.023-.019l-.534-1.113-2.172.194v.011c-.061,0-.122-.011-.187-.011s-.137.008-.206.011V19.62l-2.176-.194-.541,1.128c-.438-.236-8.994,2.138-10.758,7.008a.986.986,0,0,0-.065.53A1.78,1.78,0,0,0,31,29.517Zm22.435-2.1a13.858,13.858,0,0,0,1.5.61,60.219,60.219,0,0,0-3.091,6.551c0-.015,0-.03,0-.046a7.183,7.183,0,0,0-.088-1.079h.008l-.027-.118a7.269,7.269,0,0,0-.21-.926L49.98,25.592c1.094.614,2.641,1.437,3.453,1.829Zm-9.684-6.49a.854.854,0,1,1,1.707,0,.828.828,0,0,1-.1.385l.194,10.834L44.6,33.16l-.945-1.01.194-10.834A.816.816,0,0,1,43.749,20.932ZM41.684,20.547Zm-5.915,6.875c.812-.4,2.359-1.216,3.457-1.833l-1.585,6.962c-.069.24-.122.484-.168.732l-.027.114h.008a7.494,7.494,0,0,0-.1,1.139c0,.015,0,.03,0,.046a60.2,60.2,0,0,0-3.091-6.551,13.87,13.87,0,0,0,1.5-.61Z" transform="translate(-0.518 -0.265)"/>
    <path id="Path_567" data-name="Path 567" d="M10.27,56.57a1.123,1.123,0,0,0,.412.076,1.154,1.154,0,0,0,1.075-.739l3.472-9.039v7.892c0,.069.015.133.019.2V69.45h.046v1.494a1.388,1.388,0,0,0,1.383,1.383h.252a1.388,1.388,0,0,0,1.383-1.383V69.45h.015V56.927h1.684V59.98c0,.008,0,.019,0,.027V70.932A1.4,1.4,0,0,0,21.4,72.327h.286a1.4,1.4,0,0,0,1.395-1.395l.008-1.482h0V54.9c0-.05.015-.1.015-.145v-.53l0-.225V46.867l3.472,9.039a1.154,1.154,0,0,0,1.075.739,1.123,1.123,0,0,0,.412-.076,1.152,1.152,0,0,0,.663-1.486L24.085,42.994a1.14,1.14,0,0,0-.979-.728v-.023H20.739c0-.011,0-.019,0-.027V41.055a4.246,4.246,0,0,0,2.5-2.732v.008a4.686,4.686,0,0,0,.678-2.58,4.748,4.748,0,0,0-2.039-3.9c.793-.175.5-1.075.015-1.235.027.743-2.073.427-2.073.427l.019.008A4.93,4.93,0,0,0,19.173,31a4.751,4.751,0,0,0-4.752,4.752,4.677,4.677,0,0,0,.678,2.58v-.008a4.256,4.256,0,0,0,2.5,2.732v1.162c0,.011,0,.019,0,.027H15.225v.023a1.144,1.144,0,0,0-.979.732L9.6,55.087a1.153,1.153,0,0,0,.667,1.482Z" transform="translate(0 -0.538)"/>
  </g>
</svg>
