<svg xmlns="http://www.w3.org/2000/svg" width="16.303" height="15.957" viewBox="0 0 16.303 15.957"><defs><style>.a{fill:#fff;}</style></defs><path class="a" d="M16.186,10.535h-.5a1.156,1.156,0,0,1,0,2.31h-.617a1.156,1.156,0,0,1,0,2.31h-.621a1.156,1.156,0,0,1,0,2.31H10.781c-1.807,0-2.845-.451-5.183-1.016V7.777l1.45-.7C9.733,5.779,10.1,3.208,10.583,2.334a1.3,1.3,0,0,1,1.2-.826,1.322,1.322,0,0,1,1.3,1.343V4.284a6.234,6.234,0,0,1-1.5,3.941h4.6a1.156,1.156,0,0,1,0,2.31ZM4.564,6.959H2.359A1.359,1.359,0,0,0,1,8.317v7.5a1.359,1.359,0,0,0,1.359,1.359H4.564a.34.34,0,0,0,.34-.34V7.3A.34.34,0,0,0,4.564,6.959Z" transform="translate(-1 -1.508)"/></svg>