<svg id="Group_5863" data-name="Group 5863" xmlns="http://www.w3.org/2000/svg" xmlns:xlink="http://www.w3.org/1999/xlink" width="116" height="211" viewBox="0 0 116 211">
  <defs>
    <clipPath id="clip-path">
      <rect width="90" height="21" fill="none"/>
    </clipPath>
  </defs>
  <g id="Rectangle_2132" data-name="Rectangle 2132" fill="#fff" stroke="#1d1d1d" stroke-width="6">
    <rect width="116" height="211" rx="18" stroke="none"/>
    <rect x="3" y="3" width="110" height="205" rx="15" fill="none"/>
  </g>
  <rect id="Rectangle_2133" data-name="Rectangle 2133" width="90" height="146" rx="5" transform="translate(13 21)" fill="#fefb00"/>
  <g id="Repeat_Grid_6" data-name="Repeat Grid 6" transform="translate(13 171)" clip-path="url(#clip-path)">
    <g transform="translate(-14 -171)">
      <rect id="Rectangle_2199" data-name="Rectangle 2199" width="21" height="21" rx="2" transform="translate(14 171)" fill="#fefb00"/>
    </g>
    <g transform="translate(9 -171)">
      <rect id="Rectangle_2199-2" data-name="Rectangle 2199" width="21" height="21" rx="2" transform="translate(14 171)" fill="#fefb00"/>
    </g>
    <g transform="translate(32 -171)">
      <rect id="Rectangle_2199-3" data-name="Rectangle 2199" width="21" height="21" rx="2" transform="translate(14 171)" fill="#fefb00"/>
    </g>
    <g transform="translate(55 -171)">
      <rect id="Rectangle_2199-4" data-name="Rectangle 2199" width="21" height="21" rx="2" transform="translate(14 171)" fill="#fefb00"/>
    </g>
  </g>
  <path id="Rectangle_2137" data-name="Rectangle 2137" d="M0,0H58a0,0,0,0,1,0,0V5a5,5,0,0,1-5,5H5A5,5,0,0,1,0,5V0A0,0,0,0,1,0,0Z" transform="translate(30 4)" fill="#1d1d1d"/>
</svg>
