<svg id="Group_5862" data-name="Group 5862" xmlns="http://www.w3.org/2000/svg" width="116" height="211" viewBox="0 0 116 211">
  <g id="Rectangle_2132" data-name="Rectangle 2132" fill="#fff" stroke="#1d1d1d" stroke-width="6">
    <rect width="116" height="211" rx="18" stroke="none"/>
    <rect x="3" y="3" width="110" height="205" rx="15" fill="none"/>
  </g>
  <rect id="Rectangle_2133" data-name="Rectangle 2133" width="44" height="58" rx="5" transform="translate(11 49)" fill="#fefb00"/>
  <rect id="Rectangle_2197" data-name="Rectangle 2197" width="44" height="58" rx="5" transform="translate(11 113)" fill="#efefef"/>
  <path id="Rectangle_2198" data-name="Rectangle 2198" d="M5,0H39a5,5,0,0,1,5,5V28a0,0,0,0,1,0,0H6a6,6,0,0,1-6-6V5A5,5,0,0,1,5,0Z" transform="translate(11 177)" fill="#efefef"/>
  <rect id="Rectangle_2195" data-name="Rectangle 2195" width="44" height="58" rx="5" transform="translate(61 49)" fill="#efefef"/>
  <rect id="Rectangle_2196" data-name="Rectangle 2196" width="44" height="58" rx="5" transform="translate(61 113)" fill="#efefef"/>
  <path id="Rectangle_2199" data-name="Rectangle 2199" d="M5,0H39a5,5,0,0,1,5,5V22a6,6,0,0,1-6,6H0a0,0,0,0,1,0,0V5A5,5,0,0,1,5,0Z" transform="translate(61 177)" fill="#efefef"/>
  <g id="Group_1181" data-name="Group 1181" transform="translate(9.491 21.891)">
    <g id="Ellipse_363" data-name="Ellipse 363" transform="translate(-0.491 0.109)" fill="#fff" stroke="#c1c1c1" stroke-width="1">
      <circle cx="10.5" cy="10.5" r="10.5" stroke="none"/>
      <circle cx="10.5" cy="10.5" r="10" fill="none"/>
    </g>
    <circle id="Ellipse_364" data-name="Ellipse 364" cx="7.5" cy="7.5" r="7.5" transform="translate(2.509 3.109)" fill="#c1c1c1"/>
  </g>
  <g id="Group_1185" data-name="Group 1185" transform="translate(33.491 21.891)">
    <g id="Ellipse_363-2" data-name="Ellipse 363" transform="translate(-0.491 0.109)" fill="#fff" stroke="#c1c1c1" stroke-width="1">
      <circle cx="10.5" cy="10.5" r="10.5" stroke="none"/>
      <circle cx="10.5" cy="10.5" r="10" fill="none"/>
    </g>
    <circle id="Ellipse_364-2" data-name="Ellipse 364" cx="7.5" cy="7.5" r="7.5" transform="translate(2.509 3.109)" fill="#c1c1c1"/>
  </g>
  <g id="Group_1186" data-name="Group 1186" transform="translate(57.491 21.891)">
    <g id="Ellipse_363-3" data-name="Ellipse 363" transform="translate(-0.491 0.109)" fill="#fff" stroke="#c1c1c1" stroke-width="1">
      <circle cx="10.5" cy="10.5" r="10.5" stroke="none"/>
      <circle cx="10.5" cy="10.5" r="10" fill="none"/>
    </g>
    <circle id="Ellipse_364-3" data-name="Ellipse 364" cx="7.5" cy="7.5" r="7.5" transform="translate(2.509 3.109)" fill="#c1c1c1"/>
  </g>
  <g id="Group_1187" data-name="Group 1187" transform="translate(81.491 21.891)">
    <g id="Ellipse_363-4" data-name="Ellipse 363" transform="translate(-0.491 0.109)" fill="#fff" stroke="#c1c1c1" stroke-width="1">
      <circle cx="10.5" cy="10.5" r="10.5" stroke="none"/>
      <circle cx="10.5" cy="10.5" r="10" fill="none"/>
    </g>
    <circle id="Ellipse_364-4" data-name="Ellipse 364" cx="7.5" cy="7.5" r="7.5" transform="translate(2.509 3.109)" fill="#c1c1c1"/>
  </g>
  <path id="Rectangle_2137" data-name="Rectangle 2137" d="M0,0H58a0,0,0,0,1,0,0V5a5,5,0,0,1-5,5H5A5,5,0,0,1,0,5V0A0,0,0,0,1,0,0Z" transform="translate(30 4)" fill="#1d1d1d"/>
</svg>
