<svg xmlns="http://www.w3.org/2000/svg" width="28" height="28" viewBox="0 0 28 28">
  <g id="np_accounting_2447909_000000" transform="translate(-3.125 -3.124)">
    <path id="Path_925" data-name="Path 925" d="M39.425,3.125h-9.8a2.325,2.325,0,0,0-1.867.947,2.325,2.325,0,0,0-1.867-.947h-9.8a.467.467,0,0,0-.467.467v7.933h.933V4.058h9.333a1.4,1.4,0,0,1,1.4,1.4V20.391a2.369,2.369,0,0,0-.233-.154l-.467.808h0a1.4,1.4,0,0,1,.607.747h-.373v.933h12.6a.466.466,0,0,0,.467-.467V3.591a.466.466,0,0,0-.467-.467Zm-9.8.933h9.333V19.924H29.625a2.322,2.322,0,0,0-1.4.467V5.458a1.4,1.4,0,0,1,1.4-1.4Zm9.333,17.733H28.312a1.4,1.4,0,0,1,1.314-.933h9.333Z" transform="translate(-8.767)" fill="#fff"/>
    <path id="Path_926" data-name="Path 926" d="M64.792,76.867h-.467v-1.4A.466.466,0,0,0,63.859,75h-4.2v.933h3.733v.933h-8.4a.466.466,0,0,0-.259.078l-1.4.933a.467.467,0,0,0,0,.777l1.4.933a.466.466,0,0,0,.259.078h9.8a1.4,1.4,0,0,0,0-2.8Zm-10.36,1.4.7-.467h8.26v.933h-8.26Zm10.36.467h-.467V77.8h.467a.467.467,0,1,1,0,.933Z" transform="translate(-35.068 -50.409)" fill="#fff"/>
    <path id="Path_927" data-name="Path 927" d="M4.992,53.041H15.258a1.868,1.868,0,0,0,1.867-1.867V36.242a1.868,1.868,0,0,0-1.867-1.867H4.992a1.866,1.866,0,0,0-1.867,1.867V51.175a1.868,1.868,0,0,0,1.867,1.867Zm-.933-16.8a.933.933,0,0,1,.933-.933H15.258a.932.932,0,0,1,.933.933V51.175a.932.932,0,0,1-.933.933H4.992a.933.933,0,0,1-.933-.933Z" transform="translate(0 -21.917)" fill="#fff"/>
    <path id="Path_928" data-name="Path 928" d="M9.842,44.358h9.333a.466.466,0,0,0,.467-.467v-2.8a.466.466,0,0,0-.467-.467H9.842a.467.467,0,0,0-.467.467v2.8a.466.466,0,0,0,.467.467Zm.467-2.8h8.4v1.867h-8.4Z" transform="translate(-4.384 -26.3)" fill="#fff"/>
    <path id="Path_929" data-name="Path 929" d="M9.842,59.05h1.867a.466.466,0,0,0,.467-.467V56.717a.466.466,0,0,0-.467-.467H9.842a.467.467,0,0,0-.467.467v1.867a.466.466,0,0,0,.467.467Zm.467-1.867h.933v.933h-.933Z" transform="translate(-4.384 -37.259)" fill="#fff"/>
    <path id="Path_930" data-name="Path 930" d="M24.209,56.25H22.342a.467.467,0,0,0-.467.467v1.867a.466.466,0,0,0,.467.467h1.867a.466.466,0,0,0,.467-.467V56.717a.466.466,0,0,0-.467-.467Zm-.467,1.867h-.933v-.933h.933Z" transform="translate(-13.15 -37.259)" fill="#fff"/>
    <path id="Path_931" data-name="Path 931" d="M36.709,56.25H34.842a.467.467,0,0,0-.467.467v1.867a.466.466,0,0,0,.467.467h1.867a.466.466,0,0,0,.467-.467V56.717a.466.466,0,0,0-.467-.467Zm-.467,1.867h-.933v-.933h.933Z" transform="translate(-21.917 -37.259)" fill="#fff"/>
    <path id="Path_932" data-name="Path 932" d="M9.842,71.55h1.867a.466.466,0,0,0,.467-.467V69.217a.466.466,0,0,0-.467-.467H9.842a.467.467,0,0,0-.467.467v1.867a.466.466,0,0,0,.467.467Zm.467-1.867h.933v.933h-.933Z" transform="translate(-4.384 -46.026)" fill="#fff"/>
    <path id="Path_933" data-name="Path 933" d="M24.209,68.75H22.342a.467.467,0,0,0-.467.467v1.867a.466.466,0,0,0,.467.467h1.867a.466.466,0,0,0,.467-.467V69.217a.466.466,0,0,0-.467-.467Zm-.467,1.867h-.933v-.933h.933Z" transform="translate(-13.15 -46.026)" fill="#fff"/>
    <path id="Path_934" data-name="Path 934" d="M36.709,68.75H34.842a.467.467,0,0,0-.467.467v5.6a.466.466,0,0,0,.467.467h1.867a.466.466,0,0,0,.467-.467v-5.6a.466.466,0,0,0-.467-.467Zm-.467,5.6h-.933V69.683h.933Z" transform="translate(-21.917 -46.026)" fill="#fff"/>
    <path id="Path_935" data-name="Path 935" d="M9.842,84.05h1.867a.466.466,0,0,0,.467-.467V81.717a.466.466,0,0,0-.467-.467H9.842a.467.467,0,0,0-.467.467v1.867a.466.466,0,0,0,.467.467Zm.467-1.867h.933v.933h-.933Z" transform="translate(-4.384 -54.792)" fill="#fff"/>
    <path id="Path_936" data-name="Path 936" d="M24.209,81.25H22.342a.467.467,0,0,0-.467.467v1.867a.466.466,0,0,0,.467.467h1.867a.466.466,0,0,0,.467-.467V81.717a.466.466,0,0,0-.467-.467Zm-.467,1.867h-.933v-.933h.933Z" transform="translate(-13.15 -54.792)" fill="#fff"/>
    <path id="Path_937" data-name="Path 937" d="M62.5,35.938h5.133v.933H62.5Z" transform="translate(-41.642 -23.013)" fill="#fff"/>
    <path id="Path_938" data-name="Path 938" d="M82.812,35.938h1.867v.933H82.812Z" transform="translate(-55.887 -23.013)" fill="#fff"/>
    <path id="Path_939" data-name="Path 939" d="M62.5,12.5h7.933v.933H62.5Z" transform="translate(-41.642 -6.575)" fill="#fff"/>
    <path id="Path_940" data-name="Path 940" d="M62.5,20.312h5.133v.933H62.5Z" transform="translate(-41.642 -12.054)" fill="#fff"/>
    <path id="Path_941" data-name="Path 941" d="M82.812,20.312h1.867v.933H82.812Z" transform="translate(-55.887 -12.054)" fill="#fff"/>
    <path id="Path_942" data-name="Path 942" d="M62.5,28.125h5.133v.933H62.5Z" transform="translate(-41.642 -17.534)" fill="#fff"/>
    <path id="Path_943" data-name="Path 943" d="M82.812,28.125h1.867v.933H82.812Z" transform="translate(-55.887 -17.534)" fill="#fff"/>
    <path id="Path_944" data-name="Path 944" d="M62.5,43.75h5.133v.933H62.5Z" transform="translate(-41.642 -28.492)" fill="#fff"/>
    <path id="Path_945" data-name="Path 945" d="M82.812,43.75h1.867v.933H82.812Z" transform="translate(-55.887 -28.492)" fill="#fff"/>
    <path id="Path_946" data-name="Path 946" d="M62.5,51.562h5.133V52.5H62.5Z" transform="translate(-41.642 -33.971)" fill="#fff"/>
    <path id="Path_947" data-name="Path 947" d="M82.812,51.562h1.867V52.5H82.812Z" transform="translate(-55.887 -33.971)" fill="#fff"/>
    <path id="Path_948" data-name="Path 948" d="M23.438,12.5h7.933v.933H23.438Z" transform="translate(-14.246 -6.575)" fill="#fff"/>
    <path id="Path_949" data-name="Path 949" d="M23.438,20.312h5.133v.933H23.438Z" transform="translate(-14.246 -12.054)" fill="#fff"/>
    <path id="Path_950" data-name="Path 950" d="M43.75,20.312h1.867v.933H43.75Z" transform="translate(-28.492 -12.054)" fill="#fff"/>
    <path id="Path_951" data-name="Path 951" d="M23.438,28.125h5.133v.933H23.438Z" transform="translate(-14.246 -17.534)" fill="#fff"/>
    <path id="Path_952" data-name="Path 952" d="M43.75,28.125h1.867v.933H43.75Z" transform="translate(-28.492 -17.534)" fill="#fff"/>
  </g>
</svg>
