<svg xmlns="http://www.w3.org/2000/svg" width="28" height="27.937" viewBox="0 0 28 27.937">
  <path id="np_advertising_1355593_000000" d="M26.113,10.3H25.9V3.827a2.487,2.487,0,0,0-4.973,0v.445c-2.159,1.99-4.02,3.144-7.116,3.144h-5.8A3.03,3.03,0,0,0,5.023,10H4.29a3.3,3.3,0,1,0,0,6.6h.721a3.03,3.03,0,0,0,2.995,2.584H9.468v7.834a2.381,2.381,0,0,0,2.487,2.255,2.38,2.38,0,0,0,2.487-2.255V19.229c2.713.155,4.506,1.309,6.45,3.1l.029.02V22.8h0a2.487,2.487,0,0,0,4.973,0V16.334h.21a3.018,3.018,0,0,0,0-6.03ZM4.991,15.18h-.7a1.866,1.866,0,1,1,0-3.733h.7Zm8.04,11.841a.972.972,0,0,1-1.051.819.97.97,0,0,1-1.051-.819V19.209h2.1Zm0-18.121v8.873H8.017a1.593,1.593,0,0,1-1.593-1.6V10.431A1.593,1.593,0,0,1,8.017,8.837h5s-.006.049-.006.064Zm7.9,11.546a10.494,10.494,0,0,0-6.479-2.656V8.834a10.556,10.556,0,0,0,6.483-2.659ZM24.469,22.8a1.051,1.051,0,0,1-2.1,0V3.827a1.051,1.051,0,0,1,2.1,0Zm1.645-7.9H25.9V11.74h.209a1.582,1.582,0,0,1,0,3.159Z" transform="translate(-0.988 -1.34)" fill="#fff"/>
</svg>
