<svg xmlns="http://www.w3.org/2000/svg" width="28" height="28.152" viewBox="0 0 28 28.152">
  <g id="np_agriculture_1180455_000000" transform="translate(-10.332 -10)">
    <path id="Path_968" data-name="Path 968" d="M41.324,25.351a3.382,3.382,0,1,0,3.382-3.382A3.386,3.386,0,0,0,41.324,25.351Zm3.382-2.679a2.679,2.679,0,1,1-2.679,2.679A2.682,2.682,0,0,1,44.706,22.672Z" transform="translate(-20.097 -7.761)" fill="#fff"/>
    <path id="Path_969" data-name="Path 969" d="M50.648,12.218V10.352a.352.352,0,1,0-.7,0v1.866a.352.352,0,1,0,.7,0Z" transform="translate(-25.687)" fill="#fff"/>
    <path id="Path_970" data-name="Path 970" d="M58.963,12.747a.351.351,0,0,0-.479.132L57.56,14.5a.351.351,0,0,0,.132.479.345.345,0,0,0,.173.047.354.354,0,0,0,.306-.177l.924-1.622a.355.355,0,0,0-.132-.481Z" transform="translate(-30.595 -1.751)" fill="#fff"/>
    <path id="Path_971" data-name="Path 971" d="M64.868,20.147l-1.605.95a.351.351,0,1,0,.357.6l1.605-.95a.351.351,0,1,0-.357-.6Z" transform="translate(-34.211 -6.548)" fill="#fff"/>
    <path id="Path_972" data-name="Path 972" d="M67.792,30.592a.352.352,0,0,0-.352-.346h-.005l-1.866.032a.352.352,0,0,0,.005.7h.005l1.866-.032a.352.352,0,0,0,.346-.357Z" transform="translate(-35.594 -13.128)" fill="#fff"/>
    <path id="Path_973" data-name="Path 973" d="M63.865,37.978a.351.351,0,1,0-.338.615l1.637.9a.339.339,0,0,0,.169.043.351.351,0,0,0,.17-.659Z" transform="translate(-34.376 -18.113)" fill="#fff"/>
    <path id="Path_974" data-name="Path 974" d="M58.117,43.658a.352.352,0,0,0-.115.483l.978,1.589a.351.351,0,0,0,.6-.368L58.6,43.773A.351.351,0,0,0,58.117,43.658Z" transform="translate(-30.878 -21.791)" fill="#fff"/>
    <path id="Path_975" data-name="Path 975" d="M50.8,45.862a.351.351,0,0,0-.339.363l.062,1.865a.352.352,0,0,0,.35.341h.012a.351.351,0,0,0,.339-.363L51.158,46.2a.357.357,0,0,0-.363-.341Z" transform="translate(-26.019 -23.255)" fill="#fff"/>
    <path id="Path_976" data-name="Path 976" d="M41.26,44.3l-.869,1.651a.351.351,0,1,0,.622.327l.869-1.651a.351.351,0,1,0-.622-.327Z" transform="translate(-19.465 -22.118)" fill="#fff"/>
    <path id="Path_977" data-name="Path 977" d="M34.321,38.865l-1.574,1a.352.352,0,0,0,.19.648.348.348,0,0,0,.188-.055l1.574-1a.352.352,0,0,0,.107-.486.348.348,0,0,0-.485-.107Z" transform="translate(-14.43 -18.681)" fill="#fff"/>
    <path id="Path_978" data-name="Path 978" d="M29.382,31.813a.351.351,0,0,0,.35.334h.018l1.863-.093a.352.352,0,0,0-.036-.7l-1.863.093a.352.352,0,0,0-.332.369Z" transform="translate(-12.353 -13.844)" fill="#fff"/>
    <path id="Path_979" data-name="Path 979" d="M33.744,22.182l-1.666-.842a.352.352,0,0,0-.317.628l1.666.842a.346.346,0,0,0,.158.037.351.351,0,0,0,.159-.665Z" transform="translate(-13.771 -7.329)" fill="#fff"/>
    <path id="Path_980" data-name="Path 980" d="M39.224,13.577a.352.352,0,0,0-.586.389l1.03,1.556a.353.353,0,0,0,.294.158.358.358,0,0,0,.194-.058.352.352,0,0,0,.1-.487Z" transform="translate(-18.317 -2.217)" fill="#fff"/>
    <path id="Path_981" data-name="Path 981" d="M10.74,69.971h-.056a.352.352,0,0,0,0,.7h27.3a.352.352,0,0,0,0-.7h-.291a3.913,3.913,0,0,0-3.547-3.785V64.6a4.083,4.083,0,0,0,2.757-.949,4.38,4.38,0,0,0,1.03-3.1.351.351,0,0,0-.317-.327,4.367,4.367,0,0,0-3.13.935,3.057,3.057,0,0,0-.666.994,3,3,0,0,0-.615-.959,4.368,4.368,0,0,0-3.1-1.03.351.351,0,0,0-.327.317,4.36,4.36,0,0,0,.935,3.13,4.08,4.08,0,0,0,2.731,1.031v1.545A3.912,3.912,0,0,0,29.88,69.97H28.12a3.913,3.913,0,0,0-3.547-3.785v-1.59a4.083,4.083,0,0,0,2.757-.949,4.38,4.38,0,0,0,1.03-3.1.351.351,0,0,0-.317-.327,4.367,4.367,0,0,0-3.13.935,3.057,3.057,0,0,0-.666.994,3.019,3.019,0,0,0-.615-.959,4.368,4.368,0,0,0-3.1-1.03.351.351,0,0,0-.327.317,4.367,4.367,0,0,0,.935,3.13,4.08,4.08,0,0,0,2.731,1.031v1.545a3.912,3.912,0,0,0-3.561,3.786H18.552A3.914,3.914,0,0,0,15,66.184v-1.59a4.083,4.083,0,0,0,2.757-.949,4.372,4.372,0,0,0,1.03-3.1.351.351,0,0,0-.317-.327,4.367,4.367,0,0,0-3.13.935,3.057,3.057,0,0,0-.666.994,3.034,3.034,0,0,0-.615-.959,4.368,4.368,0,0,0-3.1-1.03.351.351,0,0,0-.327.317,4.367,4.367,0,0,0,.935,3.13A4.08,4.08,0,0,0,14.3,64.636v1.545a3.921,3.921,0,0,0-3.564,3.79ZM34.97,61.659a3.406,3.406,0,0,1,2.255-.75,3.406,3.406,0,0,1-.816,2.233,3.4,3.4,0,0,1-2.258.75,3.4,3.4,0,0,1,.818-2.233ZM31.213,63.12a3.4,3.4,0,0,1-.75-2.256,3.4,3.4,0,0,1,2.233.817,3.264,3.264,0,0,1,.744,2.087v.169a3.371,3.371,0,0,1-2.227-.817Zm2.571,3.752a3.21,3.21,0,0,1,3.2,3.1h-6.4a3.21,3.21,0,0,1,3.2-3.1ZM25.4,61.659a3.406,3.406,0,0,1,2.255-.75,3.406,3.406,0,0,1-.816,2.233,3.4,3.4,0,0,1-2.258.75,3.4,3.4,0,0,1,.818-2.233ZM21.643,63.12a3.409,3.409,0,0,1-.75-2.256,3.4,3.4,0,0,1,2.233.817,3.263,3.263,0,0,1,.744,2.086v.17a3.374,3.374,0,0,1-2.227-.817Zm2.572,3.752a3.21,3.21,0,0,1,3.2,3.1h-6.4a3.209,3.209,0,0,1,3.2-3.1Zm-6.368,3.1h-6.4a3.2,3.2,0,0,1,6.4,0Zm-2.016-8.312a3.409,3.409,0,0,1,2.256-.75,3.4,3.4,0,0,1-.817,2.233,3.4,3.4,0,0,1-2.258.75,3.4,3.4,0,0,1,.818-2.233ZM12.074,63.12a3.409,3.409,0,0,1-.75-2.256,3.4,3.4,0,0,1,2.233.817,3.25,3.25,0,0,1,.744,2.076v.18a3.378,3.378,0,0,1-2.227-.817Z" transform="translate(0 -32.521)" fill="#fff"/>
  </g>
</svg>
