<svg xmlns="http://www.w3.org/2000/svg" width="28" height="28.467" viewBox="0 0 28 28.467">
  <g id="np_architecture_2209161_000000" transform="translate(-3.124 -1.562)">
    <path id="Path_955" data-name="Path 955" d="M19.458,7.053V4.362h-.933v-2.8h-2.8v2.8h-.933v2.69l-.288.576H3.124V26.3h11.46l-1.4,3.733h7.88l-1.4-3.733h11.46V7.629H19.746Zm-3.6,2.532L9.947,21.408a1.621,1.621,0,0,1-.338-1.9L15.036,8.65h0a2.343,2.343,0,0,0,.822.936Zm.874.338a1.971,1.971,0,0,0,.784,0l1.653,3.306h-4.09Zm1.658-.338a2.353,2.353,0,0,0,.822-.933L24.64,19.506a1.621,1.621,0,0,1-.338,1.9ZM16.658,2.5h.933V4.362h-.933Zm-.933,2.8h2.8V7.629a1.4,1.4,0,1,1-2.8,0Zm3.993,23.8H14.531l1.05-2.8h3.087Zm10.473-3.733H4.057v-.933H30.191Zm0-16.8V23.5H4.057V8.562h9.978L8.773,19.087a2.556,2.556,0,0,0,1.142,3.429l.418.209,4.279-8.562h5.024l4.279,8.56.418-.209a2.556,2.556,0,0,0,1.144-3.427L20.212,8.562Z" fill="#fff"/>
    <path id="Path_956" data-name="Path 956" d="M48.9,19.7a.462.462,0,1,0-.331-.135.494.494,0,0,0,.331.135Z" transform="translate(-31.78 -12.076)" fill="#fff"/>
  </g>
</svg>
