<svg xmlns="http://www.w3.org/2000/svg" width="28" height="30.515" viewBox="0 0 28 30.515">
  <g id="np_art_2866542_000000" transform="translate(-9.374 -9.203)">
    <path id="Path_957" data-name="Path 957" d="M33.922,16.031,33.632,10.4a1.108,1.108,0,1,0-2.208,0l-.178,3.443a14.908,14.908,0,0,0-7.872-2.237,15.06,15.06,0,0,0-6.709,1.569.609.609,0,0,0-.264.779.522.522,0,0,0,.716.287,14.007,14.007,0,0,1,14.059.925l-.684,13.422H26.659a4.011,4.011,0,0,0-3.823,4.158,3.019,3.019,0,0,1-1.077,2.342,2.577,2.577,0,0,1-2.423.515c-5.315-1.575-8.884-6.049-8.884-11.115a11.081,11.081,0,0,1,3.231-7.736.626.626,0,0,0,.022-.832.511.511,0,0,0-.765-.023,12.313,12.313,0,0,0-3.565,8.591c0,5.6,3.888,10.541,9.692,12.257A3.493,3.493,0,0,0,20.1,36.9a3.63,3.63,0,0,0,2.332-.861,4.236,4.236,0,0,0,1.481-3.291,2.873,2.873,0,0,1,2.746-2.987h3.769l-.054,1.089a1.028,1.028,0,0,0,0,.129,2.384,2.384,0,0,0,.635,1.64,2.864,2.864,0,0,0-.393,4.281,3.3,3.3,0,0,1,.835,2.231.613.613,0,0,0,.157.414.518.518,0,0,0,.381.171c1.971,0,3.231-3.074,3.231-4.685a3,3,0,0,0-1.174-2.413,2.384,2.384,0,0,0,.635-1.64,1.028,1.028,0,0,0,0-.129l-.065-1.282a3.991,3.991,0,0,0,2.606-3.133,12.527,12.527,0,0,0,.151-1.944,12.251,12.251,0,0,0-3.452-8.462ZM32.479,38.413a4.565,4.565,0,0,0-1.028-2.249,1.87,1.87,0,0,1-.538-1.13,1.621,1.621,0,1,1,3.231,0A4.711,4.711,0,0,1,32.479,38.413Zm0-6.307a1.082,1.082,0,0,1-1.028-1.124l1.045-20.5-.538-.029.6.029L33.6,30.934V31a1.081,1.081,0,0,1-1.034,1.107Zm3.672-5.856a2.883,2.883,0,0,1-1.615,2.12L34,17.887a10.686,10.686,0,0,1,2.154,8.362Z" fill="#fff"/>
    <path id="Path_958" data-name="Path 958" d="M24.6,23.814a.5.5,0,0,0,.264-.076l.1-.064.038-.029a.617.617,0,0,0,.172-.808.514.514,0,0,0-.743-.187l-.1.07a.606.606,0,0,0-.256.657.55.55,0,0,0,.52.438Z" transform="translate(-9.629 -8.351)" fill="#fff"/>
    <path id="Path_959" data-name="Path 959" d="M50,43.846a3.237,3.237,0,0,0,1.828,2.976,2.793,2.793,0,0,0,3.228-.7,3.433,3.433,0,0,0,.642-3.511,2.972,2.972,0,0,0-2.737-1.988A3.1,3.1,0,0,0,50,43.846Zm4.846,0a2.057,2.057,0,0,1-1.163,1.893,1.776,1.776,0,0,1-2.054-.444,2.183,2.183,0,0,1-.408-2.234A1.889,1.889,0,0,1,52.961,41.8a1.973,1.973,0,0,1,1.885,2.05Z" transform="translate(-26.626 -19.646)" fill="#fff"/>
    <path id="Path_960" data-name="Path 960" d="M29.575,57.674a1.945,1.945,0,0,0-1.906.464,2.359,2.359,0,0,0-.7,1.984,3.77,3.77,0,0,0,2.665,3.355,2.3,2.3,0,0,0,.538.064,1.952,1.952,0,0,0,1.357-.527,2.456,2.456,0,0,0,.7-1.985,3.79,3.79,0,0,0-2.655-3.355Zm1.26,4.457a1.047,1.047,0,0,1-.975.2,2.314,2.314,0,0,1-1.233-.843,2.61,2.61,0,0,1-.582-1.476A1.23,1.23,0,0,1,28.374,59a.926.926,0,0,1,.657-.246,1.562,1.562,0,0,1,.318.041,2.3,2.3,0,0,1,1.238.843,2.593,2.593,0,0,1,.587,1.452,1.269,1.269,0,0,1-.339,1.019Z" transform="translate(-11.521 -30.254)" fill="#fff"/>
    <path id="Path_961" data-name="Path 961" d="M16.837,42.741a3.988,3.988,0,0,0,.5,2.26,2.146,2.146,0,0,0,1.648,1.136H19.1c1.244,0,2.321-1.323,2.434-3.028a3.93,3.93,0,0,0-.49-2.26A2.145,2.145,0,0,0,19.4,39.708c-1.287-.111-2.45,1.259-2.563,3.033Zm1.077.082c.075-1.107.727-2,1.422-1.938a1.077,1.077,0,0,1,.824.586,2.7,2.7,0,0,1,.323,1.54c-.075,1.107-.722,2-1.422,1.944a1.077,1.077,0,0,1-.824-.586A2.69,2.69,0,0,1,17.913,42.823Z" transform="translate(-4.883 -19.068)" fill="#fff"/>
    <path id="Path_962" data-name="Path 962" d="M33.467,26.986a2.2,2.2,0,0,0-1.508-1.347,3.165,3.165,0,0,0-2.154.2,3.008,3.008,0,0,0-1.815,3.6A2.2,2.2,0,0,0,29.5,30.781a2.86,2.86,0,0,0,.77.105,3.35,3.35,0,0,0,1.362-.281,3.035,3.035,0,0,0,1.836-3.619ZM31.217,29.51a2.165,2.165,0,0,1-1.443.146,1.092,1.092,0,0,1-.786-.662,1.861,1.861,0,0,1,1.249-2.073,2.12,2.12,0,0,1,1.475-.146,1.1,1.1,0,0,1,.786.656,1.918,1.918,0,0,1-1.282,2.079Z" transform="translate(-12.107 -10.211)" fill="#fff"/>
    <path id="Path_963" data-name="Path 963" d="M50.884,22.7a2.814,2.814,0,0,0-2.962,2.571,2.991,2.991,0,0,0,5.923,0A2.8,2.8,0,0,0,50.884,22.7Zm0,3.97c-1.018,0-1.885-.644-1.885-1.4s.867-1.4,1.885-1.4,1.885.638,1.885,1.4S51.907,26.673,50.884,26.673Z" transform="translate(-25.264 -8.44)" fill="#fff"/>
  </g>
</svg>
