<svg xmlns="http://www.w3.org/2000/svg" width="24.222" height="18.203" viewBox="0 0 24.222 18.203">
  <path id="np_transportation_2231973_000000" d="M6.6,19.851l1.453-3.184a.854.854,0,0,1,.4-.34c.031,0,8.253-2.442,14.373.031a.584.584,0,0,1,.371.34l1.36,2.968c.989-.309,2.875-.68,3.246,1.082.154.433.526,1.793-1.669,2.288l.741,1.545a.96.96,0,0,1,.061.247l.154,3.4c0,.061-.031.124-.031.185s.031.093.031.154v4.2a.686.686,0,0,1-.68.68h-3.06a.66.66,0,0,1-.649-.68V31.2c-3.184.247-9.459.711-13.941.124v1.453a.68.68,0,0,1-.649.68H5.026a.681.681,0,0,1-.649-.68V29.282a2.986,2.986,0,0,1,0-.741l-.154-2.751c0-.093.031-.154.031-.217a16.111,16.111,0,0,1,.8-2.288c-.741-.34-1.669-1.02-1.236-2.1.124-.4.587-1.762,1.7-1.576a9.161,9.161,0,0,1,1.082.247Zm2.5-2.349-1.236,2.69a43.3,43.3,0,0,0,5.811.711,41.689,41.689,0,0,0,9.675-.68l-1.236-2.751c-5.039-1.886-11.591-.34-13.013.031Zm17.4,3.555a.452.452,0,0,0-.061-.217A41.926,41.926,0,0,1,13.619,22.2a39.83,39.83,0,0,1-8.377-1.267,2.6,2.6,0,0,0-.154.556c0,.061-.031.093-.031.154-.154.309.9.618,1.082.649a1.151,1.151,0,0,1,.371.217.674.674,0,0,1-.093.928,11.259,11.259,0,0,0-.865,2.38l.124,2.658v.556c.217.958,1.823.835,1.947.8h.185l.371.093h.061c4.42.711,11.283.185,14.528-.061l.495-.031h.093c.4-.031.741-.061.989-.061.865-.031,1.236-.865,1.36-1.3.031-.061.031-.093.061-.124V28.23l-.124-3.214-1.051-2.195a.619.619,0,0,1-.061-.278.648.648,0,0,1,.587-.68c1.608-.154,1.515-.526,1.484-.587a1.593,1.593,0,0,1-.093-.217Zm-.741,9.551a2.559,2.559,0,0,1-1.391.463A1.949,1.949,0,0,0,24,31.1v1.02h1.762V30.607Zm-18.3.556a4.729,4.729,0,0,1-1.793-.309v1.267H7.467ZM11.3,26.126a.665.665,0,0,1,0-1.33h8.871a.665.665,0,0,1,0,1.33Zm0,2.288a.665.665,0,0,1,0-1.33h8.871a.665.665,0,0,1,0,1.33ZM8.333,24.333a1.944,1.944,0,0,1,1.36.556,1.941,1.941,0,0,1,0,2.782,1.979,1.979,0,0,1-2.751,0,1.947,1.947,0,0,1,1.391-3.338Zm.433,1.484a.561.561,0,0,0-.433-.185.581.581,0,0,0-.463.185.672.672,0,0,0,0,.927.583.583,0,0,0,.463.185.561.561,0,0,0,.433-.185.672.672,0,0,0,0-.927Zm14.342-1.484a1.952,1.952,0,1,1-1.36.556A1.962,1.962,0,0,1,23.108,24.333Zm.463,1.484a.628.628,0,0,0-.463-.185.561.561,0,0,0-.433.185.6.6,0,0,0,0,.927.561.561,0,0,0,.433.185.655.655,0,0,0,.463-1.112Z" transform="translate(-3.709 -15.252)" fill="#fff"/>
</svg>
