<svg xmlns="http://www.w3.org/2000/svg" width="17.918" height="28.151" viewBox="0 0 17.918 28.151">
  <g id="np_lipstick_755527_000000" transform="translate(-29.027 -14.515)">
    <path id="Path_982" data-name="Path 982" d="M35.427,51.792h0a2.962,2.962,0,0,0-5.119,0,9.257,9.257,0,0,0-1.28,5.183l0,6.653a.6.6,0,0,0,.64.64h6.4a.6.6,0,0,0,.64-.64l0-6.719a8.882,8.882,0,0,0-1.28-5.118Zm-2.558-.256a1.74,1.74,0,0,1,1.536.9,8.419,8.419,0,0,1,1.024,4.478l0,6.079H30.307V56.91a8.575,8.575,0,0,1,1.024-4.478,1.892,1.892,0,0,1,1.537-.9Z" transform="translate(0 -21.602)" fill="#fff"/>
    <path id="Path_983" data-name="Path 983" d="M60.57,31.79a1.829,1.829,0,0,0-.64-1.407V28.591a1.238,1.238,0,0,0-.64-1.088v-4.03a1.225,1.225,0,0,0-.319-.832v-1.6a10.931,10.931,0,0,0-.767-4.926v-.064c-.641-1.089-1.218-1.537-2.113-1.537s-1.472.448-2.112,1.536v.064a11.073,11.073,0,0,0-.767,4.926v1.6a1.221,1.221,0,0,0-.319.834V27.5a1.238,1.238,0,0,0-.64,1.088v1.791a1.831,1.831,0,0,0-.64,1.407v.192l.64,8.318v.064a2.571,2.571,0,0,0,2.56,2.3h2.56a2.619,2.619,0,0,0,2.56-2.3V40.3l.64-8.318c0-.064,0-.127,0-.191Zm-7.678.064h0a.623.623,0,0,1,.64-.7h5.119a.6.6,0,0,1,.64.64v.127Zm3.2-4.543h-1.92V23.473h3.84v3.838Zm0-11.516c.256,0,.448,0,.959.832a9.741,9.741,0,0,1,.64,4.415v1.151h-3.2V21.042a16.877,16.877,0,0,1,.064-1.855,1.886,1.886,0,0,0,.576.129h.129a1.74,1.74,0,0,0,1.728-1.6.481.481,0,1,0-.959-.064.816.816,0,0,1-1.407.448,6.929,6.929,0,0,1,.448-1.536c.573-.77.765-.77,1.021-.77Zm-2.558,12.8h5.119v1.28H53.533Zm3.838,12.8h-2.56a1.308,1.308,0,0,1-1.28-1.151l-.576-7.294h6.206l-.51,7.23a1.314,1.314,0,0,1-1.28,1.215Z" transform="translate(-13.627)" fill="#fff"/>
  </g>
</svg>
