<svg xmlns="http://www.w3.org/2000/svg" width="27.233" height="22.693" viewBox="0 0 27.233 22.693">
  <g id="np_book_498533_000000" transform="translate(-5 -15)">
    <path id="Path_984" data-name="Path 984" d="M18.39,37.639a.506.506,0,0,0,.451,0c1.579-.79,4.292-1.207,7.843-1.207,2.711,0,4.964.247,4.988.249a.5.5,0,0,0,.392-.126.505.505,0,0,0,.168-.376V19.034a.5.5,0,0,0-.4-.492c-.064-.014-.676-.148-1.622-.31V15.5a.5.5,0,0,0-.5-.5c-.287,0-6.977.027-11.095,1.969C14.5,15.028,7.808,15,7.52,15a.5.5,0,0,0-.5.5v2.728c-.946.162-1.558.3-1.622.31A.5.5,0,0,0,5,19.034V36.18a.506.506,0,0,0,.56.5c.024,0,2.278-.249,4.988-.249,3.55,0,6.263.417,7.842,1.207ZM6.008,19.445c.238-.047.593-.113,1.008-.187V32.649a.5.5,0,0,0,.5.5c.067,0,6.667.028,10.59,1.839V36.42a22.427,22.427,0,0,0-7.564-1c-1.96,0-3.688.126-4.539.2Zm12.1-1.6V28.616h1.008V17.845c3.29-1.518,8.461-1.784,10.085-1.827V32.153c-1.676.039-7.073.3-10.59,1.96C15.1,32.453,9.7,32.192,8.025,32.153V16.017c1.625.045,6.8.31,10.085,1.827ZM31.223,35.626c-.851-.074-2.579-.2-4.539-.2a22.427,22.427,0,0,0-7.564,1V34.993c3.923-1.811,10.523-1.839,10.59-1.839a.5.5,0,0,0,.5-.5V19.259c.416.072.771.139,1.008.187Z" transform="translate(0 0)" fill="#fff"/>
    <path id="Path_985" data-name="Path 985" d="M48.332,63.332H49.34V64.34H48.332Z" transform="translate(-30.221 -33.708)" fill="#fff"/>
    <path id="Path_986" data-name="Path 986" d="M48.332,70H49.34v1.008H48.332Z" transform="translate(-30.221 -38.359)" fill="#fff"/>
  </g>
</svg>
