<svg xmlns="http://www.w3.org/2000/svg" width="17.122" height="26.192" viewBox="0 0 17.122 26.192">
  <g id="np_builder_405529_000000" transform="translate(-20.586 -5)">
    <path id="Path_987" data-name="Path 987" d="M33.838,20.964a6.235,6.235,0,0,0,1.421-5.275h1.613a.443.443,0,1,0,0-.887h-.958A8.346,8.346,0,0,0,36,13.576a7.893,7.893,0,0,0-2.271-5.6A2.156,2.156,0,0,0,31.58,5.914h-.049c-.015-.016-.03-.033-.045-.049v0a3.026,3.026,0,0,0-1.512-.768,4.3,4.3,0,0,0-.9-.093,4.365,4.365,0,0,0-.892.093,3.018,3.018,0,0,0-1.513.766c-.017.017-.032.035-.048.052h-.075A2.156,2.156,0,0,0,24.4,7.993a7.907,7.907,0,0,0-2.245,5.582,8.346,8.346,0,0,0,.091,1.227h-.958a.443.443,0,0,0,0,.887H22.9a6.24,6.24,0,0,0,1.47,5.333,8.555,8.555,0,0,0-3.781,7.1v2.633a.442.442,0,0,0,.443.442H37.265a.443.443,0,0,0,.443-.442V28.116a8.555,8.555,0,0,0-3.87-7.152Zm-9.447-11.6V11.1a.477.477,0,0,0,.476.476h.092a.477.477,0,0,0,.476-.476V8.071a1.106,1.106,0,0,1,.327-.786,1.124,1.124,0,0,1,.309-.219v.207c0,.01,0,.019,0,.03V9.809a.477.477,0,0,0,.476.476h.091a.477.477,0,0,0,.476-.476V9.762h0V7.288A.973.973,0,0,1,27.41,6.6a1.967,1.967,0,0,1,.987-.484,3.344,3.344,0,0,1,.681-.073,3.252,3.252,0,0,1,.679.073,1.977,1.977,0,0,1,.989.487h0a1,1,0,0,1,.261.46V9.81a.477.477,0,0,0,.476.476h.092a.478.478,0,0,0,.477-.476V9.68h.032V7.3a2.063,2.063,0,0,0-.013-.224,1.107,1.107,0,0,1,.615.992q0,1.516,0,3.031a.477.477,0,0,0,.476.476h.092a.477.477,0,0,0,.476-.476V9.33a7.1,7.1,0,0,1,1.38,4.247,7.614,7.614,0,0,1-.08,1.091H23.117a7.455,7.455,0,0,1-.081-1.091,7.112,7.112,0,0,1,1.355-4.215Zm1.194,12.726v3.458h-.967V21.928c.13-.094.261-.186.4-.274A6.216,6.216,0,0,0,25.585,22.087Zm.887,3.458V22.58a6.274,6.274,0,0,0,5.133.036v2.928Zm-1.854.886h8.84v3.875h-8.84Zm7.874-.886V22.138A6.363,6.363,0,0,0,33.2,21.6c.088.055.173.114.257.172v3.77ZM23.8,15.688H34.351a5.248,5.248,0,0,1,.134,1.165,5.412,5.412,0,0,1-2.8,4.737H31.6v.042a5.4,5.4,0,0,1-7.8-5.945ZM21.472,28.116a7.642,7.642,0,0,1,2.259-5.426v7.617H21.472Zm15.35,2.19H34.343V22.479a7.653,7.653,0,0,1,2.478,5.638Z" fill="#fff"/>
    <path id="Path_988" data-name="Path 988" d="M36.255,80.429a.417.417,0,1,1-.833,0,.417.417,0,1,1,.833,0" transform="translate(-10.518 -53.182)" fill="#fff"/>
    <path id="Path_989" data-name="Path 989" d="M61.533,80.429a.417.417,0,0,1-.834,0,.417.417,0,0,1,.834,0" transform="translate(-28.439 -53.182)" fill="#fff"/>
    <path id="Path_990" data-name="Path 990" d="M60.271,21.078h-.161v.083Z" transform="translate(-28.021 -11.399)" fill="#fff"/>
  </g>
</svg>
