<svg xmlns="http://www.w3.org/2000/svg" width="29.402" height="29.202" viewBox="0 0 29.402 29.202">
  <g id="np_consult_1938219_000000" transform="translate(-1.564 -1.563)">
    <path id="Path_991" data-name="Path 991" d="M50.779,37.417a3.3,3.3,0,0,0-2.556-2.125L44.4,34.653a5.673,5.673,0,0,0,2.725-2.394h.765A1.414,1.414,0,0,0,49.3,30.846a1.414,1.414,0,0,0,1.413-1.413V27.549a1.41,1.41,0,0,0-.942-1.326v-1.5a7.536,7.536,0,1,0-15.072,0v1.5a1.412,1.412,0,0,0-.942,1.326v1.884a1.414,1.414,0,0,0,1.413,1.413h1.6a5.671,5.671,0,0,0,3.305,3.808l-3.825.638a3.3,3.3,0,0,0-2.556,2.125l-1.551,4.261H52.328Zm-9.2-.107L39.642,38.6l-1.031-2.751,1.8-.3Zm-.42-2.33a5.494,5.494,0,0,0,2.148,0l-1.074,1.612Zm2.9.573,1.8.3L44.829,38.6l-1.94-1.293Zm3.828-4.235h-.33c.054-.154.1-.311.144-.471h.657a.472.472,0,0,1-.471.471Zm1.884-1.884a.472.472,0,0,1-.471.471V28.491h-.942V29.9h-.495c.013-.155.024-.312.024-.471V27.078H49.3a.472.472,0,0,1,.471.471Zm-14.6.471a.472.472,0,0,1-.471-.471V27.549a.472.472,0,0,1,.471-.471h1.413v2.355c0,.159.011.316.024.471Zm1.413-4.71v.942h-.942V24.723a6.594,6.594,0,1,1,13.188,0v1.413h-.942v-.942h-.471a6.306,6.306,0,0,1-4.491-1.86l-.69-.69-.69.69a6.306,6.306,0,0,1-4.491,1.86Zm.942,4.239V26.121A7.238,7.238,0,0,0,42.213,24l.024-.024L42.26,24a7.243,7.243,0,0,0,4.686,2.122v3.311a4.678,4.678,0,0,1-.4,1.884H44.033a1.412,1.412,0,0,0-1.326-.942h-.942a1.413,1.413,0,1,0,0,2.826h.942a1.41,1.41,0,0,0,1.326-.942h1.962a4.7,4.7,0,0,1-8.469-2.826Zm5.652,2.355a.472.472,0,0,1-.471.471h-.942a.471.471,0,1,1,0-.942h.942A.472.472,0,0,1,43.178,31.788Zm-8.6,5.951a2.358,2.358,0,0,1,1.826-1.518l1.26-.21,1.513,4.034,3.058-2.039L45.3,40.046l1.513-4.034,1.26.21a2.359,2.359,0,0,1,1.826,1.518l1.089,3H48.726l-.381-1.527-.914.228.325,1.3H36.716l.325-1.3-.914-.228-.381,1.527H33.489Z" transform="translate(-21.362 -10.915)" fill="#fff"/>
    <path id="Path_992" data-name="Path 992" d="M55.629,50.471a.471.471,0,0,1-.942,0,.471.471,0,0,1,.942,0" transform="translate(-37.11 -33.837)" fill="#fff"/>
    <path id="Path_993" data-name="Path 993" d="M74.379,50.471a.471.471,0,0,1-.942,0,.471.471,0,0,1,.942,0" transform="translate(-50.208 -33.837)" fill="#fff"/>
    <path id="Path_994" data-name="Path 994" d="M17.509,9.7a.943.943,0,0,1,.942.942h.942A1.883,1.883,0,0,0,17.98,8.821V7.812h-.942V8.821a1.88,1.88,0,0,0,.471,3.7.942.942,0,1,1-.942.942h-.942a1.883,1.883,0,0,0,1.413,1.817V16.29h.942V15.281a1.88,1.88,0,0,0-.471-3.7.942.942,0,0,1,0-1.884Z" transform="translate(-9.823 -4.365)" fill="#fff"/>
    <path id="Path_995" data-name="Path 995" d="M32.812,20.312h.942v.942h-.942Z" transform="translate(-21.829 -13.098)" fill="#fff"/>
    <path id="Path_996" data-name="Path 996" d="M7.813,20.312h.942v.942H7.813Z" transform="translate(-4.365 -13.098)" fill="#fff"/>
    <path id="Path_997" data-name="Path 997" d="M11.071,11.609a5.184,5.184,0,1,1,.655-.678l.735.591a6.147,6.147,0,1,0-.775.8Z" fill="#fff"/>
  </g>
</svg>
