<svg xmlns="http://www.w3.org/2000/svg" width="29.222" height="24.955" viewBox="0 0 29.222 24.955">
  <g id="np_entertainment_1861667_000000" transform="translate(-4.255 -10.927)">
    <path id="Path_1029" data-name="Path 1029" d="M33.766,32.391c-.006-.04.025.227.019.131,0-.027-.006-.06-.006-.087a2.163,2.163,0,0,1,0-.284c0-.031.006-.062.01-.09.01-.131-.025.15-.01.056.012-.069.025-.14.044-.21s.056-.143.071-.215c0,0-.075.153-.031.077a.329.329,0,0,0,.022-.047c.022-.04.044-.081.065-.119a.937.937,0,0,0,.062-.094c-.06.127-.077.1-.035.047.012-.015.025-.031.037-.044.031-.035.062-.065.1-.1.015-.012.031-.025.047-.04.077-.075-.125.085-.025.019.077-.05.156-.094.237-.137s-.037.019-.047.019a.334.334,0,0,0,.09-.035,1.922,1.922,0,0,1,.193-.056c.085-.022.172-.037.259-.056.122-.025-.087.01-.069.01l.087-.01a2.035,2.035,0,0,1,.247-.006l.15.01c.05,0,.085.035-.071-.01a.787.787,0,0,0,.1.019,1.671,1.671,0,0,1,.168.044c.022.006.047.015.069.022s.022.01.035.012c.062.025.047.019-.044-.019.019.027.125.062.156.081s.06.035.087.052.119.077.04.025.027.025.037.035c.027.025.056.05.085.077a2.02,2.02,0,0,1,.175.2c-.031-.252-.065-.505-.1-.755-.015.022-.031.044-.047.065s-.035.047-.052.071-.022.027-.031.044c-.075.1.077-.1.037-.05-.153.187-.309.374-.48.546-.106.106-.215.21-.331.306-.027.022-.056.047-.085.069-.077.065.119-.087.015-.012-.069.05-.137.1-.206.14s-.125.075-.187.11l-.1.047c-.137.069.09-.031.01,0s-.14.05-.215.069c-.035.01-.069.015-.1.022a.261.261,0,0,0-.06.01c.012,0,.162-.012.077-.012s-.168-.006-.252,0c-.06,0,.094.015.09.012a.346.346,0,0,0-.075-.015A1.191,1.191,0,0,1,33.9,32.3c-.14-.047.085.047,0,0-.04-.022-.081-.04-.119-.062s-.087-.06-.135-.087.052.037.052.04-.077-.065-.087-.075a.625.625,0,1,0-.883.883,2.189,2.189,0,0,0,1.32.589,2.33,2.33,0,0,0,1.2-.284,4.77,4.77,0,0,0,1.507-1.291c.122-.15.243-.3.352-.464a.636.636,0,0,0-.1-.755,2.536,2.536,0,0,0-2.576-.838,2.358,2.358,0,0,0-1.354.755,2.44,2.44,0,0,0-.526,1.3,2.688,2.688,0,0,0,.019.721.627.627,0,0,0,.767.437.659.659,0,0,0,.433-.775Z" transform="translate(-19.246 -12.906)" fill="#fff"/>
    <path id="Path_1030" data-name="Path 1030" d="M24.822,52.076q-.094.022-.187.037a.677.677,0,0,1-.081.012c-.09.015.162-.015.025,0a3.081,3.081,0,0,1-.356.015c-.11,0-.215-.012-.324-.022-.087-.006.165.027.037,0-.025,0-.05-.01-.071-.012l-.181-.037c-.1-.025-.2-.052-.3-.087-.044-.015-.09-.031-.135-.05s-.119-.062.035.015a.689.689,0,0,0-.081-.035,4.455,4.455,0,0,1-.546-.3c-.081-.052-.158-.106-.235-.162-.127-.094.075.062,0,0-.04-.035-.085-.069-.125-.1q-.21-.178-.405-.374c-.112-.115-.225-.235-.327-.359-.044-.05-.085-.1-.127-.156-.019-.022-.094-.119-.012-.012s0,0-.019-.025c-.081-.11-.162-.222-.235-.337l-.855.855a7.944,7.944,0,0,0,2.7.684,6.369,6.369,0,0,0,2.173-.247,6.981,6.981,0,0,0,2.754-1.582,4.2,4.2,0,0,0,.4-.414l-1.063-.439c0,.006,0,.012,0,.019.01.115.027-.2.012-.094l-.037.225a5.8,5.8,0,0,1-.2.755c-.025.075-.052.147-.081.222-.015.037-.031.075-.047.115-.027.071.071-.158.025-.06-.012.025-.022.052-.035.077a5.02,5.02,0,0,1-.247.474c-.047.081-.1.158-.15.237-.031.044-.06.087-.09.127-.094.125.081-.1-.022.025a3.538,3.538,0,0,1-.437.449c-.044.037-.2.137-.035.031-.047.031-.094.069-.14.1a2.971,2.971,0,0,1-.322.193c-.06.031-.122.06-.181.087s-.065,0,.047-.019c-.031.006-.075.031-.106.04a2.189,2.189,0,0,1-.41.132.624.624,0,1,0,.331,1.2,4.136,4.136,0,0,0,2.482-1.794,5.784,5.784,0,0,0,.808-1.983,5.047,5.047,0,0,0,.087-.561.628.628,0,0,0-1.064-.444,3.128,3.128,0,0,1-.3.318c-.115.112-.237.222-.362.324-.035.027-.069.056-.1.085a.114.114,0,0,0-.027.022c-.069.056.077-.06.071-.056-.022.015-.044.035-.065.05-.087.065-.175.127-.264.19a6.026,6.026,0,0,1-.63.374c-.119.062-.24.119-.362.172s.115-.047.015-.006l-.09.037c-.071.027-.143.056-.215.081a5.773,5.773,0,0,1-.879.231c-.071.012-.15.019-.218.035-.006,0,.143-.015.071-.01l-.075.01c-.044.006-.087.01-.135.012-.172.015-.339.022-.511.022a5.675,5.675,0,0,1-.6-.031c-.031,0-.206-.015-.112-.012s-.062-.01-.09-.015c-.1-.015-.21-.035-.312-.056a6.663,6.663,0,0,1-.692-.185c-.112-.035-.225-.075-.334-.115l-.193-.075c-.025-.01-.05-.019-.075-.031-.094-.035.135.06-.025-.01a.623.623,0,0,0-.852.852,6.278,6.278,0,0,0,.851,1.079,5.207,5.207,0,0,0,2.31,1.457,3.862,3.862,0,0,0,1.89.027.629.629,0,0,0,.437-.767.642.642,0,0,0-.767-.432Z" transform="translate(-10.729 -25.452)" fill="#fff"/>
    <path id="Path_1031" data-name="Path 1031" d="M15.433,35.854a2.456,2.456,0,0,1,.1-.368c.035-.106-.01.035-.019.04a.3.3,0,0,0,.031-.069,1.856,1.856,0,0,1,.1-.175c.012-.019.027-.037.04-.06.044-.071-.1.122-.025.031a1.111,1.111,0,0,1,.087-.1c.035-.035.069-.069.1-.1.019-.015.04-.035.06-.05.075-.069-.1.075-.044.035a2.977,2.977,0,0,1,.405-.235c.081-.037-.172.065-.06.025.025-.01.047-.019.069-.025s.069-.022.1-.031.05-.015.075-.022c.056-.015.112-.031.168-.044.027-.006.056-.01.081-.015.131-.031-.131.01-.01,0s.215-.006.327,0-.06-.006-.065-.01c.019.006.044.006.065.012.056.012.112.027.168.044.019.006.037.015.056.022.075.022-.15-.075-.052-.022l.1.052.11.069c.14.1-.077-.071.006,0,.056.05.11.1.162.153.027.031.056.062.081.094.09.106-.09-.127-.012-.015a2.472,2.472,0,0,1,.193.327c.047.1.04.147-.01-.035,0,.015.012.027.015.044V35.1a.25.25,0,0,0-.025.069c0-.01.065-.14.022-.05-.022.04-.04.081-.062.122a.969.969,0,0,1-.06.1c-.012.019-.025.035-.037.052-.04.062.1-.112.031-.04-.052.052-.106.1-.156.156s.122-.085.06-.044c-.015.01-.031.022-.047.031-.035.022-.071.044-.11.065s-.06.027-.087.044c-.065.035.14-.05.071-.031l-.052.019a1.494,1.494,0,0,1-.231.06c-.027.006-.156.025-.027.006s0,0-.031,0c-.081.006-.165.006-.247.006s-.147-.006-.218-.012c-.019,0-.037,0-.06-.006-.1-.01.077.012.077.012-.044-.01-.087-.012-.131-.022a4.292,4.292,0,0,1-.434-.1c-.137-.037-.271-.081-.4-.131-.06-.022-.119-.044-.177-.069l-.071-.027c-.135-.052.122.052.047.019-.115-.052-.231-.1-.343-.162a.625.625,0,1,0-.63,1.079c1.154.618,2.869,1.085,3.961.119a1.5,1.5,0,0,0,.568-1.282,2.333,2.333,0,0,0-.455-.788,2.271,2.271,0,0,0-1.033-.734,2.425,2.425,0,0,0-1.482.022,2.537,2.537,0,0,0-1.846,1.961.639.639,0,0,0,.437.767.657.657,0,0,0,.775-.45Z" transform="translate(-6.774 -15.328)" fill="#fff"/>
    <path id="Path_1032" data-name="Path 1032" d="M18.714,11.756a1.408,1.408,0,0,0-1.129-.821,1.976,1.976,0,0,0-1.229.359A6.062,6.062,0,0,0,15.2,12.317a3.189,3.189,0,0,1-.314.293c-.09.075.062-.044.031-.022l-.087.065c-.065.047-.131.09-.2.135-.131.081-.264.158-.4.227-.065.035-.135.065-.2.1-.037.015-.075.035-.112.05-.125.056.115-.047-.012.006a9.071,9.071,0,0,1-.983.327,10.158,10.158,0,0,1-1.067.231c-.09.015-.185.031-.274.044-.025,0-.158.022-.056.01s-.065.01-.094.012c-.185.022-.368.04-.555.056a12.75,12.75,0,0,1-2.149,0c-.075-.006-.15-.015-.227-.022-.04,0-.081-.01-.119-.015-.094-.012.158.022,0,0s-.3-.047-.447-.077a4.984,4.984,0,0,1-.771-.218l-.071-.027c.206.071.085.035.035.012-.147-.065-.293-.127-.447-.181a3.29,3.29,0,0,0-.664-.147,1.682,1.682,0,0,0-.985.175,1.518,1.518,0,0,0-.742,1.1,2.941,2.941,0,0,0-.031.524c.006.493.019.985.044,1.475.044.876.115,1.753.225,2.622a23.63,23.63,0,0,0,.938,4.381A14.848,14.848,0,0,0,6.9,26.618a10.632,10.632,0,0,0,1.744,2.171,8.977,8.977,0,0,0,1.865,1.357,8.506,8.506,0,0,0,1.786.714,8.226,8.226,0,0,0,1.507.259,6.15,6.15,0,0,0,.871.015c.062,0,.127-.01.19-.015a4.116,4.116,0,0,0,1.2-.437A7.833,7.833,0,0,0,18.869,28.5a8.762,8.762,0,0,0,1.562-3.054A12.953,12.953,0,0,0,20.9,22.08a20.59,20.59,0,0,0-.252-3.415,27.629,27.629,0,0,0-.617-2.963c-.206-.783-.443-1.557-.7-2.32-.153-.439-.312-.876-.489-1.307-.037-.109-.08-.211-.127-.318a.63.63,0,0,0-.855-.225.647.647,0,0,0-.225.855c.044.1-.056-.131-.044-.1s.037.09.056.135c.069.168.135.337.2.509.227.6.434,1.21.624,1.821.264.863.5,1.74.686,2.622.106.5.2,1,.277,1.509l.056.384c.019.127-.019-.14-.006-.037a.816.816,0,0,0,.012.087c.01.071.019.143.025.215.031.264.06.534.077.8a15.977,15.977,0,0,1-.044,3.212c0,.035-.01.069-.012.1.006-.071.022-.15,0-.037-.01.069-.019.135-.031.2-.022.127-.044.256-.069.387-.05.259-.11.518-.181.771s-.147.5-.237.748c-.047.125-.1.247-.147.372.019-.05.06-.137.019-.044-.012.031-.027.06-.04.09-.027.06-.056.122-.085.181-.112.235-.237.464-.372.686-.069.112-.14.225-.215.334l-.106.153c-.019.027-.04.052-.06.081s-.09.119-.022.027,0,.006-.022.027a.554.554,0,0,0-.052.069c-.047.056-.094.112-.14.165-.087.1-.175.2-.264.291a6.487,6.487,0,0,1-.605.551c-.027.022-.056.044-.085.065-.075.06-.022.012.031-.022-.065.04-.125.094-.187.137-.115.081-.231.162-.352.237a8.265,8.265,0,0,1-.783.437l-.2.094c-.037.015-.071.035-.11.05s-.172.075-.069.031-.015.006-.037.015l-.115.047c-.077.031-.156.06-.235.087-.212.075.172,0,.075,0-.177.015-.352.025-.53.025-.162,0-.327-.01-.489-.022-.1-.006-.193-.015-.291-.027-.025,0-.05-.006-.071-.01-.112-.012.2.027.075.01-.056-.01-.11-.015-.165-.025a7.956,7.956,0,0,1-1.484-.4l-.2-.077c-.131-.052.153.065.037.015-.037-.015-.075-.031-.112-.05-.14-.062-.281-.131-.418-.2a7.824,7.824,0,0,1-.848-.514c-.075-.05-.147-.1-.218-.158-.035-.025-.069-.052-.1-.077s.143.112.056.044c-.022-.015-.04-.035-.062-.05-.143-.115-.284-.237-.422-.362a9.347,9.347,0,0,1-.842-.879c-.071-.085-.14-.172-.21-.259s.015.019.037.05c-.015-.022-.035-.044-.05-.069-.035-.047-.069-.09-.1-.137-.137-.187-.268-.38-.393-.576a12.759,12.759,0,0,1-.736-1.337c-.06-.125-.119-.252-.175-.38L7.1,24.322c-.012-.027-.062-.143-.015-.037s-.006-.019-.015-.04-.027-.069-.04-.1c-.112-.274-.215-.555-.312-.836-.212-.62-.387-1.25-.536-1.886-.168-.726-.3-1.46-.4-2.2,0-.022-.006-.044-.01-.065-.012-.087.015.125.006.037-.006-.044-.012-.087-.015-.131-.015-.11-.027-.222-.04-.331-.025-.2-.047-.409-.065-.611-.04-.437-.075-.873-.1-1.31a20.176,20.176,0,0,1-.062-2.127c0-.035.015-.127,0,.015s0,.031,0-.006c.015-.069.044-.135.06-.2.006-.022-.085.172-.035.081.01-.015.015-.031.025-.047.019-.037.047-.069.065-.1-.1.181-.06.077,0,.015.012-.012.035-.022.044-.037,0,0-.143.09-.077.062.012-.006.022-.015.035-.022a.63.63,0,0,0,.056-.031c.062-.04-.162.05-.056.025.056-.012.11-.027.165-.04.022-.006-.172.012-.047.01l.087,0c.037,0,.071,0,.11.006.135.01-.135-.027,0,0a3.705,3.705,0,0,1,.543.158c.025.01.106.047-.01-.006a.357.357,0,0,0,.06.025c.069.031.137.06.206.087l.168.065a7.3,7.3,0,0,0,1.821.352,13.131,13.131,0,0,0,4.356-.349,8.139,8.139,0,0,0,1.969-.755,4.643,4.643,0,0,0,.8-.565c.309-.268.558-.6.873-.858.04-.035.077-.065.119-.1-.094.075.01-.006.05-.031a2.454,2.454,0,0,1,.249-.156l.112-.056c.1-.05-.119.037.015,0,.075-.022.156-.031.227-.06-.012,0-.162.01-.065.012h.05c.027,0,.143.01.027,0-.156-.015.04.012.037.019s-.165-.075-.025,0c.012.006.025.022.04.025-.01,0-.09-.09-.062-.047a.352.352,0,0,0,.081.085c-.01,0-.065-.11-.044-.052.006.015.022.031.031.047a1.567,1.567,0,0,1,.075.143.626.626,0,0,0,.855.225.641.641,0,0,0,.23-.86Z" fill="#fff"/>
    <path id="Path_1033" data-name="Path 1033" d="M46.471,43.961a8.31,8.31,0,0,0,3.711,4.3,4.5,4.5,0,0,0,1.017.447,2.874,2.874,0,0,0,.6.05c.19.006.38.01.571,0a8.268,8.268,0,0,0,1.213-.122,7.638,7.638,0,0,0,3.749-1.809,10.751,10.751,0,0,0,2.418-3.184,18.892,18.892,0,0,0,1.45-3.8,27.419,27.419,0,0,0,.7-3.449c.119-.846.212-1.694.262-2.545a3.738,3.738,0,0,0-.077-1.453,1.5,1.5,0,0,0-.717-.861,2.2,2.2,0,0,0-1.457-.1,5.257,5.257,0,0,0-.913.312c-.031.012-.264.1-.037.015a.471.471,0,0,0-.06.025c-.04.015-.081.031-.119.044-.1.037-.21.065-.314.094s-.19.044-.284.062l-.156.027-.071.01c.19-.037.069-.01.022,0-.225.025-.449.04-.676.044s-.477,0-.714-.019c-.122-.01-.243-.019-.364-.031L56.053,32c-.035,0-.069-.01-.1-.012-.06-.006.147.022,0,0a11.644,11.644,0,0,1-1.5-.314c-.24-.065-.477-.14-.714-.218-.115-.04-.231-.081-.343-.125a2,2,0,0,0-.334-.131c.127.019.081.035.022.01-.025-.01-.047-.022-.071-.031-.052-.022-.106-.047-.156-.071-.106-.05-.215-.1-.318-.156-.187-.1-.372-.2-.551-.312-.077-.05-.156-.1-.231-.156-.044-.031-.085-.065-.127-.094,0,0,.127.1.052.04l-.047-.037a3.039,3.039,0,0,1-.368-.349.629.629,0,0,0-.883,0,.637.637,0,0,0,0,.883,5.886,5.886,0,0,0,2.071,1.36,12.557,12.557,0,0,0,2.938.871,9.183,9.183,0,0,0,3.046.052,4.406,4.406,0,0,0,.576-.137c.09-.027.181-.062.271-.1.06-.025.127-.05.177-.075s0,0-.012.006c.085-.035.168-.069.252-.1a3.692,3.692,0,0,1,.409-.127c.052-.012.11-.027.162-.037.025-.006.05-.01.077-.015.065-.012.137.006-.019,0,.09,0,.185-.015.277-.012l.071,0c.056,0,.065.037-.085-.012.04.012.085.015.125.025a.485.485,0,0,0,.09.027c-.147-.022-.122-.056-.037-.012a.487.487,0,0,0,.081.05s-.127-.115-.077-.06c.012.015.031.027.044.04s.035.044.052.06c-.125-.1-.081-.119-.04-.047.015.025.031.05.044.075.06.115,0,0-.015-.044.015.052.035.1.047.156l.019.085c.027.14-.015-.165-.006-.056a2.442,2.442,0,0,1,.01.3c0,.1-.006.206-.01.309-.027.651-.085,1.3-.156,1.946-.012.112-.025.227-.04.339-.006.06-.015.122-.022.181-.015.131-.015-.04.01-.062-.012.012-.012.085-.015.1-.037.262-.075.524-.119.783-.094.565-.2,1.129-.331,1.687q-.206.913-.484,1.811c-.094.306-.2.609-.306.911-.056.153-.112.306-.175.459-.031.075-.06.153-.09.227-.012.035-.027.069-.04.1-.035.087.031-.075.031-.075a.635.635,0,0,0-.031.075,14.4,14.4,0,0,1-.879,1.734c-.165.274-.339.539-.524.8-.047.065-.094.131-.143.193-.031.04-.119.143.015-.022-.027.035-.056.069-.081.106-.1.125-.2.247-.309.364a8.062,8.062,0,0,1-.655.667c-.115.106-.237.21-.359.306-.031.025-.062.047-.094.075,0,0,.137-.1.062-.05-.015.01-.027.022-.04.031-.062.047-.127.094-.19.14a7.163,7.163,0,0,1-.813.493c-.143.075-.291.137-.437.206,0,0,.158-.065.075-.031a.293.293,0,0,0-.05.022c-.035.012-.069.027-.1.04-.081.031-.162.06-.243.087a6.286,6.286,0,0,1-.963.252c-.085.015-.172.031-.259.044l-.06.01c-.1.015.077-.01.077-.01-.05,0-.1.012-.147.019-.181.019-.362.035-.543.04s-.377.01-.568,0c-.09,0-.185-.006-.274-.012l-.147-.01c-.022,0-.044,0-.065-.006-.085-.006.012-.031.1.015a2.187,2.187,0,0,0-.235-.085c-.06-.025-.215-.1.025.012-.047-.022-.094-.04-.14-.062-.112-.05-.222-.106-.331-.165a7.239,7.239,0,0,1-.821-.509c-.035-.025-.065-.05-.1-.071-.015-.012-.035-.025-.05-.037-.094-.069.1.081.037.027-.081-.065-.165-.131-.243-.2-.158-.135-.312-.277-.459-.424q-.243-.247-.468-.518a.772.772,0,0,1-.115-.143c0,.01.087.119.022.027-.015-.022-.035-.044-.05-.065-.075-.1-.15-.21-.222-.314a6.893,6.893,0,0,1-.4-.68c-.062-.119-.122-.24-.181-.364-.027-.06-.052-.119-.081-.177-.065-.147.031.081-.006-.012-.015-.04-.031-.077-.047-.119a.625.625,0,1,0-1.2.342Z" transform="translate(-28.712 -12.886)" fill="#fff"/>
    <path id="Path_1034" data-name="Path 1034" d="M56.587,46.987a.556.556,0,0,1,.056-.081c-.1.094-.022.027.006,0a1.448,1.448,0,0,1,.122-.125c.022-.019.044-.037.062-.056.062-.062-.125.085-.012.01.05-.031.1-.065.147-.094a1.118,1.118,0,0,0,.15-.075c-.01.006-.147.052-.05.022.022-.006.044-.015.065-.022a2.873,2.873,0,0,1,.281-.069c.1-.022-.172.012-.022,0,.035,0,.071-.006.106-.006a1.809,1.809,0,0,1,.2,0c.081.006.243.012-.022-.006a.243.243,0,0,1,.052.01c.177.025.222.031.125.015s0,0,.022.006a1.318,1.318,0,0,1,.175.04c.047.012.1.027.143.044.022.006.047.022.065.025-.143-.031-.081-.035-.025-.006.035.019.187.14.218.135-.056.01-.11-.1-.056-.04.012.012.031.025.044.04.035.035.065.069.1.1.1.106-.06-.1-.012-.015a.882.882,0,0,1,.065.1c.019.031.035.06.05.09a.329.329,0,0,1,.022.047c.056.11-.04-.119-.022-.056a3.617,3.617,0,0,1,.11.389c.025.127,0-.035-.006-.056,0,.031.006.06.01.09,0,.047.006.1.006.143s0,.094,0,.137c.062-.147.122-.293.185-.439-.031.031-.062.062-.1.094l-.04.037c-.075.069.031-.027.04-.031a1.83,1.83,0,0,0-.215.131c-.115.062.11-.031.019-.006l-.087.027c-.035.01-.069.015-.1.025-.131.031.147-.006.019,0-.069,0-.137,0-.21,0-.127-.006.135.027.035.006-.037-.01-.077-.015-.119-.025a1.4,1.4,0,0,1-.2-.062c-.027-.01-.056-.025-.087-.035.172.04.069.027.01,0a3.02,3.02,0,0,1-.389-.227c-.06-.04-.115-.085-.177-.125s.075.06.065.05l-.047-.037-.094-.075a5.866,5.866,0,0,1-.53-.511c-.062-.065-.122-.135-.177-.2-.015-.019-.035-.04-.05-.062-.065-.077.075.1.075.1a.684.684,0,0,0-.374-.287.644.644,0,0,0-.48.062.631.631,0,0,0-.225.855,6.135,6.135,0,0,0,1.17,1.16,2.518,2.518,0,0,0,2.37.549,2.2,2.2,0,0,0,.734-.468.761.761,0,0,0,.24-.551,2.574,2.574,0,0,0-.087-.742,2.3,2.3,0,0,0-.565-1.02,1.984,1.984,0,0,0-.561-.4,2.34,2.34,0,0,0-.387-.15,1.64,1.64,0,0,0-.172-.04c-.06-.012-.437-.062-.249-.037.127.019.031,0,0,0-.1-.015-.2-.031-.306-.037a2.851,2.851,0,0,0-.651.05A2.422,2.422,0,0,0,55.5,46.363a.628.628,0,0,0,.225.855.658.658,0,0,0,.862-.231Z" transform="translate(-34.819 -23.363)" fill="#fff"/>
    <path id="Path_1035" data-name="Path 1035" d="M53.721,65.006c.019-.027.037-.056.06-.085s.04-.06.062-.087.025-.035.037-.05c.069-.094-.11.137-.031.044a6.519,6.519,0,0,1,.571-.63c.131-.125.268-.243.409-.359.077-.062-.125.094,0,0,.037-.027.071-.052.11-.077.085-.06.172-.115.259-.168s.162-.094.243-.137c.047-.025.094-.047.143-.071a.62.62,0,0,0,.065-.031c.094-.044.01.006-.035.012.1-.019.2-.075.291-.1s.215-.06.324-.081c.06-.012.227-.012.037-.01.05,0,.1-.012.153-.015a3.014,3.014,0,0,1,.352-.006c.052,0,.106.006.162.012a.686.686,0,0,0,.081.01c-.031.022-.131-.022-.044,0,.125.022.249.05.372.085s.212.071.318.11c.077.027-.115-.052-.044-.019a.655.655,0,0,0,.069.031,1.369,1.369,0,0,1,.165.085c.09.05.177.1.262.158a1.009,1.009,0,0,0,.115.081c-.006,0-.122-.1-.044-.035.027.022.052.044.081.065a3.6,3.6,0,0,1,.4.405l.04.05c.062.075-.035-.044-.037-.05.027.04.06.077.085.115.056.077.106.156.156.237a4.839,4.839,0,0,1,.247.472c.022.047.069.181-.006-.015.012.035.027.069.044.106.031.075.06.153.085.231a5.161,5.161,0,0,1,.212.836c.01.047.015.094.022.14.019.115-.022-.175-.012-.1,0,.015,0,.035.006.05,0,.031.006.062.01.094.387-.106.773-.21,1.163-.314a6.1,6.1,0,0,0-1.347-1.26,6.366,6.366,0,0,0-3.518-1.17,7.139,7.139,0,0,0-2.8.534.643.643,0,0,0-.437.767.631.631,0,0,0,.767.437,7.5,7.5,0,0,1,1.208-.372c.1-.022.193-.04.291-.056.044-.006.087-.012.131-.022.11-.015-.119.012.027,0a4.959,4.959,0,0,1,.546-.037c.165,0,.334,0,.5.01l.231.019c.022,0,.181.022.065.006s.037.006.065.01a5.442,5.442,0,0,1,.873.215l.187.065.106.04c.025.01.15.062.044.019s0,0,.027.012l.087.037c.06.027.122.056.181.087a5.805,5.805,0,0,1,.642.377c.09.06.177.122.264.187a.666.666,0,0,0,.06.044l-.04-.031.115.094c.131.11.256.222.374.339a3.647,3.647,0,0,1,.268.287c.069.081.156.2,0-.012a.651.651,0,0,0,.7.287.636.636,0,0,0,.459-.6,5.265,5.265,0,0,0-1.453-3.308,3.816,3.816,0,0,0-2.869-1.092,4.591,4.591,0,0,0-2.657,1.185,5.929,5.929,0,0,0-1.141,1.291.626.626,0,0,0,1.078.637Z" transform="translate(-32.876 -34.684)" fill="#fff"/>
    <path id="Path_1036" data-name="Path 1036" d="M73.654,51.2c.01-.037.025-.075.037-.112.052-.15-.077.168-.01.019.025-.052.05-.1.077-.153a1.263,1.263,0,0,1,.1-.158c.015-.025.1-.135.022-.035s.01-.01.031-.035a1.906,1.906,0,0,1,.168-.165c.1-.094-.1.06-.019.012.04-.025.077-.052.119-.075l.1-.052c.1-.052-.127.04-.052.022l.06-.019a1.4,1.4,0,0,1,.137-.037c.022,0,.044-.01.065-.012.112-.022-.156.01-.031.006.1,0,.2,0,.3,0,.119.006-.044,0-.044-.006s.094.015.106.019c.037.006.075.015.112.025a1.746,1.746,0,0,1,.177.044c.052.015.106.037.158.056.112.04-.156-.075-.027-.012a1.248,1.248,0,0,1,.115.06l.122.071c.05.031.162.147.022.01.077.075.162.143.237.227a.608.608,0,0,0,.044.052c-.037-.031-.075-.11-.025-.025.035.052.065.106.1.158.006.01.04.087.044.087-.012,0-.052-.147-.01-.015a2.068,2.068,0,0,1,.069.227c.1-.235.19-.472.287-.7-.085.052-.172.1-.259.143s-.19.1-.287.14c-.052.025-.11.047-.162.071.06-.027.143-.06.037-.015-.035.012-.069.027-.1.04-.137.05-.274.1-.414.137-.069.019-.137.035-.206.05-.035.006-.069.015-.1.022s-.193.027-.065.012-.006,0-.037,0-.069.006-.106.006c-.075,0-.15,0-.222,0a.952.952,0,0,0-.115-.01c.069-.006.153.025.037,0a1.794,1.794,0,0,1-.21-.056c-.143-.044.11.06,0,0-.035-.019-.069-.035-.1-.056s-.135-.1-.047-.025-.031-.027-.052-.05-.056-.06-.087-.09-.027-.071.037.05a.634.634,0,0,0-.037-.052,1.956,1.956,0,0,1-.153-.284.627.627,0,0,0-.855-.225.647.647,0,0,0-.225.855,2.056,2.056,0,0,0,2.027,1.188,5.012,5.012,0,0,0,1.961-.576c.125-.062.252-.127.372-.2a.643.643,0,0,0,.287-.7,2.624,2.624,0,0,0-3.3-1.771,2.46,2.46,0,0,0-1.41,1.587.63.63,0,0,0,.437.767.641.641,0,0,0,.77-.439Z" transform="translate(-46.401 -26.026)" fill="#fff"/>
  </g>
</svg>
