<svg xmlns="http://www.w3.org/2000/svg" width="21.939" height="26.78" viewBox="0 0 21.939 26.78">
  <path id="np_money_1008087_000000" d="M18.495,17.349a2.526,2.526,0,0,1,2.04-2.484v-.536a.69.69,0,1,1,1.38,0v.552a2.718,2.718,0,0,1,1.83,1.582A.69.69,0,0,1,22.472,17a1.345,1.345,0,0,0-1.244-.828,1.227,1.227,0,0,0-1.35,1.182c0,.212,0,.853,1.5,1.2H21.4c2.208.516,2.553,1.81,2.553,2.537h0a2.524,2.524,0,0,1-2.039,2.484v.552a.69.69,0,0,1-1.38,0v-.552a2.715,2.715,0,0,1-1.831-1.582.69.69,0,1,1,1.272-.533,1.351,1.351,0,0,0,1.249.828,1.227,1.227,0,0,0,1.35-1.182c0-.212,0-.853-1.5-1.2h-.022c-2.227-.529-2.558-1.824-2.558-2.552Zm4.968-9.47h0a.689.689,0,0,0,.952-.174L26.792,4.32h0a.692.692,0,0,0-.127-.929A8.734,8.734,0,0,0,15.782,3.4a.692.692,0,0,0-.125.928L18.034,7.7a.69.69,0,0,0,1.129-.792L17.17,4.077a7.374,7.374,0,0,1,8.11,0l-1.994,2.84a.692.692,0,0,0,.168.961ZM11.931,21.318A15.691,15.691,0,0,1,17.51,9.361a.694.694,0,0,1,.444-.163h6.539a.69.69,0,0,1,.444.163,15.691,15.691,0,0,1,5.582,11.957V23.28l.212.1a2.57,2.57,0,0,1-1.1,4.889H12.82a2.57,2.57,0,0,1-1.1-4.889l.212-.1Zm-.276,4.645a1.182,1.182,0,0,0,1.16.928H29.624a1.19,1.19,0,0,0,.513-2.261l-.6-.276h0a.69.69,0,0,1-.389-.64v-2.4a14.315,14.315,0,0,0-4.9-10.74H18.21a14.309,14.309,0,0,0-4.9,10.742v2.4a.69.69,0,0,1-.391.621l-.6.276a1.182,1.182,0,0,0-.653,1.349Z" transform="translate(-10.254 -1.492)" fill="#fff"/>
</svg>
