<svg xmlns="http://www.w3.org/2000/svg" width="29.402" height="13.151" viewBox="0 0 29.402 13.151">
  <path id="np_fitness_2071916_000000" d="M27.846,32.552v-2.5a2.417,2.417,0,0,0-2.418-2.418h-.083a2.421,2.421,0,0,0-2,1.06,2.417,2.417,0,0,0-2-1.06H21.26a2.419,2.419,0,0,0-2.419,2.418v2.495H10.561V30.054a2.419,2.419,0,0,0-2.419-2.418H8.059a2.417,2.417,0,0,0-2,1.06,2.421,2.421,0,0,0-2-1.06H3.974a2.417,2.417,0,0,0-2.418,2.418v2.5a1.663,1.663,0,0,0,0,3.319v2.5a2.417,2.417,0,0,0,2.418,2.418h.083a2.418,2.418,0,0,0,2-1.061,2.415,2.415,0,0,0,2,1.061h.083a2.419,2.419,0,0,0,2.419-2.418V35.875h8.282v2.495h0a2.419,2.419,0,0,0,2.419,2.418h.083a2.416,2.416,0,0,0,2-1.061,2.418,2.418,0,0,0,2,1.061h.083a2.417,2.417,0,0,0,2.418-2.418v-2.5a1.663,1.663,0,0,0,0-3.319ZM1.556,35.033a.828.828,0,0,1,0-1.642Zm4.085-2.484v5.821a1.585,1.585,0,0,1-1.585,1.584H3.974A1.583,1.583,0,0,1,2.39,38.369V30.054A1.583,1.583,0,0,1,3.974,28.47h.083a1.585,1.585,0,0,1,1.585,1.584Zm4.085,0v5.821a1.585,1.585,0,0,1-1.585,1.584H8.059a1.583,1.583,0,0,1-1.584-1.584V30.054A1.583,1.583,0,0,1,8.059,28.47h.083a1.585,1.585,0,0,1,1.585,1.584Zm9.116,2.493H10.561V33.382h8.282Zm4.085-2.493v5.821h0a1.583,1.583,0,0,1-1.584,1.584h-.083a1.585,1.585,0,0,1-1.585-1.584V30.054a1.585,1.585,0,0,1,1.585-1.584h.083a1.583,1.583,0,0,1,1.584,1.584Zm4.085,0v5.821h0a1.583,1.583,0,0,1-1.584,1.584h-.083a1.585,1.585,0,0,1-1.585-1.584V30.054a1.585,1.585,0,0,1,1.585-1.584h.083a1.583,1.583,0,0,1,1.584,1.584Zm.834,2.484V33.39a.828.828,0,0,1,0,1.642Z" transform="translate(0 -27.636)" fill="#fff"/>
</svg>
