<svg xmlns="http://www.w3.org/2000/svg" width="26.977" height="26.68" viewBox="0 0 26.977 26.68">
  <path id="np_food_1641818_000000" d="M31.377,17.494H27.751a4.978,4.978,0,0,0-.984-2.074l4.273-7.7a.6.6,0,0,0-1.048-.582l-4.115,7.419a4.95,4.95,0,0,0-1.3-.7l2.593-7.569A.6.6,0,0,0,26.034,5.9L23.4,13.585a5.127,5.127,0,0,0-.522-.029A4.962,4.962,0,0,0,20.837,14a4.988,4.988,0,0,0-9.512.471,3.659,3.659,0,0,0-3.159,3.027H5.6a.6.6,0,0,0-.6.6,13.394,13.394,0,0,0,6.216,11.355v1.01a1.714,1.714,0,0,0,1.713,1.713H24.046a1.714,1.714,0,0,0,1.713-1.713V29.448a13.386,13.386,0,0,0,6.217-11.354.6.6,0,0,0-.6-.6Zm-4.86,0h-.9l.5-.909a3.754,3.754,0,0,1,.4.909ZM25.286,15.62l-1.04,1.873h-.919l.858-2.5a3.819,3.819,0,0,1,1.1.631Zm-.3,12.9h-9.3a.6.6,0,0,0,0,1.2h8.871v.739a.515.515,0,0,1-.514.514H12.93a.515.515,0,0,1-.514-.514v-.739h1.727a.6.6,0,0,0,0-1.2H11.991a12.2,12.2,0,0,1-5.778-9.83H19.687a.6.6,0,0,0,0-1.2H9.386a2.46,2.46,0,0,1,2.38-1.857h.05a.6.6,0,0,0,.114-.012c.013,0,.026-.007.039-.011a.456.456,0,0,0,.068-.021.465.465,0,0,0,.042-.02.521.521,0,0,0,.056-.03.454.454,0,0,0,.039-.027.536.536,0,0,0,.049-.041.433.433,0,0,0,.033-.033.551.551,0,0,0,.041-.05.423.423,0,0,0,.026-.037.537.537,0,0,0,.03-.057c.007-.014.014-.029.02-.043s.013-.04.019-.06.009-.033.013-.05l0-.014a3.79,3.79,0,0,1,7.465-.136c0,.011.007.021.009.032a.708.708,0,0,0,.025.081.592.592,0,0,0,.044.085c0,.006.006.013.009.019a0,0,0,0,0,0,0,.591.591,0,0,0,.076.094s0,0,0,0a.66.66,0,0,0,.084.069c.012.008.025.013.036.02a.582.582,0,0,0,.066.035l.028.008a.683.683,0,0,0,.083.026h.007a.632.632,0,0,0,.125.011.586.586,0,0,0,.1-.009h0c.012,0,.022-.007.034-.011a.665.665,0,0,0,.078-.023.525.525,0,0,0,.084-.044l.02-.011,0,0a0,0,0,0,0,0,0,3.782,3.782,0,0,1,2.079-.622c.04,0,.08,0,.119.006l-.936,2.732h-.725a.6.6,0,1,0,0,1.2h9.429a12.2,12.2,0,0,1-5.778,9.828Z" transform="translate(-5 -5.492)" fill="#fff"/>
</svg>
