<svg xmlns="http://www.w3.org/2000/svg" width="38.752" height="21.587" viewBox="0 0 38.752 21.587">
  <g id="np_games_2058123_000000" transform="translate(0.029 -22.335)">
    <path id="Path_998" data-name="Path 998" d="M28.175,43.916a10.7,10.7,0,0,1-7.64-3.169H18.41a10.793,10.793,0,1,1-7.64-18.412H28.175a10.793,10.793,0,0,1,0,21.581ZM17.982,39.74h2.98l.151.155h0a9.781,9.781,0,1,0,7.063-16.554H10.769A9.781,9.781,0,1,0,17.831,39.9Z" transform="translate(0 0)" fill="#fff"/>
    <path id="Path_999" data-name="Path 999" d="M68.95,58.056a2.9,2.9,0,1,1,2.9-2.9,2.9,2.9,0,0,1-2.9,2.9Zm0-5.239a.97.97,0,1,0,0-.011Zm0,3.492a1.143,1.143,0,1,0,0-.011Zm0-1.747a.247.247,0,1,0,0-.011Z" transform="translate(-40.319 -18.259)" fill="#fff"/>
    <path id="Path_1000" data-name="Path 1000" d="M15.6,45.35a2.03,2.03,0,0,1-2.024-2.024V41.858H12.109a2.025,2.025,0,0,1,0-4.049h1.468V36.34a2.024,2.024,0,1,1,4.048,0v1.468h1.468a2.025,2.025,0,0,1,0,4.049H17.625v1.468A2.024,2.024,0,0,1,15.6,45.35Zm-3.492-6.984a1.467,1.467,0,1,0,0,2.935h2.024v2.025a1.468,1.468,0,0,0,2.936,0V41.3h2.024v0a1.467,1.467,0,1,0,0-2.935H17.069V36.34a1.468,1.468,0,1,0-2.936,0v2.024H12.109Z" transform="translate(-6.171 -7.31)" fill="#fff"/>
    <path id="Path_1001" data-name="Path 1001" d="M68.95,35.634a2.9,2.9,0,1,1,2.9-2.9,2.9,2.9,0,0,1-2.9,2.9Zm0-5.239a2.34,2.34,0,1,0,1.655.685,2.339,2.339,0,0,0-1.655-.685Zm0,3.492a1.152,1.152,0,1,1,.813-.337,1.149,1.149,0,0,1-.813.337Zm0-1.747a.6.6,0,1,0,.6.6.6.6,0,0,0-.6-.6Z" transform="translate(-40.319 -4.578)" fill="#fff"/>
    <path id="Path_1002" data-name="Path 1002" d="M80.146,46.829a2.9,2.9,0,1,1,2.9-2.9,2.9,2.9,0,0,1-2.9,2.9Zm0-5.239a2.342,2.342,0,1,0,1.655.685,2.343,2.343,0,0,0-1.655-.685Zm0,3.492a.478.478,0,1,1,0,.006Zm0-1.747v0a.593.593,0,1,0,.422.174.6.6,0,0,0-.422-.174Z" transform="translate(-47.151 -11.409)" fill="#fff"/>
    <path id="Path_1003" data-name="Path 1003" d="M57.767,46.829a2.9,2.9,0,1,1,2.9-2.9,2.9,2.9,0,0,1-2.9,2.9Zm0-5.239a2.342,2.342,0,1,0,1.655.685,2.343,2.343,0,0,0-1.655-.685Zm0,3.492a.478.478,0,1,1,0,.006Zm0-1.747v0a.593.593,0,1,0,.422.174.6.6,0,0,0-.422-.174Z" transform="translate(-33.497 -11.409)" fill="#fff"/>
    <path id="Path_1004" data-name="Path 1004" d="M31.145,48.007h-.423a.839.839,0,0,1,0-1.678h.423a.839.839,0,0,1,0,1.678Z" transform="translate(-18.251 -14.639)" fill="#fff"/>
    <path id="Path_1005" data-name="Path 1005" d="M14.047,48.007h.422a.839.839,0,1,0,0-1.678h-.422a.839.839,0,1,0,0,1.678Z" transform="translate(-8.076 -14.639)" fill="#fff"/>
    <path id="Path_1006" data-name="Path 1006" d="M23.773,38.281V38.7a.84.84,0,0,1-1.68,0v-.423a.84.84,0,0,1,1.68,0Z" transform="translate(-13.498 -9.217)" fill="#fff"/>
    <path id="Path_1007" data-name="Path 1007" d="M23.773,55.047v-.422a.84.84,0,1,0-1.68,0v.422a.84.84,0,1,0,1.68,0Z" transform="translate(-13.498 -19.189)" fill="#fff"/>
  </g>
</svg>
