<svg xmlns="http://www.w3.org/2000/svg" width="27.93" height="27.93" viewBox="0 0 27.93 27.93">
  <path id="np_government_2814471_000000" d="M24.538,17.113v-.02a1.847,1.847,0,0,0-.951-1.593A2.324,2.324,0,0,0,22.2,13.556a5.127,5.127,0,0,0-3.71-4.647V7.314a.465.465,0,0,0-.466-.466h-.466V5.918h.931a.465.465,0,0,0,.466.466h1.862a.465.465,0,0,0,.466-.466V4.056a.465.465,0,0,0-.466-.466h-1.4a.465.465,0,0,0-.466-.466H17.09a.465.465,0,0,0-.466.466V6.849h-.466a.465.465,0,0,0-.466.466V8.909a5.127,5.127,0,0,0-3.71,4.647,2.329,2.329,0,0,0-1.391,1.938,1.831,1.831,0,0,0-.951,1.584v.036a6.985,6.985,0,0,0-6.517,6.959v5.586a.465.465,0,0,0,.466.466H9.642v.466a.465.465,0,0,0,.466.466H24.072a.465.465,0,0,0,.466-.466v-.466h6.051a.465.465,0,0,0,.466-.466V24.073a6.985,6.985,0,0,0-6.517-6.959ZM19.417,4.521h.931v.931h-.931Zm-1.862-.466h.931v.931h-.931ZM7.78,29.193H5.918V24.538a.931.931,0,0,1,1.862,0Zm1.862,0H8.711V24.538a1.862,1.862,0,1,0-3.724,0v4.655H4.056V24.072a6.06,6.06,0,0,1,5.586-6.034ZM16.625,7.78h.931v.931h-.931Zm.466,1.862a4.193,4.193,0,0,1,4.162,3.724H12.928A4.193,4.193,0,0,1,17.09,9.642ZM12.9,14.3H21.28a1.4,1.4,0,0,1,1.317.931H11.583A1.4,1.4,0,0,1,12.9,14.3Zm5.121,15.827H16.159V24.073a.931.931,0,1,1,1.862,0Zm1.862,0h-.931V24.073a1.862,1.862,0,1,0-3.724,0v6.051H14.3V22.676a1.862,1.862,0,0,1,1.862-1.862h1.862a1.863,1.863,0,0,1,1.862,1.862Zm3.724-12.569V30.124H20.815V22.676a2.8,2.8,0,0,0-2.793-2.793H16.159a2.8,2.8,0,0,0-2.793,2.793v7.448H10.573V17.077a.966.966,0,0,1,1-.918H22.586a.982.982,0,0,1,1.022.934Zm4.655,11.637H26.4V24.538a.931.931,0,0,1,1.862,0Zm1.862,0h-.931V24.538a1.862,1.862,0,1,0-3.724,0v4.655h-.931V18.038a6.06,6.06,0,0,1,5.586,6.034Z" transform="translate(-3.125 -3.125)" fill="#fff"/>
</svg>
