<svg xmlns="http://www.w3.org/2000/svg" width="19.553" height="22.265" viewBox="0 0 19.553 22.265">
  <g id="np_heart_2883561_000000" transform="translate(-8.793 -3.078)">
    <path id="Path_1008" data-name="Path 1008" d="M48.51,6.446a.464.464,0,0,0,.463-.463V3.541a.463.463,0,1,0-.927,0V5.982A.464.464,0,0,0,48.51,6.446Z" transform="translate(-29.941 0)" fill="#fff"/>
    <path id="Path_1009" data-name="Path 1009" d="M78.844,27.609l2.08-1.175a.463.463,0,0,0-.456-.806L78.388,26.8a.463.463,0,0,0,.456.806Z" transform="translate(-52.904 -17.154)" fill="#fff"/>
    <path id="Path_1010" data-name="Path 1010" d="M80.936,66.528l-2.08-1.266a.463.463,0,0,0-.482.791l2.08,1.266a.463.463,0,0,0,.482-.791Z" transform="translate(-52.903 -47.379)" fill="#fff"/>
    <path id="Path_1011" data-name="Path 1011" d="M48.51,82.727a.464.464,0,0,0-.463.463v2.441a.463.463,0,1,0,.927,0V83.19A.464.464,0,0,0,48.51,82.727Z" transform="translate(-29.941 -60.752)" fill="#fff"/>
    <path id="Path_1012" data-name="Path 1012" d="M11.477,65.263,9.4,66.529a.463.463,0,0,0,.482.791l2.08-1.266a.463.463,0,0,0-.482-.791Z" transform="translate(-0.291 -47.38)" fill="#fff"/>
    <path id="Path_1013" data-name="Path 1013" d="M11.947,26.8l-2.08-1.175a.463.463,0,0,0-.456.806l2.08,1.175a.463.463,0,0,0,.456-.806Z" transform="translate(-0.292 -17.151)" fill="#fff"/>
    <path id="Path_1014" data-name="Path 1014" d="M64.9,16.033a.463.463,0,0,0,.41-.246l.723-1.356A.463.463,0,1,0,65.211,14l-.723,1.356a.463.463,0,0,0,.408.681Z" transform="translate(-42.439 -8.14)" fill="#fff"/>
    <path id="Path_1015" data-name="Path 1015" d="M83.113,48.047H81.667a.463.463,0,0,0,0,.927h1.447a.463.463,0,1,0,0-.927Z" transform="translate(-55.231 -34.3)" fill="#fff"/>
    <path id="Path_1016" data-name="Path 1016" d="M65.3,76.862a.463.463,0,1,0-.8.46l.723,1.266a.463.463,0,0,0,.8-.46Z" transform="translate(-42.44 -56.101)" fill="#fff"/>
    <path id="Path_1017" data-name="Path 1017" d="M29.757,76.7a.464.464,0,0,0-.64.139L28.3,78.107a.463.463,0,1,0,.779.5l.814-1.266A.462.462,0,0,0,29.757,76.7Z" transform="translate(-14.825 -56.101)" fill="#fff"/>
    <path id="Path_1018" data-name="Path 1018" d="M9.256,48.974H10.7a.463.463,0,1,0,0-.927H9.256a.463.463,0,1,0,0,.927Z" transform="translate(0 -34.3)" fill="#fff"/>
    <path id="Path_1019" data-name="Path 1019" d="M29.11,15.807a.463.463,0,1,0,.8-.476l-.814-1.356a.463.463,0,0,0-.8.476Z" transform="translate(-14.826 -8.14)" fill="#fff"/>
    <path id="Path_1020" data-name="Path 1020" d="M33.605,29.359a2.978,2.978,0,0,0-2.722,1.557,2.978,2.978,0,0,0-2.722-1.557,3.189,3.189,0,0,0-3.185,3.185c0,2.96,2.864,4.606,5.579,7.321a.464.464,0,0,0,.655,0c2.706-2.706,5.583-4.359,5.583-7.321A3.19,3.19,0,0,0,33.6,29.359Zm-2.722,9.529c-2.56-2.48-4.98-3.971-4.98-6.344a2.261,2.261,0,0,1,2.259-2.259c1.071,0,1.631.434,2.308,1.785a.463.463,0,0,0,.829,0c.676-1.351,1.236-1.785,2.308-1.785a2.262,2.262,0,0,1,2.261,2.259c0,2.372-2.423,3.862-4.983,6.344Z" transform="translate(-12.344 -20.046)" fill="#fff"/>
  </g>
</svg>
