<svg xmlns="http://www.w3.org/2000/svg" width="18.885" height="25.202" viewBox="0 0 18.885 25.202">
  <path id="np_magician_1626222_000000" d="M19.988,34.788a.314.314,0,0,0,.315.315H38.557a.314.314,0,0,0,.315-.315V30.334c0-4.093-2.936-7.422-6.546-7.422h-.088a.313.313,0,0,0-.025-.2.36.36,0,0,0-.042-.053v-1.22s0,0,0-.009a5.444,5.444,0,0,0,2.415-4.522c.372-1.931.161-3.389-.628-4.338a3.01,3.01,0,0,0-2.038-1.048,3.844,3.844,0,0,0-4.461-1.4c-1.909.624-3.748,2.549-3.761,3.049a.319.319,0,0,0,.086.225c.424.446.484,2.059.422,3.175,0,.014,0,.028,0,.042,0,.091-.011.179-.018.263a5.44,5.44,0,0,0,2.479,4.592v1.188a.241.241,0,0,0-.042.052.3.3,0,0,0-.026.2h-.058c-3.611,0-6.548,3.331-6.548,7.425Zm6.561-7.623a.317.317,0,0,0-.259-.136H25.23l1.479-3.485h.015L28.946,33.83a10.012,10.012,0,0,1-3.023-4.659l.66-1.716a.315.315,0,0,0-.034-.291Zm7.113-.21H32.621a.314.314,0,0,0-.294.425l.65,1.737a10.155,10.155,0,0,1-3.086,4.815l2.22-10.388h.14ZM29.4,24.57l1.588,1.218-1.558,7.3L27.86,25.819Zm1.733.537-1.153-.885,1.509-.778Zm-3.423.022-.363-1.679,1.479.775Zm10.534,5.2v4.139H34.8V32.52a.315.315,0,1,0-.629,0v1.953H30.225a10.433,10.433,0,0,0,3.389-5.328.3.3,0,0,0-.016-.165l-.524-1.4h1.057a.315.315,0,0,0,.262-.14.312.312,0,0,0,.029-.295L32.948,23.58c2.972.358,5.3,3.249,5.3,6.754ZM28.335,10.565a3.272,3.272,0,0,1,3.176,1.459.316.316,0,0,0,.251.123h0a2.417,2.417,0,0,1,1.716.837,3.491,3.491,0,0,1,.649,2.352,4.555,4.555,0,0,0-2.484-2.354.315.315,0,0,0-.409.254.658.658,0,0,1-.268.338,3.33,3.33,0,0,1-2.512.182,3.44,3.44,0,0,0-3.61,1.509,4.681,4.681,0,0,0-.468-2.121,7.068,7.068,0,0,1,3.959-2.58Zm-3.524,6.344c0-.045.011-.149.02-.285a3.14,3.14,0,0,1,3.51-2.247,3.984,3.984,0,0,0,2.994-.29,1.411,1.411,0,0,0,.375-.392,4.226,4.226,0,0,1,2.244,3.21,4.574,4.574,0,1,1-9.142,0Zm4.572,5.372a5,5,0,0,0,2.157-.493v.919l-2.146,1.106-2.1-1.1v-.89a4.992,4.992,0,0,0,2.093.461Zm-8.767,8.055c0-3.545,2.376-6.461,5.4-6.767l-1.547,3.649a.315.315,0,0,0,.29.438h1.077l-.53,1.377a.315.315,0,0,0-.016.168,10.262,10.262,0,0,0,3.435,5.273h-4.1V32.52a.315.315,0,1,0-.629,0v1.953H20.617Z" transform="translate(-19.988 -9.901)" fill="#fff"/>
</svg>
