<svg xmlns="http://www.w3.org/2000/svg" width="16.312" height="20.763" viewBox="0 0 16.312 20.763">
  <path id="np_shield_1755654_000000" d="M25.118,8a.718.718,0,0,0-.216.039l-7.415,2.719a.741.741,0,0,0-.487.7v8.156a7.2,7.2,0,0,0,2.634,5.121,45.858,45.858,0,0,0,5.09,3.885.742.742,0,0,0,.865,0,45.874,45.874,0,0,0,5.09-3.885,7.2,7.2,0,0,0,2.634-5.121V11.459a.742.742,0,0,0-.487-.7L25.411,8.037A.74.74,0,0,0,25.118,8Zm.039,1.529,6.673,2.448v7.639a5.741,5.741,0,0,1-2.178,4.047,40.485,40.485,0,0,1-4.5,3.437,40.518,40.518,0,0,1-4.5-3.437,5.742,5.742,0,0,1-2.178-4.047V11.976Z" transform="translate(-17 -7.997)" fill="#fff"/>
</svg>
