<svg xmlns="http://www.w3.org/2000/svg" width="32.717" height="23.669" viewBox="0 0 32.717 23.669">
  <g id="np_computer_2431682_000000" transform="translate(0 -13.75)">
    <path id="Path_1021" data-name="Path 1021" d="M73.891,13.75h-11.3a.567.567,0,0,0-.562.562V36.856a.567.567,0,0,0,.562.562h11.3a.567.567,0,0,0,.562-.562V14.312a.567.567,0,0,0-.562-.562Zm-.562,22.6H63.156V14.874H73.329Z" transform="translate(-41.737)" fill="#fff"/>
    <path id="Path_1022" data-name="Path 1022" d="M69.469,26.5h6.748a.567.567,0,0,0,.562-.562V23.688a.567.567,0,0,0-.562-.562H69.469a.567.567,0,0,0-.562.562v2.249A.567.567,0,0,0,69.469,26.5Zm.562-2.249h5.623v1.125H70.031Z" transform="translate(-46.362 -6.308)" fill="#fff"/>
    <path id="Path_1023" data-name="Path 1023" d="M75.938,41.843a1.687,1.687,0,1,0,1.687-1.687A1.639,1.639,0,0,0,75.938,41.843Zm2.249,0a.562.562,0,1,1-.562-.562A.567.567,0,0,1,78.187,41.843Z" transform="translate(-51.094 -17.767)" fill="#fff"/>
    <path id="Path_1024" data-name="Path 1024" d="M69.469,58.312h6.748a.562.562,0,0,0,0-1.125H69.469a.562.562,0,1,0,0,1.125Z" transform="translate(-46.362 -29.226)" fill="#fff"/>
    <path id="Path_1025" data-name="Path 1025" d="M69.469,66.437h6.748a.562.562,0,0,0,0-1.125H69.469a.562.562,0,0,0,0,1.125Z" transform="translate(-46.362 -34.693)" fill="#fff"/>
    <path id="Path_1026" data-name="Path 1026" d="M69.469,74.562h6.748A.567.567,0,0,0,76.779,74a.525.525,0,0,0-.511-.562h-6.8a.562.562,0,0,0,0,1.125Z" transform="translate(-46.362 -40.159)" fill="#fff"/>
    <path id="Path_1027" data-name="Path 1027" d="M17.432,26.562H1.687A1.7,1.7,0,0,0,0,28.249V38.882a1.7,1.7,0,0,0,1.687,1.687H8.179l-.409,2.1a1.684,1.684,0,0,0-1.585,1.687v1.125a.567.567,0,0,0,.562.562h5.623a.567.567,0,0,0,.562-.562V44.352a1.72,1.72,0,0,0-1.585-1.687l-.409-2.1h6.492a1.7,1.7,0,0,0,1.687-1.687V28.249a1.7,1.7,0,0,0-1.687-1.687ZM1.687,27.687H17.432a.567.567,0,0,1,.562.562V36.07H1.125V28.249a.567.567,0,0,1,.562-.562ZM11.809,44.4v.562H7.31V44.4a.567.567,0,0,1,.562-.562h3.374a.567.567,0,0,1,.562.562Zm-1.585-1.687H8.895l.409-2.1h.511ZM17.432,39.5H1.687a.567.567,0,0,1-.562-.562V37.246h16.87v1.687a.567.567,0,0,1-.562.562Z" transform="translate(0 -8.62)" fill="#fff"/>
    <path id="Path_1028" data-name="Path 1028" d="M27.465,60.625H26.187a.562.562,0,1,0,0,1.125h1.278a.562.562,0,1,0,0-1.125Z" transform="translate(-17.241 -31.539)" fill="#fff"/>
  </g>
</svg>
