<svg xmlns="http://www.w3.org/2000/svg" width="28.443" height="24.455" viewBox="0 0 28.443 24.455">
  <path id="np_legal_1297118_000000" d="M31.6,23.168V23.06a.683.683,0,0,0-.047-.152l-3.635-7.844H28.9a.678.678,0,0,0,0-1.356h-9.82v-2.37a1.694,1.694,0,1,0-3.385,0v2.37H5.869a.678.678,0,0,0,0,1.356h.973L3.224,22.908a.751.751,0,0,0-.047.152v.13h0a4.74,4.74,0,0,0,9.481,0v-.13h0a.626.626,0,0,0-.047-.152L8.96,15.064h6.729V28.61A2.364,2.364,0,0,0,13.5,30.053l-.859,2.1a1.356,1.356,0,0,0,1.265,1.874h6.974a1.356,1.356,0,0,0,1.265-1.874l-.882-2.1a2.366,2.366,0,0,0-2.188-1.46V15.064h6.729l-3.619,7.844a.751.751,0,0,0-.047.152v.13h0a4.74,4.74,0,0,0,9.481,0s-.015-.012-.015-.021ZM7.9,26.577a3.391,3.391,0,0,1-3.318-2.708h6.637A3.391,3.391,0,0,1,7.9,26.577ZM4.9,22.513,7.9,16l3.005,6.51ZM17.044,11.341a.338.338,0,0,1,.676,0v2.37h-.676Zm2.971,19.25.869,2.082h-7l.869-2.082a1.017,1.017,0,0,1,.948-.633h3.375a1.014,1.014,0,0,1,.939.629Zm-2.291-1.978h-.68V15.064h.677ZM26.863,16l3.005,6.51H23.863Zm0,10.575a3.391,3.391,0,0,1-3.318-2.708h6.637a3.391,3.391,0,0,1-3.318,2.708Z" transform="translate(-3.176 -9.571)" fill="#fff"/>
</svg>
