<svg xmlns="http://www.w3.org/2000/svg" width="37.063" height="24.326" viewBox="0 0 37.063 24.326">
  <g id="np_manufacturing_2063207_000000" transform="translate(0 -17.178)">
    <path id="Path_1037" data-name="Path 1037" d="M3.33,34.554h9.99v4.633a.578.578,0,0,0,.579.579h.579v1.158a.579.579,0,0,0,1.158,0V39.766h5.791v1.158a.579.579,0,0,0,1.158,0V39.766h.579a.569.569,0,0,0,.122,0h.029a.612.612,0,0,0,.087-.029l.038-.02.067-.041.038-.029.058-.055.017-.017,2.316-2.9v-.017l.035-.052L26,36.564a.939.939,0,0,0,.038-.107V36.4a.468.468,0,0,0,0-.064V34.554h7.673a3.334,3.334,0,0,0,3.356-3.33v-.29a3.334,3.334,0,0,0-2.316-3.185v-3.04a.578.578,0,0,0-.579-.579H30.692a.579.579,0,0,0-.579.579v2.9H28.955v-2.9a.578.578,0,0,0-.579-.579H26.059V17.76a.491.491,0,0,0,0-.113.066.066,0,0,0-.014-.049A.351.351,0,0,0,26,17.485c0-.014-.014-.029-.023-.043a.556.556,0,0,0-.159-.159l-.046-.026-.058-.029-.058-.017-.061-.029a.491.491,0,0,0-.113,0H16.215a.491.491,0,0,0-.113,0l-.049.014-.058.017-.058.029-.043.023a.614.614,0,0,0-.09.072l-2.316,2.316a.614.614,0,0,0-.072.09s-.014.029-.023.043a.351.351,0,0,0-.046.113.066.066,0,0,1-.014.049.535.535,0,0,0-.012.127V27.6H12.161v-2.9a.578.578,0,0,0-.579-.579H8.107a.579.579,0,0,0-.579.579v2.9H6.37v-2.9a.578.578,0,0,0-.579-.579H2.316a.579.579,0,0,0-.579.579v3.3A3.333,3.333,0,0,0,0,30.934v.29a3.332,3.332,0,0,0,3.33,3.33ZM24.9,36.089l-1.158,1.448V34.554H24.9Zm6.37-10.8h.579v.345a.579.579,0,0,0,1.158,0v-.345h.579V27.6H31.272Zm-.579,3.475h3.04A2.174,2.174,0,0,1,35.9,30.935v.29A2.174,2.174,0,0,1,33.733,33.4h-9.99V28.763Zm-5.212-3.475h.579v.345a.579.579,0,0,0,1.158,0v-.345H27.8V27.6H25.481ZM24.9,24.13a.579.579,0,0,0-.579.579v2.9h-.579V20.317L24.9,19.159Zm-8.446-5.791h7.627L22.924,19.5H15.3ZM14.478,35.423H16.5a.579.579,0,1,0,0-1.158H14.478V32.527H16.5a.579.579,0,1,0,0-1.158H14.478V29.632H16.5a.579.579,0,1,0,0-1.158H14.478V26.736H16.5a.579.579,0,1,0,0-1.158H14.478V23.841H16.5a.579.579,0,0,0,0-1.158H14.478V20.656h8.107V38.608H14.478ZM8.687,25.288h.579v.345a.579.579,0,1,0,1.158,0v-.345H11V27.6H8.687Zm-5.791,0h.579v.345a.579.579,0,1,0,1.158,0v-.345h.579V27.6H2.9ZM1.158,30.935A2.174,2.174,0,0,1,3.33,28.763h9.99V33.4H3.33a2.174,2.174,0,0,1-2.172-2.172Z" fill="#fff"/>
    <path id="Path_1038" data-name="Path 1038" d="M11.98,71.908a.578.578,0,0,0,.579-.579V67.565h1.448a.579.579,0,1,0,0-1.158H9.953a.579.579,0,1,0,0,1.158H11.4v3.764a.578.578,0,0,0,.579.579Z" transform="translate(-5.9 -30.983)" fill="#fff"/>
    <path id="Path_1039" data-name="Path 1039" d="M84.9,66.986a.578.578,0,0,0-.579-.579H80.266a.579.579,0,0,0,0,1.158h1.448v3.764a.579.579,0,1,0,1.158,0V67.565H84.32a.578.578,0,0,0,.579-.579Z" transform="translate(-50.153 -30.983)" fill="#fff"/>
    <path id="Path_1040" data-name="Path 1040" d="M86.112,53.475a1.738,1.738,0,1,0-1.737-1.737A1.738,1.738,0,0,0,86.112,53.475Zm0-2.316a.579.579,0,1,1-.579.579.579.579,0,0,1,.579-.579Z" transform="translate(-53.103 -20.657)" fill="#fff"/>
    <path id="Path_1041" data-name="Path 1041" d="M73.612,53.475a1.738,1.738,0,1,0-1.737-1.737A1.738,1.738,0,0,0,73.612,53.475Zm0-2.316a.579.579,0,1,1-.579.579.579.579,0,0,1,.579-.579Z" transform="translate(-45.236 -20.657)" fill="#fff"/>
    <path id="Path_1042" data-name="Path 1042" d="M20.488,53.475a1.738,1.738,0,1,0-1.737-1.737A1.738,1.738,0,0,0,20.488,53.475Zm0-2.316a.579.579,0,1,1-.579.579.579.579,0,0,1,.579-.579Z" transform="translate(-11.801 -20.657)" fill="#fff"/>
    <path id="Path_1043" data-name="Path 1043" d="M7.988,53.475A1.738,1.738,0,1,0,6.25,51.737,1.738,1.738,0,0,0,7.988,53.475Zm0-2.316a.579.579,0,1,1-.579.579.579.579,0,0,1,.579-.579Z" transform="translate(-3.934 -20.657)" fill="#fff"/>
  </g>
</svg>
