<svg xmlns="http://www.w3.org/2000/svg" width="18.306" height="18.265" viewBox="0 0 18.306 18.265">
  <path id="np_music_699573_000000" d="M20.173,4.293h0L9.932,5.659c-1.4.188-1.6.826-1.62,1.088v10.3a3.064,3.064,0,1,0,1.217,2.44v-7c0-1.027.387-1.276.6-1.334l.138-.019h0l9.473-1.263h0l.021,0c.121-.014.716-.034.716.946v4.61a3.064,3.064,0,1,0,1.217,2.44V5.8a1.453,1.453,0,0,0-1.525-1.5ZM6.461,21.341a1.851,1.851,0,1,1,1.851-1.851A1.853,1.853,0,0,1,6.461,21.341Zm12.171-1.623a1.851,1.851,0,1,1,1.851-1.851A1.853,1.853,0,0,1,18.631,19.718ZM16.5,6.978l-6.243.84h0l-.408.054c-.16-.023-.309-.117-.321-.4a.569.569,0,0,1,.491-.6l.236-.032h0l9.479-1.264c.237-.017.746.031.746.751V7.8s-.048.755-.613.83h0L9.653,9.991a.432.432,0,0,1-.124-.32.564.564,0,0,1,.48-.592l6.5-.875c.106-.017.954-.166.881-.708h0c-.079-.577-.886-.518-.892-.517Z" transform="translate(-3.394 -4.293)" fill="#fff"/>
</svg>
