<svg xmlns="http://www.w3.org/2000/svg" width="28.339" height="22.724" viewBox="0 0 28.339 22.724">
  <g id="np_charity_2380673_000000" transform="translate(-6.055 -14.762)">
    <path id="Path_1044" data-name="Path 1044" d="M47.507,26.1a.63.63,0,0,1-.445-.184c-.617-.616-1.237-1.174-1.819-1.693a.636.636,0,0,1-.189-.3.618.618,0,0,1-.325-.154l-.048-.043a.63.63,0,0,1,.84-.938l.047.042a.618.618,0,0,1,.188.3.63.63,0,0,1,.325.152c.457.408.937.839,1.425,1.306.489-.467.969-.9,1.426-1.307l.2-.178a21.782,21.782,0,0,0,2.358-2.3,3.942,3.942,0,0,0,1.058-2.582,2.2,2.2,0,0,0-2.207-2.193c-1.047,0-1.6.429-2.27,1.77a.63.63,0,0,1-1.126,0c-.673-1.34-1.224-1.77-2.27-1.77a2.2,2.2,0,0,0-2.2,2.193,3.867,3.867,0,0,0,.922,2.416.63.63,0,0,1-1,.767,5.044,5.044,0,0,1-1.184-3.183,3.461,3.461,0,0,1,3.462-3.452,3.172,3.172,0,0,1,2.833,1.5,3.172,3.172,0,0,1,2.833-1.5A3.464,3.464,0,0,1,53.8,18.214a5.193,5.193,0,0,1-1.34,3.38,22.886,22.886,0,0,1-2.5,2.449l-.2.178c-.582.519-1.2,1.077-1.82,1.693a.622.622,0,0,1-.442.184Z" transform="translate(-23.82)" fill="#fff"/>
    <path id="Path_1045" data-name="Path 1045" d="M49.158,65.131c-1.451,0-3.43-.96-4.991-1.8-.081-.043-.15-.081-.2-.108a.63.63,0,0,1,.584-1.116l.214.113c.761.407,3.076,1.647,4.4,1.647.582,0,.642-.217.665-.521a.63.63,0,0,1,1.257.092,1.729,1.729,0,0,1-1.922,1.689Z" transform="translate(-25.456 -32.033)" fill="#fff"/>
    <path id="Path_1046" data-name="Path 1046" d="M34.393,60.663a4.138,4.138,0,0,1-.595-.039,9.342,9.342,0,0,1-3.815-1.545l-.319-.2a.629.629,0,1,1,.656-1.074l.326.2a8.055,8.055,0,0,0,3.34,1.37,2.808,2.808,0,0,0,.406.025,24.542,24.542,0,0,0,6.492-1.438c3.4-1.173,4.286-2.082,4.329-2.307a.536.536,0,0,0,.008-.089c0-.558-.993-1.043-1.661-1.1-.123-.01-.258-.016-.4-.016a16.446,16.446,0,0,0-6.047,1.489.63.63,0,0,1-.8-.93.769.769,0,0,0,.11-.383v-.006c0-.021,0-.043,0-.064,0-.809-1.283-1.9-3.35-2.853a16.378,16.378,0,0,0-5.026-1.481h-.054c-.5,0-1.93.093-2.784.185l.529,5.382a.63.63,0,1,1-1.254.123L23.9,49.935a.63.63,0,0,1,.5-.678,31.3,31.3,0,0,1,3.6-.29h.084a17.345,17.345,0,0,1,5.522,1.6c1.78.82,3.887,2.125,4.071,3.766a17.811,17.811,0,0,1,5.488-1.136c.18,0,.35.006.508.02,1.135.092,2.816.9,2.816,2.353a1.854,1.854,0,0,1-.023.288c-.1.63-.675,1.219-1.8,1.857a21.026,21.026,0,0,1-3.333,1.435,25.86,25.86,0,0,1-6.927,1.515Zm-7.312-2.8A.554.554,0,0,1,27,57.86l-.057-.006a.63.63,0,0,1,.141-1.252l.069.008a.63.63,0,0,1-.076,1.256Z" transform="translate(-12.086 -23.176)" fill="#fff"/>
    <path id="Path_1047" data-name="Path 1047" d="M8.886,58.817a.63.63,0,0,1-.613-.489l-2.2-9.579a.628.628,0,0,1,.566-.768l5.68-.435a.63.63,0,0,1,.675.567l.942,9.579a.629.629,0,0,1-.566.688l-4.421.435-.062,0ZM7.462,49.18l1.913,8.325,3.243-.319-.82-8.338Z" transform="translate(0 -22.212)" fill="#fff"/>
    <path id="Path_1048" data-name="Path 1048" d="M19.693,72.326a.628.628,0,1,1,.446-.184A.637.637,0,0,1,19.693,72.326Z" transform="translate(-8.814 -38.15)" fill="#fff"/>
    <path id="Path_1049" data-name="Path 1049" d="M59.419,29.693a.642.642,0,0,1-.446-.184.631.631,0,1,1,.446.184Z" transform="translate(-35.73 -9.264)" fill="#fff"/>
    <path id="Path_1050" data-name="Path 1050" d="M59.419,35.552a.631.631,0,0,1-.446-1.076.631.631,0,0,1,.89,0,.63.63,0,0,1-.445,1.076Z" transform="translate(-35.73 -13.233)" fill="#fff"/>
  </g>
</svg>
