<svg xmlns="http://www.w3.org/2000/svg" width="18.475" height="28.548" viewBox="0 0 18.475 28.548">
  <g id="np_oil_2786890_000000" transform="translate(-23.126 -8.594)">
    <path id="Path_1051" data-name="Path 1051" d="M46.432,47.044c-.431-.916-.862-1.67-.862-1.724a.606.606,0,0,0-.97,0c0,.054-.431.754-.862,1.724A10.452,10.452,0,0,0,42.5,50.437a1.05,1.05,0,0,0,.054.431,2.576,2.576,0,0,0,5.063,0,1.05,1.05,0,0,0,.054-.431C47.671,50.222,47.671,49.576,46.432,47.044Zm-1.347,4.9a1.5,1.5,0,0,1-1.454-1.239v-.215a8.919,8.919,0,0,1,1.131-2.909c.108-.269.269-.539.377-.754.108.215.269.485.377.754a10.8,10.8,0,0,1,1.131,2.909v.215A1.718,1.718,0,0,1,45.085,51.946Z" transform="translate(-12.695 -23.907)" fill="#fff"/>
    <path id="Path_1052" data-name="Path 1052" d="M38.285,27.575a2.73,2.73,0,0,0-1.777-.7H32.414a2.162,2.162,0,0,0-2.1,2.208V44.058a2.163,2.163,0,0,0,2.1,2.208h9.48a2.162,2.162,0,0,0,2.1-2.208V33.823a2.363,2.363,0,0,0-.7-1.67Zm4.578,16.536a1.085,1.085,0,0,1-1.023,1.131H32.36a1.083,1.083,0,0,1-1.023-1.131V29.083a1.085,1.085,0,0,1,1.023-1.131h4.094a1.711,1.711,0,0,1,1.077.431l4.955,4.578a1.271,1.271,0,0,1,.377.862Z" transform="translate(-4.709 -11.979)" fill="#fff"/>
    <path id="Path_1053" data-name="Path 1053" d="M39.177,12.095H30.883v-.754h.646a.509.509,0,0,0,.539-.539V9.132a.509.509,0,0,0-.539-.539H25.658a.509.509,0,0,0-.539.539V10.8a.509.509,0,0,0,.539.539H26.3v.754h-.862a2.358,2.358,0,0,0-2.316,2.424v20.2a2.358,2.358,0,0,0,2.316,2.424H39.285A2.358,2.358,0,0,0,41.6,34.718V14.627A2.473,2.473,0,0,0,39.178,12.1ZM26.2,9.671H30.99v.593H26.2Zm14.328,4.956v3.986l-1.023-.97V15.865a1.623,1.623,0,0,0-1.562-1.67H35.73L34.6,13.172h4.578a1.394,1.394,0,0,1,1.347,1.454Zm-2.1,2.047-1.562-1.4h1.023a.548.548,0,0,1,.485.593v.808ZM27.381,11.341h2.424v.754H27.381ZM40.524,34.718a1.279,1.279,0,0,1-1.239,1.347H25.442A1.315,1.315,0,0,1,24.2,34.718v-20.2a1.279,1.279,0,0,1,1.239-1.347h6.895a1.55,1.55,0,0,1,1.131.485l6.625,6.087a1.472,1.472,0,0,1,.431,1.023Z" fill="#fff"/>
  </g>
</svg>
