<svg xmlns="http://www.w3.org/2000/svg" width="14.539" height="4.316" viewBox="0 0 14.539 4.316">
  <g id="np_other_2821239_000000" transform="translate(-2.5 -35.898)">
    <path id="Path_1143" data-name="Path 1143" d="M38.056,35.9a2.158,2.158,0,1,0,2.158,2.158A2.156,2.156,0,0,0,38.056,35.9Zm0,3.367a1.209,1.209,0,1,1,1.194-1.209A1.2,1.2,0,0,1,38.056,39.265Z" transform="translate(-28.287)" fill="#fff"/>
    <path id="Path_1144" data-name="Path 1144" d="M4.658,35.9a2.158,2.158,0,1,0,2.158,2.158A2.156,2.156,0,0,0,4.658,35.9Zm0,3.367a1.209,1.209,0,1,1,1.194-1.209A1.2,1.2,0,0,1,4.658,39.265Z" fill="#fff"/>
    <path id="Path_1145" data-name="Path 1145" d="M71.454,35.9a2.158,2.158,0,1,0,2.158,2.158A2.156,2.156,0,0,0,71.454,35.9Zm0,3.367a1.209,1.209,0,1,1,0-2.418,1.209,1.209,0,0,1,0,2.418Z" transform="translate(-56.573)" fill="#fff"/>
  </g>
</svg>
