<svg xmlns="http://www.w3.org/2000/svg" width="19.302" height="23.455" viewBox="0 0 19.302 23.455">
  <path id="np_medicine_1635303_000000" d="M30.894,24.723H28.241V16.678a3.03,3.03,0,0,0-1.13-1.906l-1.682-1.308v-.732a1.637,1.637,0,0,0,1.028-1.515V7.81A1.637,1.637,0,0,0,24.82,6.175H17.486A1.637,1.637,0,0,0,15.851,7.81v3.407a1.635,1.635,0,0,0,1.027,1.515v.732l-1.7,1.319a3.027,3.027,0,0,0-1.117,1.9v1.087a.419.419,0,0,0-.017.08.493.493,0,0,0,.017.08l0,6.76c0,.006,0,.011,0,.019s0,.011,0,.019v.336a3.553,3.553,0,0,0,.7,2.552,2.778,2.778,0,0,0,2.192.875H25.6a2.447,2.447,0,0,0,2.069,1.146H30.9a2.453,2.453,0,1,0,0-4.907Zm-7.886-6.388h4.236V24.22H23.008l-1-.017H15.058v-5.86H22.01m-5.163-7.127V7.81a.639.639,0,0,1,.638-.637h7.334a.639.639,0,0,1,.638.637v3.407a.639.639,0,0,1-.638.637H17.486a.639.639,0,0,1-.638-.638Zm-1.789,5.461a2.082,2.082,0,0,1,.746-1.119L17.681,14.1a.5.5,0,0,0,.193-.393v-.856H24.43v.856a.5.5,0,0,0,.193.393l1.861,1.448c.238.2.758.759.758,1.129v.667H15.059v-.668Zm10.152,10.5a2.521,2.521,0,0,0,.031.309H16.957a1.835,1.835,0,0,1-1.44-.533,2.53,2.53,0,0,1-.466-1.752h4.887v.008h6.272a2.442,2.442,0,0,0-1,1.967Zm3.569,1.455H27.665a1.456,1.456,0,1,1,0-2.911H28.78Zm2.114,0H29.778V25.72h1.116a1.456,1.456,0,0,1,0,2.911Z" transform="translate(-14.047 -6.175)" fill="#fff"/>
</svg>
