<svg xmlns="http://www.w3.org/2000/svg" width="22.666" height="21.446" viewBox="0 0 22.666 21.446">
  <g id="np_radio_639386_000000" transform="translate(-8.801 -9.403)">
    <path id="Path_1054" data-name="Path 1054" d="M23.272,49.447a4.073,4.073,0,1,1,4.046-4.073A4.079,4.079,0,0,1,23.272,49.447Zm0-6.428a2.355,2.355,0,1,0,2.355,2.355A2.354,2.354,0,0,0,23.272,43.019Z" transform="translate(-7.517 -23.06)" fill="#fff"/>
    <path id="Path_1055" data-name="Path 1055" d="M60.53,45.508H54.9a.8.8,0,1,1,0-1.606H60.53a.8.8,0,0,1,0,1.606Z" transform="translate(-32.748 -24.94)" fill="#fff"/>
    <path id="Path_1056" data-name="Path 1056" d="M60.53,54.707H54.9a.8.8,0,0,1,0-1.606H60.53a.8.8,0,0,1,0,1.606Z" transform="translate(-32.748 -31.59)" fill="#fff"/>
    <path id="Path_1057" data-name="Path 1057" d="M60.53,63.911H54.9a.8.8,0,0,1,0-1.606H60.53a.8.8,0,0,1,0,1.606Z" transform="translate(-32.748 -38.244)" fill="#fff"/>
    <path id="Path_1058" data-name="Path 1058" d="M28.7,15.055h-.582V10.206a.8.8,0,1,0-1.606,0v4.849H11.544A2.749,2.749,0,0,0,8.8,17.8v9.033a2.752,2.752,0,0,0,1.94,2.632v.582a.8.8,0,0,0,1.606,0v-.471H27.919v.471a.8.8,0,0,0,1.606,0v-.582a2.779,2.779,0,0,0,1.94-2.632l0-9.005A2.816,2.816,0,0,0,28.7,15.055Zm1.08,11.776a1.081,1.081,0,0,1-1.08,1.08H11.544a1.081,1.081,0,0,1-1.08-1.08V17.826a1.081,1.081,0,0,1,1.08-1.08H28.695a1.081,1.081,0,0,1,1.08,1.08Z" fill="#fff"/>
  </g>
</svg>
