<svg xmlns="http://www.w3.org/2000/svg" width="26.207" height="24.602" viewBox="0 0 26.207 24.602">
  <g id="np_real-estate_1183838_000000" transform="translate(-1 -3.999)">
    <path id="Path_1059" data-name="Path 1059" d="M54.965,49.16,48.9,54a.669.669,0,1,0,.835,1.046l.482-.385V60.9a.667.667,0,0,0,.665.674h9a.669.669,0,0,0,.669-.669V54.658l.482.385h0A.669.669,0,0,0,61.861,54L55.8,49.159a.67.67,0,0,0-.835,0Zm1.289,11.082H54.511v-2.6h1.743Zm2.955,0H57.591V56.969a.667.667,0,0,0-.669-.669H53.842a.668.668,0,0,0-.669.669v3.273h-1.62V53.591l3.828-3.053,3.827,3.053Z" transform="translate(-34.907 -32.978)" fill="#fff"/>
    <path id="Path_1060" data-name="Path 1060" d="M1.668,26.919H13.21a.669.669,0,1,0,0-1.337H2.337V23.068a2.463,2.463,0,0,1,1.486-2.261l5.235-2.263h0a.667.667,0,0,0,.4-.612V16.091a1.031,1.031,0,0,0-.2-.614,4.833,4.833,0,0,1-.826-2.233.668.668,0,0,0-.281-.471,1.8,1.8,0,0,1-.775-1.478.307.307,0,0,1,.1-.228.322.322,0,0,1,.235-.091.66.66,0,0,0,.487-.185.671.671,0,0,0,.209-.475l.019-1.733a2.993,2.993,0,0,1,.2-1.107,3.288,3.288,0,0,1,2.818-2.139h.267v.535a.669.669,0,0,0,.6.665,3.044,3.044,0,0,1,2.059,1.3,1.666,1.666,0,0,1,.321.974v1.5a.67.67,0,0,0,.669.669.327.327,0,0,1,.228.1.314.314,0,0,1,.091.221,1.809,1.809,0,0,1-.746,1.457.669.669,0,0,0-.267.466,4.814,4.814,0,0,1-.857,2.292,1.048,1.048,0,0,0-.211.626v1.819a.669.669,0,0,0,1.337,0V16.238a6.1,6.1,0,0,0,1.025-2.592,3.15,3.15,0,0,0,1.07-2.35,1.656,1.656,0,0,0-.99-1.514v-.97a2.969,2.969,0,0,0-.566-1.759,4.547,4.547,0,0,0-2.407-1.741V4.673A.669.669,0,0,0,12.373,4h-.929A4.591,4.591,0,0,0,7.388,6.978a4.327,4.327,0,0,0-.305,1.6v1.2a1.679,1.679,0,0,0-.535.343,1.639,1.639,0,0,0-.506,1.19A3.145,3.145,0,0,0,7.15,13.684a6,6,0,0,0,.982,2.506v1.3L3.293,19.579A3.8,3.8,0,0,0,1,23.068v3.183a.669.669,0,0,0,.669.669Z" transform="translate(0 0)" fill="#fff"/>
  </g>
</svg>
