<svg xmlns="http://www.w3.org/2000/svg" width="25.033" height="22.771" viewBox="0 0 25.033 22.771">
  <path id="np_clothing_1195462_000000" d="M12.538,10a.576.576,0,0,0-.427.2L6.161,16.929a.591.591,0,0,0,.036.792l3.336,3.122a.594.594,0,0,0,.845-.08L11.729,18.9V32.2a.592.592,0,0,0,.569.569H24.786a.592.592,0,0,0,.569-.569V18.9l1.352,1.859a.594.594,0,0,0,.845.08l3.336-3.122a.591.591,0,0,0,.036-.792L24.973,10.2a.576.576,0,0,0-.427-.2H12.538Zm.258,1.139h2.5v.071a3.247,3.247,0,1,0,6.493,0v-.071h2.5L29.7,17.267,27.25,19.58l-2-2.757a.569.569,0,0,0-1.032.338v3.487H12.867V17.16a.569.569,0,0,0-1.032-.338l-2,2.757L7.379,17.267Zm3.638,0H20.65v.071a2.108,2.108,0,1,1-4.216,0ZM12.867,21.786h11.35v1.361H12.867Zm0,2.5h11.35v7.347H12.867Z" transform="translate(-6.026 -10)" fill="#fff"/>
</svg>
