<svg xmlns="http://www.w3.org/2000/svg" width="20.892" height="20.906" viewBox="0 0 20.892 20.906">
  <path id="np_sport_1644834_000000" d="M12.15,8.457a.413.413,0,0,1,.079-.046,10.426,10.426,0,1,1-.079.046Zm7.633-.2a9.456,9.456,0,0,0-6.684.779L15.83,13.7a9.444,9.444,0,0,0,3.953-5.447Zm5.616,4a9.438,9.438,0,0,0-4.693-3.713,10.414,10.414,0,0,1-4.388,6l1.322,2.258ZM26.825,19a9.429,9.429,0,0,0-.939-5.909l-7.759,4.539,1.322,2.256A10.405,10.405,0,0,1,26.825,19Zm-4.159,6.39a9.444,9.444,0,0,0,3.953-5.447,9.467,9.467,0,0,0-6.684.779Zm-7.517,1.266a9.444,9.444,0,0,0,6.684-.779L19.1,21.2a9.458,9.458,0,0,0-3.953,5.447Zm-5.614-4a9.426,9.426,0,0,0,4.691,3.713,10.429,10.429,0,0,1,4.39-6l-1.322-2.258ZM8.109,15.911a9.435,9.435,0,0,0,.937,5.91l7.761-4.542-1.322-2.256a10.4,10.4,0,0,1-7.377.888Zm4.157-6.39a9.461,9.461,0,0,0-3.953,5.447A9.466,9.466,0,0,0,15,14.189Z" transform="translate(-7.031 -7.001)" fill="#fff"/>
</svg>
