<svg xmlns="http://www.w3.org/2000/svg" width="26.591" height="25.316" viewBox="0 0 26.591 25.316">
  <g id="np_furniture_1923016_000000" transform="translate(-18.699 -20.199)">
    <path id="Path_1075" data-name="Path 1075" d="M44.653,25.977a.653.653,0,0,0,.637-.637V23.725A3.517,3.517,0,0,0,41.764,20.2H22.225A3.517,3.517,0,0,0,18.7,23.725V27.08a.637.637,0,0,0,1.274,0V23.725a2.267,2.267,0,0,1,2.252-2.252h9.132V41.182l-5.99,0H22.225a2.267,2.267,0,0,1-2.252-2.252V34.3a.637.637,0,1,0-1.274,0v4.588a3.517,3.517,0,0,0,3.526,3.526h.806v2.464a.653.653,0,0,0,.637.637h1.7A.653.653,0,0,0,26,44.879V42.415H38.026v2.464a.653.653,0,0,0,.637.637h1.7A.653.653,0,0,0,41,44.879V42.415h.765a3.517,3.517,0,0,0,3.526-3.526V28.354a.637.637,0,0,0-1.274,0V38.93a2.267,2.267,0,0,1-2.252,2.252H38.621l-5.99,0V21.432h9.132a2.267,2.267,0,0,1,2.252,2.252V25.3a.662.662,0,0,0,.637.679ZM24.731,44.283h-.425V42.456h.425Zm14.953-1.868v1.827h-.425V42.415Z" fill="#fff"/>
    <path id="Path_1076" data-name="Path 1076" d="M19.336,44.258a.653.653,0,0,0,.637-.637V41.54a.637.637,0,1,0-1.274,0V43.62A.653.653,0,0,0,19.336,44.258Z" transform="translate(0 -11.909)" fill="#fff"/>
    <path id="Path_1077" data-name="Path 1077" d="M54.7,45.739v2.93a.637.637,0,0,0,1.274,0v-2.93a.653.653,0,0,0-.637-.637A.625.625,0,0,0,54.7,45.739Z" transform="translate(-20.709 -14.325)" fill="#fff"/>
    <path id="Path_1078" data-name="Path 1078" d="M43.575,48.567v-2.93a.637.637,0,1,0-1.274,0v2.93a.653.653,0,0,0,.637.637A.625.625,0,0,0,43.575,48.567Z" transform="translate(-13.577 -14.266)" fill="#fff"/>
  </g>
</svg>
