<svg xmlns="http://www.w3.org/2000/svg" width="25.187" height="17.724" viewBox="0 0 25.187 17.724">
  <g id="np_hand-truck_1704488_000000" transform="translate(-4.688 -26.562)">
    <path id="Path_1081" data-name="Path 1081" d="M24.294,42.421H14a1.7,1.7,0,0,1,.016.233,1.633,1.633,0,1,1-3.265,0,1.7,1.7,0,0,1,.016-.233H8.419V27.962H5.387a.7.7,0,1,1,0-1.4H9.819V41.022H29.175a.7.7,0,1,1,0,1.4H27.527a1.7,1.7,0,0,1,.016.233,1.633,1.633,0,1,1-3.265,0,1.7,1.7,0,0,1,.016-.233Z" fill="#fff" fill-rule="evenodd"/>
    <path id="Path_1082" data-name="Path 1082" d="M26.4,41.978H41.325V32.649H26.4ZM25.933,31.25H41.792a.933.933,0,0,1,.933.933V43.377H25V32.183a.933.933,0,0,1,.933-.933Zm6.53,1.4v2.332h2.8V32.649Zm-1.4-1.4h5.6v4.664a.466.466,0,0,1-.466.466H31.53a.466.466,0,0,1-.466-.466Z" transform="translate(-14.249 -3.288)" fill="#fff"/>
  </g>
</svg>
