<svg xmlns="http://www.w3.org/2000/svg" width="16.724" height="16.724" viewBox="0 0 16.724 16.724">
  <g id="np_tag_503389_000000" transform="translate(-12.625 -12.625)">
    <path id="Path_1079" data-name="Path 1079" d="M29.145,22.223l-9.393-9.393a.7.7,0,0,0-.495-.2H13.324a.7.7,0,0,0-.7.7v5.933a.7.7,0,0,0,.2.495l9.393,9.393a.7.7,0,0,0,.989,0l5.933-5.933a.7.7,0,0,0,0-.989Zm-6.427,5.439-8.694-8.694V14.023h4.944l8.694,8.694Z" fill="#fff"/>
    <path id="Path_1080" data-name="Path 1080" d="M27.281,26.581a.7.7,0,1,1-1.4,0,.7.7,0,1,1,1.4,0" transform="translate(-10.292 -10.291)" fill="#fff"/>
  </g>
</svg>
