<svg xmlns="http://www.w3.org/2000/svg" width="27.633" height="27.633" viewBox="0 0 27.633 27.633">
  <g id="np_electronics_2072476_000000" transform="translate(-3.125 -3.125)">
    <path id="Path_1061" data-name="Path 1061" d="M65.559,3.125H53.585a.46.46,0,0,0-.461.461V29.376a.46.46,0,0,0,.461.461h.461v.921h.921v-.921h9.211v.921H65.1v-.921h.461a.46.46,0,0,0,.461-.461V3.586a.46.46,0,0,0-.461-.461ZM65.1,28.916H54.046V12.8H65.1Zm0-17.04H54.046V4.046H65.1Z" transform="translate(-35.262 0)" fill="#fff"/>
    <path id="Path_1062" data-name="Path 1062" d="M60.938,14.062h.921v4.605h-.921Z" transform="translate(-40.773 -7.713)" fill="#fff"/>
    <path id="Path_1063" data-name="Path 1063" d="M60.938,39.062h.921V45.51h-.921Z" transform="translate(-40.773 -25.345)" fill="#fff"/>
    <path id="Path_1064" data-name="Path 1064" d="M3.586,52.977h.461V53.9h.921v-.921H15.1V53.9h.921v-.921h.461a.46.46,0,0,0,.461-.461V36.4a.46.46,0,0,0-.461-.461H3.586a.46.46,0,0,0-.461.461V52.517a.46.46,0,0,0,.461.461Zm.461-16.119H16.02v2.763H4.046Zm0,3.684H16.02V52.056H4.046Z" transform="translate(0 -23.141)" fill="#fff"/>
    <path id="Path_1065" data-name="Path 1065" d="M14.441,53.125a5.071,5.071,0,1,0,3.581,1.485,5.066,5.066,0,0,0-3.581-1.485Zm0,9.211a4.145,4.145,0,1,1,2.584-7.38l-.654.656a3.231,3.231,0,1,0-.008,5.154l.662.662h0a4.117,4.117,0,0,1-2.584.907ZM15.5,59.9l.208.208a2.3,2.3,0,1,1,0-3.834l-.211.211a.461.461,0,0,0-.135.326v2.763a.461.461,0,0,0,.135.326Zm2.18.875-1.393-1.392V57l1.393-1.393a4.125,4.125,0,0,1,0,5.167Z" transform="translate(-4.408 -35.262)" fill="#fff"/>
    <path id="Path_1066" data-name="Path 1066" d="M9.375,42.188H10.3v.921H9.375Z" transform="translate(-4.408 -27.549)" fill="#fff"/>
    <path id="Path_1067" data-name="Path 1067" d="M15.625,42.188h.921v.921h-.921Z" transform="translate(-8.816 -27.549)" fill="#fff"/>
    <path id="Path_1068" data-name="Path 1068" d="M21.875,42.188H22.8v.921h-.921Z" transform="translate(-13.223 -27.549)" fill="#fff"/>
    <path id="Path_1069" data-name="Path 1069" d="M34.375,42.188h2.763v.921H34.375Z" transform="translate(-22.039 -27.549)" fill="#fff"/>
    <path id="Path_1070" data-name="Path 1070" d="M3.586,11.875h12.9a.46.46,0,0,0,.461-.461V3.585a.46.46,0,0,0-.461-.461H3.586a.46.46,0,0,0-.461.461v7.829a.46.46,0,0,0,.461.461Zm9.671-7.829H16.02v6.908H13.257Zm-9.211,0h8.29v6.908H4.046Z" fill="#fff"/>
    <path id="Path_1071" data-name="Path 1071" d="M40.625,9.375h.921V10.3h-.921Z" transform="translate(-26.447 -4.408)" fill="#fff"/>
    <path id="Path_1072" data-name="Path 1072" d="M40.625,15.625h.921v.921h-.921Z" transform="translate(-26.447 -8.816)" fill="#fff"/>
    <path id="Path_1073" data-name="Path 1073" d="M15.363,9.375H9.836a.46.46,0,0,0-.461.461V13.98a.46.46,0,0,0,.461.461h5.527a.46.46,0,0,0,.461-.461V9.836a.46.46,0,0,0-.461-.461ZM14.9,13.52H10.3V10.3H14.9Z" transform="translate(-4.408 -4.408)" fill="#fff"/>
    <path id="Path_1074" data-name="Path 1074" d="M40.535,22.656a.691.691,0,1,0,.691.691.69.69,0,0,0-.691-.691Zm0,.921a.231.231,0,0,1-.213-.142.231.231,0,0,1,.3-.3.231.231,0,0,1,.142.213.232.232,0,0,1-.23.23Z" transform="translate(-25.897 -13.774)" fill="#fff"/>
  </g>
</svg>
