<svg xmlns="http://www.w3.org/2000/svg" width="16.585" height="14.463" viewBox="0 0 16.585 14.463">
  <g id="np_race-helmet_1888494_000000" transform="translate(-1.638 -7.821)">
    <path id="Path_1123" data-name="Path 1123" d="M13.673,8.461a8.129,8.129,0,0,0-3.182-.64,8.565,8.565,0,0,0-6.776,3.324.313.313,0,0,0-.081.076,8.168,8.168,0,0,0-.7,1.146,12.467,12.467,0,0,0-1.092,3.293,12.162,12.162,0,0,0-.183,1.463l-.006.1c0,.023,0,.046,0,.068,0,.069-.006.138-.008.206a6.154,6.154,0,0,0,1.475,4.69.312.312,0,0,0,.223.094H14.29a.312.312,0,0,0,.216-.086,21.908,21.908,0,0,0,2.9-3.651,7.274,7.274,0,0,0,.374-5.837,7.349,7.349,0,0,0-4.108-4.248Zm-3.146,3.256a2.6,2.6,0,0,1,1.874.791,2.714,2.714,0,0,1,.769,1.907v.013a2.267,2.267,0,0,1-.786,1.738,4.508,4.508,0,0,1-1.945.95l-.818.167.763-5.566Zm-1.553,5.7L2.314,18.768a9.8,9.8,0,0,1,.028-2.257c0-.013,0-.026,0-.04,0-.034.009-.068.013-.1a11.937,11.937,0,0,1,1.13-3.7,7.293,7.293,0,0,1,.576-.953H9.755Zm7.877.851a21.38,21.38,0,0,1-2.688,3.4H3.476a4.68,4.68,0,0,1-1.069-2.275l6.855-1.394a.318.318,0,0,0,.1-.021l1.2-.245.012,0c2.041-.5,3.212-1.7,3.212-3.295v-.013a3.336,3.336,0,0,0-.946-2.342,3.218,3.218,0,0,0-2.321-.979H4.562A7.957,7.957,0,0,1,10.49,8.444a7.513,7.513,0,0,1,2.94.591,6.733,6.733,0,0,1,3.766,3.889,6.656,6.656,0,0,1-.345,5.341Z" fill="#fff"/>
    <path id="Path_1124" data-name="Path 1124" d="M54.579,42.455a.852.852,0,1,0-.853-.852.853.853,0,0,0,.853.852Zm0-1.082a.229.229,0,1,1-.229.229A.229.229,0,0,1,54.579,41.373Z" transform="translate(-43.159 -27.284)" fill="#fff"/>
  </g>
</svg>
