<svg xmlns="http://www.w3.org/2000/svg" width="13.934" height="13.852" viewBox="0 0 13.934 13.852">
  <g id="np_tech_1620592_000000" transform="translate(-20 -20.175)">
    <path id="Path_1125" data-name="Path 1125" d="M21.018,21.711a.423.423,0,1,1-.423.42.423.423,0,0,1,.423-.42Zm0,1.3a.866.866,0,0,0,.464-.13c.481.335,2.108,1.5,2.371,1.658a1.452,1.452,0,0,0,.74.29c.146,0,.464.014.959.014h0a.649.649,0,1,0-.056-.432c-.451,0-.757,0-.887-.014a.888.888,0,0,1-.531-.211c-.232-.146-1.774-1.251-2.3-1.625a.936.936,0,0,0,.109-.4.859.859,0,1,0-1.718,0,.835.835,0,0,0,.847.845Z" transform="translate(-0.132 -0.864)" fill="#fff"/>
    <path id="Path_1126" data-name="Path 1126" d="M20.686,41.769a.423.423,0,1,1,.423.423.414.414,0,0,1-.423-.423Zm1.251.219H23.21a.629.629,0,0,0,.6.423.641.641,0,0,0,0-1.28.63.63,0,0,0-.6.421H21.938a.873.873,0,0,0-.829-.641.859.859,0,0,0-.859.859.868.868,0,0,0,.859.859A.817.817,0,0,0,21.938,41.987Z" transform="translate(-0.192 -15.921)" fill="#fff"/>
    <path id="Path_1127" data-name="Path 1127" d="M25.638,48.473a.422.422,0,1,1-.422.423.422.422,0,0,1,.422-.423Zm0,1.3a.859.859,0,0,0,.829-.64h.256a.633.633,0,0,0,.6.423.641.641,0,0,0,0-1.28.629.629,0,0,0-.6.42h-.256a.872.872,0,0,0-.829-.64.859.859,0,0,0,0,1.716Z" transform="translate(-3.704 -21.404)" fill="#fff"/>
    <path id="Path_1128" data-name="Path 1128" d="M20.859,60.615a.422.422,0,1,1,.423-.422.412.412,0,0,1-.423.422Zm.246-1.251v-1.5c0-.683.232-.829.625-.829.481,0,1.017,0,1.251.014h0a.634.634,0,0,0,.61.423.641.641,0,1,0,0-1.28.629.629,0,0,0-.6.418c-.246,0-.784-.014-1.251-.014-1.077,0-1.077.945-1.077,1.265v1.484h0a.873.873,0,0,0-.667.845.859.859,0,0,0,.859.859.868.868,0,0,0,.859-.859.831.831,0,0,0-.612-.827Z" transform="translate(0 -27.657)" fill="#fff"/>
    <path id="Path_1129" data-name="Path 1129" d="M63.814,60.609a.422.422,0,1,1,.423-.422.422.422,0,0,1-.423.422ZM64,59.344V57.86c0-.3,0-1.265-1.061-1.265-.481,0-1.017,0-1.251.014h0a.629.629,0,0,0-.6-.423.641.641,0,1,0,0,1.279.663.663,0,0,0,.618-.418c.246,0,.784-.014,1.251-.014.374,0,.606.13.606.826v1.5a.853.853,0,1,0,.423-.016Z" transform="translate(-31.032 -27.651)" fill="#fff"/>
    <path id="Path_1130" data-name="Path 1130" d="M63.571,20.991a.364.364,0,1,1,.366.365A.369.369,0,0,1,63.571,20.991Zm-2.05,5.5a.642.642,0,0,0,.56-.351h1.061c.989,0,.989-.873.989-1.161V21.759a.783.783,0,1,0-.413,0v3.227c0,.61-.19.726-.552.726h-1a.639.639,0,0,0-1.266.13.612.612,0,0,0,.625.646Z" transform="translate(-31.401)" fill="#fff"/>
    <path id="Path_1131" data-name="Path 1131" d="M64.316,48.679a.423.423,0,1,1-.423.423.414.414,0,0,1,.423-.423ZM61.3,49.74a.628.628,0,0,0,.61-.423H63.48a.873.873,0,0,0,.829.641.859.859,0,1,0-.836-1.077H61.908a.629.629,0,0,0-.6-.423.645.645,0,0,0-.64.641.632.632,0,0,0,.633.64Z" transform="translate(-31.229 -21.55)" fill="#fff"/>
    <path id="Path_1132" data-name="Path 1132" d="M41.4,39.98h2.354a.985.985,0,0,1,.917.917v3.722a.917.917,0,0,1-.917.917H41.4a.985.985,0,0,1-.917-.917V40.9A.917.917,0,0,1,41.4,39.98Z" transform="translate(-15.726 -15.207)" fill="#fff"/>
    <path id="Path_1133" data-name="Path 1133" d="M37.594,23.015a.423.423,0,1,1-.423.423.432.432,0,0,1,.423-.423Zm0,1.3h0a.86.86,0,0,0,.817-.628h1.454a.616.616,0,0,1,.365.058c.061.058.072.1.072.29,0,.262,0,.61-.014.887h0a.643.643,0,1,0,.423-.014c0-.277.014-.61.014-.873h0a.769.769,0,0,0-.19-.6.853.853,0,0,0-.668-.174h-1.44a.861.861,0,1,0-.831,1.042Z" transform="translate(-12.84 -1.848)" fill="#fff"/>
    <path id="Path_1134" data-name="Path 1134" d="M30.666,68.363a.422.422,0,1,1-.423-.423.414.414,0,0,1,.423.423ZM33.174,66a.628.628,0,0,0-.58.372H30.968c-.3,0-.945,0-.945.859v.29a.854.854,0,0,0,.2,1.688.868.868,0,0,0,.859-.859.858.858,0,0,0-.624-.829c0-.086-.014-.19-.014-.29,0-.393.13-.423.509-.423h1.584a.626.626,0,0,0,.611.464.645.645,0,0,0,.64-.641A.624.624,0,0,0,33.174,66Z" transform="translate(-7.184 -35.186)" fill="#fff"/>
    <path id="Path_1135" data-name="Path 1135" d="M53.269,68.785a.422.422,0,0,1-.423-.423.434.434,0,0,1,.423-.436.422.422,0,0,1,.423.423A.435.435,0,0,1,53.269,68.785Zm.2-1.265v-.293c0-.859-.641-.859-.945-.859h-.887a.62.62,0,0,0-.58-.369.641.641,0,1,0,.61.815h.859c.378,0,.509.028.509.423h0a1.938,1.938,0,0,1-.014.29.859.859,0,1,0,1.091.829.828.828,0,0,0-.643-.835Z" transform="translate(-23.354 -35.186)" fill="#fff"/>
  </g>
</svg>
