<svg xmlns="http://www.w3.org/2000/svg" width="18.197" height="11.775" viewBox="0 0 18.197 11.775">
  <g id="np_sim-card_679415_000000" transform="translate(0 -17.649)">
    <path id="Path_1136" data-name="Path 1136" d="M12.309,29.423H.535A.535.535,0,0,1,0,28.888v-10.7a.535.535,0,0,1,.535-.535H17.661a.535.535,0,0,1,.535.535v5.352a2.452,2.452,0,0,1-.653,1.67l-3.436,3.65h0a2.91,2.91,0,0,1-1.8.567ZM1.07,28.352H12.309a1.922,1.922,0,0,0,1.07-.246l3.447-3.661h0a1.41,1.41,0,0,0,.3-.91V18.72H1.07Z" fill="#fff"/>
    <path id="Path_1137" data-name="Path 1137" d="M18.723,36.9H12.3a.536.536,0,0,1-.535-.535V29.945a.536.536,0,0,1,.535-.535h6.422a.536.536,0,0,1,.535.535v6.423a.536.536,0,0,1-.535.535Zm-5.887-1.07h5.352V30.481H12.836Z" transform="translate(-9.625 -9.621)" fill="#fff"/>
  </g>
</svg>
