<svg xmlns="http://www.w3.org/2000/svg" width="24.695" height="12.316" viewBox="0 0 24.695 12.316">
  <path id="np_airplane_1158206_000000" d="M18.6,28.18a.865.865,0,0,0-.873.758l-.076.534h-.815a.441.441,0,1,0,0,.882h.687L17.3,31.94a3.845,3.845,0,0,0-1.056.618H13.747a.441.441,0,1,0,0,.882h1.7a4.614,4.614,0,0,0-.734,1.764H7.258A1.008,1.008,0,0,0,6.25,36.212a1.757,1.757,0,0,0,1.589,1.755l2.585.259a1.507,1.507,0,0,0-.205.726,1.543,1.543,0,1,0,3.087,0,1.562,1.562,0,0,0-.071-.446l2.2.22a3.7,3.7,0,0,0,6.315,0l2.2-.22a1.528,1.528,0,0,0-.068.446,1.543,1.543,0,1,0,3.087,0,1.505,1.505,0,0,0-.205-.726l2.585-.259a1.758,1.758,0,0,0,1.589-1.755A1.009,1.009,0,0,0,29.937,35.2H22.486a4.614,4.614,0,0,0-.734-1.764h1.7a.441.441,0,0,0,0-.882H20.955A3.823,3.823,0,0,0,19.9,31.94l-.227-1.586h.689a.441.441,0,1,0,0-.882h-.815l-.076-.534a.866.866,0,0,0-.873-.758Zm0,.882.374,2.615h-.747Zm0,3.5a3.264,3.264,0,0,1,3.051,3.121s0,.006,0,.009l.01.077c.009.107.028.212.028.321a3.76,3.76,0,0,1-.1.836c0,.022-.013.043-.019.065a4.026,4.026,0,0,1-.28.79.07.07,0,0,1,0,.008A3.047,3.047,0,0,1,18.6,39.615a3.049,3.049,0,0,1-2.689-1.829.07.07,0,0,0,0-.008,4.025,4.025,0,0,1-.28-.79c-.006-.022-.014-.043-.019-.065a3.753,3.753,0,0,1-.1-.836c0-.109.019-.213.028-.321l.01-.077s0-.006,0-.009A3.264,3.264,0,0,1,18.6,32.559Zm-.687.882a.883.883,0,0,0-.838.6l-.292.882a.882.882,0,0,0,.837,1.161H19.58a.882.882,0,0,0,.837-1.161l-.294-.882a.882.882,0,0,0-.838-.6ZM7.258,36.087h7.371a4.807,4.807,0,0,0,.31,1.7l-7.013-.7a.878.878,0,0,1-.794-.876.126.126,0,0,1,.126-.126Zm15.308,0h7.371a.126.126,0,0,1,.126.126.878.878,0,0,1-.794.876l-7.013.7a4.812,4.812,0,0,0,.31-1.7ZM18.6,37.41a.881.881,0,1,0,.624.258.882.882,0,0,0-.624-.258Zm-7.059.927.564.056a.659.659,0,0,1,.321.56.661.661,0,1,1-1.323,0,.658.658,0,0,1,.438-.616Zm14.112,0a.659.659,0,1,1-.561.056Z" transform="translate(-6.25 -28.18)" fill="#fff"/>
</svg>
