<svg xmlns="http://www.w3.org/2000/svg" width="18.015" height="18.012" viewBox="0 0 18.015 18.012">
  <g id="np_tv_631990_000000" transform="translate(-0.391 -0.39)">
    <path id="Path_1138" data-name="Path 1138" d="M16.368,5.62H10.819a1.384,1.384,0,0,0-.177-.443l3.035-3.127a.87.87,0,1,0-.5-.787.917.917,0,0,0,.089.379l-3.01,3.1a1.429,1.429,0,0,0-1.709,0L6.692,2.808a.87.87,0,1,0-.78.489.889.889,0,0,0,.365-.082L8.153,5.177a1.4,1.4,0,0,0-.177.447H2.427A2.029,2.029,0,0,0,.391,7.651v8.715A2.035,2.035,0,0,0,2.427,18.4H16.371a2.037,2.037,0,0,0,2.035-2.035V7.651A2.04,2.04,0,0,0,16.368,5.62ZM14.045.972a.291.291,0,1,1-.291.291A.292.292,0,0,1,14.045.972ZM5.621,2.425a.291.291,0,1,1,.291.291A.292.292,0,0,1,5.621,2.425ZM9.4,5.038a.872.872,0,0,1,.819.581H8.582A.864.864,0,0,1,9.4,5.038Zm8.424,11.328a1.456,1.456,0,0,1-1.454,1.454H2.426A1.456,1.456,0,0,1,.973,16.367V7.651A1.456,1.456,0,0,1,2.426,6.2H16.371a1.456,1.456,0,0,1,1.454,1.454v8.715Z" fill="#fff"/>
    <path id="Path_1139" data-name="Path 1139" d="M20.017,37.207H9.266a.87.87,0,0,0-.869.869v8.134a.871.871,0,0,0,.869.872h10.75a.872.872,0,0,0,.872-.872V38.076A.871.871,0,0,0,20.017,37.207Zm.291,9.006a.292.292,0,0,1-.291.291H9.266a.292.292,0,0,1-.291-.291V38.076a.292.292,0,0,1,.291-.291h10.75a.292.292,0,0,1,.291.291Z" transform="translate(-6.553 -30.134)" fill="#fff"/>
    <path id="Path_1140" data-name="Path 1140" d="M81.573,37.207a1.163,1.163,0,1,0,1.163,1.163A1.164,1.164,0,0,0,81.573,37.207Zm0,1.741a.581.581,0,1,1,.581-.581A.582.582,0,0,1,81.573,38.948Z" transform="translate(-65.492 -30.134)" fill="#fff"/>
    <path id="Path_1141" data-name="Path 1141" d="M81.573,53.2a1.163,1.163,0,1,0,1.163,1.163A1.164,1.164,0,0,0,81.573,53.2Zm0,1.741a.581.581,0,1,1,.581-.581A.582.582,0,0,1,81.573,54.944Z" transform="translate(-65.492 -43.226)" fill="#fff"/>
    <path id="Path_1142" data-name="Path 1142" d="M80.41,72.684h2.322V69.2H80.41Zm.581-2.9h1.163V72.1H80.991Z" transform="translate(-65.492 -56.318)" fill="#fff"/>
  </g>
</svg>
